# Blender 5.1.2
# www.blender.org
o defaultMaterial
v -0.057239 -0.326355 -0.055882
v -0.049130 -0.348848 -0.147531
v -0.058026 -0.398170 -0.063907
v -0.058401 -0.390610 -0.056246
v -0.044142 -0.451286 0.048941
v -0.057851 -0.396877 -0.048614
v -0.058880 -0.448961 -0.069359
v -0.049983 -0.388370 0.040688
v -0.051402 -0.481033 0.038889
v -0.059190 -0.483771 -0.059135
v -0.054563 -0.514027 0.011413
v -0.059357 -0.516040 -0.039541
v -0.056111 -0.529067 -0.015232
v -0.057554 -0.533460 -0.033264
v -0.054410 -0.219617 -0.025807
v -0.047580 -0.229137 -0.096895
v -0.046918 -0.114146 0.053950
v -0.052979 -0.122353 -0.009228
v -0.047416 -0.210119 0.045282
v -0.046534 0.026603 0.063632
v -0.047529 0.212211 0.063197
v -0.053491 0.207190 0.001439
v -0.052466 0.009872 0.003308
v -0.048519 0.334248 0.054798
v -0.054489 0.329205 -0.007317
v -0.054387 0.456277 -0.023723
v -0.049053 0.455130 0.034299
v -0.053350 0.562437 -0.028720
v -0.049024 0.457407 -0.081744
v -0.047989 0.564214 -0.086548
v -0.046533 0.654164 0.040404
v -0.052509 0.650286 -0.022436
v -0.048056 0.560641 0.029108
v -0.042521 0.857532 0.117143
v -0.041939 0.933902 0.110354
v -0.050977 0.850102 0.018103
v -0.050379 0.928064 0.013728
v -0.042744 0.828847 0.112776
v -0.051217 0.818855 0.015798
v -0.044340 0.745816 0.074971
v -0.051840 0.737632 -0.001922
v -0.040122 1.209222 -0.082899
v -0.048193 1.213176 0.003913
v -0.042029 0.922199 -0.082899
v -0.038879 1.414237 -0.069936
v -0.046726 1.415408 0.000429
v -0.021526 -0.332588 0.054323
v -0.022097 -0.386624 0.052664
v 0.002707 -0.386664 0.052664
v 0.002311 -0.332627 0.054323
v -0.000089 -0.441071 0.057692
v -0.020859 -0.441040 0.057698
v -0.022419 -0.493840 -0.157607
v 0.002269 -0.452296 -0.184443
v 0.002448 -0.493880 -0.157607
v -0.022106 -0.452256 -0.184442
v 0.001835 -0.211760 0.063795
v -0.020807 -0.115662 0.072471
v -0.020660 -0.211723 0.063795
v 0.002293 -0.115699 0.072471
v 0.002276 -0.127261 -0.090705
v 0.001819 -0.223322 -0.114573
v -0.020827 -0.127224 -0.090705
v -0.020680 -0.223285 -0.114573
v 0.004504 0.201226 -0.078887
v -0.020878 -0.005915 -0.075612
v -0.021992 0.201268 -0.078887
v 0.002719 -0.005953 -0.075612
v 0.005885 0.322452 -0.087947
v -0.022981 0.322499 -0.087947
v -0.020823 0.025944 0.082212
v 0.002768 0.025906 0.082212
v -0.021992 0.559673 0.047742
v -0.022992 0.456929 0.052800
v 0.006331 0.456882 0.052800
v 0.005664 0.559628 0.047742
v 0.004824 0.646875 -0.103844
v -0.021944 0.563628 -0.105133
v -0.020870 0.646916 -0.103844
v 0.005628 0.563583 -0.105133
v -0.032468 0.857008 0.127936
v 0.017101 0.856928 0.127936
v -0.031300 0.934586 0.121488
v 0.016184 0.934510 0.121488
v 0.003308 0.921600 -0.101477
v 0.003661 0.842112 -0.099518
v -0.018466 0.921636 -0.101477
v -0.019076 0.842148 -0.099518
v -0.032963 0.825636 0.122953
v 0.017495 0.825554 0.122953
v -0.019335 0.808292 -0.099760
v 0.003811 0.808254 -0.099760
v 0.004160 0.729495 -0.097415
v -0.019939 0.729534 -0.097415
v -0.029170 1.425541 -0.083099
v -0.040735 1.427955 0.000202
v 0.015642 1.425468 -0.083099
v 0.027214 1.427845 0.000202
v 0.017623 1.417377 -0.090707
v -0.016263 1.208912 -0.101477
v -0.031177 1.417456 -0.090707
v 0.002035 1.208883 -0.101477
v -0.026012 -0.384946 -0.182080
v -0.050271 -0.405540 -0.173785
v -0.021634 -0.341245 -0.164468
v -0.026850 -0.399089 -0.187090
v -0.036151 -0.451573 -0.179343
v -0.018446 -0.396855 -0.188929
v -0.039548 -0.491043 -0.152551
v -0.023493 -0.526243 -0.117488
v -0.044715 -0.521471 -0.113346
v -0.026577 -0.539563 -0.076401
v -0.048019 -0.534032 -0.075298
v -0.049307 -0.536282 -0.056785
v -0.027680 -0.541828 -0.052514
v -0.046165 -0.516889 0.011035
v -0.047898 -0.531474 -0.016227
v -0.026653 -0.536852 -0.015101
v -0.023797 -0.520638 0.016519
v -0.036467 -0.484476 0.042261
v -0.022381 -0.485132 0.047250
v -0.031640 -0.459807 0.051383
v -0.020795 -0.454930 0.056131
v -0.032768 -0.445993 0.053496
v -0.048800 -0.331532 0.035767
v -0.021750 0.212830 0.081774
v -0.022771 0.336343 0.073269
v -0.020874 0.649370 0.058579
v -0.019872 0.738346 0.092135
v -0.027084 1.217577 0.103451
v -0.040062 1.217104 0.090725
v -0.038861 1.416552 0.070775
v -0.031156 1.419891 0.091441
v -0.038818 1.423621 0.070547
v -0.046674 1.422577 0.000304
v -0.029166 1.427251 0.083461
v -0.038879 1.414237 -0.069936
v -0.031720 1.420258 -0.090320
v -0.031177 1.417456 -0.090707
v -0.038835 1.421506 -0.069920
v -0.042635 0.842646 -0.080938
v -0.042895 0.808836 -0.081179
v -0.044466 0.729424 -0.078815
v -0.046592 0.646390 -0.085276
v -0.022999 0.455912 -0.100284
v -0.048718 0.324142 -0.069432
v -0.047797 0.202150 -0.060319
v -0.046589 -0.006878 -0.057016
v -0.046969 -0.130581 -0.072406
v -0.046298 -0.413012 -0.174285
v -0.046483 -0.451086 -0.174094
v -0.046716 -0.490051 -0.150148
v -0.049143 -0.520633 -0.112109
v -0.050912 -0.532921 -0.074869
v -0.052229 -0.534583 -0.034105
v -0.050743 -0.530479 -0.016574
v -0.049100 -0.534675 -0.035614
v -0.049611 -0.516469 0.010125
v -0.046844 -0.484363 0.038158
v -0.040386 -0.463383 0.047078
v -0.058772 -0.448724 -0.080671
v -0.050932 -0.451637 -0.170187
v -0.051400 -0.486949 -0.151392
v -0.059052 -0.484234 -0.073825
v -0.059309 -0.516584 -0.062178
v -0.054128 -0.518616 -0.113163
v -0.057571 -0.534039 -0.057445
v -0.056270 -0.531737 -0.075198
v -0.027717 -0.537659 -0.034234
v -0.052260 -0.536065 -0.058311
v -0.046726 1.415408 0.000429
v 0.018175 1.420177 -0.090320
v 0.017623 1.417377 -0.090707
v -0.031701 1.422462 0.090801
v -0.038861 1.416552 0.070775
v -0.031156 1.419891 0.091441
v 0.030820 -0.405671 -0.173785
v 0.029863 -0.348976 -0.147531
v 0.039102 -0.397766 -0.070559
v 0.038021 -0.340330 -0.055882
v 0.030587 -0.388500 0.040688
v 0.039790 -0.449012 -0.064780
v 0.023267 -0.451509 0.049399
v 0.031707 -0.481167 0.038889
v 0.040070 -0.484139 -0.056252
v 0.034761 -0.514171 0.011413
v 0.040194 -0.516474 -0.050875
v 0.036261 -0.529217 -0.015232
v 0.038114 -0.534924 -0.045216
v 0.035561 -0.219762 -0.025807
v 0.028700 -0.229260 -0.096895
v 0.034444 -0.122494 -0.009228
v 0.028597 -0.210242 0.045282
v 0.028409 -0.114268 0.053950
v 0.036022 0.207046 0.001439
v 0.028481 0.026481 0.063632
v 0.034359 0.009732 0.003308
v 0.030076 0.212085 0.063197
v 0.037415 0.329056 -0.007317
v 0.031460 0.334119 0.054798
v 0.037724 0.456128 -0.023723
v 0.032386 0.454998 0.034299
v 0.032365 0.457276 -0.081744
v 0.031675 0.564085 -0.086548
v 0.037030 0.562290 -0.028720
v 0.036474 0.650142 -0.022436
v 0.031731 0.560512 0.029108
v 0.030509 0.654039 0.040404
v 0.035242 0.927926 0.013728
v 0.026821 0.933790 0.110354
v 0.035588 0.849962 0.018103
v 0.027156 0.857420 0.117143
v 0.027285 0.828733 0.112776
v 0.035726 0.818715 0.015798
v 0.028613 0.745698 0.074971
v 0.036086 0.737490 -0.001922
v 0.033978 1.213043 0.003913
v 0.025895 1.209115 -0.082899
v 0.026873 0.922087 -0.082899
v 0.033165 1.415279 0.000429
v 0.025314 1.414133 -0.069936
v -0.000942 -0.396784 -0.188908
v -0.001037 -0.455175 0.056202
v 0.002437 -0.485171 0.047249
v 0.003417 -0.526286 -0.117488
v 0.003739 -0.520682 0.016519
v 0.006541 -0.539714 -0.076402
v 0.004869 -0.537002 -0.033527
v 0.007065 -0.536924 -0.015100
v 0.002391 -0.341284 -0.164468
v 0.004299 0.212788 0.081774
v 0.005720 0.336297 0.073269
v 0.006335 0.455864 -0.100284
v 0.004835 0.649329 0.058579
v 0.004121 0.738307 0.092135
v 0.012883 1.217512 0.103451
v 0.018163 1.422381 0.090801
v 0.017610 1.419812 0.091441
v 0.006643 -0.385003 -0.182074
v 0.002391 -0.341284 -0.164468
v 0.007428 -0.399020 -0.187067
v 0.016331 -0.451696 -0.179406
v 0.019598 -0.491191 -0.152595
v 0.024666 -0.521647 -0.113368
v 0.027792 -0.533955 -0.075128
v 0.004885 -0.538263 -0.046651
v 0.029461 -0.536953 -0.045877
v 0.013065 -0.537452 -0.040025
v 0.026131 -0.517066 0.011068
v 0.027774 -0.531560 -0.016280
v 0.016538 -0.484604 0.042312
v 0.010539 -0.460145 0.051803
v 0.011886 -0.446351 0.053904
v 0.029589 -0.331659 0.035767
v 0.002707 -0.386664 0.052664
v 0.002311 -0.332627 0.054323
v 0.001835 -0.211760 0.063795
v 0.002293 -0.115699 0.072471
v 0.002768 0.025906 0.082212
v 0.004299 0.212788 0.081774
v 0.005720 0.336297 0.073269
v 0.006331 0.456882 0.052800
v 0.005664 0.559628 0.047742
v 0.004835 0.649329 0.058579
v 0.004121 0.738307 0.092135
v 0.017495 0.825554 0.122953
v 0.017101 0.856928 0.127936
v 0.016184 0.934510 0.121488
v 0.012883 1.217512 0.103451
v 0.025860 1.216997 0.090725
v 0.025304 1.416448 0.070775
v 0.017610 1.419812 0.091441
v 0.015643 1.427179 0.083461
v 0.025284 1.423518 0.070547
v 0.033136 1.422448 0.000304
v 0.025314 1.414133 -0.069936
v 0.025293 1.421403 -0.069920
v 0.002035 1.208883 -0.101477
v 0.003308 0.921600 -0.101477
v 0.027222 0.842533 -0.080938
v 0.003661 0.842112 -0.099518
v 0.003811 0.808254 -0.099760
v 0.027372 0.808722 -0.081179
v 0.004160 0.729495 -0.097415
v 0.028686 0.729306 -0.078815
v 0.004824 0.646875 -0.103844
v 0.030544 0.646265 -0.085276
v 0.005628 0.563583 -0.105133
v 0.006335 0.455864 -0.100284
v 0.031627 0.324012 -0.069432
v 0.005885 0.322452 -0.087947
v 0.030312 0.202024 -0.060319
v 0.004504 0.201226 -0.078887
v 0.028427 -0.006999 -0.057016
v 0.002719 -0.005953 -0.075612
v 0.002276 -0.127261 -0.090705
v 0.028408 -0.130703 -0.072406
v 0.001819 -0.223322 -0.114573
v 0.026607 -0.413143 -0.174368
v 0.026665 -0.451245 -0.174159
v 0.026771 -0.490225 -0.150195
v 0.029072 -0.520763 -0.112109
v 0.030998 -0.533383 -0.074869
v 0.032593 -0.536305 -0.045966
v 0.030877 -0.530907 -0.016516
v 0.029548 -0.516584 0.010120
v 0.026917 -0.484528 0.038213
v 0.018868 -0.463218 0.047586
v -0.009683 -0.383942 -0.184984
v 0.011886 -0.446351 0.053904
v 0.031332 -0.451770 -0.170187
v 0.031685 -0.487083 -0.151392
v 0.034311 -0.518759 -0.113163
v 0.036411 -0.531887 -0.075198
v 0.033165 1.415279 0.000429
v 0.017610 1.419812 0.091441
v 0.025304 1.416448 0.070775
v 0.017623 1.417377 -0.090707
v -0.053827 -0.406344 -0.059217
v -0.051324 -0.448908 -0.074985
v -0.051719 -0.483926 -0.066396
v -0.049618 -0.513810 -0.050828
v -0.047056 -0.524843 -0.045481
v -0.041537 -0.528094 -0.045641
v -0.027826 -0.532285 -0.045547
v -0.044826 -0.527489 -0.045432
v 0.003922 -0.534005 -0.039464
v -0.059554 0.949357 -0.035536
v -0.052743 0.962394 -0.058330
v -0.052153 0.942275 -0.095635
v -0.055580 0.965494 -0.034675
v -0.035589 0.973433 0.139502
v -0.051994 0.957056 0.129081
v -0.038229 0.959465 0.147036
v -0.048595 0.971113 0.121621
v -0.048486 0.977590 -0.092423
v -0.020403 0.957058 -0.114321
v -0.025476 0.957222 -0.110329
v -0.018218 1.129553 -0.117583
v -0.046839 1.129782 -0.095299
v -0.055540 0.963572 0.080159
v -0.062913 0.948850 0.023974
v -0.059508 0.948242 0.083483
v -0.058688 0.964585 0.022703
v 0.044486 0.949189 -0.035536
v 0.037017 0.941529 -0.095045
v 0.033658 0.957842 -0.092053
v 0.040564 0.965338 -0.034675
v 0.016738 1.135307 0.130026
v -0.031205 1.135385 0.130026
v 0.020599 0.973342 0.139502
v 0.006535 0.940615 -0.117940
v -0.031617 0.941017 -0.113966
v 0.005360 0.957016 -0.114321
v 0.036950 0.956912 0.129081
v 0.020545 0.959370 0.144810
v 0.033597 0.970980 0.121621
v 0.003732 1.129518 -0.117583
v 0.005360 0.957016 -0.114321
v 0.032354 1.129654 -0.095299
v 0.047843 0.948671 0.023974
v 0.040517 0.963416 0.080159
v 0.044436 0.948074 0.083483
v 0.043668 0.964419 0.022703
v -0.054508 0.936727 -0.030920
v -0.057540 0.935910 0.023912
v -0.035262 0.944588 0.137936
v -0.047686 0.942347 0.120918
v -0.047790 0.929117 -0.085753
v -0.020280 0.928160 -0.106848
v -0.054468 0.934990 0.078745
v 0.032656 0.928987 -0.085753
v 0.039399 0.936575 -0.030920
v 0.017530 0.944502 0.135710
v 0.005143 0.928119 -0.106848
v 0.032595 0.942217 0.120918
v 0.005143 0.928119 -0.106848
v 0.006535 0.940615 -0.117940
v 0.039353 0.934838 0.078745
v 0.042428 0.935748 0.023912
v -0.051054 1.145190 -0.038653
v -0.044739 1.143925 -0.086071
v -0.053504 1.131116 -0.043237
v -0.017619 1.143708 -0.106366
v -0.051022 1.147699 0.057008
v -0.056524 1.132445 0.008826
v -0.053470 1.133765 0.061794
v -0.053916 1.146448 0.008765
v 0.036619 1.145048 -0.038653
v 0.042048 1.132286 0.008826
v 0.039023 1.130967 -0.043237
v 0.039485 1.146297 0.008765
v 0.015503 1.149160 0.119153
v -0.036477 1.148448 0.117733
v 0.003732 1.129518 -0.117583
v 0.003179 1.143675 -0.106366
v 0.030254 1.148821 0.105250
v 0.032306 1.134950 0.114762
v 0.030300 1.143804 -0.086071
v 0.003179 1.143675 -0.106366
v 0.036595 1.147557 0.057008
v 0.038998 1.133615 0.061794
v -0.044511 0.948018 -0.017193
v -0.046901 0.946325 0.023475
v -0.029363 0.949410 0.120357
v -0.039147 0.947749 0.111117
v -0.017558 0.940574 -0.073506
v -0.039222 0.941285 -0.057861
v -0.044483 0.944530 0.064143
v 0.029438 0.947898 -0.017193
v 0.024128 0.941183 -0.057861
v 0.014295 0.949340 0.120357
v 0.002462 0.940542 -0.073506
v 0.024073 0.947647 0.111117
v 0.002462 0.940542 -0.073506
v 0.029399 0.944410 0.064143
v 0.031822 0.946197 0.023475
v -0.035026 1.156632 -0.061732
v -0.039710 1.157569 -0.026563
v -0.034980 1.160354 0.080166
v -0.044660 1.148948 0.105509
v -0.024039 1.160569 0.090477
v -0.014912 1.156471 -0.076785
v -0.039686 1.159430 0.044386
v -0.041832 1.158504 0.008605
v 0.025315 1.157464 -0.026563
v 0.027440 1.158392 0.008605
v 0.009654 1.160514 0.090477
v 0.000514 1.156446 -0.076785
v 0.020594 1.160264 0.080166
v 0.000514 1.156446 -0.076785
v 0.020628 1.156542 -0.061732
v 0.025297 1.159325 0.044386
v -0.057364 1.067264 0.014215
v -0.054857 1.023154 -0.037655
v -0.046991 1.115467 0.115582
v -0.043140 0.952185 -0.105364
v -0.051139 1.134222 0.080228
v -0.053743 1.111346 0.064213
v -0.055349 0.983939 -0.035628
v -0.057869 1.028074 0.017454
v -0.054219 1.072187 0.068439
v -0.045216 1.136281 0.120025
v -0.056205 1.120898 0.105368
v -0.058534 0.966151 -0.066736
v -0.064162 1.010247 -0.036987
v -0.057306 0.973414 -0.083027
v -0.066674 1.054364 0.015282
v -0.063042 1.098457 0.065605
v -0.057406 1.129252 0.089618
v -0.049214 1.142972 0.104856
v -0.064300 0.996835 -0.036294
v -0.066815 1.040960 0.016390
v -0.063175 1.085063 0.067051
v -0.061963 1.417148 -0.014807
v -0.048694 1.191018 -0.088618
v -0.062364 1.168848 -0.014807
v -0.047239 1.413062 -0.087795
v -0.051309 1.196450 0.092279
v -0.050951 1.418316 0.092279
v -0.044933 1.399575 0.130640
v -0.045244 1.207031 0.130640
v -0.036808 1.220674 0.158214
v -0.036539 1.386951 0.158214
v -0.031460 1.362237 0.185864
v -0.031660 1.238224 0.185864
v -0.028677 1.317392 0.210742
v -0.028776 1.255608 0.209714
v -0.028739 1.278725 0.219734
v -0.040986 1.207142 -0.115047
v -0.038231 1.401081 -0.117467
v -0.028963 1.193147 -0.197197
v -0.028409 1.394722 -0.193745
v -0.023886 1.391358 -0.286998
v -0.024234 1.177968 -0.239868
v -0.021474 1.394967 -0.388313
v -0.018081 1.108813 -0.321383
v -0.021696 1.156470 -0.274836
v -0.018215 1.413026 -0.510531
v -0.014896 1.051921 -0.347315
v -0.010013 1.448769 -0.645702
v -0.009965 1.445731 -0.665274
v -0.009115 1.349502 -0.661035
v -0.009194 1.300761 -0.649814
v -0.009218 1.285497 -0.658671
v -0.009459 1.136660 -0.633101
v -0.013779 1.024260 -0.347865
v -0.009646 1.021377 -0.597129
v -0.012400 0.990238 -0.343972
v -0.009815 0.916707 -0.545275
v -0.010716 0.946960 -0.329533
v -0.009871 0.882152 -0.329255
v -0.009693 0.915725 -0.305519
v -0.009231 0.890395 -0.280784
v -0.009914 0.855562 -0.308848
v -0.009952 0.831712 -0.272403
v -0.009874 0.880330 -0.246490
v -0.009986 0.810617 -0.470873
v -0.009935 0.842581 -0.319472
v -0.009882 0.875455 -0.334919
v -0.010085 0.749582 -0.405816
v -0.010163 0.701556 -0.344975
v -0.010014 0.793362 -0.296167
v -0.010038 0.778474 -0.298145
v -0.010166 0.699815 -0.329932
v -0.045244 1.207031 0.130640
v -0.032886 1.200800 0.116905
v -0.007114 1.209269 0.135525
v -0.036808 1.220674 0.158214
v 0.022617 1.220577 0.158214
v -0.031683 1.412165 0.130640
v -0.026750 1.399547 0.158214
v -0.006785 1.412354 0.129329
v 0.017526 1.238145 0.185864
v -0.031660 1.238224 0.185864
v -0.022398 1.374833 0.185864
v 0.013138 1.399482 0.158214
v 0.008706 1.374783 0.185864
v -0.028776 1.255608 0.209714
v 0.014699 1.255537 0.209714
v -0.028677 1.317392 0.210742
v 0.014799 1.317321 0.210742
v 0.014736 1.278654 0.219734
v -0.028739 1.278725 0.219734
v -0.025916 1.404604 -0.193745
v -0.006788 1.410916 -0.119043
v 0.012321 1.404542 -0.193745
v -0.021393 1.401178 -0.287548
v 0.007786 1.401131 -0.287548
v -0.020778 1.174038 -0.193745
v 0.003354 1.160105 -0.232659
v 0.006437 1.173994 -0.193745
v -0.017740 1.160139 -0.232659
v 0.005386 1.404572 -0.389372
v 0.002185 1.422500 -0.511849
v -0.018982 1.404611 -0.389372
v -0.015723 1.422529 -0.511849
v -0.000557 1.096755 -0.307146
v -0.016147 1.140496 -0.264494
v -0.014035 1.096777 -0.307146
v 0.001696 1.140467 -0.264494
v -0.004855 1.458137 -0.647208
v -0.008567 1.458143 -0.647208
v -0.002564 1.044760 -0.330652
v -0.012196 1.044776 -0.330652
v -0.004855 1.458137 -0.647208
v -0.009965 1.445731 -0.665274
v -0.008567 1.458143 -0.647208
v -0.003498 1.445721 -0.665274
v -0.003498 1.445721 -0.665274
v -0.004659 1.349495 -0.661035
v -0.009965 1.445731 -0.665274
v -0.009115 1.349502 -0.661035
v -0.004738 1.300754 -0.649814
v -0.009194 1.300761 -0.649814
v -0.004763 1.285490 -0.658671
v -0.009218 1.285497 -0.658671
v -0.005003 1.136653 -0.633101
v -0.009459 1.136660 -0.633101
v -0.003353 1.019819 -0.330857
v -0.011488 1.019832 -0.330857
v -0.005190 1.021370 -0.597129
v -0.009646 1.021377 -0.597129
v -0.004797 0.988935 -0.327222
v -0.010143 0.988943 -0.327222
v -0.005359 0.916699 -0.545275
v -0.009815 0.916707 -0.545275
v -0.005584 0.950161 -0.314498
v -0.009482 0.950167 -0.314498
v -0.006809 0.921753 -0.292272
v -0.008349 0.921755 -0.292272
v -0.005415 0.882144 -0.329255
v -0.005458 0.855554 -0.308848
v -0.009871 0.882152 -0.329255
v -0.009914 0.855562 -0.308848
v -0.006847 0.898550 -0.269510
v -0.008386 0.898552 -0.269510
v -0.005497 0.831704 -0.272403
v -0.009952 0.831712 -0.272403
v -0.009874 0.880330 -0.246490
v -0.006874 0.881612 -0.245804
v -0.008413 0.881614 -0.245804
v -0.009952 0.831712 -0.272403
v -0.005418 0.880322 -0.246490
v -0.005497 0.831704 -0.272403
v -0.006874 0.881612 -0.245804
v -0.008413 0.881614 -0.245804
v -0.005531 0.810610 -0.470873
v -0.005629 0.749575 -0.405816
v -0.009986 0.810617 -0.470873
v -0.010085 0.749582 -0.405816
v -0.005479 0.842574 -0.319472
v -0.005426 0.875447 -0.334919
v -0.009935 0.842581 -0.319472
v -0.009882 0.875455 -0.334919
v -0.005707 0.701549 -0.344975
v -0.010163 0.701556 -0.344975
v -0.005559 0.793355 -0.296167
v -0.010014 0.793362 -0.296167
v -0.005710 0.699808 -0.329932
v -0.010166 0.699815 -0.329932
v -0.005710 0.699808 -0.329932
v -0.005583 0.778467 -0.298145
v -0.010166 0.699815 -0.329932
v -0.010038 0.778474 -0.298145
v -0.009871 0.882152 -0.329255
v -0.009882 0.875455 -0.334919
v -0.005415 0.882144 -0.329255
v -0.005426 0.875447 -0.334919
v -0.029446 1.412016 -0.104687
v -0.030334 1.410954 -0.119043
v -0.006787 1.411328 -0.105861
v -0.037125 1.186847 -0.117592
v -0.007151 1.186067 -0.120175
v -0.041656 1.188377 -0.082064
v -0.062364 1.168848 -0.014807
v -0.048694 1.191018 -0.088618
v -0.050315 1.168648 -0.014686
v -0.029807 1.189019 -0.104687
v -0.031056 1.188360 -0.094929
v -0.051309 1.196450 0.092279
v -0.041689 1.194030 0.091143
v -0.038039 1.413508 -0.079497
v -0.061963 1.417148 -0.014807
v -0.048722 1.417145 -0.006621
v -0.047239 1.413062 -0.087795
v -0.050951 1.418316 0.092279
v -0.038309 1.418188 0.080402
v -0.032538 1.415755 0.110232
v -0.030647 1.418353 0.093810
v -0.048722 1.417145 -0.006621
v -0.041689 1.194030 0.091143
v -0.050315 1.168648 -0.014686
v -0.038309 1.418188 0.080402
v -0.041656 1.188377 -0.082064
v -0.038039 1.413508 -0.079497
v -0.031235 1.413497 -0.092364
v -0.031056 1.188360 -0.094929
v -0.007148 1.188322 -0.104920
v -0.031235 1.413497 -0.092364
v -0.006784 1.413457 -0.093849
v -0.007148 1.188322 -0.104920
v -0.029814 1.197125 0.106691
v -0.006775 1.418803 0.094389
v -0.029814 1.197125 0.106691
v -0.030647 1.418353 0.093810
v -0.008567 1.458143 -0.647208
v -0.030334 1.410954 -0.119043
v -0.025916 1.404604 -0.193745
v -0.021393 1.401178 -0.287548
v -0.018982 1.404611 -0.389372
v -0.015723 1.422529 -0.511849
v -0.031683 1.412165 0.130640
v -0.022398 1.374833 0.185864
v -0.026750 1.399547 0.158214
v -0.007128 1.200766 0.107269
v -0.006784 1.413457 -0.093849
v -0.030647 1.418353 0.093810
v -0.007128 1.200766 0.107269
v -0.029814 1.197125 0.106691
v -0.006775 1.418803 0.094389
v 0.048407 1.416969 -0.014807
v 0.034407 1.190883 -0.088618
v 0.033670 1.412931 -0.087795
v 0.048005 1.168669 -0.014807
v 0.037040 1.196307 0.092279
v 0.037399 1.418173 0.092279
v 0.031320 1.399452 0.130640
v 0.031009 1.206908 0.130640
v 0.022886 1.386855 0.158214
v 0.017727 1.362158 0.185864
v 0.026751 1.207033 -0.115047
v 0.024623 1.400979 -0.117467
v 0.010247 1.391303 -0.286998
v 0.014683 1.193076 -0.197197
v 0.009905 1.177913 -0.239868
v 0.014782 1.394652 -0.193745
v 0.003529 1.108778 -0.321383
v 0.007847 1.394920 -0.388313
v 0.007297 1.156423 -0.274836
v 0.004647 1.412989 -0.510531
v 0.000159 1.051897 -0.347315
v -0.003440 1.448759 -0.645702
v -0.003498 1.445721 -0.665274
v -0.004659 1.349495 -0.661035
v -0.004738 1.300754 -0.649814
v -0.004763 1.285490 -0.658671
v -0.001047 1.024239 -0.347865
v -0.005003 1.136653 -0.633101
v -0.005190 1.021370 -0.597129
v -0.002536 0.990222 -0.343972
v -0.005359 0.916699 -0.545275
v -0.004360 0.946950 -0.329533
v -0.005484 0.915719 -0.305519
v -0.005415 0.882144 -0.329255
v -0.006028 0.890389 -0.280784
v -0.005458 0.855554 -0.308848
v -0.005497 0.831704 -0.272403
v -0.005418 0.880322 -0.246490
v -0.005479 0.842574 -0.319472
v -0.005531 0.810610 -0.470873
v -0.005426 0.875447 -0.334919
v -0.005629 0.749575 -0.405816
v -0.005559 0.793355 -0.296167
v -0.005707 0.701549 -0.344975
v -0.005583 0.778467 -0.298145
v -0.005710 0.699808 -0.329932
v 0.018631 1.200717 0.116905
v 0.015874 1.411943 -0.104687
v 0.016759 1.410878 -0.119043
v 0.027361 1.188266 -0.082064
v 0.035956 1.168508 -0.014686
v 0.016761 1.188283 -0.094929
v 0.015514 1.188946 -0.104687
v 0.027412 1.193919 0.091143
v 0.024472 1.413407 -0.079497
v 0.035167 1.417009 -0.006621
v 0.024757 1.418086 0.080402
v 0.017096 1.418276 0.093810
v 0.018979 1.415672 0.110232
v 0.035167 1.417009 -0.006621
v 0.027412 1.193919 0.091143
v 0.024757 1.418086 0.080402
v 0.035956 1.168508 -0.014686
v 0.027361 1.188266 -0.082064
v 0.024472 1.413407 -0.079497
v 0.017668 1.413418 -0.092364
v 0.016761 1.188283 -0.094929
v 0.018112 1.412084 0.130640
v 0.017668 1.413418 -0.092364
v 0.015547 1.197052 0.106691
v 0.015547 1.197052 0.106691
v 0.017096 1.418276 0.093810
v -0.007128 1.200766 0.107269
v -0.006775 1.418803 0.094389
v 0.017096 1.418276 0.093810
v 0.015547 1.197052 0.106691
v 0.022824 1.186750 -0.117592
v -0.037125 1.186847 -0.117592
v -0.020778 1.174038 -0.193745
v -0.017740 1.160139 -0.232659
v -0.014035 1.096777 -0.307146
v -0.016147 1.140496 -0.264494
v -0.012196 1.044776 -0.330652
v -0.011488 1.019832 -0.330857
v -0.010143 0.988943 -0.327222
v -0.009482 0.950167 -0.314498
v -0.008349 0.921755 -0.292272
v -0.008386 0.898552 -0.269510
v -0.008413 0.881614 -0.245804
v -0.020859 -0.441040 0.057698
v -0.000089 -0.441071 0.057692
v -0.032768 -0.445993 0.053496
v -0.044142 -0.451286 0.048941
v -0.051402 -0.481033 0.038889
v -0.054563 -0.514027 0.011413
v -0.056111 -0.529067 -0.015232
v -0.057554 -0.533460 -0.033264
v -0.047056 -0.524843 -0.045481
v -0.057571 -0.534039 -0.057445
v -0.056270 -0.531737 -0.075198
v -0.054128 -0.518616 -0.113163
v -0.051400 -0.486949 -0.151392
v -0.050932 -0.451637 -0.170187
v -0.050271 -0.405540 -0.173785
v -0.026012 -0.384946 -0.182080
v -0.009683 -0.383942 -0.184984
v 0.006643 -0.385003 -0.182074
v 0.030820 -0.405671 -0.173785
v 0.031332 -0.451770 -0.170187
v 0.031685 -0.487083 -0.151392
v 0.034311 -0.518759 -0.113163
v 0.036411 -0.531887 -0.075198
v 0.038114 -0.534924 -0.045216
v 0.036261 -0.529217 -0.015232
v 0.034761 -0.514171 0.011413
v 0.031707 -0.481167 0.038889
v 0.023267 -0.451509 0.049399
v 0.011886 -0.446351 0.053904
v 0.006643 -0.385003 -0.182074
vn -0.9996 0.0279 -0.0105
vn -0.8613 0.2136 -0.4610
vn -0.9853 -0.1145 0.1271
vn -0.9981 -0.0617 0.0025
vn -0.7280 -0.0629 0.6826
vn -0.9987 -0.0476 -0.0187
vn -0.9105 0.0313 -0.4124
vn -0.8317 0.0247 0.5547
vn -0.7464 -0.2105 0.6314
vn -0.9189 -0.1400 -0.3689
vn -0.7333 -0.4696 0.4917
vn -0.9296 -0.2025 -0.3080
vn -0.7108 -0.6332 0.3062
vn -0.7223 -0.6663 -0.1853
vn -0.9998 0.0198 0.0009
vn -0.8677 0.1659 -0.4686
vn -0.8638 -0.0374 0.5025
vn -1.0000 0.0086 0.0015
vn -0.8635 -0.0364 0.5031
vn -0.8623 -0.0181 0.5060
vn -0.8634 0.0122 0.5044
vn -1.0000 -0.0068 0.0043
vn -1.0000 -0.0017 0.0041
vn -0.8618 0.0551 0.5043
vn -1.0000 -0.0036 0.0034
vn -1.0000 0.0048 -0.0025
vn -0.8740 0.0554 0.4827
vn -0.9999 0.0102 -0.0036
vn -0.8651 -0.0308 -0.5006
vn -0.8640 0.0036 -0.5034
vn -0.8838 -0.0971 0.4576
vn -0.9999 0.0115 -0.0054
vn -0.8776 -0.0063 0.4794
vn -0.9045 -0.0049 0.4264
vn -0.9103 0.0388 0.4121
vn -1.0000 0.0066 0.0037
vn -1.0000 0.0087 -0.0007
vn -0.8906 -0.1243 0.4374
vn -1.0000 0.0017 0.0050
vn -0.8832 -0.1682 0.4378
vn -1.0000 0.0052 0.0012
vn -0.9018 0.0077 -0.4320
vn -1.0000 0.0097 -0.0006
vn -0.8782 -0.0001 -0.4783
vn -0.9525 -0.0010 -0.3045
vn -1.0000 0.0092 -0.0000
vn -0.2746 -0.0350 0.9609
vn -0.2304 0.0454 0.9720
vn 0.2306 0.0439 0.9721
vn 0.2744 -0.0359 0.9609
vn 0.1542 -0.0092 0.9880
vn -0.1718 -0.0061 0.9851
vn -0.1536 -0.6564 -0.7386
vn 0.1541 -0.3114 -0.9377
vn 0.1496 -0.6571 -0.7388
vn -0.1566 -0.3107 -0.9375
vn 0.2985 -0.0795 0.9511
vn -0.3034 -0.0750 0.9499
vn -0.2987 -0.0786 0.9511
vn 0.3031 -0.0761 0.9499
vn 0.3076 0.1734 -0.9356
vn 0.3028 0.3024 -0.9038
vn -0.3071 0.1744 -0.9356
vn -0.3021 0.3033 -0.9037
vn 0.3087 -0.0461 -0.9500
vn -0.3108 0.0506 -0.9491
vn -0.3089 -0.0451 -0.9500
vn 0.3109 0.0496 -0.9491
vn 0.3079 -0.0816 -0.9479
vn -0.3083 -0.0806 -0.9479
vn -0.3046 -0.0321 0.9519
vn 0.3043 -0.0332 0.9520
vn -0.3114 -0.0298 0.9498
vn -0.3099 0.1042 0.9450
vn 0.3102 0.1032 0.9451
vn 0.3115 -0.0307 0.9497
vn 0.3076 0.0482 -0.9503
vn -0.3039 -0.0102 -0.9526
vn -0.3073 0.0493 -0.9503
vn 0.3042 -0.0114 -0.9525
vn -0.3878 -0.0292 0.9213
vn 0.3878 -0.0304 0.9212
vn -0.3910 0.0728 0.9175
vn 0.3912 0.0715 0.9175
vn 0.3261 -0.0103 -0.9453
vn 0.3287 -0.0068 -0.9444
vn -0.3264 -0.0093 -0.9452
vn -0.3288 -0.0057 -0.9444
vn -0.3815 -0.2470 0.8907
vn 0.3807 -0.2483 0.8908
vn -0.3243 -0.0073 -0.9459
vn 0.3242 -0.0084 -0.9460
vn 0.3212 0.0272 -0.9466
vn -0.3211 0.0282 -0.9466
vn -0.2861 0.9061 -0.3116
vn -0.3111 0.9503 -0.0119
vn 0.2890 0.9052 -0.3116
vn 0.3141 0.9493 -0.0119
vn 0.4838 0.0511 -0.8737
vn -0.3667 0.0184 -0.9302
vn -0.4837 0.0527 -0.8736
vn 0.3667 0.0173 -0.9302
vn -0.3842 0.3413 -0.8578
vn -0.8226 0.1332 -0.5528
vn -0.2954 0.3917 -0.8714
vn -0.3858 0.1027 -0.9168
vn -0.3922 -0.2803 -0.8761
vn -0.1453 0.1562 -0.9770
vn -0.3296 -0.6238 -0.7086
vn -0.1386 -0.8658 -0.4809
vn -0.2949 -0.8297 -0.4739
vn -0.1139 -0.9748 -0.1920
vn -0.2534 -0.9394 -0.2308
vn -0.2567 -0.9047 0.3400
vn -0.1465 -0.9271 0.3451
vn -0.2796 -0.7426 0.6086
vn -0.2210 -0.9230 0.3152
vn -0.1122 -0.9563 0.2700
vn -0.1340 -0.7716 0.6218
vn -0.3159 -0.4492 0.8357
vn -0.1538 -0.4642 0.8723
vn -0.3191 -0.2219 0.9214
vn -0.1550 -0.1920 0.9691
vn -0.3535 -0.0395 0.9346
vn -0.8611 0.0005 0.5084
vn -0.3051 0.0318 0.9518
vn -0.3046 0.1108 0.9460
vn -0.3199 -0.2201 0.9215
vn -0.3154 -0.3395 0.8862
vn -0.4311 0.0594 0.9004
vn -0.9282 0.0299 0.3710
vn -0.9619 0.0108 0.2732
vn -0.4950 0.1043 0.8626
vn -0.8689 0.4607 0.1809
vn -0.8867 0.4622 -0.0067
vn -0.2692 0.9211 0.2814
vn -0.5474 0.4243 -0.7214
vn -0.4837 0.0527 -0.8737
vn -0.8794 0.4353 -0.1926
vn -0.8820 0.0030 -0.4712
vn -0.8759 0.0078 -0.4824
vn -0.8785 0.0310 -0.4768
vn -0.8650 0.0392 -0.5002
vn -0.3051 -0.0641 -0.9502
vn -0.8695 -0.0452 -0.4919
vn -0.8715 -0.0278 -0.4896
vn -0.8747 0.0258 -0.4840
vn -0.8706 0.0938 -0.4829
vn -0.5032 0.0113 -0.8641
vn -0.4537 -0.2469 -0.8563
vn -0.3183 -0.6448 -0.6950
vn -0.2807 -0.8473 -0.4508
vn -0.2575 -0.9358 -0.2407
vn -0.2756 -0.9366 -0.2164
vn -0.1989 -0.9201 0.3373
vn -0.2156 -0.9269 -0.3072
vn -0.2501 -0.7678 0.5898
vn -0.2715 -0.4990 0.8230
vn -0.2965 -0.2603 0.9189
vn -0.9599 -0.0130 0.2800
vn -0.7895 -0.1812 -0.5865
vn -0.7564 -0.3745 -0.5363
vn -0.9456 0.0940 0.3113
vn -0.9539 0.0566 0.2947
vn -0.7301 -0.5630 -0.3873
vn -0.7627 -0.5462 0.3464
vn -0.7328 -0.6475 -0.2093
vn -0.0821 -0.9748 -0.2072
vn -0.2900 -0.9373 0.1932
vn 0.5487 0.4225 -0.7214
vn -0.5499 0.4689 0.6912
vn 0.8217 0.1235 -0.5563
vn 0.8603 0.2135 -0.4629
vn 1.0000 0.0076 -0.0035
vn 0.9996 0.0273 -0.0032
vn 0.8331 0.0209 0.5527
vn 0.9999 0.0098 0.0122
vn 0.7188 -0.0646 0.6922
vn 0.7439 -0.2122 0.6337
vn 0.9995 0.0310 0.0106
vn 0.7301 -0.4774 0.4888
vn 0.9989 -0.0467 -0.0035
vn 0.7207 -0.6314 0.2863
vn 0.7454 -0.6652 0.0438
vn 0.9999 0.0159 0.0007
vn 0.8693 0.1615 -0.4672
vn 1.0000 0.0054 0.0015
vn 0.8633 -0.0392 0.5031
vn 0.8637 -0.0401 0.5024
vn 0.9999 -0.0101 0.0043
vn 0.8623 -0.0208 0.5059
vn 1.0000 -0.0050 0.0041
vn 0.8634 0.0095 0.5044
vn 1.0000 -0.0069 0.0034
vn 0.8620 0.0522 0.5042
vn 1.0000 0.0016 -0.0025
vn 0.8742 0.0526 0.4827
vn 0.8651 -0.0336 -0.5005
vn 0.8641 0.0008 -0.5034
vn 1.0000 0.0070 -0.0036
vn 1.0000 0.0083 -0.0054
vn 0.8776 -0.0091 0.4793
vn 0.8835 -0.1000 0.4576
vn 1.0000 0.0056 -0.0007
vn 0.9104 0.0359 0.4121
vn 1.0000 0.0034 0.0037
vn 0.9045 -0.0078 0.4264
vn 0.8902 -0.1272 0.4374
vn 1.0000 -0.0015 0.0050
vn 0.8827 -0.1710 0.4378
vn 1.0000 0.0019 0.0012
vn 1.0000 0.0065 -0.0007
vn 0.9018 0.0048 -0.4320
vn 0.8782 -0.0030 -0.4783
vn 1.0000 0.0060 -0.0000
vn 0.9525 -0.0041 -0.3045
vn 0.1461 0.1570 -0.9767
vn 0.1292 -0.1942 0.9724
vn 0.1471 -0.4637 0.8737
vn 0.1353 -0.8663 -0.4808
vn 0.1308 -0.7722 0.6218
vn 0.1190 -0.9786 -0.1679
vn -0.0036 -0.9920 -0.1262
vn 0.1081 -0.9559 0.2730
vn 0.2967 0.3907 -0.8714
vn 0.3053 0.0309 0.9517
vn 0.3048 0.1099 0.9461
vn 0.3052 -0.0650 -0.9501
vn 0.3191 -0.2212 0.9215
vn 0.3142 -0.3406 0.8862
vn 0.4313 0.0580 0.9004
vn 0.5514 0.4671 0.6912
vn 0.4953 0.1027 0.8626
vn 0.3856 0.3401 -0.8577
vn 0.2968 0.3907 -0.8714
vn 0.3856 0.1015 -0.9171
vn 0.3894 -0.2824 -0.8767
vn 0.3266 -0.6253 -0.7087
vn 0.2805 -0.8350 -0.4734
vn 0.2107 -0.9583 -0.1928
vn -0.0160 -0.9636 0.2670
vn 0.1746 -0.9839 0.0376
vn 0.0388 -0.9969 0.0682
vn 0.2690 -0.7456 0.6097
vn 0.2128 -0.9252 0.3141
vn 0.3140 -0.4471 0.8375
vn 0.3045 -0.2244 0.9257
vn 0.3348 -0.0476 0.9411
vn 0.8618 -0.0055 0.5072
vn 0.2307 0.0439 0.9720
vn 0.2745 -0.0359 0.9609
vn 0.2986 -0.0795 0.9511
vn 0.3032 -0.0761 0.9499
vn 0.3044 -0.0332 0.9520
vn 0.3054 0.0309 0.9517
vn 0.3049 0.1099 0.9460
vn 0.3102 0.1032 0.9450
vn 0.3116 -0.0307 0.9497
vn 0.3192 -0.2211 0.9215
vn 0.3143 -0.3405 0.8861
vn 0.3807 -0.2483 0.8907
vn 0.3879 -0.0304 0.9212
vn 0.4313 0.0581 0.9003
vn 0.9283 0.0269 0.3710
vn 0.9619 0.0077 0.2732
vn 0.4953 0.1027 0.8627
vn 0.2721 0.9202 0.2814
vn 0.8704 0.4578 0.1809
vn 0.8882 0.4594 -0.0071
vn 0.8808 0.4325 -0.1926
vn 0.3668 0.0173 -0.9302
vn 0.3263 -0.0103 -0.9452
vn 0.8820 0.0001 -0.4712
vn 0.3288 -0.0067 -0.9444
vn 0.3243 -0.0084 -0.9459
vn 0.8760 0.0050 -0.4824
vn 0.3213 0.0272 -0.9466
vn 0.8786 0.0281 -0.4768
vn 0.3077 0.0483 -0.9503
vn 0.8651 0.0364 -0.5002
vn 0.3043 -0.0114 -0.9525
vn 0.3053 -0.0650 -0.9500
vn 0.8690 -0.0482 -0.4924
vn 0.3080 -0.0816 -0.9479
vn 0.8714 -0.0306 -0.4896
vn 0.3088 -0.0461 -0.9500
vn 0.8748 0.0225 -0.4839
vn 0.3110 0.0496 -0.9491
vn 0.8709 0.0910 -0.4829
vn 0.3029 0.3024 -0.9038
vn 0.5006 0.0092 -0.8656
vn 0.4503 -0.2497 -0.8573
vn 0.3164 -0.6453 -0.6953
vn 0.2640 -0.8516 -0.4529
vn 0.2363 -0.9481 -0.2126
vn 0.2260 -0.9736 0.0322
vn 0.2253 -0.9197 0.3214
vn 0.2403 -0.7683 0.5933
vn 0.2691 -0.4988 0.8239
vn 0.2978 -0.2611 0.9182
vn 0.0005 0.3744 -0.9273
vn 0.3349 -0.0475 0.9411
vn 0.7877 -0.1879 -0.5867
vn 0.7569 -0.3771 -0.5338
vn 0.7358 -0.5581 -0.3835
vn 0.7313 -0.6556 -0.1880
vn 0.4838 0.0512 -0.8737
vn -0.9975 -0.0565 -0.0420
vn -0.9943 -0.0170 0.1053
vn -0.9992 -0.0268 0.0300
vn -0.9866 -0.1584 -0.0400
vn -0.8085 -0.5768 -0.1168
vn -0.2852 -0.9531 0.1014
vn -0.1688 -0.9680 0.1855
vn -0.3939 -0.9191 -0.0109
vn -0.1814 -0.9817 0.0582
vn -0.9946 -0.0571 -0.0866
vn -0.9854 -0.1460 0.0879
vn -0.8528 -0.3205 -0.4124
vn -0.9882 0.1227 -0.0921
vn -0.4304 0.2793 0.8583
vn -0.8977 -0.0394 0.4389
vn -0.4177 -0.0280 0.9082
vn -0.9172 0.1996 0.3449
vn -0.7022 0.1982 -0.6839
vn -0.2533 0.0980 -0.9624
vn -0.5233 0.1940 -0.8298
vn -0.2960 0.2936 -0.9089
vn -0.8245 0.2215 -0.5207
vn -0.9838 0.1545 0.0910
vn -0.9979 -0.0651 0.0010
vn -0.9883 -0.0837 0.1272
vn -0.9907 0.1360 0.0022
vn 0.9943 -0.0627 -0.0865
vn 0.8369 -0.1661 -0.5215
vn 0.8607 0.1343 -0.4910
vn 0.9886 0.1181 -0.0938
vn 0.3650 0.3397 0.8668
vn -0.3070 0.3162 0.8976
vn 0.4367 0.2454 0.8655
vn 0.2715 -0.2275 -0.9352
vn -0.3990 -0.2465 -0.8832
vn 0.3064 0.0908 -0.9476
vn 0.8633 -0.0757 0.4990
vn 0.3861 -0.0478 0.9212
vn 0.9137 0.1797 0.3645
vn 0.2971 0.2926 -0.9089
vn 0.3065 0.0908 -0.9475
vn 0.8254 0.2188 -0.5204
vn 0.9977 -0.0683 0.0011
vn 0.9844 0.1514 0.0900
vn 0.9881 -0.0869 0.1272
vn 0.9911 0.1329 0.0020
vn -0.2804 -0.9574 0.0683
vn -0.2324 -0.9724 -0.0208
vn -0.1984 -0.8663 0.4584
vn -0.3528 -0.9112 0.2125
vn -0.4403 -0.8963 -0.0519
vn -0.1113 -0.9336 -0.3405
vn -0.2426 -0.9662 0.0867
vn 0.4409 -0.8947 -0.0723
vn 0.2764 -0.9586 0.0690
vn 0.1527 -0.8860 0.4378
vn 0.1262 -0.9323 -0.3390
vn 0.3477 -0.9060 0.2415
vn 0.1263 -0.9323 -0.3390
vn 0.2716 -0.2275 -0.9352
vn 0.2395 -0.9670 0.0867
vn 0.2292 -0.9732 -0.0208
vn -0.8721 0.4797 -0.0969
vn -0.6955 0.6211 -0.3614
vn -0.9893 0.1080 -0.0984
vn -0.2197 0.7573 -0.6150
vn -0.8738 0.4811 0.0716
vn -0.9950 0.1001 -0.0040
vn -0.9894 0.1130 0.0913
vn -0.8860 0.4636 -0.0120
vn 0.8736 0.4769 -0.0969
vn 0.9953 0.0970 -0.0039
vn 0.9897 0.1047 -0.0978
vn 0.8875 0.4607 -0.0120
vn 0.2570 0.7688 0.5856
vn -0.3349 0.7545 0.5644
vn 0.2970 0.2926 -0.9089
vn 0.2221 0.7566 -0.6150
vn 0.7178 0.6240 0.3088
vn 0.8656 0.2297 0.4450
vn 0.6975 0.6188 -0.3613
vn 0.2222 0.7566 -0.6150
vn 0.8750 0.4788 0.0714
vn 0.9894 0.1102 0.0947
vn 0.6835 -0.7267 0.0680
vn 0.6962 -0.7176 -0.0171
vn 0.1778 -0.9583 -0.2238
vn 0.5232 -0.8498 -0.0641
vn 0.1202 -0.9326 0.3402
vn 0.4682 -0.8504 0.2402
vn 0.6612 -0.7490 -0.0418
vn -0.6859 -0.7245 0.0680
vn -0.4709 -0.8489 0.2402
vn -0.1939 -0.9494 -0.2470
vn -0.1232 -0.9323 0.3401
vn -0.5253 -0.8466 -0.0855
vn -0.1233 -0.9323 0.3401
vn -0.6636 -0.7469 -0.0418
vn -0.6986 -0.7153 -0.0171
vn -0.5497 0.8102 -0.2036
vn -0.6966 0.7133 -0.0768
vn -0.5714 0.8085 0.1408
vn -0.6376 0.7288 0.2498
vn -0.1607 0.9279 0.3364
vn -0.1473 0.9130 -0.3804
vn -0.6974 0.7157 0.0389
vn -0.7063 0.7077 -0.0184
vn 0.6989 0.7111 -0.0768
vn 0.7086 0.7054 -0.0184
vn 0.1590 0.9260 0.3424
vn 0.1503 0.9125 -0.3804
vn 0.5704 0.8078 0.1488
vn 0.5523 0.8084 -0.2036
vn 0.6997 0.7134 0.0389
vn -0.9301 0.2805 -0.2373
vn -0.9135 0.2680 -0.3060
vn -0.7914 -0.0957 0.6037
vn -0.6723 0.1198 -0.7306
vn -0.9373 0.3404 -0.0747
vn -0.9413 0.2724 -0.1995
vn -0.9485 -0.2699 0.1656
vn -0.9376 -0.2577 0.2335
vn -0.9202 -0.2293 0.3174
vn -0.7331 0.2500 0.6325
vn -0.8958 -0.0518 0.4414
vn -0.9484 -0.3104 0.0641
vn -0.9226 0.2521 -0.2921
vn -0.8597 0.2126 -0.4644
vn -0.9370 0.2732 -0.2177
vn -0.9520 0.2734 -0.1380
vn -0.9251 0.3761 -0.0524
vn -0.8366 0.5225 0.1647
vn -0.9513 -0.2759 0.1377
vn -0.9408 -0.2547 0.2238
vn -0.9264 -0.2181 0.3068
vn -0.7274 0.6840 -0.0558
vn -0.7662 -0.5874 -0.2605
vn -0.7107 -0.7024 -0.0388
vn -0.6927 0.6854 -0.2244
vn -0.7422 -0.6173 0.2610
vn -0.6855 0.7103 0.1598
vn -0.8799 0.3324 0.3396
vn -0.6761 -0.6182 0.4010
vn -0.6224 -0.6026 0.4995
vn -0.8500 0.3169 0.4207
vn -0.8300 0.2528 0.4972
vn -0.6553 -0.5708 0.4947
vn -0.6460 0.2228 0.7301
vn -0.6150 -0.4668 0.6354
vn -0.6430 -0.0681 0.7628
vn -0.9705 -0.0795 -0.2274
vn -0.9341 0.2431 -0.2613
vn -0.9850 -0.1556 -0.0742
vn -0.9795 0.1758 -0.0980
vn -0.9923 0.1166 -0.0428
vn -0.9874 -0.1579 0.0090
vn -0.9934 0.1126 -0.0206
vn -0.9953 -0.0901 0.0350
vn -0.9915 -0.1233 0.0404
vn -0.9950 0.0962 -0.0272
vn -0.9981 -0.0441 0.0419
vn -0.9948 0.1010 -0.0152
vn -0.9993 0.0331 -0.0157
vn -0.9996 -0.0087 -0.0267
vn -0.9998 0.0009 -0.0181
vn -0.9999 0.0034 -0.0148
vn -0.9998 -0.0092 -0.0199
vn -0.9983 -0.0212 0.0539
vn -0.9998 -0.0128 -0.0136
vn -0.9986 -0.0131 0.0506
vn -0.9999 -0.0096 -0.0052
vn -0.9990 -0.0001 0.0443
vn -1.0000 -0.0062 0.0071
vn -0.9989 0.0144 0.0457
vn -0.9988 0.0415 0.0278
vn -1.0000 0.0076 0.0039
vn -0.9999 0.0117 -0.0040
vn -0.9950 0.0945 0.0334
vn -1.0000 0.0016 -0.0000
vn -1.0000 -0.0048 -0.0010
vn -0.6761 -0.6181 0.4009
vn -0.0360 -0.9430 0.3309
vn -0.0015 -0.9154 0.4024
vn -0.6225 -0.6026 0.4994
vn 0.6205 -0.6046 0.4994
vn -0.3077 0.8760 0.3715
vn -0.3397 0.7648 0.5474
vn 0.0015 0.9569 0.2903
vn 0.6535 -0.5729 0.4946
vn -0.6554 -0.5708 0.4946
vn -0.3044 0.5688 0.7641
vn 0.3422 0.7637 0.5474
vn 0.3063 0.5678 0.7641
vn -0.6151 -0.4668 0.6354
vn 0.6135 -0.4688 0.6354
vn -0.6460 0.2229 0.7301
vn 0.6467 0.2207 0.7301
vn 0.6428 -0.0701 0.7628
vn -0.6430 -0.0680 0.7628
vn -0.5649 0.8200 -0.0920
vn 0.0016 0.9976 -0.0692
vn 0.5675 0.8182 -0.0920
vn -0.6170 0.7866 -0.0232
vn 0.6196 0.7846 -0.0232
vn -0.5816 -0.8032 0.1289
vn 0.5945 -0.7434 0.3066
vn 0.5789 -0.8051 0.1289
vn -0.5969 -0.7414 0.3066
vn 0.6254 0.7783 0.0550
vn 0.6398 0.7581 0.1266
vn -0.6229 0.7804 0.0551
vn -0.6374 0.7601 0.1267
vn 0.6633 -0.4503 0.5977
vn -0.6268 -0.6281 0.4610
vn -0.6648 -0.4482 0.5977
vn 0.6248 -0.6302 0.4610
vn 0.7464 0.6533 0.1270
vn -0.7443 0.6556 0.1272
vn 0.6956 -0.1851 0.6941
vn -0.6962 -0.1829 0.6941
vn 0.0013 0.8242 -0.5663
vn -0.0001 -0.0440 -0.9990
vn -0.0002 -0.1344 -0.9909
vn 0.0002 0.1492 -0.9888
vn 0.0003 0.1769 -0.9842
vn -0.0004 -0.2341 -0.9722
vn 0.6743 0.0114 0.7383
vn -0.6744 0.0136 0.7383
vn -0.0006 -0.3720 -0.9282
vn 0.6844 0.1323 0.7170
vn -0.6840 0.1346 0.7169
vn -0.0008 -0.5105 -0.8599
vn 0.7153 0.3085 0.6270
vn -0.7143 0.3108 0.6270
vn 0.6882 0.4690 0.5535
vn -0.6867 0.4712 0.5535
vn -0.0010 -0.6088 -0.7933
vn -0.0012 -0.7332 -0.6801
vn 0.6805 0.5675 0.4635
vn -0.6787 0.5697 0.4635
vn -0.0014 -0.8367 -0.5476
vn -0.0008 -0.4703 0.8825
vn -0.0008 -0.4704 0.8825
vn 0.6644 0.6233 0.4123
vn -0.6625 0.6254 0.4124
vn -0.0011 -0.6552 -0.7555
vn -0.0012 -0.7578 -0.6525
vn 0.0007 0.4266 0.9044
vn 0.0007 0.4253 0.9051
vn -0.0015 -0.9243 -0.3818
vn -0.0015 -0.9242 -0.3818
vn 0.0002 0.1545 0.9880
vn 0.0002 0.1544 0.9880
vn -0.0016 -0.9934 -0.1150
vn -0.0006 -0.3747 0.9272
vn -0.0004 -0.2552 0.9669
vn -0.0010 -0.6458 0.7635
vn -0.0035 0.9960 -0.0892
vn -0.4205 0.8902 -0.1752
vn 0.0016 0.9951 -0.0986
vn -0.5965 -0.8022 -0.0258
vn -0.0016 -0.9910 0.1338
vn -0.1027 -0.9687 -0.2262
vn -0.7108 -0.7024 -0.0388
vn -0.7663 -0.5873 -0.2605
vn -0.0753 -0.9969 -0.0232
vn -0.0297 -0.9954 0.0910
vn -0.1465 -0.9865 -0.0738
vn -0.7422 -0.6172 0.2610
vn -0.1440 -0.9489 0.2808
vn -0.0080 0.9982 -0.0597
vn -0.7275 0.6839 -0.0558
vn 0.0080 0.9997 -0.0248
vn -0.6928 0.6853 -0.2244
vn -0.6856 0.7102 0.1598
vn -0.0010 0.9997 0.0239
vn -0.0170 0.9868 0.1608
vn -0.0089 0.9928 0.1191
vn 0.9998 -0.0125 0.0146
vn 0.9494 -0.0222 -0.3133
vn 0.9997 -0.0126 0.0200
vn 0.9428 -0.0231 -0.3324
vn 0.9405 -0.0137 0.3394
vn 0.9356 -0.0137 0.3528
vn 0.5697 -0.0226 0.8215
vn 0.5665 -0.0227 0.8237
vn -0.0016 -0.9981 0.0622
vn -0.0304 0.9946 -0.0990
vn -0.0000 -0.0300 0.9996
vn -0.0476 -0.9495 0.3101
vn 0.0016 0.9849 0.1731
vn 0.8302 -0.0343 -0.5564
vn 0.8303 -0.0342 -0.5563
vn -0.7442 0.6557 0.1272
vn -0.5648 0.8201 -0.0920
vn -0.6169 0.7867 -0.0232
vn -0.6228 0.7805 0.0551
vn -0.6373 0.7601 0.1267
vn -0.3078 0.8759 0.3715
vn -0.3045 0.5688 0.7640
vn -0.3398 0.7648 0.5474
vn -0.0015 -0.9506 0.3103
vn 0.0016 0.9892 -0.1463
vn 0.0299 -0.0585 -0.9978
vn -0.0001 -0.0585 -0.9983
vn 0.0300 -0.0585 -0.9978
vn 0.7296 0.6816 -0.0558
vn 0.7644 -0.5898 -0.2605
vn 0.6950 0.6831 -0.2244
vn 0.7084 -0.7047 -0.0388
vn 0.7402 -0.6197 0.2610
vn 0.6878 0.7081 0.1598
vn 0.8809 0.3296 0.3396
vn 0.6741 -0.6203 0.4010
vn 0.8511 0.3142 0.4207
vn 0.8308 0.2502 0.4972
vn 0.9703 -0.0827 -0.2274
vn 0.9349 0.2401 -0.2614
vn 0.9926 0.1134 -0.0429
vn 0.9845 -0.1588 -0.0742
vn 0.9869 -0.1611 0.0090
vn 0.9801 0.1726 -0.0980
vn 0.9950 -0.0933 0.0350
vn 0.9938 0.1093 -0.0206
vn 0.9911 -0.1265 0.0404
vn 0.9953 0.0930 -0.0272
vn 0.9980 -0.0474 0.0419
vn 0.9951 0.0978 -0.0152
vn 0.9994 0.0299 -0.0157
vn 0.9996 -0.0120 -0.0267
vn 0.9998 -0.0023 -0.0181
vn 0.9999 0.0002 -0.0148
vn 0.9982 -0.0244 0.0539
vn 0.9997 -0.0125 -0.0199
vn 0.9998 -0.0161 -0.0136
vn 0.9986 -0.0164 0.0506
vn 0.9999 -0.0128 -0.0052
vn 0.9990 -0.0033 0.0443
vn 0.9989 0.0112 0.0457
vn 0.9999 -0.0094 0.0071
vn 0.9989 0.0383 0.0278
vn 1.0000 0.0043 0.0039
vn 1.0000 0.0085 -0.0040
vn 0.9953 0.0913 0.0334
vn 1.0000 -0.0016 -0.0000
vn 1.0000 -0.0080 -0.0010
vn 0.0330 -0.9431 0.3309
vn 0.0067 0.9960 -0.0892
vn 0.4234 0.8889 -0.1752
vn 0.0996 -0.9690 -0.2262
vn 0.0721 -0.9971 -0.0232
vn 0.1433 -0.9869 -0.0737
vn 0.0265 -0.9955 0.0910
vn 0.1409 -0.9494 0.2808
vn 0.0113 0.9982 -0.0597
vn -0.0047 0.9997 -0.0248
vn 0.0042 0.9997 0.0239
vn 0.0121 0.9928 0.1191
vn 0.0202 0.9868 0.1608
vn -0.9999 -0.0093 0.0146
vn -0.9495 -0.0191 -0.3133
vn -0.9429 -0.0201 -0.3324
vn -0.9998 -0.0093 0.0200
vn -0.9406 -0.0107 0.3394
vn -0.9357 -0.0107 0.3528
vn -0.5698 -0.0208 0.8215
vn -0.5666 -0.0209 0.8237
vn 0.3106 0.8750 0.3715
vn 0.0336 0.9945 -0.0990
vn 0.0445 -0.9497 0.3101
vn -0.8303 -0.0316 -0.5564
vn -0.8304 -0.0316 -0.5563
vn -0.0301 -0.0584 -0.9978
vn 0.5939 -0.8041 -0.0257
vn -0.5965 -0.8022 -0.0257
vn -0.5815 -0.8032 0.1289
vn -0.5969 -0.7415 0.3065
vn -0.6647 -0.4482 0.5977
vn -0.6268 -0.6282 0.4610
vn -0.6962 -0.1829 0.6942
vn -0.6743 0.0136 0.7383
vn -0.6840 0.1346 0.7170
vn -0.6866 0.4713 0.5536
vn -0.6786 0.5697 0.4635
vn -0.6624 0.6254 0.4123
vn 0.1541 -0.0092 0.9880
vn -0.7280 -0.0629 0.6827
vn -0.7464 -0.2105 0.6313
vn -0.7109 -0.6332 0.3061
vn -0.7894 -0.1812 -0.5865
vn -0.3842 0.3412 -0.8579
vn 0.0005 0.3743 -0.9273
vn 0.3855 0.3402 -0.8577
vn 0.8217 0.1236 -0.5563
vn 0.7877 -0.1879 -0.5868
vn 0.7569 -0.3770 -0.5338
vn 0.7359 -0.5581 -0.3834
vn 0.7454 -0.6652 0.0439
vn 0.7302 -0.4774 0.4888
vn 0.7188 -0.0646 0.6923
vt 0.880686 0.909018
vt 0.895127 0.954685
vt 0.918064 0.911056
vt 0.913895 0.907249
vt 0.939596 0.850526
vt 0.916911 0.903013
vt 0.942905 0.907645
vt 0.909016 0.857757
vt 0.955594 0.855079
vt 0.959257 0.903155
vt 0.972706 0.867982
vt 0.974890 0.893223
vt 0.980756 0.880780
vt 0.983345 0.889582
vt 0.824753 0.897363
vt 0.831708 0.934356
vt 0.769042 0.859188
vt 0.774402 0.891288
vt 0.817738 0.861032
vt 0.698674 0.855645
vt 0.607008 0.853238
vt 0.608071 0.884077
vt 0.706929 0.886183
vt 0.547205 0.853878
vt 0.547433 0.884691
vt 0.483640 0.887863
vt 0.486084 0.858376
vt 0.429755 0.888108
vt 0.481420 0.916944
vt 0.428498 0.917529
vt 0.381542 0.852107
vt 0.384630 0.885285
vt 0.431205 0.857811
vt 0.278186 0.824648
vt 0.242636 0.826473
vt 0.283347 0.870639
vt 0.245743 0.873248
vt 0.291243 0.826019
vt 0.298514 0.871113
vt 0.332465 0.838699
vt 0.339486 0.877344
vt 0.108108 0.920804
vt 0.106083 0.877858
vt 0.249105 0.920628
vt 0.007112 0.914965
vt 0.006482 0.879837
vt 0.879303 0.840810
vt 0.906455 0.839198
vt 0.905145 0.823399
vt 0.878582 0.825559
vt 0.932036 0.822568
vt 0.933316 0.835594
vt 0.558468 0.424532
vt 0.523240 0.448580
vt 0.559116 0.448081
vt 0.522736 0.426450
vt 0.818121 0.826753
vt 0.769768 0.839978
vt 0.817999 0.841246
vt 0.770322 0.825237
vt 0.774286 0.958322
vt 0.822867 0.967923
vt 0.776631 0.943346
vt 0.826525 0.953878
vt 0.609220 0.951391
vt 0.714194 0.936572
vt 0.609146 0.934299
vt 0.713251 0.951781
vt 0.548553 0.953212
vt 0.548212 0.934718
vt 0.699429 0.836811
vt 0.700039 0.821768
vt 0.432295 0.837874
vt 0.485557 0.838818
vt 0.485182 0.819674
vt 0.433310 0.819912
vt 0.386782 0.952724
vt 0.428423 0.936510
vt 0.387182 0.936268
vt 0.428249 0.954161
vt 0.278493 0.816999
vt 0.280700 0.786980
vt 0.242237 0.817965
vt 0.241292 0.787610
vt 0.249533 0.951884
vt 0.289045 0.951543
vt 0.249435 0.938076
vt 0.288807 0.936984
vt 0.292761 0.818586
vt 0.296533 0.788319
vt 0.305658 0.936609
vt 0.305895 0.951433
vt 0.345310 0.951086
vt 0.345388 0.935461
vt 0.479995 0.351615
vt 0.543995 0.368696
vt 0.480936 0.312498
vt 0.544179 0.295933
vt 0.004739 0.957254
vt 0.108109 0.938454
vt 0.005482 0.926323
vt 0.107936 0.950060
vt 0.910990 0.978496
vt 0.923788 0.965303
vt 0.888355 0.973381
vt 0.483650 0.422005
vt 0.523068 0.412727
vt 0.481923 0.430344
vt 0.558717 0.407408
vt 0.596518 0.422061
vt 0.596754 0.400768
vt 0.628889 0.417751
vt 0.628035 0.395944
vt 0.642789 0.393561
vt 0.647008 0.416096
vt 0.707570 0.400274
vt 0.683292 0.396638
vt 0.681015 0.418328
vt 0.707736 0.423012
vt 0.742294 0.412152
vt 0.743037 0.426553
vt 0.762930 0.417486
vt 0.767199 0.429041
vt 0.936364 0.843155
vt 0.880196 0.861093
vt 0.607329 0.834490
vt 0.546727 0.835303
vt 0.385042 0.832442
vt 0.337167 0.820969
vt 0.103521 0.824586
vt 0.104120 0.834886
vt 0.005823 0.844744
vt 0.003909 0.833527
vt 0.600825 0.364093
vt 0.543923 0.376698
vt 0.607978 0.353675
vt 0.483692 0.368406
vt 0.473581 0.353950
vt 0.471447 0.354447
vt 0.486914 0.362708
vt 0.288324 0.919310
vt 0.305112 0.918944
vt 0.345289 0.916725
vt 0.387568 0.917333
vt 0.481700 0.935921
vt 0.547817 0.915813
vt 0.609082 0.915236
vt 0.715332 0.917261
vt 0.779679 0.923841
vt 0.494749 0.400579
vt 0.523735 0.402110
vt 0.559048 0.400000
vt 0.597082 0.396186
vt 0.627962 0.392846
vt 0.669583 0.390451
vt 0.683624 0.393628
vt 0.667985 0.393383
vt 0.707451 0.396686
vt 0.741174 0.401206
vt 0.759356 0.408112
vt 0.942968 0.918378
vt 0.945418 0.962800
vt 0.962006 0.953695
vt 0.960891 0.915156
vt 0.977341 0.910290
vt 0.977496 0.935297
vt 0.985886 0.908350
vt 0.984564 0.916952
vt 0.666351 0.415805
vt 0.641315 0.390706
vt 0.543866 0.383253
vt 0.474904 0.310154
vt 0.472564 0.309601
vt 0.613926 0.355954
vt 0.603756 0.369558
vt 0.615951 0.356379
vt 0.917725 0.621534
vt 0.888936 0.633260
vt 0.911931 0.672789
vt 0.883025 0.679123
vt 0.905774 0.727366
vt 0.937303 0.676536
vt 0.936388 0.733847
vt 0.951822 0.728357
vt 0.954540 0.681234
vt 0.968460 0.715121
vt 0.970366 0.684331
vt 0.976240 0.702128
vt 0.979415 0.687373
vt 0.821951 0.692352
vt 0.827457 0.656118
vt 0.772810 0.699873
vt 0.816395 0.728167
vt 0.768399 0.731666
vt 0.607933 0.707962
vt 0.698461 0.736647
vt 0.706371 0.706196
vt 0.606550 0.738953
vt 0.547099 0.706238
vt 0.546127 0.737291
vt 0.483371 0.701391
vt 0.485182 0.730670
vt 0.481611 0.672323
vt 0.428597 0.671395
vt 0.429949 0.700550
vt 0.385624 0.703852
vt 0.431322 0.730132
vt 0.383337 0.736151
vt 0.246456 0.718967
vt 0.242937 0.766966
vt 0.284958 0.721647
vt 0.280351 0.770081
vt 0.294249 0.768317
vt 0.300485 0.720847
vt 0.336071 0.751911
vt 0.341368 0.713142
vt 0.105314 0.712335
vt 0.107821 0.669086
vt 0.249964 0.670861
vt 0.005108 0.709322
vt 0.006106 0.674052
vt 0.482393 0.447535
vt 0.765837 0.449140
vt 0.741352 0.450522
vt 0.597412 0.447956
vt 0.705841 0.449586
vt 0.630147 0.450302
vt 0.664643 0.448495
vt 0.678721 0.451301
vt 0.883437 0.987856
vt 0.607574 0.817919
vt 0.546254 0.817256
vt 0.481903 0.954621
vt 0.387843 0.815589
vt 0.340576 0.805836
vt 0.101905 0.799293
vt 0.614381 0.310903
vt 0.616669 0.310475
vt 0.904007 0.608539
vt 0.881377 0.614820
vt 0.484608 0.455701
vt 0.524507 0.462234
vt 0.560499 0.465185
vt 0.598981 0.469336
vt 0.630612 0.472099
vt 0.653333 0.448240
vt 0.654075 0.473639
vt 0.658807 0.456720
vt 0.702812 0.472171
vt 0.678208 0.472561
vt 0.738806 0.464767
vt 0.760067 0.460764
vt 0.933705 0.814529
vt 0.877676 0.725361
vt 0.904067 0.745637
vt 0.877667 0.745142
vt 0.817427 0.747658
vt 0.769691 0.750724
vt 0.699420 0.755435
vt 0.606717 0.757830
vt 0.545103 0.756169
vt 0.484117 0.750032
vt 0.432279 0.749517
vt 0.387295 0.754812
vt 0.342059 0.769146
vt 0.296235 0.776139
vt 0.280643 0.778379
vt 0.242266 0.775716
vt 0.102004 0.765935
vt 0.102767 0.755567
vt 0.004055 0.744575
vt 0.002000 0.755870
vt 0.607886 0.313333
vt 0.600596 0.302219
vt 0.544248 0.288016
vt 0.484955 0.295843
vt 0.488040 0.301520
vt 0.107999 0.651299
vt 0.250409 0.653257
vt 0.289456 0.672221
vt 0.289866 0.654547
vt 0.306680 0.654725
vt 0.306308 0.672418
vt 0.345866 0.655719
vt 0.346165 0.674062
vt 0.387039 0.653351
vt 0.387883 0.672184
vt 0.428430 0.652357
vt 0.482180 0.653244
vt 0.548156 0.675011
vt 0.548971 0.656083
vt 0.609343 0.676856
vt 0.609688 0.657819
vt 0.714379 0.675513
vt 0.713142 0.656633
vt 0.773687 0.648798
vt 0.777144 0.667886
vt 0.821679 0.637363
vt 0.497053 0.476097
vt 0.525860 0.472784
vt 0.561314 0.472569
vt 0.599595 0.473880
vt 0.630751 0.475404
vt 0.653991 0.476906
vt 0.678073 0.475789
vt 0.702244 0.475702
vt 0.736316 0.475521
vt 0.755802 0.469287
vt 0.907691 0.988275
vt 0.933607 0.741343
vt 0.940456 0.624157
vt 0.957580 0.634009
vt 0.972596 0.653505
vt 0.978462 0.672519
vt 0.544304 0.281502
vt 0.002000 0.802681
vt 0.603708 0.296650
vt 0.004568 0.662614
vt 0.922418 0.908061
vt 0.943122 0.912871
vt 0.960237 0.909058
vt 0.976039 0.901807
vt 0.981990 0.899369
vt 0.656245 0.399451
vt 0.656170 0.414740
vt 0.656417 0.395774
vt 0.659624 0.447007
vt 0.435150 0.565000
vt 0.423541 0.575453
vt 0.427341 0.595599
vt 0.425456 0.562443
vt 0.429029 0.465946
vt 0.438081 0.475605
vt 0.436740 0.465536
vt 0.430655 0.477859
vt 0.409683 0.593717
vt 0.418352 0.617279
vt 0.418524 0.612890
vt 0.326721 0.604450
vt 0.332165 0.583873
vt 0.434060 0.499255
vt 0.441155 0.530668
vt 0.442563 0.498108
vt 0.431651 0.530351
vt 0.436138 0.330616
vt 0.433086 0.297343
vt 0.423642 0.298242
vt 0.426404 0.332399
vt 0.354927 0.436190
vt 0.354954 0.462240
vt 0.429059 0.429973
vt 0.430538 0.638571
vt 0.427084 0.610106
vt 0.419169 0.638144
vt 0.436863 0.420038
vt 0.435969 0.430866
vt 0.429581 0.418184
vt 0.320533 0.290138
vt 0.423610 0.271874
vt 0.330013 0.313247
vt 0.440257 0.365578
vt 0.432483 0.396836
vt 0.440875 0.398020
vt 0.430727 0.365463
vt 0.444338 0.565047
vt 0.449731 0.531512
vt 0.445075 0.465555
vt 0.446544 0.477312
vt 0.435606 0.595131
vt 0.436278 0.615316
vt 0.450738 0.500037
vt 0.441284 0.299129
vt 0.445529 0.331456
vt 0.444686 0.430594
vt 0.441641 0.634808
vt 0.444820 0.418293
vt 0.445569 0.275235
vt 0.434281 0.271444
vt 0.448951 0.396225
vt 0.448815 0.365139
vt 0.323534 0.553693
vt 0.324669 0.579909
vt 0.331844 0.556636
vt 0.318290 0.599554
vt 0.333308 0.497296
vt 0.335080 0.527125
vt 0.342196 0.497849
vt 0.326792 0.525511
vt 0.323823 0.345506
vt 0.336108 0.371854
vt 0.332094 0.342054
vt 0.327815 0.373550
vt 0.347088 0.435949
vt 0.347370 0.465828
vt 0.320071 0.619402
vt 0.309515 0.613473
vt 0.345259 0.425407
vt 0.353047 0.425927
vt 0.322476 0.318505
vt 0.311603 0.297744
vt 0.334167 0.401542
vt 0.342888 0.400973
vt 0.457072 0.559324
vt 0.460169 0.532944
vt 0.457181 0.465301
vt 0.456098 0.476983
vt 0.456943 0.606733
vt 0.450195 0.585379
vt 0.461497 0.506675
vt 0.457753 0.338434
vt 0.454315 0.311463
vt 0.454583 0.429555
vt 0.463647 0.623303
vt 0.453866 0.418666
vt 0.464624 0.292032
vt 0.459607 0.389959
vt 0.459142 0.364237
vt 0.311111 0.569777
vt 0.311501 0.546399
vt 0.327636 0.476903
vt 0.344820 0.473278
vt 0.327447 0.464363
vt 0.302110 0.587663
vt 0.319358 0.499953
vt 0.314809 0.523375
vt 0.312252 0.353353
vt 0.315957 0.375775
vt 0.329016 0.434723
vt 0.293441 0.597994
vt 0.328523 0.422209
vt 0.298717 0.314824
vt 0.310161 0.330526
vt 0.320289 0.398885
vt 0.371525 0.530390
vt 0.389831 0.561302
vt 0.361717 0.473934
vt 0.422183 0.602076
vt 0.345868 0.488335
vt 0.354124 0.500546
vt 0.415296 0.560721
vt 0.396525 0.529089
vt 0.378206 0.499584
vt 0.353101 0.470312
vt 0.357337 0.479978
vt 0.418873 0.579408
vt 0.399070 0.559895
vt 0.413612 0.586815
vt 0.380637 0.529602
vt 0.363166 0.500655
vt 0.351754 0.485350
vt 0.348065 0.475794
vt 0.406106 0.560614
vt 0.387560 0.530081
vt 0.369892 0.501192
vt 0.958366 0.442891
vt 0.814194 0.392552
vt 0.799393 0.440950
vt 0.956358 0.394583
vt 0.816232 0.510323
vt 0.958281 0.512057
vt 0.945451 0.536676
vt 0.822838 0.535798
vt 0.831557 0.555060
vt 0.937618 0.555474
vt 0.921647 0.573355
vt 0.842873 0.573468
vt 0.893719 0.589556
vt 0.854054 0.588948
vt 0.868903 0.595361
vt 0.824350 0.374597
vt 0.950032 0.373962
vt 0.815644 0.321377
vt 0.944993 0.324520
vt 0.942568 0.265211
vt 0.806282 0.293749
vt 0.945266 0.201094
vt 0.763161 0.241112
vt 0.792961 0.271191
vt 0.957420 0.124112
vt 0.727296 0.224030
vt 0.981260 0.038728
vt 0.979496 0.026347
vt 0.918654 0.028121
vt 0.887744 0.034756
vt 0.878179 0.029015
vt 0.783886 0.043752
vt 0.709752 0.223338
vt 0.710540 0.065348
vt 0.688125 0.225413
vt 0.643742 0.097051
vt 0.660502 0.234067
vt 0.619437 0.233459
vt 0.640399 0.248911
vt 0.624029 0.264271
vt 0.602341 0.246020
vt 0.586741 0.268748
vt 0.617140 0.285846
vt 0.575731 0.142977
vt 0.594277 0.239205
vt 0.615266 0.229792
vt 0.536354 0.183489
vt 0.505262 0.221478
vt 0.562849 0.253411
vt 0.553444 0.251992
vt 0.503991 0.230983
vt 0.242603 0.573702
vt 0.241103 0.557265
vt 0.214920 0.550359
vt 0.219297 0.584107
vt 0.186864 0.542149
vt 0.046074 0.542054
vt 0.062537 0.557582
vt 0.063902 0.529655
vt 0.174118 0.556972
vt 0.195996 0.594471
vt 0.084309 0.573915
vt 0.087303 0.536517
vt 0.100402 0.553392
vt 0.173312 0.602085
vt 0.162605 0.568255
vt 0.122360 0.600984
vt 0.132206 0.565898
vt 0.151393 0.572104
vt 0.153179 0.605820
vt 0.054466 0.315604
vt 0.059249 0.364776
vt 0.085046 0.320596
vt 0.064033 0.258657
vt 0.087541 0.259747
vt 0.266670 0.323820
vt 0.252641 0.293109
vt 0.243192 0.320720
vt 0.269526 0.298756
vt 0.084733 0.194539
vt 0.074022 0.117743
vt 0.065182 0.195811
vt 0.059187 0.119435
vt 0.293177 0.239490
vt 0.277759 0.278038
vt 0.300573 0.248036
vt 0.265108 0.270349
vt 0.059434 0.038348
vt 0.056430 0.037276
vt 0.327360 0.220674
vt 0.330300 0.228214
vt 0.063968 0.025390
vt 0.066601 0.029560
vt 0.116110 0.020607
vt 0.116006 0.017437
vt 0.147530 0.023842
vt 0.147090 0.019872
vt 0.158644 0.020588
vt 0.158276 0.017033
vt 0.249756 0.025652
vt 0.250248 0.022104
vt 0.344075 0.217785
vt 0.344961 0.224305
vt 0.323222 0.041565
vt 0.324193 0.038086
vt 0.364763 0.218031
vt 0.364420 0.222495
vt 0.391606 0.064819
vt 0.392871 0.061521
vt 0.391634 0.224228
vt 0.390421 0.227220
vt 0.410358 0.237439
vt 0.409607 0.238333
vt 0.446822 0.211244
vt 0.451343 0.238225
vt 0.451981 0.213304
vt 0.455077 0.238131
vt 0.422884 0.251346
vt 0.422155 0.252028
vt 0.449660 0.257037
vt 0.451791 0.258927
vt 0.432088 0.262661
vt 0.432004 0.261103
vt 0.431738 0.261787
vt 0.432579 0.260198
vt 0.462177 0.094985
vt 0.509068 0.119930
vt 0.463660 0.091883
vt 0.511045 0.116822
vt 0.480638 0.198418
vt 0.453220 0.205691
vt 0.481465 0.201966
vt 0.455590 0.209246
vt 0.547817 0.148240
vt 0.551271 0.146001
vt 0.514145 0.192061
vt 0.515313 0.195255
vt 0.551026 0.155418
vt 0.554649 0.156088
vt 0.521122 0.187992
vt 0.523140 0.190693
vt 0.038886 0.369826
vt 0.040328 0.360116
vt 0.057258 0.372987
vt 0.279868 0.372999
vt 0.254657 0.371637
vt 0.283500 0.398880
vt 0.298637 0.462417
vt 0.291265 0.393897
vt 0.285526 0.460329
vt 0.273603 0.382047
vt 0.274437 0.388707
vt 0.266675 0.552542
vt 0.258236 0.547485
vt 0.028932 0.386504
vt 0.002000 0.438391
vt 0.015594 0.444857
vt 0.020339 0.379273
vt 0.018386 0.522208
vt 0.028902 0.511658
vt 0.039013 0.529286
vt 0.036450 0.518586
vt 0.551512 0.504179
vt 0.496679 0.624013
vt 0.553997 0.638571
vt 0.503927 0.502888
vt 0.591043 0.628361
vt 0.591577 0.506622
vt 0.599988 0.506651
vt 0.601173 0.628364
vt 0.254914 0.381600
vt 0.035947 0.377742
vt 0.616996 0.506547
vt 0.618642 0.628394
vt 0.244015 0.549822
vt 0.053270 0.509817
vt 0.484974 0.621889
vt 0.494942 0.502502
vt 0.987300 0.037816
vt 0.958532 0.370964
vt 0.951560 0.324138
vt 0.949095 0.264775
vt 0.951687 0.200443
vt 0.963748 0.123315
vt 0.957938 0.541857
vt 0.931768 0.577534
vt 0.948408 0.559583
vt 0.229080 0.535933
vt 0.055559 0.380386
vt 0.469404 0.618725
vt 0.478419 0.500990
vt 0.085550 0.434069
vt 0.222181 0.395499
vt 0.083989 0.392297
vt 0.220812 0.442394
vt 0.206087 0.504853
vt 0.083145 0.495403
vt 0.092020 0.517204
vt 0.195988 0.526352
vt 0.097115 0.533890
vt 0.109558 0.550368
vt 0.214520 0.376012
vt 0.087484 0.372225
vt 0.094191 0.260204
vt 0.228046 0.318508
vt 0.238902 0.288351
vt 0.091814 0.320955
vt 0.284119 0.230146
vt 0.091135 0.195220
vt 0.253073 0.263608
vt 0.079966 0.118810
vt 0.321277 0.209834
vt 0.064789 0.039743
vt 0.339597 0.207059
vt 0.362662 0.206815
vt 0.393204 0.214045
vt 0.414362 0.229216
vt 0.427486 0.244882
vt 0.208875 0.525931
vt 0.074656 0.378531
vt 0.078346 0.369953
vt 0.229019 0.398856
vt 0.229946 0.443275
vt 0.236059 0.389374
vt 0.236285 0.383082
vt 0.213203 0.507726
vt 0.076105 0.395040
vt 0.075429 0.438365
vt 0.073036 0.491454
vt 0.070207 0.501248
vt 0.075849 0.509735
vt 0.682393 0.502411
vt 0.740443 0.620721
vt 0.729925 0.499835
vt 0.683539 0.636821
vt 0.646231 0.627616
vt 0.642408 0.505935
vt 0.634002 0.506191
vt 0.636104 0.627893
vt 0.080653 0.520538
vt 0.073642 0.386188
vt 0.215068 0.522070
vt 0.752086 0.618280
vt 0.738897 0.499206
vt 0.767565 0.614697
vt 0.755373 0.497249
vt 0.228966 0.374994
vt 0.811256 0.372162
vt 0.801761 0.322767
vt 0.793738 0.298066
vt 0.754967 0.250213
vt 0.781924 0.277757
vt 0.722418 0.234649
vt 0.706659 0.234180
vt 0.687057 0.236155
vt 0.662336 0.243685
vt 0.644072 0.257438
vt 0.629071 0.271538
vt 0.618434 0.286612
vt 0.778483 0.429371
vt 0.777102 0.451109
vt 0.774247 0.416366
vt 0.769239 0.404084
vt 0.743892 0.396493
vt 0.709763 0.391689
vt 0.685558 0.388245
vt 0.671040 0.385050
vt 0.656394 0.392264
vt 0.641383 0.384874
vt 0.627156 0.387313
vt 0.595377 0.391114
vt 0.556369 0.395295
vt 0.524942 0.396901
vt 0.488877 0.396343
vt 0.471672 0.421740
vt 0.471161 0.439282
vt 0.472804 0.456713
vt 0.491472 0.480900
vt 0.527393 0.478123
vt 0.558940 0.477677
vt 0.598221 0.479314
vt 0.630295 0.481075
vt 0.654571 0.482724
vt 0.679260 0.481467
vt 0.703877 0.481231
vt 0.738407 0.480785
vt 0.764747 0.475080
vt 0.771121 0.463463
vt 0.904204 0.998000
s 1
f 1/1/1 2/2/2 3/3/3
f 1/1/1 3/3/3 4/4/4
f 5/5/5 6/6/6 7/7/7
f 5/5/5 8/8/8 6/6/6
f 5/5/5 7/7/7 9/9/9
f 9/9/9 7/7/7 10/10/10
f 9/9/9 10/10/10 11/11/11
f 11/11/11 10/10/10 12/12/12
f 11/11/11 12/12/12 13/13/13
f 12/12/12 14/14/14 13/13/13
f 1/1/1 15/15/15 16/16/16
f 1/1/1 16/16/16 2/2/2
f 17/17/17 18/18/18 19/19/19
f 19/19/19 18/18/18 15/15/15
f 20/20/20 21/21/21 22/22/22
f 20/20/20 22/22/22 23/23/23
f 21/21/21 24/24/24 25/25/25
f 21/21/21 25/25/25 22/22/22
f 17/17/17 20/20/20 23/23/23
f 17/17/17 23/23/23 18/18/18
f 26/26/26 25/25/25 27/27/27
f 24/24/24 27/27/27 25/25/25
f 28/28/28 29/29/29 26/26/26
f 29/29/29 28/28/28 30/30/30
f 31/31/31 32/32/32 33/33/33
f 33/33/33 32/32/32 28/28/28
f 34/34/34 35/35/35 36/36/36
f 35/35/35 37/37/37 36/36/36
f 34/34/34 36/36/36 38/38/38
f 38/38/38 36/36/36 39/39/39
f 38/38/38 39/39/39 40/40/40
f 40/40/40 39/39/39 41/41/41
f 31/31/31 40/40/40 41/41/41
f 31/31/31 41/41/41 32/32/32
f 42/42/42 37/37/37 43/43/43
f 37/37/37 42/42/42 44/44/44
f 45/45/45 43/43/43 46/46/46
f 43/43/43 45/45/45 42/42/42
f 47/47/47 48/48/48 49/49/49
f 47/47/47 49/49/49 50/50/50
f 51/51/51 48/48/48 52/52/52
f 48/48/48 51/51/51 49/49/49
f 53/53/53 54/54/54 55/55/55
f 54/54/54 53/53/53 56/56/56
f 57/57/57 58/58/58 59/59/59
f 58/58/58 57/57/57 60/60/60
f 61/61/61 62/62/62 63/63/63
f 64/64/64 63/63/63 62/62/62
f 65/65/65 66/66/66 67/67/67
f 66/66/66 65/65/65 68/68/68
f 69/69/69 65/65/65 70/70/70
f 67/67/67 70/70/70 65/65/65
f 60/60/60 71/71/71 58/58/58
f 71/71/71 60/60/60 72/72/72
f 73/73/73 74/74/74 75/75/75
f 73/73/73 75/75/75 76/76/76
f 77/77/77 78/78/78 79/79/79
f 78/78/78 77/77/77 80/80/80
f 81/81/81 82/82/82 83/83/83
f 83/83/83 82/82/82 84/84/84
f 85/85/85 86/86/86 87/87/87
f 88/88/88 87/87/87 86/86/86
f 81/81/81 89/89/89 82/82/82
f 89/89/89 90/90/90 82/82/82
f 91/91/91 88/88/88 92/92/92
f 88/88/88 86/86/86 92/92/92
f 92/92/92 93/93/93 91/91/91
f 94/94/94 91/91/91 93/93/93
f 95/95/95 96/96/96 97/97/97
f 96/96/96 98/98/98 97/97/97
f 99/99/99 100/100/100 101/101/101
f 100/100/100 99/99/99 102/102/102
f 2/2/2 103/103/103 104/104/104
f 103/103/103 2/2/2 105/105/105
f 106/106/106 56/56/56 107/107/107
f 56/56/56 106/106/106 108/108/108
f 109/109/109 56/56/56 53/53/53
f 56/56/56 109/109/109 107/107/107
f 109/109/109 110/110/110 111/111/111
f 110/110/110 109/109/109 53/53/53
f 111/111/111 112/112/112 113/113/113
f 112/112/112 111/111/111 110/110/110
f 112/112/112 114/114/114 113/113/113
f 114/114/114 112/112/112 115/115/115
f 116/116/116 117/117/117 118/118/118
f 118/118/118 119/119/119 116/116/116
f 120/120/120 116/116/116 119/119/119
f 120/120/120 119/119/119 121/121/121
f 122/122/122 120/120/120 121/121/121
f 121/121/121 123/123/123 122/122/122
f 52/52/52 48/48/48 124/124/124
f 125/125/125 8/8/8 48/48/48
f 125/125/125 48/48/48 47/47/47
f 125/125/125 59/59/59 19/19/19
f 59/59/59 125/125/125 47/47/47
f 19/19/19 58/58/58 17/17/17
f 58/58/58 19/19/19 59/59/59
f 17/17/17 71/71/71 20/20/20
f 71/71/71 17/17/17 58/58/58
f 20/20/20 126/126/126 21/21/21
f 126/126/126 20/20/20 71/71/71
f 24/24/24 21/21/21 126/126/126
f 24/24/24 126/126/126 127/127/127
f 27/27/27 24/24/24 127/127/127
f 27/27/27 127/127/127 74/74/74
f 33/33/33 27/27/27 74/74/74
f 33/33/33 74/74/74 73/73/73
f 33/33/33 128/128/128 31/31/31
f 128/128/128 33/33/33 73/73/73
f 31/31/31 129/129/129 40/40/40
f 129/129/129 31/31/31 128/128/128
f 40/40/40 89/89/89 38/38/38
f 89/89/89 40/40/40 129/129/129
f 81/81/81 38/38/38 89/89/89
f 38/38/38 81/81/81 34/34/34
f 83/83/83 34/34/34 81/81/81
f 34/34/34 83/83/83 35/35/35
f 130/130/130 35/35/35 83/83/83
f 35/35/35 130/130/130 131/131/131
f 132/132/132 130/130/130 133/133/133
f 130/130/130 132/132/132 131/131/131
f 134/134/134 96/96/96 135/135/135
f 136/136/136 96/96/96 134/134/134
f 137/137/45 138/138/137 139/139/138
f 138/138/137 137/137/45 140/140/139
f 44/44/44 42/42/42 100/100/100
f 44/44/44 100/100/100 87/87/87
f 141/141/140 44/44/44 87/87/87
f 141/141/140 87/87/87 88/88/88
f 142/142/141 141/141/140 88/88/88
f 142/142/141 88/88/88 91/91/91
f 142/142/141 94/94/94 143/143/142
f 94/94/94 142/142/141 91/91/91
f 143/143/142 79/79/79 144/144/143
f 79/79/79 143/143/142 94/94/94
f 144/144/143 78/78/78 30/30/30
f 78/78/78 144/144/143 79/79/79
f 29/29/29 30/30/30 78/78/78
f 29/29/29 78/78/78 145/145/144
f 146/146/145 29/29/29 145/145/144
f 146/146/145 145/145/144 70/70/70
f 147/147/146 146/146/145 70/70/70
f 147/147/146 70/70/70 67/67/67
f 148/148/147 147/147/146 67/67/67
f 148/148/147 67/67/67 66/66/66
f 148/148/147 63/63/63 149/149/148
f 63/63/63 148/148/147 66/66/66
f 149/149/148 64/64/64 16/16/16
f 64/64/64 149/149/148 63/63/63
f 16/16/16 105/105/105 2/2/2
f 105/105/105 16/16/16 64/64/64
f 150/150/149 107/107/107 151/151/150
f 107/107/107 150/150/149 106/106/106
f 152/152/151 107/107/107 109/109/109
f 107/107/107 152/152/151 151/151/150
f 152/152/151 111/111/111 153/153/152
f 111/111/111 152/152/151 109/109/109
f 153/153/152 113/113/113 154/154/153
f 113/113/113 153/153/152 111/111/111
f 155/155/154 117/117/117 156/156/155
f 117/117/117 155/155/154 157/157/156
f 158/158/157 156/156/155 117/117/117
f 158/158/157 117/117/117 116/116/116
f 159/159/158 158/158/157 116/116/116
f 159/159/158 116/116/116 120/120/120
f 160/160/159 159/159/158 120/120/120
f 160/160/159 120/120/120 122/122/122
f 124/124/124 8/8/8 5/5/5
f 8/8/8 124/124/124 48/48/48
f 6/6/6 125/125/125 1/1/1
f 6/6/6 1/1/1 4/4/4
f 3/3/3 104/104/104 161/161/160
f 161/161/160 104/104/104 162/162/161
f 163/163/162 164/164/163 161/161/160
f 161/161/160 162/162/161 163/163/162
f 165/165/164 164/164/163 166/166/165
f 164/164/163 163/163/162 166/166/165
f 167/167/166 165/165/164 168/168/167
f 165/165/164 166/166/165 168/168/167
f 125/125/125 19/19/19 15/15/15
f 125/125/125 15/15/15 1/1/1
f 15/15/15 18/18/18 149/149/148
f 15/15/15 149/149/148 16/16/16
f 23/23/23 22/22/22 147/147/146
f 147/147/146 148/148/147 23/23/23
f 22/22/22 25/25/25 146/146/145
f 22/22/22 146/146/145 147/147/146
f 18/18/18 23/23/23 148/148/147
f 18/18/18 148/148/147 149/149/148
f 29/29/29 146/146/145 26/26/26
f 25/25/25 26/26/26 146/146/145
f 33/33/33 26/26/26 27/27/27
f 26/26/26 33/33/33 28/28/28
f 28/28/28 32/32/32 144/144/143
f 28/28/28 144/144/143 30/30/30
f 36/36/36 37/37/37 44/44/44
f 36/36/36 44/44/44 141/141/140
f 36/36/36 141/141/140 39/39/39
f 141/141/140 142/142/141 39/39/39
f 41/41/41 39/39/39 142/142/141
f 41/41/41 142/142/141 143/143/142
f 32/32/32 41/41/41 143/143/142
f 32/32/32 143/143/142 144/144/143
f 43/43/43 35/35/35 131/131/131
f 35/35/35 43/43/43 37/37/37
f 132/132/132 43/43/43 131/131/131
f 43/43/43 132/132/132 46/46/46
f 117/117/117 157/157/156 169/169/168
f 117/117/117 169/169/168 118/118/118
f 140/140/139 135/135/135 96/96/96
f 96/96/96 95/95/95 140/140/139
f 113/113/113 170/170/169 154/154/153
f 170/170/169 113/113/113 114/114/114
f 171/171/46 140/140/139 137/137/45
f 140/140/139 171/171/46 135/135/135
f 139/139/138 172/172/170 173/173/99
f 172/172/170 139/139/138 138/138/137
f 174/174/171 175/175/132 176/176/133
f 175/175/132 174/174/171 134/134/134
f 45/45/45 100/100/100 42/42/42
f 100/100/100 45/45/45 101/101/101
f 171/171/46 175/175/132 134/134/134
f 134/134/134 135/135/135 171/171/46
f 177/177/172 178/178/173 179/179/174
f 178/178/173 180/180/175 179/179/174
f 179/179/174 181/181/176 182/182/177
f 182/182/177 181/181/176 183/183/178
f 182/182/177 184/184/179 185/185/180
f 184/184/179 182/182/177 183/183/178
f 185/185/180 186/186/181 187/187/182
f 185/185/180 184/184/179 186/186/181
f 187/187/182 188/188/183 189/189/184
f 187/187/182 186/186/181 188/188/183
f 190/190/185 180/180/175 191/191/186
f 178/178/173 191/191/186 180/180/175
f 192/192/187 193/193/188 190/190/185
f 193/193/188 192/192/187 194/194/189
f 195/195/190 196/196/191 197/197/192
f 196/196/191 195/195/190 198/198/193
f 199/199/194 198/198/193 195/195/190
f 198/198/193 199/199/194 200/200/195
f 197/197/192 194/194/189 192/192/187
f 194/194/189 197/197/192 196/196/191
f 199/199/194 201/201/196 202/202/197
f 199/199/194 202/202/197 200/200/195
f 203/203/198 204/204/199 205/205/200
f 203/203/198 205/205/200 201/201/196
f 206/206/201 207/207/202 205/205/200
f 207/207/202 206/206/201 208/208/203
f 209/209/204 210/210/205 211/211/206
f 211/211/206 210/210/205 212/212/207
f 211/211/206 213/213/208 214/214/209
f 213/213/208 211/211/206 212/212/207
f 214/214/209 215/215/210 216/216/211
f 214/214/209 213/213/208 215/215/210
f 216/216/211 208/208/203 206/206/201
f 208/208/203 216/216/211 215/215/210
f 217/217/212 209/209/204 218/218/213
f 219/219/214 218/218/213 209/209/204
f 220/220/215 217/217/212 221/221/216
f 218/218/213 221/221/216 217/217/212
f 108/108/108 54/54/54 56/56/56
f 54/54/54 108/108/108 222/222/217
f 121/121/121 223/223/218 123/123/123
f 223/223/218 121/121/121 224/224/219
f 55/55/55 110/110/110 53/53/53
f 110/110/110 55/55/55 225/225/220
f 121/121/121 226/226/221 224/224/219
f 226/226/221 121/121/121 119/119/119
f 225/225/220 112/112/112 110/110/110
f 112/112/112 225/225/220 227/227/222
f 169/169/168 228/228/223 118/118/118
f 118/118/118 228/228/223 229/229/224
f 118/118/118 226/226/221 119/119/119
f 226/226/221 118/118/118 229/229/224
f 47/47/47 57/57/57 59/59/59
f 57/57/57 47/47/47 50/50/50
f 62/62/62 105/105/105 64/64/64
f 105/105/105 62/62/62 230/230/225
f 71/71/71 231/231/226 126/126/126
f 231/231/226 71/71/71 72/72/72
f 231/231/226 127/127/127 126/126/126
f 127/127/127 231/231/226 232/232/227
f 63/63/63 66/66/66 68/68/68
f 63/63/63 68/68/68 61/61/61
f 127/127/127 75/75/75 74/74/74
f 75/75/75 127/127/127 232/232/227
f 70/70/70 145/145/144 233/233/228
f 70/70/70 233/233/228 69/69/69
f 78/78/78 233/233/228 145/145/144
f 233/233/228 78/78/78 80/80/80
f 73/73/73 234/234/229 128/128/128
f 234/234/229 73/73/73 76/76/76
f 129/129/129 90/90/90 89/89/89
f 90/90/90 129/129/129 235/235/230
f 129/129/129 128/128/128 234/234/229
f 129/129/129 234/234/229 235/235/230
f 93/93/93 79/79/79 94/94/94
f 79/79/79 93/93/93 77/77/77
f 83/83/83 236/236/231 130/130/130
f 236/236/231 83/83/83 84/84/84
f 100/100/100 85/85/85 87/87/87
f 85/85/85 100/100/100 102/102/102
f 176/176/133 237/237/232 174/174/171
f 237/237/232 176/176/133 238/238/233
f 178/178/173 239/239/234 240/240/235
f 239/239/234 178/178/173 177/177/172
f 54/54/54 222/222/217 241/241/236
f 54/54/54 241/241/236 242/242/237
f 54/54/54 243/243/238 55/55/55
f 243/243/238 54/54/54 242/242/237
f 225/225/220 55/55/55 243/243/238
f 225/225/220 243/243/238 244/244/239
f 227/227/222 225/225/220 244/244/239
f 227/227/222 244/244/239 245/245/240
f 246/246/241 247/247/242 248/248/243
f 245/245/240 246/246/241 227/227/222
f 246/246/241 245/245/240 247/247/242
f 226/226/221 229/229/224 249/249/244
f 229/229/224 250/250/245 249/249/244
f 249/249/244 251/251/246 226/226/221
f 224/224/219 226/226/221 251/251/246
f 251/251/246 252/252/247 224/224/219
f 223/223/218 224/224/219 252/252/247
f 51/51/51 253/253/248 49/49/49
f 181/181/176 254/254/249 255/255/250
f 256/256/251 255/255/250 254/254/249
f 254/254/249 257/257/252 256/256/251
f 257/257/252 254/254/249 193/193/188
f 193/193/188 258/258/253 257/257/252
f 258/258/253 193/193/188 194/194/189
f 194/194/189 259/259/254 258/258/253
f 259/259/254 194/194/189 196/196/191
f 196/196/191 260/260/255 259/259/254
f 260/260/255 196/196/191 198/198/193
f 198/198/193 200/200/195 260/260/255
f 261/261/256 260/260/255 200/200/195
f 200/200/195 202/202/197 261/261/256
f 262/262/257 261/261/256 202/202/197
f 202/202/197 207/207/202 262/262/257
f 263/263/258 262/262/257 207/207/202
f 207/207/202 264/264/259 263/263/258
f 264/264/259 207/207/202 208/208/203
f 208/208/203 265/265/260 264/264/259
f 265/265/260 208/208/203 215/215/210
f 215/215/210 266/266/261 265/265/260
f 266/266/261 215/215/210 213/213/208
f 267/267/262 213/213/208 212/212/207
f 213/213/208 267/267/262 266/266/261
f 212/212/207 268/268/84 267/267/262
f 268/268/84 212/212/207 210/210/205
f 210/210/205 269/269/263 268/268/84
f 269/269/263 210/210/205 270/270/264
f 271/271/265 269/269/263 270/270/264
f 269/269/263 271/271/265 272/272/266
f 98/98/98 273/273/267 274/274/268
f 98/98/98 274/274/268 275/275/269
f 172/172/170 276/276/216 173/173/99
f 276/276/216 172/172/170 277/277/270
f 218/218/213 219/219/214 278/278/271
f 279/279/272 278/278/271 219/219/214
f 219/219/214 280/280/273 279/279/272
f 281/281/274 279/279/272 280/280/273
f 282/282/275 281/281/274 283/283/276
f 281/281/274 280/280/273 283/283/276
f 283/283/276 284/284/277 282/282/275
f 284/284/277 283/283/276 285/285/278
f 285/285/278 286/286/279 284/284/277
f 286/286/279 285/285/278 287/287/280
f 287/287/280 288/288/281 286/286/279
f 288/288/281 287/287/280 204/204/199
f 204/204/199 203/203/198 288/288/281
f 289/289/282 288/288/281 203/203/198
f 203/203/198 290/290/283 289/289/282
f 291/291/284 289/289/282 290/290/283
f 290/290/283 292/292/285 291/291/284
f 293/293/286 291/291/284 292/292/285
f 292/292/285 294/294/287 293/293/286
f 295/295/288 293/293/286 294/294/287
f 294/294/287 296/296/61 295/295/288
f 296/296/61 294/294/287 297/297/289
f 297/297/289 298/298/290 296/296/61
f 298/298/290 297/297/289 191/191/186
f 191/191/186 240/240/235 298/298/290
f 240/240/235 191/191/186 178/178/173
f 242/242/237 241/241/236 299/299/291
f 242/242/237 299/299/291 300/300/292
f 242/242/237 301/301/293 243/243/238
f 301/301/293 242/242/237 300/300/292
f 244/244/239 243/243/238 301/301/293
f 244/244/239 301/301/293 302/302/294
f 245/245/240 244/244/239 302/302/294
f 245/245/240 302/302/294 303/303/295
f 304/304/296 305/305/297 247/247/242
f 250/250/245 247/247/242 305/305/297
f 305/305/297 306/306/298 250/250/245
f 249/249/244 250/250/245 306/306/298
f 306/306/298 307/307/299 249/249/244
f 251/251/246 249/249/244 307/307/299
f 307/307/299 308/308/300 251/251/246
f 252/252/247 251/251/246 308/308/300
f 230/230/225 309/309/301 105/105/105
f 183/183/178 181/181/176 310/310/302
f 255/255/250 310/310/302 181/181/176
f 181/181/176 179/179/174 180/180/175
f 180/180/175 254/254/249 181/181/176
f 177/177/172 179/179/174 311/311/303
f 311/311/303 179/179/174 182/182/177
f 311/311/303 182/182/177 312/312/304
f 312/312/304 182/182/177 185/185/180
f 312/312/304 185/185/180 313/313/305
f 313/313/305 185/185/180 187/187/182
f 313/313/305 187/187/182 314/314/306
f 187/187/182 189/189/184 314/314/306
f 180/180/175 190/190/185 254/254/249
f 190/190/185 193/193/188 254/254/249
f 297/297/289 190/190/185 191/191/186
f 190/190/185 297/297/289 192/192/187
f 292/292/285 197/197/192 294/294/287
f 197/197/192 292/292/285 195/195/190
f 290/290/283 195/195/190 292/292/285
f 195/195/190 290/290/283 199/199/194
f 294/294/287 192/192/187 297/297/289
f 192/192/187 294/294/287 197/197/192
f 290/290/283 203/203/198 201/201/196
f 290/290/283 201/201/196 199/199/194
f 201/201/196 205/205/200 207/207/202
f 201/201/196 207/207/202 202/202/197
f 287/287/280 205/205/200 204/204/199
f 205/205/200 287/287/280 206/206/201
f 219/219/214 211/211/206 280/280/273
f 211/211/206 219/219/214 209/209/204
f 280/280/273 214/214/209 283/283/276
f 214/214/209 280/280/273 211/211/206
f 283/283/276 216/216/211 285/285/278
f 216/216/211 283/283/276 214/214/209
f 285/285/278 206/206/201 287/287/280
f 206/206/201 285/285/278 216/216/211
f 270/270/264 210/210/205 217/217/212
f 209/209/204 217/217/212 210/210/205
f 271/271/265 217/217/212 220/220/215
f 217/217/212 271/271/265 270/270/264
f 227/227/222 115/115/115 112/112/112
f 115/115/115 227/227/222 246/246/241
f 273/273/267 96/96/96 136/136/136
f 96/96/96 273/273/267 98/98/98
f 250/250/245 228/228/223 248/248/243
f 250/250/245 248/248/243 247/247/242
f 228/228/223 250/250/245 229/229/224
f 275/275/269 277/277/270 98/98/98
f 97/97/97 98/98/98 277/277/270
f 247/247/242 245/245/240 303/303/295
f 247/247/242 303/303/295 304/304/296
f 277/277/270 315/315/215 276/276/216
f 315/315/215 277/277/270 275/275/269
f 236/236/231 133/133/133 130/130/130
f 133/133/133 236/236/231 316/316/233
f 317/317/265 237/237/232 238/238/233
f 237/237/232 317/317/265 274/274/268
f 278/278/271 318/318/307 221/221/216
f 278/278/271 221/221/216 218/218/213
f 275/275/269 274/274/268 315/315/215
f 315/315/215 274/274/268 317/317/265
f 3/3/3 319/319/308 4/4/4
f 319/319/308 7/7/7 6/6/6
f 7/7/7 319/319/308 320/320/309
f 320/320/309 321/321/310 7/7/7
f 10/10/10 7/7/7 321/321/310
f 321/321/310 322/322/311 10/10/10
f 12/12/12 10/10/10 322/322/311
f 14/14/14 12/12/12 323/323/312
f 12/12/12 322/322/311 323/323/312
f 115/115/115 324/324/313 114/114/114
f 324/324/313 115/115/115 325/325/314
f 157/157/156 326/326/315 324/324/313
f 326/326/315 157/157/156 155/155/154
f 4/4/4 319/319/308 6/6/6
f 319/319/308 161/161/160 320/320/309
f 3/3/3 161/161/160 319/319/308
f 321/321/310 161/161/160 164/164/163
f 161/161/160 321/321/310 320/320/309
f 164/164/163 165/165/164 321/321/310
f 321/321/310 165/165/164 322/322/311
f 165/165/164 323/323/312 322/322/311
f 323/323/312 165/165/164 167/167/166
f 324/324/313 169/169/168 157/157/156
f 169/169/168 324/324/313 325/325/314
f 326/326/315 114/114/114 324/324/313
f 326/326/315 170/170/169 114/114/114
f 325/325/314 327/327/316 169/169/168
f 169/169/168 327/327/316 228/228/223
f 248/248/243 327/327/316 246/246/241
f 115/115/115 246/246/241 325/325/314
f 246/246/241 327/327/316 325/325/314
f 228/228/223 327/327/316 248/248/243
f 6/6/6 8/8/8 125/125/125
f 2/2/2 104/104/104 3/3/3
f 277/277/270 172/172/170 97/97/97
f 138/138/137 97/97/97 172/172/170
f 97/97/97 138/138/137 95/95/95
f 95/95/95 138/138/137 140/140/139
f 134/134/134 174/174/171 136/136/136
f 273/273/267 136/136/136 174/174/171
f 174/174/171 237/237/232 273/273/267
f 273/273/267 237/237/232 274/274/268
f 328/328/317 329/329/318 330/330/319
f 329/329/318 328/328/317 331/331/320
f 332/332/321 333/333/322 334/334/323
f 333/333/322 332/332/321 335/335/324
f 336/336/325 337/337/326 338/338/327
f 339/339/328 336/336/325 340/340/329
f 336/336/325 339/339/328 337/337/326
f 341/341/330 342/342/331 343/343/332
f 342/342/331 341/341/330 344/344/333
f 345/345/334 346/346/335 347/347/336
f 347/347/336 348/348/337 345/345/334
f 332/332/321 349/349/338 350/350/339
f 349/349/338 332/332/321 351/351/340
f 337/337/326 352/352/341 353/353/342
f 352/352/341 337/337/326 354/354/343
f 355/355/344 351/351/340 356/356/345
f 351/351/340 355/355/344 357/357/346
f 358/358/347 347/347/336 359/359/348
f 347/347/336 358/358/347 360/360/349
f 361/361/350 362/362/351 363/363/352
f 362/362/351 361/361/350 364/364/353
f 342/342/331 365/365/354 366/366/355
f 365/365/354 342/342/331 328/328/317
f 333/333/322 367/367/356 334/334/323
f 367/367/356 333/333/322 368/368/357
f 369/369/358 353/353/342 370/370/359
f 353/353/342 369/369/358 330/330/319
f 333/333/322 343/343/332 368/368/357
f 343/343/332 371/371/360 368/368/357
f 346/346/335 345/345/334 372/372/361
f 372/372/361 345/345/334 373/373/362
f 367/367/356 356/356/345 334/334/323
f 356/356/345 367/367/356 374/374/363
f 352/352/341 370/370/359 353/353/342
f 370/370/359 352/352/341 375/375/364
f 356/356/345 376/376/365 355/355/344
f 376/376/365 356/356/345 374/374/363
f 372/372/361 377/377/366 378/378/367
f 378/378/367 346/346/335 372/372/361
f 379/379/368 380/380/369 361/361/350
f 361/361/350 363/363/352 379/379/368
f 381/381/370 382/382/371 383/383/372
f 340/340/329 383/383/372 382/382/371
f 382/382/371 339/339/328 340/340/329
f 339/339/328 382/382/371 384/384/373
f 385/385/374 386/386/375 387/387/376
f 386/386/375 385/385/374 388/388/377
f 389/389/378 390/390/379 391/391/380
f 390/390/379 389/389/378 392/392/381
f 393/393/382 394/394/383 350/350/339
f 350/350/339 349/349/338 393/393/382
f 384/384/373 395/395/384 339/339/328
f 395/395/384 384/384/373 396/396/385
f 393/393/382 349/349/338 397/397/386
f 349/349/338 398/398/387 397/397/386
f 358/358/347 399/399/388 360/360/349
f 399/399/388 358/358/347 400/400/389
f 401/401/390 397/397/386 402/402/391
f 398/398/387 402/402/391 397/397/386
f 366/366/355 365/365/354 403/403/392
f 366/366/355 403/403/392 404/404/393
f 368/368/357 405/405/394 367/367/356
f 405/405/394 368/368/357 406/406/395
f 407/407/396 408/408/397 369/369/358
f 369/369/358 370/370/359 407/407/396
f 409/409/398 406/406/395 371/371/360
f 368/368/357 371/371/360 406/406/395
f 410/410/399 411/411/400 373/373/362
f 372/372/361 373/373/362 411/411/400
f 405/405/394 374/374/363 367/367/356
f 374/374/363 405/405/394 412/412/401
f 407/407/396 370/370/359 413/413/402
f 370/370/359 375/375/364 413/413/402
f 374/374/363 412/412/401 376/376/365
f 376/376/365 412/412/401 414/414/403
f 372/372/361 415/415/404 377/377/366
f 415/415/404 372/372/361 411/411/400
f 416/416/405 417/417/406 380/380/369
f 380/380/369 379/379/368 416/416/405
f 382/382/371 381/381/370 418/418/407
f 381/381/370 419/419/408 418/418/407
f 420/420/409 421/421/410 422/422/411
f 421/421/410 394/394/383 422/422/411
f 423/423/412 382/382/371 418/418/407
f 382/382/371 423/423/412 384/384/373
f 388/388/377 385/385/374 424/424/413
f 388/388/377 424/424/413 425/425/414
f 392/392/381 389/389/378 426/426/415
f 392/392/381 426/426/415 427/427/416
f 422/422/411 393/393/382 428/428/417
f 393/393/382 422/422/411 394/394/383
f 384/384/373 429/429/418 396/396/385
f 429/429/418 384/384/373 423/423/412
f 397/397/386 428/428/417 393/393/382
f 428/428/417 397/397/386 430/430/419
f 400/400/389 431/431/418 399/399/388
f 399/399/388 431/431/418 432/432/420
f 433/433/421 430/430/419 401/401/390
f 397/397/386 401/401/390 430/430/419
f 386/386/375 383/383/372 434/434/422
f 434/434/422 383/383/372 435/435/423
f 436/436/424 332/332/321 350/350/339
f 332/332/321 436/436/424 335/335/324
f 353/353/342 338/338/327 337/337/326
f 338/338/327 353/353/342 437/437/425
f 438/438/426 387/387/376 439/439/427
f 391/391/380 348/348/337 360/360/349
f 347/347/336 360/360/349 348/348/337
f 332/332/321 356/356/345 351/351/340
f 356/356/345 332/332/321 334/334/323
f 395/395/384 354/354/343 339/339/328
f 337/337/326 339/339/328 354/354/343
f 349/349/338 351/351/340 398/398/387
f 357/357/346 398/398/387 351/351/340
f 378/378/367 347/347/336 346/346/335
f 347/347/336 378/378/367 359/359/348
f 402/402/391 364/364/353 390/390/379
f 364/364/353 402/402/391 362/362/351
f 344/344/333 328/328/317 342/342/331
f 328/328/317 344/344/333 331/331/320
f 343/343/332 335/335/324 341/341/330
f 335/335/324 343/343/332 333/333/322
f 369/369/358 365/365/354 328/328/317
f 328/328/317 330/330/319 369/369/358
f 343/343/332 342/342/331 371/371/360
f 371/371/360 342/342/331 366/366/355
f 388/388/377 381/381/370 386/386/375
f 386/386/375 381/381/370 383/383/372
f 438/438/426 385/385/374 387/387/376
f 385/385/374 438/438/426 421/421/410
f 408/408/397 403/403/392 365/365/354
f 365/365/354 369/369/358 408/408/397
f 404/404/393 409/409/398 366/366/355
f 371/371/360 366/366/355 409/409/398
f 419/419/408 388/388/377 425/425/414
f 381/381/370 388/388/377 419/419/408
f 385/385/374 421/421/410 420/420/409
f 385/385/374 420/420/409 424/424/413
f 435/435/423 383/383/372 340/340/329
f 340/340/329 336/336/325 435/435/423
f 387/387/376 386/386/375 439/439/427
f 386/386/375 434/434/422 439/439/427
f 345/345/334 364/364/353 361/361/350
f 364/364/353 345/345/334 348/348/337
f 363/363/352 357/357/346 355/355/344
f 357/357/346 363/363/352 362/362/351
f 373/373/362 361/361/350 380/380/369
f 361/361/350 373/373/362 345/345/334
f 376/376/365 379/379/368 363/363/352
f 363/363/352 355/355/344 376/376/365
f 399/399/388 391/391/380 360/360/349
f 399/399/388 389/389/378 391/391/380
f 401/401/390 390/390/379 392/392/381
f 402/402/391 390/390/379 401/401/390
f 410/410/399 380/380/369 417/417/406
f 373/373/362 380/380/369 410/410/399
f 414/414/403 416/416/405 379/379/368
f 379/379/368 376/376/365 414/414/403
f 432/432/420 426/426/415 389/389/378
f 389/389/378 399/399/388 432/432/420
f 427/427/416 433/433/421 392/392/381
f 401/401/390 392/392/381 433/433/421
f 390/390/379 348/348/337 391/391/380
f 348/348/337 390/390/379 364/364/353
f 402/402/391 357/357/346 362/362/351
f 357/357/346 402/402/391 398/398/387
f 329/329/318 331/331/320 440/440/428
f 441/441/429 440/440/428 344/344/333
f 344/344/333 440/440/428 331/331/320
f 341/341/330 442/442/430 441/441/429
f 341/341/330 441/441/429 344/344/333
f 335/335/324 442/442/430 341/341/330
f 442/442/430 335/335/324 436/436/424
f 443/443/431 436/436/424 350/350/339
f 436/436/424 443/443/431 444/444/432
f 329/329/318 445/445/433 330/330/319
f 446/446/434 336/336/325 447/447/435
f 435/435/423 336/336/325 446/446/434
f 446/446/434 448/448/436 435/435/423
f 434/434/422 435/435/423 448/448/436
f 448/448/436 449/449/437 434/434/422
f 439/439/427 434/434/422 449/449/437
f 449/449/437 450/450/438 439/439/427
f 439/439/427 450/450/438 438/438/426
f 421/421/410 438/438/426 451/451/439
f 451/451/439 438/438/426 450/450/438
f 437/437/425 336/336/325 338/338/327
f 336/336/325 437/437/425 447/447/435
f 440/440/428 445/445/433 329/329/318
f 452/452/440 445/445/433 440/440/428
f 440/440/428 441/441/429 452/452/440
f 453/453/441 452/452/440 441/441/429
f 441/441/429 442/442/430 453/453/441
f 454/454/442 453/453/441 442/442/430
f 442/442/430 436/436/424 454/454/442
f 454/454/442 436/436/424 444/444/432
f 443/443/431 350/350/339 394/394/383
f 444/444/432 451/451/439 450/450/438
f 451/451/439 444/444/432 443/443/431
f 330/330/319 447/447/435 437/437/425
f 447/447/435 330/330/319 445/445/433
f 452/452/440 447/447/435 445/445/433
f 446/446/434 447/447/435 452/452/440
f 452/452/440 453/453/441 446/446/434
f 448/448/436 446/446/434 453/453/441
f 453/453/441 454/454/442 448/448/436
f 449/449/437 448/448/436 454/454/442
f 454/454/442 444/444/432 449/449/437
f 449/449/437 444/444/432 450/450/438
f 394/394/383 451/451/439 443/443/431
f 451/451/439 394/394/383 421/421/410
f 353/353/342 330/330/319 437/437/425
f 455/455/443 456/456/444 457/457/445
f 456/456/444 455/455/443 458/458/446
f 455/455/443 459/459/447 460/460/448
f 459/459/447 455/455/443 457/457/445
f 461/461/449 459/459/447 462/462/450
f 459/459/447 461/461/449 460/460/448
f 461/461/449 463/463/451 464/464/452
f 463/463/451 461/461/449 462/462/450
f 463/463/451 465/465/453 464/464/452
f 465/465/453 463/463/451 466/466/454
f 467/467/455 466/466/454 468/468/456
f 465/465/453 466/466/454 467/467/455
f 468/468/456 469/469/457 467/467/455
f 458/458/446 470/470/458 456/456/444
f 470/470/458 458/458/446 471/471/459
f 472/472/460 473/473/461 474/474/462
f 472/472/460 474/474/462 475/475/463
f 476/476/464 477/477/465 478/478/466
f 477/477/465 476/476/464 479/479/467
f 476/476/464 478/478/466 474/474/462
f 474/474/462 478/478/466 475/475/463
f 479/479/467 480/480/468 477/477/465
f 480/480/468 479/479/467 481/481/469
f 481/481/469 482/482/470 480/480/468
f 482/482/470 483/483/471 480/480/468
f 483/483/471 484/484/472 480/480/468
f 484/484/472 485/485/473 480/480/468
f 486/486/474 487/487/475 480/480/468
f 480/480/468 485/485/473 486/486/474
f 488/488/476 489/489/477 487/487/475
f 487/487/475 486/486/474 488/488/476
f 490/490/478 491/491/479 489/489/477
f 489/489/477 488/488/476 490/490/478
f 491/491/479 492/492/480 493/493/481
f 492/492/480 494/494/482 493/493/481
f 494/494/482 492/492/480 495/495/483
f 496/496/484 494/494/482 495/495/483
f 494/494/482 496/496/484 497/497/485
f 498/498/486 499/499/486 500/500/487
s 0
f 499/499/486 498/498/486 501/501/486
f 502/502/486 503/503/486 501/501/486
f 499/499/486 501/501/486 503/503/486
f 503/503/486 502/502/486 504/504/486
f 504/504/486 502/502/486 505/505/486
s 1
f 500/500/487 491/491/479 490/490/478
f 491/491/479 500/500/487 492/492/480
f 490/490/478 498/498/486 500/500/487
f 506/506/488 507/507/489 508/508/490
f 509/509/491 508/508/490 510/510/492
f 511/511/493 512/512/494 513/513/495
f 509/509/491 514/514/496 515/515/497
f 514/514/496 509/509/491 510/510/492
f 512/512/494 516/516/498 517/517/499
f 516/516/498 518/518/500 517/517/499
f 515/515/497 514/514/496 519/519/501
f 519/519/501 514/514/496 520/520/502
f 521/521/503 522/522/504 516/516/498
f 516/516/498 522/522/504 518/518/500
f 523/523/505 524/524/506 519/519/501
f 519/519/501 520/520/502 523/523/505
f 521/521/503 524/524/506 522/522/504
f 524/524/506 523/523/505 522/522/504
f 525/525/507 526/526/508 527/527/509
f 528/528/510 525/525/507 527/527/509
f 528/528/510 527/527/509 529/529/511
f 530/530/512 531/531/513 532/532/514
f 531/531/513 530/530/512 533/533/515
f 534/534/516 535/535/517 536/536/518
f 537/537/519 536/536/518 535/535/517
f 538/538/520 539/539/521 540/540/522
f 539/539/521 538/538/520 541/541/523
f 529/529/511 536/536/518 528/528/510
f 536/536/518 529/529/511 534/534/516
f 533/533/515 539/539/521 531/531/513
f 539/539/521 541/541/523 531/531/513
f 535/535/517 542/542/524 537/537/519
f 543/543/525 537/537/519 542/542/524
f 544/544/526 538/538/520 545/545/527
f 540/540/522 545/545/527 538/538/520
s 0
f 546/542/528 547/546/528 548/543/528
f 547/546/528 546/542/528 549/547/528
s 1
f 550/547/529 551/548/530 552/546/529
f 553/549/530 552/546/529 551/548/530
f 551/548/530 554/550/531 553/549/530
f 555/551/531 553/549/530 554/550/531
f 554/550/531 556/552/532 555/551/531
f 557/553/532 555/551/531 556/552/532
f 556/552/532 558/554/533 557/553/532
f 559/555/533 557/553/532 558/554/533
f 560/556/534 544/544/526 561/557/535
f 545/545/527 561/557/535 544/544/526
f 558/554/533 562/558/536 559/555/533
f 563/559/536 559/555/533 562/558/536
f 564/560/537 560/556/534 565/561/538
f 561/557/535 565/561/538 560/556/534
f 562/558/536 566/562/539 563/559/536
f 567/563/539 563/559/536 566/562/539
f 568/564/540 564/560/537 569/565/541
f 565/561/538 569/565/541 564/560/537
f 570/566/542 569/565/541 571/567/543
f 569/565/541 570/566/542 568/564/540
f 572/568/544 573/569/545 574/570/544
f 575/571/545 574/570/544 573/569/545
f 576/572/546 570/566/542 577/573/547
f 571/567/543 577/573/547 570/566/542
f 573/569/545 578/574/548 575/571/545
f 579/575/548 575/571/545 578/574/548
s 0
f 580/576/549 581/577/549 582/578/549
f 583/575/550 584/579/550 580/576/550
f 581/577/549 580/576/549 584/579/549
f 584/579/550 583/575/550 585/574/550
s 1
f 586/577/551 576/572/546 587/578/552
f 577/573/547 587/578/552 576/572/546
f 588/580/553 589/581/554 590/582/553
f 591/583/554 590/582/553 589/581/554
f 592/584/555 593/585/556 594/586/555
f 595/587/556 594/586/555 593/585/556
f 589/581/554 596/588/557 591/583/554
f 597/589/558 591/583/554 596/588/557
f 598/590/559 592/584/555 599/591/560
f 594/586/555 599/591/560 592/584/555
f 596/588/557 600/592/561 597/589/558
f 601/593/561 597/589/558 600/592/561
f 602/592/562 603/594/563 604/593/562
f 605/595/563 604/593/562 603/594/563
f 603/594/563 598/590/559 605/595/563
f 599/591/560 605/595/563 598/590/559
s 0
f 606/570/564 607/587/564 608/568/564
f 607/587/564 609/585/564 608/568/564
s 1
f 566/562/539 588/580/553 567/563/539
f 590/582/553 567/563/539 588/580/553
f 470/470/458 471/471/459 473/473/461
f 470/470/458 473/473/461 472/472/460
f 610/596/565 526/526/508 611/597/566
f 526/526/508 610/596/565 612/598/567
f 613/599/568 530/530/512 614/600/569
f 615/601/570 616/602/571 617/603/572
f 616/602/571 615/601/570 618/604/573
f 617/603/572 619/605/574 620/606/575
f 617/603/572 620/606/575 615/601/570
f 621/607/576 616/602/571 618/604/573
f 621/607/576 618/604/573 622/608/577
f 623/609/578 624/610/579 625/611/580
f 624/610/579 623/609/578 626/612/581
f 627/613/582 625/611/580 624/610/579
f 625/611/580 627/613/582 628/614/583
f 627/613/582 629/615/584 630/616/585
f 627/613/582 630/616/585 628/614/583
f 631/617/586 632/618/587 633/619/588
f 632/618/587 631/617/586 634/620/589
f 631/617/586 635/621/590 636/622/591
f 635/621/590 631/617/586 633/619/588
f 637/623/592 635/621/590 638/624/593
f 635/621/590 637/623/592 636/622/591
f 627/613/582 511/511/493 629/615/584
f 639/625/594 620/606/575 619/605/574
f 619/605/574 614/600/569 639/625/594
f 626/612/581 640/626/595 610/596/565
f 640/626/595 626/612/581 623/609/578
f 638/624/593 641/627/596 637/623/592
f 641/627/596 638/624/593 642/628/596
f 507/507/489 621/607/576 643/629/597
f 643/629/597 621/607/576 622/608/577
f 644/630/598 630/616/585 629/615/584
f 629/615/584 513/513/495 644/630/598
f 634/620/589 645/631/599 632/618/587
f 645/631/599 634/620/589 646/632/600
f 647/633/601 482/482/470 481/481/469
f 458/458/446 648/634/566 471/471/459
f 649/635/602 650/636/603 473/473/461
f 473/473/461 650/636/603 474/474/462
f 651/637/604 479/479/467 476/476/464
f 479/479/467 651/637/604 652/638/605
f 650/636/603 476/476/464 474/474/462
f 476/476/464 650/636/603 651/637/604
f 652/638/605 481/481/469 479/479/467
f 481/481/469 652/638/605 647/633/601
f 649/635/602 471/471/459 648/634/566
f 471/471/459 649/635/602 473/473/461
f 460/460/448 461/461/449 653/639/606
f 465/465/453 467/467/455 654/640/607
f 655/641/608 461/461/449 464/464/452
f 461/461/449 655/641/608 653/639/606
f 654/640/607 464/464/452 465/465/453
f 464/464/452 654/640/607 655/641/608
f 611/597/566 626/612/581 610/596/565
f 511/511/493 513/513/495 629/615/584
f 656/642/609 507/507/489 643/629/597
f 507/507/489 656/642/609 508/508/490
f 640/626/595 657/643/610 610/596/565
f 610/596/565 657/643/610 612/598/567
f 658/632/611 659/644/612 660/631/613
f 659/644/612 658/632/611 661/645/612
f 662/646/614 663/647/615 664/648/616
f 663/647/615 662/646/614 665/649/617
f 662/646/614 666/650/618 665/649/617
f 666/650/618 662/646/614 667/651/619
f 668/652/620 666/650/618 667/651/619
f 666/650/618 668/652/620 669/653/621
f 668/652/620 510/510/492 669/653/621
f 510/510/492 668/652/620 670/654/622
f 510/510/492 670/654/622 671/655/623
f 510/510/492 671/655/623 514/514/496
f 522/522/504 514/514/496 671/655/623
f 514/514/496 522/522/504 520/520/502
f 520/520/502 522/522/504 523/523/505
f 664/648/616 672/656/624 673/657/625
f 672/656/624 664/648/616 663/647/615
f 674/658/626 675/659/627 676/660/628
f 675/659/627 674/658/626 677/661/629
f 678/662/630 679/663/631 680/664/632
f 679/663/631 678/662/630 681/665/633
f 680/664/632 679/663/631 674/658/626
f 680/664/632 674/658/626 676/660/628
f 682/666/634 681/665/633 678/662/630
f 681/665/633 682/666/634 683/667/635
f 683/667/635 682/666/634 684/547/636
f 684/547/636 682/666/634 685/548/637
f 685/548/637 682/666/634 686/550/638
f 686/550/638 682/666/634 687/552/639
f 688/668/640 689/554/641 682/666/634
f 687/552/639 682/666/634 689/554/641
f 689/554/641 688/668/640 690/558/642
f 688/668/640 691/669/643 690/558/642
f 690/558/642 691/669/643 692/562/644
f 692/562/644 691/669/643 693/670/645
f 693/670/645 694/671/646 695/568/647
f 696/672/648 695/568/647 694/671/646
f 695/568/647 696/672/648 697/569/649
f 698/574/650 696/672/648 699/579/651
f 696/672/648 698/574/650 697/569/649
f 700/584/652 701/580/652 702/585/653
s 0
f 701/580/652 700/584/652 703/581/652
f 703/581/652 704/590/652 705/588/652
f 704/590/652 703/581/652 700/584/652
f 705/588/652 704/590/652 706/594/652
f 705/588/652 706/594/652 707/592/652
s 1
f 693/670/645 702/585/653 692/562/644
f 702/585/653 693/670/645 695/568/647
f 692/562/644 702/585/653 701/580/652
f 669/653/621 708/673/654 666/650/618
f 677/661/629 672/656/624 675/659/627
f 672/656/624 677/661/629 673/657/625
f 526/526/508 709/674/655 710/675/656
f 709/674/655 526/526/508 612/598/567
f 711/676/657 665/649/617 712/677/658
f 665/649/617 711/676/657 663/647/615
f 711/676/657 713/678/659 663/647/615
f 714/679/660 663/647/615 713/678/659
f 712/677/658 666/650/618 715/680/661
f 666/650/618 712/677/658 665/649/617
f 662/646/614 716/681/662 717/682/663
f 716/681/662 662/646/614 664/648/616
f 667/651/619 717/682/663 718/683/664
f 717/682/663 667/651/619 662/646/614
f 718/683/664 719/684/665 667/651/619
f 720/685/666 667/651/619 719/684/665
f 721/686/667 722/687/668 723/688/669
f 722/687/668 721/686/667 724/689/670
f 721/686/667 725/690/671 724/689/670
f 725/690/671 721/686/667 726/691/672
f 727/692/673 725/690/671 726/691/672
f 725/690/671 727/692/673 728/693/674
f 667/651/619 720/685/666 729/694/675
f 614/600/569 714/679/660 639/625/594
f 714/679/660 713/678/659 639/625/594
f 664/648/616 730/695/676 716/681/662
f 664/648/616 709/674/655 730/695/676
f 641/627/596 728/693/674 727/692/673
f 728/693/674 641/627/596 642/628/596
f 666/650/618 708/673/654 731/696/677
f 666/650/618 731/696/677 715/680/661
f 644/630/598 513/513/495 720/685/666
f 644/630/598 720/685/666 719/684/665
f 723/688/669 732/697/678 733/698/679
f 732/697/678 723/688/669 722/687/668
f 542/542/524 683/667/635 684/547/636
f 664/648/616 673/657/625 710/675/656
f 529/529/511 677/661/629 674/658/626
f 677/661/629 529/529/511 527/527/509
f 534/534/516 681/665/633 535/535/517
f 681/665/633 534/534/516 679/663/631
f 529/529/511 679/663/631 534/534/516
f 679/663/631 529/529/511 674/658/626
f 535/535/517 683/667/635 542/542/524
f 683/667/635 535/535/517 681/665/633
f 527/527/509 673/657/625 677/661/629
f 673/657/625 527/527/509 710/675/656
f 667/651/619 729/694/675 668/652/620
f 671/655/623 518/518/500 522/522/504
f 517/517/499 668/652/620 729/694/675
f 668/652/620 517/517/499 670/654/622
f 518/518/500 670/654/622 517/517/499
f 670/654/622 518/518/500 671/655/623
f 710/675/656 709/674/655 664/648/616
f 729/694/675 720/685/666 513/513/495
f 708/673/654 508/508/490 656/642/609
f 656/642/609 731/696/677 708/673/654
f 709/674/655 612/598/567 657/643/610
f 657/643/610 730/695/676 709/674/655
f 734/699/612 735/700/612 736/698/680
f 734/699/612 736/698/680 737/697/680
f 506/506/488 621/607/576 507/507/489
f 669/653/621 508/508/490 708/673/654
f 509/509/491 506/506/488 508/508/490
f 508/508/490 669/653/621 510/510/492
f 517/517/499 729/694/675 513/513/495
f 512/512/494 517/517/499 513/513/495
f 525/525/507 611/597/566 526/526/508
f 526/526/508 710/675/656 527/527/509
f 617/603/572 613/599/568 619/605/574
f 714/679/660 738/701/681 663/647/615
f 530/530/512 532/532/514 614/600/569
f 532/532/514 738/701/681 614/600/569
f 470/470/458 739/702/682 456/456/444
f 738/701/681 672/656/624 663/647/615
f 472/472/460 475/475/463 740/703/683
f 475/475/463 741/704/684 740/703/683
f 742/705/685 743/706/686 477/477/465
f 478/478/466 477/477/465 743/706/686
f 743/706/686 741/704/684 478/478/466
f 475/475/463 478/478/466 741/704/684
f 742/705/685 480/480/468 744/707/687
f 480/480/468 742/705/685 477/477/465
f 744/707/687 487/487/475 745/708/688
f 487/487/475 744/707/687 480/480/468
f 745/708/688 489/489/477 746/709/689
f 489/489/477 745/708/688 487/487/475
f 491/491/479 746/709/689 489/489/477
f 746/709/689 491/491/479 747/710/541
f 491/491/479 493/493/481 747/710/541
f 493/493/481 748/711/690 747/710/541
f 493/493/481 494/494/482 748/711/690
f 494/494/482 749/712/691 748/711/690
f 750/713/692 749/712/691 497/497/485
f 494/494/482 497/497/485 749/712/691
f 470/470/458 472/472/460 739/702/682
f 472/472/460 740/703/683 739/702/682
f 676/660/628 532/532/514 531/531/513
f 532/532/514 676/660/628 675/659/627
f 541/541/523 678/662/630 680/664/632
f 678/662/630 541/541/523 538/538/520
f 531/531/513 680/664/632 676/660/628
f 680/664/632 531/531/513 541/541/523
f 538/538/520 682/666/634 678/662/630
f 682/666/634 538/538/520 544/544/526
f 544/544/526 688/668/640 682/666/634
f 688/668/640 544/544/526 560/556/534
f 691/669/643 560/556/534 564/560/537
f 560/556/534 691/669/643 688/668/640
f 693/670/645 564/560/537 568/564/540
f 564/560/537 693/670/645 691/669/643
f 694/671/646 568/564/540 570/566/542
f 568/564/540 694/671/646 693/670/645
f 696/672/648 570/566/542 576/572/546
f 570/566/542 696/672/648 694/671/646
f 699/579/651 576/572/546 586/577/551
f 576/572/546 699/579/651 696/672/648
f 675/659/627 738/701/681 532/532/514
f 738/701/681 675/659/627 672/656/624
f 613/599/568 614/600/569 619/605/574
f 714/679/660 614/600/569 738/701/681
f 751/714/52 223/223/218 752/715/693
f 223/223/218 751/714/52 123/123/123
f 123/123/123 753/716/124 122/122/122
f 753/716/124 123/123/123 751/714/52
f 122/122/122 754/717/694 160/160/159
f 754/717/694 122/122/122 753/716/124
f 755/718/695 160/160/159 754/717/694
f 160/160/159 755/718/695 159/159/158
f 756/719/11 159/159/158 755/718/695
f 159/159/158 756/719/11 158/158/157
f 757/720/696 158/158/157 756/719/11
f 158/158/157 757/720/696 156/156/155
f 758/721/14 156/156/155 757/720/696
f 156/156/155 758/721/14 155/155/154
f 155/155/154 759/722/312 326/326/315
f 759/722/312 155/155/154 758/721/14
f 170/170/169 326/326/315 759/722/312
f 759/722/312 760/723/166 170/170/169
f 761/724/167 170/170/169 760/723/166
f 170/170/169 761/724/167 154/154/153
f 153/153/152 761/724/167 762/725/165
f 761/724/167 153/153/152 154/154/153
f 152/152/151 762/725/165 763/726/162
f 762/725/165 152/152/151 153/153/152
f 763/726/162 764/727/697 151/151/150
f 763/726/162 151/151/150 152/152/151
f 150/150/149 764/727/697 765/728/104
f 764/727/697 150/150/149 151/151/150
f 106/106/106 150/150/149 765/728/104
f 765/728/104 766/729/698 106/106/106
f 767/730/699 108/108/108 766/729/698
f 106/106/106 766/729/698 108/108/108
f 767/730/699 222/222/217 108/108/108
f 222/222/217 767/730/699 768/731/700
f 768/731/700 241/241/236 222/222/217
f 769/732/701 241/241/236 768/731/700
f 241/241/236 769/732/701 299/299/291
f 299/299/291 770/733/702 300/300/292
f 770/733/702 299/299/291 769/732/701
f 300/300/292 771/734/703 301/301/293
f 771/734/703 300/300/292 770/733/702
f 301/301/293 772/735/704 302/302/294
f 772/735/704 301/301/293 771/734/703
f 302/302/294 773/736/306 303/303/295
f 773/736/306 302/302/294 772/735/704
f 304/304/296 303/303/295 773/736/306
f 304/304/296 773/736/306 774/737/705
f 305/305/297 304/304/296 774/737/705
f 774/737/705 775/738/183 305/305/297
f 306/306/298 305/305/297 775/738/183
f 775/738/183 776/739/706 306/306/298
f 307/307/299 306/306/298 776/739/706
f 776/739/706 777/740/179 307/307/299
f 308/308/300 307/307/299 777/740/179
f 777/740/179 778/741/707 308/308/300
f 252/252/247 778/741/707 779/742/248
f 778/741/707 252/252/247 308/308/300
f 223/223/218 779/742/248 752/715/693
f 779/742/248 223/223/218 252/252/247
f 230/230/225 780/743/700 309/309/301
f 309/309/301 103/103/103 105/105/105
