# Blender 5.1.2
# www.blender.org
o Object_5.058
v 0.131010 2.211778 -0.137896
v 0.029590 2.211778 -0.124099
v 0.095919 2.211778 -0.190428
v 0.044359 2.211778 -0.101998
v 0.143335 2.211778 -0.075938
v 0.145928 2.198577 -0.144071
v 0.159480 2.198577 -0.075938
v 0.145928 2.198577 -0.007796
v 0.131010 2.211778 -0.013972
v 0.107333 2.198577 0.049974
v 0.095919 2.211778 0.038560
v 0.049563 2.198577 0.088569
v -0.018579 2.198577 0.102121
v 0.043387 2.211778 0.073660
v 0.007490 2.211778 -0.013000
v 0.029590 2.211778 -0.027768
v -0.018579 2.211778 0.085985
v -0.080537 2.211778 0.073660
v -0.018579 2.211778 -0.007814
v -0.086713 2.198577 0.088569
v -0.144483 2.198577 0.049974
v -0.183078 2.198577 -0.007796
v -0.133069 2.211778 0.038560
v -0.066740 2.211778 -0.027768
v -0.168169 2.211778 -0.013972
v -0.044648 2.211778 -0.013000
v -0.018579 2.211778 -0.027768
v -0.018579 2.211778 -0.049869
v -0.081509 2.211778 -0.049869
v -0.018579 2.211778 -0.075938
v 0.044359 2.211778 -0.049869
v 0.049545 2.211778 -0.075938
v -0.018579 2.211778 -0.101998
v -0.018579 2.211778 -0.124099
v -0.081509 2.211778 -0.101998
v -0.066740 2.211778 -0.124099
v -0.133069 2.211778 -0.190428
v -0.080537 2.211778 -0.225528
v -0.044648 2.211778 -0.138868
v -0.018579 2.211778 -0.237853
v -0.018579 2.211778 -0.144054
v 0.043387 2.211778 -0.225528
v 0.007490 2.211778 -0.138868
v 0.107333 2.198577 -0.201842
v 0.049563 2.198577 -0.240437
v -0.018579 2.198577 -0.253988
v -0.086713 2.198577 -0.240437
v -0.144483 2.198577 -0.201842
v -0.168169 2.211778 -0.137896
v -0.183078 2.198577 -0.144071
v -0.180494 2.211778 -0.075938
v -0.196630 2.198577 -0.075938
v -0.086695 2.211778 -0.075938
v -0.018579 2.183519 -0.253988
v 0.049563 2.038843 -0.240437
v 0.049563 2.183519 -0.240437
v -0.018579 2.038843 -0.253988
v -0.018579 2.198577 -0.253988
v 0.049563 2.198577 -0.240437
v 0.107333 2.183519 -0.201842
v 0.107333 2.198577 -0.201842
v 0.145928 2.183519 -0.144071
v 0.145928 2.198577 -0.144071
v 0.159480 2.183519 -0.075938
v 0.159480 2.198577 -0.075938
v 0.145928 2.198577 -0.007796
v 0.145928 2.183519 -0.007796
v 0.107333 2.183519 0.049974
v 0.107333 2.038843 0.049974
v 0.145928 2.038843 -0.007796
v 0.159480 2.038843 -0.075938
v 0.145928 1.897715 -0.007796
v 0.159480 1.897715 -0.075938
v 0.145928 1.897715 -0.144071
v 0.145928 1.885679 -0.144071
v 0.159480 1.885679 -0.075938
v 0.145928 1.885679 -0.007796
v 0.107333 1.885679 0.049974
v 0.107333 1.897715 0.049974
v 0.049563 1.897715 0.088569
v 0.049563 2.038843 0.088569
v -0.018579 2.038843 0.102121
v 0.049563 2.183519 0.088569
v -0.018579 2.183519 0.102121
v 0.107333 2.198577 0.049974
v 0.049563 2.198577 0.088569
v -0.018579 2.198577 0.102121
v -0.086713 2.183519 0.088569
v -0.086713 2.198577 0.088569
v -0.144483 2.183519 0.049974
v -0.144483 2.198577 0.049974
v -0.183078 2.183519 -0.007796
v -0.183078 2.198577 -0.007796
v -0.196630 2.183519 -0.075938
v -0.196630 2.198577 -0.075938
v -0.183078 2.198577 -0.144071
v -0.183078 2.183519 -0.144071
v -0.144483 2.183519 -0.201842
v -0.144483 2.038843 -0.201842
v -0.183078 2.038843 -0.144071
v -0.196630 2.038843 -0.075938
v -0.183078 1.897715 -0.144071
v -0.196630 1.897715 -0.075938
v -0.183078 1.897715 -0.007796
v -0.183078 1.885679 -0.007796
v -0.196630 1.885679 -0.075938
v -0.183078 1.885679 -0.144071
v -0.144483 1.885679 -0.201842
v -0.144483 1.897715 -0.201842
v -0.086713 1.897715 -0.240437
v -0.086713 2.038843 -0.240437
v -0.086713 2.183519 -0.240437
v -0.018579 2.038843 -0.253988
v -0.018579 2.183519 -0.253988
v -0.018579 1.897715 -0.253988
v -0.086713 1.885679 -0.240437
v -0.018579 1.885679 -0.253988
v -0.086713 2.198577 -0.240437
v -0.018579 2.198577 -0.253988
v -0.144483 2.198577 -0.201842
v -0.144483 1.885679 0.049974
v -0.086713 1.885679 0.088569
v -0.144483 1.897715 0.049974
v -0.144483 2.038843 0.049974
v -0.183078 2.038843 -0.007796
v -0.086713 1.897715 0.088569
v -0.018579 1.897715 0.102121
v -0.018579 1.885679 0.102121
v -0.086713 2.038843 0.088569
v 0.049563 1.885679 0.088569
v 0.107333 1.885679 -0.201842
v 0.049563 1.885679 -0.240437
v 0.107333 1.897715 -0.201842
v 0.049563 1.897715 -0.240437
v 0.107333 2.038843 -0.201842
v 0.145928 2.038843 -0.144071
v -0.018579 1.885679 -0.253988
v -0.018579 1.897715 -0.253988
v 0.131010 1.865900 -0.137896
v 0.029590 1.865900 -0.124099
v 0.044359 1.865900 -0.101998
v 0.095919 1.865900 -0.190428
v 0.143335 1.865900 -0.075938
v 0.145928 1.885679 -0.144071
v 0.159480 1.885679 -0.075938
v 0.145928 1.885679 -0.007796
v 0.131010 1.865900 -0.013972
v 0.107333 1.885679 0.049974
v 0.095919 1.865900 0.038560
v 0.049563 1.885679 0.088569
v -0.018579 1.885679 0.102121
v 0.043387 1.865900 0.073660
v 0.029590 1.865900 -0.027768
v -0.018579 1.865900 0.085985
v 0.007490 1.865900 -0.013000
v -0.018579 1.865900 -0.027768
v -0.018579 1.865900 -0.007814
v -0.080537 1.865900 0.073660
v -0.044648 1.865900 -0.013000
v -0.133069 1.865900 0.038560
v -0.066740 1.865900 -0.027768
v -0.168169 1.865900 -0.013972
v -0.081509 1.865900 -0.049869
v -0.018579 1.865900 -0.049869
v -0.018579 1.865900 -0.075938
v 0.044359 1.865900 -0.049869
v 0.049545 1.865900 -0.075938
v -0.018579 1.865900 -0.101998
v -0.018579 1.865900 -0.124099
v -0.066740 1.865900 -0.124099
v -0.081509 1.865900 -0.101998
v -0.133069 1.865900 -0.190428
v -0.168169 1.865900 -0.137896
v -0.086695 1.865900 -0.075938
v -0.180494 1.865900 -0.075938
v -0.196630 1.885679 -0.075938
v -0.183078 1.885679 -0.144071
v -0.144483 1.885679 -0.201842
v -0.086713 1.885679 -0.240437
v -0.018579 1.885679 -0.253988
v -0.080537 1.865900 -0.225528
v -0.044648 1.865900 -0.138868
v -0.018579 1.865900 -0.237853
v -0.018579 1.865900 -0.144054
v 0.043387 1.865900 -0.225528
v 0.049563 1.885679 -0.240437
v 0.107333 1.885679 -0.201842
v 0.007490 1.865900 -0.138868
v -0.183078 1.885679 -0.007796
v -0.144483 1.885679 0.049974
v -0.086713 1.885679 0.088569
vn 0.3439 0.9282 -0.1424
vn -0.0000 1.0000 -0.0000
vn 0.2632 0.9281 -0.2632
vn 0.8431 0.4089 -0.3492
vn 0.3722 0.9281 -0.0000
vn 0.9126 0.4089 -0.0000
vn 0.8431 0.4089 0.3492
vn 0.3439 0.9282 0.1424
vn 0.6453 0.4089 0.6453
vn 0.2633 0.9281 0.2632
vn 0.3492 0.4089 0.8431
vn 0.1425 0.9281 0.3440
vn -0.0000 0.4089 0.9126
vn -0.0000 0.9281 0.3724
vn -0.1425 0.9281 0.3440
vn -0.3492 0.4089 0.8431
vn -0.6453 0.4089 0.6453
vn -0.2632 0.9281 0.2632
vn -0.8431 0.4089 0.3492
vn -0.3440 0.9281 0.1425
vn -0.1425 0.9281 -0.3440
vn -0.2632 0.9281 -0.2632
vn -0.0000 0.9281 -0.3724
vn 0.1425 0.9281 -0.3440
vn 0.3492 0.4089 -0.8431
vn 0.6453 0.4088 -0.6453
vn -0.0000 0.4089 -0.9126
vn -0.3492 0.4089 -0.8431
vn -0.6453 0.4089 -0.6453
vn -0.3440 0.9281 -0.1425
vn -0.8431 0.4089 -0.3492
vn -0.3724 0.9281 -0.0000
vn -0.9126 0.4089 -0.0000
vn 0.0001 -0.0000 -1.0000
vn 0.3826 -0.0000 -0.9239
vn 0.7071 -0.0000 -0.7071
vn 0.9239 -0.0000 -0.3826
vn 1.0000 -0.0000 -0.0000
vn 0.9239 -0.0000 0.3826
vn 0.7071 -0.0000 0.7071
vn 0.9464 -0.3230 -0.0000
vn 0.8744 -0.3230 -0.3622
vn 0.8743 -0.3230 0.3622
vn 0.6692 -0.3230 0.6692
vn 0.3826 -0.0000 0.9239
vn -0.0000 -0.0000 1.0000
vn -0.3826 -0.0000 0.9239
vn -0.7071 -0.0000 0.7071
vn -0.9239 -0.0000 0.3826
vn -1.0000 -0.0000 -0.0000
vn -0.9239 -0.0000 -0.3826
vn -0.7071 -0.0000 -0.7071
vn -0.9464 -0.3230 -0.0000
vn -0.8743 -0.3230 0.3622
vn -0.8743 -0.3230 -0.3622
vn -0.6692 -0.3230 -0.6692
vn -0.3826 -0.0000 -0.9239
vn -0.0001 -0.0000 -1.0000
vn -0.3622 -0.3230 -0.8744
vn -0.0000 -0.3230 -0.9464
vn -0.6692 -0.3230 0.6692
vn -0.3622 -0.3230 0.8744
vn -0.0000 -0.3230 0.9464
vn 0.3622 -0.3230 0.8743
vn 0.6692 -0.3230 -0.6692
vn 0.3622 -0.3230 -0.8743
vn 0.4346 -0.8824 -0.1800
vn -0.0000 -1.0000 -0.0000
vn 0.3327 -0.8824 -0.3327
vn 0.4705 -0.8824 -0.0000
vn 0.8743 -0.3232 -0.3622
vn 0.9463 -0.3233 -0.0000
vn 0.8743 -0.3232 0.3622
vn 0.4346 -0.8824 0.1800
vn 0.6691 -0.3232 0.6692
vn 0.3327 -0.8824 0.3327
vn 0.3622 -0.3232 0.8743
vn 0.1801 -0.8824 0.4348
vn -0.0000 -0.3232 0.9463
vn -0.0000 -0.8824 0.4706
vn -0.1801 -0.8824 0.4347
vn -0.3327 -0.8824 0.3327
vn -0.4348 -0.8824 0.1801
vn -0.3327 -0.8824 -0.3327
vn -0.4347 -0.8824 -0.1801
vn -0.4706 -0.8823 -0.0000
vn -0.8743 -0.3232 -0.3622
vn -0.9463 -0.3232 -0.0000
vn -0.6691 -0.3232 -0.6692
vn -0.3622 -0.3232 -0.8743
vn -0.1801 -0.8824 -0.4348
vn -0.0000 -0.3232 -0.9463
vn -0.0000 -0.8824 -0.4706
vn 0.1801 -0.8824 -0.4348
vn 0.3622 -0.3232 -0.8743
vn 0.6692 -0.3232 -0.6691
vn -0.8743 -0.3232 0.3622
vn -0.6692 -0.3232 0.6691
vn -0.3622 -0.3232 0.8743
vt 0.075444 0.438673
vt 0.080835 0.454445
vt 0.083910 0.451354
vt 0.068161 0.445968
vt 0.073521 0.435757
vt 0.084965 0.434721
vt 0.084305 0.431290
vt 0.095976 0.431290
vt 0.095274 0.434712
vt 0.106759 0.435757
vt 0.104801 0.438650
vt 0.115013 0.444010
vt 0.112096 0.445933
vt 0.119479 0.454793
vt 0.116049 0.455454
vt 0.099415 0.454399
vt 0.096325 0.451324
vt 0.116057 0.465763
vt 0.119479 0.466465
vt 0.101093 0.458422
vt 0.115013 0.477248
vt 0.112120 0.475290
vt 0.106760 0.485501
vt 0.101104 0.462782
vt 0.104836 0.482585
vt 0.099446 0.466814
vt 0.097885 0.459069
vt 0.094332 0.459785
vt 0.096371 0.469904
vt 0.090140 0.460629
vt 0.092293 0.449665
vt 0.087934 0.449676
vt 0.085949 0.461474
vt 0.082395 0.462189
vt 0.083956 0.469934
vt 0.087988 0.471593
vt 0.068184 0.475325
vt 0.075480 0.482609
vt 0.080866 0.466859
vt 0.064232 0.465804
vt 0.079187 0.462836
vt 0.064224 0.455495
vt 0.079177 0.458476
vt 0.060802 0.454793
vt 0.065268 0.444010
vt 0.060802 0.466465
vt 0.065268 0.477248
vt 0.073521 0.485501
vt 0.085007 0.486546
vt 0.084305 0.489968
vt 0.095316 0.486538
vt 0.095976 0.489968
vt 0.092347 0.471582
vt 0.331956 0.492286
vt 0.308263 0.480908
vt 0.308263 0.492286
vt 0.331956 0.480908
vt 0.334422 0.492286
vt 0.334422 0.480908
vt 0.331956 0.469530
vt 0.334422 0.469530
vt 0.331956 0.458152
vt 0.334422 0.458152
vt 0.331956 0.446775
vt 0.334422 0.446775
vt 0.334422 0.435397
vt 0.331956 0.435397
vt 0.331956 0.424019
vt 0.308262 0.424019
vt 0.308262 0.435397
vt 0.285150 0.435397
vt 0.308262 0.446775
vt 0.285150 0.446775
vt 0.283179 0.446775
vt 0.285150 0.458152
vt 0.283179 0.458152
vt 0.283179 0.435397
vt 0.285150 0.424019
vt 0.283179 0.424019
vt 0.308263 0.412641
vt 0.285150 0.412641
vt 0.308262 0.401264
vt 0.331956 0.412641
vt 0.334422 0.412641
vt 0.331956 0.401264
vt 0.334422 0.424019
vt 0.334422 0.401264
vt 0.331956 0.389886
vt 0.334422 0.389886
vt 0.331956 0.378508
vt 0.334422 0.378508
vt 0.331956 0.367130
vt 0.334422 0.367130
vt 0.331956 0.355753
vt 0.334422 0.355753
vt 0.334422 0.344375
vt 0.331956 0.344375
vt 0.331956 0.332997
vt 0.308263 0.332997
vt 0.308263 0.344375
vt 0.285150 0.344375
vt 0.308262 0.355753
vt 0.285150 0.355753
vt 0.283179 0.355753
vt 0.285150 0.367130
vt 0.283179 0.367130
vt 0.283179 0.344375
vt 0.285150 0.332997
vt 0.283179 0.332997
vt 0.308263 0.321619
vt 0.285150 0.321619
vt 0.331956 0.321619
vt 0.308263 0.310242
vt 0.331956 0.310242
vt 0.285150 0.310242
vt 0.283179 0.321619
vt 0.283179 0.310242
vt 0.334422 0.321619
vt 0.334422 0.310242
vt 0.334422 0.332997
vt 0.283179 0.378508
vt 0.283179 0.389886
vt 0.285150 0.378508
vt 0.285150 0.389886
vt 0.308262 0.378508
vt 0.308262 0.367130
vt 0.283179 0.401264
vt 0.285150 0.401264
vt 0.308262 0.389886
vt 0.283179 0.412641
vt 0.283179 0.469530
vt 0.283179 0.480908
vt 0.285150 0.469530
vt 0.285150 0.480908
vt 0.308263 0.469530
vt 0.308262 0.458152
vt 0.283179 0.492286
vt 0.285150 0.492286
vt 0.044934 0.438079
vt 0.039589 0.453761
vt 0.052176 0.445348
vt 0.036524 0.450669
vt 0.035461 0.434135
vt 0.047305 0.434445
vt 0.036261 0.429870
vt 0.024306 0.429870
vt 0.025200 0.434117
vt 0.013262 0.434445
vt 0.015713 0.438026
vt 0.004809 0.442898
vt 0.008444 0.445269
vt 0.000235 0.453942
vt 0.024126 0.450613
vt 0.021033 0.453678
vt 0.004500 0.454742
vt 0.022552 0.458345
vt 0.019349 0.457693
vt 0.004481 0.465003
vt 0.019330 0.462047
vt 0.008391 0.474490
vt 0.020978 0.466077
vt 0.015633 0.481759
vt 0.024043 0.469169
vt 0.026099 0.459067
vt 0.030283 0.459919
vt 0.028155 0.448965
vt 0.032509 0.448985
vt 0.034468 0.460771
vt 0.038015 0.461493
vt 0.036441 0.469225
vt 0.032412 0.470873
vt 0.044854 0.481812
vt 0.035367 0.485721
vt 0.028058 0.470853
vt 0.025106 0.485703
vt 0.036261 0.489968
vt 0.024306 0.489968
vt 0.047305 0.485393
vt 0.055758 0.476940
vt 0.052123 0.474569
vt 0.060332 0.465896
vt 0.039534 0.466160
vt 0.056067 0.465096
vt 0.041218 0.462145
vt 0.056086 0.454835
vt 0.060332 0.453942
vt 0.055758 0.442898
vt 0.041237 0.457791
vt 0.013262 0.485393
vt 0.004809 0.476940
vt 0.000235 0.465896
s 1
f 1/1/1 2/2/2 4/3/2
f 1/1/1 3/4/3 2/2/2
f 3/4/3 1/1/1 6/5/4
f 5/6/5 1/1/1 4/3/2
f 1/1/1 5/6/5 7/7/6
f 1/1/1 7/7/6 6/5/4
f 5/6/5 8/8/7 7/7/6
f 5/6/5 9/9/8 8/8/7
f 9/9/8 10/10/9 8/8/7
f 11/11/10 12/12/11 10/10/9
f 9/9/8 11/11/10 10/10/9
f 14/13/12 13/14/13 12/12/11
f 11/11/10 14/13/12 12/12/11
f 17/15/14 14/13/12 15/16/2
f 14/13/12 16/17/2 15/16/2
f 14/13/12 17/15/14 13/14/13
f 14/13/12 11/11/10 16/17/2
f 17/15/14 18/18/15 20/19/16
f 18/18/15 17/15/14 19/20/2
f 17/15/14 15/16/2 19/20/2
f 17/15/14 20/19/16 13/14/13
f 18/18/15 21/21/17 20/19/16
f 23/22/18 22/23/19 21/21/17
f 18/18/15 23/22/18 21/21/17
f 23/22/18 18/18/15 26/24/2
f 25/25/20 23/22/18 24/26/2
f 23/22/18 26/24/2 24/26/2
f 23/22/18 25/25/20 22/23/19
f 18/18/15 19/20/2 26/24/2
s 0
f 26/24/2 19/20/2 27/27/2
f 26/24/2 27/27/2 24/26/2
f 27/27/2 15/16/2 16/17/2
f 27/27/2 19/20/2 15/16/2
f 24/26/2 27/27/2 28/28/2
f 28/28/2 27/27/2 16/17/2
f 24/26/2 28/28/2 29/29/2
f 29/29/2 28/28/2 30/30/2
f 30/30/2 28/28/2 31/31/2
f 28/28/2 16/17/2 31/31/2
f 30/30/2 31/31/2 32/32/2
s 1
f 9/9/8 32/32/2 31/31/2
f 11/11/10 9/9/8 31/31/2
f 11/11/10 31/31/2 16/17/2
f 9/9/8 5/6/5 32/32/2
f 5/6/5 4/3/2 32/32/2
s 0
f 33/33/2 32/32/2 4/3/2
f 33/33/2 30/30/2 32/32/2
f 4/3/2 34/34/2 33/33/2
f 33/33/2 34/34/2 36/35/2
f 35/36/2 30/30/2 33/33/2
f 33/33/2 36/35/2 35/36/2
s 1
f 38/37/21 37/38/22 36/35/2
f 37/38/22 35/36/2 36/35/2
f 38/37/21 36/35/2 39/39/2
s 0
f 34/34/2 39/39/2 36/35/2
s 1
f 40/40/23 38/37/21 39/39/2
f 40/40/23 39/39/2 41/41/2
s 0
f 34/34/2 41/41/2 39/39/2
s 1
f 42/42/24 40/40/23 41/41/2
f 42/42/24 41/41/2 43/43/2
s 0
f 43/43/2 41/41/2 34/34/2
s 1
f 3/4/3 43/43/2 2/2/2
f 3/4/3 42/42/24 43/43/2
s 0
f 43/43/2 34/34/2 2/2/2
s 1
f 40/40/23 42/42/24 45/44/25
f 42/42/24 3/4/3 44/45/26
f 42/42/24 44/45/26 45/44/25
f 40/40/23 45/44/25 46/46/27
f 38/37/21 40/40/23 46/46/27
f 38/37/21 46/46/27 47/47/28
f 37/38/22 47/47/28 48/48/29
f 37/38/22 38/37/21 47/47/28
f 49/49/30 37/38/22 48/48/29
f 49/49/30 48/48/29 50/50/31
f 51/51/32 50/50/31 52/52/33
f 51/51/32 49/49/30 50/50/31
f 25/25/20 51/51/32 52/52/33
f 25/25/20 52/52/33 22/23/19
f 49/49/30 51/51/32 53/53/2
f 51/51/32 29/29/2 53/53/2
f 51/51/32 25/25/20 29/29/2
f 49/49/30 53/53/2 35/36/2
s 0
f 29/29/2 30/30/2 53/53/2
f 35/36/2 53/53/2 30/30/2
s 1
f 37/38/22 49/49/30 35/36/2
f 3/4/3 6/5/4 44/45/26
s 0
f 4/3/2 2/2/2 34/34/2
s 1
f 25/25/20 24/26/2 29/29/2
f 54/54/34 55/55/35 57/56/34
f 54/54/34 56/57/35 55/55/35
f 58/58/27 56/57/35 54/54/34
f 58/58/27 59/59/25 56/57/35
f 59/59/25 60/60/36 56/57/35
f 59/59/25 61/61/26 60/60/36
f 61/61/26 62/62/37 60/60/36
f 61/61/26 63/63/4 62/62/37
f 63/63/4 64/64/38 62/62/37
f 63/63/4 65/65/6 64/64/38
f 65/65/6 66/66/7 67/67/39
f 65/65/6 67/67/39 64/64/38
f 66/66/7 68/68/40 67/67/39
f 67/67/39 68/68/40 69/69/40
f 67/67/39 69/69/40 70/70/39
f 64/64/38 67/67/39 70/70/39
f 72/71/39 70/70/39 69/69/40
f 64/64/38 70/70/39 71/72/38
f 73/73/38 71/72/38 70/70/39
f 73/73/38 70/70/39 72/71/39
f 76/74/41 73/73/38 72/71/39
f 74/75/37 71/72/38 73/73/38
f 75/76/42 74/75/37 73/73/38
f 75/76/42 73/73/38 76/74/41
f 76/74/41 72/71/39 77/77/43
f 77/77/43 79/78/40 78/79/44
f 77/77/43 72/71/39 79/78/40
f 72/71/39 69/69/40 79/78/40
f 79/78/40 69/69/40 81/80/45
f 78/79/44 79/78/40 80/81/45
f 79/78/40 81/80/45 80/81/45
f 80/81/45 81/80/45 82/82/46
f 83/83/45 82/82/46 81/80/45
f 68/68/40 83/83/45 81/80/45
f 68/68/40 81/80/45 69/69/40
f 86/84/11 84/85/46 83/83/45
f 83/83/45 84/85/46 82/82/46
f 85/86/9 83/83/45 68/68/40
f 85/86/9 86/84/11 83/83/45
f 86/84/11 87/87/13 84/85/46
f 87/87/13 88/88/47 84/85/46
f 87/87/13 89/89/16 88/88/47
f 89/89/16 90/90/48 88/88/47
f 89/89/16 91/91/17 90/90/48
f 91/91/17 92/92/49 90/90/48
f 91/91/17 93/93/19 92/92/49
f 93/93/19 94/94/50 92/92/49
f 93/93/19 95/95/33 94/94/50
f 95/95/33 96/96/31 97/97/51
f 95/95/33 97/97/51 94/94/50
f 96/96/31 98/98/52 97/97/51
f 97/97/51 98/98/52 99/99/52
f 97/97/51 99/99/52 100/100/51
f 94/94/50 97/97/51 100/100/51
f 102/101/51 100/100/51 99/99/52
f 94/94/50 100/100/51 101/102/50
f 103/103/50 101/102/50 100/100/51
f 103/103/50 100/100/51 102/101/51
f 106/104/53 103/103/50 102/101/51
f 104/105/49 101/102/50 103/103/50
f 105/106/54 104/105/49 103/103/50
f 105/106/54 103/103/50 106/104/53
f 106/104/53 102/101/51 107/107/55
f 107/107/55 109/108/52 108/109/56
f 107/107/55 102/101/51 109/108/52
f 102/101/51 99/99/52 109/108/52
f 109/108/52 99/99/52 111/110/57
f 108/109/56 109/108/52 110/111/57
f 109/108/52 111/110/57 110/111/57
f 98/98/52 112/112/57 111/110/57
f 112/112/57 113/113/58 111/110/57
f 110/111/57 111/110/57 113/113/58
f 98/98/52 111/110/57 99/99/52
f 112/112/57 114/114/58 113/113/58
f 110/111/57 113/113/58 115/115/58
f 116/116/59 110/111/57 115/115/58
f 116/116/59 115/115/58 117/117/60
f 108/109/56 110/111/57 116/116/59
f 118/118/28 114/114/58 112/112/57
f 118/118/28 119/119/27 114/114/58
f 120/120/29 118/118/28 112/112/57
f 120/120/29 112/112/57 98/98/52
f 96/96/31 120/120/29 98/98/52
f 121/121/61 104/105/49 105/106/54
f 122/122/62 123/123/48 121/121/61
f 121/121/61 123/123/48 104/105/49
f 126/124/47 124/125/48 123/123/48
f 123/123/48 124/125/48 125/126/49
f 123/123/48 125/126/49 104/105/49
f 122/122/62 126/124/47 123/123/48
f 128/127/63 127/128/46 126/124/47
f 127/128/46 129/129/47 126/124/47
f 128/127/63 126/124/47 122/122/62
f 126/124/47 129/129/47 124/125/48
f 88/88/47 124/125/48 129/129/47
f 84/85/46 88/88/47 129/129/47
f 84/85/46 129/129/47 82/82/46
f 127/128/46 82/82/46 129/129/47
f 130/130/64 127/128/46 128/127/63
f 130/130/64 80/81/45 127/128/46
f 78/79/44 80/81/45 130/130/64
f 80/81/45 82/82/46 127/128/46
f 104/105/49 125/126/49 101/102/50
f 92/92/49 101/102/50 125/126/49
f 90/90/48 92/92/49 125/126/49
f 90/90/48 125/126/49 124/125/48
f 88/88/47 90/90/48 124/125/48
f 92/92/49 94/94/50 101/102/50
f 66/66/7 85/86/9 68/68/40
f 131/131/65 74/75/37 75/76/42
f 132/132/66 133/133/36 131/131/65
f 131/131/65 133/133/36 74/75/37
f 132/132/66 134/134/35 133/133/36
f 134/134/35 135/135/36 133/133/36
f 133/133/36 135/135/36 136/136/37
f 133/133/36 136/136/37 74/75/37
f 74/75/37 136/136/37 71/72/38
f 62/62/37 71/72/38 136/136/37
f 60/60/36 62/62/37 136/136/37
f 60/60/36 136/136/37 135/135/36
f 56/57/35 60/60/36 135/135/36
f 56/57/35 135/135/36 55/55/35
f 134/134/35 55/55/35 135/135/36
f 137/137/60 134/134/35 132/132/66
f 137/137/60 138/138/34 134/134/35
f 138/138/34 55/55/35 134/134/35
f 138/138/34 57/56/34 55/55/35
f 62/62/37 64/64/38 71/72/38
f 139/139/67 140/140/68 142/141/69
f 139/139/67 141/142/68 140/140/68
f 143/143/70 141/142/68 139/139/67
f 142/141/69 144/144/71 139/139/67
f 139/139/67 145/145/72 143/143/70
f 139/139/67 144/144/71 145/145/72
f 143/143/70 145/145/72 146/146/73
f 147/147/74 146/146/73 148/148/75
f 143/143/70 146/146/73 147/147/74
f 149/149/76 148/148/75 150/150/77
f 147/147/74 148/148/75 149/149/76
f 149/149/76 150/150/77 152/151/78
f 152/151/78 150/150/77 151/152/79
f 152/151/78 153/153/68 149/149/76
f 152/151/78 155/154/68 153/153/68
f 152/151/78 151/152/79 154/155/80
f 154/155/80 155/154/68 152/151/78
s 0
f 156/156/68 155/154/68 157/157/68
f 156/156/68 153/153/68 155/154/68
s 1
f 154/155/80 157/157/68 155/154/68
f 158/158/81 157/157/68 154/155/80
f 158/158/81 159/159/68 157/157/68
s 0
f 159/159/68 156/156/68 157/157/68
s 1
f 160/160/82 159/159/68 158/158/81
f 160/160/82 161/161/68 159/159/68
s 0
f 159/159/68 161/161/68 156/156/68
s 1
f 162/162/83 161/161/68 160/160/82
f 162/162/83 163/163/68 161/161/68
s 0
f 161/161/68 163/163/68 164/164/68
f 161/161/68 164/164/68 156/156/68
f 163/163/68 165/165/68 164/164/68
f 165/165/68 166/166/68 164/164/68
f 164/164/68 153/153/68 156/156/68
f 164/164/68 166/166/68 153/153/68
s 1
f 149/149/76 166/166/68 147/147/74
f 147/147/74 166/166/68 167/167/68
f 149/149/76 153/153/68 166/166/68
s 0
f 165/165/68 167/167/68 166/166/68
f 168/168/68 141/142/68 167/167/68
s 1
f 143/143/70 167/167/68 141/142/68
f 147/147/74 167/167/68 143/143/70
s 0
f 168/168/68 167/167/68 165/165/68
f 141/142/68 168/168/68 169/169/68
f 168/168/68 170/170/68 169/169/68
f 171/171/68 168/168/68 165/165/68
f 168/168/68 171/171/68 170/170/68
s 1
f 172/172/84 171/171/68 173/173/85
f 172/172/84 170/170/68 171/171/68
f 173/173/85 171/171/68 174/174/68
s 0
f 171/171/68 165/165/68 174/174/68
f 163/163/68 174/174/68 165/165/68
s 1
f 175/175/86 174/174/68 163/163/68
f 173/173/85 174/174/68 175/175/86
f 175/175/86 163/163/68 162/162/83
f 175/175/86 177/176/87 173/173/85
f 175/175/86 176/177/88 177/176/87
f 162/162/83 176/177/88 175/175/86
f 173/173/85 177/176/87 178/178/89
f 173/173/85 178/178/89 172/172/84
f 172/172/84 178/178/89 179/179/90
f 172/172/84 179/179/90 181/180/91
f 181/180/91 179/179/90 180/181/92
f 181/180/91 170/170/68 172/172/84
f 181/180/91 182/182/68 170/170/68
f 183/183/93 182/182/68 181/180/91
f 181/180/91 180/181/92 183/183/93
f 183/183/93 184/184/68 182/182/68
f 185/185/94 184/184/68 183/183/93
f 183/183/93 186/186/95 185/185/94
f 183/183/93 180/181/92 186/186/95
f 185/185/94 186/186/95 187/187/96
f 142/141/69 187/187/96 144/144/71
f 185/185/94 187/187/96 142/141/69
f 142/141/69 188/188/68 185/185/94
f 185/185/94 188/188/68 184/184/68
s 0
f 188/188/68 140/140/68 169/169/68
s 1
f 142/141/69 140/140/68 188/188/68
s 0
f 188/188/68 169/169/68 184/184/68
f 169/169/68 182/182/68 184/184/68
f 169/169/68 170/170/68 182/182/68
s 1
f 162/162/83 189/189/97 176/177/88
f 160/160/82 189/189/97 162/162/83
f 160/160/82 190/190/98 189/189/97
f 158/158/81 191/191/99 190/190/98
f 158/158/81 190/190/98 160/160/82
f 154/155/80 191/191/99 158/158/81
f 154/155/80 151/152/79 191/191/99
s 0
f 141/142/68 169/169/68 140/140/68
