# Blender 5.1.2
# www.blender.org
o pCube12_lambert1_0
v 16.710369 -0.613679 6.830013
v 16.710369 0.613679 6.338471
v 16.710369 0.613679 -1.561265
v 16.936394 0.977106 -1.219576
v 16.936394 0.977106 5.823337
v 17.026600 1.120126 -1.003082
v 16.710369 0.613679 -1.561265
v 16.710369 0.613679 6.338471
v 16.828146 0.613679 5.823337
v 16.828146 0.613679 -1.561265
v 17.099203 0.613679 6.338471
v 16.710369 4.525257 6.830013
v 16.866005 4.194609 6.830013
v 16.866005 4.525257 6.830013
v 16.710369 4.525257 6.338471
v 16.710369 4.525257 6.830013
v 16.866005 4.525257 6.830013
v 16.866005 4.525257 6.338471
v 16.866005 4.525257 6.338471
v 16.866005 4.194609 6.338471
v 16.710369 4.525257 6.338471
v 26.269215 -0.613679 -1.003082
v 16.710369 -0.613679 6.830013
v 16.710369 -0.613679 -9.394360
v 16.828146 0.613679 -1.561265
v 16.936394 0.977106 -1.219576
v 16.936394 0.977106 -1.344771
v 16.936394 0.977106 -1.219576
v 16.828146 0.613679 5.823337
v 16.936394 0.977106 5.823337
v 16.828146 0.613679 -1.561265
v 21.590269 0.613679 5.823337
v 20.069643 0.613679 6.338471
v 23.952749 0.613679 6.338471
v 25.688894 -0.613679 6.830013
v 17.026600 1.120126 5.823337
v 16.936394 0.977106 5.823337
v 21.590269 1.120126 5.823337
v 16.828146 0.613679 5.823337
v 21.590269 0.613679 5.823337
v 16.936394 0.977106 5.823337
v 21.590269 1.120126 5.823337
v 21.454304 4.194609 6.338471
v 21.590269 4.525257 6.338471
v 21.590269 4.194609 6.338471
v 21.454302 4.525257 6.338471
v 21.590269 4.525257 6.830013
v 21.454302 4.525257 6.338471
v 21.454302 4.525257 6.830013
v 21.590269 4.525257 6.338471
v 21.590269 4.194609 6.830013
v 21.590269 4.525257 6.830013
v 21.454302 4.525257 6.830013
v 21.454302 4.194609 6.830013
v 22.156948 4.194609 6.830013
v 22.156948 4.525257 6.830013
v 22.039375 4.525257 6.830013
v 22.039375 4.194609 6.830013
v 22.156948 4.525257 6.830013
v 22.039375 4.525257 6.338471
v 22.039375 4.525257 6.830013
v 22.156948 4.525257 6.338471
v 22.156948 4.194609 6.338471
v 22.039375 4.525257 6.338471
v 22.156948 4.525257 6.338471
v 22.039375 4.194609 6.338471
v 23.722832 0.613679 5.823339
v 21.590269 1.120126 5.823337
v 21.590269 0.613679 5.823337
v 23.722832 0.613679 5.823339
v 21.590269 3.836515 6.830013
v 21.454302 3.836515 6.830013
v 22.039375 4.194609 6.830013
v 22.039375 3.836515 6.830013
v 22.156944 3.836516 6.830013
v 22.156948 4.194609 6.830013
v 22.039375 3.836515 6.338471
v 22.039375 4.194609 6.338471
v 22.156944 3.836515 6.338471
v 22.156948 4.194609 6.338471
v 21.590269 3.836515 6.338471
v 21.454304 3.836515 6.338471
v 16.866005 3.836515 6.338471
v 16.866005 3.836515 6.830013
v 22.039375 4.194609 6.830013
v 22.039375 4.525257 6.830013
v 22.039375 4.194609 6.338471
v 22.039375 4.525257 6.338471
v 21.590269 4.194609 6.830013
v 21.590269 4.525257 6.338471
v 21.590269 4.525257 6.830013
v 21.590269 4.194609 6.338471
v 21.590269 4.194609 6.830013
v 22.039375 4.194609 6.830013
v 21.590269 4.194609 6.338471
v 22.039375 4.194609 6.338471
v 25.518633 3.836516 6.830013
v 25.583338 3.836516 6.830013
v 25.683460 4.194609 6.830013
v 26.093922 4.194609 6.338471
v 25.583336 3.836515 6.338471
v 25.518631 3.836515 6.338471
v 22.156948 4.194609 6.873113
v 22.156948 4.615359 6.873113
v 22.156948 4.525257 6.830013
v 22.156948 4.194609 6.830013
v 22.156948 4.615359 6.873113
v 22.156948 4.525257 6.338471
v 22.156948 4.525257 6.830013
v 22.156948 4.615359 6.295371
v 22.156948 4.194609 6.295371
v 22.156948 4.525257 6.338471
v 22.156948 4.615359 6.295371
v 22.156948 4.194609 6.338471
v 26.473597 -0.613679 6.830013
v 26.158911 0.977106 -1.219575
v 26.003580 0.977106 -1.344772
v 26.003580 0.977106 -1.219575
v 26.158911 0.977106 -1.344772
v 25.688894 3.836515 6.338471
v 26.473597 3.836515 6.338471
v 26.473600 4.193535 8.156989
v 25.688889 4.193535 8.156989
v 26.473600 3.080155 7.879813
v 25.688889 3.080155 7.879813
v 25.688894 4.194609 6.873113
v 25.688894 3.836516 6.830013
v 25.688894 4.194278 6.969349
v 25.688894 3.836516 6.830013
v 25.688889 4.193535 8.156989
v 25.688894 4.194278 6.969349
v 25.688889 3.080155 7.879813
v 25.688892 0.914812 7.557660
v 25.688894 -0.613679 6.830013
v 25.688894 -0.613679 7.468235
v 25.688894 1.580530 6.830013
v 26.473597 -0.613679 7.468235
v 25.688894 -0.613679 7.468235
v 25.578596 4.976611 8.375902
v 25.578600 5.344776 7.288066
v 25.578600 4.976612 7.159143
v 25.578596 5.344776 8.375902
v 25.578596 4.976611 8.375902
v 26.583895 4.976611 8.375902
v 25.578596 5.344776 8.375902
v 26.583895 5.344776 8.375902
v 25.688889 4.193535 8.156989
v 25.688894 4.976611 7.268692
v 25.688894 4.194278 6.969349
v 25.688889 4.976611 8.292842
v 26.473600 4.976611 8.292842
v 25.688889 4.976611 8.292842
v 26.473600 4.193535 8.156989
v 25.688889 4.193535 8.156989
v 26.473600 5.941206 8.293610
v 25.688889 5.941206 8.293610
v 26.473600 5.344776 8.293242
v 25.688889 5.344776 8.293242
v 25.688889 5.344776 8.293242
v 25.688894 5.942604 7.646005
v 25.688894 5.344776 7.373068
v 25.688889 5.941206 8.293610
v 26.473597 5.344776 7.373068
v 25.578600 5.344776 7.288066
v 25.688894 5.344776 7.373068
v 26.583891 5.344776 7.288066
v 25.578596 4.976611 8.375902
v 25.688894 4.976611 7.268692
v 25.688889 4.976611 8.292842
v 25.578600 4.976612 7.159143
v 25.578596 5.344776 8.375902
v 25.688894 5.344776 7.373068
v 25.578600 5.344776 7.288066
v 25.688889 5.344776 8.293242
v 26.473600 4.976611 8.292842
v 25.578596 4.976611 8.375902
v 25.688889 4.976611 8.292842
v 26.583895 4.976611 8.375902
v 25.688889 5.941206 8.293610
v 25.688894 6.547716 7.816009
v 25.688894 5.942604 7.646005
v 25.688889 6.546319 8.298310
v 26.473600 6.546319 8.298310
v 25.688889 6.546319 8.298310
v 26.473600 5.941206 8.293610
v 25.688889 5.941206 8.293610
v 25.688889 6.546319 8.298310
v 25.688894 7.177475 7.862489
v 25.688894 6.547716 7.816009
v 25.688889 7.176078 8.290074
v 26.473600 7.176078 8.290074
v 25.688889 7.176078 8.290074
v 26.473600 6.546319 8.298310
v 25.688889 6.546319 8.298310
v 22.156948 4.615359 6.873113
v 22.156736 4.719309 6.418042
v 22.156948 4.615359 6.295371
v 22.156736 4.719309 6.750444
v 22.156948 4.194609 6.338471
v 26.081648 4.194609 6.295371
v 26.093922 4.194609 6.338471
v 22.156948 4.194609 6.295371
v 22.156948 4.615359 6.295371
v 26.081648 4.194609 6.295371
v 22.156948 4.194609 6.295371
v 26.473597 4.626070 6.295371
v 26.473597 4.626070 6.295371
v 22.156948 4.615359 6.295371
v 26.473701 4.719309 6.418042
v 22.156736 4.719309 6.418042
v 26.473701 4.719309 6.750444
v 22.156736 4.719309 6.418042
v 22.156736 4.719309 6.750444
v 26.473701 4.719309 6.418042
v 22.156948 4.615359 6.873113
v 26.473597 4.626070 6.873113
v 26.473701 4.719309 6.750444
v 22.156736 4.719309 6.750444
v 22.156948 4.194609 6.873113
v 25.688894 4.194609 6.873113
v 22.156948 4.615359 6.873113
v 26.473597 4.626070 6.873113
v 22.156948 4.194609 6.873113
v 25.683460 4.194609 6.830013
v 25.688894 4.194609 6.873113
v 22.156948 4.194609 6.830013
v 20.071749 1.580530 6.830013
v 19.915285 1.580530 6.830013
v 23.722832 1.580530 6.830013
v 22.156944 3.836516 6.830013
v 23.557896 1.580530 6.830013
v 22.039375 3.836515 6.830013
v 24.047964 1.580530 6.830013
v 23.952749 1.580530 6.830013
v 25.688889 3.080155 7.879813
v 25.688894 3.836516 6.830013
v 25.688894 1.580530 6.830013
v 25.688892 1.800067 7.688671
v 26.473600 3.080155 7.879813
v 25.688889 3.080155 7.879813
v 26.473598 1.800067 7.688671
v 25.688892 1.800067 7.688671
v 26.473597 1.580530 6.338471
v 25.688894 1.580530 6.338471
v 24.047964 1.580530 6.338471
v 23.952749 1.580530 6.338471
v 23.557896 1.580530 6.338471
v 23.722832 1.580530 6.338471
v 20.071749 1.580530 6.338471
v 19.915285 1.580530 6.338471
v 16.710369 1.580530 6.338471
v 16.866005 3.836515 6.338471
v 16.866005 1.580530 6.338471
v 16.710369 4.525257 6.338471
v 16.710369 4.525257 6.830013
v 16.710369 1.580530 6.338471
v 16.710369 1.580530 6.830013
v 16.710369 4.525257 6.338471
v 16.710369 1.580530 6.830013
v 16.866005 1.580530 6.830013
v 16.710369 -0.613679 6.830013
v 25.688894 -0.613679 6.830013
v 23.557896 1.580530 6.830013
v 23.722832 1.580530 6.830013
v 25.688892 1.800067 7.688671
v 25.688894 1.580530 6.830013
v 25.688892 0.914812 7.557660
v 25.688894 0.613679 6.338471
v 23.952749 0.613679 6.338471
v 20.069643 0.613679 6.338471
v 16.710369 0.613679 6.338471
v 16.866005 1.580530 6.338471
v 17.099203 0.613679 6.338471
v 16.710369 1.580530 6.338471
v 22.156944 3.836516 6.830013
v 25.518631 3.836515 6.338471
v 25.518633 3.836516 6.830013
v 22.156944 3.836515 6.338471
v 23.952749 1.580530 6.830013
v 25.518633 3.836516 6.830013
v 25.518631 3.836515 6.338471
v 23.952749 1.580530 6.338471
v 23.952749 1.580530 6.338471
v 23.722832 1.580530 6.830013
v 23.952749 1.580530 6.830013
v 23.722832 1.580530 6.338471
v 23.722832 1.580530 6.830013
v 22.156944 3.836515 6.338471
v 22.156944 3.836516 6.830013
v 23.722832 1.580530 6.338471
v 19.723591 1.580530 6.338471
v 17.718176 3.836515 6.338471
v 16.866005 4.194609 6.274424
v 21.454302 4.604774 6.274424
v 21.454304 4.194609 6.274424
v 16.866005 4.604774 6.274424
v 21.454863 4.723394 6.750271
v 16.863079 4.723360 6.418211
v 16.863079 4.723360 6.750271
v 21.454863 4.723394 6.418211
v 16.866005 4.194609 6.894058
v 21.454302 4.194609 6.894058
v 16.866005 4.604774 6.894058
v 21.454302 4.604774 6.894058
v 17.718178 3.836515 6.830013
v 19.723591 1.580530 6.830013
v 19.563503 1.580530 6.338471
v 17.582592 3.836515 6.338471
v 17.582594 3.836515 6.830013
v 19.563503 1.580530 6.830013
v 19.915285 1.580530 6.830013
v 19.915285 1.580530 6.338471
v 19.723591 1.580530 6.830013
v 19.723591 1.580530 6.338471
v 19.723591 1.580530 6.338471
v 17.718178 3.836515 6.830013
v 19.723591 1.580530 6.830013
v 17.718176 3.836515 6.338471
v 17.718176 3.836515 6.338471
v 21.454304 3.836515 6.338471
v 17.718178 3.836515 6.830013
v 21.454302 3.836515 6.830013
v 21.454304 3.836515 6.338471
v 19.915285 1.580530 6.338471
v 21.454302 3.836515 6.830013
v 19.915285 1.580530 6.830013
v 20.071749 1.580530 6.830013
v 23.557896 1.580530 6.830013
v 23.557896 1.580530 6.338471
v 20.071749 1.580530 6.338471
v 20.071749 1.580530 6.338471
v 21.590269 3.836515 6.338471
v 20.071749 1.580530 6.830013
v 21.590269 3.836515 6.830013
v 22.039375 3.836515 6.830013
v 21.590269 3.836515 6.830013
v 22.039375 3.836515 6.338471
v 21.590269 3.836515 6.338471
v 22.039375 3.836515 6.338471
v 23.557896 1.580530 6.338471
v 22.039375 3.836515 6.830013
v 23.557896 1.580530 6.830013
v 25.688894 1.580530 6.830013
v 25.688894 3.836516 6.830013
v 25.688894 0.613679 6.338471
v 21.590269 1.120126 5.823337
v 23.722832 0.613679 5.823339
v 26.003580 1.008464 5.823337
v 26.003580 1.008464 5.823337
v 26.003580 1.120126 5.823337
v 16.936394 0.977106 -1.219576
v 26.003580 1.120126 -1.003082
v 26.003580 0.977106 -1.219575
v 25.688894 1.580530 6.830013
v 25.688894 3.836516 6.830013
v 25.688894 3.836515 6.338471
v 25.688894 1.580530 6.338471
v 24.047964 1.580530 6.830013
v 25.583336 3.836515 6.338471
v 25.583338 3.836516 6.830013
v 24.047964 1.580530 6.338471
v 25.583338 3.836516 6.830013
v 25.688894 3.836515 6.338471
v 25.688894 3.836516 6.830013
v 25.583336 3.836515 6.338471
v 24.047964 1.580530 6.830013
v 25.688894 1.580530 6.830013
v 25.688894 1.580530 6.338471
v 24.047964 1.580530 6.338471
v 17.026600 1.120126 -1.003082
v 26.003580 1.120126 -1.003082
v 16.936394 0.977106 -1.219576
v 17.026600 1.120126 -1.003082
v 21.590269 1.120126 5.823337
v 26.003580 1.120126 -1.003082
v 19.563503 1.580530 6.338471
v 16.866005 1.580530 6.830013
v 19.563503 1.580530 6.830013
v 16.866005 1.580530 6.338471
v 17.582594 3.836515 6.830013
v 19.563503 1.580530 6.338471
v 19.563503 1.580530 6.830013
v 17.582592 3.836515 6.338471
v 16.866005 3.836515 6.830013
v 17.582592 3.836515 6.338471
v 17.582594 3.836515 6.830013
v 16.866005 3.836515 6.338471
v 16.866005 1.580530 6.338471
v 16.866005 3.836515 6.830013
v 16.866005 1.580530 6.830013
v 16.866005 3.836515 6.338471
v 35.452122 0.613679 6.338471
v 35.452122 -0.613679 6.830013
v 35.452122 -0.613679 -9.394360
v 35.186024 0.977106 5.823337
v 35.063286 1.120126 -1.003082
v 35.063286 1.120126 5.823337
v 35.186024 0.977106 -1.219575
v 35.452122 1.580530 6.830013
v 35.452122 -0.613679 6.830013
v 35.452122 -0.613679 -9.394360
v 35.333305 0.613679 5.823337
v 35.452122 0.613679 6.338471
v 35.333305 0.613679 -1.285374
v 35.452122 -0.613679 6.830013
v 35.452122 1.580530 6.830013
v 35.296486 1.580530 6.830013
v 35.452122 4.525257 6.830013
v 35.296486 4.525257 6.830013
v 35.296486 4.194609 6.830013
v 35.452122 4.525257 6.338471
v 35.296486 4.525257 6.830013
v 35.452122 4.525257 6.830013
v 35.296486 4.525257 6.338471
v 35.296486 4.525257 6.338471
v 35.452122 4.525257 6.338471
v 35.296486 4.194609 6.338471
v 35.186024 0.977106 -1.219575
v 35.333305 0.613679 -1.285374
v 35.186024 0.977106 -1.344772
v 35.333305 0.613679 5.823337
v 35.186024 0.977106 -1.219575
v 35.186024 0.977106 5.823337
v 35.333305 0.613679 -1.285374
v 26.473597 0.613679 5.823337
v 28.209742 0.613679 6.338471
v 32.092846 0.613679 6.338471
v 35.186024 0.977106 -1.219575
v 26.158911 0.977106 -1.219575
v 35.063286 1.120126 -1.003082
v 35.063286 1.120126 -1.003082
v 26.158911 1.120126 5.823337
v 35.063286 1.120126 5.823337
v 35.063286 1.120126 5.823337
v 26.158911 1.120126 5.823337
v 35.186024 0.977106 5.823337
v 35.186024 0.977106 5.823337
v 26.158911 1.120126 5.823337
v 26.473597 0.613679 5.823337
v 35.333305 0.613679 5.823337
v 30.572222 4.194609 6.338471
v 30.572222 4.525257 6.338471
v 30.708187 4.194609 6.338471
v 30.708189 4.525257 6.338471
v 30.708189 4.525257 6.830013
v 30.708189 4.525257 6.338471
v 30.572222 4.525257 6.830013
v 30.572222 4.525257 6.338471
v 30.572222 4.194609 6.830013
v 30.708189 4.525257 6.830013
v 30.572222 4.525257 6.830013
v 30.708189 4.194609 6.830013
v 30.005543 4.525257 6.830013
v 30.005543 4.194609 6.830013
v 30.123116 4.525257 6.830013
v 30.123116 4.194609 6.830013
v 30.123116 4.525257 6.830013
v 30.123116 4.525257 6.338471
v 30.005543 4.525257 6.830013
v 30.005543 4.525257 6.338471
v 30.005543 4.194609 6.338471
v 30.123116 4.525257 6.338471
v 30.123116 4.194609 6.338471
v 30.005543 4.525257 6.338471
v 30.572222 3.836515 6.830013
v 30.708189 3.836515 6.830013
v 30.123116 3.836515 6.830013
v 30.123116 4.194609 6.830013
v 30.005545 3.836516 6.830013
v 30.123116 3.836515 6.830013
v 30.005543 4.194609 6.830013
v 30.005545 3.836515 6.338471
v 30.123116 3.836515 6.338471
v 30.572222 3.836515 6.338471
v 30.708187 3.836515 6.338471
v 35.452122 4.525257 6.338471
v 35.296486 3.836515 6.338471
v 35.296486 4.194609 6.338471
v 35.296486 3.836515 6.830013
v 30.123116 4.194609 6.830013
v 30.123116 4.194609 6.338471
v 30.123116 4.525257 6.830013
v 30.123116 4.525257 6.338471
v 30.572222 4.194609 6.830013
v 30.572222 4.525257 6.830013
v 30.572222 4.525257 6.338471
v 30.572222 4.194609 6.338471
v 30.572222 4.194609 6.830013
v 30.572222 4.194609 6.338471
v 30.123116 4.194609 6.830013
v 30.123116 4.194609 6.338471
v 26.643858 3.836516 6.830013
v 26.478867 4.194609 6.830013
v 26.579151 3.836516 6.830013
v 26.643860 3.836515 6.338471
v 26.579155 3.836515 6.338471
v 30.005543 4.615359 6.873113
v 30.005543 4.194609 6.873113
v 30.005543 4.525257 6.830013
v 30.005543 4.194609 6.830013
v 30.005543 4.525257 6.338471
v 30.005543 4.615359 6.295371
v 30.005543 4.194609 6.295371
v 30.005543 4.194609 6.338471
v 26.473597 4.194609 6.873113
v 26.473597 4.194278 6.969349
v 26.473597 3.836516 6.830013
v 26.473600 4.193535 8.156989
v 26.473597 3.836516 6.830013
v 26.473597 4.194278 6.969349
v 26.473600 3.080155 7.879813
v 26.473597 -0.613679 6.830013
v 26.473598 0.914812 7.557660
v 26.473597 -0.613679 7.468235
v 26.473597 1.580530 6.830013
v 26.583895 4.976611 8.375902
v 26.583891 5.344776 7.288066
v 26.583895 5.344776 8.375902
v 26.583891 4.976612 7.159143
v 26.473600 4.193535 8.156989
v 26.473597 4.976611 7.268692
v 26.473600 4.976611 8.292842
v 26.473597 4.194278 6.969349
v 26.473600 5.344776 8.293242
v 26.473597 5.942604 7.646005
v 26.473600 5.941206 8.293610
v 26.473597 5.344776 7.373068
v 26.473600 4.976611 8.292842
v 26.473597 4.976611 7.268692
v 26.583895 4.976611 8.375902
v 26.583891 4.976612 7.159143
v 26.583895 5.344776 8.375902
v 26.473597 5.344776 7.373068
v 26.473600 5.344776 8.293242
v 26.583891 5.344776 7.288066
v 26.473600 5.941206 8.293610
v 26.473597 6.547716 7.816009
v 26.473600 6.546319 8.298310
v 26.473597 5.942604 7.646005
v 26.473600 6.546319 8.298310
v 26.473597 7.177475 7.862489
v 26.473600 7.176078 8.290074
v 26.473597 6.547716 7.816009
v 30.005543 4.615359 6.873113
v 30.005754 4.719309 6.418042
v 30.005754 4.719309 6.750444
v 30.005543 4.615359 6.295371
v 26.093922 4.194609 6.338471
v 30.005543 4.194609 6.295371
v 30.005543 4.194609 6.338471
v 26.081648 4.194609 6.295371
v 30.005543 4.194609 6.295371
v 26.081648 4.194609 6.295371
v 26.473597 4.626070 6.295371
v 30.005543 4.615359 6.295371
v 26.473701 4.719309 6.418042
v 30.005754 4.719309 6.418042
v 30.005543 4.615359 6.295371
v 26.473597 4.626070 6.295371
v 26.473701 4.719309 6.750444
v 30.005754 4.719309 6.750444
v 30.005754 4.719309 6.418042
v 26.473701 4.719309 6.418042
v 30.005754 4.719309 6.750444
v 26.473701 4.719309 6.750444
v 30.005543 4.615359 6.873113
v 26.473597 4.626070 6.873113
v 30.005543 4.615359 6.873113
v 26.473597 4.626070 6.873113
v 26.473597 4.194609 6.873113
v 30.005543 4.194609 6.873113
v 30.005543 4.194609 6.873113
v 26.478867 4.194609 6.830013
v 30.005543 4.194609 6.830013
v 26.473597 4.194609 6.873113
v 30.005545 3.836516 6.830013
v 32.247204 1.580530 6.830013
v 32.090744 1.580530 6.830013
v 30.005545 3.836516 6.830013
v 28.439659 1.580530 6.830013
v 28.604595 1.580530 6.830013
v 30.123116 3.836515 6.830013
v 28.114525 1.580530 6.830013
v 28.209742 1.580530 6.830013
v 26.473597 1.580530 6.830013
v 26.473600 3.080155 7.879813
v 26.473598 1.800067 7.688671
v 26.473597 3.836516 6.830013
v 28.114525 1.580530 6.338471
v 28.209742 1.580530 6.338471
v 28.604595 1.580530 6.338471
v 28.439659 1.580530 6.338471
v 32.090744 1.580530 6.338471
v 32.247204 1.580530 6.338471
v 35.452122 4.525257 6.338471
v 35.296486 1.580530 6.338471
v 35.296486 3.836515 6.338471
v 35.452122 4.525257 6.338471
v 35.452122 4.525257 6.830013
v 26.473597 -0.613679 6.830013
v 28.604595 1.580530 6.830013
v 28.439659 1.580530 6.830013
v 26.473598 1.800067 7.688671
v 26.473598 0.914812 7.557660
v 26.473597 1.580530 6.830013
v 28.209742 0.613679 6.338471
v 32.092846 0.613679 6.338471
v 35.452122 0.613679 6.338471
v 35.296486 1.580530 6.338471
v 26.643860 3.836515 6.338471
v 30.005545 3.836516 6.830013
v 26.643858 3.836516 6.830013
v 30.005545 3.836515 6.338471
v 28.209742 1.580530 6.830013
v 26.643860 3.836515 6.338471
v 26.643858 3.836516 6.830013
v 28.209742 1.580530 6.338471
v 28.209742 1.580530 6.338471
v 28.209742 1.580530 6.830013
v 28.439659 1.580530 6.830013
v 28.439659 1.580530 6.338471
v 30.005545 3.836515 6.338471
v 28.439659 1.580530 6.830013
v 30.005545 3.836516 6.830013
v 28.439659 1.580530 6.338471
v 32.438900 1.580530 6.338471
v 34.444317 3.836515 6.338471
v 35.296486 4.194609 6.283197
v 30.708187 4.194609 6.283197
v 30.708189 4.598927 6.283197
v 35.296486 4.598927 6.283197
v 30.707674 4.719309 6.750444
v 35.299183 4.719309 6.750444
v 35.299183 4.719309 6.418042
v 30.707674 4.719309 6.418042
v 35.296486 4.598927 6.885288
v 30.708189 4.598927 6.885288
v 30.708189 4.194609 6.885288
v 35.296486 4.194609 6.885288
v 34.444309 3.836515 6.830013
v 32.438900 1.580530 6.830013
v 32.598988 1.580530 6.338471
v 34.579899 3.836515 6.338471
v 34.579895 3.836515 6.830013
v 32.598988 1.580530 6.830013
v 32.438900 1.580530 6.830013
v 32.247204 1.580530 6.338471
v 32.247204 1.580530 6.830013
v 32.438900 1.580530 6.338471
v 34.444309 3.836515 6.830013
v 32.438900 1.580530 6.338471
v 32.438900 1.580530 6.830013
v 34.444317 3.836515 6.338471
v 34.444309 3.836515 6.830013
v 30.708189 3.836515 6.830013
v 30.708187 3.836515 6.338471
v 34.444317 3.836515 6.338471
v 32.247204 1.580530 6.338471
v 30.708189 3.836515 6.830013
v 32.247204 1.580530 6.830013
v 30.708187 3.836515 6.338471
v 32.090744 1.580530 6.830013
v 28.604595 1.580530 6.338471
v 28.604595 1.580530 6.830013
v 32.090744 1.580530 6.338471
v 32.090744 1.580530 6.830013
v 30.572222 3.836515 6.830013
v 30.572222 3.836515 6.338471
v 32.090744 1.580530 6.338471
v 30.123116 3.836515 6.830013
v 30.123116 3.836515 6.338471
v 30.572222 3.836515 6.830013
v 30.572222 3.836515 6.338471
v 28.604595 1.580530 6.338471
v 30.123116 3.836515 6.830013
v 28.604595 1.580530 6.830013
v 30.123116 3.836515 6.338471
v 26.473597 1.580530 6.830013
v 26.158911 1.008464 5.823337
v 26.473597 0.613679 5.823337
v 26.158911 1.120126 -1.003082
v 26.158911 0.977106 -1.219575
v 26.158911 1.120126 -1.003082
v 35.063286 1.120126 -1.003082
v 26.473597 1.580530 6.830013
v 26.473597 3.836515 6.338471
v 26.473597 3.836516 6.830013
v 26.473597 1.580530 6.338471
v 28.114525 1.580530 6.830013
v 26.579155 3.836515 6.338471
v 28.114525 1.580530 6.338471
v 26.579151 3.836516 6.830013
v 26.579151 3.836516 6.830013
v 26.473597 3.836515 6.338471
v 26.579155 3.836515 6.338471
v 26.473597 3.836516 6.830013
v 28.114525 1.580530 6.830013
v 26.473597 1.580530 6.338471
v 26.473597 1.580530 6.830013
v 28.114525 1.580530 6.338471
v 35.296486 3.836515 6.338471
v 35.296486 3.836515 6.830013
v 35.296486 4.194609 6.830013
v 34.579895 3.836515 6.830013
v 35.296486 1.580530 6.338471
v 32.598988 1.580530 6.338471
v 35.296486 1.580530 6.830013
v 32.598988 1.580530 6.830013
v 34.579895 3.836515 6.830013
v 32.598988 1.580530 6.338471
v 34.579899 3.836515 6.338471
v 32.598988 1.580530 6.830013
v 35.296486 3.836515 6.830013
v 34.579899 3.836515 6.338471
v 35.296486 3.836515 6.338471
v 34.579895 3.836515 6.830013
v 35.296486 3.836515 6.338471
v 35.296486 1.580530 6.338471
v 35.296486 3.836515 6.830013
v 35.296486 1.580530 6.830013
v 26.003580 1.008464 5.823337
v 26.158911 0.977106 -1.219575
v 26.003580 0.977106 -1.219575
v 26.473597 0.613679 5.823337
v 26.003580 1.008464 5.823337
v 23.722832 0.613679 5.823339
v 26.158911 1.008464 5.823337
v 25.688894 4.194609 6.873113
v 25.688892 0.914812 7.557660
v 25.688894 -0.613679 7.468235
v 26.473598 0.914812 7.557660
v 26.473597 -0.613679 7.468235
v 25.688894 4.194278 6.969349
v 26.473597 4.194278 6.969349
v 26.473597 4.194609 6.873113
v 25.688894 4.194609 6.873113
v 26.473597 7.651507 7.915608
v 25.688894 7.651507 7.915608
v 26.473600 7.650110 8.288426
v 25.688889 7.650110 8.288426
v 26.583891 4.976612 7.159143
v 25.578600 4.976612 7.159143
v 25.578600 5.344776 7.288066
v 26.583891 5.344776 7.288066
v 26.473597 4.194278 6.969349
v 25.688894 4.194278 6.969349
v 25.688894 4.976611 7.268692
v 26.473597 4.976611 7.268692
v 26.473597 5.344776 7.373068
v 25.688894 5.344776 7.373068
v 25.688894 5.942604 7.646005
v 26.473597 5.942604 7.646005
v 25.578600 4.976612 7.159143
v 26.583891 4.976612 7.159143
v 26.473597 4.976611 7.268692
v 25.688894 4.976611 7.268692
v 25.578596 5.344776 8.375902
v 26.583895 5.344776 8.375902
v 26.473600 5.344776 8.293242
v 25.688889 5.344776 8.293242
v 26.473597 5.942604 7.646005
v 25.688894 5.942604 7.646005
v 25.688894 6.547716 7.816009
v 26.473597 6.547716 7.816009
v 25.688894 6.547716 7.816009
v 26.473597 7.177475 7.862489
v 26.473597 6.547716 7.816009
v 25.688894 7.177475 7.862489
v 26.473598 1.800067 7.688671
v 25.688892 1.800067 7.688671
v 25.688892 0.914812 7.557660
v 26.473598 0.914812 7.557660
v 16.710369 -0.613679 -9.394360
v 16.936394 0.977106 -1.219576
v 26.003580 0.977106 -1.219575
v 26.003580 0.977106 -1.344772
v 16.936394 0.977106 -1.344771
v 26.158911 0.977106 -1.219575
v 35.186024 0.977106 -1.219575
v 35.186024 0.977106 -1.344772
v 26.158911 0.977106 -1.344772
v 25.650490 7.539522 8.375900
v 25.650496 7.177600 7.805486
v 25.650490 7.175952 8.375900
v 25.650496 7.541171 7.805483
v 25.650490 7.175952 8.375900
v 26.512001 7.175952 8.375900
v 25.650490 7.539522 8.375900
v 26.512001 7.539522 8.375900
v 26.512001 7.539522 8.375900
v 26.511995 7.177600 7.805486
v 26.511995 7.541171 7.805483
v 26.512001 7.175952 8.375900
v 26.511995 7.177600 7.805486
v 25.650496 7.177600 7.805486
v 25.650496 7.541171 7.805483
v 26.511995 7.541171 7.805483
v 25.688894 7.651507 7.915608
v 26.473597 7.651507 7.915608
v 25.650496 7.541171 7.805483
v 26.511995 7.541171 7.805483
v 25.688889 7.176078 8.290074
v 25.650496 7.177600 7.805486
v 25.688894 7.177475 7.862489
v 25.650490 7.175952 8.375900
v 25.650490 7.539522 8.375900
v 25.688894 7.651507 7.915608
v 25.650496 7.541171 7.805483
v 25.688889 7.650110 8.288426
v 26.473600 7.176078 8.290074
v 25.650490 7.175952 8.375900
v 25.688889 7.176078 8.290074
v 26.512001 7.175952 8.375900
v 25.650490 7.539522 8.375900
v 26.512001 7.539522 8.375900
v 26.473600 7.650110 8.288426
v 25.688889 7.650110 8.288426
v 26.511995 7.177600 7.805486
v 26.512001 7.175952 8.375900
v 26.473600 7.176078 8.290074
v 26.473597 7.177475 7.862489
v 26.512001 7.539522 8.375900
v 26.473597 7.651507 7.915608
v 26.473600 7.650110 8.288426
v 26.511995 7.541171 7.805483
v 25.650496 7.177600 7.805486
v 26.511995 7.177600 7.805486
v 26.473597 7.177475 7.862489
v 25.688894 7.177475 7.862489
v 25.688894 4.194609 6.873113
v 25.683460 4.194609 6.830013
v 25.688894 3.836516 6.830013
v 26.473597 3.836516 6.830013
v 26.478867 4.194609 6.830013
v 26.473597 4.194609 6.873113
v 26.473597 3.836516 6.830013
v 16.710369 0.613679 -7.022399
v 16.710369 0.613679 -8.387684
v 16.710369 0.613679 -8.902818
v 16.710369 -0.613679 -9.394360
v 16.936394 0.977106 -8.387684
v 17.026600 1.120126 -1.561265
v 17.026600 1.120126 -8.387684
v 16.936394 0.977106 -1.344771
v 16.710369 0.613679 -8.902818
v 16.710369 0.613679 -9.394360
v 16.710369 0.613679 -7.022399
v 16.828146 0.613679 -8.387684
v 16.710369 0.613679 -8.902818
v 16.710369 0.613679 -8.387684
v 17.099203 0.613679 -8.902818
v 16.936394 0.977106 -8.387684
v 16.828146 0.613679 -1.561265
v 16.936394 0.977106 -1.344771
v 25.688894 -0.613679 -9.394360
v 22.039375 0.613679 -8.387684
v 23.560001 0.613679 -8.902818
v 20.069643 0.613679 -8.902818
v 16.936394 0.977106 -1.344771
v 26.003580 1.120126 -1.561265
v 17.026600 1.120126 -1.561265
v 26.003580 1.120126 -8.387684
v 17.026600 1.120126 -1.561265
v 26.003580 1.120126 -1.561265
v 17.026600 1.120126 -8.387684
v 17.026600 1.120126 -8.387684
v 26.003580 1.120126 -8.387684
v 16.936394 0.977106 -8.387684
v 16.936394 0.977106 -8.387684
v 26.003580 1.120126 -8.387684
v 22.039375 0.613679 -8.387684
v 16.828146 0.613679 -8.387684
v 19.448889 0.613679 -8.902818
v 26.473597 0.613679 -8.387684
v 23.722832 0.613679 -8.902818
v 22.039375 0.613679 -8.387684
v 26.003580 1.120126 -8.387684
v 26.473597 0.613679 -8.387684
v 24.612549 0.613679 -8.902818
v 23.952749 0.613679 -8.902818
v 25.688894 -0.613679 -9.394360
v 25.688892 0.914812 -10.122005
v 25.688894 -0.613679 -10.032580
v 20.071749 1.580530 -9.394360
v 19.915285 1.580530 -9.394360
v 24.047964 1.580530 -9.394360
v 23.952749 1.580530 -9.394360
v 24.047964 1.580530 -8.902818
v 23.952749 1.580530 -8.902818
v 23.557896 1.580530 -8.902818
v 23.722832 1.580530 -8.902818
v 20.071749 1.580530 -8.902818
v 19.915285 1.580530 -8.902818
v 16.866005 1.580530 -8.902818
v 16.710369 1.580530 -8.902818
v 16.710369 1.580530 -8.902818
v 16.710369 1.580530 -9.394360
v 16.866005 1.580530 -9.394360
v 16.710369 1.580530 -9.394360
v 16.710369 -0.613679 -9.394360
v 25.688894 -0.613679 -9.394360
v 23.557896 1.580530 -9.394360
v 23.722832 1.580530 -9.394360
v 25.688894 -0.613679 -9.394360
v 25.688894 1.580530 -9.394360
v 25.688892 0.914812 -10.122005
v 24.612549 0.613679 -8.902818
v 23.952749 0.613679 -8.902818
v 23.722832 0.613679 -8.902818
v 23.560001 0.613679 -8.902818
v 20.069643 0.613679 -8.902818
v 19.448889 0.613679 -8.902818
v 16.710369 0.613679 -8.902818
v 17.099203 0.613679 -8.902818
v 16.710369 0.613679 -9.394360
v 23.952749 1.580530 -8.902818
v 23.722832 1.580530 -9.394360
v 23.722832 1.580530 -8.902818
v 23.952749 1.580530 -9.394360
v 19.257196 0.613679 -8.902818
v 19.723591 1.580530 -8.902818
v 19.257196 0.613679 -8.902818
v 19.723591 1.580530 -9.394360
v 18.913851 0.613679 -8.902818
v 19.563503 1.580530 -8.902818
v 18.913851 0.613679 -8.902818
v 19.563503 1.580530 -9.394360
v 19.723591 1.580530 -9.394360
v 19.723591 1.580530 -8.902818
v 19.915285 1.580530 -8.902818
v 19.915285 1.580530 -9.394360
v 23.557896 1.580530 -9.394360
v 20.071749 1.580530 -9.394360
v 23.557896 1.580530 -8.902818
v 20.071749 1.580530 -8.902818
v 25.688894 1.580530 -9.394360
v 25.688894 1.580530 -8.902818
v 26.473597 0.613679 -8.902818
v 26.473597 0.613679 -8.902818
v 24.612549 0.977106 -8.387684
v 26.003580 0.985117 -8.387684
v 26.473597 0.613679 -8.387684
v 26.003580 1.120126 -8.387684
v 16.936394 0.977106 -1.344771
v 26.003580 0.977106 -1.344772
v 26.003580 1.120126 -1.561265
v 25.688894 1.580530 -9.394360
v 24.047964 1.580530 -9.394360
v 25.688894 1.580530 -8.902818
v 24.047964 1.580530 -8.902818
v 16.866005 1.580530 -9.394360
v 19.563503 1.580530 -9.394360
v 16.710369 0.613679 -9.394360
v 16.710369 -0.613679 -9.394360
v 19.563503 1.580530 -8.902818
v 16.866005 1.580530 -9.394360
v 16.866005 1.580530 -8.902818
v 19.563503 1.580530 -9.394360
v 26.158911 0.985117 -8.387684
v 26.473598 0.914812 -10.122005
v 26.473597 -0.613679 -10.032580
v 25.688894 -0.613679 -10.032580
v 25.688892 0.914812 -10.122005
v 26.473598 0.914812 -10.122005
v 25.688892 0.914812 -10.122005
v 25.688892 1.580530 -10.256741
v 35.452122 -0.613679 -9.394360
v 35.452122 0.613679 -8.902818
v 35.452122 0.613679 6.338471
v 35.186024 0.977106 -8.387684
v 35.063286 1.120126 -1.561265
v 35.186024 0.977106 -1.344772
v 35.063286 1.120126 -8.387684
v 35.452122 0.613679 -8.902818
v 35.333305 0.613679 -8.387684
v 35.063286 0.613679 -8.902818
v 35.333305 0.613679 -1.285374
v 35.333305 0.613679 -8.387684
v 35.186024 0.977106 -1.344772
v 35.186024 0.977106 -8.387684
v 26.158911 1.120126 -8.387684
v 30.572222 0.977106 -8.387684
v 30.123116 0.977106 -8.387684
v 30.123116 0.613679 -8.387684
v 30.572222 0.613679 -8.387684
v 32.092846 0.613679 -8.902818
v 30.123116 0.613679 -8.387684
v 30.572222 0.613679 -8.387684
v 28.439659 0.613679 -8.902818
v 35.186024 0.977106 -1.344772
v 35.063286 1.120126 -1.561265
v 26.158911 0.977106 -1.344772
v 35.063286 1.120126 -1.561265
v 35.063286 1.120126 -8.387684
v 26.158911 1.120126 -8.387684
v 35.186024 0.977106 -8.387684
v 35.063286 1.120126 -8.387684
v 35.333305 0.613679 -8.387684
v 32.713600 -0.613679 -9.394360
v 26.473597 -0.613679 -9.394360
v 30.123116 0.613679 -8.387684
v 28.439659 0.977106 -8.387686
v 30.123116 0.977106 -8.387684
v 26.473597 0.613679 -8.387684
v 26.158911 1.120126 -8.387684
v 30.123116 0.977106 -8.387684
v 28.439659 0.977106 -8.387686
v 28.209742 0.977106 -8.387684
v 27.549942 0.977106 -8.387684
v 26.473597 -0.613679 -9.394360
v 26.473598 0.914812 -10.122005
v 26.473597 1.580530 -9.394360
v 26.473597 -0.613679 -10.032580
v 25.688894 -0.613679 -10.032580
v 26.473597 -0.613679 -10.032580
v 26.158911 1.120126 -8.387684
v 28.439659 0.977106 -8.387686
v 28.209742 0.977106 -8.387684
v 28.439659 0.977106 -8.387686
v 26.473597 0.613679 -8.387684
v 28.209742 0.977106 -8.387684
v 32.090744 1.580530 -9.394360
v 32.247204 1.580530 -9.394360
v 28.604595 1.580530 -9.394360
v 28.439659 1.580530 -9.394360
v 28.114525 1.580530 -9.394360
v 28.209742 1.580530 -9.394360
v 26.473597 1.580530 -9.394360
v 26.473597 1.580530 -8.902818
v 28.114525 1.580530 -8.902818
v 28.209742 1.580530 -8.902818
v 28.604595 1.580530 -8.902818
v 28.439659 1.580530 -8.902818
v 32.090744 1.580530 -8.902818
v 32.247204 1.580530 -8.902818
v 35.296486 1.580530 -8.902818
v 35.452122 1.580530 -8.902818
v 35.452122 1.580530 -9.394360
v 35.452122 1.580530 -8.902818
v 35.296486 1.580530 -9.394360
v 35.452122 1.580530 -9.394360
v 32.713600 -0.613679 -9.394360
v 26.473597 -0.613679 -9.394360
v 26.473598 1.580530 -10.256741
v 26.473597 1.580530 -9.394360
v 26.473598 0.914812 -10.122005
v 28.439659 0.613679 -8.902818
v 32.092846 0.613679 -8.902818
v 35.452122 0.613679 -8.902818
v 35.063286 0.613679 -8.902818
v 35.452122 0.613679 -8.902818
v 35.452122 -0.613679 -9.394360
v 28.439659 1.580530 -8.902818
v 28.439659 1.580530 -9.394360
v 28.209742 1.580530 -8.902818
v 28.209742 1.580530 -9.394360
v 32.438900 1.580530 -8.902818
v 32.438900 1.580530 -9.394360
v 32.598988 1.580530 -8.902818
v 32.598988 1.580530 -9.394360
v 32.438900 1.580530 -8.902818
v 32.438900 1.580530 -9.394360
v 32.247204 1.580530 -8.902818
v 32.247204 1.580530 -9.394360
v 32.090744 1.580530 -9.394360
v 28.604595 1.580530 -8.902818
v 32.090744 1.580530 -8.902818
v 28.604595 1.580530 -9.394360
v 26.473597 1.580530 -9.394360
v 27.549942 0.977106 -8.387684
v 26.473597 0.613679 -8.387684
v 26.158911 0.985117 -8.387684
v 26.158911 1.120126 -1.561265
v 26.158911 0.977106 -1.344772
v 35.063286 1.120126 -1.561265
v 26.158911 1.120126 -1.561265
v 28.114525 1.580530 -9.394360
v 26.473597 1.580530 -8.902818
v 28.114525 1.580530 -8.902818
v 26.473597 1.580530 -9.394360
v 32.598988 1.580530 -8.902818
v 35.296486 1.580530 -8.902818
v 35.296486 1.580530 -9.394360
v 32.598988 1.580530 -9.394360
v 26.158911 0.977106 -1.219575
v 26.158911 1.120126 5.823337
v 26.158911 1.120126 -1.003082
v 26.003580 1.120126 -1.003082
v 26.003580 1.008464 5.823337
v 26.003580 0.977106 -1.219575
v 26.003580 0.977106 -1.344772
v 26.003580 0.985117 -8.387684
v 26.003580 1.120126 -1.561265
v 26.003580 1.120126 -8.387684
v 26.158911 1.120126 -1.561265
v 26.158911 1.120126 -8.387684
v 26.158911 0.977106 -1.344772
v 26.158911 0.977106 -1.344772
v 26.003580 0.985117 -8.387684
v 26.003580 0.977106 -1.344772
v 16.710369 -0.613679 -9.394360
v 16.710369 0.613679 -7.022399
v 16.710369 0.613679 -8.387684
v 26.158911 0.977106 -1.344772
v 26.158911 1.120126 -8.387684
v 26.158911 0.985117 -8.387684
v 26.003580 0.985117 -8.387684
v 26.158911 0.977106 -1.344772
v 26.158911 0.985117 -8.387684
v 16.828146 0.613679 -8.387684
v 16.828146 0.613679 -1.561265
v 16.936394 0.977106 -8.387684
v 17.026600 1.120126 5.823337
v 26.003580 1.120126 5.823337
v 26.003580 1.008464 5.823337
v 26.003580 1.120126 -1.003082
v 26.003580 1.120126 5.823337
v 26.003580 1.008464 5.823337
v 26.158911 1.008464 5.823337
v 26.158911 0.977106 -1.219575
v 26.158911 1.120126 5.823337
v 26.158911 0.977106 -1.219575
v 26.158911 1.008464 5.823337
v 17.026600 1.120126 -1.003082
v 16.936394 0.977106 5.823337
v 17.026600 1.120126 5.823337
v 30.708187 4.194609 6.283197
v 35.296486 4.194609 6.338471
v 30.708187 4.194609 6.338471
v 35.296486 4.194609 6.283197
v 30.708187 4.194609 6.283197
v 30.708189 4.525257 6.338471
v 30.708189 4.598927 6.283197
v 30.708187 4.194609 6.338471
v 30.708189 4.525257 6.830013
v 30.708189 4.598927 6.885288
v 30.708189 4.194609 6.885288
v 30.708189 4.194609 6.830013
v 35.296486 4.194609 6.885288
v 30.708189 4.194609 6.885288
v 30.708189 4.194609 6.830013
v 35.296486 4.194609 6.830013
v 35.296486 4.194609 6.283197
v 35.296486 4.598927 6.283197
v 35.296486 4.525257 6.338471
v 35.296486 4.194609 6.338471
v 35.296486 4.598927 6.885288
v 35.296486 4.525257 6.830013
v 35.296486 4.194609 6.885288
v 35.296486 4.194609 6.830013
v 30.707674 4.719309 6.418042
v 35.299183 4.719309 6.418042
v 35.296486 4.598927 6.283197
v 30.708189 4.598927 6.283197
v 30.707674 4.719309 6.750444
v 30.707674 4.719309 6.418042
v 35.296486 4.598927 6.885288
v 30.707674 4.719309 6.750444
v 30.708189 4.598927 6.885288
v 35.299183 4.719309 6.750444
v 35.299183 4.719309 6.418042
v 35.299183 4.719309 6.750444
v 21.454302 4.525257 6.338471
v 21.454304 4.194609 6.338471
v 21.454304 4.194609 6.274424
v 21.454302 4.604774 6.274424
v 16.866005 4.194609 6.274424
v 21.454304 4.194609 6.338471
v 16.866005 4.194609 6.338471
v 21.454304 4.194609 6.274424
v 21.454302 4.604774 6.894058
v 21.454302 4.525257 6.830013
v 21.454302 4.194609 6.894058
v 16.866005 4.194609 6.894058
v 16.866005 4.194609 6.830013
v 21.454302 4.194609 6.830013
v 21.454302 4.194609 6.894058
v 21.454302 4.194609 6.830013
v 16.866005 4.525257 6.338471
v 16.866005 4.194609 6.274424
v 16.866005 4.194609 6.338471
v 16.866005 4.604774 6.274424
v 16.866005 4.604774 6.894058
v 16.866005 4.525257 6.830013
v 16.866005 4.194609 6.894058
v 16.866005 4.194609 6.830013
v 16.866005 4.604774 6.894058
v 21.454302 4.604774 6.894058
v 21.454863 4.723394 6.750271
v 16.863079 4.723360 6.750271
v 21.454863 4.723394 6.418211
v 21.454863 4.723394 6.750271
v 21.454863 4.723394 6.418211
v 16.866005 4.604774 6.274424
v 16.863079 4.723360 6.418211
v 21.454302 4.604774 6.274424
v 16.863079 4.723360 6.750271
v 16.863079 4.723360 6.418211
vn -1.0000 -0.0000 -0.0000
vn -0.8458 0.5335 -0.0000
vn -0.0000 1.0000 -0.0000
vn -0.0000 -0.0000 1.0000
vn -0.0000 -0.0000 -1.0000
vn -0.0000 -1.0000 -0.0000
vn -0.9584 0.2855 -0.0000
vn 1.0000 -0.0000 -0.0000
vn -1.0000 -0.0000 -0.0001
vn -0.0000 -0.2416 0.9704
vn -0.0000 -0.1709 0.9853
vn -0.0000 -0.0006 1.0000
vn -0.0000 -0.0078 1.0000
vn -0.0000 0.0131 0.9999
vn -1.0000 -0.0020 -0.0000
vn -0.0010 0.7795 -0.6264
vn -0.0010 0.7794 -0.6265
vn -0.0010 0.7794 0.6265
vn -0.0000 -0.1477 0.9890
vn -0.8215 0.5702 -0.0000
vn 0.8215 0.5702 -0.0000
vn -0.0000 0.2619 -0.9651
vn -0.0237 0.2631 -0.9645
vn -0.0237 0.2631 0.9645
vn -0.0000 0.2619 0.9651
vn 0.7474 0.6644 -0.0000
vn -0.8261 0.5635 -0.0000
vn 0.8296 -0.5584 -0.0000
vn -0.8296 -0.5584 -0.0000
vn -0.0000 0.8344 -0.5512
vn 0.8267 -0.5626 -0.0000
vn -0.7514 -0.6598 -0.0000
vn 0.7589 0.6512 -0.0000
vn 0.9268 0.3756 -0.0000
vn 1.0000 -0.0000 -0.0001
vn 1.0000 -0.0020 -0.0000
vn 0.0012 0.7795 -0.6265
vn 0.0012 0.7794 -0.6265
vn 0.0012 0.7794 0.6265
vn -0.0000 0.2483 -0.9687
vn 0.0233 0.2494 -0.9681
vn 0.0232 0.2494 0.9681
vn -0.0000 0.2483 0.9687
vn -0.7474 0.6644 -0.0000
vn 0.8261 0.5635 -0.0000
vn -0.8267 -0.5626 -0.0000
vn 0.7514 -0.6598 -0.0000
vn -0.0000 1.0000 -0.0045
vn -0.0000 -0.0584 0.9983
vn -0.0000 1.0000 0.0034
vn -0.0000 1.0000 0.0037
vn -0.0000 0.3305 -0.9438
vn -0.0000 0.3574 -0.9340
vn -0.0000 0.4153 -0.9097
vn -0.0000 0.2705 -0.9627
vn -0.0000 0.0736 -0.9973
vn -0.0000 -0.1464 0.9892
vn -0.0000 0.7064 -0.7078
vn -0.0012 -1.0000 -0.0030
vn -0.0011 -1.0000 -0.0031
vn -0.9447 0.3278 0.0009
vn -0.9444 0.3289 0.0012
vn -0.9445 0.3284 0.0011
vn -0.0000 -1.0000 -0.0015
vn -0.0000 0.6204 0.7843
vn 0.0010 -1.0000 -0.0031
vn 0.0012 -1.0000 -0.0030
vn 0.0012 -1.0000 -0.0031
vn 0.0011 -1.0000 -0.0031
vn 0.9446 0.3283 0.0011
vn 0.9445 0.3284 0.0011
vn 0.9447 0.3278 0.0009
vn -0.0000 -1.0000 -0.0022
vn -0.9920 -0.0151 0.1251
vn 0.9925 -0.0146 0.1213
vn -0.0000 0.8344 0.5512
vn -0.0000 -0.0584 -0.9983
vn -0.0000 -0.0002 -1.0000
vn -0.0000 0.0001 -1.0000
vn -0.0000 1.0000 0.0011
vn 0.0798 -0.9968 -0.0000
vn -1.0000 -0.0018 -0.0000
vn -1.0000 -0.0014 -0.0000
vn 0.0788 -0.9969 -0.0000
vn 0.0233 0.2504 -0.9679
vn 0.0233 0.2504 0.9679
vn -0.0000 0.7460 -0.6660
vn 0.1037 0.7409 -0.6635
vn 0.0233 0.2503 -0.9679
vn -0.0000 0.2493 -0.9684
vn -1.0000 -0.0043 -0.0000
vn -0.0000 0.7460 0.6660
vn -0.0000 0.2493 0.9684
vn 0.1037 0.7409 0.6635
vn 0.1038 0.7410 -0.6635
vn 0.1038 0.7409 0.6635
vn 1.0000 -0.0000 0.0001
vn 1.0000 -0.0014 -0.0000
vn -0.0804 -0.9968 -0.0000
vn -0.0794 -0.9968 -0.0000
vn -0.0238 0.2641 -0.9642
vn -0.0238 0.2641 0.9642
vn -0.0238 0.2631 0.9645
vn -0.0000 0.7714 0.6364
vn -0.1026 0.7663 0.6342
vn 1.0000 -0.0047 -0.0000
vn -0.0000 0.7714 -0.6364
vn -0.0238 0.2631 -0.9645
vn -0.1026 0.7663 -0.6342
vn -0.1026 0.7664 0.6341
vn -0.0000 -0.1984 -0.9801
vt 0.812511 0.553055
vt 0.839000 0.542446
vt 0.839000 0.371952
vt 0.801901 0.435819
vt 0.801901 0.587821
vt 0.804988 0.440491
vt 0.172424 0.593519
vt 0.001930 0.593519
vt 0.013048 0.596061
vt 0.172424 0.596061
vt 0.001930 0.601911
vt 0.989996 0.597151
vt 0.982860 0.600510
vt 0.989996 0.600510
vt 0.353438 0.055602
vt 0.353438 0.078784
vt 0.360778 0.078784
vt 0.360778 0.055602
vt 0.338287 0.596878
vt 0.345423 0.596878
vt 0.338287 0.593519
vt 0.182175 0.666995
vt 0.229931 0.608717
vt 0.131015 0.608717
vt 0.794057 0.428445
vt 0.801901 0.433117
vt 0.794057 0.587821
vt 0.013048 0.698838
vt 0.001930 0.666019
vt 0.001930 0.749826
vt 0.229931 0.663456
vt 0.864557 0.602908
vt 0.861471 0.600961
vt 0.864557 0.701402
vt 0.853627 0.598625
vt 0.853627 0.701402
vt 0.345423 0.695903
vt 0.338287 0.698838
vt 0.345423 0.698838
vt 0.338287 0.695903
vt 0.380485 0.078797
vt 0.374073 0.055616
vt 0.374073 0.078797
vt 0.380485 0.055616
vt 0.982860 0.702470
vt 0.989996 0.702470
vt 0.989996 0.699535
vt 0.982860 0.699535
vt 0.982860 0.714700
vt 0.989996 0.714700
vt 0.989996 0.712163
vt 0.982860 0.712163
vt 0.400252 0.058006
vt 0.394707 0.034824
vt 0.394707 0.058006
vt 0.400252 0.034824
vt 0.345423 0.711068
vt 0.338287 0.708531
vt 0.338287 0.711068
vt 0.345423 0.708531
vt 0.013048 0.744863
vt 0.853627 0.747428
vt 0.975131 0.702470
vt 0.975131 0.699535
vt 0.975131 0.712163
vt 0.975131 0.714700
vt 0.353151 0.708531
vt 0.353151 0.711068
vt 0.353151 0.698838
vt 0.353151 0.695903
vt 0.353151 0.596878
vt 0.975131 0.600510
vt 0.415342 0.058006
vt 0.430936 0.058006
vt 0.415342 0.034824
vt 0.430936 0.034824
vt 0.444230 0.034944
vt 0.459824 0.058126
vt 0.459824 0.034944
vt 0.444230 0.058126
vt 0.473118 0.058126
vt 0.494299 0.058126
vt 0.473118 0.034944
vt 0.494299 0.034944
vt 0.975131 0.787253
vt 0.975131 0.788649
vt 0.982860 0.790810
vt 0.345423 0.796037
vt 0.353151 0.785017
vt 0.353151 0.783621
vt 0.635232 0.039758
vt 0.654634 0.039758
vt 0.650479 0.037771
vt 0.635232 0.037771
vt 0.650479 0.015105
vt 0.654634 0.013117
vt 0.635232 0.013117
vt 0.635232 0.015105
vt 0.229931 0.668240
vt 0.589156 0.801038
vt 0.591858 0.797686
vt 0.589156 0.797686
vt 0.591858 0.801038
vt 0.353151 0.787295
vt 0.353151 0.804231
vt 0.248334 0.460865
vt 0.228781 0.460865
vt 0.248334 0.488607
vt 0.228781 0.488607
vt 0.270449 0.460838
vt 0.269375 0.469761
vt 0.272846 0.460846
vt 0.302439 0.460865
vt 0.295533 0.488607
vt 0.287505 0.542561
vt 0.269375 0.580647
vt 0.285277 0.580647
vt 0.269375 0.525973
vt 0.233822 0.668240
vt 0.233822 0.663456
vt 0.075824 0.194372
vt 0.087900 0.158690
vt 0.075824 0.154461
vt 0.087900 0.194372
vt 0.016664 0.020983
vt 0.016664 0.053055
vt 0.028410 0.020983
vt 0.028410 0.053055
vt 0.280305 0.441353
vt 0.305824 0.441353
vt 0.248334 0.441353
vt 0.228781 0.441353
vt 0.285542 0.413404
vt 0.268607 0.413404
vt 0.285542 0.426277
vt 0.268607 0.426277
vt 0.632691 0.260445
vt 0.602846 0.232878
vt 0.590260 0.260445
vt 0.632708 0.232942
vt 0.096404 0.061485
vt 0.067850 0.058773
vt 0.071369 0.061485
vt 0.099922 0.058773
vt 0.033813 0.154447
vt 0.037431 0.190765
vt 0.037431 0.157172
vt 0.033813 0.194358
vt 0.067850 0.093479
vt 0.071369 0.090841
vt 0.063171 0.157172
vt 0.066788 0.154447
vt 0.610685 0.204975
vt 0.632925 0.205039
vt 0.285542 0.400345
vt 0.268607 0.400345
vt 0.612829 0.175936
vt 0.632545 0.176000
vt 0.285542 0.386753
vt 0.268607 0.386753
vt 0.659427 0.018774
vt 0.659427 0.034102
vt 0.061949 0.347331
vt 0.060680 0.462856
vt 0.061949 0.463218
vt 0.060680 0.347331
vt 0.071299 0.347331
vt 0.083684 0.462856
vt 0.083684 0.347331
vt 0.070984 0.474393
vt 0.026171 0.474387
vt 0.026171 0.347325
vt 0.022560 0.474390
vt 0.022560 0.347319
vt 0.012776 0.474390
vt 0.012776 0.347319
vt 0.009165 0.347325
vt 0.009165 0.474387
vt 0.094166 0.347331
vt 0.094166 0.451295
vt 0.106551 0.347331
vt 0.106866 0.474393
vt 0.572074 0.274917
vt 0.570621 0.393756
vt 0.572074 0.393939
vt 0.570621 0.274917
vt 0.926442 0.669697
vt 0.926442 0.666320
vt 0.926442 0.748495
vt 0.926442 0.744936
vt 0.926442 0.755512
vt 0.926442 0.753457
vt 0.290770 0.520503
vt 0.248334 0.520503
vt 0.228782 0.520503
vt 0.401840 0.804231
vt 0.401840 0.787295
vt 0.401840 0.751881
vt 0.401840 0.749826
vt 0.401840 0.741304
vt 0.401840 0.744863
vt 0.401840 0.666065
vt 0.401840 0.662688
vt 0.401840 0.593519
vt 0.401840 0.596878
vt 0.923421 0.553055
vt 0.859867 0.542446
vt 0.859867 0.553055
vt 0.923421 0.542446
vt 0.926442 0.597151
vt 0.926442 0.600510
vt 0.879086 0.597151
vt 0.879086 0.790927
vt 0.422707 0.787295
vt 0.422707 0.749826
vt 0.422707 0.666019
vt 0.422707 0.593519
vt 0.422707 0.601911
vt 0.324801 0.121078
vt 0.308788 0.230591
vt 0.324801 0.230591
vt 0.308788 0.121078
vt 0.970011 0.102906
vt 0.970011 0.157080
vt 0.987017 0.157080
vt 0.987017 0.102906
vt 0.970011 0.094952
vt 0.987017 0.094952
vt 0.987017 0.040779
vt 0.970011 0.040779
vt 0.401840 0.658551
vt 0.353151 0.615269
vt 0.627772 0.427948
vt 0.614410 0.577420
vt 0.627772 0.577420
vt 0.614410 0.427948
vt 0.527873 0.577420
vt 0.538690 0.427835
vt 0.527873 0.427835
vt 0.538690 0.577420
vt 0.637215 0.427948
vt 0.637215 0.577420
vt 0.650578 0.427948
vt 0.650578 0.577420
vt 0.975131 0.618901
vt 0.926442 0.662183
vt 0.401840 0.655096
vt 0.353151 0.612343
vt 0.975131 0.615975
vt 0.926442 0.658728
vt 0.358305 0.342076
vt 0.374869 0.342076
vt 0.358305 0.335616
vt 0.374869 0.335616
vt 0.358305 0.268037
vt 0.374869 0.268036
vt 0.384845 0.268036
vt 0.384845 0.393939
vt 0.401409 0.268037
vt 0.401409 0.393939
vt 0.374869 0.393939
vt 0.358305 0.393939
vt 0.508682 0.123675
vt 0.508682 0.237242
vt 0.524694 0.237242
vt 0.524694 0.123675
vt 0.483695 0.117024
vt 0.483695 0.166492
vt 0.499708 0.117024
vt 0.499708 0.166492
vt 0.499708 0.181122
vt 0.483695 0.181122
vt 0.483695 0.230591
vt 0.499708 0.230591
vt 0.926442 0.790927
vt 0.975131 0.790927
vt 0.001930 0.787295
vt 0.862147 0.796651
vt 0.864557 0.796651
vt 0.589156 0.601995
vt 0.584483 0.797686
vt 0.257127 0.469761
vt 0.257127 0.525973
vt 0.239780 0.390862
vt 0.229172 0.423999
vt 0.239780 0.423999
vt 0.229172 0.390862
vt 0.229172 0.426277
vt 0.239780 0.426277
vt 0.261528 0.089355
vt 0.261528 0.154224
vt 0.280959 0.154224
vt 0.280959 0.089355
vt 0.584483 0.603942
vt 0.437154 0.702436
vt 0.801268 0.151749
vt 0.784263 0.058426
vt 0.784263 0.151749
vt 0.801268 0.058426
vt 0.774732 0.083218
vt 0.757727 0.151749
vt 0.774732 0.151749
vt 0.757727 0.083218
vt 0.774732 0.058427
vt 0.757727 0.058427
vt 0.187291 0.334505
vt 0.173043 0.269111
vt 0.173043 0.334505
vt 0.187291 0.269111
vt 0.941969 0.571889
vt 0.968396 0.582652
vt 0.970436 0.232499
vt 0.785025 0.281115
vt 0.788112 0.428445
vt 0.788112 0.281115
vt 0.785025 0.433117
vt 0.921041 0.582376
vt 0.229931 0.722980
vt 0.131015 0.722980
vt 0.013048 0.995444
vt 0.001930 0.998008
vt 0.166470 0.995444
vt 0.879338 0.994034
vt 0.926693 0.994034
vt 0.926693 0.990675
vt 0.990247 0.994034
vt 0.990247 0.990675
vt 0.983111 0.990675
vt 0.517600 0.034944
vt 0.510260 0.058126
vt 0.517600 0.058126
vt 0.510260 0.034944
vt 0.338287 0.994649
vt 0.338287 0.998008
vt 0.345423 0.994649
vt 0.777182 0.434537
vt 0.785025 0.435819
vt 0.777182 0.281115
vt 0.013048 0.804231
vt 0.001930 0.841701
vt 0.001930 0.925507
vt 0.589156 0.995863
vt 0.584483 0.993215
vt 0.437154 0.801038
vt 0.437154 0.993215
vt 0.864557 0.992180
vt 0.864557 0.800004
vt 0.861471 0.994829
vt 0.853627 0.806795
vt 0.853627 0.998008
vt 0.345423 0.892689
vt 0.338287 0.892689
vt 0.345423 0.895623
vt 0.338287 0.895623
vt 0.537307 0.058126
vt 0.537307 0.034944
vt 0.530895 0.058126
vt 0.530895 0.034944
vt 0.983111 0.888714
vt 0.990247 0.891649
vt 0.990247 0.888714
vt 0.983111 0.891649
vt 0.990247 0.876484
vt 0.983111 0.876484
vt 0.990247 0.879022
vt 0.983111 0.879022
vt 0.557074 0.058126
vt 0.557074 0.034944
vt 0.551530 0.058126
vt 0.551530 0.034944
vt 0.345423 0.880459
vt 0.338287 0.882996
vt 0.345423 0.882996
vt 0.338287 0.880459
vt 0.975383 0.888714
vt 0.975383 0.891649
vt 0.975383 0.879022
vt 0.975383 0.876484
vt 0.353151 0.880459
vt 0.353151 0.882996
vt 0.353151 0.892689
vt 0.353151 0.895623
vt 0.353151 0.994649
vt 0.975383 0.990675
vt 0.728405 0.035221
vt 0.728405 0.052226
vt 0.739844 0.035221
vt 0.739844 0.052226
vt 0.749596 0.052226
vt 0.761036 0.052226
vt 0.761036 0.035221
vt 0.749596 0.035221
vt 0.786325 0.052226
vt 0.786325 0.035221
vt 0.770788 0.052226
vt 0.770788 0.035221
vt 0.975383 0.803932
vt 0.983111 0.800371
vt 0.975383 0.802535
vt 0.353151 0.807906
vt 0.353151 0.806509
vt 0.694984 0.013117
vt 0.675583 0.013117
vt 0.690830 0.015105
vt 0.675583 0.015105
vt 0.690830 0.037771
vt 0.694984 0.039758
vt 0.675583 0.039758
vt 0.675583 0.037771
vt 0.714521 0.292533
vt 0.712056 0.292542
vt 0.715626 0.301708
vt 0.681627 0.292561
vt 0.688729 0.321087
vt 0.715626 0.415727
vt 0.696983 0.376565
vt 0.699274 0.415727
vt 0.715626 0.359509
vt 0.012701 0.154447
vt 0.024778 0.190130
vt 0.024778 0.154447
vt 0.012701 0.194358
vt 0.704386 0.272498
vt 0.678146 0.272498
vt 0.546154 0.192077
vt 0.575999 0.164510
vt 0.546137 0.164574
vt 0.588585 0.192077
vt 0.063170 0.190765
vt 0.066788 0.194358
vt 0.099923 0.093479
vt 0.096404 0.090841
vt 0.568160 0.136607
vt 0.545921 0.136672
vt 0.566017 0.107568
vt 0.546300 0.107632
vt 0.699777 0.034102
vt 0.699777 0.018774
vt 0.060680 0.578358
vt 0.061949 0.578358
vt 0.083684 0.578358
vt 0.071299 0.578358
vt 0.022560 0.578358
vt 0.026171 0.578352
vt 0.012776 0.578358
vt 0.009165 0.578352
vt 0.106551 0.578358
vt 0.094166 0.474393
vt 0.094166 0.578358
vt 0.583869 0.393939
vt 0.582417 0.275094
vt 0.582417 0.393939
vt 0.583869 0.274917
vt 0.926693 0.924864
vt 0.926693 0.921488
vt 0.926693 0.842689
vt 0.926693 0.846249
vt 0.926693 0.835672
vt 0.926693 0.837727
vt 0.693626 0.353884
vt 0.401840 0.839646
vt 0.401840 0.841701
vt 0.401840 0.850223
vt 0.401840 0.846663
vt 0.401840 0.925462
vt 0.401840 0.928839
vt 0.401840 0.994649
vt 0.857550 0.571397
vt 0.857488 0.582006
vt 0.879338 0.800257
vt 0.422707 0.841701
vt 0.422707 0.925507
vt 0.422707 0.998008
vt 0.943476 0.035448
vt 0.960481 0.151749
vt 0.960481 0.035448
vt 0.943476 0.151749
vt 0.916941 0.089621
vt 0.933946 0.035448
vt 0.916941 0.035448
vt 0.933946 0.089621
vt 0.916941 0.097576
vt 0.933946 0.097576
vt 0.933946 0.151749
vt 0.916941 0.151749
vt 0.401840 0.932976
vt 0.353151 0.976257
vt 0.673193 0.577420
vt 0.673193 0.427948
vt 0.660021 0.427948
vt 0.660021 0.577420
vt 0.558939 0.427844
vt 0.558939 0.577420
vt 0.569768 0.577420
vt 0.569768 0.427844
vt 0.695998 0.577420
vt 0.695998 0.427948
vt 0.682826 0.427948
vt 0.682826 0.577420
vt 0.975383 0.972283
vt 0.926693 0.929002
vt 0.401840 0.936431
vt 0.353151 0.979183
vt 0.975383 0.975209
vt 0.926693 0.932457
vt 0.411384 0.326359
vt 0.427949 0.319899
vt 0.411384 0.319899
vt 0.427949 0.326359
vt 0.411384 0.393938
vt 0.427949 0.393939
vt 0.454488 0.393938
vt 0.454488 0.268036
vt 0.437924 0.268036
vt 0.437924 0.393939
vt 0.411384 0.268036
vt 0.427949 0.268036
vt 0.458708 0.230591
vt 0.474721 0.117024
vt 0.458708 0.117024
vt 0.474721 0.230591
vt 0.449735 0.230591
vt 0.449735 0.181122
vt 0.433722 0.181122
vt 0.433722 0.230591
vt 0.449735 0.166492
vt 0.433722 0.166492
vt 0.433722 0.117023
vt 0.449735 0.117023
vt 0.926693 0.800257
vt 0.862147 0.800004
vt 0.584483 0.801038
vt 0.728219 0.301708
vt 0.728219 0.359509
vt 0.250638 0.154224
vt 0.231206 0.093528
vt 0.231206 0.154224
vt 0.250638 0.093527
vt 0.231206 0.089355
vt 0.250638 0.089355
vt 0.200884 0.154224
vt 0.220316 0.089355
vt 0.200884 0.089355
vt 0.220316 0.154224
vt 0.748197 0.151749
vt 0.748197 0.058426
vt 0.731192 0.151749
vt 0.731192 0.058426
vt 0.298456 0.313826
vt 0.284208 0.256406
vt 0.284208 0.313826
vt 0.298456 0.256406
vt 0.298456 0.334598
vt 0.284208 0.334598
vt 0.150809 0.269103
vt 0.150809 0.334497
vt 0.165058 0.269103
vt 0.165058 0.334497
vt 0.437154 0.797686
vt 0.228782 0.542561
vt 0.228782 0.580647
vt 0.248334 0.542561
vt 0.248334 0.580647
vt 0.132629 0.108930
vt 0.132629 0.134669
vt 0.135786 0.134669
vt 0.135786 0.108930
vt 0.120965 0.047717
vt 0.120965 0.022682
vt 0.109070 0.047717
vt 0.109070 0.022682
vt 0.051023 0.053055
vt 0.051023 0.020983
vt 0.039277 0.020983
vt 0.039277 0.053055
vt 0.172642 0.134669
vt 0.172642 0.108930
vt 0.146981 0.108930
vt 0.146981 0.134669
vt 0.709651 0.048022
vt 0.673467 0.048022
vt 0.673467 0.075589
vt 0.709651 0.075589
vt 0.673467 0.103492
vt 0.709651 0.103492
vt 0.709651 0.132531
vt 0.673467 0.132531
vt 0.812511 0.202897
vt 0.591858 0.601995
vt 0.591858 0.995863
vt 0.617870 0.167672
vt 0.601181 0.141369
vt 0.601105 0.167672
vt 0.617946 0.141369
vt 0.134197 0.021457
vt 0.134197 0.048942
vt 0.145796 0.021457
vt 0.145796 0.048942
vt 0.812975 0.165959
vt 0.796286 0.192262
vt 0.813051 0.192262
vt 0.796210 0.165959
vt 0.168131 0.048942
vt 0.168131 0.021457
vt 0.156531 0.021457
vt 0.156531 0.048942
vt 0.124478 0.021457
vt 0.124478 0.048942
vt 0.194326 0.022682
vt 0.178865 0.021457
vt 0.180684 0.022682
vt 0.197064 0.021457
vt 0.623034 0.146447
vt 0.622970 0.163638
vt 0.194326 0.047717
vt 0.197064 0.048942
vt 0.106280 0.021457
vt 0.106280 0.048942
vt 0.178865 0.048942
vt 0.180684 0.047717
vt 0.818139 0.187183
vt 0.818074 0.169992
vt 0.269375 0.460838
vt 0.975383 0.800257
vt 0.715626 0.292533
vt 0.839000 0.254089
vt 0.839000 0.224623
vt 0.839000 0.213505
vt 0.801901 0.281115
vt 0.804988 0.428445
vt 0.804988 0.281115
vt 0.839000 0.202897
vt 0.290288 0.593519
vt 0.319754 0.596061
vt 0.330872 0.593519
vt 0.319754 0.593519
vt 0.330872 0.601911
vt 0.131015 0.663456
vt 0.319754 0.708531
vt 0.330872 0.741349
vt 0.330872 0.666019
vt 0.596530 0.797686
vt 0.596530 0.603942
vt 0.743859 0.797686
vt 0.743859 0.603942
vt 0.743431 0.394077
vt 0.743431 0.587821
vt 0.746517 0.392131
vt 0.754361 0.502265
vt 0.754361 0.389794
vt 0.330872 0.652622
vt 0.319754 0.804231
vt 0.330872 0.744863
vt 0.348832 0.244512
vt 0.331766 0.378100
vt 0.348832 0.393939
vt 0.330872 0.764066
vt 0.330872 0.749826
vt 0.053139 0.337053
vt 0.036292 0.301664
vt 0.038362 0.337053
vt 0.251720 0.818440
vt 0.251720 0.822678
vt 0.311156 0.731625
vt 0.311156 0.974836
vt 0.251720 0.917111
vt 0.251720 0.921579
vt 0.251720 0.927807
vt 0.251720 0.930386
vt 0.053139 0.286250
vt 0.762975 0.764066
vt 0.783842 0.751881
vt 0.762975 0.749826
vt 0.783842 0.749826
vt 0.783842 0.744863
vt 0.762975 0.744863
vt 0.762975 0.741349
vt 0.783842 0.741304
vt 0.762975 0.666019
vt 0.783842 0.666065
vt 0.783842 0.662688
vt 0.762975 0.652622
vt 0.783842 0.596878
vt 0.762975 0.593519
vt 0.762975 0.601911
vt 0.783842 0.593519
vt 0.859867 0.213505
vt 0.859867 0.202897
vt 0.277910 0.731625
vt 0.251720 0.731625
vt 0.251720 0.735841
vt 0.863869 0.097576
vt 0.880875 0.089622
vt 0.863869 0.089622
vt 0.880875 0.097576
vt 0.330872 0.648485
vt 0.783842 0.658551
vt 0.762975 0.648485
vt 0.251720 0.813247
vt 0.330872 0.641075
vt 0.783842 0.655096
vt 0.762975 0.641075
vt 0.251720 0.808911
vt 0.481028 0.335616
vt 0.464463 0.335616
vt 0.464463 0.342076
vt 0.481028 0.342076
vt 0.424748 0.230591
vt 0.424748 0.117024
vt 0.408735 0.230591
vt 0.408735 0.117024
vt 0.251720 0.974836
vt 0.783842 0.787295
vt 0.762975 0.804231
vt 0.330872 0.804231
vt 0.763393 0.356443
vt 0.763220 0.386465
vt 0.771237 0.396609
vt 0.760306 0.386465
vt 0.163377 0.194372
vt 0.163377 0.140548
vt 0.147253 0.194372
vt 0.147253 0.140548
vt 0.261975 0.334598
vt 0.276223 0.256406
vt 0.261975 0.256406
vt 0.276223 0.334598
vt 0.763220 0.389817
vt 0.090115 0.243010
vt 0.090115 0.207621
vt 0.071947 0.207621
vt 0.071947 0.243010
vt 0.943886 0.242953
vt 0.785025 0.587821
vt 0.788112 0.440492
vt 0.788112 0.587821
vt 0.330872 0.998008
vt 0.319754 0.995444
vt 0.330872 0.989616
vt 0.777182 0.587821
vt 0.760306 0.389817
vt 0.763393 0.485066
vt 0.763393 0.475373
vt 0.771237 0.475373
vt 0.771237 0.485066
vt 0.330872 0.925507
vt 0.319754 0.882996
vt 0.319754 0.892689
vt 0.330872 0.846663
vt 0.596530 0.993215
vt 0.743859 0.993215
vt 0.743859 0.801038
vt 0.763393 0.584642
vt 0.760306 0.581994
vt 0.771237 0.587821
vt 0.131015 0.706284
vt 0.131015 0.668240
vt 0.763393 0.439041
vt 0.763393 0.434079
vt 0.763393 0.419839
vt 0.109666 0.337053
vt 0.126513 0.301664
vt 0.109666 0.286250
vt 0.124442 0.337053
vt 0.127124 0.663456
vt 0.127124 0.668240
vt 0.098948 0.890821
vt 0.160089 0.903817
vt 0.098948 0.886461
vt 0.160089 0.729940
vt 0.098948 0.789320
vt 0.098948 0.784724
vt 0.098948 0.778318
vt 0.098948 0.775664
vt 0.129632 0.277662
vt 0.783842 0.804231
vt 0.762975 0.846663
vt 0.783842 0.841701
vt 0.783842 0.839646
vt 0.783842 0.846663
vt 0.783842 0.850223
vt 0.762975 0.925507
vt 0.783842 0.925462
vt 0.783842 0.928839
vt 0.783842 0.994649
vt 0.762975 0.998008
vt 0.783842 0.998008
vt 0.762975 0.989616
vt 0.923081 0.232223
vt 0.923019 0.242832
vt 0.160089 0.980125
vt 0.098948 0.975788
vt 0.098948 0.980125
vt 0.810798 0.097576
vt 0.827804 0.097576
vt 0.810798 0.089622
vt 0.827804 0.089622
vt 0.783842 0.932976
vt 0.098948 0.896162
vt 0.783842 0.936431
vt 0.098948 0.900623
vt 0.517542 0.326359
vt 0.534107 0.326359
vt 0.517542 0.319899
vt 0.534107 0.319899
vt 0.374774 0.230591
vt 0.358762 0.117024
vt 0.358762 0.230591
vt 0.374774 0.117024
vt 0.098948 0.729940
vt 0.596530 0.801038
vt 0.113059 0.194372
vt 0.096936 0.140548
vt 0.096936 0.194372
vt 0.113059 0.140548
vt 0.217509 0.256406
vt 0.217509 0.334598
vt 0.231757 0.334598
vt 0.231757 0.256406
vt 0.174015 0.371047
vt 0.178225 0.578358
vt 0.178225 0.377419
vt 0.191104 0.571985
vt 0.187817 0.371047
vt 0.186894 0.578358
vt 0.199773 0.371047
vt 0.200009 0.578358
vt 0.203983 0.377419
vt 0.203983 0.578358
vt 0.216861 0.571985
vt 0.216861 0.371047
vt 0.212652 0.578358
vt 0.212887 0.371047
vt 0.794057 0.281115
vt 0.437154 0.603942
vt 0.191104 0.371047
vt 0.174938 0.578358
vt 0.804988 0.587821
vt 0.426490 0.417497
vt 0.428415 0.577264
vt 0.428415 0.417497
vt 0.426490 0.577264
vt 0.283586 0.019597
vt 0.297057 0.021849
vt 0.300058 0.019597
vt 0.283586 0.021849
vt 0.297057 0.041874
vt 0.300058 0.044126
vt 0.283586 0.044126
vt 0.283586 0.041874
vt 0.440603 0.577264
vt 0.440603 0.417497
vt 0.438678 0.417497
vt 0.438678 0.577264
vt 0.319236 0.044126
vt 0.335708 0.044126
vt 0.332706 0.041874
vt 0.319236 0.041874
vt 0.335708 0.019597
vt 0.332706 0.021849
vt 0.319236 0.019597
vt 0.319236 0.021849
vt 0.574160 0.577332
vt 0.574160 0.427860
vt 0.304962 0.038632
vt 0.304962 0.025090
vt 0.554546 0.577332
vt 0.554546 0.427860
vt 0.340612 0.038632
vt 0.340612 0.025090
vt 0.224133 0.044367
vt 0.209430 0.044367
vt 0.209430 0.047215
vt 0.227669 0.047215
vt 0.505712 0.417497
vt 0.507942 0.577264
vt 0.507942 0.417497
vt 0.505712 0.577264
vt 0.227669 0.019661
vt 0.224133 0.022509
vt 0.878744 0.529998
vt 0.878744 0.253227
vt 0.874880 0.253227
vt 0.874880 0.529998
vt 0.209430 0.019661
vt 0.209430 0.022509
vt 0.263046 0.022509
vt 0.248343 0.019661
vt 0.248343 0.022509
vt 0.266582 0.019661
vt 0.266582 0.047215
vt 0.263046 0.044367
vt 0.248343 0.047215
vt 0.248343 0.044367
vt 0.523189 0.427930
vt 0.523189 0.577402
vt 0.232944 0.040821
vt 0.232944 0.026055
vt 0.543374 0.427930
vt 0.543374 0.577402
vt 0.271855 0.040821
vt 0.271855 0.026055
vt 0.000000 0.000000
s 0
f 1/1/1 2/2/1 3/3/1
f 4/4/2 5/5/2 6/6/2
f 7/7/3 8/8/3 9/9/3
f 9/9/3 10/10/3 7/7/3
f 11/11/3 9/9/3 8/8/3
f 12/12/4 13/13/4 14/14/4
f 15/15/3 16/16/3 17/17/3
f 17/17/3 18/18/3 15/15/3
f 19/19/5 20/20/5 21/21/5
f 22/22/6 23/23/6 24/24/6
f 25/25/7 26/4/7 27/26/7
f 28/4/7 29/27/7 30/5/7
f 31/25/7 29/27/7 28/4/7
f 32/28/3 33/29/3 34/30/3
f 23/23/6 22/22/6 35/31/6
f 36/32/4 37/33/4 38/34/4
f 39/35/4 40/36/4 41/33/4
f 42/34/4 41/33/4 40/36/4
f 9/9/3 33/29/3 32/28/3
f 43/37/5 44/38/5 45/39/5
f 44/38/5 43/37/5 46/40/5
f 47/41/3 48/42/3 49/43/3
f 48/42/3 47/41/3 50/44/3
f 51/45/4 52/46/4 53/47/4
f 53/47/4 54/48/4 51/45/4
f 55/49/4 56/50/4 57/51/4
f 57/51/4 58/52/4 55/49/4
f 59/53/3 60/54/3 61/55/3
f 60/54/3 59/53/3 62/56/3
f 63/57/5 64/58/5 65/59/5
f 64/58/5 63/57/5 66/60/5
f 32/28/3 34/30/3 67/61/3
f 68/34/4 69/36/4 70/62/4
f 71/63/4 51/45/4 54/48/4
f 54/48/4 72/64/4 71/63/4
f 51/45/4 71/63/4 73/52/4
f 73/52/4 71/63/4 74/65/4
f 73/52/4 75/66/4 76/49/4
f 75/66/4 73/52/4 74/65/4
f 77/67/5 78/60/5 79/68/5
f 79/68/5 78/60/5 80/57/5
f 77/67/5 81/69/5 45/39/5
f 77/67/5 45/39/5 78/60/5
f 45/39/5 81/69/5 82/70/5
f 82/70/5 43/37/5 45/39/5
f 21/21/5 20/20/5 83/71/5
f 12/12/4 84/72/4 13/13/4
f 85/73/1 86/74/1 87/75/1
f 86/74/1 88/76/1 87/75/1
f 89/77/8 90/78/8 91/79/8
f 90/78/8 89/77/8 92/80/8
f 93/81/3 94/82/3 95/83/3
f 94/82/3 96/84/3 95/83/3
f 97/85/4 98/86/4 99/87/4
f 100/88/5 101/89/5 102/90/5
f 103/91/9 104/92/9 105/93/9
f 103/91/1 105/93/1 106/94/1
f 107/92/1 108/95/1 109/93/1
f 107/92/1 110/96/1 108/95/1
f 111/97/1 112/95/1 113/96/1
f 112/95/1 111/97/1 114/98/1
f 35/31/6 22/22/6 115/99/6
f 116/100/3 117/101/3 118/102/3
f 117/101/3 116/100/3 119/103/3
f 120/104/5 100/88/5 121/105/5
f 122/106/10 123/107/10 124/108/10
f 123/107/10 125/109/10 124/108/10
f 126/110/1 127/111/1 128/112/1
f 129/111/1 130/113/1 131/112/1
f 130/113/1 129/111/1 132/114/1
f 133/115/1 134/116/1 135/117/1
f 134/116/1 133/115/1 136/118/1
f 137/119/6 138/120/6 115/99/6
f 138/120/6 35/31/6 115/99/6
f 139/121/1 140/122/1 141/123/1
f 140/122/1 139/121/1 142/124/1
f 143/125/4 144/126/4 145/127/4
f 146/128/4 145/127/4 144/126/4
f 147/113/1 148/129/1 149/112/1
f 148/129/1 147/113/1 150/130/1
f 151/131/11 152/132/11 153/106/11
f 152/132/11 154/107/11 153/106/11
f 155/133/12 156/134/12 157/135/12
f 156/134/12 158/136/12 157/135/12
f 159/137/1 160/138/1 161/139/1
f 160/138/1 159/137/1 162/140/1
f 163/141/3 164/142/3 165/143/3
f 166/144/3 164/142/3 163/141/3
f 167/145/6 168/146/6 169/147/6
f 167/145/6 170/148/6 168/146/6
f 171/149/3 172/143/3 173/142/3
f 172/143/3 171/149/3 174/150/3
f 175/151/6 176/145/6 177/147/6
f 178/152/6 176/145/6 175/151/6
f 179/140/1 180/153/1 181/138/1
f 180/153/1 179/140/1 182/154/1
f 183/155/13 184/156/13 185/133/13
f 184/156/13 186/134/13 185/133/13
f 187/154/1 188/157/1 189/153/1
f 188/157/1 187/154/1 190/158/1
f 191/159/14 192/160/14 193/155/14
f 192/160/14 194/156/14 193/155/14
f 195/92/15 196/161/15 197/96/15
f 196/161/15 195/92/15 198/162/15
f 80/57/5 100/88/5 102/90/5
f 102/90/5 79/68/5 80/57/5
f 199/163/6 200/164/6 201/165/6
f 200/164/6 199/163/6 202/166/6
f 203/167/5 204/168/5 205/169/5
f 204/168/5 203/167/5 206/170/5
s 1
f 207/171/16 208/172/17 209/173/16
f 210/174/17 209/173/16 208/172/17
s 0
f 211/175/3 212/174/3 213/176/3
f 212/174/3 211/175/3 214/173/3
s 1
f 215/177/18 216/178/18 217/175/18
f 215/177/18 217/175/18 218/176/18
s 0
f 219/179/4 220/180/4 221/181/4
f 222/182/4 221/181/4 220/180/4
f 223/183/6 224/184/6 225/185/6
f 224/184/6 223/183/6 226/186/6
f 76/49/4 97/85/4 99/87/4
f 97/85/4 76/49/4 75/66/4
f 227/187/4 71/63/4 72/64/4
f 72/64/4 228/188/4 227/187/4
f 229/189/4 230/66/4 231/190/4
f 232/65/4 231/190/4 230/66/4
f 97/85/4 233/191/4 98/86/4
f 233/191/4 97/85/4 234/192/4
f 235/114/1 236/111/1 237/118/1
f 235/114/1 237/118/1 238/193/1
f 239/108/19 240/109/19 241/194/19
f 240/109/19 242/195/19 241/194/19
f 121/105/5 243/196/5 244/197/5
f 244/197/5 120/104/5 121/105/5
f 102/90/5 245/198/5 246/199/5
f 245/198/5 102/90/5 101/89/5
f 247/200/5 79/68/5 248/201/5
f 79/68/5 247/200/5 77/67/5
f 82/70/5 249/202/5 250/203/5
f 249/202/5 82/70/5 81/69/5
f 251/204/5 252/71/5 253/205/5
f 251/204/5 254/21/5 252/71/5
f 255/206/1 256/207/1 257/208/1
f 256/207/1 255/206/1 258/209/1
f 12/12/4 259/210/4 84/72/4
f 84/72/4 259/210/4 260/211/4
f 228/188/4 261/212/4 227/187/4
f 262/213/4 227/187/4 261/212/4
f 227/187/4 262/213/4 263/190/4
f 262/213/4 264/189/4 263/190/4
f 262/213/4 234/192/4 264/189/4
f 262/213/4 233/191/4 234/192/4
f 265/193/1 266/118/1 267/115/1
f 268/214/5 244/197/5 243/196/5
f 269/215/5 246/199/5 245/198/5
f 269/215/5 248/201/5 246/199/5
f 247/200/5 248/201/5 269/215/5
f 270/216/5 247/200/5 269/215/5
f 247/200/5 270/216/5 249/202/5
f 270/216/5 250/203/5 249/202/5
f 271/217/5 272/205/5 273/218/5
f 272/205/5 271/217/5 274/204/5
f 1/1/1 257/208/1 2/2/1
f 2/2/1 257/208/1 256/207/1
f 261/212/4 260/211/4 259/210/4
f 275/219/6 276/220/6 277/221/6
f 276/220/6 275/219/6 278/222/6
f 279/223/20 280/224/20 281/225/20
f 279/223/20 281/225/20 282/226/20
f 283/226/3 284/227/3 285/223/3
f 284/227/3 283/226/3 286/228/3
f 287/227/21 288/229/21 289/230/21
f 288/229/21 287/227/21 290/228/21
f 270/216/5 291/231/5 250/203/5
f 20/20/5 43/37/5 292/232/5
f 82/70/5 292/232/5 43/37/5
s 1
f 293/233/5 294/234/22 295/235/5
f 294/234/22 293/233/5 296/236/23
s 0
f 297/237/3 298/238/3 299/239/3
f 298/238/3 297/237/3 300/240/3
s 1
f 301/241/4 302/242/4 303/243/24
f 304/244/25 303/243/24 302/242/4
s 0
f 54/48/4 13/13/4 305/245/4
f 54/48/4 305/245/4 72/64/4
f 306/246/4 261/212/4 228/188/4
f 270/216/5 307/247/5 291/231/5
f 292/232/5 291/231/5 307/247/5
f 307/247/5 308/248/5 292/232/5
f 308/248/5 20/20/5 292/232/5
f 13/13/4 309/249/4 305/245/4
f 310/250/4 305/245/4 309/249/4
f 305/245/4 310/250/4 306/246/4
f 310/250/4 261/212/4 306/246/4
f 311/251/3 312/252/3 313/253/3
f 313/253/3 312/252/3 314/254/3
f 315/254/26 316/255/26 317/253/26
f 316/255/26 315/254/26 318/256/26
f 319/257/6 320/258/6 321/259/6
f 322/260/6 321/259/6 320/258/6
f 323/261/27 324/252/27 325/262/27
f 326/251/27 325/262/27 324/252/27
f 327/263/3 328/264/3 329/265/3
f 327/263/3 329/265/3 330/266/3
f 331/267/28 332/268/28 333/269/28
f 334/270/28 333/269/28 332/268/28
f 335/271/6 336/270/6 337/272/6
f 336/270/6 338/268/6 337/272/6
f 339/272/29 340/273/29 341/271/29
f 342/274/29 341/271/29 340/273/29
f 343/275/4 233/191/4 262/213/4
f 99/87/4 98/86/4 344/276/4
f 120/104/5 101/89/5 100/88/5
f 245/198/5 268/214/5 269/215/5
f 268/214/5 245/198/5 244/197/5
f 67/61/3 34/30/3 345/277/3
f 346/34/4 347/62/4 348/278/4
f 38/34/4 349/278/4 350/279/4
f 351/280/30 352/281/30 353/102/30
f 354/118/1 355/111/1 356/282/1
f 354/118/1 356/282/1 357/283/1
f 358/284/31 359/285/31 360/286/31
s 1
f 359/285/31 358/284/31 361/287/31
s 0
f 362/286/6 363/288/6 364/289/6
f 363/288/6 362/286/6 365/285/6
f 366/290/3 367/291/3 368/292/3
f 366/290/3 368/292/3 369/293/3
f 370/294/30 371/281/30 372/280/30
f 373/294/3 374/295/3 375/281/3
f 11/11/3 33/29/3 9/9/3
f 273/218/5 307/247/5 270/216/5
f 307/247/5 273/218/5 272/205/5
f 20/20/5 308/248/5 83/71/5
f 84/72/4 309/249/4 13/13/4
f 261/212/4 310/250/4 260/211/4
f 376/296/3 377/297/3 378/298/3
f 377/297/3 376/296/3 379/299/3
f 380/300/32 381/301/32 382/302/32
f 381/301/32 380/300/32 383/303/32
f 384/304/6 385/303/6 386/300/6
f 385/303/6 384/304/6 387/305/6
f 388/306/8 389/307/8 390/308/8
f 389/307/8 388/306/8 391/309/8
f 392/310/8 393/311/8 394/312/8
f 395/313/33 396/314/33 397/315/33
s 1
f 396/314/33 395/313/33 398/316/33
s 0
f 392/310/8 399/317/8 393/311/8
f 400/318/6 22/22/6 401/319/6
f 402/320/3 403/321/3 404/322/3
f 405/323/4 406/324/4 407/325/4
f 408/326/4 409/327/4 410/328/4
f 411/329/3 412/330/3 413/331/3
f 412/330/3 411/329/3 414/332/3
f 415/333/5 416/334/5 417/335/5
f 418/316/34 419/336/34 420/337/34
f 421/338/34 422/316/34 423/313/34
f 422/316/34 421/338/34 424/336/34
f 425/339/3 426/340/3 427/341/3
f 428/342/30 429/100/30 430/343/30
f 431/343/3 432/344/3 433/345/3
f 434/346/4 435/347/4 436/348/4
f 437/348/4 438/347/4 439/349/4
f 437/348/4 439/349/4 440/350/4
f 402/320/3 425/339/3 427/341/3
f 441/351/5 442/352/5 443/353/5
f 443/353/5 442/352/5 444/354/5
f 445/355/3 446/356/3 447/357/3
f 447/357/3 446/356/3 448/358/3
f 449/359/4 450/360/4 451/361/4
f 450/360/4 449/359/4 452/362/4
f 453/363/4 454/364/4 455/365/4
f 455/365/4 454/364/4 456/366/4
f 457/367/3 458/368/3 459/369/3
f 459/369/3 458/368/3 460/370/3
f 461/371/5 462/372/5 463/373/5
f 462/372/5 461/371/5 464/374/5
f 449/359/4 465/375/4 452/362/4
f 452/362/4 465/375/4 466/376/4
f 449/359/4 456/366/4 465/375/4
f 456/366/4 467/377/4 465/375/4
f 468/366/4 469/378/4 470/377/4
f 469/378/4 468/366/4 471/364/4
f 472/379/5 463/373/5 473/380/5
f 463/373/5 472/379/5 461/371/5
f 473/380/5 441/351/5 474/381/5
f 441/351/5 473/380/5 463/373/5
f 474/381/5 441/351/5 475/382/5
f 475/382/5 441/351/5 443/353/5
f 476/334/5 477/383/5 478/335/5
f 408/326/4 410/328/4 479/384/4
f 480/385/8 481/386/8 482/387/8
f 482/387/8 481/386/8 483/388/8
f 484/389/1 485/390/1 486/391/1
f 484/389/1 486/391/1 487/392/1
f 488/393/3 489/394/3 490/395/3
f 490/395/3 489/394/3 491/396/3
f 492/397/4 493/398/4 494/399/4
f 100/88/5 495/400/5 496/401/5
f 497/402/35 498/403/35 499/404/35
f 499/404/8 498/403/8 500/405/8
f 499/404/8 501/406/8 497/402/8
f 497/402/8 501/406/8 502/407/8
f 503/408/8 501/406/8 504/409/8
f 501/406/8 503/408/8 502/407/8
f 505/410/8 506/411/8 507/412/8
f 508/413/8 509/412/8 510/411/8
f 509/412/8 508/413/8 511/414/8
f 512/415/8 513/416/8 514/417/8
f 513/416/8 512/415/8 515/418/8
f 516/419/8 517/420/8 518/421/8
f 517/420/8 516/419/8 519/422/8
f 520/413/8 521/423/8 522/424/8
f 521/423/8 520/413/8 523/411/8
f 524/425/8 525/426/8 526/427/8
f 525/426/8 524/425/8 527/428/8
f 528/151/6 529/429/6 530/152/6
f 530/152/6 529/429/6 531/430/6
f 532/431/3 533/141/3 534/432/3
f 533/141/3 532/431/3 535/144/3
f 536/427/8 537/433/8 538/434/8
f 537/433/8 536/427/8 539/426/8
f 540/434/8 541/435/8 542/436/8
f 541/435/8 540/434/8 543/433/8
f 544/402/36 545/437/36 546/438/36
f 545/437/36 544/402/36 547/407/36
f 100/88/5 461/371/5 495/400/5
f 472/379/5 495/400/5 461/371/5
f 548/165/6 549/439/6 550/440/6
f 549/439/6 548/165/6 551/164/6
f 552/441/5 553/168/5 554/170/5
f 552/441/5 554/170/5 555/442/5
s 1
f 556/173/37 557/443/38 558/444/37
f 556/173/37 558/444/37 559/171/38
s 0
f 560/175/3 561/445/3 562/443/3
f 560/175/3 562/443/3 563/173/3
s 1
f 564/445/39 565/175/39 566/446/39
f 567/178/39 566/446/39 565/175/39
s 0
f 568/447/4 569/182/4 570/448/4
f 568/447/4 570/448/4 571/449/4
f 572/450/6 573/451/6 574/452/6
f 573/451/6 572/450/6 575/453/6
f 454/364/4 492/397/4 576/378/4
f 492/397/4 454/364/4 493/398/4
f 577/454/4 466/376/4 578/455/4
f 465/375/4 578/455/4 466/376/4
f 579/378/4 580/456/4 581/457/4
f 581/457/4 582/377/4 579/378/4
f 583/458/4 492/397/4 494/399/4
f 492/397/4 583/458/4 584/459/4
f 585/418/8 586/414/8 587/460/8
f 586/414/8 585/418/8 588/412/8
f 589/461/5 495/400/5 590/462/5
f 495/400/5 589/461/5 496/401/5
f 472/379/5 591/463/5 592/464/5
f 591/463/5 472/379/5 473/380/5
f 593/465/5 475/382/5 594/466/5
f 475/382/5 593/465/5 474/381/5
f 595/334/5 596/467/5 597/383/5
f 598/468/8 599/469/8 399/317/8
f 406/324/4 408/326/4 479/384/4
f 406/324/4 479/384/4 407/325/4
f 577/454/4 578/455/4 405/323/4
f 600/470/4 578/455/4 601/457/4
f 578/455/4 600/470/4 405/323/4
f 600/470/4 601/457/4 602/456/4
f 600/470/4 602/456/4 584/459/4
f 600/470/4 584/459/4 583/458/4
f 603/460/8 604/416/8 605/418/8
f 606/471/5 589/461/5 590/462/5
f 606/471/5 590/462/5 592/464/5
f 591/463/5 606/471/5 592/464/5
f 607/472/5 591/463/5 593/465/5
f 591/463/5 607/472/5 606/471/5
f 607/472/5 593/465/5 594/466/5
f 416/334/5 608/473/5 609/467/5
f 392/310/8 598/468/8 399/317/8
f 610/474/6 611/475/6 612/476/6
f 611/475/6 610/474/6 613/477/6
f 614/478/21 615/479/21 616/480/21
f 615/479/21 614/478/21 617/481/21
f 618/481/3 619/478/3 620/482/3
f 620/482/3 621/483/3 618/481/3
f 622/484/20 623/482/20 624/485/20
f 623/482/20 622/484/20 625/483/20
f 607/472/5 594/466/5 626/486/5
f 443/353/5 417/335/5 627/487/5
f 627/487/5 475/382/5 443/353/5
s 1
f 628/488/5 629/489/5 630/490/40
f 628/488/5 630/490/40 631/491/41
s 0
f 632/492/3 633/493/3 634/494/3
f 632/492/3 634/494/3 635/495/3
s 1
f 636/496/42 637/497/43 638/498/4
f 636/496/42 638/498/4 639/499/4
s 0
f 640/500/4 452/362/4 466/376/4
f 410/328/4 452/362/4 640/500/4
f 641/501/4 577/454/4 405/323/4
f 607/472/5 626/486/5 642/502/5
f 643/503/5 642/502/5 627/487/5
f 626/486/5 627/487/5 642/502/5
f 643/503/5 627/487/5 417/335/5
f 410/328/4 640/500/4 644/504/4
f 640/500/4 645/505/4 644/504/4
f 645/505/4 640/500/4 641/501/4
f 645/505/4 405/323/4 407/325/4
f 646/506/3 647/507/3 648/508/3
f 647/507/3 646/506/3 649/509/3
f 650/510/44 651/509/44 652/506/44
f 651/509/44 650/510/44 653/511/44
f 654/512/6 655/513/6 656/514/6
f 654/512/6 656/514/6 657/515/6
f 658/507/45 659/516/45 660/508/45
f 659/516/45 658/507/45 661/517/45
f 662/518/3 663/519/3 664/520/3
f 663/519/3 662/518/3 665/521/3
f 666/522/29 667/523/29 668/524/29
f 666/522/29 668/524/29 669/525/29
f 670/526/6 671/527/6 672/523/6
f 672/523/6 671/527/6 673/524/6
f 674/528/28 675/526/28 676/529/28
f 675/526/28 674/528/28 677/527/28
f 678/530/4 600/470/4 583/458/4
f 121/105/5 100/88/5 496/401/5
f 268/214/5 243/196/5 606/471/5
f 606/471/5 243/196/5 589/461/5
f 425/339/3 345/277/3 426/340/3
f 435/347/4 679/531/4 680/349/4
f 431/343/3 681/532/3 432/344/3
f 682/100/30 683/532/30 684/343/30
f 685/418/8 686/533/8 687/412/8
f 686/533/8 685/418/8 688/534/8
s 1
f 689/535/46 690/536/46 691/537/46
s 0
f 690/536/46 689/535/46 692/538/46
f 693/538/6 694/539/6 695/536/6
f 694/539/6 693/538/6 696/540/6
f 697/541/3 698/542/3 699/543/3
f 698/542/3 697/541/3 700/544/3
f 403/321/3 402/320/3 427/341/3
f 608/473/5 642/502/5 609/467/5
f 642/502/5 608/473/5 607/472/5
f 417/335/5 701/383/5 643/503/5
f 702/384/4 703/328/4 704/504/4
f 705/545/3 706/546/3 707/547/3
f 708/548/3 707/547/3 706/546/3
f 709/549/47 710/550/47 711/551/47
f 710/550/47 709/549/47 712/552/47
f 713/553/6 714/551/6 715/554/6
f 714/551/6 713/553/6 716/549/6
f 717/555/1 718/556/1 719/557/1
f 720/558/1 719/557/1 718/556/1
f 721/559/48 722/100/48 723/102/48
f 724/349/4 725/278/4 726/62/4
f 725/278/4 724/349/4 727/531/4
f 345/277/3 425/339/3 67/61/3
f 728/180/4 570/448/4 569/182/4
f 729/560/49 730/561/49 731/562/49
f 731/562/49 730/561/49 732/563/49
f 733/564/50 734/565/50 735/566/50
f 733/564/50 735/566/50 736/567/50
f 737/568/51 738/569/51 739/570/51
f 740/571/51 739/570/51 738/569/51
f 741/572/52 742/573/52 743/574/52
f 741/572/52 743/574/52 744/575/52
f 745/576/53 746/577/53 747/578/53
f 745/576/53 747/578/53 748/579/53
f 749/580/54 750/581/54 751/582/54
f 749/580/54 751/582/54 752/583/54
f 753/148/6 754/430/6 755/429/6
f 753/148/6 755/429/6 756/146/6
f 757/149/3 758/431/3 759/432/3
f 757/149/3 759/432/3 760/150/3
f 761/583/55 762/582/55 763/584/55
f 761/583/55 763/584/55 764/585/55
f 765/584/56 766/586/56 767/585/56
f 766/586/56 765/584/56 768/587/56
f 769/194/57 770/195/57 771/560/57
f 769/194/57 771/560/57 772/562/57
f 1/1/1 3/3/1 773/588/1
f 774/280/3 775/102/3 776/101/3
f 774/280/3 776/101/3 777/589/3
f 778/100/3 779/342/3 780/590/3
f 778/100/3 780/590/3 781/103/3
f 782/591/1 783/592/1 784/593/1
f 783/592/1 782/591/1 785/594/1
f 786/595/4 787/596/4 788/597/4
f 789/598/4 788/597/4 787/596/4
f 790/599/8 791/600/8 792/601/8
f 791/600/8 790/599/8 793/602/8
f 794/603/5 795/604/5 796/605/5
f 794/603/5 796/605/5 797/606/5
f 798/569/58 799/568/58 800/607/58
f 801/608/58 800/607/58 799/568/58
s 1
f 802/609/59 803/610/60 804/611/60
f 803/610/60 802/609/59 805/612/59
s 0
f 806/591/61 807/613/61 808/594/61
s 1
f 807/613/62 806/591/63 809/614/62
s 0
f 810/615/64 811/612/64 812/609/64
f 813/616/64 811/612/64 810/615/64
f 814/617/65 815/618/65 816/570/65
f 814/617/65 816/570/65 817/571/65
s 1
f 818/619/66 819/616/67 820/615/68
f 818/619/66 820/615/68 821/620/69
f 822/599/70 823/621/71 824/622/71
s 0
f 822/599/72 825/601/72 823/621/72
f 826/610/73 827/619/73 828/620/73
f 826/610/73 828/620/73 829/611/73
s 1
f 830/110/74 831/623/74 832/111/74
s 0
f 493/398/4 833/624/4 494/399/4
f 834/625/75 835/410/75 836/412/75
f 837/626/1 773/588/1 3/3/1
f 838/627/1 839/628/1 840/588/1
f 841/629/2 842/630/2 843/631/2
f 842/630/2 841/629/2 844/26/2
f 845/628/1 846/632/1 773/588/1
f 10/10/3 847/633/3 7/7/3
f 848/634/3 849/635/3 850/636/3
f 849/635/3 848/634/3 851/637/3
f 852/629/7 853/25/7 854/26/7
f 24/24/6 855/638/6 22/22/6
f 856/639/3 857/640/3 858/641/3
f 859/589/76 860/642/76 861/643/76
f 862/644/3 863/643/3 864/642/3
f 863/643/3 862/644/3 865/645/3
f 866/646/5 867/647/5 868/648/5
f 869/648/5 870/647/5 871/649/5
f 871/649/5 872/650/5 869/648/5
f 848/634/3 856/639/3 873/651/3
f 873/651/3 856/639/3 858/641/3
f 856/639/3 874/652/3 875/653/3
f 856/639/3 875/653/3 857/640/3
f 876/654/5 877/655/5 878/656/5
f 874/652/3 879/657/3 880/658/3
f 881/659/1 882/660/1 883/661/1
f 874/652/3 880/658/3 875/653/3
f 885/662/5 884/663/5 900/664/5
f 901/665/5 884/663/5 902/666/5
f 884/663/5 901/665/5 900/664/5
f 901/665/5 902/666/5 903/667/5
f 901/665/5 903/667/5 887/668/5
f 901/665/5 887/668/5 886/669/5
f 904/659/1 905/670/1 906/660/1
f 907/671/4 888/672/4 908/673/4
f 889/674/4 908/673/4 888/672/4
f 891/675/4 909/676/4 889/674/4
f 889/674/4 909/676/4 908/673/4
f 891/675/4 910/677/4 909/676/4
f 910/677/4 891/675/4 890/678/4
f 911/679/4 910/677/4 892/680/4
f 890/678/4 892/680/4 910/677/4
f 893/681/4 911/679/4 892/680/4
f 911/679/4 893/681/4 912/682/4
f 894/683/4 913/684/4 914/685/4
f 913/684/4 894/683/4 895/686/4
f 845/628/1 896/687/1 897/688/1
f 845/628/1 897/688/1 846/632/1
f 915/689/5 899/690/5 898/691/5
f 916/692/3 917/693/3 918/694/3
f 917/693/3 916/692/3 919/695/3
f 848/634/3 873/651/3 920/696/3
f 921/697/4 912/682/4 893/681/4
f 912/682/4 921/697/4 922/698/4
f 923/699/5 885/662/5 900/664/5
f 848/634/3 920/696/3 924/700/3
f 925/701/4 922/698/4 921/697/4
f 922/698/4 925/701/4 926/702/4
f 927/703/5 923/699/5 900/664/5
f 928/704/3 929/705/3 930/706/3
f 930/706/3 931/707/3 928/704/3
f 932/708/3 933/709/3 934/710/3
f 935/711/3 934/710/3 933/709/3
f 901/665/5 886/669/5 936/712/5
f 937/713/4 888/672/4 907/671/4
f 907/671/4 938/714/4 937/713/4
f 874/652/3 939/715/3 879/657/3
f 940/716/5 941/717/5 942/718/5
f 943/719/5 941/717/5 940/716/5
f 944/589/76 945/101/76 946/642/76
f 947/720/3 948/721/3 949/722/3
f 950/723/3 949/722/3 948/721/3
f 851/637/3 848/634/3 924/700/3
f 914/685/4 926/702/4 894/683/4
f 925/701/4 894/683/4 926/702/4
f 951/691/5 952/703/5 953/689/5
f 952/703/5 954/664/5 953/689/5
f 955/724/3 956/725/3 957/726/3
f 956/725/3 955/724/3 958/727/3
f 942/718/5 941/717/5 959/728/5
f 960/729/77 961/730/77 962/731/77
f 962/731/77 963/732/77 960/729/77
f 967/312/8 968/733/8 969/310/8
f 970/734/33 971/735/33 972/337/33
f 971/735/33 970/734/33 973/736/33
f 974/737/3 404/322/3 403/321/3
f 404/322/3 974/737/3 975/738/3
f 976/739/3 975/738/3 974/737/3
f 977/336/34 978/740/34 979/337/34
f 979/337/34 978/740/34 980/734/34
f 981/741/5 982/742/5 983/743/5
f 984/744/5 982/742/5 985/745/5
f 982/742/5 984/744/5 983/743/5
f 986/746/3 987/747/3 988/748/3
f 987/747/3 986/746/3 989/749/3
s 1
f 990/590/76 991/750/76 992/103/76
s 0
f 993/750/3 994/751/3 995/752/3
f 996/753/5 982/742/5 997/754/5
f 981/741/5 997/754/5 982/742/5
f 985/745/5 996/753/5 998/755/5
f 996/753/5 985/745/5 982/742/5
f 975/738/3 986/746/3 988/748/3
f 999/756/6 22/22/6 1000/757/6
f 987/747/3 989/749/3 874/652/3
f 1001/744/5 1002/758/5 1003/743/5
f 1001/744/5 1004/718/5 1002/758/5
f 1005/741/5 1006/743/5 1007/758/5
f 1008/759/5 942/718/5 1009/760/5
f 981/741/5 1008/759/5 1009/760/5
f 1010/761/8 1011/762/8 1012/763/8
f 1011/762/8 1010/761/8 1013/764/8
f 1000/757/6 855/638/6 1014/765/6
f 1000/757/6 1014/765/6 1015/766/6
f 1016/741/78 1017/758/78 1018/759/78
f 1019/758/79 1020/718/79 1021/759/79
f 1023/767/5 1042/768/5 1022/769/5
f 1042/768/5 1043/770/5 1024/771/5
f 1042/768/5 1024/771/5 1022/769/5
f 1043/770/5 1025/772/5 1024/771/5
f 1043/770/5 1027/773/5 1025/772/5
f 1043/770/5 1026/774/5 1027/773/5
f 1044/775/8 1045/763/8 1046/762/8
f 938/714/4 1029/776/4 937/713/4
f 1047/777/4 1031/778/4 1030/779/4
f 1047/777/4 1033/780/4 1031/778/4
f 1032/781/4 1033/780/4 1047/777/4
f 1032/781/4 1048/782/4 1034/783/4
f 1048/782/4 1032/781/4 1047/777/4
f 1048/782/4 1035/784/4 1034/783/4
f 1036/785/4 1049/786/4 1037/787/4
f 1049/786/4 1036/785/4 1050/788/4
f 394/312/8 1038/789/8 1051/733/8
f 1039/790/8 1051/733/8 1038/789/8
f 1052/791/5 1040/792/5 1041/793/5
f 1053/794/3 1054/795/3 1055/796/3
f 1055/796/3 1054/795/3 1056/797/3
f 1048/782/4 1057/798/4 1035/784/4
f 1058/799/5 1042/768/5 1023/767/5
f 1048/782/4 1059/800/4 1057/798/4
f 1060/801/5 1042/768/5 1058/799/5
f 1061/802/3 1062/803/3 1063/804/3
f 1063/804/3 1062/803/3 1064/805/3
f 1065/806/3 1066/807/3 1067/808/3
f 1066/807/3 1065/806/3 1068/809/3
f 1069/810/5 1026/774/5 1043/770/5
f 938/714/4 1030/779/4 1029/776/4
f 1030/779/4 938/714/4 1047/777/4
f 874/652/3 989/749/3 939/715/3
f 1070/760/5 1071/718/5 1072/728/5
f 981/741/5 1009/760/5 959/728/5
f 993/750/3 995/752/3 1073/811/3
s 1
f 1074/103/76 1075/750/76 1076/811/76
s 0
f 1077/812/3 1078/813/3 1079/814/3
f 1078/813/3 1077/812/3 1080/815/3
f 22/22/6 999/756/6 401/319/6
f 976/739/3 986/746/3 975/738/3
f 1059/800/4 1050/788/4 1036/785/4
f 1050/788/4 1059/800/4 1048/782/4
f 1042/768/5 1040/792/5 1052/791/5
f 1040/792/5 1042/768/5 1060/801/5
f 1081/816/3 1082/817/3 1083/818/3
f 1081/816/3 1083/818/3 1084/819/3
f 1085/820/1 1086/821/1 1087/822/1
f 1088/823/8 1089/824/8 1090/825/8
f 1091/826/8 1092/827/8 1093/828/8
f 1093/828/8 1092/827/8 1094/829/8
f 1095/830/1 1096/831/1 1097/832/1
f 1098/103/80 1099/644/80 1100/101/80
f 1101/588/1 1102/626/1 1103/627/1
f 22/22/6 855/638/6 1000/757/6
f 1104/832/1 1105/831/1 1106/833/1
f 1107/644/80 1108/103/80 1109/752/80
f 1110/834/7 1111/25/7 1112/629/7
f 10/10/3 848/634/3 847/633/3
f 850/636/3 847/633/3 848/634/3
f 1113/835/3 374/295/3 373/294/3
f 375/281/3 374/295/3 1114/559/3
f 1115/824/8 1116/823/8 1117/836/8
f 1118/559/48 1119/344/48 1120/100/48
f 1121/821/1 1122/820/1 1123/837/1
f 22/22/6 400/318/6 115/99/6
f 1124/6/2 1125/5/2 1126/838/2
s 1
f 1127/839/6 1128/840/81 1129/841/6
f 1128/840/81 1127/839/6 1130/842/81
f 1131/843/1 1132/844/1 1133/845/82
s 0
f 1132/844/1 1131/843/1 1134/846/1
s 1
f 1135/847/1 1133/845/82 1132/844/1
f 1133/845/82 1135/847/1 1136/848/83
f 1137/849/1 1136/848/83 1135/847/1
s 0
f 1137/849/1 1135/847/1 1138/850/1
s 1
f 1139/851/81 1140/852/6 1141/853/6
f 1139/851/81 1141/853/6 1142/854/81
f 1143/855/84 1144/856/85 1145/857/8
f 1145/857/8 1146/858/84 1143/855/84
f 1144/856/85 1147/859/86 1148/860/8
f 1144/856/85 1148/860/8 1145/857/8
f 1149/861/84 1148/860/8 1147/859/86
f 1148/860/8 1149/861/84 1150/862/84
f 1151/495/87 1152/494/88 1153/863/89
f 1151/495/87 1153/863/89 1154/864/90
f 1133/845/82 1136/848/83 1155/865/91
f 1133/845/82 1155/865/91 1156/866/91
f 1157/867/86 1158/492/92 1159/868/93
f 1158/492/92 1157/867/86 1160/493/94
f 1147/859/86 1144/856/85 1161/869/95
f 1147/859/86 1161/869/95 1162/870/96
s 0
f 1163/871/8 1164/872/8 1165/873/8
s 1
f 1163/871/8 1165/873/97 1166/874/98
f 1167/875/99 1168/876/6 1169/877/99
f 1168/876/6 1167/875/99 1170/878/6
f 1171/879/98 1163/871/8 1166/874/98
f 1163/871/8 1171/879/98 1172/880/8
f 1173/881/6 1174/882/99 1175/883/99
f 1173/881/6 1175/883/99 1176/884/6
f 1177/885/8 1172/880/8 1171/879/98
s 0
f 1172/880/8 1177/885/8 1178/886/8
s 1
f 1179/887/1 1180/888/100 1181/889/100
f 1180/888/100 1179/887/1 1182/890/101
f 1183/891/102 1179/887/1 1184/892/1
f 1183/891/102 1182/890/101 1179/887/1
f 1185/893/100 1183/891/102 1184/892/1
f 1185/893/100 1184/892/1 1186/894/100
f 1187/895/103 1188/896/25 1189/237/104
f 1187/895/103 1189/237/104 1190/239/105
f 1171/879/98 1166/874/98 1191/897/106
f 1171/879/98 1191/897/106 1192/898/106
f 1193/240/107 1194/899/108 1195/238/109
f 1194/899/108 1193/240/107 1196/900/22
f 1182/890/101 1183/891/102 1197/901/110
f 1182/890/101 1197/901/110 1198/902/109
s 0
f 645/505/4 641/501/4 405/323/4
f 947/720/3 949/722/3 1078/813/3 1080/815/3
f 1044/903/6 947/903/6 966/903/6
f 1080/815/3 1044/903/3 947/903/3
f 965/903/111 966/903/111 1044/775/111 1046/762/111 964/903/111
f 965/903/1 905/670/1 906/660/1 947/903/1 966/903/1
