# Blender 5.1.2
# www.blender.org
o SFCrate9Body_(2)_Default_0
v 1.076867 0.101739 1.216202
v 1.035120 0.144131 1.208841
v 1.069506 0.144131 1.257950
v 1.366374 3.730446 -0.669792
v 1.035120 3.730446 1.208841
v 1.035120 0.144131 1.208841
v 2.461772 3.730446 1.503444
v 2.344328 3.730446 1.566488
v 2.575641 3.730446 1.607274
v 1.639742 3.705011 1.466111
v 2.330662 3.560880 1.587939
v 2.330662 3.705011 1.587939
v 2.330662 0.983481 1.587939
v 1.639742 0.351849 1.466111
v 2.330662 0.351849 1.587939
v 1.389258 0.351849 1.421944
v 0.977628 0.130989 1.349363
v 3.144736 0.130989 1.731482
v 2.581146 0.351849 1.632106
v 2.461772 3.730446 1.503444
v 1.487186 3.730446 1.331598
v 1.069506 3.730446 1.257950
v 1.634237 3.730446 1.441279
v 1.487186 3.730446 1.331598
v 1.402924 3.730446 1.400493
v 3.708326 0.351849 1.830858
v 5.637135 3.730446 0.083258
v 5.545108 3.730446 1.043533
v 5.879090 3.730446 -0.850580
v 5.637135 3.730446 0.083258
v 5.968388 0.144131 -1.795375
v 5.305881 0.144131 1.961892
v 1.697627 0.144131 -2.548425
v 1.739375 0.101739 -2.541064
v 1.746736 0.144131 -2.582812
v 1.697627 0.144131 -2.548425
v 1.697627 3.730446 -2.548425
v 3.139002 3.730446 -2.337317
v 3.281515 3.730446 -2.395941
v 3.050203 3.730446 -2.436727
v 2.353777 3.705011 -2.583387
v 3.044697 3.705011 -2.461559
v 3.044697 3.560880 -2.461559
v 3.044697 0.983481 -2.461559
v 3.044697 0.351849 -2.461559
v 2.353777 0.351849 -2.583387
v 2.103293 0.351849 -2.627554
v 1.691664 0.130989 -2.700136
v 3.295182 0.351849 -2.417392
v 3.858772 0.130989 -2.318016
v 3.139002 3.730446 -2.337317
v 2.164416 3.730446 -2.509163
v 1.746736 3.730446 -2.582812
v 2.340111 3.730446 -2.561936
v 2.108798 3.730446 -2.602722
v 2.164416 3.730446 -2.509163
v 1.366374 3.730446 -0.669792
v 1.458401 3.730446 -1.630067
v 1.124418 3.730446 0.264046
v 4.422362 0.351849 -2.218640
v 5.264133 0.101739 1.954530
v 5.256772 0.144131 1.996278
v 5.305881 0.144131 1.961892
v 5.305881 3.730446 1.961892
v 3.864506 3.730446 1.750784
v 3.721992 3.730446 1.809407
v 3.953305 3.730446 1.850194
v 4.649730 3.705011 1.996854
v 3.958811 3.705011 1.875026
v 3.958811 3.560880 1.875026
v 3.958811 0.983481 1.875026
v 3.958811 0.351849 1.875026
v 4.649730 0.351849 1.996854
v 4.900215 0.351849 2.041021
v 5.311844 0.130989 2.113602
v 3.864506 3.730446 1.750784
v 4.839092 3.730446 1.922630
v 5.256772 3.730446 1.996278
v 4.663396 3.730446 1.975402
v 4.894710 3.730446 2.016189
v 4.839092 3.730446 1.922630
v 5.926640 0.101739 -1.802736
v 5.968388 0.144131 -1.795375
v 5.934002 0.144131 -1.844484
v 5.968388 3.730446 -1.795375
v 4.541736 3.730446 -2.089978
v 4.659180 3.730446 -2.153021
v 4.427867 3.730446 -2.193808
v 5.363766 3.705011 -2.052645
v 4.672846 3.560880 -2.174473
v 4.672846 3.705011 -2.174473
v 4.672846 0.983481 -2.174473
v 5.363766 0.351849 -2.052645
v 4.672846 0.351849 -2.174473
v 5.614250 0.351849 -2.008478
v 6.025880 0.130989 -1.935896
v 4.541736 3.730446 -2.089978
v 5.516322 3.730446 -1.918132
v 5.934002 3.730446 -1.844484
v 5.369271 3.730446 -2.027813
v 5.516322 3.730446 -1.918132
v 5.600584 3.730446 -1.987026
v 0.977628 3.705011 1.349363
v 1.389258 3.705011 1.421944
v 0.984478 3.730446 1.324868
v 1.402924 3.730446 1.400493
v 2.382241 0.919894 1.661602
v 2.382241 0.415436 1.661602
v 0.872489 3.705011 1.248715
v 0.871374 3.705011 1.197617
v 0.872489 0.130989 1.248715
v 0.871374 0.130989 1.197617
v 1.015668 3.705011 0.745471
v 1.015668 0.194577 0.745471
v 0.942005 3.705011 0.797051
v 0.942005 0.130989 0.797051
v 0.909158 0.038366 1.204279
v 0.979788 0.038366 0.803713
v 0.951008 0.009971 1.211659
v 1.021639 0.009971 0.811092
v 1.179219 0.073558 0.283593
v 1.095301 0.073558 0.759513
v 1.137369 0.101953 0.276213
v 1.053451 0.101953 0.752134
v 1.109405 0.144449 0.271282
v 1.057826 0.080862 0.197620
v 1.137369 0.101953 0.276213
v 1.085789 0.038366 0.202550
v 0.941167 0.019134 1.261820
v 0.904129 0.041563 1.251207
v 0.929993 0.130989 1.330839
v 0.893074 0.130989 1.295496
v 0.930619 0.079881 1.321644
v 0.896777 0.083902 1.292902
v 0.881194 0.080862 1.199349
v 0.909158 0.038366 1.204279
v 0.881343 0.079881 1.251272
v 0.904129 0.041563 1.251207
v 2.382241 3.624467 1.661602
v 2.382241 3.705011 1.661602
v 0.893074 3.705011 1.295496
v 0.929993 3.705011 1.330839
v 0.913909 3.730446 1.280907
v 0.943659 3.730446 1.309387
v 1.035120 3.730446 1.208841
v 1.037120 3.730446 0.759138
v 1.124418 3.730446 0.264046
v 1.099586 3.705011 0.269551
v 1.634237 3.730446 1.441279
v 1.560574 3.730446 1.492859
v 1.566079 3.705011 1.517691
v 2.507483 3.705011 1.683686
v 2.581146 3.705011 1.632106
v 2.501978 3.730446 1.658854
v 2.575641 3.730446 1.607274
v 1.566079 0.415436 1.517691
v 1.440837 0.415436 1.495607
v 5.602438 0.038366 0.998958
v 5.560588 0.009971 0.991578
v 5.917718 0.038366 -0.789084
v 5.875867 0.009971 -0.796463
v 1.000374 0.000000 1.220363
v 1.071005 0.000000 0.819797
v 5.334591 0.000000 1.984603
v 5.405221 0.000000 1.584036
v 5.318507 0.038366 2.075819
v 5.313576 0.080862 2.103783
v 0.984290 0.038366 1.311580
v 0.979359 0.080862 1.339543
v 1.691664 3.705011 -2.700136
v 1.640566 3.705011 -2.699021
v 1.640566 0.130989 -2.699021
v 3.243602 0.415436 -2.491055
v 3.118360 0.415436 -2.513139
v 1.593785 3.705011 -2.678437
v 1.593785 0.130989 -2.678437
v 1.558442 3.705011 -2.641517
v 1.558442 0.130989 -2.641517
v 2.176956 3.705011 -2.679133
v 2.176956 0.415436 -2.679133
v 2.103293 3.705011 -2.627554
v 1.549737 0.080862 -2.592151
v 1.577701 0.038366 -2.587220
v 1.479107 0.080862 -2.191585
v 1.507070 0.038366 -2.186654
v 1.565948 0.063587 -1.620987
v 1.516582 0.073558 -1.629691
v 1.649866 0.063587 -2.096907
v 1.600500 0.073558 -2.105612
v 1.598287 -0.000000 -2.170570
v 1.548921 0.009971 -2.179274
v 1.436949 0.194577 -1.643733
v 1.446768 0.144449 -1.642001
v 1.363286 0.130989 -1.592153
v 1.373106 0.080862 -1.590422
v 1.668917 -0.000000 -2.571136
v 1.619552 0.009971 -2.579841
v 1.677622 0.009971 -2.620502
v 1.627460 0.019134 -2.630343
v 1.689932 0.080862 -2.690316
v 1.685001 0.038366 -2.662353
v 1.638009 0.079881 -2.690167
v 1.638074 0.041563 -2.667381
v 1.567636 0.079881 -2.640892
v 1.596378 0.083902 -2.674733
v 3.295182 3.560880 -2.417392
v 3.243602 3.624467 -2.491055
v 3.295182 3.705011 -2.417392
v 3.243602 3.705011 -2.491055
v 1.608374 3.730446 -2.657602
v 1.579894 3.730446 -2.627851
v 1.539918 3.705011 -2.593882
v 1.564413 3.730446 -2.587032
v 1.746736 3.730446 -2.582812
v 1.689723 3.730446 -2.674775
v 1.697627 3.730446 -2.548425
v 1.564413 3.730446 -2.587032
v 1.646071 3.730446 -2.674189
v 1.579894 3.730446 -2.627851
v 1.608374 3.730446 -2.657602
v 1.545699 3.730446 -2.125158
v 1.697627 3.730446 -2.548425
v 3.118360 3.705011 -2.513139
v 3.123865 3.730446 -2.488307
v 3.050203 3.730446 -2.436727
v 2.108798 3.730446 -2.602722
v 2.182461 3.730446 -2.654302
v 5.774923 0.063587 -0.878831
v 5.858841 0.063587 -1.354751
v 4.422362 3.705011 -2.218640
v 4.422362 3.560880 -2.218640
v 1.442920 0.009971 -1.578112
v 1.492285 -0.000000 -1.569407
v 1.127640 0.009971 0.209930
v 1.177006 0.000000 0.218634
v 4.427867 3.730446 -2.193808
v 3.281515 3.730446 -2.395941
v 4.422362 0.983481 -2.218640
v 3.295182 0.983481 -2.417392
v 5.826502 -0.000000 -0.805168
v 5.511222 0.000000 0.982874
v 5.311844 3.705011 2.113602
v 5.362941 3.705011 2.112487
v 5.362941 0.130989 2.112487
v 3.759905 0.415436 1.904521
v 3.885148 0.415436 1.926605
v 5.409723 3.705011 2.091903
v 5.409723 0.130989 2.091903
v 5.445066 3.705011 2.054983
v 5.445066 0.130989 2.054983
v 4.826551 3.705011 2.092600
v 4.826551 0.415436 2.092600
v 4.900215 3.705011 2.041021
v 5.453771 0.080862 2.005617
v 5.425807 0.038366 2.000687
v 5.524402 0.080862 1.605051
v 5.496438 0.038366 1.600120
v 5.437560 0.063587 1.034453
v 5.486926 0.073558 1.043158
v 5.353642 0.063587 1.510373
v 5.403008 0.073558 1.519078
v 5.454587 0.009971 1.592741
v 5.566559 0.194577 1.057199
v 5.556739 0.144449 1.055468
v 5.640222 0.130989 1.005620
v 5.630403 0.080862 1.003888
v 5.383956 0.009971 1.993307
v 5.325886 0.009971 2.033969
v 5.376048 0.019134 2.043809
v 5.365499 0.079881 2.103633
v 5.365434 0.041563 2.080847
v 5.435872 0.079881 2.054358
v 5.407130 0.083902 2.088199
v 3.708326 3.560880 1.830858
v 3.759905 3.624467 1.904521
v 3.708326 3.705011 1.830858
v 3.759905 3.705011 1.904521
v 5.395134 3.730446 2.071068
v 5.423614 3.730446 2.041317
v 5.463590 3.705011 2.007349
v 5.439095 3.730446 2.000498
v 5.256772 3.730446 1.996278
v 5.313785 3.730446 2.088241
v 5.305881 3.730446 1.961892
v 5.439095 3.730446 2.000498
v 5.357437 3.730446 2.087655
v 5.423614 3.730446 2.041317
v 5.395134 3.730446 2.071068
v 5.457809 3.730446 1.538625
v 5.305881 3.730446 1.961892
v 3.885148 3.705011 1.926605
v 3.879642 3.730446 1.901773
v 3.953305 3.730446 1.850194
v 4.894710 3.730446 2.016189
v 4.821047 3.730446 2.067768
v 5.437429 3.705011 -2.104224
v 5.437429 0.415436 -2.104224
v 4.621266 3.624467 -2.248136
v 4.496025 3.624467 -2.270219
v 4.496025 0.919894 -2.270219
v 4.621266 0.919894 -2.248136
v 6.132134 3.705011 -1.784151
v 6.061503 3.705011 -1.383584
v 6.132134 0.130989 -1.784151
v 6.061503 0.130989 -1.383584
v 5.562671 3.705011 -2.082140
v 5.562671 0.415436 -2.082140
v 6.052499 0.009971 -1.798192
v 5.981869 0.009971 -1.397626
v 6.003134 -0.000000 -1.806897
v 5.932503 -0.000000 -1.406330
v 5.866139 0.101953 -0.862747
v 5.950057 0.101953 -1.338667
v 5.894104 0.144449 -0.857816
v 5.978021 0.144449 -1.333736
v 6.023719 0.038366 -1.390247
v 6.051684 0.080862 -1.385316
v 5.866139 0.101953 -0.862747
v 5.824289 0.073558 -0.870126
v 6.011838 0.009971 -1.856263
v 6.019218 0.038366 -1.898113
v 6.062340 0.019134 -1.848354
v 6.065035 0.041563 -1.886788
v 6.072889 0.079881 -1.908178
v 6.106730 0.083902 -1.879436
v 6.065035 0.041563 -1.886788
v 6.095619 0.051155 -1.871656
v 6.122165 0.079881 -1.837805
v 6.099379 0.041563 -1.837740
v 6.106730 0.083902 -1.879436
v 6.095619 0.051155 -1.871656
v 4.621266 3.705011 -2.248136
v 4.496025 3.705011 -2.270219
v 4.607601 3.730446 -2.226684
v 4.501530 3.730446 -2.245387
v 6.073514 3.705011 -1.917372
v 6.025880 3.705011 -1.935896
v 6.059848 3.730446 -1.895921
v 6.019030 3.730446 -1.911402
v 5.966389 3.730446 -1.345671
v 5.987840 3.705011 -1.332005
v 6.040051 3.730446 -1.397251
v 5.955502 3.705011 -0.782422
v 5.903923 3.705011 -0.856085
v 5.930669 3.730446 -0.776917
v 5.879090 3.730446 -0.850580
v 5.442934 3.730446 -2.079392
v 5.549005 3.730446 -2.060689
v 2.507483 0.919894 1.683686
v 2.507483 0.415436 1.683686
v 2.581146 0.983481 1.632106
v 1.099586 0.194577 0.269551
v 0.951825 0.080862 0.798782
v 1.048006 3.705011 0.195888
v 1.048006 0.130989 0.195888
v 1.025487 0.144449 0.747203
v 1.228585 0.063587 0.292297
v 0.938473 0.041563 1.300254
v 0.907889 0.051155 1.285122
v 2.507483 3.624467 1.683686
v 1.440837 3.705011 1.495607
v 1.454503 3.730446 1.474155
v 0.896735 3.730446 1.199557
v 0.963457 3.730446 0.810717
v 0.896735 3.730446 1.199557
v 1.035120 3.730446 1.208841
v 0.963457 3.730446 0.810717
v 1.037120 3.730446 0.759138
v 2.344328 3.730446 1.566488
v 2.501978 3.730446 1.658854
v 2.395907 3.730446 1.640150
v 1.069506 3.730446 1.257950
v 0.984478 3.730446 1.324868
v 5.955502 0.130989 -0.782422
v 5.945683 0.080862 -0.784153
v 3.708326 0.983481 1.830858
v 2.581146 3.560880 1.632106
v 3.721992 3.730446 1.809407
v 5.618770 3.730446 0.991954
v 5.930669 3.730446 -0.776917
v 1.144667 0.063587 0.768218
v 0.991669 0.009971 1.269729
v 2.302198 3.705011 -2.657050
v 2.302198 0.415436 -2.657050
v 3.118360 3.624467 -2.513139
v 3.118360 0.919894 -2.513139
v 3.243602 0.919894 -2.491055
v 1.539918 0.130989 -2.593882
v 1.469287 3.705011 -2.193316
v 1.469287 0.130989 -2.193316
v 1.474732 0.101953 -1.637071
v 1.558650 0.101953 -2.112991
v 1.530686 0.144449 -2.117922
v 1.474732 0.101953 -1.637071
v 1.401069 0.038366 -1.585491
v 1.685001 0.038366 -2.662353
v 1.638074 0.041563 -2.667381
v 1.596378 0.083902 -2.674733
v 1.604159 0.051155 -2.663621
v 1.589026 0.041563 -2.633037
v 1.604159 0.051155 -2.663621
v 3.229936 3.730446 -2.469604
v 1.689723 3.730446 -2.674775
v 1.646071 3.730446 -2.674189
v 1.545699 3.730446 -2.125158
v 1.494119 3.730446 -2.198821
v 1.520867 3.705011 -2.119653
v 1.458401 3.730446 -1.630067
v 1.436949 3.705011 -1.643733
v 1.384738 3.730446 -1.578487
v 1.363286 3.705011 -1.592153
v 2.288532 3.730446 -2.635598
v 2.182461 3.730446 -2.654302
v 1.739375 0.101739 -2.541064
v 1.076867 0.101739 1.216202
v 1.401069 0.038366 -1.585491
v 4.701310 3.705011 2.070517
v 4.701310 0.415436 2.070517
v 3.885148 3.624467 1.926605
v 3.885148 0.919894 1.926605
v 3.759905 0.919894 1.904521
v 5.463590 0.130989 2.007349
v 5.534221 3.705011 1.606782
v 5.534221 0.130989 1.606782
v 5.528776 0.101953 1.050537
v 5.444858 0.101953 1.526457
v 5.472822 0.144449 1.531388
v 5.528776 0.101953 1.050537
v 5.318507 0.038366 2.075819
v 5.365434 0.041563 2.080847
v 5.407130 0.083902 2.088199
v 5.399350 0.051155 2.077088
v 5.414482 0.041563 2.046504
v 5.399350 0.051155 2.077088
v 3.773571 3.730446 1.883070
v 5.313785 3.730446 2.088241
v 5.357437 3.730446 2.087655
v 5.457809 3.730446 1.538625
v 5.509388 3.730446 1.612287
v 5.482642 3.705011 1.533119
v 5.545108 3.730446 1.043533
v 5.566559 3.705011 1.057199
v 5.618770 3.730446 0.991954
v 5.640222 3.705011 1.005620
v 4.714976 3.730446 2.049065
v 4.821047 3.730446 2.067768
v 6.073514 0.130989 -1.917372
v 4.621266 0.415436 -2.248136
v 4.496025 0.415436 -2.270219
v 6.110435 3.705011 -1.882029
v 6.131019 3.705011 -1.835248
v 6.110435 0.130989 -1.882029
v 6.131019 0.130989 -1.835248
v 5.614250 3.705011 -2.008478
v 6.122314 0.080862 -1.785882
v 6.094350 0.038366 -1.790813
v 5.908206 0.073558 -1.346047
v 5.903923 0.194577 -0.856085
v 6.024149 0.080862 -1.926077
v 6.019218 0.038366 -1.898113
v 6.106186 3.730446 -1.829743
v 6.089599 3.730446 -1.867441
v 6.106772 3.730446 -1.786091
v 5.934002 3.730446 -1.844484
v 5.968388 3.730446 -1.795375
v 6.019030 3.730446 -1.911402
v 6.059848 3.730446 -1.895921
v 6.106772 3.730446 -1.786091
v 6.089599 3.730446 -1.867441
v 6.106186 3.730446 -1.829743
v 5.966389 3.730446 -1.345671
v 5.968388 3.730446 -1.795375
v 4.659180 3.730446 -2.153021
v 5.600584 3.730446 -1.987026
v 5.549005 3.730446 -2.060689
v 1.053451 0.101953 0.752134
v 0.979788 0.038366 0.803713
v 1.085789 0.038366 0.202550
v 0.984290 0.038366 1.311580
v 0.938473 0.041563 1.300254
v 0.907889 0.051155 1.285122
v 0.896777 0.083902 1.292902
v 0.907889 0.051155 1.285122
v 2.395907 3.730446 1.640150
v 1.072838 3.730446 0.190383
v 1.560574 3.730446 1.492859
v 1.454503 3.730446 1.474155
v 5.264133 0.101739 1.954530
v 5.926640 0.101739 -1.802736
v 1.520867 0.194577 -2.119653
v 1.577701 0.038366 -2.587220
v 1.507070 0.038366 -2.186654
v 1.558650 0.101953 -2.112991
v 1.589026 0.041563 -2.633037
v 1.593785 0.130989 -2.678437
v 1.593785 3.705011 -2.678437
v 1.608374 3.730446 -2.657602
v 1.697627 3.730446 -2.548425
v 2.340111 3.730446 -2.561936
v 2.288532 3.730446 -2.635598
v 1.384738 3.730446 -1.578487
v 1.072838 3.730446 0.190383
v 5.482642 0.194577 1.533119
v 5.425807 0.038366 2.000687
v 5.496438 0.038366 1.600120
v 5.444858 0.101953 1.526457
v 5.602438 0.038366 0.998958
v 5.414482 0.041563 2.046504
v 5.409723 0.130989 2.091903
v 5.409723 3.705011 2.091903
v 5.395134 3.730446 2.071068
v 5.305881 3.730446 1.961892
v 4.663396 3.730446 1.975402
v 4.714976 3.730446 2.049065
v 6.110435 3.705011 -1.882029
v 6.110435 0.130989 -1.882029
v 5.987840 0.194577 -1.332005
v 6.099379 0.041563 -1.837740
v 6.095619 0.051155 -1.871656
v 5.442934 3.730446 -2.079392
v 6.106772 3.730446 -1.786091
v 6.040051 3.730446 -1.397251
v 5.369271 3.730446 -2.027813
v 4.501530 3.730446 -2.245387
v 4.607601 3.730446 -2.226684
v 0.893074 3.705011 1.295496
v 0.893074 0.130989 1.295496
v 0.897321 3.730446 1.243209
v 0.913909 3.730446 1.280907
v 1.035120 3.730446 1.208841
v 0.943659 3.730446 1.309387
v 0.896735 3.730446 1.199557
v 0.913909 3.730446 1.280907
v 0.897321 3.730446 1.243209
v 5.917718 0.038366 -0.789084
v 1.604159 0.051155 -2.663621
v 1.564413 3.730446 -2.587032
v 1.494119 3.730446 -2.198821
v 3.229936 3.730446 -2.469604
v 3.123865 3.730446 -2.488307
v 5.399350 0.051155 2.077088
v 5.439095 3.730446 2.000498
v 5.509388 3.730446 1.612287
v 3.773571 3.730446 1.883070
v 3.879642 3.730446 1.901773
v 1.076867 0.101739 1.216202
v 5.264133 0.101739 1.954530
v 1.739375 0.101739 -2.541064
v 5.926640 0.101739 -1.802736
v 6.094350 0.038366 -1.790813
v 6.023719 0.038366 -1.390247
v 5.950057 0.101953 -1.338667
v 6.089599 3.730446 -1.867441
v 5.968388 3.730446 -1.795375
vn 0.0098 0.9999 -0.0109
vn 0.9999 0.0116 -0.0109
vn 0.0097 0.0116 -0.9999
vn 1.0000 -0.0000 -0.0000
vn 0.9999 -0.0000 -0.0109
vn -0.0000 1.0000 -0.0000
vn 0.0154 0.0016 0.9999
vn -0.0001 -0.0002 1.0000
vn -0.0006 0.0016 1.0000
vn -0.0006 0.0002 1.0000
vn 0.0031 -0.0002 1.0000
vn -0.0006 -0.0002 1.0000
vn -0.0032 -0.0002 1.0000
vn -0.0026 -0.0032 1.0000
vn -0.0000 -0.0032 1.0000
vn 0.0005 -0.0002 1.0000
vn -0.0000 -0.0000 -1.0000
vn 0.0098 -0.0000 -1.0000
vn -1.0000 -0.0000 -0.0000
vn -0.9999 0.0116 0.0109
vn -0.9999 0.0116 -0.0109
vn 0.9999 0.0116 0.0109
vn 0.0098 0.9999 0.0109
vn 0.0099 0.0116 0.9999
vn 0.9999 -0.0000 0.0110
vn 0.0153 0.0016 -0.9999
vn -0.0006 0.0017 -1.0000
vn -0.0001 -0.0002 -1.0000
vn -0.0005 0.0002 -1.0000
vn -0.0005 -0.0002 -1.0000
vn 0.0032 -0.0002 -1.0000
vn -0.0031 -0.0002 -1.0000
vn -0.0025 -0.0032 -1.0000
vn 0.0006 -0.0002 -1.0000
vn -0.0000 -0.0032 -1.0000
vn -0.0000 -0.0000 1.0000
vn 0.0099 -0.0000 1.0000
vn -0.0098 0.9999 -0.0109
vn -0.0099 0.0116 -0.9999
vn -0.9999 -0.0000 -0.0110
vn -0.0153 0.0016 0.9999
vn 0.0007 0.0016 1.0000
vn 0.0001 -0.0002 1.0000
vn 0.0005 0.0002 1.0000
vn 0.0025 -0.0032 1.0000
vn -0.0099 -0.0000 -1.0000
vn -0.0098 0.9999 0.0109
vn -0.0097 0.0116 0.9999
vn -0.9999 -0.0000 0.0109
vn -0.0154 0.0016 -0.9999
vn 0.0001 -0.0002 -1.0000
vn 0.0006 0.0016 -1.0000
vn 0.0006 0.0002 -1.0000
vn 0.0026 -0.0032 -1.0000
vn -0.0099 -0.0000 1.0000
vn -0.0026 0.0004 1.0000
vn -0.0153 0.0006 0.9999
vn -0.0246 0.7053 0.7084
vn -0.1616 0.7023 0.6932
vn -0.3550 0.1193 0.9272
vn -0.3550 -0.1193 0.9272
vn -0.9239 0.0059 0.3826
vn -0.9998 0.0036 0.0219
vn -0.9239 -0.0012 0.3825
vn -0.9998 -0.0026 0.0217
vn -0.9932 0.0082 -0.1164
vn -0.9882 -0.0026 -0.1534
vn -0.9911 0.0033 -0.1333
vn -0.9962 -0.0030 -0.0875
vn -0.7071 -0.7071 0.0066
vn -0.6966 -0.6966 -0.1716
vn -0.3818 -0.9242 0.0096
vn -0.3826 -0.9096 -0.1621
vn -0.3736 -0.9136 0.1605
vn -0.3735 -0.9136 -0.1605
vn -0.6960 -0.6960 0.1763
vn -0.6960 -0.6960 -0.1763
vn -0.9136 -0.3735 0.1605
vn -0.9226 -0.3836 0.0407
vn -0.6961 -0.6960 0.1763
vn -0.7065 -0.7064 0.0431
vn -0.3262 -0.8873 0.3261
vn -0.6858 -0.6859 0.2433
vn -0.3826 -0.0012 0.9239
vn -0.7071 -0.0008 0.7071
vn -0.3262 -0.3262 0.8873
vn -0.6858 -0.2433 0.6859
vn -0.9242 -0.3818 0.0096
vn -0.7071 -0.7070 0.0065
vn -0.8873 -0.3261 0.3261
vn -0.6859 -0.6858 0.2433
vn -0.2372 -0.4027 0.8841
vn -0.3659 0.1736 0.9143
vn -0.7071 0.0058 0.7071
vn -0.3827 0.0059 0.9239
vn -0.5000 0.7071 0.5000
vn -0.2671 0.7083 0.6534
vn 0.9999 -0.0000 -0.0110
vn -0.7162 0.6930 -0.0819
vn -0.7162 0.6930 0.0818
vn -0.9932 0.0083 0.1164
vn 0.0592 0.6895 0.7218
vn 0.2345 0.7066 0.6677
vn 0.3181 0.0061 0.9480
vn 0.3658 0.1737 0.9143
vn 0.0007 0.0025 1.0000
vn 0.0380 0.6859 0.7267
vn 0.3738 -0.0215 0.9273
vn -0.3738 -0.0215 0.9273
vn 0.7064 -0.7065 0.0431
vn 0.3836 -0.9226 0.0407
vn 0.7065 -0.7064 -0.0431
vn 0.3837 -0.9226 -0.0407
vn -0.0021 -0.9998 0.0217
vn -0.0024 -0.9962 -0.0868
vn 0.0022 -0.9998 0.0217
vn 0.0025 -0.9962 -0.0868
vn 0.0006 -0.7071 0.7071
vn 0.0009 -0.3826 0.9239
vn -0.0007 -0.7071 0.7071
vn -0.0010 -0.3826 0.9239
vn -0.0026 0.0005 -1.0000
vn -0.3826 0.0059 -0.9239
vn -0.3825 -0.0012 -0.9239
vn 0.3550 -0.1193 -0.9272
vn -0.3550 -0.1193 -0.9272
vn -0.7071 0.0059 -0.7071
vn -0.7071 -0.0008 -0.7071
vn -0.9239 0.0060 -0.3827
vn -0.9239 -0.0012 -0.3826
vn -0.3181 0.0060 -0.9480
vn -0.3738 -0.0215 -0.9273
vn -0.0154 0.0006 -0.9999
vn -0.9242 -0.3818 -0.0097
vn -0.7071 -0.7071 -0.0066
vn -0.9096 -0.3826 0.1621
vn -0.6966 -0.6966 0.1716
vn -0.0021 -0.9880 -0.1543
vn -0.0021 -0.9880 0.1543
vn -0.3735 -0.9136 0.1605
vn -0.0024 -0.9962 0.0868
vn -0.3826 -0.9096 0.1622
vn -0.9136 -0.3735 -0.1605
vn -0.9998 -0.0028 -0.0211
vn -0.9226 -0.3836 -0.0406
vn -0.0021 -0.9998 -0.0217
vn -0.3818 -0.9242 -0.0097
vn -0.0010 -0.9239 -0.3826
vn -0.3261 -0.8873 -0.3262
vn -0.0009 -0.3826 -0.9239
vn -0.0006 -0.7071 -0.7071
vn -0.3261 -0.3261 -0.8873
vn -0.2433 -0.6858 -0.6859
vn -0.8873 -0.3262 -0.3262
vn -0.6859 -0.2433 -0.6858
vn 0.0002 -0.0002 -1.0000
vn 0.2372 -0.4027 -0.8841
vn 0.0006 0.0025 -1.0000
vn 0.3659 0.1736 -0.9143
vn -0.5000 0.7071 -0.5000
vn -0.6553 0.7071 -0.2656
vn -0.9998 0.0036 -0.0219
vn -0.7075 0.7061 -0.0290
vn -0.3659 0.1737 -0.9143
vn -0.2345 0.7066 -0.6677
vn -0.0592 0.6895 -0.7218
vn -0.1616 0.7023 -0.6933
vn 0.0021 -0.9880 -0.1543
vn 0.0021 -0.9880 0.1543
vn -0.0007 0.0025 -1.0000
vn -0.3836 -0.9226 -0.0407
vn -0.0023 -0.9998 -0.0209
vn -0.3836 -0.9226 0.0407
vn -0.0023 -0.9998 0.0210
vn -0.0380 0.6859 -0.7267
vn 0.0380 0.6859 -0.7267
vn 0.0024 -0.9998 -0.0209
vn 0.0023 -0.9998 0.0209
vn 0.0026 0.0005 1.0000
vn 0.3826 0.0059 0.9239
vn 0.3825 -0.0012 0.9239
vn 0.3550 -0.1193 0.9272
vn 0.7071 0.0059 0.7071
vn 0.7071 -0.0008 0.7071
vn 0.9239 0.0060 0.3827
vn 0.9239 -0.0012 0.3826
vn 0.3181 0.0060 0.9480
vn 0.0154 0.0006 0.9999
vn 0.9242 -0.3818 0.0097
vn 0.7071 -0.7071 0.0066
vn 0.9096 -0.3826 -0.1621
vn 0.6966 -0.6966 -0.1716
vn 0.3735 -0.9136 0.1605
vn 0.3735 -0.9136 -0.1605
vn 0.3826 -0.9096 -0.1622
vn 0.9882 -0.0025 0.1534
vn 0.9136 -0.3735 0.1605
vn 0.9998 -0.0028 0.0211
vn 0.9226 -0.3836 0.0406
vn 0.3818 -0.9242 0.0096
vn 0.0010 -0.9239 0.3826
vn 0.3261 -0.8873 0.3262
vn 0.3261 -0.3261 0.8873
vn 0.2433 -0.6858 0.6859
vn 0.8873 -0.3262 0.3262
vn 0.6859 -0.2433 0.6858
vn -0.0002 -0.0002 1.0000
vn -0.0006 0.0025 1.0000
vn 0.5000 0.7071 0.5000
vn 0.6553 0.7071 0.2656
vn 0.9998 0.0036 0.0219
vn 0.7075 0.7061 0.0290
vn 0.1616 0.7023 0.6933
vn -0.3181 0.0061 -0.9480
vn 0.2372 -0.4026 -0.8841
vn -0.2371 -0.4026 -0.8841
vn -0.3550 0.1193 -0.9272
vn 0.3550 0.1193 -0.9272
vn 0.9998 0.0037 -0.0219
vn 0.9911 0.0034 0.1332
vn 0.9998 -0.0026 -0.0217
vn 0.9962 -0.0030 0.0875
vn 0.3181 0.0061 -0.9480
vn 0.3738 -0.0215 -0.9273
vn 0.3818 -0.9242 -0.0096
vn 0.3826 -0.9096 0.1621
vn 0.0021 -0.9998 -0.0217
vn 0.0025 -0.9962 0.0868
vn 0.6961 -0.6960 -0.1763
vn 0.6961 -0.6960 0.1763
vn 0.9136 -0.3735 -0.1605
vn 0.6966 -0.6966 0.1715
vn 0.9096 -0.3826 0.1621
vn 0.6960 -0.6960 -0.1763
vn 0.0010 -0.9239 -0.3826
vn 0.0007 -0.7071 -0.7071
vn 0.3262 -0.8873 -0.3261
vn 0.2433 -0.6859 -0.6858
vn 0.3262 -0.3262 -0.8873
vn 0.6858 -0.2433 -0.6859
vn 0.2433 -0.6858 -0.6859
vn 0.5774 -0.5773 -0.5774
vn 0.8873 -0.3261 -0.3261
vn 0.6859 -0.6858 -0.2433
vn 0.6859 -0.2433 -0.6858
vn 0.5773 -0.5774 -0.5774
vn -0.3658 0.1737 -0.9143
vn 0.2345 0.7066 -0.6676
vn 0.3826 0.0059 -0.9239
vn 0.0026 0.0005 -1.0000
vn 0.2671 0.7083 -0.6534
vn 0.0246 0.7053 -0.7084
vn 0.7162 0.6930 0.0819
vn 0.9932 0.0083 0.1163
vn 0.6914 0.7035 0.1646
vn 0.9994 0.0055 -0.0336
vn 0.9932 0.0083 -0.1164
vn 0.7295 0.6835 -0.0248
vn 0.7162 0.6930 -0.0818
vn 0.3550 0.1193 0.9272
vn -0.9882 -0.0026 0.1534
vn -0.9096 -0.3826 -0.1621
vn -0.9994 0.0055 0.0336
vn -0.9998 -0.0028 0.0212
vn -0.9136 -0.3736 -0.1605
vn -0.2433 -0.6859 0.6858
vn -0.5773 -0.5774 0.5774
vn 0.2371 -0.4026 0.8841
vn -0.3182 0.0060 0.9480
vn -0.2345 0.7066 0.6676
vn -0.7075 0.7061 0.0289
vn -0.6914 0.7035 -0.1646
vn -0.0593 0.6896 0.7218
vn 0.9998 -0.0029 -0.0212
vn 0.9226 -0.3836 -0.0407
vn -0.0380 0.6859 0.7267
vn -0.0010 -0.9239 0.3826
vn 0.3182 0.0060 -0.9480
vn 0.3738 -0.0215 -0.9272
vn -0.3550 0.1192 -0.9272
vn -0.9998 -0.0026 -0.0217
vn -0.9911 0.0034 0.1333
vn -0.9962 -0.0030 0.0876
vn -0.6961 -0.6960 -0.1763
vn -0.7064 -0.7065 -0.0431
vn -0.2433 -0.6859 -0.6858
vn -0.6858 -0.2433 -0.6859
vn -0.5773 -0.5774 -0.5773
vn -0.6859 -0.6858 -0.2433
vn -0.5774 -0.5773 -0.5774
vn -0.0253 0.7049 -0.7088
vn -0.2656 0.7071 -0.6554
vn -0.7162 0.6930 0.0819
vn -0.6914 0.7035 0.1645
vn -0.9932 0.0082 -0.1163
vn -0.7295 0.6835 -0.0248
vn -0.9994 0.0054 -0.0335
vn 0.0113 0.9999 0.0020
vn -0.7065 -0.7064 -0.0431
vn -0.3738 -0.0215 0.9272
vn 0.2371 -0.4027 0.8841
vn 0.3550 0.1192 0.9272
vn 0.9998 -0.0026 0.0217
vn 0.9911 0.0034 -0.1333
vn 0.9962 -0.0030 -0.0876
vn 0.6960 -0.6960 0.1763
vn 0.2433 -0.6859 0.6858
vn 0.6858 -0.2433 0.6859
vn 0.5773 -0.5774 0.5773
vn 0.6859 -0.6858 0.2433
vn 0.5774 -0.5773 0.5773
vn 0.0253 0.7049 0.7088
vn 0.2656 0.7071 0.6554
vn 0.7162 0.6930 -0.0819
vn 0.6914 0.7035 -0.1645
vn 0.7162 0.6930 0.0818
vn 0.9932 0.0082 0.1163
vn 0.7295 0.6835 0.0248
vn 0.9994 0.0054 0.0335
vn 0.3826 -0.0012 -0.9239
vn 0.7071 0.0059 -0.7071
vn 0.9239 0.0060 -0.3826
vn 0.7071 -0.0008 -0.7071
vn 0.9239 -0.0012 -0.3825
vn 0.0153 0.0006 -0.9999
vn 0.9242 -0.3818 -0.0096
vn 0.7071 -0.7070 -0.0066
vn 0.9882 -0.0026 -0.1534
vn 0.0010 -0.3826 -0.9239
vn 0.6554 0.7071 -0.2656
vn 0.5000 0.7071 -0.5000
vn 0.7075 0.7061 -0.0289
vn 0.0593 0.6896 -0.7218
vn 0.1616 0.7023 -0.6932
vn -0.6966 -0.6966 -0.1715
vn -0.2433 -0.6858 0.6859
vn -0.5774 -0.5773 0.5774
vn -0.6859 -0.2433 0.6858
vn -0.7295 0.6835 0.0248
vn -0.0113 0.9999 -0.0020
vn -0.6960 -0.6961 0.1763
vn -0.6858 -0.6859 -0.2433
vn -0.7071 0.0058 -0.7071
vn 0.6960 -0.6961 -0.1763
vn 0.7065 -0.7064 0.0431
vn 0.6858 -0.6859 0.2433
vn 0.7071 0.0058 0.7071
vn 0.7071 0.0058 -0.7071
vn 0.9882 -0.0026 0.1534
vn 0.6858 -0.6859 -0.2433
vn 0.5773 -0.5774 -0.5773
vn -0.7071 0.0059 0.7071
vn -0.6554 0.7071 0.2656
vn -0.5773 -0.5773 -0.5774
vn 0.5773 -0.5773 0.5774
vn 0.7071 -0.7071 -0.0066
vn 0.6966 -0.6966 0.1716
vn -0.9999 -0.0000 0.0110
vt 0.702110 0.126280
vt 0.698527 0.122697
vt 0.698498 0.126304
vt 0.969897 0.825555
vt 0.969936 0.710609
vt 0.753820 0.710516
vt 0.965937 0.608546
vt 0.970885 0.614839
vt 0.970915 0.600719
vt 0.241624 0.152384
vt 0.233313 0.194914
vt 0.242309 0.194068
vt 0.078294 0.195363
vt 0.039814 0.152757
vt 0.040039 0.195515
vt 0.039638 0.135079
vt 0.026163 0.110186
vt 0.027053 0.246512
vt 0.040079 0.211871
vt 0.482290 0.211582
vt 0.482307 0.151893
vt 0.482322 0.126312
vt 0.970700 0.658020
vt 0.965685 0.667820
vt 0.970633 0.672126
vt 0.040527 0.280993
vt 0.939327 0.267851
vt 0.943913 0.325827
vt 0.943918 0.209885
vt 0.959459 0.557712
vt 0.743315 0.442744
vt 0.743315 0.672682
vt 0.753820 0.940600
vt 0.733680 0.671508
vt 0.730070 0.671485
vt 0.730103 0.675094
vt 0.969938 0.940500
vt 0.957503 0.228032
vt 0.962503 0.235834
vt 0.962471 0.221745
vt 0.473027 0.336042
vt 0.473272 0.294603
vt 0.464245 0.293837
vt 0.308978 0.294671
vt 0.270658 0.294811
vt 0.270718 0.337569
vt 0.270672 0.355233
vt 0.257325 0.380225
vt 0.270577 0.278453
vt 0.257323 0.243916
vt 0.513878 0.586460
vt 0.513933 0.646125
vt 0.513961 0.671695
vt 0.962428 0.178526
vt 0.962441 0.164439
vt 0.957445 0.168701
vt 0.645424 0.404758
vt 0.703380 0.400173
vt 0.587469 0.400170
vt 0.270611 0.209367
vt 0.702320 0.382246
vt 0.698708 0.382226
vt 0.698744 0.385835
vt 0.959459 0.672682
vt 0.965986 0.522836
vt 0.970955 0.530676
vt 0.970938 0.516478
vt 0.242774 0.337983
vt 0.242973 0.296309
vt 0.233946 0.295564
vt 0.078984 0.297029
vt 0.040718 0.297352
vt 0.041069 0.340114
vt 0.041126 0.357792
vt 0.028004 0.382848
vt 0.482427 0.297479
vt 0.482578 0.357176
vt 0.482665 0.382761
vt 0.970792 0.472780
vt 0.970729 0.458558
vt 0.965785 0.462873
vt 0.733579 0.415324
vt 0.729999 0.411742
vt 0.729969 0.415350
vt 0.959458 0.442742
vt 0.957784 0.313576
vt 0.962768 0.319912
vt 0.962734 0.305736
vt 0.473175 0.151548
vt 0.464360 0.193797
vt 0.473366 0.193047
vt 0.308997 0.193119
vt 0.270782 0.150267
vt 0.270691 0.193013
vt 0.270746 0.132609
vt 0.257420 0.107632
vt 0.513819 0.500590
vt 0.513812 0.440926
vt 0.513810 0.415356
vt 0.962831 0.363609
vt 0.957869 0.373539
vt 0.962834 0.377835
vt 0.241277 0.108574
vt 0.241516 0.133805
vt 0.243426 0.108639
vt 0.243670 0.134164
vt 0.073832 0.199994
vt 0.044394 0.200240
vt 0.710385 0.135741
vt 0.710385 0.138822
vt 0.925196 0.135499
vt 0.925196 0.138582
vt 0.710346 0.168796
vt 0.921517 0.168596
vt 0.710400 0.163371
vt 0.925262 0.163134
vt 0.265554 0.396865
vt 0.240821 0.396868
vt 0.265485 0.399935
vt 0.241056 0.399930
vt 0.206680 0.403405
vt 0.235321 0.403496
vt 0.207026 0.400269
vt 0.235016 0.400339
vt 0.924808 0.197583
vt 0.928427 0.203285
vt 0.927980 0.197248
vt 0.931506 0.203215
vt 0.268603 0.399898
vt 0.268606 0.397225
vt 0.026132 0.107109
vt 0.026099 0.104030
vt 0.023005 0.107066
vt 0.023019 0.104391
vt 0.928264 0.138525
vt 0.931357 0.138455
vt 0.928307 0.135402
vt 0.930982 0.135393
vt 0.238083 0.199112
vt 0.242547 0.199088
vt 0.241239 0.102420
vt 0.241255 0.105498
vt 0.243508 0.102957
vt 0.243392 0.105632
vt 0.482324 0.122697
vt 0.708201 0.168380
vt 0.708206 0.198382
vt 0.710337 0.197961
vt 0.243746 0.151902
vt 0.243557 0.146746
vt 0.241544 0.146937
vt 0.242654 0.205992
vt 0.242390 0.211012
vt 0.244639 0.205846
vt 0.244511 0.210539
vt 0.043818 0.147584
vt 0.043800 0.140212
vt 0.199523 0.674782
vt 0.199470 0.671711
vt 0.090455 0.674222
vt 0.090538 0.671148
vt 0.265440 0.403006
vt 0.240975 0.402922
vt 0.263888 0.669170
vt 0.239428 0.668970
vt 0.021847 0.382905
vt 0.024926 0.382877
vt 0.020000 0.110200
vt 0.023080 0.110186
vt 0.473200 0.379721
vt 0.473207 0.382796
vt 0.257325 0.383300
vt 0.274957 0.283212
vt 0.275122 0.290130
vt 0.710437 0.383676
vt 0.925358 0.383751
vt 0.710445 0.380593
vt 0.925350 0.380666
vt 0.473071 0.349119
vt 0.274807 0.350065
vt 0.473152 0.354540
vt 0.928416 0.377636
vt 0.931510 0.377701
vt 0.928373 0.353110
vt 0.931422 0.352862
vt 0.086531 0.405953
vt 0.086331 0.402761
vt 0.057455 0.405752
vt 0.057691 0.402554
vt 0.052048 0.401918
vt 0.051995 0.398929
vt 0.921670 0.318363
vt 0.924881 0.318583
vt 0.925439 0.312904
vt 0.928493 0.312878
vt 0.027588 0.401738
vt 0.027573 0.398670
vt 0.024516 0.401709
vt 0.024457 0.398596
vt 0.254223 0.380235
vt 0.251145 0.380240
vt 0.254190 0.383361
vt 0.251512 0.383335
vt 0.928463 0.380760
vt 0.928419 0.383438
vt 0.464254 0.278309
vt 0.468954 0.282658
vt 0.473101 0.277785
vt 0.473366 0.282723
vt 0.708182 0.383122
vt 0.708356 0.380446
vt 0.710445 0.377512
vt 0.708280 0.377433
vt 0.957622 0.143133
vt 0.962522 0.138828
vt 0.955087 0.140554
vt 0.956062 0.132245
vt 0.962056 0.136238
vt 0.958644 0.132761
vt 0.960696 0.134160
vt 0.733678 0.400175
vt 0.760389 0.404764
vt 0.473519 0.289580
vt 0.475512 0.289445
vt 0.475404 0.294207
vt 0.475299 0.354153
vt 0.475092 0.348939
vt 0.085122 0.664293
vt 0.056059 0.664208
vt 0.473271 0.209882
vt 0.464354 0.209333
vt 0.092022 0.399151
vt 0.091978 0.402205
vt 0.201031 0.399741
vt 0.201042 0.402792
vt 0.475394 0.209429
vt 0.475220 0.278243
vt 0.308984 0.209179
vt 0.308993 0.278612
vt 0.090525 0.668098
vt 0.199514 0.668659
vt 0.242979 0.381770
vt 0.242994 0.384847
vt 0.028011 0.385925
vt 0.044934 0.285730
vt 0.045145 0.292649
vt 0.521318 0.945825
vt 0.736239 0.945854
vt 0.521322 0.942742
vt 0.736233 0.942769
vt 0.242825 0.351109
vt 0.045217 0.352609
vt 0.242904 0.356550
vt 0.739298 0.939737
vt 0.742392 0.939801
vt 0.739251 0.915214
vt 0.742300 0.914964
vt 0.204959 0.664913
vt 0.205157 0.668106
vt 0.234022 0.665134
vt 0.233784 0.668332
vt 0.239477 0.671958
vt 0.732537 0.880482
vt 0.735745 0.880700
vt 0.736304 0.875024
vt 0.739361 0.874999
vt 0.263897 0.672239
vt 0.266958 0.669199
vt 0.267014 0.672313
vt 0.024887 0.386001
vt 0.022211 0.385986
vt 0.739345 0.942860
vt 0.739300 0.945538
vt 0.233895 0.279941
vt 0.238619 0.284297
vt 0.242740 0.279367
vt 0.243036 0.284342
vt 0.519063 0.945271
vt 0.519236 0.942595
vt 0.521322 0.939660
vt 0.519159 0.939581
vt 0.965585 0.437282
vt 0.970411 0.432887
vt 0.963007 0.434749
vt 0.963825 0.426425
vt 0.969894 0.430305
vt 0.966415 0.426893
vt 0.968494 0.428253
vt 0.943916 0.356137
vt 0.939332 0.382858
vt 0.243213 0.291250
vt 0.245207 0.291110
vt 0.245106 0.295908
vt 0.245052 0.356160
vt 0.244847 0.350928
vt 0.473161 0.146117
vt 0.274838 0.145134
vt 0.469083 0.198016
vt 0.469194 0.205003
vt 0.304624 0.204519
vt 0.304492 0.197715
vt 0.521271 0.700942
vt 0.521285 0.725490
vt 0.736202 0.700795
vt 0.736230 0.725345
vt 0.473214 0.138450
vt 0.274880 0.137770
vt 0.026105 0.670986
vt 0.050531 0.670976
vt 0.026149 0.667919
vt 0.050609 0.667985
vt 0.738917 0.759450
vt 0.738798 0.731323
vt 0.735745 0.759782
vt 0.735666 0.731011
vt 0.742279 0.725516
vt 0.739227 0.725267
vt 0.084545 0.670619
vt 0.084890 0.667483
vt 0.023075 0.667913
vt 0.020000 0.667907
vt 0.022987 0.671027
vt 0.020317 0.670983
vt 0.254285 0.104495
vt 0.254322 0.101821
vt 0.251609 0.104522
vt 0.252159 0.102361
vt 0.739316 0.697620
vt 0.741994 0.697616
vt 0.739272 0.694942
vt 0.741434 0.695462
vt 0.473544 0.198038
vt 0.473578 0.204898
vt 0.475607 0.198203
vt 0.475563 0.204771
vt 0.473333 0.104751
vt 0.473330 0.107826
vt 0.475469 0.104905
vt 0.475476 0.107914
vt 0.519088 0.730499
vt 0.521229 0.730916
vt 0.519202 0.725111
vt 0.521265 0.765509
vt 0.521215 0.760084
vt 0.519179 0.766040
vt 0.519080 0.760504
vt 0.966667 0.367464
vt 0.966669 0.373979
vt 0.074017 0.206806
vt 0.044554 0.207158
vt 0.078410 0.211443
vt 0.921597 0.197806
vt 0.928256 0.163051
vt 0.710388 0.203385
vt 0.925372 0.203263
vt 0.924699 0.168800
vt 0.206447 0.406596
vt 0.271273 0.399946
vt 0.270754 0.397784
vt 0.238266 0.206139
vt 0.241504 0.139249
vt 0.243584 0.139437
vt 0.708219 0.138900
vt 0.708318 0.162992
vt 0.529570 0.396453
vt 0.530468 0.404764
vt 0.553344 0.396341
vt 0.557176 0.400173
vt 0.244446 0.194443
vt 0.974742 0.604547
vt 0.974727 0.611028
vt 0.965536 0.693343
vt 0.970376 0.697713
vt 0.736307 0.765457
vt 0.739363 0.765482
vt 0.078893 0.280952
vt 0.233465 0.210538
vt 0.244863 0.279814
vt 0.947744 0.321994
vt 0.947749 0.213716
vt 0.235522 0.406697
vt 0.268511 0.403011
vt 0.473014 0.341464
vt 0.274768 0.342700
vt 0.469095 0.289628
vt 0.304620 0.290003
vt 0.304479 0.283199
vt 0.925347 0.377583
vt 0.710454 0.352964
vt 0.925379 0.353031
vt 0.928051 0.318914
vt 0.927940 0.347053
vt 0.924808 0.347365
vt 0.086018 0.399622
vt 0.091969 0.396079
vt 0.021439 0.401685
vt 0.021786 0.398616
vt 0.254230 0.386036
vt 0.252066 0.385496
vt 0.931138 0.380764
vt 0.930580 0.382919
vt 0.475419 0.282879
vt 0.475359 0.379641
vt 0.475316 0.382677
vt 0.708252 0.347956
vt 0.708371 0.353344
vt 0.710394 0.347539
vt 0.708224 0.317955
vt 0.710358 0.318374
vt 0.708318 0.312419
vt 0.710407 0.312949
vt 0.966268 0.174721
vt 0.966272 0.168251
vt 0.750208 0.940600
vt 0.750208 0.710516
vt 0.931574 0.312944
vt 0.242765 0.343426
vt 0.045137 0.345239
vt 0.238785 0.291311
vt 0.074601 0.292377
vt 0.074416 0.285566
vt 0.736232 0.939687
vt 0.521321 0.915111
vt 0.736256 0.915138
vt 0.738918 0.881031
vt 0.738812 0.909157
vt 0.735682 0.909471
vt 0.205469 0.671245
vt 0.270035 0.669225
vt 0.269683 0.672296
vt 0.024932 0.388676
vt 0.022767 0.388144
vt 0.742021 0.942863
vt 0.741463 0.945018
vt 0.245091 0.284488
vt 0.245140 0.381687
vt 0.245104 0.384724
vt 0.519119 0.910103
vt 0.519241 0.915491
vt 0.521261 0.909685
vt 0.519098 0.880097
vt 0.521232 0.880516
vt 0.519193 0.874561
vt 0.521278 0.875091
vt 0.974608 0.468908
vt 0.974581 0.462395
vt 0.257415 0.104557
vt 0.275016 0.197766
vt 0.275125 0.204683
vt 0.521259 0.694777
vt 0.521270 0.697860
vt 0.736209 0.694627
vt 0.736202 0.697713
vt 0.473292 0.133020
vt 0.739270 0.700744
vt 0.742366 0.700678
vt 0.056264 0.667409
vt 0.732533 0.760002
vt 0.254327 0.107619
vt 0.251249 0.107611
vt 0.519156 0.697974
vt 0.519063 0.695350
vt 0.519101 0.701019
vt 0.957778 0.399150
vt 0.955209 0.401695
vt 0.962624 0.403526
vt 0.962117 0.406111
vt 0.956062 0.410017
vt 0.960725 0.408170
vt 0.958651 0.409539
vt 0.943920 0.179581
vt 0.939332 0.152867
vt 0.475498 0.193445
vt 0.475441 0.133403
vt 0.475291 0.138663
vt 0.927833 0.169108
vt 0.931305 0.163294
vt 0.201116 0.396668
vt 0.271587 0.403018
vt 0.020329 0.107113
vt 0.020860 0.104949
vt 0.928259 0.132724
vt 0.930421 0.133239
vt 0.244613 0.199230
vt 0.708302 0.203916
vt 0.974517 0.661853
vt 0.974484 0.668330
vt 0.739701 0.672682
vt 0.739701 0.442744
vt 0.921627 0.347572
vt 0.027537 0.395597
vt 0.052263 0.395873
vt 0.058027 0.399402
vt 0.024483 0.395927
vt 0.257322 0.386378
vt 0.473222 0.385873
vt 0.475413 0.385295
vt 0.513964 0.675309
vt 0.475154 0.336496
vt 0.475083 0.341664
vt 0.699548 0.396340
vt 0.591301 0.396338
vt 0.732497 0.909681
vt 0.263931 0.675309
vt 0.239205 0.675015
vt 0.233446 0.671483
vt 0.742443 0.875066
vt 0.266984 0.674984
vt 0.028016 0.389004
vt 0.243017 0.387925
vt 0.245207 0.387342
vt 0.482677 0.386378
vt 0.244902 0.338437
vt 0.244835 0.343626
vt 0.473343 0.101675
vt 0.257409 0.101479
vt 0.732480 0.730803
vt 0.022989 0.673701
vt 0.020839 0.673143
vt 0.475175 0.145951
vt 0.947641 0.151971
vt 0.947750 0.175747
vt 0.475301 0.151094
vt 0.966579 0.309565
vt 0.966594 0.316065
vt 0.710373 0.132657
vt 0.925198 0.132414
vt 0.708273 0.135855
vt 0.708182 0.133232
vt 0.962966 0.695885
vt 0.969873 0.700295
vt 0.963825 0.704202
vt 0.968484 0.702353
vt 0.966413 0.703723
vt 0.742441 0.765415
vt 0.022329 0.396462
vt 0.761287 0.396453
vt 0.737510 0.396342
vt 0.966331 0.232016
vt 0.966314 0.225545
vt 0.269139 0.674449
vt 0.947641 0.383751
vt 0.947747 0.359972
vt 0.974784 0.526826
vt 0.974778 0.520321
vt 0.512605 0.945854
vt 0.512605 0.689598
vt 0.282665 0.945854
vt 0.282665 0.689598
vt 0.026038 0.674056
vt 0.050767 0.674034
vt 0.056572 0.670569
vt 0.475607 0.102232
vt 0.513810 0.411742
s 1
f 1/1/1 2/2/2 3/3/3
f 4/4/4 5/5/5 6/6/2
s 0
f 7/7/6 8/8/6 9/9/6
s 1
f 10/10/7 11/11/8 12/12/9
f 13/13/10 14/14/11 15/15/12
f 16/16/13 17/17/14 14/14/11
f 15/15/12 18/18/15 19/19/16
f 20/20/17 3/3/3 21/21/17
f 21/21/17 3/3/3 22/22/18
s 0
f 23/23/6 24/24/6 25/25/6
s 1
f 18/18/15 26/26/12 19/19/16
s 0
f 27/27/6 28/28/6 29/29/6
s 1
f 30/30/19 31/31/20 32/32/21
f 4/4/4 6/6/2 33/33/22
f 34/34/23 35/35/24 36/36/22
f 4/4/4 33/33/22 37/37/25
s 0
f 38/38/6 39/39/6 40/40/6
s 1
f 41/41/26 42/42/27 43/43/28
f 44/44/29 45/45/30 46/46/31
f 47/47/32 46/46/31 48/48/33
f 45/45/30 49/49/34 50/50/35
f 51/51/36 52/52/36 35/35/24
f 52/52/36 53/53/37 35/35/24
s 0
f 54/54/6 55/55/6 56/56/6
f 57/57/6 58/58/6 59/59/6
s 1
f 50/50/35 49/49/34 60/60/30
f 61/61/38 62/62/39 63/63/21
f 30/30/19 32/32/21 64/64/40
s 0
f 65/65/6 66/66/6 67/67/6
s 1
f 68/68/41 69/69/42 70/70/43
f 71/71/44 72/72/16 73/73/13
f 74/74/11 73/73/13 75/75/45
f 72/72/16 26/26/12 18/18/15
f 76/76/17 77/77/17 62/62/39
f 77/77/17 78/78/46 62/62/39
s 0
f 79/79/6 80/80/6 81/81/6
s 1
f 82/82/47 83/83/20 84/84/48
f 30/30/19 85/85/49 31/31/20
s 0
f 86/86/6 87/87/6 88/88/6
s 1
f 89/89/50 90/90/51 91/91/52
f 92/92/53 93/93/32 94/94/34
f 95/95/31 96/96/54 93/93/32
f 94/94/34 50/50/35 60/60/30
f 97/97/36 84/84/48 98/98/36
f 98/98/36 84/84/48 99/99/55
s 0
f 100/100/6 101/101/6 102/102/6
s 1
f 11/11/8 10/10/7 13/13/10
f 14/14/11 13/13/10 10/10/7
f 103/103/56 104/104/57 105/105/58
f 106/106/59 105/105/58 104/104/57
f 13/13/10 15/15/12 107/107/60
f 108/108/61 107/107/60 15/15/12
f 109/109/62 110/110/63 111/111/64
f 112/112/65 111/111/64 110/110/63
f 113/113/66 114/114/67 115/115/68
f 116/116/69 115/115/68 114/114/67
f 117/117/70 118/118/71 119/119/72
f 120/120/73 119/119/72 118/118/71
f 121/121/74 122/122/75 123/123/76
f 124/124/77 123/123/76 122/122/75
f 122/122/75 120/120/73 124/124/77
f 118/118/71 124/124/77 120/120/73
f 125/125/78 126/126/79 127/127/80
f 128/128/81 127/127/80 126/126/79
f 119/119/72 129/129/82 117/117/70
f 130/130/83 117/117/70 129/129/82
f 131/131/84 132/132/85 133/133/86
f 134/134/87 133/133/86 132/132/85
f 135/135/88 136/136/89 137/137/90
f 138/138/91 137/137/90 136/136/89
f 11/11/8 139/139/92 12/12/9
f 140/140/93 12/12/9 139/139/92
f 141/141/94 142/142/95 143/143/96
f 144/144/97 143/143/96 142/142/95
f 2/2/2 145/145/98 3/3/3
f 22/22/18 3/3/3 145/145/98
f 146/146/99 147/147/100 113/113/66
f 148/148/101 113/113/66 147/147/100
f 149/149/102 150/150/103 10/10/7
f 151/151/104 10/10/7 150/150/103
f 152/152/105 153/153/106 154/154/103
f 155/155/107 154/154/103 153/153/106
s 0
f 8/8/6 7/7/6 23/23/6
f 24/24/6 23/23/6 7/7/6
s 1
f 14/14/11 156/156/108 16/16/13
f 157/157/109 16/16/13 156/156/108
f 17/17/14 18/18/15 14/14/11
f 15/15/12 14/14/11 18/18/15
f 158/158/110 159/159/111 160/160/112
f 161/161/113 160/160/112 159/159/111
f 1/1/1 3/3/3 61/61/38
f 62/62/39 61/61/38 3/3/3
f 162/162/114 163/163/115 164/164/116
f 165/165/117 164/164/116 163/163/115
f 166/166/118 167/167/119 168/168/120
f 169/169/121 168/168/120 167/167/119
f 170/170/122 48/48/33 171/171/123
f 172/172/124 171/171/123 48/48/33
f 49/49/34 45/45/30 173/173/125
f 174/174/126 173/173/125 45/45/30
f 175/175/127 176/176/128 177/177/129
f 178/178/130 177/177/129 176/176/128
f 179/179/131 180/180/132 181/181/133
f 47/47/32 181/181/133 180/180/132
f 182/182/134 183/183/135 184/184/136
f 185/185/137 184/184/136 183/183/135
f 186/186/138 187/187/75 188/188/139
f 189/189/140 188/188/139 187/187/75
f 188/188/139 189/189/140 190/190/141
f 191/191/142 190/190/141 189/189/140
f 192/192/67 193/193/143 194/194/144
f 195/195/145 194/194/144 193/193/143
f 196/196/146 197/197/147 198/198/148
f 199/199/149 198/198/148 197/197/147
f 200/200/150 201/201/151 202/202/152
f 203/203/153 202/202/152 201/201/151
f 178/178/130 176/176/128 204/204/154
f 205/205/155 204/204/154 176/176/128
f 206/206/156 207/207/157 208/208/158
f 209/209/159 208/208/158 207/207/157
f 175/175/127 177/177/129 210/210/160
f 211/211/161 210/210/160 177/177/129
f 212/212/162 213/213/163 177/177/129
f 211/211/161 177/177/129 213/213/163
s 0
f 214/214/6 215/215/6 216/216/6
f 217/217/6 216/216/6 215/215/6
f 215/215/6 218/218/6 217/217/6
f 219/219/6 217/217/6 218/218/6
f 218/218/6 220/220/6 219/219/6
f 221/221/6 58/58/6 222/222/6
f 57/57/6 222/222/6 58/58/6
s 1
f 223/223/164 42/42/27 224/224/165
f 225/225/166 224/224/165 42/42/27
f 226/226/167 227/227/165 181/181/133
f 179/179/131 181/181/133 227/227/165
f 181/181/133 47/47/32 170/170/122
f 48/48/33 170/170/122 47/47/32
f 202/202/152 172/172/124 200/200/150
f 48/48/33 200/200/150 172/172/124
f 186/186/138 188/188/139 228/228/168
f 229/229/169 228/228/168 188/188/139
f 230/230/170 231/231/28 208/208/158
f 206/206/156 208/208/158 231/231/28
f 232/232/171 233/233/172 234/234/173
f 235/235/174 234/234/173 233/233/172
f 236/236/175 230/230/170 237/237/176
f 208/208/158 237/237/176 230/230/170
f 231/231/28 238/238/29 206/206/156
f 239/239/53 206/206/156 238/238/29
f 240/240/177 241/241/178 233/233/172
f 235/235/174 233/233/172 241/241/178
f 242/242/179 75/75/45 243/243/180
f 244/244/181 243/243/180 75/75/45
f 26/26/12 72/72/16 245/245/61
f 246/246/182 245/245/61 72/72/16
f 247/247/183 248/248/184 249/249/185
f 250/250/186 249/249/185 248/248/184
f 251/251/187 252/252/108 253/253/188
f 74/74/11 253/253/188 252/252/108
f 254/254/189 255/255/190 256/256/191
f 257/257/192 256/256/191 255/255/190
f 258/258/169 259/259/193 260/260/168
f 261/261/194 260/260/168 259/259/193
f 260/260/168 261/261/194 165/165/117
f 262/262/195 165/165/117 261/261/194
f 263/263/196 264/264/197 265/265/198
f 266/266/199 265/265/198 264/264/197
f 164/164/116 267/267/200 268/268/201
f 269/269/202 268/268/201 267/267/200
f 167/167/119 166/166/118 270/270/203
f 271/271/204 270/270/203 166/166/118
f 250/250/186 248/248/184 272/272/205
f 273/273/206 272/272/205 248/248/184
f 274/274/207 275/275/92 276/276/208
f 277/277/93 276/276/208 275/275/92
f 247/247/183 249/249/185 278/278/209
f 279/279/210 278/278/209 249/249/185
f 280/280/211 281/281/212 249/249/185
f 279/279/210 249/249/185 281/281/212
s 0
f 282/282/6 283/283/6 284/284/6
f 285/285/6 284/284/6 283/283/6
f 283/283/6 286/286/6 285/285/6
f 287/287/6 285/285/6 286/286/6
f 286/286/6 288/288/6 287/287/6
f 289/289/6 28/28/6 290/290/6
f 27/27/6 290/290/6 28/28/6
s 1
f 291/291/105 69/69/42 292/292/103
f 293/293/102 292/292/103 69/69/42
f 294/294/213 295/295/103 253/253/188
f 251/251/187 253/253/188 295/295/103
f 253/253/188 74/74/11 242/242/179
f 75/75/45 242/242/179 74/74/11
f 270/270/203 244/244/181 167/167/119
f 75/75/45 167/167/119 244/244/181
f 296/296/214 297/297/132 89/89/50
f 93/93/32 89/89/50 297/297/132
f 90/90/51 231/231/28 298/298/215
f 299/299/216 298/298/215 231/231/28
f 238/238/29 92/92/53 300/300/217
f 301/301/218 300/300/217 92/92/53
f 302/302/219 303/303/220 304/304/221
f 305/305/222 304/304/221 303/303/220
f 296/296/214 306/306/223 297/297/132
f 307/307/224 297/297/132 306/306/223
f 308/308/225 309/309/226 310/310/227
f 311/311/228 310/310/227 309/309/226
f 312/312/229 313/313/230 314/314/231
f 315/315/197 314/314/231 313/313/230
f 316/316/232 317/317/233 313/313/230
f 315/315/197 313/313/230 317/317/233
f 160/160/112 161/161/113 318/318/234
f 319/319/194 318/318/234 161/161/113
f 320/320/235 321/321/236 322/322/237
f 323/323/238 322/322/237 321/321/236
f 324/324/239 325/325/240 326/326/241
f 327/327/242 326/326/241 325/325/240
f 328/328/243 329/329/244 330/330/245
f 331/331/246 330/330/245 329/329/244
f 332/332/159 333/333/247 334/334/248
f 335/335/165 334/334/248 333/333/247
f 336/336/249 337/337/250 338/338/251
f 339/339/252 338/338/251 337/337/250
f 340/340/253 341/341/254 342/342/255
f 303/303/220 342/342/255 341/341/254
f 343/343/256 344/344/257 345/345/258
f 346/346/259 345/345/258 344/344/257
s 0
f 100/100/6 102/102/6 347/347/6
f 348/348/6 347/347/6 102/102/6
s 1
f 231/231/28 90/90/51 238/238/29
f 92/92/53 238/238/29 90/90/51
f 107/107/60 108/108/61 349/349/260
f 350/350/182 349/349/260 108/108/61
f 19/19/16 351/351/44 350/350/182
f 349/349/260 350/350/182 351/351/44
f 142/142/95 141/141/94 131/131/84
f 132/132/85 131/131/84 141/141/94
f 113/113/66 148/148/101 114/114/67
f 352/352/261 114/114/67 148/148/101
f 112/112/65 116/116/69 135/135/88
f 353/353/262 135/135/88 116/116/69
f 148/148/101 354/354/263 352/352/261
f 355/355/264 352/352/261 354/354/263
f 125/125/78 356/356/265 352/352/261
f 114/114/67 352/352/261 356/356/265
f 353/353/262 116/116/69 356/356/265
f 114/114/67 356/356/265 116/116/69
f 234/234/173 235/235/174 121/121/74
f 357/357/139 121/121/74 235/235/174
f 129/129/82 358/358/266 130/130/83
f 359/359/267 130/130/83 358/358/266
f 112/112/65 135/135/88 111/111/64
f 137/137/90 111/111/64 135/135/88
f 140/140/93 139/139/92 152/152/105
f 360/360/268 152/152/105 139/139/92
f 361/361/269 151/151/104 362/362/270
f 150/150/103 362/362/270 151/151/104
f 363/363/271 364/364/272 110/110/63
f 115/115/68 110/110/63 364/364/272
s 0
f 365/365/6 366/366/6 367/367/6
f 368/368/6 367/367/6 366/366/6
s 1
f 149/149/102 10/10/7 369/369/273
f 12/12/9 369/369/273 10/10/7
s 0
f 9/9/6 8/8/6 370/370/6
f 371/371/6 370/370/6 8/8/6
f 24/24/6 372/372/6 25/25/6
f 373/373/6 25/25/6 372/372/6
s 1
f 265/265/198 266/266/199 374/374/274
f 375/375/275 374/374/274 266/266/199
f 159/159/111 241/241/178 161/161/113
f 240/240/177 161/161/113 241/241/178
f 376/376/10 274/274/207 351/351/44
f 377/377/43 351/351/44 274/274/207
f 155/155/107 153/153/106 378/378/276
f 276/276/208 378/378/276 153/153/106
s 0
f 28/28/6 379/379/6 29/29/6
f 380/380/6 29/29/6 379/379/6
s 1
f 163/163/115 381/381/138 165/165/117
f 260/260/168 165/165/117 381/381/138
f 164/164/116 268/268/201 162/162/114
f 382/382/277 162/162/114 268/268/201
f 383/383/278 41/41/26 384/384/279
f 46/46/31 384/384/279 41/41/26
f 206/206/156 43/43/28 207/207/157
f 385/385/216 207/207/157 43/43/28
f 44/44/29 239/239/53 386/386/280
f 387/387/218 386/386/280 239/239/53
f 212/212/162 388/388/281 389/389/282
f 390/390/283 389/389/282 388/388/281
f 383/383/278 384/384/279 179/179/131
f 180/180/132 179/179/131 384/384/279
f 197/197/147 196/196/146 191/191/142
f 190/190/141 191/191/142 196/196/146
f 391/391/284 193/193/143 392/392/80
f 393/393/78 392/392/80 193/193/143
f 393/393/78 184/184/136 392/392/80
f 185/185/137 392/392/80 184/184/136
f 187/187/75 232/232/171 394/394/77
f 395/395/285 394/394/77 232/232/171
f 198/198/148 199/199/149 396/396/151
f 397/397/286 396/396/151 199/199/149
f 202/202/152 203/203/153 398/398/287
f 399/399/288 398/398/287 203/203/153
f 204/204/154 205/205/155 400/400/289
f 401/401/290 400/400/289 205/205/155
f 209/209/159 223/223/164 402/402/248
f 224/224/165 402/402/248 223/223/164
f 170/170/122 171/171/123 403/403/291
f 404/404/292 403/403/291 171/171/123
f 405/405/293 406/406/294 407/407/101
f 389/389/282 407/407/101 406/406/294
f 408/408/99 409/409/295 410/410/296
f 411/411/297 410/410/296 409/409/295
s 0
f 54/54/6 412/412/6 55/55/6
f 413/413/6 55/55/6 412/412/6
s 1
f 206/206/156 239/239/53 43/43/28
f 44/44/29 43/43/28 239/239/53
f 198/198/148 396/396/151 320/320/235
f 321/321/236 320/320/235 396/396/151
f 233/233/172 186/186/138 240/240/177
f 228/228/168 240/240/177 186/186/138
f 414/414/298 33/33/22 415/415/1
f 6/6/2 415/415/1 33/33/22
f 195/195/145 416/416/299 126/126/79
f 128/128/81 126/126/79 416/416/299
s 0
f 86/86/6 88/88/6 38/38/6
f 39/39/6 38/38/6 88/88/6
s 1
f 417/417/269 68/68/41 418/418/300
f 73/73/13 418/418/300 68/68/41
f 274/274/207 70/70/43 275/275/92
f 419/419/301 275/275/92 70/70/43
f 71/71/44 376/376/10 420/420/302
f 421/421/60 420/420/302 376/376/10
f 280/280/211 422/422/303 423/423/304
f 424/424/305 423/423/304 422/422/303
f 417/417/269 418/418/300 251/251/187
f 252/252/108 251/251/187 418/418/300
f 267/267/200 164/164/116 262/262/195
f 165/165/117 262/262/195 164/164/116
f 425/425/230 264/264/197 426/426/229
f 427/427/231 426/426/229 264/264/197
f 427/427/231 256/256/191 426/426/229
f 257/257/192 426/426/229 256/256/191
f 259/259/193 159/159/111 428/428/306
f 158/158/110 428/428/306 159/159/111
f 268/268/201 269/269/202 429/429/118
f 430/430/307 429/429/118 269/269/202
f 270/270/203 271/271/204 431/431/308
f 432/432/309 431/431/308 271/271/204
f 272/272/205 273/273/206 433/433/310
f 434/434/311 433/433/310 273/273/206
f 277/277/93 291/291/105 435/435/270
f 292/292/103 435/435/270 291/291/105
f 242/242/179 243/243/180 436/436/312
f 437/437/313 436/436/312 243/243/180
f 438/438/314 439/439/315 440/440/257
f 423/423/304 440/440/257 439/439/315
f 441/441/316 442/442/317 443/443/318
f 444/444/319 443/443/318 442/442/317
s 0
f 79/79/6 445/445/6 80/80/6
f 446/446/6 80/80/6 445/445/6
s 1
f 274/274/207 376/376/10 70/70/43
f 71/71/44 70/70/43 376/376/10
f 337/337/250 336/336/249 96/96/54
f 447/447/320 96/96/54 336/336/249
f 94/94/34 60/60/30 448/448/125
f 449/449/126 448/448/125 60/60/30
f 450/450/321 451/451/322 452/452/323
f 453/453/324 452/452/323 451/451/322
f 306/306/223 454/454/325 307/307/224
f 95/95/31 307/307/224 454/454/325
f 455/455/326 317/317/233 456/456/327
f 316/316/232 456/456/327 317/317/233
f 228/228/168 229/229/169 319/319/194
f 457/457/193 319/319/194 229/229/169
f 229/229/169 311/311/228 457/457/193
f 309/309/226 457/457/193 311/311/228
f 458/458/328 374/374/274 314/314/231
f 375/375/275 314/314/231 374/374/274
f 310/310/227 320/320/235 308/308/225
f 322/322/237 308/308/225 320/320/235
f 459/459/329 324/324/239 460/460/236
f 326/326/241 460/460/236 324/324/239
f 453/453/324 328/328/243 452/452/323
f 330/330/245 452/452/323 328/328/243
f 231/231/28 230/230/170 299/299/216
f 333/333/247 299/299/216 230/230/170
f 451/451/322 450/450/321 461/461/330
f 462/462/331 461/461/330 450/450/321
f 302/302/219 451/451/322 463/463/332
f 461/461/330 463/463/332 451/451/322
s 0
f 464/464/6 465/465/6 466/466/6
f 467/467/6 466/466/6 465/465/6
f 465/465/6 468/468/6 467/467/6
f 469/469/6 467/467/6 468/468/6
f 468/468/6 470/470/6 469/469/6
f 471/471/6 472/472/6 29/29/6
f 27/27/6 29/29/6 472/472/6
s 1
f 473/473/333 91/91/52 334/334/248
f 332/332/159 334/334/248 91/91/52
f 474/474/334 454/454/325 475/475/248
f 306/306/223 475/475/248 454/454/325
f 454/454/325 337/337/250 95/95/31
f 96/96/54 95/95/31 337/337/250
f 324/324/239 459/459/329 447/447/320
f 96/96/54 447/447/320 459/459/329
f 151/151/104 156/156/108 10/10/7
f 14/14/11 10/10/7 156/156/108
f 11/11/8 377/377/43 139/139/92
f 360/360/268 139/139/92 377/377/43
f 351/351/44 13/13/10 349/349/260
f 107/107/60 349/349/260 13/13/10
f 110/110/63 115/115/68 112/112/65
f 116/116/69 112/112/65 115/115/68
f 151/151/104 361/361/269 156/156/108
f 157/157/109 156/156/108 361/361/269
f 119/119/72 120/120/73 162/162/114
f 163/163/115 162/162/114 120/120/73
f 127/127/80 476/476/284 125/125/78
f 356/356/265 125/125/78 476/476/284
f 477/477/335 353/353/262 476/476/284
f 356/356/265 476/476/284 353/353/262
f 478/478/81 234/234/173 123/123/76
f 121/121/74 123/123/76 234/234/173
f 382/382/277 479/479/120 129/129/82
f 358/358/266 129/129/82 479/479/120
f 133/133/86 134/134/87 480/480/336
f 481/481/337 480/480/336 134/134/87
f 137/137/90 138/138/91 482/482/338
f 483/483/267 482/482/338 138/138/91
f 140/140/93 152/152/105 484/484/270
f 154/154/103 484/484/270 152/152/105
f 142/142/95 103/103/56 144/144/97
f 105/105/58 144/144/97 103/103/56
f 146/146/99 113/113/66 364/364/272
f 115/115/68 364/364/272 113/113/66
f 354/354/263 148/148/101 485/485/339
f 147/147/100 485/485/339 148/148/101
s 0
f 23/23/6 25/25/6 486/486/6
f 487/487/6 486/486/6 25/25/6
s 1
f 377/377/43 11/11/8 351/351/44
f 13/13/10 351/351/44 11/11/8
f 3/3/3 20/20/17 62/62/39
f 76/76/17 62/62/39 20/20/17
f 343/343/256 345/345/258 444/444/319
f 443/443/318 444/444/319 345/345/258
f 351/351/44 19/19/16 376/376/10
f 26/26/12 376/376/10 19/19/16
f 488/488/340 32/32/21 489/489/47
f 31/31/20 489/489/47 32/32/21
f 241/241/178 258/258/169 235/235/174
f 357/357/139 235/235/174 258/258/169
f 268/268/201 429/429/118 382/382/277
f 479/479/120 382/382/277 429/429/118
f 43/43/28 44/44/29 41/41/26
f 46/46/31 41/41/26 44/44/29
f 170/170/122 403/403/291 181/181/133
f 226/226/167 181/181/133 403/403/291
f 45/45/30 44/44/29 174/174/126
f 386/386/280 174/174/126 44/44/29
f 177/177/129 178/178/130 212/212/162
f 388/388/281 212/212/162 178/178/130
f 407/407/101 389/389/282 490/490/261
f 390/390/283 490/490/261 389/389/282
f 491/491/135 197/197/147 492/492/137
f 191/191/142 492/492/137 197/197/147
f 187/187/75 394/394/77 189/189/140
f 493/493/341 189/189/140 394/394/77
f 189/189/140 493/493/341 191/191/142
f 492/492/137 191/191/142 493/493/341
f 193/193/143 391/391/284 195/195/145
f 416/416/299 195/195/145 391/391/284
f 197/197/147 491/491/135 199/199/149
f 494/494/342 199/199/149 491/491/135
f 172/172/124 202/202/152 495/495/128
f 398/398/287 495/495/128 202/202/152
f 182/182/134 204/204/154 183/183/135
f 400/400/289 183/183/135 204/204/154
f 43/43/28 42/42/27 385/385/216
f 223/223/164 385/385/216 42/42/27
f 171/171/123 496/496/343 404/404/292
f 497/497/160 404/404/292 496/496/343
f 36/36/22 35/35/24 498/498/25
f 53/53/37 498/498/25 35/35/24
f 405/405/293 407/407/101 408/408/99
f 409/409/295 408/408/99 407/407/101
f 499/499/333 41/41/26 500/500/248
f 383/383/278 500/500/248 41/41/26
f 209/209/159 402/402/248 208/208/158
f 237/237/176 208/208/158 402/402/248
s 0
f 40/40/6 54/54/6 38/38/6
f 56/56/6 38/38/6 54/54/6
s 1
f 46/46/31 47/47/32 384/384/279
f 180/180/132 384/384/279 47/47/32
f 48/48/33 46/46/31 50/50/35
f 45/45/30 50/50/35 46/46/31
f 320/320/235 310/310/227 198/198/148
f 196/196/146 198/198/148 310/310/227
f 311/311/228 229/229/169 190/190/141
f 188/188/139 190/190/141 229/229/169
s 0
f 58/58/6 501/501/6 59/59/6
f 502/502/6 59/59/6 501/501/6
s 1
f 395/395/285 232/232/171 478/478/81
f 234/234/173 478/478/81 232/232/171
f 238/238/29 60/60/30 239/239/53
f 49/49/34 239/239/53 60/60/30
f 82/82/47 84/84/48 34/34/23
f 35/35/24 34/34/23 84/84/48
f 70/70/43 71/71/44 68/68/41
f 73/73/13 68/68/41 71/71/44
f 242/242/179 436/436/312 253/253/188
f 294/294/213 253/253/188 436/436/312
f 72/72/16 71/71/44 246/246/182
f 420/420/302 246/246/182 71/71/44
f 249/249/185 250/250/186 280/280/211
f 422/422/303 280/280/211 250/250/186
f 440/440/257 423/423/304 503/503/328
f 424/424/305 503/503/328 423/423/304
f 504/504/190 267/267/200 505/505/192
f 262/262/195 505/505/192 267/267/200
f 259/259/193 428/428/306 261/261/194
f 506/506/344 261/261/194 428/428/306
f 261/261/194 506/506/344 262/262/195
f 505/505/192 262/262/195 506/506/344
f 264/264/197 425/425/230 266/266/199
f 507/507/345 266/266/199 425/425/230
f 267/267/200 504/504/190 269/269/202
f 508/508/346 269/269/202 504/504/190
f 244/244/181 270/270/203 509/509/184
f 431/431/308 509/509/184 270/270/203
f 254/254/189 272/272/205 255/255/190
f 433/433/310 255/255/190 272/272/205
f 70/70/43 69/69/42 419/419/301
f 291/291/105 419/419/301 69/69/42
f 243/243/180 510/510/347 437/437/313
f 511/511/209 437/437/313 510/510/347
f 63/63/21 62/62/39 512/512/40
f 78/78/46 512/512/40 62/62/39
f 438/438/314 440/440/257 441/441/316
f 442/442/317 441/441/316 440/440/257
f 513/513/273 68/68/41 514/514/270
f 417/417/269 514/514/270 68/68/41
f 277/277/93 435/435/270 276/276/208
f 378/378/276 276/276/208 435/435/270
s 0
f 67/67/6 79/79/6 65/65/6
f 81/81/6 65/65/6 79/79/6
s 1
f 73/73/13 74/74/11 418/418/300
f 252/252/108 418/418/300 74/74/11
f 75/75/45 73/73/13 18/18/15
f 72/72/16 18/18/15 73/73/13
f 301/301/218 448/448/125 300/300/217
f 449/449/126 300/300/217 448/448/125
f 60/60/30 238/238/29 449/449/126
f 300/300/217 449/449/126 238/238/29
f 336/336/249 515/515/348 447/447/320
f 516/516/323 447/447/320 515/515/348
f 341/341/254 344/344/257 517/517/349
f 458/458/328 517/517/349 344/344/257
f 304/304/221 305/305/222 455/455/326
f 317/317/233 455/455/326 305/305/222
f 344/344/257 343/343/256 458/458/328
f 374/374/274 458/458/328 343/343/256
f 314/314/231 315/315/197 458/458/328
f 517/517/349 458/458/328 315/315/197
f 317/317/233 305/305/222 315/315/197
f 517/517/349 315/315/197 305/305/222
f 161/161/113 240/240/177 319/319/194
f 228/228/168 319/319/194 240/240/177
f 322/322/237 323/323/238 518/518/350
f 519/519/351 518/518/350 323/323/238
f 304/304/221 455/455/326 453/453/324
f 328/328/243 453/453/324 455/455/326
f 332/332/159 298/298/215 333/333/247
f 299/299/216 333/333/247 298/298/215
f 306/306/223 296/296/214 475/475/248
f 520/520/165 475/475/248 296/296/214
f 463/463/332 342/342/255 302/302/219
f 303/303/220 302/302/219 342/342/255
s 0
f 521/521/6 472/472/6 522/522/6
f 471/471/6 522/522/6 472/472/6
s 1
f 523/523/166 89/89/50 473/473/333
f 91/91/52 473/473/333 89/89/50
s 0
f 88/88/6 87/87/6 524/524/6
f 525/525/6 524/524/6 87/87/6
f 101/101/6 464/464/6 102/102/6
f 466/466/6 102/102/6 464/464/6
s 1
f 103/103/56 142/142/95 17/17/14
f 131/131/84 17/17/14 142/142/95
f 15/15/12 19/19/16 108/108/61
f 350/350/182 108/108/61 19/19/16
f 526/526/352 109/109/62 527/527/85
f 111/111/64 527/527/85 109/109/62
f 361/361/269 104/104/57 157/157/109
f 16/16/13 157/157/109 104/104/57
f 135/135/88 353/353/262 136/136/89
f 477/477/335 136/136/89 353/353/262
f 357/357/139 381/381/138 121/121/74
f 122/122/75 121/121/74 381/381/138
f 381/381/138 163/163/115 122/122/75
f 120/120/73 122/122/75 163/163/115
f 352/352/261 355/355/264 125/125/78
f 126/126/79 125/125/78 355/355/264
f 162/162/114 382/382/277 119/119/72
f 129/129/82 119/119/72 382/382/277
f 169/169/121 133/133/86 168/168/120
f 480/480/336 168/168/120 133/133/86
f 111/111/64 137/137/90 527/527/85
f 482/482/338 527/527/85 137/137/90
f 377/377/43 153/153/106 360/360/268
f 152/152/105 360/360/268 153/153/106
f 109/109/62 526/526/352 528/528/353
f 529/529/96 528/528/353 526/526/352
f 110/110/63 109/109/62 363/363/271
f 528/528/353 363/363/271 109/109/62
s 0
f 372/372/6 530/530/6 373/373/6
f 531/531/6 373/373/6 530/530/6
f 530/530/6 532/532/6 531/531/6
f 533/533/6 531/531/6 532/532/6
f 532/532/6 534/534/6 533/533/6
f 368/368/6 366/366/6 59/59/6
f 57/57/6 59/59/6 366/366/6
s 1
f 369/369/273 12/12/9 484/484/270
f 140/140/93 484/484/270 12/12/9
f 106/106/59 104/104/57 362/362/270
f 361/361/269 362/362/270 104/104/57
f 104/104/57 103/103/56 16/16/13
f 17/17/14 16/16/13 103/103/56
f 133/133/86 169/169/121 131/131/84
f 17/17/14 131/131/84 169/169/121
f 266/266/199 507/507/345 375/375/275
f 535/535/112 375/375/275 507/507/345
s 0
f 7/7/6 9/9/6 65/65/6
f 66/66/6 65/65/6 9/9/6
s 1
f 167/167/119 75/75/45 18/18/15
f 18/18/15 17/17/14 169/169/121
f 167/167/119 18/18/15 169/169/121
f 153/153/106 377/377/43 276/276/208
f 274/274/207 276/276/208 377/377/43
f 258/258/169 260/260/168 357/357/139
f 381/381/138 357/357/139 260/260/168
f 411/411/297 194/194/144 354/354/263
f 355/355/264 354/354/263 194/194/144
f 386/386/280 387/387/218 174/174/126
f 173/173/125 174/174/126 387/387/218
f 239/239/53 49/49/34 387/387/218
f 173/173/125 387/387/218 49/49/34
f 171/171/123 172/172/124 496/496/343
f 495/495/128 496/496/343 172/172/124
f 407/407/101 490/490/261 409/409/295
f 192/192/67 409/409/295 490/490/261
f 388/388/281 182/182/134 390/390/283
f 184/184/136 390/390/283 182/182/134
f 409/409/295 192/192/67 411/411/297
f 194/194/144 411/411/297 192/192/67
f 193/193/143 192/192/67 393/393/78
f 490/490/261 393/393/78 192/192/67
f 490/490/261 390/390/283 393/393/78
f 184/184/136 393/393/78 390/390/283
f 186/186/138 233/233/172 187/187/75
f 232/232/171 187/187/75 233/233/172
f 199/199/149 494/494/342 397/397/286
f 536/536/354 397/397/286 494/494/342
f 388/388/281 178/178/130 182/182/134
f 204/204/154 182/182/134 178/178/130
f 223/223/164 209/209/159 385/385/216
f 207/207/157 385/385/216 209/209/159
f 383/383/278 179/179/131 500/500/248
f 227/227/165 500/500/248 179/179/131
f 213/213/163 212/212/162 406/406/294
f 389/389/282 406/406/294 212/212/162
s 0
f 537/537/6 538/538/6 222/222/6
f 221/221/6 222/222/6 538/538/6
s 1
f 499/499/333 225/225/166 41/41/26
f 42/42/27 41/41/26 225/225/166
s 0
f 39/39/6 539/539/6 40/40/6
f 540/540/6 40/40/6 539/539/6
f 56/56/6 55/55/6 214/214/6
f 215/215/6 214/214/6 55/55/6
s 1
f 374/374/274 343/343/256 265/265/198
f 444/444/319 265/265/198 343/343/256
f 201/201/151 200/200/150 460/460/236
f 459/459/329 460/460/236 200/200/150
f 196/196/146 310/310/227 190/190/141
f 311/311/228 190/190/141 310/310/227
f 354/354/263 485/485/339 411/411/297
f 410/410/296 411/411/297 485/485/339
f 194/194/144 195/195/145 355/355/264
f 126/126/79 355/355/264 195/195/145
f 200/200/150 48/48/33 50/50/35
f 50/50/35 96/96/54 459/459/329
f 200/200/150 50/50/35 459/459/329
f 84/84/48 97/97/36 35/35/24
f 51/51/36 35/35/24 97/97/36
f 420/420/302 421/421/60 246/246/182
f 245/245/61 246/246/182 421/421/60
f 376/376/10 26/26/12 421/421/60
f 245/245/61 421/421/60 26/26/12
f 243/243/180 244/244/181 510/510/347
f 509/509/184 510/510/347 244/244/181
f 440/440/257 503/503/328 442/442/317
f 263/263/196 442/442/317 503/503/328
f 422/422/303 254/254/189 424/424/305
f 256/256/191 424/424/305 254/254/189
f 442/442/317 263/263/196 444/444/319
f 265/265/198 444/444/319 263/263/196
f 264/264/197 263/263/196 427/427/231
f 503/503/328 427/427/231 263/263/196
f 503/503/328 424/424/305 427/427/231
f 256/256/191 427/427/231 424/424/305
f 258/258/169 241/241/178 259/259/193
f 159/159/111 259/259/193 241/241/178
f 269/269/202 508/508/346 430/430/307
f 541/541/355 430/430/307 508/508/346
f 422/422/303 250/250/186 254/254/189
f 272/272/205 254/254/189 250/250/186
f 291/291/105 277/277/93 419/419/301
f 275/275/92 419/419/301 277/277/93
f 417/417/269 251/251/187 514/514/270
f 295/295/103 514/514/270 251/251/187
f 281/281/212 280/280/211 439/439/315
f 423/423/304 439/439/315 280/280/211
s 0
f 542/542/6 543/543/6 290/290/6
f 289/289/6 290/290/6 543/543/6
s 1
f 513/513/273 293/293/102 68/68/41
f 69/69/42 68/68/41 293/293/102
s 0
f 66/66/6 544/544/6 67/67/6
f 545/545/6 67/67/6 544/544/6
f 81/81/6 80/80/6 282/282/6
f 283/283/6 282/282/6 80/80/6
s 1
f 546/546/1 547/547/38 548/548/23
f 549/549/47 548/548/23 547/547/38
f 90/90/51 89/89/50 92/92/53
f 93/93/32 92/92/53 89/89/50
f 337/337/250 454/454/325 339/339/252
f 474/474/334 339/339/252 454/454/325
f 92/92/53 94/94/34 301/301/218
f 448/448/125 301/301/218 94/94/34
f 451/451/322 302/302/219 453/453/324
f 304/304/221 453/453/324 302/302/219
f 341/341/254 517/517/349 303/303/220
f 305/305/222 303/303/220 517/517/349
f 550/550/356 551/551/357 308/308/225
f 309/309/226 308/308/225 551/551/357
f 319/319/194 457/457/193 318/318/234
f 552/552/306 318/318/234 457/457/193
f 457/457/193 309/309/226 552/552/306
f 551/551/357 552/552/306 309/309/226
f 314/314/231 375/375/275 312/312/229
f 535/535/112 312/312/229 375/375/275
f 308/308/225 322/322/237 550/550/356
f 518/518/350 550/550/356 322/322/237
f 447/447/320 516/516/323 324/324/239
f 325/325/240 324/324/239 516/516/323
f 455/455/326 456/456/327 328/328/243
f 329/329/244 328/328/243 456/456/327
f 90/90/51 298/298/215 91/91/52
f 332/332/159 91/91/52 298/298/215
f 515/515/348 336/336/249 553/553/331
f 338/338/251 553/553/331 336/336/249
f 83/83/20 554/554/358 84/84/48
f 99/99/55 84/84/48 554/554/358
f 340/340/253 346/346/259 341/341/254
f 344/344/257 341/341/254 346/346/259
f 523/523/166 520/520/165 89/89/50
f 296/296/214 89/89/50 520/520/165
f 333/333/247 230/230/170 335/335/165
f 236/236/175 335/335/165 230/230/170
s 0
f 87/87/6 86/86/6 100/100/6
f 101/101/6 100/100/6 86/86/6
s 1
f 93/93/32 297/297/132 95/95/31
f 307/307/224 95/95/31 297/297/132
f 96/96/54 50/50/35 93/93/32
f 94/94/34 93/93/32 50/50/35
