# Blender 5.1.2
# www.blender.org
o SFCrate9Cap_(2)_Default_0
v 1.333906 4.019038 0.836078
v 1.459889 4.020044 1.272623
v 1.432556 4.020149 0.767937
v 1.126301 3.920296 1.193658
v 1.119128 3.877793 1.235324
v 1.085059 3.877466 1.185996
v 1.880284 4.027253 -2.150847
v 1.948422 4.027905 -2.052191
v 2.152644 4.030460 -2.514513
v 1.812801 3.930618 -2.559284
v 1.771559 3.887788 -2.566947
v 1.820884 3.888344 -2.601017
v 5.238971 4.060336 1.550518
v 5.170832 4.059684 1.451862
v 4.966611 4.057129 1.914185
v 5.308517 3.964526 1.958804
v 5.350667 3.922578 1.966399
v 5.301342 3.922022 2.000469
v 5.785348 4.068551 -1.436407
v 5.659366 4.067545 -1.872952
v 5.686698 4.067440 -1.368266
v 5.995016 3.974847 -1.794139
v 6.003098 3.932573 -1.835872
v 6.037168 3.932899 -1.786544
v 1.806266 4.025252 -0.620946
v 1.511885 4.021342 0.334263
v 1.689162 3.941505 1.437373
v 2.379248 3.948803 1.563626
v 1.693816 3.984076 1.409475
v 2.383903 3.991374 1.535728
v 1.489402 4.002933 1.465644
v 1.614493 4.004255 1.488529
v 1.494056 4.045504 1.437746
v 1.619148 4.046826 1.460632
v 2.429671 4.012877 1.637668
v 2.554762 4.014199 1.660553
v 2.434325 4.055447 1.609770
v 2.559416 4.056770 1.632656
v 1.438981 3.938860 1.391602
v 1.443634 3.981430 1.363704
v 2.629431 3.951450 1.609397
v 2.634084 3.994020 1.581499
v 1.003775 3.934680 0.775458
v 0.930586 3.933580 1.175563
v 1.031250 3.977469 0.780601
v 0.958061 3.976369 1.180706
v 1.234370 3.944862 0.261742
v 1.182585 4.007956 0.187800
v 1.192874 3.916027 0.254072
v 1.141089 3.979121 0.180130
v 1.147414 3.943555 0.737114
v 1.105917 3.914719 0.729445
v 1.072745 4.006305 0.788271
v 1.031250 3.977469 0.780601
v 1.165401 3.873238 0.248928
v 1.078444 3.871931 0.724301
v 1.192874 3.916027 0.254072
v 1.105917 3.914719 0.729445
v 1.026590 3.884360 1.326153
v 1.029685 3.595691 1.325925
v 1.437723 3.888708 1.401370
v 1.440818 3.600039 1.401143
v 0.922104 3.883320 1.224833
v 0.942387 3.883500 1.271745
v 0.930393 3.934518 1.227487
v 0.945602 3.930627 1.269212
v 1.027847 3.934512 1.316384
v 1.032501 3.977082 1.288486
v 0.979214 3.934986 1.298173
v 0.986794 3.973404 1.276865
v 0.999557 4.005204 1.188376
v 0.958061 3.976369 1.180706
v 0.989494 3.995893 1.238466
v 0.952767 3.973078 1.227598
v 0.945482 3.594831 1.271517
v 0.925199 3.594651 1.224605
v 2.553505 3.964048 1.670322
v 2.428414 3.962725 1.647436
v 2.557281 3.611795 1.670044
v 2.432191 3.610473 1.647158
v 2.381087 3.609983 1.573167
v 2.377992 3.898652 1.573395
v 1.071586 3.596616 0.722290
v 0.997599 3.595783 0.773396
v 1.069173 3.821702 0.722468
v 0.994505 3.884452 0.773624
v 2.552208 3.586324 1.645157
v 2.631269 3.612629 1.618938
v 2.626195 3.587157 1.594051
v 1.617013 3.601851 1.498020
v 1.491922 3.600529 1.475134
v 1.611940 3.576380 1.473133
v 1.505997 3.575260 1.453751
v 0.982173 3.595197 1.307096
v 0.945482 3.594831 1.271517
v 0.996247 3.569927 1.285712
v 0.966682 3.569634 1.257042
v 1.088345 3.570994 1.185755
v 1.122414 3.571321 1.235082
v 1.741510 4.026112 -2.589732
v 1.668322 4.025012 -2.189626
v 1.558482 4.023360 -1.589155
v 1.770444 4.025601 -1.550376
v 1.633150 3.960610 -1.640312
v 1.720022 3.961529 -1.624418
v 2.427800 3.902478 -2.597697
v 2.425468 3.952575 -2.587849
v 3.117886 3.909776 -2.471444
v 3.115554 3.959873 -2.461596
v 2.250923 3.964249 -2.694524
v 2.248591 4.014347 -2.684676
v 2.376014 3.965572 -2.671638
v 2.373682 4.015670 -2.661791
v 3.191192 3.974193 -2.522500
v 3.188860 4.024291 -2.512652
v 3.316283 3.975516 -2.499614
v 3.313951 4.025613 -2.489767
v 2.177617 3.899832 -2.643468
v 2.175286 3.949930 -2.633620
v 3.365737 3.962520 -2.415825
v 3.368068 3.912421 -2.425673
v 1.540882 3.892667 -2.213302
v 1.550152 3.942895 -2.211468
v 1.614071 3.893767 -2.613407
v 1.623341 3.943996 -2.611573
v 1.583951 3.950118 -1.649340
v 1.509282 4.012867 -1.598184
v 1.619122 4.014519 -2.198655
v 1.670908 3.951425 -2.124713
v 1.720107 3.961917 -2.115685
v 1.505711 3.828265 -1.663987
v 1.514981 3.878494 -1.662153
v 1.592668 3.829573 -2.139360
v 1.601938 3.879801 -2.137526
v 1.769579 3.606815 -2.718914
v 2.180712 3.611164 -2.643696
v 1.767749 3.581339 -2.693586
v 2.186331 3.585767 -2.618849
v 1.650815 3.986784 -2.606430
v 1.641540 3.945210 -2.660197
v 1.662467 3.983748 -2.652176
v 1.715383 3.894935 -2.717898
v 1.668475 3.894417 -2.697614
v 1.712222 3.946007 -2.709021
v 1.670539 3.941527 -2.693857
v 1.750637 4.016277 -2.639048
v 1.758588 3.987999 -2.680873
v 1.700640 4.006585 -2.649217
v 1.711731 3.984303 -2.686204
v 1.718479 3.606267 -2.718126
v 1.671569 3.605748 -2.697842
v 2.379790 3.613319 -2.671916
v 2.254700 3.611998 -2.694802
v 3.371163 3.623754 -2.425901
v 3.320059 3.623263 -2.499892
v 2.161770 4.020625 -2.563831
v 2.169721 3.992346 -2.605655
v 1.620219 3.579324 -2.144904
v 1.595081 3.604487 -2.139538
v 1.569114 3.578835 -2.218895
v 1.543977 3.603998 -2.213530
v 3.126599 3.595711 -2.446825
v 3.120981 3.621108 -2.471672
v 3.200587 3.596545 -2.497931
v 3.194968 3.621941 -2.522778
v 3.306529 3.597665 -2.478549
v 1.671569 3.605748 -2.697842
v 1.686296 3.580453 -2.676934
v 1.635992 3.605338 -2.661150
v 1.657627 3.580122 -2.647367
v 5.377744 4.061478 1.989403
v 5.450933 4.062578 1.589297
v 5.560773 4.064230 0.988826
v 5.348811 4.061988 0.950047
v 5.487467 3.999813 1.039882
v 5.400596 3.998893 1.023989
v 4.694263 3.923148 1.997161
v 4.695520 3.973299 1.987392
v 4.004177 3.915850 1.870908
v 4.005434 3.966001 1.861140
v 4.869777 3.988544 2.094089
v 4.871034 4.038695 2.084320
v 4.744686 3.987221 2.071203
v 4.745942 4.037372 2.061435
v 3.929508 3.978600 1.922065
v 3.930765 4.028751 1.912296
v 3.804417 3.977277 1.899179
v 3.805674 4.027429 1.889411
v 4.944445 3.925793 2.042933
v 4.945702 3.975945 2.033164
v 3.755251 3.963356 1.815368
v 3.753994 3.913203 1.825137
v 5.581181 3.932959 1.612766
v 5.570836 3.982980 1.611011
v 5.507992 3.931858 2.012872
v 5.497647 3.981879 2.011117
v 5.536880 3.990364 1.048895
v 5.610186 4.054780 0.997839
v 5.500346 4.053129 1.598310
v 5.449924 3.989056 1.524268
v 5.400511 3.998505 1.515255
v 5.617714 3.870192 1.063351
v 5.607370 3.920214 1.061596
v 5.530758 3.868885 1.538724
v 5.520413 3.918907 1.536969
v 5.358673 3.641472 2.117922
v 4.947540 3.637124 2.042705
v 5.361048 3.616081 2.092555
v 4.942467 3.611653 2.017818
v 5.469262 4.024077 2.006041
v 5.479427 3.982626 2.059742
v 5.457679 4.020720 2.051782
v 5.406679 3.930689 2.117363
v 5.453588 3.931209 2.097079
v 5.408745 3.981831 2.108566
v 5.450514 3.978268 2.093395
v 5.368831 4.051372 2.038704
v 5.361489 4.022863 2.080484
v 5.419024 4.042738 2.048859
v 5.408414 4.020164 2.085810
v 5.409773 3.642021 2.117135
v 5.456683 3.642540 2.096851
v 4.748462 3.634968 2.070925
v 4.873553 3.636292 2.093811
v 3.757090 3.624536 1.824909
v 3.808193 3.625025 1.898901
v 4.957698 4.047023 1.963486
v 4.950356 4.018515 2.005266
v 5.508579 3.618096 1.543872
v 5.533172 3.643800 1.538546
v 5.559683 3.618585 1.617864
v 5.584275 3.644289 1.612538
v 4.002199 3.601710 1.845794
v 4.007272 3.627181 1.870681
v 3.928211 3.600876 1.896900
v 3.933284 3.626347 1.921787
v 3.822268 3.599756 1.877517
v 5.456683 3.642540 2.096851
v 5.442501 3.616968 2.075903
v 5.492260 3.642950 2.060158
v 5.471170 3.617299 2.046335
v 6.006383 3.626100 -1.836114
v 1.824169 3.581871 -2.601259
v 4.468915 4.054955 -2.090747
v 4.478042 4.045121 -2.140064
v 3.343094 4.043049 -2.296718
v 3.352221 4.033214 -2.346035
v 3.291308 4.106143 -2.370660
v 3.166217 4.104820 -2.393546
v 2.575670 4.095384 1.541574
v 2.450580 4.094060 1.518689
v 2.650340 4.032634 1.490418
v 1.869094 4.026713 -1.618518
v 1.443746 4.020689 0.235608
v 5.995016 3.974847 -1.794139
v 5.308517 3.964526 1.958804
v 1.812801 3.930618 -2.559284
v 1.126301 3.920296 1.193658
v 1.467787 3.984033 -1.605854
v 5.607369 4.066247 -0.934592
v 5.682038 4.003497 -0.985749
v 5.738484 4.004345 -1.294324
v 5.837133 4.005456 -1.362466
v 5.426261 4.026786 -2.009865
v 4.736175 4.019488 -2.136117
v 5.418310 4.055065 -1.968040
v 4.728224 4.047767 -2.094292
v 5.624658 4.092526 -2.038035
v 5.499566 4.091202 -2.060920
v 5.616707 4.120804 -1.996210
v 5.491615 4.119481 -2.019096
v 4.684389 4.082582 -2.210059
v 4.559298 4.081259 -2.232945
v 4.676438 4.110860 -2.168234
v 4.551347 4.109537 -2.191120
v 5.676443 4.029432 -1.964093
v 5.668491 4.057710 -1.922269
v 4.485993 4.016843 -2.181889
v 6.088828 4.033393 -1.380991
v 6.162016 4.034492 -1.781096
v 6.046723 4.061343 -1.388615
v 6.119912 4.062444 -1.788721
v 5.978988 4.031741 -0.780520
v 6.007373 3.989543 -0.775443
v 5.928566 3.967669 -0.854562
v 5.956951 3.925470 -0.849485
v 6.088828 4.033393 -1.380991
v 6.015522 3.968976 -1.329934
v 6.117213 3.991195 -1.375914
v 6.043908 3.926777 -1.324858
v 5.928566 3.967669 -0.854562
v 6.015522 3.968976 -1.329934
v 5.886461 3.995619 -0.862187
v 5.973418 3.996927 -1.337559
v 6.070499 4.071893 -1.797734
v 6.079625 4.062058 -1.847051
v 6.190574 3.993318 -1.827942
v 6.175450 3.989167 -1.869674
v 6.167379 4.031391 -1.827993
v 6.163939 4.021788 -1.861939
v 6.141753 3.992851 -1.898628
v 6.133351 4.031064 -1.877259
v 6.175450 3.989167 -1.869674
v 6.163939 4.021788 -1.861939
v 6.130171 4.053430 -1.838825
v 6.167379 4.031391 -1.827993
v 6.133351 4.031064 -1.877259
v 6.163939 4.021788 -1.861939
v 6.199959 3.942306 -1.825368
v 6.200747 3.942273 -1.774265
v 6.203053 3.653637 -1.825596
v 6.203841 3.653605 -1.774493
v 5.437252 3.645603 -2.047905
v 5.434157 3.934272 -2.047677
v 5.511239 3.646436 -2.099011
v 5.507463 3.998689 -2.098733
v 6.127559 3.941174 -1.374159
v 6.130652 3.652504 -1.374387
v 5.969709 3.650363 -0.847908
v 5.967296 3.875449 -0.847731
v 6.020813 3.650853 -0.773916
v 6.017718 3.939522 -0.773689
v 5.945116 3.624660 -0.842583
v 6.035576 3.626020 -1.337105
v 6.056665 3.651671 -1.323281
v 5.673904 3.622650 -1.980790
v 5.622801 3.622161 -2.054782
v 5.687434 3.648248 -2.002134
v 5.636331 3.647760 -2.076125
v 5.442870 3.620207 -2.023058
v 4.733636 3.612707 -2.152814
v 4.747166 3.638305 -2.174158
v 6.098567 3.652596 -1.926916
v 6.146079 3.653091 -1.908087
v 6.091833 3.627068 -1.902485
v 6.132549 3.627492 -1.886744
v 6.093141 3.991363 -1.916841
v 6.095472 3.941265 -1.926688
v 5.682008 3.987016 -1.992058
v 5.684339 3.936917 -2.001906
v 5.353953 3.616105 1.966157
v 5.350667 3.922578 1.966399
v 6.040454 3.626427 -1.786786
v 6.037168 3.932899 -1.786544
v 5.978988 4.031741 -0.780520
v 5.936883 4.059692 -0.788145
v 5.652290 4.026830 1.005464
v 5.675508 4.066899 -0.835936
v 5.887471 4.069141 -0.797157
v 2.641427 4.022528 1.539719
v 2.634084 3.994020 1.581499
v 3.767248 4.034434 1.745691
v 3.759905 4.005926 1.787471
v 4.891942 4.119879 1.965341
v 5.312988 4.062337 0.020617
v 5.607580 4.130639 -1.946893
v 5.409184 4.064899 -1.918723
v 4.719097 4.057602 -2.044976
v 4.716429 4.054484 1.868414
v 4.026343 4.047186 1.742161
v 1.283484 3.954965 0.762036
v 1.382134 3.956077 0.693895
v 1.196613 3.954047 0.746143
v 1.283570 3.955354 0.270770
v 1.438579 3.956925 0.385319
v 1.370440 3.956272 0.286664
v 1.121944 4.016796 0.797299
v 1.701158 4.012584 1.367695
v 2.391244 4.019882 1.493948
v 1.710071 4.022690 1.318394
v 2.400158 4.029988 1.444647
v 1.501398 4.074011 1.395966
v 1.626489 4.075334 1.418851
v 1.510311 4.084116 1.346665
v 1.635402 4.085440 1.369550
v 2.441667 4.083955 1.567990
v 2.566758 4.085278 1.590876
v 1.450976 4.009938 1.321924
v 1.048756 4.015696 1.197405
v 1.113615 3.936332 0.174987
v 1.104345 3.886104 0.173153
v 1.156130 3.823009 0.247095
v 0.921316 3.883352 1.173729
v 0.979078 3.883865 1.307324
v 1.039843 4.005590 1.246706
v 1.691000 3.602685 1.446913
v 1.687906 3.891354 1.447142
v 1.488146 3.952781 1.475412
v 1.158543 3.597924 0.246917
v 1.107439 3.597434 0.172925
v 1.132577 3.572272 0.167559
v 1.183681 3.572761 0.241551
v 0.950030 3.569519 1.175584
v 0.924410 3.594682 1.173501
v 1.019234 3.570568 0.787179
v 1.685927 3.577214 1.422027
v 0.950336 3.569488 1.219239
v 1.818671 3.962640 -1.692560
v 1.875117 3.963489 -2.001135
v 1.806978 3.962836 -2.099791
v 2.419903 3.994992 -2.559884
v 2.411952 4.023271 -2.518059
v 3.109990 4.002291 -2.433631
v 3.102039 4.030569 -2.391806
v 2.243027 4.056764 -2.656712
v 2.235076 4.085042 -2.614887
v 2.368118 4.058086 -2.633826
v 2.360167 4.086365 -2.592001
v 3.183295 4.066708 -2.484687
v 3.175344 4.094986 -2.442863
v 3.308387 4.068030 -2.461802
v 3.300436 4.096308 -2.419977
v 3.360172 4.004936 -2.387860
v 1.577627 3.985684 -2.206325
v 1.650815 3.986784 -2.606430
v 1.692311 4.015619 -2.598760
v 1.440312 3.941244 -1.610997
v 1.542455 3.921283 -1.657010
v 1.467787 3.984033 -1.605854
v 1.577627 3.985684 -2.206325
v 1.629412 3.922590 -2.132383
v 1.542455 3.921283 -1.657010
v 1.629412 3.922590 -2.132383
v 1.670539 3.941527 -2.693857
v 1.677896 3.974346 -2.682670
v 1.711731 3.984303 -2.686204
v 1.677896 3.974346 -2.682670
v 1.662467 3.983748 -2.652176
v 1.677896 3.974346 -2.682670
v 1.632898 3.894006 -2.660922
v 1.617165 3.605098 -2.613635
v 2.430894 3.613809 -2.597925
v 1.508124 3.603179 -1.664165
v 1.434137 3.602346 -1.613059
v 1.431042 3.891015 -1.612831
v 1.529759 3.577965 -1.650382
v 2.260318 3.586601 -2.669955
v 2.417365 3.588211 -2.576581
v 1.724097 3.580871 -2.693280
v 1.764153 3.945582 -2.708838
v 1.766484 3.895484 -2.718686
v 5.250161 4.060876 1.018189
v 5.301947 3.997782 1.092131
v 5.245501 3.996933 1.400706
v 5.313640 3.997586 1.499362
v 4.700174 4.015870 1.959495
v 4.707516 4.044378 1.917715
v 4.010088 4.008572 1.833242
v 4.017429 4.037080 1.791462
v 4.875687 4.081265 2.056422
v 4.883029 4.109774 2.014642
v 4.750596 4.079942 2.033537
v 4.757938 4.108450 1.991757
v 3.935419 4.071322 1.884398
v 3.942761 4.099830 1.842618
v 3.810328 4.069999 1.861513
v 3.817670 4.098507 1.819733
v 5.542451 4.025178 1.605935
v 5.469262 4.024077 2.006041
v 5.427157 4.052028 1.998415
v 5.680676 3.984631 1.010540
v 5.578985 3.962413 1.056520
v 5.652290 4.026830 1.005464
v 5.542451 4.025178 1.605935
v 5.492028 3.961105 1.531893
v 5.578985 3.962413 1.056520
v 5.492028 3.961105 1.531893
v 5.450514 3.978268 2.093395
v 5.442454 4.010940 2.082261
v 5.408414 4.020164 2.085810
v 5.442454 4.010940 2.082261
v 5.457679 4.020720 2.051782
v 5.442454 4.010940 2.082261
v 5.489165 3.931619 2.060386
v 5.511086 3.643189 2.012644
v 4.697358 3.634479 1.996933
v 5.620128 3.645108 1.063174
v 5.694115 3.645940 1.012068
v 5.691021 3.934610 1.012295
v 5.599039 3.619457 1.049350
v 4.868480 3.610821 2.068924
v 4.711432 3.609210 1.975550
v 5.404700 3.616549 2.092248
v 5.356835 3.980293 2.108382
v 5.355578 3.930141 2.118150
v 4.502602 3.610263 -2.195082
v 3.357633 3.598154 -2.404557
v 4.496984 3.635659 -2.219929
v 2.351040 4.096200 -2.542684
v 2.402825 4.033106 -2.468742
v 2.186331 3.585767 -2.618849
v 2.260318 3.586601 -2.669955
v 2.366261 3.587721 -2.650573
v 2.417365 3.588211 -2.576581
v 5.442870 3.620207 -2.023058
v 5.516858 3.621040 -2.074165
v 5.622801 3.622161 -2.054782
v 5.673904 3.622650 -1.980790
v 3.126599 3.595711 -2.446825
v 3.200587 3.596545 -2.497931
v 3.306529 3.597665 -2.478549
v 3.357633 3.598154 -2.404557
v 4.502602 3.610263 -2.195082
v 4.576589 3.611097 -2.246189
v 4.682532 3.612217 -2.226806
v 4.733636 3.612707 -2.152814
v 1.824169 3.581871 -2.601259
v 1.767749 3.581339 -2.693586
v 6.091833 3.627068 -1.902485
v 6.006383 3.626100 -1.836114
v 1.455772 3.577131 -1.599276
v 5.997311 4.070793 -1.397628
v 5.750177 4.004149 -0.887093
v 5.837048 4.005068 -0.871200
v 4.744071 3.926974 -2.173930
v 5.431826 3.984370 -2.037830
v 4.741740 3.977072 -2.164082
v 5.632554 4.000012 -2.075848
v 5.630223 4.050110 -2.066000
v 5.505132 4.048787 -2.088885
v 4.692286 3.990068 -2.247872
v 4.567195 3.988746 -2.270757
v 4.689954 4.040165 -2.238024
v 4.564863 4.038844 -2.260910
v 4.493888 3.924327 -2.219702
v 4.491558 3.974426 -2.209854
v 6.190402 3.992295 -1.776020
v 5.924005 4.006376 -1.346572
v 6.054253 3.876756 -1.323103
v 6.162016 4.034492 -1.781096
v 6.142985 3.941760 -1.907859
v 6.179676 3.942125 -1.872280
v 6.087576 4.033780 -1.888875
v 6.182771 3.653457 -1.872508
v 4.570971 3.636493 -2.271035
v 6.109562 3.626852 -1.388211
v 4.682532 3.612217 -2.226806
v 4.696062 3.637816 -2.248150
v 4.576589 3.611097 -2.246189
v 6.182771 3.653457 -1.872508
v 6.162116 3.627787 -1.858073
v 6.178461 3.627933 -1.820270
v 1.774844 3.581316 -2.567188
v 1.771559 3.887788 -2.566947
v 1.088345 3.570994 1.185755
v 1.085059 3.877466 1.185996
v 5.996220 3.625148 -0.768591
v 5.673025 3.620289 0.998244
v 2.628174 3.901298 1.619166
v 4.667311 4.120695 -2.118917
v 3.951674 4.109936 1.793317
v 3.826583 4.108613 1.770432
v 4.542221 4.119372 -2.141803
v 1.693816 3.984076 1.409475
v 2.383903 3.991374 1.535728
v 1.494056 4.045504 1.437746
v 1.619148 4.046826 1.460632
v 2.434325 4.055447 1.609770
v 2.559416 4.056770 1.632656
v 1.443634 3.981430 1.363704
v 1.141089 3.979121 0.180130
v 0.952767 3.973078 1.227598
v 0.956411 3.963498 1.261529
v 0.945602 3.930627 1.269212
v 0.956411 3.963498 1.261529
v 0.986794 3.973404 1.276865
v 0.956411 3.963498 1.261529
v 1.613237 3.954104 1.498298
v 1.093221 3.571401 0.736073
v 1.454893 3.574770 1.379759
v 2.395162 3.584714 1.551783
v 1.036964 3.570352 1.301454
v 2.419903 3.994992 -2.559884
v 3.109990 4.002291 -2.433631
v 2.243027 4.056764 -2.656712
v 2.368118 4.058086 -2.633826
v 3.183295 4.066708 -2.484687
v 3.308387 4.068030 -2.461802
v 2.169721 3.992346 -2.605655
v 3.360172 4.004936 -2.387860
v 1.668475 3.894417 -2.697614
v 1.758588 3.987999 -2.680873
v 2.366261 3.587721 -2.650573
v 1.686296 3.580453 -2.676934
v 1.774844 3.581316 -2.567188
v 4.700174 4.015870 1.959495
v 4.010088 4.008572 1.833242
v 4.875687 4.081265 2.056422
v 4.750596 4.079942 2.033537
v 3.935419 4.071322 1.884398
v 3.810328 4.069999 1.861513
v 4.950356 4.018515 2.005266
v 3.759905 4.005926 1.787471
v 5.453588 3.931209 2.097079
v 5.361489 4.022863 2.080484
v 3.771164 3.599267 1.803525
v 4.762537 3.609699 2.049542
v 5.442501 3.616968 2.075903
v 5.353953 3.616105 1.966157
v 5.304628 3.615549 2.000228
v 3.092912 4.040404 -2.342490
v 4.485993 4.016843 -2.181889
v 5.361048 3.616081 2.092555
v 5.304628 3.615549 2.000228
v 5.353953 3.616105 1.966157
v 6.040454 3.626427 -1.786786
v 6.006383 3.626100 -1.836114
v 6.091833 3.627068 -1.902485
v 5.404700 3.616549 2.092248
v 6.132549 3.627492 -1.886744
v 5.442501 3.616968 2.075903
v 5.471170 3.617299 2.046335
v 5.486910 3.617499 2.005616
v 5.559683 3.618585 1.617864
v 6.162116 3.627787 -1.858073
v 6.178461 3.627933 -1.820270
v 6.178767 3.627901 -1.776616
v 6.109562 3.626852 -1.388211
v 5.508579 3.618096 1.543872
v 6.035576 3.626020 -1.337105
v 5.599039 3.619457 1.049350
v 5.945116 3.624660 -0.842583
v 5.996220 3.625148 -0.768591
v 5.673025 3.620289 0.998244
v 1.231784 4.018448 0.196829
v 5.482489 4.129316 -1.969779
v 6.178767 3.627901 -1.776616
v 5.516858 3.621040 -2.074165
v 1.812801 3.930618 -2.559284
v 1.126301 3.920296 1.193658
v 5.308517 3.964526 1.958804
v 5.995016 3.974847 -1.794139
v 4.942467 3.611653 2.017818
v 4.868480 3.610821 2.068924
v 4.762537 3.609699 2.049542
v 4.711432 3.609210 1.975550
v 1.685927 3.577214 1.422027
v 1.611940 3.576380 1.473133
v 1.505997 3.575260 1.453751
v 1.454893 3.574770 1.379759
v 4.002199 3.601710 1.845794
v 3.928211 3.600876 1.896900
v 3.822268 3.599756 1.877517
v 3.771164 3.599267 1.803525
v 2.626195 3.587157 1.594051
v 2.552208 3.586324 1.645157
v 2.446266 3.585204 1.625775
v 2.395162 3.584714 1.551783
v 5.304628 3.615549 2.000228
v 5.361048 3.616081 2.092555
v 1.036964 3.570352 1.301454
v 1.122414 3.571321 1.235082
v 3.776160 4.044540 1.696389
v 4.766850 4.118556 1.942456
v 0.942387 3.883500 1.271745
v 1.032501 3.977082 1.288486
v 2.446266 3.585204 1.625775
v 0.966682 3.569634 1.257042
v 2.225949 4.094876 -2.565570
v 1.641887 3.579921 -2.606647
v 5.486910 3.617499 2.005616
v 5.426261 4.026786 -2.009865
v 4.736175 4.019488 -2.136117
v 5.624658 4.092526 -2.038035
v 5.499566 4.091202 -2.060920
v 4.684389 4.082582 -2.210059
v 4.559298 4.081259 -2.232945
v 5.676443 4.029432 -1.964093
v 6.179676 3.942125 -1.872280
v 6.087576 4.033780 -1.888875
v 6.162116 3.627787 -1.858073
v 6.040454 3.626427 -1.786786
v 1.767749 3.581339 -2.693586
v 1.824169 3.581871 -2.601259
v 1.774844 3.581316 -2.567188
v 1.088345 3.570994 1.185755
v 1.122414 3.571321 1.235082
v 1.036964 3.570352 1.301454
v 1.724097 3.580871 -2.693280
v 0.996247 3.569927 1.285712
v 1.686296 3.580453 -2.676934
v 1.657627 3.580122 -2.647367
v 1.641887 3.579921 -2.606647
v 1.569114 3.578835 -2.218895
v 0.966682 3.569634 1.257042
v 0.950336 3.569488 1.219239
v 0.950030 3.569519 1.175584
v 1.019234 3.570568 0.787179
v 1.620219 3.579324 -2.144904
v 1.093221 3.571401 0.736073
v 1.529759 3.577965 -1.650382
v 1.183681 3.572761 0.241551
v 1.132577 3.572272 0.167559
v 1.455772 3.577131 -1.599276
vn -0.7391 0.6596 -0.1367
vn -0.8628 0.4919 -0.1167
vn -0.7423 0.6564 -0.1346
vn 0.7454 -0.6554 0.1219
vn 0.1584 -0.1994 -0.9670
vn 0.7558 0.6532 -0.0452
vn -0.7396 0.6605 -0.1296
vn -0.7425 0.6569 -0.1312
vn -0.8624 0.4912 -0.1221
vn 0.7440 -0.6526 0.1435
vn 0.7545 0.6558 -0.0254
vn 0.0308 0.0540 0.9981
vn -0.7368 0.6621 -0.1369
vn -0.7338 0.6658 -0.1351
vn -0.5810 0.8021 -0.1384
vn 0.7321 -0.6700 0.1229
vn -0.5776 -0.8143 0.0573
vn 0.1463 -0.2127 -0.9661
vn -0.7373 0.6631 -0.1297
vn -0.5806 0.8014 -0.1438
vn -0.7340 0.6663 -0.1319
vn 0.7308 -0.6671 0.1445
vn 0.0187 0.0407 0.9990
vn -0.5789 -0.8118 0.0771
vn -0.8378 0.5320 -0.1230
vn -0.2597 0.4522 0.8533
vn -0.4152 0.2811 0.8652
vn -0.4773 0.6474 0.5942
vn -0.6483 0.4592 0.6073
vn -0.5807 0.0678 0.8113
vn -0.0678 0.6322 0.7718
vn -0.7893 0.2143 0.5755
vn -0.2501 0.8077 0.5340
vn -0.5808 0.0678 0.8112
vn -0.4546 0.2280 0.8610
vn -0.6897 0.3997 0.6038
vn -0.2900 0.4233 0.8583
vn -0.5111 0.6157 0.5997
vn -0.8829 -0.4399 -0.1643
vn -0.9031 -0.4294 0.0064
vn -0.9710 -0.0761 -0.2265
vn -0.9972 -0.0542 -0.0512
vn -0.9356 0.3486 0.0563
vn -0.9413 0.3318 -0.0628
vn -0.9925 -0.0316 0.1177
vn -0.9987 -0.0494 -0.0150
vn -0.9149 0.3076 -0.2612
vn -0.9699 -0.0766 -0.2312
vn -0.9179 0.2980 -0.2618
vn -0.9710 -0.0760 -0.2266
vn -0.8996 -0.4078 0.1563
vn -0.8790 -0.4487 -0.1614
vn -0.9925 -0.0317 0.1177
vn -0.0983 0.1314 0.9864
vn -0.0466 0.0823 0.9955
vn -0.2018 0.0119 0.9794
vn -0.1217 -0.0197 0.9924
vn -0.6550 -0.6258 0.4235
vn -0.5269 -0.4264 0.7352
vn -0.8576 -0.3985 0.3252
vn -0.6843 -0.2586 0.6819
vn -0.3475 0.3635 0.8643
vn -0.5717 0.5531 0.6060
vn -0.5168 0.0879 0.8516
vn -0.7137 0.3618 0.5998
vn -0.9381 0.3308 -0.1027
vn -0.9972 -0.0541 -0.0512
vn -0.8950 0.3873 0.2214
vn -0.9825 -0.0223 0.1848
vn -0.4693 -0.4761 0.7437
vn -0.5931 -0.6779 0.4344
vn 0.0824 0.3268 0.9415
vn -0.2511 -0.0401 0.9671
vn 0.1811 0.3064 0.9345
vn -0.2216 -0.1368 0.9655
vn -0.0582 0.0012 0.9983
vn -0.1614 0.0600 0.9851
vn -0.5712 -0.8187 -0.0596
vn -0.6277 -0.7755 -0.0678
vn -0.6767 -0.7279 -0.1105
vn -0.6854 -0.7265 -0.0495
vn 0.6362 -0.2087 0.7428
vn 0.0396 0.1108 0.9931
vn 0.4850 -0.3329 0.8087
vn 0.6361 -0.2088 0.7428
vn 0.3212 -0.5555 0.7670
vn -0.2649 -0.2097 0.9412
vn -0.4694 -0.4761 0.7437
vn 0.3015 -0.5803 0.7565
vn 0.1540 -0.7734 0.6149
vn 0.6722 0.7377 -0.0625
vn 0.0709 -0.1203 -0.9902
vn -0.7402 0.6584 -0.1364
vn -0.7412 0.6596 -0.1247
vn -0.7469 0.6499 -0.1403
vn -0.7391 0.6596 -0.1366
vn -0.7517 0.6039 -0.2652
vn -0.7481 0.6093 -0.2628
vn 0.1207 -0.0236 -0.9924
vn -0.1416 0.2178 -0.9657
vn -0.0337 -0.1934 -0.9805
vn -0.2975 0.0466 -0.9536
vn -0.1265 -0.2872 -0.9495
vn -0.4716 -0.1490 -0.8691
vn 0.2069 0.0797 -0.9751
vn 0.0413 0.4156 -0.9086
vn -0.0753 -0.2391 -0.9681
vn -0.3375 -0.0043 -0.9413
vn -0.1714 0.1880 -0.9671
vn 0.0929 -0.0539 -0.9942
vn -0.6979 -0.7017 0.1436
vn -0.9037 -0.3986 0.1565
vn -0.6905 -0.7228 0.0278
vn -0.9018 -0.4319 -0.0126
vn -0.9149 0.3077 -0.2612
vn -0.9360 0.3214 -0.1434
vn -0.9388 0.3394 0.0590
vn -0.7693 0.6389 0.0061
vn -0.6767 -0.7279 -0.1106
vn -0.6971 -0.6874 0.2037
vn -0.8996 -0.4078 0.1562
vn 0.0818 -0.1727 -0.9816
vn 0.0053 -0.2717 -0.9624
vn 0.5489 -0.5753 -0.6064
vn 0.4545 -0.6724 -0.5842
vn -0.9964 -0.0558 -0.0642
vn -0.8156 -0.4818 -0.3204
vn -0.9512 -0.0844 -0.2968
vn -0.2065 -0.3911 -0.8969
vn -0.4361 -0.6069 -0.6645
vn -0.4027 -0.1386 -0.9048
vn -0.5961 -0.4336 -0.6758
vn -0.6640 0.5555 -0.5005
vn -0.4808 0.3727 -0.7937
vn -0.8530 0.3041 -0.4241
vn -0.6255 0.1862 -0.7577
vn -0.1463 -0.4449 -0.8836
vn -0.3786 -0.6561 -0.6529
vn 0.3036 0.0634 -0.9507
vn -0.0991 -0.3798 -0.9197
vn 0.1674 -0.1429 -0.9755
vn 0.3035 0.0633 -0.9507
vn -0.7700 0.4208 -0.4797
vn -0.6006 0.2228 -0.7679
vn 0.0253 -0.9773 0.2103
vn -0.5875 -0.7863 0.1913
vn 0.0445 -0.9553 0.2922
vn -0.6439 -0.7434 0.1810
vn 0.5156 -0.5919 -0.6195
vn 0.0692 -0.2519 -0.9653
vn 0.4070 -0.7258 -0.5546
vn 0.7220 -0.3791 -0.5788
vn -0.3787 -0.6561 -0.6528
vn 0.2184 -0.9010 -0.3749
vn -0.5440 -0.7753 -0.3210
vn 0.1012 -0.9855 -0.1363
vn -0.7361 0.6642 -0.1300
vn -0.7350 0.6630 -0.1417
vn -0.7292 0.6726 -0.1260
vn -0.7372 0.6631 -0.1298
vn -0.7092 0.7050 0.0015
vn -0.7138 0.7004 -0.0010
vn -0.1613 0.0600 0.9851
vn -0.0070 0.2298 0.9732
vn -0.2597 0.4523 0.8532
vn -0.5808 0.0677 0.8112
vn 0.0364 0.2740 0.9610
vn -0.2111 0.4959 0.8423
vn -0.3893 0.3138 0.8660
vn -0.1346 0.0912 0.9867
vn 0.6507 0.7439 -0.1522
vn 0.3388 0.9047 -0.2583
vn 0.6492 0.7598 -0.0353
vn 0.3382 0.9369 -0.0890
vn -0.4339 0.9008 0.0178
vn -0.4260 0.8989 -0.1025
vn -0.4041 0.8637 -0.3013
vn -0.4133 0.8598 -0.2998
vn -0.6916 0.6700 -0.2699
vn 0.6282 0.7714 0.1018
vn 0.3275 0.9428 0.0619
vn 0.6486 0.7309 -0.2125
vn 0.3481 0.9019 -0.2557
vn -0.0172 0.1147 0.9933
vn 0.0765 0.1984 0.9771
vn 0.4918 -0.3571 0.7941
vn 0.5824 -0.2566 0.7714
vn -0.0474 0.9911 -0.1242
vn 0.3341 0.9131 0.2336
vn -0.0613 0.9916 0.1140
vn 0.1870 0.4085 0.8934
vn 0.4227 0.6188 0.6621
vn -0.0788 0.5699 0.8179
vn 0.2369 0.7554 0.6110
vn -0.7005 0.6669 0.2542
vn -0.5631 0.5626 0.6053
vn -0.4591 0.8666 0.1957
vn -0.3870 0.7209 0.5749
vn 0.2475 0.3543 0.9018
vn 0.4782 0.5668 0.6708
vn -0.0372 0.0263 0.9990
vn -0.5743 0.7836 0.2372
vn -0.4225 0.6938 0.5832
vn 0.9978 0.0606 -0.0256
vn 0.7527 0.6383 -0.1614
vn 0.9942 0.0248 -0.1048
vn 0.7037 0.6899 -0.1702
vn 0.5023 -0.3201 0.8032
vn 0.0623 0.1340 0.9890
vn 0.1810 0.3064 0.9345
vn 0.4783 0.5668 0.6708
vn 0.8256 -0.0342 0.5632
vn 0.6450 0.6847 0.3393
vn 0.9445 0.0487 0.3250
vn -0.0709 0.1203 0.9902
vn -0.0576 0.1348 0.9892
vn -0.7846 0.6058 -0.1316
vn -0.7059 0.5069 -0.4948
vn -0.6874 0.7128 -0.1391
vn -0.6067 0.6161 -0.5024
vn -0.5654 0.8121 -0.1445
vn -0.8716 0.4750 -0.1210
vn -0.5658 0.8128 -0.1383
vn -0.8720 0.4758 -0.1149
vn -0.6877 0.7134 -0.1342
vn -0.7395 0.6605 -0.1296
vn 0.7322 -0.6699 0.1229
vn 0.7456 -0.6526 0.1346
vn -0.9931 -0.0604 -0.1002
vn -0.7338 0.6658 -0.1353
vn -0.5554 0.8131 -0.1742
vn -0.5596 0.8215 -0.1090
vn -0.7137 0.7004 -0.0011
vn -0.5581 0.2802 -0.7810
vn -0.3870 0.4685 -0.7941
vn -0.7318 0.4740 -0.4897
vn -0.5763 0.6453 -0.5015
vn -0.1669 0.6424 -0.7480
vn -0.7060 0.0489 -0.7065
vn -0.3467 0.7971 -0.4945
vn -0.8596 0.2325 -0.4550
vn -0.7060 0.0490 -0.7065
vn -0.3467 0.7970 -0.4945
vn -0.3333 0.5170 -0.7884
vn -0.5264 0.6888 -0.4985
vn -0.5295 0.3161 -0.7872
vn -0.0574 0.9975 0.0410
vn -0.0467 0.9894 -0.1372
vn -0.4249 0.9050 0.0195
vn -0.4252 0.8922 -0.1524
vn -0.0443 0.9839 -0.1733
vn 0.3390 0.9305 -0.1390
vn -0.0350 0.9523 -0.3031
vn 0.3481 0.9019 -0.2558
vn -0.0576 0.9973 0.0458
vn 0.3180 0.9460 0.0625
vn -0.0577 0.9973 0.0457
vn -0.4132 0.8599 -0.2997
vn -0.7357 0.6633 -0.1367
vn -0.6514 0.5695 -0.5014
vn 0.3761 0.8299 -0.4121
vn 0.3251 0.5803 -0.7467
vn -0.0300 0.9295 -0.3676
vn -0.0013 0.7349 -0.6781
vn 0.0353 0.3436 -0.9385
vn -0.2989 0.5459 -0.7827
vn -0.4150 0.7863 -0.4578
vn -0.2988 0.5459 -0.7828
vn -0.0013 0.7349 -0.6782
vn 0.6355 0.6433 -0.4271
vn 0.6518 0.7546 -0.0755
vn 0.6941 0.5874 -0.4161
vn 0.7039 0.7071 -0.0683
vn -0.0337 -0.1934 -0.9806
vn 0.6382 0.7688 0.0409
vn 0.6875 0.7219 0.0786
vn 0.7524 0.6383 -0.1627
vn 0.7186 0.6915 -0.0731
vn 0.6504 0.7555 -0.0791
vn 0.9978 0.0607 -0.0257
vn 0.9873 0.0815 0.1363
vn 0.7363 0.6707 0.0896
vn 0.6715 -0.4335 -0.6009
vn 0.2034 -0.0536 -0.9776
vn 0.3036 0.0633 -0.9507
vn 0.5157 -0.5919 -0.6195
vn 0.5951 -0.5044 -0.6256
vn 0.1899 -0.1191 -0.9746
vn 0.1113 -0.1402 -0.9838
vn 0.3660 0.1190 -0.9230
vn 0.5829 -0.5380 -0.6090
vn 0.7424 -0.3550 -0.5682
vn -0.2161 0.1415 -0.9661
vn 0.0569 -0.0943 -0.9939
vn -0.0941 0.2636 -0.9600
vn 0.1629 0.0230 -0.9864
vn -0.6708 -0.7405 0.0407
vn -0.6722 -0.7377 0.0626
vn -0.5789 -0.8118 0.0772
vn -0.4208 0.8885 -0.1830
vn -0.0498 0.9949 -0.0879
vn -0.7368 0.6621 -0.1368
vn -0.7282 0.6705 -0.1418
vn -0.6555 0.7129 0.2492
vn -0.5110 0.6161 0.5994
vn -0.7547 0.6038 0.2568
vn -0.6201 0.4960 0.6078
vn -0.5658 0.8128 -0.1384
vn -0.6188 0.7730 -0.1398
vn -0.5654 0.8121 -0.1444
vn -0.8088 0.5738 -0.1289
vn -0.6578 0.7400 -0.1405
vn -0.8091 0.5744 -0.1242
vn -0.6581 0.7406 -0.1358
vn -0.8738 0.4627 -0.1497
vn -0.7517 0.6039 -0.2651
vn -0.8780 0.4711 -0.0845
vn -0.7654 0.6435 0.0030
vn -0.7402 0.6574 -0.1413
vn -0.6248 0.7414 0.2449
vn -0.7803 0.5703 0.2568
vn -0.9066 0.3257 0.2683
vn -0.3937 0.8903 0.2288
vn -0.5658 0.8128 -0.1385
vn -0.8177 0.5156 0.2559
vn -0.7406 0.6593 -0.1297
vn -0.9053 -0.4231 0.0368
vn -0.6948 -0.7157 0.0710
vn -0.6931 -0.7176 0.0680
vn -0.3254 -0.1552 0.9328
vn -0.7130 0.6530 0.2552
vn 0.0624 0.1340 0.9890
vn -0.2511 -0.0402 0.9671
vn -0.6252 -0.7753 0.0901
vn 0.0130 -0.9881 0.1533
vn 0.0448 -0.9863 0.1586
vn -0.6407 -0.7637 0.0796
vn 0.0657 -0.9973 -0.0334
vn 0.0669 -0.9173 0.3924
vn -0.7654 0.6436 0.0029
vn -0.5762 0.6452 -0.5016
vn -0.7318 0.4741 -0.4897
vn -0.7060 0.0490 -0.7066
vn -0.8596 0.2325 -0.4551
vn -0.4203 0.4363 -0.7956
vn -0.9931 -0.0323 0.1130
vn -0.9380 0.3278 -0.1129
vn -0.9001 -0.4334 -0.0437
vn -0.9931 -0.0605 -0.1002
vn -0.9699 -0.0765 -0.2312
vn -0.7768 -0.1186 -0.6185
vn -0.6256 0.1863 -0.7576
vn -0.7768 -0.1185 -0.6185
vn -0.6059 -0.7231 -0.3315
vn -0.6377 -0.7695 0.0349
vn -0.5712 -0.8187 -0.0597
vn -0.6212 -0.7831 0.0299
vn -0.6918 -0.7217 0.0242
vn 0.0358 -0.9982 0.0483
vn 0.5952 -0.5044 -0.6256
vn 0.3857 -0.7476 -0.5407
vn -0.2286 0.1277 -0.9651
vn 0.0303 -0.1236 -0.9919
vn -0.7340 0.6662 -0.1318
vn -0.5596 0.8216 -0.1090
vn -0.6965 0.6661 -0.2668
vn -0.7803 0.5703 0.2567
vn -0.4773 0.6475 0.5941
vn -0.2501 0.8076 0.5340
vn -0.3937 0.8903 0.2289
vn -0.7893 0.2142 0.5755
vn -0.0354 0.9537 -0.2985
vn -0.0475 0.9911 -0.1242
vn -0.4265 0.8946 -0.1334
vn 0.3339 0.9408 -0.0585
vn -0.0353 0.9538 -0.2985
vn -0.0756 0.8822 0.4647
vn -0.0755 0.8823 0.4647
vn -0.0755 0.8822 0.4647
vn 0.5864 0.7406 0.3280
vn 0.7009 0.7129 -0.0235
vn 0.7364 0.6706 0.0894
vn 0.7147 0.6993 -0.0131
vn 0.6474 0.7615 -0.0322
vn 0.6362 -0.2088 0.7428
vn 0.4228 -0.4077 0.8094
vn 0.6582 -0.1877 0.7291
vn -0.3349 0.3773 0.8634
vn -0.0716 0.1607 0.9844
vn 0.5276 -0.5744 -0.6259
vn 0.5785 -0.5183 -0.6298
vn 0.0906 -0.2276 -0.9695
vn -0.6578 0.7400 -0.1406
vn 0.7382 -0.6613 0.1333
vn 0.7382 -0.6613 0.1332
vn 0.7376 -0.6613 0.1363
vn 0.7387 -0.6613 0.1301
vn 0.0162 -0.9944 0.1042
vn -0.7361 0.6652 -0.1251
vn -0.6916 0.6700 -0.2698
vn 0.1207 -0.0235 -0.9924
vn -0.4717 -0.1489 -0.8691
vn -0.1266 -0.2872 -0.9495
vn -0.4716 -0.1490 -0.8692
vn -0.0064 -0.1632 -0.9866
vn -0.2706 0.0790 -0.9594
vn 0.3394 0.9344 -0.1081
vn -0.7092 0.7050 0.0016
vn 0.6282 0.7714 0.1017
vn -0.0466 0.9895 -0.1372
vn 0.3059 0.1727 -0.9363
vn 0.5137 0.4384 -0.7376
vn -0.4722 0.3821 -0.7944
vn 0.5690 0.3869 -0.7257
vn 0.9730 0.0667 0.2208
vn 0.7220 -0.3792 -0.5788
vn 0.4070 -0.7258 -0.5545
vn 0.5689 0.3868 -0.7257
vn 0.8899 -0.1619 -0.4265
vn 0.9788 -0.0195 -0.2038
vn 0.6708 0.7405 -0.0407
vn 0.7545 0.6558 -0.0253
vn 0.6722 0.7377 -0.0626
vn 0.9960 0.0840 0.0288
vn 0.9929 0.0903 0.0779
vn -0.0352 0.2005 0.9791
vn -0.5654 0.8120 -0.1445
vn -0.9987 -0.0495 -0.0150
vn -0.9825 -0.0223 0.1849
vn -0.8510 0.0288 0.5243
vn -0.6842 -0.2586 0.6819
vn -0.7138 0.3613 0.6000
vn -0.8510 0.0287 0.5244
vn 0.3654 -0.4955 0.7881
vn 0.4578 -0.3945 0.7967
vn -0.3871 0.4685 -0.7941
vn -0.5581 0.2803 -0.7810
vn -0.6006 0.2229 -0.7679
vn 0.2183 -0.9010 -0.3749
vn -0.4773 0.6474 0.5941
vn -0.2501 0.8077 0.5339
vn -0.7893 0.2143 0.5754
vn -0.6201 0.4959 0.6079
vn 0.4227 0.6189 0.6621
vn 0.4341 -0.3890 0.8126
vn 0.0576 -0.1348 -0.9892
vn 0.7382 -0.6613 0.1331
vn -0.7479 0.6520 -0.1245
vn 0.9982 0.0519 0.0297
vn 0.7439 -0.6527 0.1435
vn 0.7453 -0.6555 0.1219
vn 0.7331 -0.6672 0.1323
vn 0.7381 -0.6613 0.1332
vn 0.7381 -0.6613 0.1334
vn -0.7850 0.6065 -0.1267
vn -0.5270 -0.4264 0.7351
vn -0.8716 0.4751 -0.1210
vn 0.0485 -0.9935 0.1027
vn 0.9946 0.0591 0.0855
vn -0.3870 0.4685 -0.7942
vn -0.3334 0.5169 -0.7884
vn 0.5136 0.4384 -0.7376
vn -0.4722 0.3821 -0.7943
vn 0.8899 -0.1618 -0.4265
vn -0.6722 -0.7377 0.0625
vn 0.7381 -0.6613 0.1333
vt 0.236771 0.960562
vt 0.261246 0.948912
vt 0.231434 0.955158
vt 0.278339 0.980000
vt 0.278371 0.976433
vt 0.274847 0.976708
vt 0.053170 0.955128
vt 0.058798 0.950046
vt 0.029458 0.942053
vt 0.810821 0.979636
vt 0.814322 0.976334
vt 0.810777 0.976066
vt 0.244225 0.707072
vt 0.238597 0.712150
vt 0.267940 0.720156
vt 0.537844 0.979671
vt 0.541344 0.976371
vt 0.537820 0.976104
vt 0.060621 0.701562
vt 0.036154 0.713208
vt 0.065967 0.706964
vt 0.551519 0.980000
vt 0.551552 0.976430
vt 0.548026 0.976707
vt 0.145351 0.945475
vt 0.204830 0.954363
vt 0.269003 0.086833
vt 0.225492 0.088492
vt 0.268957 0.089872
vt 0.225783 0.091528
vt 0.282700 0.089164
vt 0.275258 0.089645
vt 0.283221 0.092125
vt 0.275067 0.092586
vt 0.219431 0.091715
vt 0.211872 0.091888
vt 0.219819 0.094698
vt 0.211578 0.094820
vt 0.288439 0.085669
vt 0.288992 0.088685
vt 0.205645 0.088840
vt 0.205526 0.091870
vt 0.354938 0.047813
vt 0.330561 0.046177
vt 0.354940 0.050879
vt 0.330290 0.049236
vt 0.203907 0.972831
vt 0.198264 0.975429
vt 0.204054 0.975977
vt 0.198212 0.978502
vt 0.231751 0.973815
vt 0.231439 0.976914
vt 0.237498 0.976723
vt 0.237295 0.979772
vt 0.390288 0.046113
vt 0.361113 0.044907
vt 0.389909 0.049233
vt 0.361219 0.048054
vt 0.313164 0.080235
vt 0.311652 0.063427
vt 0.288038 0.082594
vt 0.286665 0.065455
vt 0.327758 0.042944
vt 0.324691 0.042802
vt 0.327460 0.046037
vt 0.324803 0.045841
vt 0.313519 0.083194
vt 0.313892 0.086174
vt 0.316568 0.082990
vt 0.316828 0.085578
vt 0.261315 0.976914
vt 0.261362 0.980000
vt 0.264391 0.977035
vt 0.264371 0.979700
vt 0.325986 0.025307
vt 0.329033 0.025602
vt 0.211647 0.089009
vt 0.219522 0.088863
vt 0.211252 0.068989
vt 0.219149 0.068819
vt 0.224696 0.068333
vt 0.225294 0.085432
vt 0.361843 0.027930
vt 0.356523 0.027898
vt 0.361152 0.041739
vt 0.355199 0.044829
vt 0.211466 0.066966
vt 0.205664 0.068723
vt 0.206194 0.066662
vt 0.273652 0.066714
vt 0.281306 0.066200
vt 0.273781 0.064678
vt 0.280972 0.064238
vt 0.314654 0.063156
vt 0.317641 0.062806
vt 0.314346 0.061111
vt 0.316884 0.060743
vt 0.274785 0.958210
vt 0.278376 0.958178
vt 0.027918 0.966931
vt 0.051723 0.968231
vt 0.090799 0.969137
vt 0.090719 0.956142
vt 0.085513 0.966184
vt 0.085661 0.960749
vt 0.070187 0.044435
vt 0.070150 0.047503
vt 0.113785 0.045944
vt 0.113593 0.049007
vt 0.056566 0.047041
vt 0.056490 0.049905
vt 0.064248 0.047470
vt 0.063929 0.050350
vt 0.119552 0.049367
vt 0.119638 0.052222
vt 0.127404 0.049503
vt 0.127181 0.052384
vt 0.051134 0.043352
vt 0.050732 0.046433
vt 0.133396 0.049331
vt 0.133348 0.046284
vt 0.546824 0.044882
vt 0.547090 0.047866
vt 0.571214 0.043133
vt 0.571465 0.046187
vt 0.085288 0.969314
vt 0.090764 0.972197
vt 0.051478 0.971236
vt 0.057407 0.968640
vt 0.057426 0.965514
vt 0.511500 0.043025
vt 0.511727 0.046195
vt 0.540866 0.041802
vt 0.540909 0.044969
vt 0.027459 0.024289
vt 0.052435 0.026192
vt 0.027704 0.022189
vt 0.052995 0.024136
vt 0.571742 0.049245
vt 0.574566 0.046041
vt 0.574743 0.048701
vt 0.023009 0.040889
vt 0.020000 0.040698
vt 0.022617 0.043887
vt 0.020019 0.043633
vt 0.024880 0.966839
vt 0.021822 0.966752
vt 0.024607 0.969924
vt 0.021954 0.969770
vt 0.024477 0.024031
vt 0.021505 0.023696
vt 0.065437 0.027394
vt 0.057788 0.026912
vt 0.133397 0.029194
vt 0.127803 0.029461
vt 0.026235 0.942116
vt 0.023075 0.942304
vt 0.540488 0.025849
vt 0.540161 0.027991
vt 0.545711 0.025854
vt 0.545477 0.027953
vt 0.114902 0.026786
vt 0.114351 0.028837
vt 0.120158 0.027334
vt 0.119900 0.029307
vt 0.127587 0.027435
vt 0.576009 0.025310
vt 0.575268 0.023115
vt 0.572963 0.025610
vt 0.572640 0.023488
vt 0.269465 0.695260
vt 0.245666 0.693968
vt 0.206597 0.693051
vt 0.206677 0.706045
vt 0.211883 0.696006
vt 0.211734 0.701440
vt 0.070161 0.083732
vt 0.070105 0.086796
vt 0.113697 0.085403
vt 0.113488 0.088465
vt 0.056546 0.086274
vt 0.056454 0.089136
vt 0.064222 0.086737
vt 0.063876 0.089614
vt 0.119456 0.088835
vt 0.119543 0.091688
vt 0.127318 0.088981
vt 0.127087 0.091861
vt 0.051119 0.082569
vt 0.050720 0.085646
vt 0.133324 0.088812
vt 0.133270 0.085767
vt 0.546852 0.084265
vt 0.547118 0.087248
vt 0.571236 0.082505
vt 0.571490 0.085559
vt 0.212107 0.692876
vt 0.206634 0.689992
vt 0.245908 0.690963
vt 0.239984 0.693559
vt 0.239965 0.696683
vt 0.511534 0.082423
vt 0.511761 0.085593
vt 0.540894 0.081187
vt 0.540937 0.084354
vt 0.027543 0.063421
vt 0.052479 0.065431
vt 0.027782 0.061324
vt 0.053046 0.063378
vt 0.571768 0.088617
vt 0.574588 0.085412
vt 0.574768 0.088071
vt 0.023025 0.079999
vt 0.020000 0.079798
vt 0.022637 0.082994
vt 0.020026 0.082740
vt 0.272505 0.695351
vt 0.275563 0.695436
vt 0.272773 0.692263
vt 0.275428 0.692415
vt 0.024563 0.063151
vt 0.021576 0.062805
vt 0.065484 0.066679
vt 0.057821 0.066170
vt 0.133314 0.068687
vt 0.127730 0.068954
vt 0.271161 0.720089
vt 0.274319 0.719899
vt 0.540508 0.065235
vt 0.540183 0.067377
vt 0.545730 0.065237
vt 0.545497 0.067337
vt 0.114843 0.066256
vt 0.114298 0.068302
vt 0.120097 0.066818
vt 0.119845 0.068788
vt 0.127517 0.066930
vt 0.576021 0.064680
vt 0.575278 0.062486
vt 0.572974 0.064981
vt 0.572649 0.062860
vt 0.551551 0.958162
vt 0.810746 0.957799
vt 0.033800 0.792966
vt 0.030666 0.793010
vt 0.031794 0.862341
vt 0.028662 0.862116
vt 0.027874 0.867707
vt 0.027659 0.875409
vt 0.267123 0.874773
vt 0.266895 0.882472
vt 0.263519 0.869184
vt 0.085469 0.950829
vt 0.199267 0.959349
vt 0.277411 0.675309
vt 0.507351 0.675309
vt 0.277411 0.419054
vt 0.507351 0.419054
vt 0.090632 0.975269
vt 0.092565 0.707772
vt 0.088479 0.702477
vt 0.070148 0.701869
vt 0.065504 0.696889
vt 0.029396 0.732046
vt 0.028127 0.773693
vt 0.032527 0.731900
vt 0.031228 0.774035
vt 0.026395 0.718120
vt 0.026131 0.726342
vt 0.029356 0.718622
vt 0.029199 0.726012
vt 0.024536 0.779175
vt 0.024240 0.787448
vt 0.027493 0.779723
vt 0.027312 0.787118
vt 0.029802 0.712570
vt 0.032943 0.712949
vt 0.027559 0.793092
vt 0.060082 0.682355
vt 0.036002 0.682134
vt 0.059880 0.685404
vt 0.036052 0.685221
vt 0.396158 0.092174
vt 0.396224 0.089102
vt 0.389919 0.088691
vt 0.390298 0.085571
vt 0.354929 0.090306
vt 0.361216 0.087490
vt 0.354933 0.087240
vt 0.361115 0.084343
vt 0.093338 0.686162
vt 0.065944 0.685213
vt 0.093484 0.689307
vt 0.065632 0.688312
vt 0.036101 0.688290
vt 0.033061 0.688201
vt 0.327453 0.085412
vt 0.324796 0.085209
vt 0.327274 0.088071
vt 0.325169 0.087386
vt 0.316361 0.043896
vt 0.316619 0.046485
vt 0.318975 0.043635
vt 0.318660 0.045764
vt 0.032974 0.685104
vt 0.032991 0.682440
vt 0.030314 0.685101
vt 0.030848 0.682959
vt 0.327758 0.082320
vt 0.330806 0.082504
vt 0.329066 0.064982
vt 0.332101 0.065211
vt 0.268039 0.027449
vt 0.268753 0.044562
vt 0.273495 0.027513
vt 0.274695 0.047588
vt 0.355199 0.084256
vt 0.356548 0.067328
vt 0.390917 0.068539
vt 0.390526 0.082401
vt 0.396228 0.068821
vt 0.396213 0.086052
vt 0.391415 0.066419
vt 0.361539 0.065224
vt 0.361866 0.067366
vt 0.285972 0.024232
vt 0.280820 0.025050
vt 0.286516 0.026287
vt 0.281160 0.027018
vt 0.268453 0.025358
vt 0.224072 0.026900
vt 0.224620 0.028952
vt 0.311476 0.024318
vt 0.314457 0.024048
vt 0.311224 0.022220
vt 0.314157 0.022005
vt 0.313310 0.044095
vt 0.312959 0.041133
vt 0.288241 0.046532
vt 0.287842 0.043451
vt 0.814667 0.050167
vt 0.814667 0.031695
vt 0.584729 0.050167
vt 0.584730 0.031695
vt 0.099180 0.683641
vt 0.099128 0.686714
vt 0.206767 0.686921
vt 0.098124 0.702790
vt 0.098981 0.689771
vt 0.266653 0.869141
vt 0.269761 0.869060
vt 0.268675 0.800074
vt 0.271779 0.800337
vt 0.271456 0.725719
vt 0.152043 0.716685
vt 0.032308 0.718554
vt 0.035694 0.731817
vt 0.034373 0.774310
vt 0.267292 0.738755
vt 0.266077 0.781207
vt 0.231886 0.965237
vt 0.227246 0.960256
vt 0.231921 0.970698
vt 0.203869 0.969689
vt 0.208914 0.959657
vt 0.204026 0.964288
vt 0.237428 0.973706
vt 0.264866 0.930211
vt 0.266107 0.888102
vt 0.261699 0.930295
vt 0.262962 0.887829
vt 0.268046 0.943489
vt 0.268202 0.936095
vt 0.265088 0.943567
vt 0.265308 0.935873
vt 0.269836 0.882418
vt 0.270010 0.875028
vt 0.264459 0.949168
vt 0.261268 0.973845
vt 0.396209 0.049643
vt 0.396199 0.046592
vt 0.390515 0.042943
vt 0.330807 0.043123
vt 0.316193 0.079998
vt 0.264307 0.973938
vt 0.268196 0.066670
vt 0.268959 0.083767
vt 0.282617 0.086304
vt 0.390905 0.029079
vt 0.396218 0.029360
vt 0.396757 0.027280
vt 0.391401 0.026959
vt 0.332331 0.023691
vt 0.332067 0.025825
vt 0.356287 0.025799
vt 0.268608 0.064579
vt 0.329352 0.023480
vt 0.081058 0.955866
vt 0.062688 0.955386
vt 0.057750 0.960120
vt 0.023820 0.922851
vt 0.026938 0.923182
vt 0.025006 0.881242
vt 0.028121 0.881083
vt 0.020000 0.936564
vt 0.022992 0.936240
vt 0.020226 0.928347
vt 0.023269 0.928856
vt 0.021743 0.875561
vt 0.024726 0.875188
vt 0.021930 0.867292
vt 0.024976 0.867797
vt 0.025558 0.861854
vt 0.051503 0.974293
vt 0.027452 0.973070
vt 0.027686 0.969991
vt 0.505797 0.049723
vt 0.512105 0.049315
vt 0.505860 0.052793
vt 0.547092 0.050931
vt 0.540807 0.048117
vt 0.084958 0.972444
vt 0.057536 0.971754
vt 0.577223 0.045840
vt 0.576848 0.048017
vt 0.022381 0.046477
vt 0.020338 0.045761
vt 0.024467 0.972587
vt 0.022358 0.971939
vt 0.574264 0.042949
vt 0.569927 0.025838
vt 0.070893 0.027322
vt 0.511116 0.029162
vt 0.505809 0.029442
vt 0.505810 0.046672
vt 0.510619 0.027042
vt 0.058124 0.024945
vt 0.070477 0.025231
vt 0.024779 0.021986
vt 0.025693 0.044074
vt 0.026035 0.041112
vt 0.211925 0.711357
vt 0.216338 0.706323
vt 0.234706 0.706810
vt 0.239643 0.702077
vt 0.273565 0.739357
vt 0.270447 0.739024
vt 0.272348 0.780959
vt 0.269233 0.781116
vt 0.277396 0.725646
vt 0.274404 0.725968
vt 0.277164 0.733864
vt 0.274122 0.733353
vt 0.275608 0.786638
vt 0.272624 0.787009
vt 0.275414 0.794905
vt 0.272367 0.794396
vt 0.245884 0.687908
vt 0.269928 0.689121
vt 0.269696 0.692199
vt 0.505835 0.089123
vt 0.512141 0.088712
vt 0.505899 0.092193
vt 0.547121 0.090314
vt 0.540836 0.087501
vt 0.212439 0.689747
vt 0.239855 0.690445
vt 0.577245 0.085209
vt 0.576870 0.087386
vt 0.022401 0.085581
vt 0.020341 0.084873
vt 0.272913 0.689602
vt 0.275020 0.690245
vt 0.574283 0.082320
vt 0.569941 0.065211
vt 0.070924 0.066637
vt 0.511144 0.068561
vt 0.505837 0.068843
vt 0.505846 0.086072
vt 0.510645 0.066441
vt 0.058166 0.064209
vt 0.070534 0.064546
vt 0.024851 0.061108
vt 0.025711 0.083189
vt 0.026047 0.080231
vt 0.206135 0.027226
vt 0.132872 0.027132
vt 0.205598 0.029287
vt 0.026170 0.928803
vt 0.030094 0.923449
vt 0.938098 0.121162
vt 0.934491 0.117191
vt 0.928087 0.117162
vt 0.924470 0.121164
vt 0.746606 0.121166
vt 0.742999 0.117193
vt 0.736592 0.117162
vt 0.732970 0.121163
vt 0.882783 0.121167
vt 0.879189 0.117196
vt 0.872798 0.117166
vt 0.869194 0.121168
vt 0.801905 0.121170
vt 0.798315 0.117198
vt 0.791926 0.117167
vt 0.788322 0.121169
vt 0.958491 0.126340
vt 0.962871 0.121311
vt 0.708182 0.121311
vt 0.712565 0.126339
vt 0.505273 0.027362
vt 0.059951 0.688421
vt 0.093366 0.697848
vt 0.093522 0.692449
vt 0.225175 0.046064
vt 0.268786 0.047629
vt 0.225372 0.049128
vt 0.282394 0.047145
vt 0.282471 0.050009
vt 0.275015 0.050466
vt 0.219402 0.049481
vt 0.211543 0.049605
vt 0.219307 0.052334
vt 0.211764 0.052487
vt 0.205615 0.046372
vt 0.205556 0.049420
vt 0.330553 0.085559
vt 0.065463 0.691429
vt 0.361158 0.081176
vt 0.330276 0.088616
vt 0.315988 0.040899
vt 0.318995 0.040698
vt 0.030004 0.688106
vt 0.317444 0.023703
vt 0.211182 0.029566
vt 0.356314 0.065229
vt 0.218816 0.027446
vt 0.219072 0.029420
vt 0.211405 0.027542
vt 0.326019 0.064680
vt 0.326762 0.062486
vt 0.329390 0.062860
vt 0.814705 0.089566
vt 0.814705 0.071097
vt 0.584730 0.089566
vt 0.584729 0.071097
vt 0.396766 0.066740
vt 0.505300 0.066763
vt 0.205696 0.085793
vt 0.030433 0.779671
vt 0.269691 0.786786
vt 0.269469 0.794484
vt 0.030199 0.787376
vt 0.267998 0.930061
vt 0.269208 0.888442
vt 0.271014 0.943986
vt 0.271269 0.935763
vt 0.272792 0.882962
vt 0.273080 0.874696
vt 0.267602 0.949545
vt 0.396142 0.052715
vt 0.327287 0.048697
vt 0.325183 0.048018
vt 0.319182 0.082730
vt 0.318888 0.084857
vt 0.267050 0.977043
vt 0.266512 0.979184
vt 0.274921 0.086771
vt 0.361513 0.025788
vt 0.286096 0.063402
vt 0.224148 0.066287
vt 0.311417 0.061329
vt 0.070208 0.050543
vt 0.113309 0.052046
vt 0.055969 0.052873
vt 0.064118 0.053291
vt 0.119253 0.055208
vt 0.127481 0.055316
vt 0.050211 0.049453
vt 0.133513 0.052361
vt 0.577330 0.042802
vt 0.025343 0.047057
vt 0.065311 0.025360
vt 0.022250 0.021635
vt 0.814322 0.957818
vt 0.070168 0.089836
vt 0.113196 0.091501
vt 0.055919 0.092100
vt 0.064068 0.092555
vt 0.119160 0.094670
vt 0.127383 0.094792
vt 0.050168 0.088663
vt 0.133436 0.091840
vt 0.577349 0.082171
vt 0.025333 0.086169
vt 0.132787 0.066627
vt 0.065349 0.064643
vt 0.022325 0.060745
vt 0.541344 0.957873
vt 0.537770 0.957851
vt 0.031276 0.880992
vt 0.205432 0.052453
vt 0.522199 0.398145
vt 0.517344 0.393792
vt 0.514785 0.396343
vt 0.284827 0.396346
vt 0.282269 0.393794
vt 0.277411 0.398145
vt 0.521705 0.400728
vt 0.277905 0.400729
vt 0.520324 0.402789
vt 0.518260 0.404166
vt 0.515676 0.404654
vt 0.491905 0.404761
vt 0.279285 0.402791
vt 0.281349 0.404168
vt 0.283933 0.404657
vt 0.307710 0.404764
vt 0.488073 0.400930
vt 0.311542 0.400933
vt 0.457776 0.400932
vt 0.341846 0.400933
vt 0.345681 0.404764
vt 0.453944 0.404764
vt 0.198411 0.972371
vt 0.032089 0.726241
vt 0.332369 0.063077
vt 0.273620 0.025478
vt 0.814705 0.067485
vt 0.584729 0.067485
vt 0.814667 0.028082
vt 0.584730 0.028082
vt 0.974836 0.148006
vt 0.970873 0.151628
vt 0.970846 0.158038
vt 0.974838 0.161669
vt 0.974839 0.340004
vt 0.970875 0.343623
vt 0.970846 0.350034
vt 0.974837 0.353668
vt 0.974841 0.203473
vt 0.970878 0.207083
vt 0.970850 0.213481
vt 0.974842 0.217101
vt 0.974843 0.284580
vt 0.970880 0.288184
vt 0.970851 0.294579
vt 0.974843 0.298196
vt 0.980000 0.127556
vt 0.974982 0.123176
vt 0.974982 0.378498
vt 0.980000 0.374118
vt 0.265544 0.799847
vt 0.271220 0.733403
vt 0.319212 0.079798
vt 0.267363 0.974039
vt 0.218887 0.066849
vt 0.326723 0.023111
vt 0.025940 0.936491
vt 0.569658 0.023704
vt 0.569670 0.063078
vt 0.268727 0.050672
vt 0.225646 0.052167
vt 0.282991 0.052976
vt 0.274831 0.053409
vt 0.219690 0.055321
vt 0.211461 0.055420
vt 0.288767 0.049552
vt 0.324691 0.082171
vt 0.313666 0.047080
vt 0.316677 0.021643
vt 0.547956 0.958192
vt 0.726932 0.109204
vt 0.722068 0.104854
vt 0.719510 0.107409
vt 0.489711 0.107406
vt 0.487152 0.104852
vt 0.482290 0.109204
vt 0.726440 0.111790
vt 0.482783 0.111790
vt 0.725061 0.113855
vt 0.722996 0.115234
vt 0.720410 0.115724
vt 0.696642 0.115833
vt 0.484164 0.113854
vt 0.486228 0.115232
vt 0.488813 0.115722
vt 0.512576 0.115831
vt 0.692813 0.111998
vt 0.516405 0.111996
vt 0.662531 0.111997
vt 0.546684 0.111998
vt 0.550513 0.115832
vt 0.658700 0.115832
s 1
f 1/1/1 2/2/2 3/3/3
f 4/4/4 5/5/5 6/6/6
f 7/7/7 8/8/8 9/9/9
f 10/10/10 11/11/11 12/12/12
f 13/13/13 14/14/14 15/15/15
f 16/16/16 17/17/17 18/18/18
f 19/19/19 20/20/20 21/21/21
f 22/22/22 23/23/23 24/24/24
f 2/2/2 25/25/25 3/3/3
f 26/26/8 3/3/3 25/25/25
f 27/27/26 28/28/27 29/29/28
f 30/30/29 29/29/28 28/28/27
f 31/31/30 32/32/31 33/33/32
f 34/34/33 33/33/32 32/32/31
f 35/35/34 36/36/31 37/37/32
f 38/38/33 37/37/32 36/36/31
f 27/27/26 29/29/28 32/32/31
f 34/34/33 32/32/31 29/29/28
f 39/39/35 31/31/30 40/40/36
f 33/33/32 40/40/36 31/31/30
f 41/41/37 42/42/38 36/36/31
f 38/38/33 36/36/31 42/42/38
f 28/28/27 35/35/34 30/30/29
f 37/37/32 30/30/29 35/35/34
f 43/43/39 44/44/40 45/45/41
f 46/46/42 45/45/41 44/44/40
f 47/47/43 48/48/44 49/49/45
f 50/50/46 49/49/45 48/48/44
f 51/51/47 52/52/48 53/53/49
f 54/54/50 53/53/49 52/52/48
f 55/55/51 56/56/52 57/57/53
f 58/58/48 57/57/53 56/56/52
f 59/59/54 60/60/55 61/61/56
f 62/62/57 61/61/56 60/60/55
f 63/63/58 64/64/59 65/65/60
f 66/66/61 65/65/60 64/64/59
f 67/67/62 68/68/63 69/69/64
f 70/70/65 69/69/64 68/68/63
f 71/71/66 72/72/67 73/73/68
f 74/74/69 73/73/68 72/72/67
f 64/64/59 63/63/58 75/75/70
f 76/76/71 75/75/70 63/63/58
f 77/77/72 78/78/73 79/79/74
f 80/80/75 79/79/74 78/78/73
f 81/81/76 80/80/75 82/82/77
f 78/78/73 82/82/77 80/80/75
f 83/83/78 84/84/79 85/85/80
f 86/86/81 85/85/80 84/84/79
f 68/68/63 67/67/62 40/40/36
f 39/39/35 40/40/36 67/67/62
f 79/79/74 87/87/82 88/88/83
f 89/89/84 88/88/83 87/87/82
f 90/90/74 91/91/75 92/92/85
f 93/93/86 92/92/85 91/91/75
f 94/94/87 95/95/88 96/96/89
f 97/97/90 96/96/89 95/95/88
f 98/98/91 6/6/6 99/99/92
f 5/5/5 99/99/92 6/6/6
f 9/9/9 100/100/93 7/7/7
f 101/101/94 7/7/7 100/100/93
f 102/102/95 103/103/96 104/104/97
f 105/105/98 104/104/97 103/103/96
f 106/106/99 107/107/100 108/108/101
f 109/109/102 108/108/101 107/107/100
f 110/110/103 111/111/104 112/112/105
f 113/113/106 112/112/105 111/111/104
f 114/114/103 115/115/104 116/116/105
f 117/117/106 116/116/105 115/115/104
f 113/113/106 107/107/100 112/112/105
f 106/106/99 112/112/105 107/107/100
f 118/118/107 119/119/108 110/110/103
f 111/111/104 110/110/103 119/119/108
f 117/117/106 120/120/109 116/116/105
f 121/121/110 116/116/105 120/120/109
f 108/108/101 109/109/102 114/114/103
f 115/115/104 114/114/103 109/109/102
f 122/122/111 123/123/112 124/124/113
f 125/125/114 124/124/113 123/123/112
f 104/104/97 126/126/115 102/102/95
f 127/127/116 102/102/95 126/126/115
f 128/128/117 129/129/43 101/101/94
f 130/130/118 101/101/94 129/129/43
f 131/131/119 132/132/52 133/133/120
f 134/134/121 133/133/120 132/132/52
f 135/135/122 136/136/123 137/137/124
f 138/138/125 137/137/124 136/136/123
f 125/125/114 139/139/126 140/140/127
f 141/141/128 140/140/127 139/139/126
f 142/142/129 143/143/130 144/144/131
f 145/145/132 144/144/131 143/143/130
f 146/146/133 147/147/134 148/148/135
f 149/149/136 148/148/135 147/147/134
f 142/142/129 150/150/137 143/143/130
f 151/151/138 143/143/130 150/150/137
f 112/112/105 152/152/139 110/110/103
f 153/153/140 110/110/103 152/152/139
f 154/154/141 155/155/142 121/121/110
f 116/116/105 121/121/110 155/155/142
f 146/146/133 156/156/143 147/147/134
f 157/157/144 147/147/134 156/156/143
f 158/158/145 159/159/146 160/160/147
f 161/161/148 160/160/147 159/159/146
f 162/162/149 163/163/150 164/164/151
f 165/165/140 164/164/151 163/163/150
f 155/155/142 166/166/152 165/165/140
f 164/164/151 165/165/140 166/166/152
f 167/167/153 168/168/154 169/169/155
f 170/170/156 169/169/155 168/168/154
f 15/15/15 171/171/157 13/13/13
f 172/172/158 13/13/13 171/171/157
f 173/173/159 174/174/160 175/175/161
f 176/176/162 175/175/161 174/174/160
f 177/177/163 178/178/27 179/179/164
f 180/180/165 179/179/164 178/178/27
f 181/181/72 182/182/31 183/183/73
f 184/184/166 183/183/73 182/182/31
f 185/185/72 186/186/31 187/187/73
f 188/188/166 187/187/73 186/186/31
f 184/184/166 178/178/27 183/183/73
f 177/177/163 183/183/73 178/178/27
f 189/189/167 190/190/168 181/181/72
f 182/182/31 181/181/72 190/190/168
f 188/188/166 191/191/169 187/187/73
f 192/192/170 187/187/73 191/191/169
f 179/179/164 180/180/165 185/185/72
f 186/186/31 185/185/72 180/180/165
f 193/193/171 194/194/172 195/195/173
f 196/196/174 195/195/173 194/194/172
f 175/175/161 197/197/175 173/173/159
f 198/198/176 173/173/159 197/197/175
f 199/199/177 200/200/178 172/172/158
f 201/201/179 172/172/158 200/200/178
f 202/202/180 203/203/181 204/204/182
f 205/205/183 204/204/182 203/203/181
f 206/206/184 207/207/185 208/208/186
f 209/209/187 208/208/186 207/207/185
f 196/196/174 210/210/188 211/211/189
f 212/212/190 211/211/189 210/210/188
f 213/213/191 214/214/192 215/215/193
f 216/216/194 215/215/193 214/214/192
f 217/217/195 218/218/196 219/219/197
f 220/220/198 219/219/197 218/218/196
f 213/213/191 221/221/199 214/214/192
f 222/222/200 214/214/192 221/221/199
f 183/183/73 223/223/75 181/181/72
f 224/224/74 181/181/72 223/223/75
f 225/225/201 226/226/75 192/192/170
f 187/187/73 192/192/170 226/226/75
f 217/217/195 227/227/202 218/218/196
f 228/228/203 218/218/196 227/227/202
f 229/229/204 230/230/205 231/231/206
f 232/232/207 231/231/206 230/230/205
f 233/233/208 234/234/209 235/235/85
f 236/236/210 235/235/85 234/234/209
f 226/226/75 237/237/86 236/236/210
f 235/235/85 236/236/210 237/237/86
f 238/238/211 239/239/212 240/240/213
f 241/241/214 240/240/213 239/239/212
f 242/242/215 23/23/23 243/243/216
f 12/12/12 243/243/216 23/23/23
f 244/244/217 245/245/218 246/246/219
f 247/247/220 246/246/219 245/245/218
f 248/248/221 249/249/222 250/250/223
f 251/251/224 250/250/223 249/249/222
f 250/250/223 252/252/225 248/248/221
f 246/246/219 248/248/221 252/252/225
f 253/253/3 103/103/96 25/25/25
f 26/26/8 25/25/25 103/103/96
f 103/103/96 254/254/226 26/26/8
f 255/255/22 256/256/227 257/257/228
f 258/258/4 257/257/228 256/256/227
f 50/50/46 48/48/44 259/259/229
f 127/127/116 259/259/229 48/48/44
f 260/260/230 261/261/231 21/21/21
f 262/262/232 21/21/21 261/261/231
f 263/263/233 19/19/19 262/262/232
f 21/21/21 262/262/232 19/19/19
f 264/264/234 265/265/235 266/266/236
f 267/267/237 266/266/236 265/265/235
f 268/268/238 269/269/239 270/270/240
f 271/271/241 270/270/240 269/269/239
f 272/272/238 273/273/242 274/274/243
f 275/275/241 274/274/243 273/273/242
f 269/269/239 264/264/234 271/271/241
f 266/266/236 271/271/241 264/264/234
f 268/268/238 270/270/240 276/276/244
f 277/277/245 276/276/244 270/270/240
f 273/273/242 278/278/246 275/275/241
f 245/245/218 275/275/241 278/278/246
f 272/272/238 274/274/243 265/265/235
f 267/267/237 265/265/235 274/274/243
f 279/279/247 280/280/248 281/281/249
f 282/282/250 281/281/249 280/280/248
f 283/283/251 284/284/252 285/285/253
f 286/286/254 285/285/253 284/284/252
f 287/287/247 288/288/255 289/289/256
f 290/290/181 289/289/256 288/288/255
f 291/291/253 292/292/257 293/293/258
f 294/294/175 293/293/258 292/292/257
f 20/20/20 295/295/259 277/277/245
f 296/296/260 277/277/245 295/295/259
f 297/297/261 298/298/262 299/299/263
f 300/300/264 299/299/263 298/298/262
f 301/301/265 302/302/266 303/303/262
f 304/304/264 303/303/262 302/302/266
f 305/305/267 306/306/263 307/307/268
f 308/308/269 307/307/268 306/306/263
f 309/309/270 310/310/271 311/311/272
f 312/312/273 311/311/272 310/310/271
f 313/313/150 314/314/274 315/315/140
f 316/316/103 315/315/140 314/314/274
f 310/310/271 317/317/275 312/312/273
f 318/318/276 312/312/273 317/317/275
f 319/319/277 320/320/182 321/321/278
f 322/322/279 321/321/278 320/320/182
f 323/323/280 324/324/281 319/319/277
f 325/325/282 319/319/277 324/324/281
f 326/326/283 327/327/152 328/328/284
f 329/329/285 328/328/284 327/327/152
f 330/330/286 331/331/287 313/313/150
f 332/332/288 313/313/150 331/331/287
f 333/333/289 334/334/290 335/335/291
f 336/336/292 335/335/291 334/334/290
f 337/337/293 338/338/294 339/339/295
f 340/340/296 339/339/295 338/338/294
f 341/341/297 342/342/17 343/343/298
f 344/344/299 343/343/298 342/342/17
f 345/345/251 346/346/300 347/347/301
f 198/198/176 347/347/301 346/346/300
f 174/174/160 173/173/159 348/348/302
f 349/349/303 348/348/302 173/173/159
f 350/350/304 351/351/305 352/352/306
f 353/353/307 352/352/306 351/351/305
f 5/5/5 4/4/4 18/18/18
f 16/16/16 18/18/18 4/4/4
f 354/354/308 15/15/15 355/355/309
f 355/355/309 20/20/20 356/356/310
f 354/354/308 355/355/309 356/356/310
f 357/357/311 358/358/312 359/359/313
f 360/360/314 359/359/313 358/358/312
f 361/361/98 362/362/315 363/363/316
f 364/364/118 363/363/316 362/362/315
f 362/362/315 365/365/317 364/364/118
f 366/366/318 364/364/118 365/365/317
f 367/367/319 1/1/1 363/363/316
f 361/361/98 363/363/316 1/1/1
f 365/365/317 26/26/8 366/366/318
f 254/254/226 366/366/318 26/26/8
f 368/368/320 369/369/321 370/370/314
f 371/371/313 370/370/314 369/369/321
f 372/372/322 373/373/323 374/374/224
f 375/375/324 374/374/224 373/373/323
f 376/376/322 377/377/323 251/251/224
f 250/250/223 251/251/224 377/377/323
f 373/373/323 368/368/320 375/375/324
f 370/370/314 375/375/324 368/368/320
f 372/372/322 374/374/224 378/378/325
f 2/2/2 378/378/325 374/374/224
f 377/377/323 350/350/304 250/250/223
f 252/252/225 250/250/223 350/350/304
f 376/376/322 251/251/224 369/369/321
f 371/371/313 369/369/321 251/251/224
f 53/53/49 71/71/66 367/367/319
f 379/379/326 367/367/319 71/71/66
f 380/380/327 381/381/328 55/55/51
f 382/382/120 55/55/51 381/381/328
f 43/43/39 56/56/52 86/86/81
f 85/85/80 86/86/81 56/56/52
f 47/47/43 51/51/47 364/364/118
f 363/363/316 364/364/118 51/51/47
f 383/383/329 63/63/58 44/44/40
f 65/65/60 44/44/40 63/63/58
f 59/59/54 67/67/62 384/384/330
f 69/69/64 384/384/330 67/67/62
f 379/379/326 71/71/66 385/385/331
f 73/73/68 385/385/331 71/71/66
f 59/59/54 384/384/330 60/60/55
f 94/94/87 60/60/55 384/384/330
f 81/81/76 82/82/77 386/386/332
f 387/387/164 386/386/332 82/82/77
f 62/62/57 91/91/75 61/61/56
f 388/388/333 61/61/56 91/91/75
f 83/83/78 85/85/80 389/389/146
f 382/382/120 389/389/146 85/85/80
f 390/390/334 391/391/335 389/389/146
f 392/392/145 389/389/146 391/391/335
f 393/393/336 394/394/337 395/395/338
f 84/84/79 395/395/338 394/394/337
f 90/90/74 92/92/85 386/386/332
f 396/396/208 386/386/332 92/92/85
f 76/76/71 394/394/337 397/397/339
f 393/393/336 397/397/339 394/394/337
f 253/253/3 8/8/8 398/398/315
f 399/399/317 398/398/315 8/8/8
f 400/400/340 399/399/317 7/7/7
f 8/8/8 7/7/7 399/399/317
f 401/401/235 402/402/341 403/403/234
f 404/404/342 403/403/234 402/402/341
f 405/405/343 406/406/344 407/407/238
f 408/408/240 407/407/238 406/406/344
f 409/409/239 410/410/344 411/411/238
f 412/412/240 411/411/238 410/410/344
f 407/407/238 408/408/240 401/401/235
f 402/402/341 401/401/235 408/408/240
f 156/156/143 406/406/344 157/157/144
f 405/405/343 157/157/144 406/406/344
f 411/411/238 412/412/240 413/413/345
f 247/247/220 413/413/345 412/412/240
f 404/404/342 410/410/344 403/403/234
f 409/409/239 403/403/234 410/410/344
f 414/414/346 128/128/117 415/415/126
f 416/416/347 415/415/126 128/128/117
f 132/132/52 417/417/348 418/418/48
f 419/419/349 418/418/48 417/417/348
f 420/420/346 123/123/112 421/421/53
f 134/134/121 421/421/53 123/123/112
f 422/422/350 126/126/115 423/423/53
f 129/129/43 423/423/53 126/126/115
f 9/9/9 156/156/143 100/100/93
f 146/146/133 100/100/93 156/156/143
f 140/140/127 141/141/128 424/424/132
f 425/425/351 424/424/132 141/141/128
f 144/144/131 145/145/132 426/426/352
f 427/427/353 426/426/352 145/145/132
f 148/148/135 149/149/136 428/428/128
f 429/429/353 428/428/128 149/149/136
f 430/430/354 169/169/155 124/124/113
f 431/431/355 124/124/113 169/169/155
f 432/432/288 152/152/139 106/106/99
f 112/112/105 106/106/99 152/152/139
f 124/124/113 431/431/355 122/122/111
f 161/161/148 122/122/111 431/431/355
f 433/433/356 434/434/357 131/131/119
f 435/435/358 131/131/119 434/434/357
f 436/436/359 433/433/356 158/158/145
f 159/159/146 158/158/145 433/433/356
f 138/138/125 136/136/123 437/437/151
f 153/153/140 437/437/151 136/136/123
f 438/438/360 432/432/288 162/162/149
f 163/163/150 162/162/149 432/432/288
f 135/135/122 137/137/124 150/150/137
f 439/439/361 150/150/137 137/137/124
f 440/440/362 119/119/108 441/441/363
f 118/118/107 441/441/363 119/119/108
f 442/442/364 14/14/14 443/443/365
f 444/444/231 443/443/365 14/14/14
f 445/445/366 444/444/231 13/13/13
f 14/14/14 13/13/13 444/444/231
f 446/446/29 447/447/367 448/448/368
f 449/449/320 448/448/368 447/447/367
f 450/450/369 451/451/370 452/452/371
f 453/453/322 452/452/371 451/451/370
f 454/454/369 455/455/370 456/456/371
f 457/457/322 456/456/371 455/455/370
f 452/452/371 453/453/322 446/446/29
f 447/447/367 446/446/29 453/453/322
f 227/227/202 451/451/370 228/228/203
f 450/450/369 228/228/203 451/451/370
f 456/456/371 457/457/322 353/353/307
f 352/352/306 353/353/307 457/457/322
f 449/449/320 455/455/370 448/448/368
f 454/454/369 448/448/368 455/455/370
f 458/458/372 199/199/177 459/459/373
f 460/460/374 459/459/373 199/199/177
f 203/203/181 461/461/375 462/462/255
f 463/463/301 462/462/255 461/461/375
f 464/464/376 194/194/172 465/465/253
f 205/205/183 465/465/253 194/194/172
f 466/466/257 197/197/175 467/467/253
f 200/200/178 467/467/253 197/197/175
f 15/15/15 227/227/202 171/171/157
f 217/217/195 171/171/157 227/227/202
f 211/211/189 212/212/190 468/468/194
f 469/469/377 468/468/194 212/212/190
f 215/215/193 216/216/194 470/470/198
f 471/471/378 470/470/198 216/216/194
f 219/219/197 220/220/198 472/472/190
f 473/473/379 472/472/190 220/220/198
f 474/474/380 240/240/213 195/195/173
f 475/475/381 195/195/173 240/240/213
f 476/476/76 223/223/75 177/177/163
f 183/183/73 177/177/163 223/223/75
f 195/195/173 475/475/381 193/193/171
f 232/232/207 193/193/171 475/475/381
f 477/477/382 478/478/383 202/202/180
f 479/479/384 202/202/180 478/478/383
f 480/480/281 477/477/382 229/229/204
f 230/230/205 229/229/204 477/477/382
f 209/209/187 207/207/185 481/481/385
f 224/224/74 481/481/385 207/207/185
f 482/482/386 476/476/76 233/233/208
f 234/234/209 233/233/208 476/476/76
f 206/206/184 208/208/186 221/221/199
f 483/483/387 221/221/199 208/208/186
f 484/484/388 190/190/168 485/485/389
f 189/189/167 485/485/389 190/190/168
f 486/486/390 487/487/391 488/488/392
f 154/154/141 488/488/392 487/487/391
f 245/245/218 278/278/246 247/247/220
f 413/413/345 247/247/220 278/278/246
f 375/375/324 370/370/314 489/489/221
f 490/490/393 489/489/221 370/370/314
f 435/435/358 434/434/357 381/381/328
f 390/390/334 381/381/328 434/434/357
f 491/491/394 492/492/395 493/493/395
f 491/491/394 493/493/395 494/494/395
f 495/495/394 496/496/395 497/497/395
f 495/495/394 497/497/395 498/498/396
f 499/499/394 500/500/395 501/501/395
f 499/499/394 501/501/395 502/502/395
f 503/503/394 504/504/395 505/505/395
f 503/503/394 505/505/395 506/506/395
f 507/507/395 508/508/397 491/491/394
f 498/498/396 509/509/394 510/510/395
f 507/507/395 491/491/394 494/494/395
f 495/495/394 498/498/396 510/510/395
f 507/507/395 494/494/395 499/499/394
f 506/506/395 495/495/394 510/510/395
f 506/506/395 510/510/395 507/507/395
f 507/507/395 499/499/394 502/502/395
f 507/507/395 502/502/395 503/503/394
f 507/507/395 503/503/394 506/506/395
f 381/381/328 380/380/327 435/435/358
f 417/417/348 435/435/358 380/380/327
f 390/390/334 434/434/357 391/391/335
f 511/511/398 391/391/335 434/434/357
f 20/20/20 19/19/19 295/295/259
f 512/512/399 295/295/259 19/19/19
f 348/348/302 349/349/303 513/513/366
f 514/514/400 513/513/366 349/349/303
f 314/314/274 515/515/401 516/516/102
f 517/517/100 516/516/102 515/515/401
f 518/518/105 316/316/103 519/519/106
f 520/520/402 519/519/106 316/316/103
f 521/521/105 522/522/403 523/523/106
f 524/524/404 523/523/106 522/522/403
f 314/314/274 516/516/102 316/316/103
f 520/520/402 316/316/103 516/516/102
f 340/340/296 518/518/105 339/339/295
f 519/519/106 339/339/295 518/518/105
f 525/525/405 526/526/406 522/522/403
f 524/524/404 522/522/403 526/526/406
f 515/515/401 521/521/105 517/517/100
f 523/523/106 517/517/100 521/521/105
f 317/317/275 310/310/271 289/289/256
f 527/527/407 289/289/256 310/310/271
f 514/514/400 349/349/303 293/293/258
f 346/346/300 293/293/258 349/349/303
f 528/528/408 294/294/175 512/512/399
f 281/281/249 512/512/399 294/294/175
f 320/320/182 529/529/409 286/286/254
f 290/290/181 286/286/254 529/529/409
f 333/333/289 335/335/291 328/328/284
f 326/326/283 328/328/284 335/335/291
f 527/527/407 297/297/261 530/530/410
f 299/299/263 530/530/410 297/297/261
f 531/531/411 301/301/265 532/532/412
f 303/303/262 532/532/412 301/301/265
f 296/296/260 305/305/267 533/533/413
f 307/307/268 533/533/413 305/305/267
f 531/531/411 532/532/412 334/334/290
f 534/534/414 334/334/290 532/532/412
f 316/316/103 518/518/105 315/315/140
f 329/329/285 315/315/140 518/518/105
f 488/488/392 525/525/405 535/535/140
f 522/522/403 535/535/140 525/525/405
f 296/296/260 533/533/413 277/277/245
f 276/276/244 277/277/245 533/533/413
f 324/324/281 536/536/415 325/325/282
f 318/318/276 325/325/282 536/536/415
f 331/331/287 537/537/416 332/332/288
f 538/538/285 332/332/288 537/537/416
f 535/535/140 538/538/285 539/539/417
f 537/537/416 539/539/417 538/538/285
f 540/540/418 311/311/272 541/541/419
f 542/542/420 541/541/419 311/311/272
f 543/543/421 544/544/422 545/545/423
f 546/546/6 545/545/423 544/544/422
f 321/321/278 478/478/383 547/547/424
f 548/548/425 547/547/424 478/478/383
f 322/322/279 284/284/252 479/479/384
f 461/461/375 479/479/384 284/284/252
f 41/41/37 549/549/426 191/191/169
f 192/192/170 191/191/169 549/549/426
f 225/225/201 192/192/170 88/88/83
f 549/549/426 88/88/83 192/192/170
f 550/550/427 551/551/308 358/358/312
f 360/360/314 358/358/312 551/551/308
f 552/552/224 551/551/308 553/553/222
f 550/550/427 553/553/222 551/551/308
f 26/26/8 365/365/317 3/3/3
f 362/362/315 3/3/3 365/365/317
f 361/361/98 1/1/1 362/362/315
f 3/3/3 362/362/315 1/1/1
f 554/554/368 555/555/29 368/368/320
f 369/369/321 368/368/320 555/555/29
f 556/556/371 557/557/369 372/372/322
f 373/373/323 372/372/322 557/557/369
f 558/558/371 559/559/369 376/376/322
f 377/377/323 376/376/322 559/559/369
f 557/557/369 554/554/368 373/373/323
f 368/368/320 373/373/323 554/554/368
f 556/556/371 372/372/322 560/560/36
f 378/378/325 560/560/36 372/372/322
f 559/559/369 351/351/305 377/377/323
f 350/350/304 377/377/323 351/351/305
f 558/558/371 376/376/322 555/555/29
f 369/369/321 555/555/29 376/376/322
f 54/54/50 72/72/67 53/53/49
f 71/71/66 53/53/49 72/72/67
f 561/561/428 380/380/327 57/57/53
f 55/55/51 57/57/53 380/380/327
f 45/45/41 58/58/48 43/43/39
f 56/56/52 43/43/39 58/58/48
f 49/49/45 52/52/48 47/47/43
f 51/51/47 47/47/43 52/52/48
f 2/2/2 379/379/326 378/378/325
f 385/385/331 378/378/325 379/379/326
f 65/65/60 66/66/61 562/562/429
f 563/563/430 562/562/429 66/66/61
f 69/69/64 70/70/65 564/564/431
f 565/565/430 564/564/431 70/70/65
f 73/73/68 74/74/69 566/566/432
f 567/567/433 566/566/432 74/74/69
f 63/63/58 383/383/329 76/76/71
f 394/394/337 76/76/71 383/383/329
f 386/386/332 387/387/164 90/90/74
f 568/568/72 90/90/74 387/387/164
f 383/383/329 86/86/81 394/394/337
f 84/84/79 394/394/337 86/86/81
f 389/389/146 382/382/120 390/390/334
f 381/381/328 390/390/334 382/382/120
f 392/392/145 569/569/359 389/389/146
f 83/83/78 389/389/146 569/569/359
f 570/570/434 93/93/86 62/62/57
f 91/91/75 62/62/57 93/93/86
f 396/396/208 571/571/386 386/386/332
f 81/81/76 386/386/332 571/571/386
f 60/60/55 94/94/87 572/572/435
f 96/96/89 572/572/435 94/94/87
f 67/67/62 59/59/54 39/39/35
f 61/61/56 39/39/35 59/59/54
f 25/25/25 9/9/9 253/253/3
f 8/8/8 253/253/3 9/9/9
f 107/107/100 573/573/436 109/109/102
f 574/574/437 109/109/102 573/573/436
f 111/111/104 575/575/242 113/113/106
f 576/576/238 113/113/106 575/575/242
f 115/115/104 577/577/242 117/117/106
f 578/578/238 117/117/106 577/577/242
f 576/576/238 573/573/436 113/113/106
f 107/107/100 113/113/106 573/573/436
f 119/119/108 579/579/438 111/111/104
f 575/575/242 111/111/104 579/579/438
f 578/578/238 580/580/345 117/117/106
f 120/120/109 117/117/106 580/580/345
f 109/109/102 574/574/437 115/115/104
f 577/577/242 115/115/104 574/574/437
f 123/123/112 420/420/346 125/125/114
f 139/139/126 125/125/114 420/420/346
f 126/126/115 422/422/350 127/127/116
f 259/259/229 127/127/116 422/422/350
f 414/414/346 423/423/53 128/128/117
f 129/129/43 128/128/117 423/423/53
f 132/132/52 418/418/48 134/134/121
f 421/421/53 134/134/121 418/418/48
f 441/441/363 118/118/107 135/135/122
f 136/136/123 135/135/122 118/118/107
f 430/430/354 140/140/127 581/581/130
f 424/424/132 581/581/130 140/140/127
f 440/440/362 144/144/131 582/582/134
f 426/426/352 582/582/134 144/144/131
f 416/416/347 148/148/135 415/415/126
f 428/428/128 415/415/126 148/148/135
f 581/581/130 167/167/153 430/430/354
f 169/169/155 430/430/354 167/167/153
f 116/116/105 155/155/142 114/114/103
f 165/165/140 114/114/103 155/155/142
f 163/163/150 108/108/101 165/165/140
f 114/114/103 165/165/140 108/108/101
f 159/159/146 133/133/120 161/161/148
f 122/122/111 161/161/148 133/133/120
f 582/582/134 579/579/438 440/440/362
f 119/119/108 440/440/362 579/579/438
f 487/487/391 166/166/152 154/154/141
f 155/155/142 154/154/141 166/166/152
f 152/152/139 583/583/152 153/153/140
f 437/437/151 153/153/140 583/583/152
f 150/150/137 439/439/361 151/151/138
f 584/584/439 151/151/138 439/439/361
f 585/585/421 243/243/216 11/11/11
f 12/12/12 11/11/11 243/243/216
f 355/355/309 15/15/15 442/442/364
f 14/14/14 442/442/364 15/15/15
f 178/178/27 586/586/29 180/180/165
f 587/587/440 180/180/165 586/586/29
f 182/182/31 588/588/441 184/184/166
f 589/589/442 184/184/166 588/588/441
f 186/186/31 590/590/33 188/188/166
f 591/591/32 188/188/166 590/590/33
f 589/589/442 586/586/29 184/184/166
f 178/178/27 184/184/166 586/586/29
f 190/190/168 592/592/203 182/182/31
f 588/588/441 182/182/31 592/592/203
f 591/591/32 593/593/443 188/188/166
f 191/191/169 188/188/166 593/593/443
f 180/180/165 587/587/440 186/186/31
f 590/590/33 186/186/31 587/587/440
f 194/194/172 464/464/376 196/196/174
f 210/210/188 196/196/174 464/464/376
f 197/197/175 466/466/257 198/198/176
f 347/347/301 198/198/176 466/466/257
f 458/458/372 467/467/253 199/199/177
f 200/200/178 199/199/177 467/467/253
f 203/203/181 462/462/255 205/205/183
f 465/465/253 205/205/183 462/462/255
f 485/485/389 189/189/167 206/206/184
f 207/207/185 206/206/184 189/189/167
f 474/474/380 211/211/189 594/594/444
f 468/468/194 594/594/444 211/211/189
f 484/484/388 215/215/193 595/595/196
f 470/470/198 595/595/196 215/215/193
f 460/460/374 219/219/197 459/459/373
f 472/472/190 459/459/373 219/219/197
f 594/594/444 238/238/211 474/474/380
f 240/240/213 474/474/380 238/238/211
f 187/187/73 226/226/75 185/185/72
f 236/236/210 185/185/72 226/226/75
f 234/234/209 179/179/164 236/236/210
f 185/185/72 236/236/210 179/179/164
f 230/230/205 204/204/182 232/232/207
f 193/193/171 232/232/207 204/204/182
f 595/595/196 592/592/203 484/484/388
f 190/190/168 484/484/388 592/592/203
f 596/596/445 237/237/86 225/225/201
f 226/226/75 225/225/201 237/237/86
f 223/223/75 597/597/86 224/224/74
f 481/481/385 224/224/74 597/597/86
f 221/221/199 483/483/387 222/222/200
f 598/598/212 222/222/200 483/483/387
f 599/599/297 600/600/446 17/17/17
f 18/18/18 17/17/17 600/600/446
f 23/23/23 22/22/22 12/12/12
f 10/10/10 12/12/12 22/22/22
f 370/370/314 371/371/313 490/490/393
f 601/601/311 490/490/393 371/371/313
f 602/602/246 526/526/406 580/580/345
f 120/120/109 580/580/345 526/526/406
f 251/251/224 249/249/222 371/371/313
f 601/601/311 371/371/313 249/249/222
f 526/526/406 525/525/405 120/120/109
f 121/121/110 120/120/109 525/525/405
f 603/603/447 604/604/394 605/605/395
f 606/606/395 607/607/394 608/608/394
f 609/609/395 603/603/447 605/605/395
f 606/606/395 608/608/394 610/610/395
f 611/611/395 609/609/395 605/605/395
f 612/612/395 611/611/395 605/605/395
f 613/613/395 612/612/395 605/605/395
f 614/614/395 613/613/395 605/605/395
f 606/606/395 610/610/395 615/615/395
f 606/606/395 615/615/395 616/616/395
f 606/606/395 616/616/395 617/617/395
f 606/606/395 617/617/395 618/618/395
f 619/619/395 614/614/395 605/605/395
f 606/606/395 618/618/395 620/620/395
f 621/621/395 619/619/395 605/605/395
f 606/606/395 620/620/395 622/622/395
f 623/623/395 624/624/395 621/621/395
f 622/622/395 623/623/395 621/621/395
f 621/621/395 605/605/395 606/606/395
f 621/621/395 606/606/395 622/622/395
f 48/48/44 625/625/448 127/127/116
f 102/102/95 127/127/116 625/625/448
f 263/263/233 262/262/232 528/528/408
f 514/514/400 528/528/408 262/262/232
f 262/262/232 261/261/231 514/514/400
f 513/513/366 514/514/400 261/261/231
f 512/512/399 19/19/19 528/528/408
f 263/263/233 528/528/408 19/19/19
f 261/261/231 260/260/230 513/513/366
f 348/348/302 513/513/366 260/260/230
f 266/266/236 267/267/237 357/357/311
f 358/358/312 357/357/311 267/267/237
f 270/270/240 271/271/241 356/356/310
f 626/626/222 356/356/310 271/271/241
f 274/274/243 275/275/241 550/550/427
f 553/553/222 550/550/427 275/275/241
f 271/271/241 266/266/236 626/626/222
f 357/357/311 626/626/222 266/266/236
f 270/270/240 356/356/310 277/277/245
f 20/20/20 277/277/245 356/356/310
f 275/275/241 245/245/218 553/553/222
f 244/244/217 553/553/222 245/245/218
f 274/274/243 550/550/427 267/267/237
f 358/358/312 267/267/237 550/550/427
f 281/281/249 282/282/250 512/512/399
f 295/295/259 512/512/399 282/282/250
f 284/284/252 322/322/279 286/286/254
f 320/320/182 286/286/254 322/322/279
f 289/289/256 290/290/181 317/317/275
f 529/529/409 317/317/275 290/290/181
f 293/293/258 294/294/175 514/514/400
f 528/528/408 514/514/400 294/294/175
f 310/310/271 309/309/270 527/527/407
f 297/297/261 527/527/407 309/309/270
f 338/338/294 337/337/293 531/531/411
f 301/301/265 531/531/411 337/337/293
f 295/295/259 282/282/250 296/296/260
f 305/305/267 296/296/260 282/282/250
f 338/338/294 531/531/411 333/333/289
f 334/334/290 333/333/289 531/531/411
f 332/332/288 515/515/401 313/313/150
f 314/314/274 313/313/150 515/515/401
f 328/328/284 329/329/285 340/340/296
f 518/518/105 340/340/296 329/329/285
f 325/325/282 529/529/409 319/319/277
f 320/320/182 319/319/277 529/529/409
f 321/321/278 547/547/424 319/319/277
f 323/323/280 319/319/277 547/547/424
f 627/627/449 312/312/273 536/536/415
f 318/318/276 536/536/415 312/312/273
f 315/315/140 628/628/417 313/313/150
f 330/330/286 313/313/150 628/628/417
f 311/311/272 312/312/273 542/542/420
f 627/627/449 542/542/420 312/312/273
f 544/544/422 629/629/450 546/546/6
f 630/630/451 546/546/6 629/629/450
f 342/342/17 631/631/227 344/344/299
f 632/632/452 344/344/299 631/631/227
f 284/284/252 283/283/251 461/461/375
f 463/463/301 461/461/375 283/283/251
f 633/633/395 634/634/395 635/635/395
f 633/633/395 635/635/395 636/636/395
f 637/637/395 638/638/395 639/639/395
f 637/637/395 639/639/395 640/640/395
f 641/641/453 642/642/395 643/643/395
f 641/641/453 643/643/395 644/644/454
f 645/645/394 646/646/395 647/647/395
f 645/645/394 647/647/395 648/648/395
f 649/649/395 650/650/395 633/633/395
f 640/640/395 651/651/395 652/652/395
f 649/649/395 633/633/395 636/636/395
f 637/637/395 640/640/395 652/652/395
f 649/649/395 636/636/395 641/641/453
f 648/648/395 637/637/395 652/652/395
f 648/648/395 652/652/395 649/649/395
f 649/649/395 641/641/453 644/644/454
f 649/649/395 644/644/454 645/645/394
f 649/649/395 645/645/394 648/648/395
f 252/252/225 350/350/304 653/653/455
f 352/352/306 653/653/455 350/350/304
f 321/321/278 322/322/279 478/478/383
f 479/479/384 478/478/383 322/322/279
f 626/626/222 357/357/311 654/654/224
f 359/359/313 654/654/224 357/357/311
f 99/99/92 5/5/5 600/600/446
f 18/18/18 600/600/446 5/5/5
f 2/2/2 1/1/1 379/379/326
f 367/367/319 379/379/326 1/1/1
f 254/254/226 625/625/448 366/366/318
f 364/364/118 366/366/318 625/625/448
f 387/387/164 82/82/77 27/27/26
f 28/28/27 27/27/26 82/82/77
f 388/388/333 568/568/72 31/31/30
f 32/32/31 31/31/30 568/568/72
f 78/78/73 77/77/72 35/35/34
f 36/36/31 35/35/34 77/77/72
f 387/387/164 27/27/26 568/568/72
f 32/32/31 568/568/72 27/27/26
f 61/61/56 388/388/333 39/39/35
f 31/31/30 39/39/35 388/388/333
f 549/549/426 41/41/37 77/77/72
f 36/36/31 77/77/72 41/41/37
f 82/82/77 78/78/73 28/28/27
f 35/35/34 28/28/27 78/78/73
f 86/86/81 383/383/329 43/43/39
f 44/44/40 43/43/39 383/383/329
f 364/364/118 625/625/448 47/47/43
f 48/48/44 47/47/43 625/625/448
f 363/363/316 51/51/47 367/367/319
f 53/53/49 367/367/319 51/51/47
f 382/382/120 85/85/80 55/55/51
f 56/56/52 55/55/51 85/85/80
f 60/60/55 572/572/435 62/62/57
f 570/570/434 62/62/57 572/572/435
f 44/44/40 65/65/60 46/46/42
f 562/562/429 46/46/42 65/65/60
f 384/384/330 69/69/64 655/655/456
f 564/564/431 655/655/456 69/69/64
f 385/385/331 73/73/68 656/656/63
f 566/566/432 656/656/63 73/73/68
f 384/384/330 655/655/456 94/94/87
f 95/95/88 94/94/87 655/655/456
f 568/568/72 388/388/333 90/90/74
f 91/91/75 90/90/74 388/388/333
f 88/88/83 549/549/426 79/79/74
f 77/77/72 79/79/74 549/549/426
f 385/385/331 656/656/63 378/378/325
f 560/560/36 378/378/325 656/656/63
f 569/569/359 395/395/338 83/83/78
f 84/84/79 83/83/78 395/395/338
f 571/571/386 657/657/86 81/81/76
f 80/80/75 81/81/76 657/657/86
f 79/79/74 80/80/75 87/87/82
f 657/657/86 87/87/82 80/80/75
f 75/75/70 76/76/71 658/658/90
f 397/397/339 658/658/90 76/76/71
f 400/400/340 130/130/118 399/399/317
f 398/398/315 399/399/317 130/130/118
f 130/130/118 104/104/97 398/398/315
f 105/105/98 398/398/315 104/104/97
f 7/7/7 101/101/94 400/400/340
f 130/130/118 400/400/340 101/101/94
f 398/398/315 105/105/98 253/253/3
f 103/103/96 253/253/3 105/105/98
f 402/402/341 490/490/393 404/404/342
f 601/601/311 404/404/342 490/490/393
f 406/406/344 659/659/457 408/408/240
f 489/489/221 408/408/240 659/659/457
f 410/410/344 249/249/222 412/412/240
f 248/248/221 412/412/240 249/249/222
f 408/408/240 489/489/221 402/402/341
f 490/490/393 402/402/341 489/489/221
f 9/9/9 659/659/457 156/156/143
f 406/406/344 156/156/143 659/659/457
f 412/412/240 248/248/221 247/247/220
f 246/246/219 247/247/220 248/248/221
f 601/601/311 249/249/222 404/404/342
f 410/410/344 404/404/342 249/249/222
f 128/128/117 101/101/94 416/416/347
f 100/100/93 416/416/347 101/101/94
f 131/131/119 435/435/358 132/132/52
f 417/417/348 132/132/52 435/435/358
f 123/123/112 122/122/111 134/134/121
f 133/133/120 134/134/121 122/122/111
f 126/126/115 104/104/97 129/129/43
f 130/130/118 129/129/43 104/104/97
f 124/124/113 125/125/114 430/430/354
f 140/140/127 430/430/354 125/125/114
f 441/441/363 142/142/129 440/440/362
f 144/144/131 440/440/362 142/142/129
f 100/100/93 146/146/133 416/416/347
f 148/148/135 416/416/347 146/146/133
f 441/441/363 135/135/122 142/142/129
f 150/150/137 142/142/129 135/135/122
f 163/163/150 432/432/288 108/108/101
f 106/106/99 108/108/101 432/432/288
f 136/136/123 118/118/107 153/153/140
f 110/110/103 153/153/140 118/118/107
f 159/159/146 433/433/356 133/133/120
f 131/131/119 133/133/120 433/433/356
f 436/436/359 511/511/398 433/433/356
f 434/434/357 433/433/356 511/511/398
f 660/660/458 160/160/147 431/431/355
f 161/161/148 431/431/355 160/160/147
f 438/438/360 583/583/152 432/432/288
f 152/152/139 432/432/288 583/583/152
f 169/169/155 170/170/156 431/431/355
f 660/660/458 431/431/355 170/170/156
f 445/445/366 201/201/179 444/444/231
f 443/443/365 444/444/231 201/201/179
f 201/201/179 175/175/161 443/443/365
f 176/176/162 443/443/365 175/175/161
f 13/13/13 172/172/158 445/445/366
f 201/201/179 445/445/366 172/172/158
f 443/443/365 176/176/162 442/442/364
f 174/174/160 442/442/364 176/176/162
f 447/447/367 359/359/313 449/449/320
f 360/360/314 449/449/320 359/359/313
f 451/451/370 354/354/308 453/453/322
f 654/654/224 453/453/322 354/354/308
f 455/455/370 551/551/308 457/457/322
f 552/552/224 457/457/322 551/551/308
f 453/453/322 654/654/224 447/447/367
f 359/359/313 447/447/367 654/654/224
f 15/15/15 354/354/308 227/227/202
f 451/451/370 227/227/202 354/354/308
f 457/457/322 552/552/224 352/352/306
f 653/653/455 352/352/306 552/552/224
f 360/360/314 551/551/308 449/449/320
f 455/455/370 449/449/320 551/551/308
f 199/199/177 172/172/158 460/460/374
f 171/171/157 460/460/374 172/172/158
f 202/202/180 479/479/384 203/203/181
f 461/461/375 203/203/181 479/479/384
f 194/194/172 193/193/171 205/205/183
f 204/204/182 205/205/183 193/193/171
f 197/197/175 175/175/161 200/200/178
f 201/201/179 200/200/178 175/175/161
f 195/195/173 196/196/174 474/474/380
f 211/211/189 474/474/380 196/196/174
f 485/485/389 213/213/191 484/484/388
f 215/215/193 484/484/388 213/213/191
f 171/171/157 217/217/195 460/460/374
f 219/219/197 460/460/374 217/217/195
f 485/485/389 206/206/184 213/213/191
f 221/221/199 213/213/191 206/206/184
f 234/234/209 476/476/76 179/179/164
f 177/177/163 179/179/164 476/476/76
f 207/207/185 189/189/167 224/224/74
f 181/181/72 224/224/74 189/189/167
f 230/230/205 477/477/382 204/204/182
f 202/202/180 204/204/182 477/477/382
f 480/480/281 548/548/425 477/477/382
f 478/478/383 477/477/382 548/548/425
f 661/661/459 231/231/206 475/475/381
f 232/232/207 475/475/381 231/231/206
f 482/482/386 597/597/86 476/476/76
f 223/223/75 476/476/76 597/597/86
f 240/240/213 241/241/214 475/475/381
f 661/661/459 475/475/381 241/241/214
f 525/525/405 488/488/392 121/121/110
f 154/154/141 121/121/110 488/488/392
f 489/489/221 659/659/457 375/375/324
f 374/374/224 375/375/324 659/659/457
f 659/659/457 9/9/9 25/25/25
f 25/25/25 2/2/2 374/374/224
f 659/659/457 25/25/25 374/374/224
f 103/103/96 102/102/95 254/254/226
f 625/625/448 254/254/226 102/102/95
f 244/244/217 246/246/219 653/653/455
f 252/252/225 653/653/455 246/246/219
f 380/380/327 561/561/428 417/417/348
f 419/419/349 417/417/348 561/561/428
f 20/20/20 355/355/309 21/21/21
f 260/260/230 21/21/21 355/355/309
f 516/516/102 517/517/100 662/662/437
f 663/663/460 662/662/437 517/517/100
f 519/519/106 520/520/402 664/664/238
f 665/665/242 664/664/238 520/520/402
f 523/523/106 524/524/404 666/666/238
f 667/667/242 666/666/238 524/524/404
f 516/516/102 662/662/437 520/520/402
f 665/665/242 520/520/402 662/662/437
f 339/339/295 519/519/106 668/668/461
f 664/664/238 668/668/461 519/519/106
f 526/526/406 602/602/246 524/524/404
f 667/667/242 524/524/404 602/602/246
f 517/517/100 523/523/106 663/663/460
f 666/666/238 663/663/460 523/523/106
f 289/289/256 527/527/407 287/287/247
f 530/530/410 287/287/247 527/527/407
f 293/293/258 346/346/300 291/291/253
f 345/345/251 291/291/253 346/346/300
f 294/294/175 292/292/257 281/281/249
f 279/279/247 281/281/249 292/292/257
f 286/286/254 290/290/181 285/285/253
f 288/288/255 285/285/253 290/290/181
f 338/338/294 333/333/289 340/340/296
f 328/328/284 340/340/296 333/333/289
f 309/309/270 669/669/462 297/297/261
f 298/298/262 297/297/261 669/669/462
f 337/337/293 670/670/463 301/301/265
f 302/302/266 301/301/265 670/670/463
f 282/282/250 280/280/248 305/305/267
f 306/306/263 305/305/267 280/280/248
f 669/669/462 309/309/270 540/540/418
f 311/311/272 540/540/418 309/309/270
f 522/522/403 521/521/105 535/535/140
f 538/538/285 535/535/140 521/521/105
f 332/332/288 538/538/285 515/515/401
f 521/521/105 515/515/401 538/538/285
f 325/325/282 318/318/276 529/529/409
f 317/317/275 529/529/409 318/318/276
f 670/670/463 337/337/293 668/668/461
f 339/339/295 668/668/461 337/337/293
f 535/535/140 539/539/417 488/488/392
f 486/486/390 488/488/392 539/539/417
f 315/315/140 329/329/285 628/628/417
f 327/327/152 628/628/417 329/329/285
f 334/334/290 534/534/414 336/336/292
f 671/671/464 336/336/292 534/534/414
f 672/672/465 24/24/24 242/242/215
f 23/23/23 242/242/215 24/24/24
f 673/673/395 674/674/395 675/675/395
f 676/676/395 677/677/394 678/678/466
f 679/679/395 673/673/395 675/675/395
f 676/676/395 678/678/466 680/680/395
f 681/681/395 679/679/395 675/675/395
f 682/682/395 681/681/395 675/675/395
f 683/683/395 682/682/395 675/675/395
f 684/684/395 683/683/395 675/675/395
f 676/676/395 680/680/395 685/685/395
f 676/676/395 685/685/395 686/686/395
f 676/676/395 686/686/395 687/687/395
f 676/676/395 687/687/395 688/688/395
f 689/689/395 684/684/395 675/675/395
f 676/676/395 688/688/395 690/690/395
f 691/691/395 689/689/395 675/675/395
f 676/676/395 690/690/395 692/692/395
f 693/693/395 694/694/395 691/691/395
f 692/692/395 693/693/395 691/691/395
f 691/691/395 675/675/395 676/676/395
f 691/691/395 676/676/395 692/692/395
f 346/346/300 349/349/303 198/198/176
f 173/173/159 198/198/176 349/349/303
f 442/442/364 174/174/160 355/355/309
f 260/260/230 355/355/309 174/174/160
f 174/174/160 348/348/302 260/260/230
f 42/42/38 41/41/37 593/593/443
f 191/191/169 593/593/443 41/41/37
f 89/89/84 596/596/445 88/88/83
f 225/225/201 88/88/83 596/596/445
f 553/553/222 244/244/217 552/552/224
f 653/653/455 552/552/224 244/244/217
f 654/654/224 354/354/308 626/626/222
f 356/356/310 626/626/222 354/354/308
