# Blender 5.1.2
# www.blender.org
o Grid
v -4.734178 -0.870944 5.153850
v -3.808944 -1.127710 5.258503
v -2.965285 -1.040737 5.300795
v -2.114577 -1.036916 5.320527
v -1.072065 -0.959192 5.280357
v -0.004688 -0.855283 5.212392
v 0.932868 -0.849271 5.155545
v 1.886302 -0.927239 5.135196
v 2.906712 -1.148354 5.121865
v 4.017176 -1.263084 5.000053
v 5.138347 -1.140894 4.905495
v -4.899776 -0.772787 4.144993
v -3.957177 -0.917357 4.225615
v -3.090174 -0.695958 4.248384
v -2.211287 -0.514413 4.237547
v -1.270894 -0.606823 4.223792
v -0.230925 -0.555595 4.166303
v 0.771685 -0.532688 4.144221
v 1.792546 -0.563892 4.142860
v 2.891463 -0.802493 4.126355
v 4.050108 -1.010677 4.045079
v 5.187774 -0.988004 3.972536
v -5.077533 -0.546471 3.119477
v -4.133620 -0.436836 3.175108
v -3.226948 -0.054980 3.177403
v -2.241928 0.258483 3.116087
v -1.247257 0.153209 3.073143
v -0.262743 0.056972 3.088965
v 0.767559 0.098313 3.126121
v 1.806801 0.107249 3.142121
v 2.892354 -0.159087 3.128676
v 4.125939 -0.728183 3.132877
v 5.275215 -0.927273 3.095984
v -5.121518 -0.448688 2.143896
v -4.159369 -0.167835 2.179075
v -3.195168 0.248583 2.164177
v -2.191236 0.462995 2.077551
v -1.191426 0.467876 1.946886
v -0.195187 0.516744 1.919963
v 0.798675 0.575695 2.025414
v 1.806464 0.543435 2.093325
v 2.919271 0.209123 2.099282
v 4.193522 -0.637473 2.129164
v 5.330360 -1.026987 2.169577
v -5.059813 -0.505915 1.088154
v -4.071864 -0.238472 1.155646
v -3.083864 0.134443 1.157639
v -2.129777 0.359248 0.979469
v -1.167037 0.472740 0.749457
v -0.187317 0.582577 0.671249
v 0.786510 0.688383 0.809923
v 1.801941 0.614406 0.951179
v 2.927387 0.197604 1.003186
v 4.150604 -0.518837 1.039724
v 5.304764 -0.999060 1.095558
v -5.014544 -0.561304 -0.074885
v -4.039855 -0.321210 -0.002066
v -3.112572 -0.033311 -0.013022
v -2.222873 0.294932 -0.204811
v -1.290596 0.537699 -0.440241
v -0.262604 0.706812 -0.478408
v 0.795827 0.677951 -0.325185
v 1.829227 0.548705 -0.165912
v 2.912684 0.236075 -0.100885
v 4.148042 -0.481976 -0.085542
v 5.294575 -0.920384 -0.021848
v -5.010157 -0.698448 -1.217275
v -4.115384 -0.422992 -1.193063
v -3.272378 -0.035767 -1.198070
v -2.393471 0.306841 -1.299190
v -1.412436 0.543219 -1.433333
v -0.309147 0.655246 -1.399775
v 0.825683 0.555002 -1.234126
v 1.831139 0.439492 -1.087375
v 2.897644 0.206954 -1.031354
v 4.137740 -0.431772 -1.047760
v 5.333935 -0.916811 -1.038308
v -5.000767 -0.701784 -2.260994
v -4.161573 -0.439793 -2.263379
v -3.363355 -0.006596 -2.235949
v -2.470154 0.291546 -2.251316
v -1.417373 0.415245 -2.270166
v -0.255308 0.424523 -2.193482
v 0.854404 0.372957 -2.022259
v 1.799447 0.384891 -1.899820
v 2.827112 0.266419 -1.881633
v 4.107954 -0.406951 -1.894048
v 5.380590 -1.016462 -1.922264
v -4.877506 -0.755907 -3.456883
v -4.144113 -0.566581 -3.433870
v -3.364611 -0.224177 -3.337425
v -2.405251 0.038690 -3.268195
v -1.334398 -0.057233 -3.271028
v -0.163284 -0.058041 -3.150066
v 0.879375 0.042139 -2.973489
v 1.786410 0.280577 -2.828759
v 2.828457 0.166866 -2.780457
v 4.168330 -0.579627 -2.769236
v 5.400815 -1.049768 -2.827543
v -4.762107 -0.782178 -4.450981
v -4.140254 -0.752349 -4.430349
v -3.335458 -0.610494 -4.390841
v -2.273373 -0.554866 -4.405168
v -1.209472 -0.771366 -4.481878
v -0.092371 -0.790286 -4.382608
v 0.928647 -0.597617 -4.178545
v 1.920852 -0.366703 -3.972252
v 3.022563 -0.358072 -3.815242
v 4.278763 -0.805555 -3.769998
v 5.387731 -0.930927 -3.809890
v -4.722002 -0.755291 -5.075696
v -4.162908 -0.770575 -5.129919
v -3.298305 -0.758281 -5.251207
v -2.158874 -0.924818 -5.445388
v -1.108877 -1.133620 -5.562038
v -0.072751 -1.148438 -5.527827
v 0.996434 -1.014176 -5.335721
v 2.078501 -0.901960 -5.126535
v 3.218050 -0.812039 -4.939857
v 4.337193 -0.856927 -4.883046
vn 0.1976 0.9733 0.1167
vn -0.0210 0.9769 0.2125
vn -0.1375 0.9323 0.3344
vn -0.0395 0.9240 0.3804
vn -0.0196 0.9406 0.3390
vn -0.0252 0.9549 0.2957
vn 0.0289 0.9528 0.3021
vn 0.1366 0.9383 0.3177
vn 0.1827 0.9347 0.3049
vn 0.0654 0.9649 0.2542
vn -0.0473 0.9771 0.2077
vn 0.0793 0.9675 0.2401
vn -0.0638 0.9512 0.3018
vn -0.1935 0.8853 0.4228
vn -0.0471 0.8793 0.4739
vn 0.0248 0.8963 0.4428
vn -0.0148 0.9111 0.4120
vn 0.0053 0.9085 0.4179
vn 0.1154 0.8924 0.4362
vn 0.2157 0.8934 0.3940
vn 0.1244 0.9498 0.2869
vn 0.0246 0.9792 0.2013
vn -0.1161 0.9613 0.2499
vn -0.2165 0.9229 0.3186
vn -0.2799 0.8804 0.3827
vn -0.0700 0.9175 0.3914
vn 0.0571 0.9095 0.4117
vn -0.0113 0.8995 0.4368
vn -0.0262 0.8890 0.4571
vn 0.1128 0.8814 0.4587
vn 0.3101 0.8683 0.3871
vn 0.2817 0.9336 0.2213
vn 0.1743 0.9799 0.0974
vn -0.2385 0.9697 0.0525
vn -0.3113 0.9481 0.0649
vn -0.3093 0.9489 0.0632
vn -0.1142 0.9905 0.0760
vn -0.0161 0.9910 0.1328
vn -0.0573 0.9788 0.1968
vn -0.0303 0.9719 0.2336
vn 0.1529 0.9641 0.2170
vn 0.3958 0.9044 0.1597
vn 0.4036 0.9115 0.0792
vn 0.3013 0.9530 0.0317
vn -0.2555 0.9641 -0.0718
vn -0.3039 0.9482 -0.0921
vn -0.3045 0.9466 -0.1059
vn -0.1917 0.9798 -0.0562
vn -0.1179 0.9927 0.0255
vn -0.0859 0.9945 0.0606
vn 0.0026 0.9992 0.0404
vn 0.1932 0.9810 0.0176
vn 0.4199 0.9074 0.0190
vn 0.4424 0.8960 0.0390
vn 0.3601 0.9316 0.0491
vn -0.2533 0.9642 -0.0787
vn -0.2985 0.9522 -0.0648
vn -0.3315 0.9428 -0.0359
vn -0.2653 0.9641 0.0101
vn -0.1708 0.9847 0.0336
vn -0.0555 0.9984 0.0042
vn 0.0648 0.9967 -0.0485
vn 0.2010 0.9779 -0.0581
vn 0.3895 0.9209 -0.0134
vn 0.4304 0.9022 0.0263
vn 0.3671 0.9294 0.0384
vn -0.2789 0.9592 -0.0462
vn -0.3409 0.9399 -0.0178
vn -0.3717 0.9279 0.0287
vn -0.2772 0.9607 0.0159
vn -0.1476 0.9867 -0.0677
vn -0.0028 0.9895 -0.1443
vn 0.0947 0.9840 -0.1510
vn 0.1581 0.9837 -0.0858
vn 0.3483 0.9373 -0.0157
vn 0.4291 0.9033 0.0033
vn 0.3862 0.9224 -0.0036
vn -0.2855 0.9573 -0.0454
vn -0.3628 0.9304 -0.0512
vn -0.3755 0.9241 -0.0711
vn -0.2093 0.9666 -0.1477
vn -0.0516 0.9616 -0.2694
vn 0.0335 0.9450 -0.3254
vn 0.0281 0.9673 -0.2522
vn 0.0673 0.9902 -0.1223
vn 0.3024 0.9516 -0.0553
vn 0.4361 0.8981 -0.0566
vn 0.3980 0.9152 -0.0634
vn -0.2173 0.9708 -0.1013
vn -0.2791 0.9475 -0.1560
vn -0.2797 0.9239 -0.2610
vn -0.0848 0.9288 -0.3609
vn 0.0487 0.8953 -0.4428
vn 0.0230 0.8886 -0.4580
vn -0.0529 0.9119 -0.4071
vn -0.0080 0.9479 -0.3184
vn 0.2656 0.9316 -0.2481
vn 0.3860 0.9127 -0.1343
vn 0.3176 0.9461 -0.0640
vn -0.0865 0.9947 -0.0561
vn -0.1318 0.9840 -0.1197
vn -0.1206 0.9566 -0.2653
vn 0.0419 0.9273 -0.3720
vn 0.0924 0.9140 -0.3952
vn -0.0097 0.9147 -0.4040
vn -0.0762 0.9025 -0.4239
vn -0.0251 0.8994 -0.4364
vn 0.1931 0.9219 -0.3358
vn 0.2434 0.9610 -0.1315
vn 0.1986 0.9793 -0.0403
vn -0.0121 0.9999 0.0064
vn -0.0568 0.9970 -0.0531
vn -0.0288 0.9805 -0.1944
vn 0.1053 0.9514 -0.2894
vn 0.0907 0.9472 -0.3074
vn -0.0224 0.9493 -0.3135
vn -0.0814 0.9331 -0.3503
vn -0.0295 0.9200 -0.3909
vn 0.1179 0.9486 -0.2938
vn 0.1744 0.9746 -0.1405
vt 0.039428 0.015839
vt 0.125260 0.002787
vt 0.110834 0.095849
vt 0.026993 0.107202
vt 0.201027 0.001827
vt 0.189402 0.100255
vt 0.276970 0.000097
vt 0.268496 0.106933
vt 0.370526 0.006383
vt 0.351445 0.104627
vt 0.465839 0.017612
vt 0.442373 0.113115
vt 0.549156 0.026385
vt 0.530338 0.119248
vt 0.634089 0.030798
vt 0.620275 0.123724
vt 0.726684 0.031326
vt 0.719575 0.124356
vt 0.825093 0.044423
vt 0.823746 0.131948
vt 0.923808 0.059833
vt 0.924036 0.143420
vt 0.096786 0.198568
vt 0.011313 0.201284
vt 0.182170 0.209046
vt 0.267394 0.223331
vt 0.351410 0.223803
vt 0.436278 0.220903
vt 0.524738 0.222854
vt 0.612605 0.227109
vt 0.707095 0.226324
vt 0.825910 0.217816
vt 0.930281 0.220909
vt 0.094867 0.290923
vt 0.005019 0.289302
vt 0.185637 0.298705
vt 0.271051 0.310508
vt 0.354730 0.323578
vt 0.439372 0.328585
vt 0.523153 0.323707
vt 0.605998 0.320687
vt 0.701062 0.317954
vt 0.831795 0.307704
vt 0.938522 0.303307
vt 0.095630 0.382506
vt 0.004094 0.384694
vt 0.188073 0.385524
vt 0.271730 0.403617
vt 0.353761 0.425469
vt 0.437176 0.434183
vt 0.519274 0.424726
vt 0.603645 0.414193
vt 0.703826 0.409656
vt 0.825934 0.404481
vt 0.936383 0.398966
vt 0.093449 0.485133
vt 0.003758 0.489659
vt 0.178631 0.487500
vt 0.260374 0.505155
vt 0.342265 0.526573
vt 0.429804 0.531000
vt 0.518314 0.519294
vt 0.605775 0.507280
vt 0.701050 0.503223
vt 0.824256 0.503063
vt 0.932815 0.498894
vt 0.083347 0.590505
vt 0.000097 0.592976
vt 0.164667 0.590404
vt 0.246037 0.598956
vt 0.331577 0.610561
vt 0.424488 0.607856
vt 0.520446 0.596490
vt 0.606363 0.585430
vt 0.699255 0.582518
vt 0.819752 0.587351
vt 0.934123 0.589912
vt 0.080326 0.685358
vt 0.002044 0.686385
vt 0.159597 0.680492
vt 0.239951 0.679641
vt 0.329477 0.681958
vt 0.427881 0.677474
vt 0.522843 0.665403
vt 0.603147 0.654300
vt 0.689880 0.654200
vt 0.813885 0.661305
vt 0.938522 0.669374
vt 0.080924 0.790280
vt 0.013334 0.793299
vt 0.155735 0.778006
vt 0.241774 0.768983
vt 0.333746 0.776628
vt 0.434937 0.769066
vt 0.524864 0.751987
vt 0.602465 0.732329
vt 0.689534 0.729618
vt 0.820833 0.739964
vt 0.937819 0.750250
vt 0.078849 0.880738
vt 0.023596 0.881681
vt 0.151936 0.877533
vt 0.247143 0.881965
vt 0.341978 0.899002
vt 0.439821 0.893406
vt 0.529475 0.870389
vt 0.616589 0.844177
vt 0.713066 0.827414
vt 0.832077 0.831358
vt 0.932147 0.838347
vt 0.076024 0.942786
vt 0.026417 0.937251
vt 0.152395 0.955639
vt 0.253535 0.980910
vt 0.347975 0.999903
vt 0.440487 0.999411
vt 0.536630 0.979338
vt 0.633265 0.956439
vt 0.734661 0.934531
vt 0.834882 0.931638
s 1
f 1/1/1 2/2/2 13/3/13 12/4/12
f 2/2/2 3/5/3 14/6/14 13/3/13
f 3/5/3 4/7/4 15/8/15 14/6/14
f 4/7/4 5/9/5 16/10/16 15/8/15
f 5/9/5 6/11/6 17/12/17 16/10/16
f 6/11/6 7/13/7 18/14/18 17/12/17
f 7/13/7 8/15/8 19/16/19 18/14/18
f 8/15/8 9/17/9 20/18/20 19/16/19
f 9/17/9 10/19/10 21/20/21 20/18/20
f 10/19/10 11/21/11 22/22/22 21/20/21
f 12/4/12 13/3/13 24/23/24 23/24/23
f 13/3/13 14/6/14 25/25/25 24/23/24
f 14/6/14 15/8/15 26/26/26 25/25/25
f 15/8/15 16/10/16 27/27/27 26/26/26
f 16/10/16 17/12/17 28/28/28 27/27/27
f 17/12/17 18/14/18 29/29/29 28/28/28
f 18/14/18 19/16/19 30/30/30 29/29/29
f 19/16/19 20/18/20 31/31/31 30/30/30
f 20/18/20 21/20/21 32/32/32 31/31/31
f 21/20/21 22/22/22 33/33/33 32/32/32
f 23/24/23 24/23/24 35/34/35 34/35/34
f 24/23/24 25/25/25 36/36/36 35/34/35
f 25/25/25 26/26/26 37/37/37 36/36/36
f 26/26/26 27/27/27 38/38/38 37/37/37
f 27/27/27 28/28/28 39/39/39 38/38/38
f 28/28/28 29/29/29 40/40/40 39/39/39
f 29/29/29 30/30/30 41/41/41 40/40/40
f 30/30/30 31/31/31 42/42/42 41/41/41
f 31/31/31 32/32/32 43/43/43 42/42/42
f 32/32/32 33/33/33 44/44/44 43/43/43
f 34/35/34 35/34/35 46/45/46 45/46/45
f 35/34/35 36/36/36 47/47/47 46/45/46
f 36/36/36 37/37/37 48/48/48 47/47/47
f 37/37/37 38/38/38 49/49/49 48/48/48
f 38/38/38 39/39/39 50/50/50 49/49/49
f 39/39/39 40/40/40 51/51/51 50/50/50
f 40/40/40 41/41/41 52/52/52 51/51/51
f 41/41/41 42/42/42 53/53/53 52/52/52
f 42/42/42 43/43/43 54/54/54 53/53/53
f 43/43/43 44/44/44 55/55/55 54/54/54
f 45/46/45 46/45/46 57/56/57 56/57/56
f 46/45/46 47/47/47 58/58/58 57/56/57
f 47/47/47 48/48/48 59/59/59 58/58/58
f 48/48/48 49/49/49 60/60/60 59/59/59
f 49/49/49 50/50/50 61/61/61 60/60/60
f 50/50/50 51/51/51 62/62/62 61/61/61
f 51/51/51 52/52/52 63/63/63 62/62/62
f 52/52/52 53/53/53 64/64/64 63/63/63
f 53/53/53 54/54/54 65/65/65 64/64/64
f 54/54/54 55/55/55 66/66/66 65/65/65
f 56/57/56 57/56/57 68/67/68 67/68/67
f 57/56/57 58/58/58 69/69/69 68/67/68
f 58/58/58 59/59/59 70/70/70 69/69/69
f 59/59/59 60/60/60 71/71/71 70/70/70
f 60/60/60 61/61/61 72/72/72 71/71/71
f 61/61/61 62/62/62 73/73/73 72/72/72
f 62/62/62 63/63/63 74/74/74 73/73/73
f 63/63/63 64/64/64 75/75/75 74/74/74
f 64/64/64 65/65/65 76/76/76 75/75/75
f 65/65/65 66/66/66 77/77/77 76/76/76
f 67/68/67 68/67/68 79/78/79 78/79/78
f 68/67/68 69/69/69 80/80/80 79/78/79
f 69/69/69 70/70/70 81/81/81 80/80/80
f 70/70/70 71/71/71 82/82/82 81/81/81
f 71/71/71 72/72/72 83/83/83 82/82/82
f 72/72/72 73/73/73 84/84/84 83/83/83
f 73/73/73 74/74/74 85/85/85 84/84/84
f 74/74/74 75/75/75 86/86/86 85/85/85
f 75/75/75 76/76/76 87/87/87 86/86/86
f 76/76/76 77/77/77 88/88/88 87/87/87
f 78/79/78 79/78/79 90/89/90 89/90/89
f 79/78/79 80/80/80 91/91/91 90/89/90
f 80/80/80 81/81/81 92/92/92 91/91/91
f 81/81/81 82/82/82 93/93/93 92/92/92
f 82/82/82 83/83/83 94/94/94 93/93/93
f 83/83/83 84/84/84 95/95/95 94/94/94
f 84/84/84 85/85/85 96/96/96 95/95/95
f 85/85/85 86/86/86 97/97/97 96/96/96
f 86/86/86 87/87/87 98/98/98 97/97/97
f 87/87/87 88/88/88 99/99/99 98/98/98
f 89/90/89 90/89/90 101/100/101 100/101/100
f 90/89/90 91/91/91 102/102/102 101/100/101
f 91/91/91 92/92/92 103/103/103 102/102/102
f 92/92/92 93/93/93 104/104/104 103/103/103
f 93/93/93 94/94/94 105/105/105 104/104/104
f 94/94/94 95/95/95 106/106/106 105/105/105
f 95/95/95 96/96/96 107/107/107 106/106/106
f 96/96/96 97/97/97 108/108/108 107/107/107
f 97/97/97 98/98/98 109/109/109 108/108/108
f 98/98/98 99/99/99 110/110/110 109/109/109
f 100/101/100 101/100/101 112/111/112 111/112/111
f 101/100/101 102/102/102 113/113/113 112/111/112
f 102/102/102 103/103/103 114/114/114 113/113/113
f 103/103/103 104/104/104 115/115/115 114/114/114
f 104/104/104 105/105/105 116/116/116 115/115/115
f 105/105/105 106/106/106 117/117/117 116/116/116
f 106/106/106 107/107/107 118/118/118 117/117/117
f 107/107/107 108/108/108 119/119/119 118/118/118
f 108/108/108 109/109/109 120/120/120 119/119/119
f 109/109/109 110/110/110 120/120/120
