# Blender 5.1.2
# www.blender.org
o Interior_medusa
v 0.000000 5.531166 -0.620121
v 0.000000 5.366385 -1.216412
v 0.000000 5.098794 -1.765956
v 0.000000 4.738678 -2.247636
v 0.000000 4.299874 -2.642941
v 0.000000 3.799248 -2.936678
v 0.000000 3.256036 -3.117561
v 0.000000 2.691115 -3.178637
v 0.000000 2.231001 -3.117561
v 1.376867 1.666828 2.028916
v 0.122871 5.531166 -0.608206
v 0.241020 5.366385 -1.193039
v 0.349906 5.098794 -1.732024
v 0.445346 4.738678 -2.204448
v 0.523671 4.299874 -2.592157
v 0.581872 3.799248 -2.880250
v 0.617712 3.256036 -3.057657
v 0.629814 2.691115 -3.117561
v 0.617712 2.231001 -3.057657
v 0.581872 1.918366 -2.880250
v -2.478294 1.666828 0.000001
v -2.060626 1.666828 -1.355677
v 2.478295 1.666828 0.000001
v 0.000000 1.666828 2.440156
v 2.060627 1.666828 -1.355677
v 0.241020 5.531166 -0.572917
v 0.472777 5.366385 -1.123818
v 0.686365 5.098794 -1.631531
v 0.873577 4.738678 -2.076545
v 1.027218 4.299874 -2.441758
v 1.141383 3.799248 -2.713136
v 1.211686 3.256036 -2.880250
v 1.235425 2.691115 -2.936678
v 1.211686 2.231001 -2.880250
v 1.141383 1.918366 -2.713136
v -1.376866 1.666828 -2.028914
v 2.289646 1.666828 0.933808
v -2.060626 1.666828 1.355679
v -0.948402 1.666828 2.254411
v 0.948403 1.666828 -2.254409
v 0.349906 5.531166 -0.515612
v 0.686365 5.366385 -1.011409
v 0.996448 5.098794 -1.468339
v 1.268237 4.738678 -1.868841
v 1.491289 4.299874 -2.197524
v 1.657032 3.799248 -2.441758
v 1.759096 3.256036 -2.592156
v 1.793558 2.691115 -2.642940
v 1.759096 2.231001 -2.592156
v 1.657032 1.918366 -2.441758
v -0.483491 1.666828 -2.393267
v -1.376867 1.666828 2.028916
v 0.000000 1.666828 -2.440154
v 0.948403 1.666828 2.254411
v -2.289645 1.666828 0.933808
v 0.445346 5.531166 -0.438492
v 0.873578 5.366385 -0.860133
v 1.268238 5.098794 -1.248719
v 1.614160 4.738678 -1.589318
v 1.898051 4.299874 -1.868841
v 2.109001 3.799248 -2.076544
v 2.238904 3.256036 -2.204448
v 2.282767 2.691115 -2.247635
v 2.238904 2.231001 -2.204448
v 2.109001 1.918366 -2.076545
v 1.376867 1.666828 -2.028914
v 2.060627 1.666828 1.355679
v -0.948402 1.666828 -2.254408
v 2.289646 1.666828 -0.933806
v 0.483492 1.666828 -2.393268
v 0.523672 5.531166 -0.344521
v 1.027219 5.366385 -0.675802
v 1.491290 5.098794 -0.981112
v 1.898051 4.738678 -1.248719
v 2.231872 4.299874 -1.468338
v 2.479923 3.799248 -1.631530
v 2.632672 3.256036 -1.732023
v 2.684250 2.691115 -1.765956
v 2.632672 2.231001 -1.732023
v 2.479923 1.918366 -1.631531
v -0.483491 1.666828 2.393269
v -1.752419 1.666828 1.725451
v 2.430675 1.666828 0.476052
v -1.752419 1.666828 -1.725449
v -2.430675 1.666828 -0.476050
v 0.581873 5.531166 -0.237310
v 1.141384 5.366385 -0.465500
v 1.657032 5.098794 -0.675802
v 2.109002 4.738678 -0.860132
v 2.479923 4.299874 -1.011409
v 2.755543 3.799248 -1.123817
v 2.925269 3.256036 -1.193038
v 2.982579 2.691115 -1.216411
v 2.925269 2.231001 -1.193038
v 2.755543 1.918366 -1.123817
v 1.752419 1.666828 -1.725450
v 0.483492 1.666828 2.393269
v 2.430675 1.666828 -0.476050
v -2.289645 1.666828 -0.933806
v -2.430675 1.666828 0.476052
v 0.617713 5.531166 -0.120979
v 1.211687 5.366385 -0.237309
v 1.759096 5.098794 -0.344520
v 2.238904 4.738678 -0.438491
v 2.632673 4.299874 -0.515611
v 2.925269 3.799248 -0.572917
v 3.105448 3.256036 -0.608205
v 3.166288 2.691115 -0.620120
v 3.105448 2.231001 -0.608205
v 2.925269 1.918366 -0.572917
v 1.752419 1.666828 1.725451
v 1.974780 1.750674 1.944390
v 1.551575 1.750674 2.286361
v -2.739098 1.750674 0.536457
v 0.629815 5.531166 0.000001
v 1.235425 5.366385 0.000001
v 1.793559 5.098794 0.000001
v 2.282767 4.738678 0.000001
v 2.684250 4.299874 0.000001
v 2.982578 3.799248 0.000001
v 3.166288 3.256036 0.000001
v 3.228320 2.691115 0.000001
v 3.166288 2.231001 0.000001
v 2.982578 1.918366 0.000001
v -2.792760 1.750674 0.000001
v -2.580174 1.750674 -1.052295
v -2.322095 1.750674 -1.527696
v 2.739099 1.750674 -0.536455
v 2.792761 1.750674 0.000001
v 0.617713 5.531166 0.120981
v 1.211687 5.366385 0.237311
v 1.759096 5.098794 0.344522
v 2.238904 4.738678 0.438493
v 2.632672 4.299874 0.515613
v 2.925269 3.799248 0.572918
v 3.105448 3.256036 0.608207
v 3.166288 2.691115 0.620123
v 3.105448 2.231001 0.608207
v 2.925269 1.918366 0.572918
v 0.544841 1.750674 2.696946
v 0.000000 1.750674 2.749783
v 1.974780 1.750674 -1.944389
v 2.322096 1.750674 -1.527696
v -2.739098 1.750674 -0.536455
v 0.581873 5.531166 0.237312
v 1.141384 5.366385 0.465502
v 1.657032 5.098794 0.675803
v 2.109001 4.738678 0.860134
v 2.479923 4.299874 1.011411
v 2.755543 3.799248 1.123819
v 2.925268 3.256036 1.193040
v 2.982578 2.691115 1.216413
v 2.925268 2.231001 1.193040
v 2.755543 1.918366 1.123819
v -1.974779 1.750674 -1.944388
v -1.551574 1.750674 -2.286359
v 2.739099 1.750674 0.536457
v 2.580174 1.750674 1.052297
v -1.974779 1.750674 1.944390
v 0.523672 5.531166 0.344522
v 1.027218 5.366385 0.675804
v 1.491289 5.098794 0.981114
v 1.898051 4.738678 1.248721
v 2.231872 4.299874 1.468340
v 2.479923 3.799248 1.631532
v 2.632672 3.256036 1.732025
v 2.684249 2.691115 1.765958
v 2.632672 2.231001 1.732025
v 2.479923 1.918366 1.631532
v -2.322095 1.750674 1.527698
v -0.544840 1.750674 2.696946
v -1.068743 1.750674 2.540468
v 0.544841 1.750674 -2.696945
v 1.068743 1.750674 -2.540467
v 0.445346 5.531166 0.438494
v 0.873577 5.366385 0.860134
v 1.268237 5.098794 1.248721
v 1.614160 4.738678 1.589320
v 1.898051 4.299874 1.868842
v 2.109001 3.799248 2.076546
v 2.238903 3.256036 2.204449
v 2.282766 2.691115 2.247638
v 2.238903 2.231001 2.204449
v 2.109001 1.918366 2.076546
v 2.580174 1.750674 -1.052295
v -1.068743 1.750674 -2.540466
v -0.544840 1.750674 -2.696944
v 2.322096 1.750674 1.527698
v 1.551575 1.750674 -2.286359
v 0.349906 5.531166 0.515614
v 0.686365 5.366385 1.011411
v 0.996448 5.098794 1.468340
v 1.268237 4.738678 1.868842
v 1.491289 4.299874 2.197526
v 1.657032 3.799248 2.441760
v 1.759095 3.256036 2.592158
v 1.793558 2.691115 2.642942
v 1.759095 2.231001 2.592158
v 1.657032 1.918366 2.441760
v -2.580174 1.750674 1.052297
v 1.068743 1.750674 2.540468
v 0.000000 1.750674 -2.749780
v -1.551574 1.750674 2.286361
v 0.241020 5.531166 0.572919
v 0.472777 5.366385 1.123819
v 0.686365 5.098794 1.631532
v 0.873577 4.738678 2.076546
v 1.027217 4.299874 2.441759
v 1.141383 3.799248 2.713138
v 1.211685 3.256036 2.880251
v 1.235424 2.691115 2.936679
v 1.211685 2.231001 2.880251
v 1.141383 1.918366 2.713138
v 0.122871 5.531166 0.608208
v 0.241020 5.366385 1.193040
v 0.349906 5.098794 1.732025
v 0.445345 4.738678 2.204449
v 0.523671 4.299874 2.592158
v 0.581872 3.799248 2.880251
v 0.617712 3.256036 3.057658
v 0.629814 2.691115 3.117562
v 0.617712 2.231001 3.057658
v 0.581872 1.918366 2.880251
v -0.000000 5.531166 0.620123
v 0.000000 5.366385 1.216413
v 0.000000 5.098794 1.765958
v -0.000000 4.738678 2.247637
v -0.000000 4.299874 2.642941
v 0.000000 3.799248 2.936679
v -0.000000 3.256036 3.117561
v -0.000000 2.691115 3.178638
v -0.000000 2.231001 3.117561
v 0.000000 1.918366 2.936679
v -0.122871 5.531166 0.608208
v -0.241019 5.366385 1.193040
v -0.349906 5.098794 1.732025
v -0.445346 4.738678 2.204449
v -0.523671 4.299874 2.592157
v -0.581872 3.799248 2.880251
v -0.617712 3.256036 3.057658
v -0.629814 2.691115 3.117562
v -0.617712 2.231001 3.057658
v -0.581872 1.918366 2.880251
v -0.241020 5.531166 0.572919
v -0.472776 5.366385 1.123819
v -0.686365 5.098794 1.631532
v -0.873577 4.738678 2.076546
v -1.027218 4.299874 2.441758
v -1.141383 3.799248 2.713138
v -1.211686 3.256036 2.880250
v -1.235425 2.691115 2.936679
v -1.211686 2.231001 2.880250
v -1.141383 1.918366 2.713138
v -0.349906 5.531166 0.515614
v -0.686365 5.366385 1.011410
v -0.996447 5.098794 1.468340
v -1.268237 4.738678 1.868842
v -1.491289 4.299874 2.197525
v -1.657031 3.799248 2.441759
v -1.759095 3.256036 2.592157
v -1.793558 2.691115 2.642941
v -1.759095 2.231001 2.592157
v -1.657031 1.918366 2.441759
v -0.000001 5.586806 0.000002
v -0.445346 5.531166 0.438493
v -0.873577 5.366385 0.860134
v -1.268237 5.098794 1.248721
v -1.614159 4.738678 1.589319
v -1.898050 4.299874 1.868841
v -2.109001 3.799248 2.076546
v -2.238903 3.256036 2.204448
v -2.282767 2.691115 2.247637
v -2.238903 2.231001 2.204448
v -2.109001 1.918366 2.076546
v 0.268820 1.622656 -1.330650
v 0.527309 1.622656 -1.253445
v 0.765534 1.622656 -1.128070
v 0.974340 1.622656 -0.959345
v 1.145703 1.622656 -0.753752
v -0.523671 5.531166 0.344522
v -1.027218 5.366385 0.675803
v -1.491289 5.098794 0.981114
v -1.898051 4.738678 1.248720
v -2.231871 4.299874 1.468339
v -2.479923 3.799248 1.631532
v -2.632671 3.256036 1.732024
v -2.684249 2.691115 1.765957
v -2.632671 2.231001 1.732024
v -2.479923 1.918366 1.631532
v 1.273037 1.622656 -0.519193
v 1.351449 1.622656 -0.264682
v 1.377925 1.622656 0.000001
v 1.351449 1.622656 0.264684
v 1.273037 1.622656 0.519195
v -0.581873 5.531166 0.237311
v -1.141383 5.366385 0.465501
v -1.657031 5.098794 0.675803
v -2.109001 4.738678 0.860134
v -2.479922 4.299874 1.011410
v -2.755543 3.799248 1.123819
v -2.925267 3.256036 1.193039
v -2.982578 2.691115 1.216412
v -2.925267 2.231001 1.193039
v -2.755543 1.918366 1.123819
v 1.145703 1.622656 0.753754
v 0.974340 1.622656 0.959346
v 0.765534 1.622656 1.128072
v 0.527309 1.622656 1.253446
v 0.268820 1.622656 1.330651
v -0.617713 5.531166 0.120981
v -1.211686 5.366385 0.237311
v -1.759095 5.098794 0.344522
v -2.238903 4.738678 0.438493
v -2.632671 4.299874 0.515612
v -2.925268 3.799248 0.572918
v -3.105447 3.256036 0.608206
v -3.166287 2.691115 0.620122
v -3.105447 2.231001 0.608206
v -2.925268 1.918366 0.572918
v 0.000000 1.622656 1.356720
v -0.268820 1.622656 1.330651
v -0.527309 1.622656 1.253446
v -0.765534 1.622656 1.128072
v -0.974340 1.622656 0.959346
v -0.629814 5.531166 0.000001
v -1.235424 5.366385 0.000001
v -1.793558 5.098794 0.000001
v -2.282766 4.738678 0.000001
v -2.684248 4.299874 0.000000
v -2.982578 3.799248 0.000001
v -3.166286 3.256036 0.000000
v -3.228318 2.691115 0.000000
v -3.166286 2.231001 0.000000
v -2.982578 1.918366 0.000001
v -1.145702 1.622656 0.753754
v -1.273036 1.622656 0.519195
v -1.351448 1.622656 0.264684
v -1.377924 1.622656 0.000001
v -1.351448 1.622656 -0.264682
v -0.617712 5.531166 -0.120979
v -1.211686 5.366385 -0.237309
v -1.759095 5.098794 -0.344520
v -2.238903 4.738678 -0.438491
v -2.632670 4.299874 -0.515611
v -2.925268 3.799248 -0.572916
v -3.105447 3.256036 -0.608205
v -3.166287 2.691115 -0.620121
v -3.105447 2.231001 -0.608205
v -2.925268 1.918366 -0.572916
v -1.273036 1.622656 -0.519193
v -1.145702 1.622656 -0.753752
v -0.974340 1.622656 -0.959344
v -0.765534 1.622656 -1.128070
v -0.527309 1.622656 -1.253444
v -0.581872 5.531166 -0.237309
v -1.141383 5.366385 -0.465500
v -1.657031 5.098794 -0.675801
v -2.109000 4.738678 -0.860132
v -2.479921 4.299874 -1.011409
v -2.755542 3.799248 -1.123817
v -2.925267 3.256036 -1.193038
v -2.982577 2.691115 -1.216411
v -2.925267 2.231001 -1.193038
v -2.755542 1.918366 -1.123817
v -0.268819 1.622656 -1.330649
v 0.000000 1.622656 -1.356718
v 0.000000 1.582982 -2.130527
v -0.422142 1.582982 -2.089590
v -0.828061 1.582982 -1.968351
v -0.523671 5.531166 -0.344520
v -1.027217 5.366385 -0.675801
v -1.491288 5.098794 -0.981112
v -1.898050 4.738678 -1.248719
v -2.231870 4.299874 -1.468338
v -2.479922 3.799248 -1.631530
v -2.632670 3.256036 -1.732023
v -2.684248 2.691115 -1.765955
v -2.632670 2.231001 -1.732023
v -2.479922 1.918366 -1.631530
v -1.202159 1.582982 -1.771469
v -1.530058 1.582982 -1.506510
v -1.799158 1.582982 -1.183657
v -1.999117 1.582982 -0.815317
v -2.122251 1.582982 -0.415645
v -0.445346 5.531166 -0.438491
v -0.873576 5.366385 -0.860132
v -1.268237 5.098794 -1.248719
v -1.614159 4.738678 -1.589318
v -1.898049 4.299874 -1.868840
v -2.109001 3.799248 -2.076544
v -2.238902 3.256036 -2.204447
v -2.282765 2.691115 -2.247635
v -2.238902 2.231001 -2.204447
v -2.109001 1.918366 -2.076544
v -2.163829 1.582982 0.000001
v -2.122251 1.582982 0.415647
v -1.999117 1.582982 0.815319
v -1.799158 1.582982 1.183659
v -1.530058 1.582982 1.506512
v -0.349906 5.531166 -0.515611
v -0.686365 5.366385 -1.011408
v -0.996447 5.098794 -1.468338
v -1.268236 4.738678 -1.868840
v -1.491287 4.299874 -2.197523
v -1.657031 3.799248 -2.441757
v -1.759094 3.256036 -2.592155
v -1.793557 2.691115 -2.642939
v -1.759094 2.231001 -2.592155
v -1.657031 1.918366 -2.441757
v -1.202159 1.582982 1.771471
v -0.828061 1.582982 1.968353
v -0.422142 1.582982 2.089592
v 0.000000 1.582982 2.130530
v 0.422142 1.582982 2.089592
v -0.241019 5.531166 -0.572917
v -0.472776 5.366385 -1.123817
v -0.686364 5.098794 -1.631530
v -0.873576 4.738678 -2.076544
v -1.027216 4.299874 -2.441756
v -1.141383 3.799248 -2.713135
v -1.211684 3.256036 -2.880248
v -1.235423 2.691115 -2.936676
v -1.211684 2.231001 -2.880248
v -1.141383 1.918366 -2.713135
v 0.828062 1.582982 1.968353
v 1.202159 1.582982 1.771471
v 1.530059 1.582982 1.506513
v 1.799158 1.582982 1.183659
v 1.999118 1.582982 0.815319
v -0.122871 5.531166 -0.608205
v -0.241019 5.366385 -1.193038
v -0.349905 5.098794 -1.732022
v -0.445345 4.738678 -2.204447
v -0.523670 4.299874 -2.592155
v -0.581872 3.799248 -2.880249
v -0.617711 3.256036 -3.057655
v -0.629813 2.691115 -3.117558
v -0.617711 2.231001 -3.057655
v -0.581872 1.918366 -2.880249
v 2.122252 1.582982 0.415646
v 2.163829 1.582982 0.000001
v 2.122252 1.582982 -0.415645
v 1.999118 1.582982 -0.815318
v 1.799158 1.582982 -1.183658
v 0.000000 1.918366 -2.936676
v 1.530059 1.582982 -1.506511
v 1.202159 1.582982 -1.771470
v 0.828062 1.582982 -1.968352
v 0.422142 1.582982 -2.089591
v -1.736850 1.582982 0.340165
v 0.983847 1.582982 -1.449770
v -0.345481 1.582982 1.710122
v -0.677685 1.582982 -1.610898
v 1.636077 1.582982 0.667257
v -1.770877 1.582982 0.000001
v 1.252200 1.582982 -1.232928
v -0.677685 1.582982 1.610900
v 1.472431 1.582982 0.968707
v -0.345481 1.582982 -1.710120
v -1.736850 1.582982 -0.340163
v 1.472431 1.582982 -0.968705
v -0.983846 1.582982 1.449771
v 0.000000 1.582982 -1.743623
v 1.252200 1.582982 1.232929
v -1.636076 1.582982 -0.667255
v 1.636077 1.582982 -0.667255
v 0.983847 1.582982 1.449772
v -1.252199 1.582982 1.232929
v 0.677685 1.582982 1.610900
v -1.472430 1.582982 -0.968705
v 1.736850 1.582982 -0.340163
v 0.677686 1.582982 -1.610898
v 0.345481 1.582982 -1.710121
v -1.636077 1.582982 0.667257
v -1.472430 1.582982 0.968707
v 0.000000 1.582982 1.743625
v 0.345481 1.582982 1.710122
v -0.983846 1.582982 -1.449769
v -1.252199 1.582982 -1.232927
v 1.736850 1.582982 0.340165
v 1.770877 1.582982 0.000001
v -0.716038 1.651427 -0.705017
v -0.841971 1.651427 -0.553928
v -0.935548 1.651427 -0.381552
v -0.387517 1.651427 0.921152
v -0.197554 1.651427 -0.977888
v 0.000000 1.651427 -0.997046
v -0.993173 1.651427 -0.194513
v -0.197554 1.651427 0.977890
v 0.993173 1.651427 0.194515
v -1.012630 1.651427 0.000001
v 0.000000 1.651427 0.997048
v 1.012631 1.651427 0.000001
v -0.387517 1.651427 -0.921150
v -0.562587 1.651427 -0.829013
v -0.993173 1.651427 0.194515
v 0.197555 1.651427 0.977890
v 0.993173 1.651427 -0.194513
v -0.935548 1.651427 0.381554
v 0.387517 1.651427 0.921152
v 0.935549 1.651427 -0.381552
v 0.841972 1.651427 0.553930
v 0.935549 1.651427 0.381554
v 0.562588 1.651427 0.829015
v 0.716038 1.651427 0.705019
v 0.841972 1.651427 -0.553929
v -0.841971 1.651427 0.553930
v 0.197555 1.651427 -0.977888
v 0.716038 1.651427 -0.705018
v 0.562588 1.651427 -0.829013
v 0.387517 1.651427 -0.921150
v -0.716038 1.651427 0.705019
v -0.562587 1.651427 0.829015
v 0.037330 1.252564 -0.184780
v -0.135301 1.252564 0.133220
v -0.037329 1.252564 -0.184780
v 0.073225 1.252564 -0.174059
v 0.106306 1.252564 -0.156648
v -0.159097 1.252564 0.104671
v 0.135302 1.252564 -0.133218
v -0.176780 1.252564 0.072099
v 0.159098 1.252564 -0.104669
v 0.187669 1.252564 0.036756
v -0.106305 1.252564 0.156650
v 0.176780 1.252564 -0.072097
v 0.073225 1.252564 0.174060
v 0.191346 1.252564 0.000001
v 0.187669 1.252564 -0.036754
v 0.037330 1.252564 0.184781
v -0.187668 1.252564 0.036756
v 0.000000 1.252564 -0.188400
v 0.176780 1.252564 0.072099
v 0.000000 1.252564 0.188401
v -0.191345 1.252564 0.000001
v -0.073224 1.252564 0.174060
v -0.037329 1.252564 0.184781
v -0.187668 1.252564 -0.036754
v 0.159098 1.252564 0.104671
v -0.176780 1.252564 -0.072097
v -0.073224 1.252564 -0.174058
v -0.106305 1.252564 -0.156648
v -0.135301 1.252564 -0.133218
v -0.159097 1.252564 -0.104669
v 0.106306 1.252564 0.156650
v 0.135302 1.252564 0.133220
v 0.000000 1.252563 0.000001
v -0.562293 1.426937 -0.553639
v -0.661187 1.426937 -0.434991
v -0.734671 1.426937 -0.299627
v -0.304311 1.426937 0.723366
v -0.155136 1.426937 -0.767920
v -0.779923 1.426937 -0.152748
v -0.155136 1.426937 0.767922
v 0.779924 1.426937 0.152750
v -0.795202 1.426937 0.000001
v 0.000000 1.426937 0.782966
v 0.795203 1.426937 0.000001
v -0.304311 1.426937 -0.723364
v -0.779923 1.426937 0.152750
v 0.155137 1.426937 0.767922
v 0.779924 1.426937 -0.152748
v -0.734671 1.426937 0.299629
v 0.304311 1.426937 0.723366
v 0.734672 1.426937 -0.299627
v 0.661187 1.426937 0.434993
v 0.441791 1.426937 0.651013
v 0.661187 1.426937 -0.434991
v -0.661187 1.426937 0.434993
v 0.562294 1.426937 -0.553639
v 0.441791 1.426937 -0.651011
v -0.562293 1.426937 0.553641
v 0.000000 1.426937 -0.782964
v -0.441791 1.426937 -0.651011
v 0.734672 1.426937 0.299629
v 0.562294 1.426937 0.553641
v 0.155137 1.426937 -0.767920
v 0.304311 1.426937 -0.723365
v -0.441791 1.426937 0.651012
v -0.419604 1.337394 -0.413146
v -0.493402 1.337394 -0.324607
v -0.548239 1.337394 -0.223593
v -0.227088 1.337394 0.539804
v -0.115768 1.337394 -0.573050
v -0.582008 1.337394 -0.113986
v -0.115768 1.337394 0.573052
v 0.582009 1.337394 0.113988
v -0.593410 1.337394 0.000001
v 0.000000 1.337394 0.584279
v 0.593411 1.337394 0.000001
v -0.227088 1.337394 -0.539802
v -0.582008 1.337394 0.113988
v 0.115769 1.337394 0.573052
v 0.582009 1.337394 -0.113986
v -0.548239 1.337394 0.223595
v 0.227089 1.337394 0.539804
v 0.548240 1.337394 -0.223593
v 0.493403 1.337394 0.324609
v 0.329682 1.337394 0.485810
v 0.493403 1.337394 -0.324607
v -0.493402 1.337394 0.324609
v 0.419605 1.337394 -0.413146
v 0.329682 1.337394 -0.485809
v -0.419604 1.337394 0.413148
v 0.000000 1.337394 -0.584277
v -0.329681 1.337394 -0.485809
v 0.548240 1.337394 0.223594
v 0.419605 1.337394 0.413148
v 0.115769 1.337394 -0.573051
v 0.227089 1.337394 -0.539802
v -0.329681 1.337394 0.485810
v -0.211652 1.252564 -0.208395
v -0.248877 1.252564 -0.163734
v -0.276537 1.252564 -0.112782
v -0.114545 1.252564 0.272283
v -0.058395 1.252564 -0.289052
v -0.293570 1.252564 -0.057495
v -0.058395 1.252564 0.289054
v 0.293571 1.252564 0.057497
v -0.299322 1.252564 0.000001
v 0.000000 1.252564 0.294717
v 0.299322 1.252564 0.000001
v -0.114545 1.252564 -0.272281
v -0.293570 1.252564 0.057497
v 0.058395 1.252564 0.289054
v 0.293571 1.252564 -0.057495
v -0.276537 1.252564 0.112784
v 0.114546 1.252564 0.272283
v 0.276538 1.252564 -0.112782
v 0.248878 1.252564 0.163736
v 0.166295 1.252564 0.245048
v 0.248878 1.252564 -0.163734
v -0.248877 1.252564 0.163736
v 0.211653 1.252564 -0.208395
v 0.166295 1.252564 -0.245046
v -0.211652 1.252564 0.208396
v 0.000000 1.252564 -0.294715
v -0.166294 1.252564 -0.245046
v 0.276538 1.252564 0.112784
v 0.211653 1.252564 0.208396
v 0.058395 1.252564 -0.289052
v 0.114546 1.252564 -0.272281
v -0.166294 1.252564 0.245048
vn -0.0000 0.9830 -0.1837
vn -0.0000 0.9337 -0.3580
vn -0.0000 0.8517 -0.5241
vn -0.0000 0.7364 -0.6766
vn -0.0000 0.5886 -0.8084
vn -0.0000 0.4117 -0.9113
vn -0.0000 0.2121 -0.9773
vn -0.0000 -0.0121 -0.9999
vn -0.0000 -0.3209 -0.9471
vn 0.1430 -0.9655 0.2174
vn 0.0353 0.9830 -0.1802
vn 0.0688 0.9338 -0.3511
vn 0.1007 0.8518 -0.5141
vn 0.1300 0.7365 -0.6638
vn 0.1553 0.5888 -0.7932
vn 0.1751 0.4119 -0.8943
vn 0.1878 0.2122 -0.9590
vn 0.1922 -0.0121 -0.9813
vn 0.1820 -0.3211 -0.9294
vn 0.1496 -0.6278 -0.7639
vn -0.2576 -0.9662 -0.0000
vn -0.2141 -0.9659 -0.1453
vn 0.2576 -0.9662 -0.0000
vn -0.0000 -0.9652 0.2614
vn 0.2141 -0.9659 -0.1453
vn 0.0692 0.9831 -0.1697
vn 0.1349 0.9340 -0.3308
vn 0.1976 0.8522 -0.4845
vn 0.2552 0.7371 -0.6257
vn 0.3050 0.5895 -0.7480
vn 0.3440 0.4124 -0.8435
vn 0.3690 0.2125 -0.9048
vn 0.3776 -0.0121 -0.9259
vn 0.3576 -0.3216 -0.8768
vn 0.2938 -0.6284 -0.7203
vn -0.1430 -0.9655 -0.2174
vn 0.2380 -0.9661 0.1001
vn -0.2141 -0.9659 0.1453
vn -0.0985 -0.9654 0.2415
vn 0.0985 -0.9654 -0.2415
vn 0.1005 0.9831 -0.1528
vn 0.1959 0.9343 -0.2978
vn 0.2871 0.8528 -0.4363
vn 0.3709 0.7379 -0.5638
vn 0.4436 0.5904 -0.6742
vn 0.5005 0.4133 -0.7607
vn 0.5370 0.2130 -0.8162
vn 0.5496 -0.0121 -0.8354
vn 0.5203 -0.3223 -0.7908
vn 0.4271 -0.6294 -0.6492
vn -0.0502 -0.9653 -0.2564
vn -0.1430 -0.9655 0.2174
vn -0.0000 -0.9652 -0.2614
vn 0.0985 -0.9654 0.2415
vn -0.2380 -0.9661 0.1001
vn 0.1279 0.9832 -0.1299
vn 0.2495 0.9346 -0.2534
vn 0.3657 0.8534 -0.3714
vn 0.4727 0.7389 -0.4801
vn 0.5657 0.5916 -0.5745
vn 0.6386 0.4143 -0.6485
vn 0.6854 0.2136 -0.6961
vn 0.7016 -0.0122 -0.7125
vn 0.6640 -0.3231 -0.6743
vn 0.5446 -0.6305 -0.5531
vn 0.1430 -0.9655 -0.2174
vn 0.2141 -0.9659 0.1453
vn -0.0985 -0.9654 -0.2415
vn 0.2380 -0.9661 -0.1001
vn 0.0502 -0.9653 -0.2564
vn 0.1505 0.9833 -0.1021
vn 0.2935 0.9350 -0.1991
vn 0.4303 0.8541 -0.2920
vn 0.5566 0.7399 -0.3777
vn 0.6664 0.5927 -0.4523
vn 0.7527 0.4153 -0.5108
vn 0.8082 0.2142 -0.5485
vn 0.8274 -0.0122 -0.5615
vn 0.7828 -0.3240 -0.5312
vn 0.6415 -0.6316 -0.4353
vn -0.0502 -0.9653 0.2564
vn -0.1821 -0.9657 0.1849
vn 0.2527 -0.9662 0.0510
vn -0.1821 -0.9657 -0.1849
vn -0.2527 -0.9662 -0.0510
vn 0.1672 0.9834 -0.0703
vn 0.3262 0.9353 -0.1372
vn 0.4785 0.8547 -0.2013
vn 0.6192 0.7408 -0.2605
vn 0.7417 0.5937 -0.3120
vn 0.8381 0.4162 -0.3526
vn 0.9002 0.2148 -0.3787
vn 0.9217 -0.0122 -0.3877
vn 0.8718 -0.3247 -0.3668
vn 0.7139 -0.6326 -0.3003
vn 0.1821 -0.9657 -0.1849
vn 0.0502 -0.9653 0.2564
vn 0.2527 -0.9662 -0.0510
vn -0.2380 -0.9661 -0.1001
vn -0.2527 -0.9662 0.0510
vn 0.1775 0.9835 -0.0359
vn 0.3463 0.9355 -0.0700
vn 0.5082 0.8551 -0.1027
vn 0.6578 0.7414 -0.1329
vn 0.7883 0.5944 -0.1592
vn 0.8910 0.4168 -0.1800
vn 0.9573 0.2151 -0.1934
vn 0.9801 -0.0123 -0.1980
vn 0.9269 -0.3252 -0.1873
vn 0.7586 -0.6332 -0.1533
vn 0.1821 -0.9657 0.1849
vn 0.3379 -0.8764 0.3432
vn 0.2653 -0.8758 0.4033
vn -0.4695 -0.8778 0.0948
vn 0.1810 0.9835 -0.0000
vn 0.3532 0.9356 -0.0000
vn 0.5182 0.8552 -0.0000
vn 0.6709 0.7416 -0.0000
vn 0.8040 0.5946 -0.0000
vn 0.9089 0.4170 -0.0000
vn 0.9766 0.2152 -0.0000
vn 0.9999 -0.0123 -0.0000
vn 0.9456 -0.3254 -0.0000
vn 0.7738 -0.6335 -0.0000
vn -0.4787 -0.8780 -0.0000
vn -0.4421 -0.8775 -0.1860
vn -0.3976 -0.8770 -0.2698
vn 0.4695 -0.8778 -0.0948
vn 0.4787 -0.8780 -0.0000
vn 0.1775 0.9835 0.0359
vn 0.3463 0.9355 0.0700
vn 0.5082 0.8551 0.1027
vn 0.6578 0.7414 0.1329
vn 0.7883 0.5944 0.1592
vn 0.8910 0.4168 0.1800
vn 0.9573 0.2151 0.1934
vn 0.9801 -0.0123 0.1980
vn 0.9269 -0.3252 0.1873
vn 0.7586 -0.6332 0.1533
vn 0.0931 -0.8749 0.4752
vn -0.0000 -0.8748 0.4845
vn 0.3379 -0.8764 -0.3432
vn 0.3976 -0.8770 -0.2698
vn -0.4695 -0.8778 -0.0948
vn 0.1672 0.9834 0.0703
vn 0.3262 0.9353 0.1372
vn 0.4785 0.8547 0.2013
vn 0.6192 0.7408 0.2605
vn 0.7417 0.5937 0.3120
vn 0.8381 0.4162 0.3526
vn 0.9002 0.2148 0.3787
vn 0.9217 -0.0122 0.3877
vn 0.8718 -0.3247 0.3668
vn 0.7139 -0.6326 0.3003
vn -0.3379 -0.8764 -0.3432
vn -0.2653 -0.8758 -0.4033
vn 0.4695 -0.8778 0.0948
vn 0.4421 -0.8775 0.1860
vn -0.3379 -0.8764 0.3432
vn 0.1505 0.9833 0.1021
vn 0.2935 0.9350 0.1991
vn 0.4303 0.8541 0.2920
vn 0.5566 0.7399 0.3777
vn 0.6664 0.5927 0.4523
vn 0.7527 0.4153 0.5108
vn 0.8082 0.2142 0.5485
vn 0.8274 -0.0122 0.5615
vn 0.7828 -0.3240 0.5312
vn 0.6415 -0.6316 0.4353
vn -0.3976 -0.8770 0.2698
vn -0.0931 -0.8749 0.4752
vn -0.1826 -0.8753 0.4478
vn 0.0931 -0.8749 -0.4752
vn 0.1826 -0.8753 -0.4478
vn 0.1279 0.9832 0.1299
vn 0.2495 0.9346 0.2534
vn 0.3657 0.8534 0.3714
vn 0.4727 0.7389 0.4801
vn 0.5657 0.5916 0.5745
vn 0.6386 0.4143 0.6485
vn 0.6854 0.2136 0.6961
vn 0.7016 -0.0122 0.7125
vn 0.6640 -0.3231 0.6743
vn 0.5446 -0.6305 0.5531
vn 0.4421 -0.8775 -0.1860
vn -0.1826 -0.8753 -0.4478
vn -0.0931 -0.8749 -0.4752
vn 0.3976 -0.8770 0.2698
vn 0.2653 -0.8758 -0.4033
vn 0.1005 0.9831 0.1528
vn 0.1959 0.9343 0.2978
vn 0.2871 0.8528 0.4363
vn 0.3709 0.7379 0.5638
vn 0.4436 0.5904 0.6742
vn 0.5005 0.4133 0.7607
vn 0.5370 0.2130 0.8162
vn 0.5496 -0.0121 0.8354
vn 0.5203 -0.3223 0.7908
vn 0.4271 -0.6294 0.6492
vn -0.4421 -0.8775 0.1860
vn 0.1826 -0.8753 0.4478
vn -0.0000 -0.8748 -0.4845
vn -0.2653 -0.8758 0.4033
vn 0.0692 0.9831 0.1697
vn 0.1349 0.9340 0.3308
vn 0.1976 0.8522 0.4845
vn 0.2552 0.7371 0.6257
vn 0.3050 0.5895 0.7480
vn 0.3440 0.4124 0.8435
vn 0.3690 0.2125 0.9048
vn 0.3776 -0.0121 0.9259
vn 0.3576 -0.3216 0.8768
vn 0.2938 -0.6284 0.7203
vn 0.0353 0.9830 0.1802
vn 0.0688 0.9338 0.3511
vn 0.1007 0.8518 0.5141
vn 0.1300 0.7365 0.6638
vn 0.1553 0.5888 0.7932
vn 0.1751 0.4119 0.8943
vn 0.1878 0.2122 0.9590
vn 0.1922 -0.0121 0.9813
vn 0.1820 -0.3211 0.9294
vn 0.1496 -0.6278 0.7639
vn -0.0000 0.9830 0.1837
vn -0.0000 0.9337 0.3580
vn -0.0000 0.8517 0.5241
vn -0.0000 0.7364 0.6766
vn -0.0000 0.5886 0.8084
vn -0.0000 0.4117 0.9113
vn -0.0000 0.2121 0.9773
vn -0.0000 -0.0121 0.9999
vn -0.0000 -0.3209 0.9471
vn -0.0000 -0.6276 0.7786
vn -0.0353 0.9830 0.1802
vn -0.0688 0.9338 0.3511
vn -0.1007 0.8518 0.5141
vn -0.1300 0.7365 0.6638
vn -0.1553 0.5888 0.7932
vn -0.1751 0.4119 0.8943
vn -0.1878 0.2122 0.9590
vn -0.1922 -0.0121 0.9813
vn -0.1820 -0.3211 0.9294
vn -0.1496 -0.6278 0.7639
vn -0.0692 0.9831 0.1697
vn -0.1349 0.9340 0.3308
vn -0.1976 0.8522 0.4845
vn -0.2552 0.7371 0.6257
vn -0.3050 0.5895 0.7480
vn -0.3440 0.4124 0.8435
vn -0.3690 0.2125 0.9048
vn -0.3776 -0.0121 0.9259
vn -0.3576 -0.3216 0.8768
vn -0.2938 -0.6284 0.7203
vn -0.1005 0.9831 0.1528
vn -0.1959 0.9343 0.2978
vn -0.2871 0.8528 0.4363
vn -0.3709 0.7379 0.5638
vn -0.4436 0.5904 0.6742
vn -0.5005 0.4133 0.7607
vn -0.5370 0.2130 0.8162
vn -0.5496 -0.0121 0.8354
vn -0.5203 -0.3223 0.7908
vn -0.4271 -0.6294 0.6492
vn -0.0000 1.0000 -0.0000
vn -0.1279 0.9832 0.1299
vn -0.2495 0.9346 0.2534
vn -0.3657 0.8534 0.3714
vn -0.4727 0.7389 0.4801
vn -0.5657 0.5916 0.5745
vn -0.6386 0.4143 0.6485
vn -0.6854 0.2136 0.6961
vn -0.7016 -0.0122 0.7125
vn -0.6640 -0.3231 0.6743
vn -0.5446 -0.6305 0.5531
vn -0.0176 -0.9958 0.0898
vn -0.0345 -0.9958 0.0846
vn -0.0501 -0.9958 0.0761
vn -0.0638 -0.9959 0.0648
vn -0.0750 -0.9959 0.0509
vn -0.1505 0.9833 0.1021
vn -0.2935 0.9350 0.1991
vn -0.4303 0.8541 0.2920
vn -0.5566 0.7399 0.3777
vn -0.6664 0.5927 0.4523
vn -0.7527 0.4153 0.5108
vn -0.8082 0.2142 0.5485
vn -0.8274 -0.0122 0.5615
vn -0.7828 -0.3240 0.5312
vn -0.6415 -0.6316 0.4353
vn -0.0833 -0.9959 0.0350
vn -0.0884 -0.9959 0.0179
vn -0.0902 -0.9959 -0.0000
vn -0.0884 -0.9959 -0.0179
vn -0.0833 -0.9959 -0.0350
vn -0.1672 0.9834 0.0703
vn -0.3262 0.9353 0.1372
vn -0.4785 0.8547 0.2013
vn -0.6192 0.7408 0.2605
vn -0.7417 0.5937 0.3120
vn -0.8381 0.4162 0.3526
vn -0.9002 0.2148 0.3787
vn -0.9217 -0.0122 0.3877
vn -0.8718 -0.3247 0.3668
vn -0.7139 -0.6326 0.3003
vn -0.0750 -0.9959 -0.0509
vn -0.0638 -0.9959 -0.0648
vn -0.0501 -0.9958 -0.0761
vn -0.0345 -0.9958 -0.0846
vn -0.0176 -0.9958 -0.0898
vn -0.1775 0.9835 0.0359
vn -0.3463 0.9355 0.0700
vn -0.5082 0.8551 0.1027
vn -0.6578 0.7414 0.1329
vn -0.7883 0.5944 0.1592
vn -0.8910 0.4168 0.1800
vn -0.9573 0.2151 0.1934
vn -0.9801 -0.0123 0.1980
vn -0.9269 -0.3252 0.1873
vn -0.7586 -0.6332 0.1533
vn -0.0000 -0.9958 -0.0916
vn 0.0176 -0.9958 -0.0898
vn 0.0345 -0.9958 -0.0846
vn 0.0501 -0.9958 -0.0761
vn 0.0638 -0.9959 -0.0648
vn -0.1810 0.9835 -0.0000
vn -0.3532 0.9356 -0.0000
vn -0.5182 0.8552 -0.0000
vn -0.6709 0.7416 -0.0000
vn -0.8040 0.5946 -0.0000
vn -0.9089 0.4170 -0.0000
vn -0.9766 0.2152 -0.0000
vn -0.9999 -0.0123 -0.0000
vn -0.9456 -0.3254 -0.0000
vn -0.7738 -0.6335 -0.0000
vn 0.0750 -0.9959 -0.0509
vn 0.0833 -0.9959 -0.0350
vn 0.0884 -0.9959 -0.0179
vn 0.0902 -0.9959 -0.0000
vn 0.0884 -0.9959 0.0179
vn -0.1775 0.9835 -0.0359
vn -0.3463 0.9355 -0.0700
vn -0.5082 0.8551 -0.1027
vn -0.6578 0.7414 -0.1329
vn -0.7883 0.5944 -0.1592
vn -0.8910 0.4168 -0.1800
vn -0.9573 0.2151 -0.1934
vn -0.9801 -0.0123 -0.1980
vn -0.9269 -0.3252 -0.1873
vn -0.7586 -0.6332 -0.1533
vn 0.0833 -0.9959 0.0350
vn 0.0750 -0.9959 0.0509
vn 0.0638 -0.9959 0.0648
vn 0.0501 -0.9958 0.0761
vn 0.0345 -0.9958 0.0846
vn -0.1672 0.9834 -0.0703
vn -0.3262 0.9353 -0.1372
vn -0.4785 0.8547 -0.2013
vn -0.6192 0.7408 -0.2605
vn -0.7417 0.5937 -0.3120
vn -0.8381 0.4162 -0.3526
vn -0.9002 0.2148 -0.3787
vn -0.9217 -0.0122 -0.3877
vn -0.8718 -0.3247 -0.3668
vn -0.7139 -0.6326 -0.3003
vn 0.0176 -0.9958 0.0898
vn -0.0000 -0.9958 0.0916
vn -0.0000 -0.9902 -0.1394
vn -0.0268 -0.9902 -0.1368
vn -0.0525 -0.9903 -0.1288
vn -0.1505 0.9833 -0.1021
vn -0.2935 0.9350 -0.1991
vn -0.4303 0.8541 -0.2920
vn -0.5566 0.7399 -0.3777
vn -0.6664 0.5927 -0.4523
vn -0.7527 0.4153 -0.5108
vn -0.8082 0.2142 -0.5485
vn -0.8274 -0.0122 -0.5615
vn -0.7828 -0.3240 -0.5312
vn -0.6415 -0.6316 -0.4353
vn -0.0763 -0.9903 -0.1159
vn -0.0971 -0.9904 -0.0986
vn -0.1142 -0.9904 -0.0775
vn -0.1269 -0.9905 -0.0534
vn -0.1347 -0.9905 -0.0272
vn -0.1279 0.9832 -0.1299
vn -0.2495 0.9346 -0.2534
vn -0.3657 0.8534 -0.3714
vn -0.4727 0.7389 -0.4801
vn -0.5657 0.5916 -0.5745
vn -0.6386 0.4143 -0.6485
vn -0.6854 0.2136 -0.6961
vn -0.7016 -0.0122 -0.7125
vn -0.6640 -0.3231 -0.6743
vn -0.5446 -0.6305 -0.5531
vn -0.1373 -0.9905 -0.0000
vn -0.1347 -0.9905 0.0272
vn -0.1269 -0.9905 0.0534
vn -0.1142 -0.9904 0.0775
vn -0.0971 -0.9904 0.0986
vn -0.1005 0.9831 -0.1528
vn -0.1959 0.9343 -0.2978
vn -0.2871 0.8528 -0.4363
vn -0.3709 0.7379 -0.5638
vn -0.4436 0.5904 -0.6742
vn -0.5005 0.4133 -0.7607
vn -0.5370 0.2130 -0.8162
vn -0.5496 -0.0121 -0.8354
vn -0.5203 -0.3223 -0.7908
vn -0.4271 -0.6294 -0.6492
vn -0.0763 -0.9903 0.1159
vn -0.0525 -0.9903 0.1288
vn -0.0268 -0.9902 0.1368
vn -0.0000 -0.9902 0.1394
vn 0.0268 -0.9902 0.1368
vn -0.0692 0.9831 -0.1697
vn -0.1349 0.9340 -0.3308
vn -0.1976 0.8522 -0.4845
vn -0.2552 0.7371 -0.6257
vn -0.3050 0.5895 -0.7480
vn -0.3440 0.4124 -0.8435
vn -0.3690 0.2125 -0.9048
vn -0.3776 -0.0121 -0.9259
vn -0.3576 -0.3216 -0.8768
vn -0.2938 -0.6284 -0.7203
vn 0.0525 -0.9903 0.1288
vn 0.0763 -0.9903 0.1159
vn 0.0971 -0.9904 0.0986
vn 0.1142 -0.9904 0.0775
vn 0.1269 -0.9905 0.0534
vn -0.0353 0.9830 -0.1802
vn -0.0688 0.9338 -0.3511
vn -0.1007 0.8518 -0.5141
vn -0.1300 0.7365 -0.6638
vn -0.1553 0.5888 -0.7932
vn -0.1751 0.4119 -0.8943
vn -0.1878 0.2122 -0.9590
vn -0.1922 -0.0121 -0.9813
vn -0.1820 -0.3211 -0.9294
vn -0.1496 -0.6278 -0.7639
vn 0.1347 -0.9905 0.0272
vn 0.1373 -0.9905 -0.0000
vn 0.1347 -0.9905 -0.0272
vn 0.1269 -0.9905 -0.0534
vn 0.1142 -0.9904 -0.0775
vn -0.0000 -0.6276 -0.7786
vn 0.0971 -0.9904 -0.0986
vn 0.0763 -0.9903 -0.1159
vn 0.0525 -0.9903 -0.1288
vn 0.0268 -0.9902 -0.1368
vn 0.0462 -0.9989 -0.0093
vn -0.0262 -0.9989 0.0398
vn 0.0092 -0.9989 -0.0469
vn 0.0180 -0.9989 0.0442
vn -0.0435 -0.9989 -0.0183
vn 0.0471 -0.9989 -0.0000
vn -0.0333 -0.9989 0.0338
vn 0.0180 -0.9989 -0.0442
vn -0.0392 -0.9989 -0.0266
vn 0.0092 -0.9989 0.0469
vn 0.0462 -0.9989 0.0093
vn -0.0392 -0.9989 0.0266
vn 0.0262 -0.9989 -0.0398
vn -0.0000 -0.9989 0.0479
vn -0.0333 -0.9989 -0.0338
vn 0.0435 -0.9989 0.0183
vn -0.0435 -0.9989 0.0183
vn -0.0262 -0.9989 -0.0398
vn 0.0333 -0.9989 -0.0338
vn -0.0180 -0.9989 -0.0442
vn 0.0392 -0.9989 0.0266
vn -0.0462 -0.9989 0.0093
vn -0.0180 -0.9989 0.0442
vn -0.0092 -0.9989 0.0469
vn 0.0435 -0.9989 -0.0183
vn 0.0392 -0.9989 -0.0266
vn -0.0000 -0.9989 -0.0479
vn -0.0092 -0.9989 -0.0469
vn 0.0262 -0.9989 0.0398
vn 0.0333 -0.9989 0.0338
vn -0.0462 -0.9989 -0.0093
vn -0.0471 -0.9989 -0.0000
vn -0.2243 -0.9475 -0.2278
vn -0.2639 -0.9478 -0.1791
vn -0.2933 -0.9480 -0.1234
vn -0.1213 -0.9470 0.2975
vn -0.0618 -0.9468 -0.3158
vn -0.0000 -0.9468 -0.3219
vn -0.3114 -0.9482 -0.0629
vn -0.0618 -0.9468 0.3158
vn 0.3114 -0.9482 0.0629
vn -0.3175 -0.9483 -0.0000
vn -0.0000 -0.9468 0.3219
vn 0.3175 -0.9483 -0.0000
vn -0.1213 -0.9470 -0.2975
vn -0.1762 -0.9472 -0.2678
vn -0.3114 -0.9482 0.0629
vn 0.0618 -0.9468 0.3158
vn 0.3114 -0.9482 -0.0629
vn -0.2933 -0.9480 0.1234
vn 0.1213 -0.9470 0.2975
vn 0.2933 -0.9480 -0.1234
vn 0.2639 -0.9478 0.1791
vn 0.2933 -0.9480 0.1234
vn 0.1762 -0.9472 0.2678
vn 0.2243 -0.9475 0.2278
vn 0.2639 -0.9478 -0.1791
vn -0.2639 -0.9478 0.1791
vn 0.0618 -0.9468 -0.3158
vn 0.2243 -0.9475 -0.2278
vn 0.1762 -0.9472 -0.2678
vn 0.1213 -0.9470 -0.2975
vn -0.2243 -0.9475 0.2278
vn -0.1762 -0.9472 0.2678
vn -0.0000 -1.0000 -0.0000
vn -0.4069 -0.8146 -0.4133
vn -0.4789 -0.8155 -0.3250
vn -0.5326 -0.8162 -0.2241
vn -0.2198 -0.8131 0.5390
vn -0.1120 -0.8127 -0.5718
vn -0.5657 -0.8166 -0.1143
vn -0.1120 -0.8127 0.5718
vn 0.5657 -0.8166 0.1143
vn -0.5769 -0.8168 -0.0000
vn -0.0000 -0.8125 0.5829
vn 0.5769 -0.8168 -0.0000
vn -0.2198 -0.8131 -0.5390
vn -0.5657 -0.8166 0.1143
vn 0.1120 -0.8127 0.5718
vn 0.5657 -0.8166 -0.1143
vn -0.5326 -0.8162 0.2241
vn 0.2198 -0.8131 0.5390
vn 0.5326 -0.8162 -0.2241
vn 0.4789 -0.8155 0.3250
vn 0.3194 -0.8138 0.4855
vn 0.4789 -0.8155 -0.3250
vn -0.4789 -0.8155 0.3250
vn 0.4069 -0.8146 -0.4133
vn 0.3194 -0.8138 -0.4855
vn -0.4069 -0.8146 0.4133
vn -0.0000 -0.8125 -0.5829
vn -0.3194 -0.8138 -0.4855
vn 0.5326 -0.8162 0.2241
vn 0.4069 -0.8146 0.4133
vn 0.1120 -0.8127 -0.5718
vn 0.2198 -0.8131 -0.5390
vn -0.3194 -0.8138 0.4855
vn -0.2441 -0.9375 -0.2479
vn -0.2871 -0.9379 -0.1949
vn -0.3192 -0.9381 -0.1343
vn -0.1320 -0.9369 0.3237
vn -0.0673 -0.9367 -0.3436
vn -0.3389 -0.9383 -0.0685
vn -0.0673 -0.9367 0.3436
vn 0.3389 -0.9383 0.0685
vn -0.3455 -0.9384 -0.0000
vn -0.0000 -0.9366 0.3503
vn 0.3455 -0.9384 -0.0000
vn -0.1320 -0.9369 -0.3237
vn -0.3389 -0.9383 0.0685
vn 0.0673 -0.9367 0.3436
vn 0.3389 -0.9383 -0.0685
vn -0.3192 -0.9381 0.1343
vn 0.1320 -0.9369 0.3237
vn 0.3192 -0.9381 -0.1343
vn 0.2871 -0.9379 0.1949
vn 0.1917 -0.9372 0.2914
vn 0.2871 -0.9379 -0.1949
vn -0.2871 -0.9379 0.1949
vn 0.2441 -0.9375 -0.2479
vn 0.1917 -0.9372 -0.2914
vn -0.2441 -0.9375 0.2479
vn -0.0000 -0.9366 -0.3503
vn -0.1917 -0.9372 -0.2914
vn 0.3192 -0.9381 0.1343
vn 0.2441 -0.9375 0.2479
vn 0.0673 -0.9367 -0.3436
vn 0.1320 -0.9369 -0.3237
vn -0.1917 -0.9372 0.2914
vn -0.1045 -0.9888 -0.1061
vn -0.1229 -0.9889 -0.0834
vn -0.1366 -0.9890 -0.0574
vn -0.0566 -0.9887 0.1387
vn -0.0288 -0.9887 -0.1472
vn -0.1450 -0.9890 -0.0293
vn -0.0288 -0.9887 0.1472
vn 0.1450 -0.9890 0.0293
vn -0.1478 -0.9890 -0.0000
vn -0.0000 -0.9887 0.1501
vn 0.1478 -0.9890 -0.0000
vn -0.0566 -0.9887 -0.1387
vn -0.1450 -0.9890 0.0293
vn 0.0288 -0.9887 0.1472
vn 0.1450 -0.9890 -0.0293
vn -0.1366 -0.9890 0.0574
vn 0.0566 -0.9887 0.1387
vn 0.1366 -0.9890 -0.0574
vn 0.1229 -0.9889 0.0834
vn 0.0821 -0.9888 0.1248
vn 0.1229 -0.9889 -0.0834
vn -0.1229 -0.9889 0.0834
vn 0.1045 -0.9888 -0.1061
vn 0.0821 -0.9888 -0.1248
vn -0.1045 -0.9888 0.1061
vn -0.0000 -0.9887 -0.1501
vn -0.0821 -0.9888 -0.1248
vn 0.1366 -0.9890 0.0574
vn 0.1045 -0.9888 0.1061
vn 0.0288 -0.9887 -0.1472
vn 0.0566 -0.9887 -0.1387
vn -0.0821 -0.9888 0.1248
vt 0.750000 0.750000
vt 0.750000 0.812500
vt 0.718750 0.812500
vt 0.718750 0.750000
vt 0.187500 0.375000
vt 0.156250 0.375000
vt 0.156250 0.375000
vt 0.187500 0.375000
vt 0.750000 0.687500
vt 0.718750 0.687500
vt 0.843750 0.375000
vt 0.812500 0.375000
vt 0.812500 0.375000
vt 0.843750 0.375000
vt 0.750000 0.625000
vt 0.718750 0.625000
vt 0.687500 0.375000
vt 0.656250 0.375000
vt 0.656250 0.375000
vt 0.687500 0.375000
vt 0.750000 0.562500
vt 0.718750 0.562500
vt 0.093750 0.375000
vt 0.062500 0.375000
vt 0.093750 0.375000
vt 0.750000 0.500000
vt 0.718750 0.500000
vt 0.750000 0.937500
vt 0.734375 1.000000
vt 0.718750 0.937500
vt 0.343750 0.375000
vt 0.312500 0.375000
vt 0.312500 0.375000
vt 0.343750 0.375000
vt 0.750000 0.437500
vt 0.718750 0.437500
vt 0.750000 0.875000
vt 0.718750 0.875000
vt 0.750000 0.375000
vt 0.718750 0.375000
vt 0.593750 0.375000
vt 0.562500 0.375000
vt 0.593750 0.375000
vt 0.687500 0.875000
vt 0.687500 0.812500
vt 1.000000 0.375000
vt 0.968750 0.375000
vt 0.968750 0.375000
vt 0.687500 0.750000
vt 0.437500 0.375000
vt 0.406250 0.375000
vt 0.406250 0.375000
vt 0.437500 0.375000
vt 0.687500 0.687500
vt 0.250000 0.375000
vt 0.218750 0.375000
vt 0.218750 0.375000
vt 0.687500 0.625000
vt 0.781250 0.375000
vt 0.781250 0.375000
vt 0.687500 0.562500
vt 0.500000 0.375000
vt 0.468750 0.375000
vt 0.468750 0.375000
vt 0.687500 0.500000
vt 0.703125 1.000000
vt 0.687500 0.937500
vt 0.906250 0.375000
vt 0.875000 0.375000
vt 0.906250 0.375000
vt 0.687500 0.437500
vt 0.656250 0.625000
vt 0.656250 0.562500
vt 0.125000 0.375000
vt 0.125000 0.375000
vt 0.656250 0.500000
vt 0.671875 1.000000
vt 0.656250 0.937500
vt 0.718750 0.375000
vt 0.656250 0.437500
vt 0.656250 0.875000
vt 0.656250 0.375000
vt 0.656250 0.812500
vt 0.281250 0.375000
vt 0.281250 0.375000
vt 0.656250 0.750000
vt 0.031250 0.375000
vt 0.031250 0.375000
vt 0.656250 0.687500
vt 0.625000 0.375000
vt 0.625000 0.375000
vt 0.375000 0.375000
vt 0.375000 0.375000
vt 0.625000 0.812500
vt 0.625000 0.750000
vt 0.531250 0.375000
vt 0.531250 0.375000
vt 0.625000 0.687500
vt 0.625000 0.625000
vt 0.625000 0.562500
vt 0.625000 0.500000
vt 0.640625 1.000000
vt 0.625000 0.937500
vt 0.625000 0.437500
vt 0.625000 0.875000
vt 0.593750 0.562500
vt 0.593750 0.500000
vt 0.609375 1.000000
vt 0.593750 0.937500
vt 0.937500 0.375000
vt 0.593750 0.437500
vt 0.593750 0.875000
vt 0.593750 0.812500
vt 0.593750 0.750000
vt 0.593750 0.687500
vt 0.593750 0.625000
vt 0.562500 0.812500
vt 0.562500 0.750000
vt 0.000000 0.375000
vt 0.562500 0.687500
vt 0.562500 0.625000
vt 0.156250 0.375000
vt 0.562500 0.562500
vt 0.843750 0.375000
vt 0.812500 0.375000
vt 0.562500 0.500000
vt 0.578125 1.000000
vt 0.562500 0.937500
vt 0.562500 0.437500
vt 0.562500 0.875000
vt 0.093750 0.375000
vt 0.531250 0.562500
vt 0.531250 0.500000
vt 0.546875 1.000000
vt 0.531250 0.937500
vt 0.343750 0.375000
vt 0.312500 0.375000
vt 0.531250 0.437500
vt 0.531250 0.875000
vt 0.531250 0.375000
vt 0.531250 0.812500
vt 0.531250 0.750000
vt 0.968750 0.375000
vt 0.531250 0.687500
vt 0.531250 0.625000
vt 0.218750 0.375000
vt 0.781250 0.375000
vt 0.468750 0.375000
vt 0.500000 0.750000
vt 0.500000 0.687500
vt 0.906250 0.375000
vt 0.500000 0.625000
vt 0.500000 0.562500
vt 0.500000 0.500000
vt 0.515625 1.000000
vt 0.500000 0.937500
vt 0.281250 0.375000
vt 0.500000 0.437500
vt 0.500000 0.875000
vt 0.500000 0.812500
vt 0.468750 0.500000
vt 0.468750 0.437500
vt 0.468750 0.937500
vt 0.468750 0.875000
vt 0.468750 0.812500
vt 0.375000 0.375000
vt 0.468750 0.750000
vt 0.468750 0.687500
vt 0.468750 0.625000
vt 0.468750 0.562500
vt 0.484374 1.000000
vt 0.437500 0.687500
vt 0.437500 0.625000
vt 0.437500 0.562500
vt 0.437500 0.500000
vt 0.453124 1.000000
vt 0.437500 0.937500
vt 0.437500 0.437500
vt 0.437500 0.875000
vt 0.437500 0.812500
vt 0.437500 0.750000
vt 0.406250 0.937500
vt 0.406250 0.875000
vt 0.406250 0.437500
vt 0.406250 0.812500
vt 0.406250 0.750000
vt 0.406250 0.687500
vt 0.406250 0.625000
vt 0.406250 0.562500
vt 0.406250 0.500000
vt 0.421874 1.000000
vt 0.375000 0.687500
vt 0.375000 0.625000
vt 0.375000 0.562500
vt 0.375000 0.500000
vt 0.390625 1.000000
vt 0.375000 0.937500
vt 0.375000 0.437500
vt 0.375000 0.875000
vt 0.375000 0.812500
vt 0.375000 0.750000
vt 0.343750 0.437500
vt 0.343750 0.875000
vt 0.343750 0.812500
vt 0.343750 0.750000
vt 0.343750 0.687500
vt 0.343750 0.625000
vt 0.343750 0.562500
vt 0.343750 0.500000
vt 0.359375 1.000000
vt 0.343750 0.937500
vt 0.312500 0.625000
vt 0.312500 0.562500
vt 0.312500 0.500000
vt 0.328125 1.000000
vt 0.312500 0.937500
vt 0.312500 0.437500
vt 0.312500 0.875000
vt 0.312500 0.812500
vt 0.312500 0.750000
vt 0.312500 0.687500
vt 0.281250 0.875000
vt 0.281250 0.812500
vt 0.281250 0.750000
vt 0.281250 0.687500
vt 0.281250 0.625000
vt 0.281250 0.562500
vt 0.281250 0.500000
vt 0.296875 1.000000
vt 0.281250 0.937500
vt 0.281250 0.437500
vt 0.250000 0.625000
vt 0.250000 0.562500
vt 0.250000 0.500000
vt 0.265625 1.000000
vt 0.250000 0.937500
vt 0.250000 0.437500
vt 0.250000 0.875000
vt 0.250000 0.812500
vt 0.250000 0.750000
vt 0.250000 0.687500
vt 0.218750 0.812500
vt 0.218750 0.750000
vt 0.218750 0.687500
vt 0.218750 0.625000
vt 0.218750 0.562500
vt 0.218750 0.500000
vt 0.234375 1.000000
vt 0.218750 0.937500
vt 0.437500 0.375000
vt 0.218750 0.437500
vt 0.218750 0.875000
vt 0.250000 0.375000
vt 0.187500 0.562500
vt 0.187500 0.500000
vt 0.203125 1.000000
vt 0.187500 0.937500
vt 0.375000 0.375000
vt 0.187500 0.437500
vt 0.187500 0.875000
vt 0.187500 0.812500
vt 0.500000 0.375000
vt 0.187500 0.750000
vt 0.187500 0.687500
vt 0.187500 0.625000
vt 0.125000 0.375000
vt 0.093750 0.375000
vt 0.156250 0.750000
vt 0.156250 0.687500
vt 0.281250 0.375000
vt 0.156250 0.625000
vt 0.843750 0.375000
vt 0.156250 0.562500
vt 0.687500 0.375000
vt 0.156250 0.500000
vt 0.171875 1.000000
vt 0.156250 0.937500
vt 0.156250 0.437500
vt 0.156250 0.875000
vt 0.156250 0.812500
vt 0.906250 0.375000
vt 0.140625 1.000000
vt 0.125000 0.937500
vt 0.125000 0.500000
vt 0.125000 0.437500
vt 0.125000 0.875000
vt 0.125000 0.812500
vt 0.125000 0.750000
vt 0.125000 0.687500
vt 0.125000 0.625000
vt 0.125000 0.562500
vt 0.093750 0.750000
vt 0.093750 0.687500
vt 0.093750 0.625000
vt 0.093750 0.562500
vt 0.937500 0.375000
vt 0.093750 0.500000
vt 0.109375 1.000000
vt 0.093750 0.937500
vt 0.093750 0.437500
vt 0.093750 0.875000
vt 0.093750 0.812500
vt 0.062500 0.500000
vt 0.062500 0.437500
vt 0.062500 0.937500
vt 0.062500 0.875000
vt 0.062500 0.812500
vt 0.062500 0.750000
vt 0.062500 0.687500
vt 0.062500 0.375000
vt 0.031250 0.375000
vt 0.062500 0.625000
vt 0.687500 0.375000
vt 0.656250 0.375000
vt 0.062500 0.562500
vt 0.250000 0.375000
vt 0.078125 1.000000
vt 0.843750 0.375000
vt 0.437500 0.375000
vt 0.031250 0.687500
vt 0.031250 0.625000
vt 0.031250 0.562500
vt 0.031250 0.500000
vt 0.046875 1.000000
vt 0.031250 0.937500
vt 0.031250 0.437500
vt 0.031250 0.875000
vt 0.031250 0.812500
vt 0.781250 0.375000
vt 0.031250 0.750000
vt 0.000000 0.937500
vt 0.000000 0.875000
vt 0.000000 0.437500
vt 0.000000 0.812500
vt 1.000000 0.375000
vt 0.000000 0.750000
vt 0.593750 0.375000
vt 0.000000 0.687500
vt 0.000000 0.625000
vt 0.000000 0.562500
vt 0.750000 0.375000
vt 0.000000 0.500000
vt 0.015625 1.000000
vt 1.000000 0.625000
vt 1.000000 0.687500
vt 0.968750 0.687500
vt 0.968750 0.625000
vt 1.000000 0.562500
vt 0.968750 0.562500
vt 0.125000 0.375000
vt 1.000000 0.500000
vt 0.968750 0.500000
vt 1.000000 0.937500
vt 0.984375 1.000000
vt 0.968750 0.937500
vt 1.000000 0.437500
vt 0.968750 0.437500
vt 1.000000 0.875000
vt 0.968750 0.875000
vt 1.000000 0.812500
vt 0.968750 0.812500
vt 1.000000 0.750000
vt 0.968750 0.750000
vt 0.937500 0.437500
vt 0.937500 0.875000
vt 0.937500 0.812500
vt 0.937500 0.750000
vt 0.937500 0.687500
vt 0.937500 0.625000
vt 0.937500 0.562500
vt 0.500000 0.375000
vt 0.937500 0.500000
vt 0.953125 1.000000
vt 0.937500 0.937500
vt 0.906250 0.625000
vt 0.906250 0.562500
vt 0.906250 0.500000
vt 0.921875 1.000000
vt 0.906250 0.937500
vt 0.906250 0.437500
vt 0.906250 0.875000
vt 0.906250 0.812500
vt 0.906250 0.750000
vt 0.906250 0.687500
vt 0.875000 0.812500
vt 0.875000 0.750000
vt 0.875000 0.687500
vt 0.875000 0.625000
vt 0.875000 0.562500
vt 0.875000 0.500000
vt 0.890625 1.000000
vt 0.875000 0.937500
vt 0.875000 0.437500
vt 0.875000 0.875000
vt 0.843750 0.562500
vt 0.843750 0.500000
vt 0.859375 1.000000
vt 0.843750 0.937500
vt 0.843750 0.437500
vt 0.843750 0.875000
vt 0.843750 0.812500
vt 0.843750 0.750000
vt 0.843750 0.687500
vt 0.843750 0.625000
vt 0.812500 0.812500
vt 0.812500 0.750000
vt 0.812500 0.687500
vt 0.812500 0.625000
vt 0.812500 0.562500
vt 0.812500 0.500000
vt 0.828125 1.000000
vt 0.812500 0.937500
vt 0.812500 0.437500
vt 0.812500 0.875000
vt 0.781250 0.562500
vt 0.781250 0.500000
vt 0.796875 1.000000
vt 0.781250 0.937500
vt 0.781250 0.437500
vt 0.781250 0.875000
vt 0.781250 0.812500
vt 0.781250 0.750000
vt 0.781250 0.687500
vt 0.781250 0.625000
vt 0.765625 1.000000
s 1
f 4/1/4 3/2/3 13/3/13 14/4/14
f 172/5/172 203/6/203 52/7/52 39/8/39
f 5/9/5 4/1/4 14/4/14 15/10/15
f 156/11/156 186/12/186 68/13/68 36/14/36
f 6/15/6 5/9/5 15/10/15 16/16/16
f 174/17/174 189/18/189 66/19/66 40/20/40
f 7/21/7 6/15/6 16/16/16 17/22/17
f 170/23/170 200/24/200 55/24/55 38/25/38
f 8/26/8 7/21/7 17/22/17 18/27/18
f 1/28/1 264/29/264 11/30/11
f 113/31/113 201/32/201 54/33/54 10/34/10
f 9/35/9 8/26/8 18/27/18 19/36/19
f 2/37/2 1/28/1 11/30/11 12/38/12
f 445/39/445 9/35/9 19/36/19 20/40/20
f 3/2/3 2/37/2 12/38/12 13/3/13
f 143/41/143 185/42/185 69/42/69 25/43/25
f 13/3/13 12/38/12 27/44/27 28/45/28
f 125/46/125 144/47/144 85/48/85 21/46/21
f 14/4/14 13/3/13 28/45/28 29/49/29
f 158/50/158 188/51/188 67/52/67 37/53/37
f 15/10/15 14/4/14 29/49/29 30/54/30
f 141/55/141 171/56/171 81/57/81 24/55/24
f 16/16/16 15/10/15 30/54/30 31/58/31
f 187/59/187 202/39/202 53/39/53 51/60/51
f 17/22/17 16/16/16 31/58/31 32/61/32
f 129/62/129 157/63/157 83/64/83 23/62/23
f 18/27/18 17/22/17 32/61/32 33/65/33
f 11/30/11 264/66/264 26/67/26
f 127/68/127 155/69/155 84/69/84 22/70/22
f 19/36/19 18/27/18 33/65/33 34/71/34
f 12/38/12 11/30/11 26/67/26 27/44/27
f 20/40/20 19/36/19 34/71/34 35/17/35
f 32/61/32 31/58/31 46/72/46 47/73/47
f 203/6/203 159/74/159 82/75/82 52/7/52
f 33/65/33 32/61/32 47/73/47 48/76/48
f 26/67/26 264/77/264 41/78/41
f 202/39/202 173/40/173 70/79/70 53/39/53
f 34/71/34 33/65/33 48/76/48 49/80/49
f 27/44/27 26/67/26 41/78/41 42/81/42
f 35/17/35 34/71/34 49/80/49 50/82/50
f 28/45/28 27/44/27 42/81/42 43/83/43
f 201/32/201 140/84/140 97/85/97 54/33/54
f 29/49/29 28/45/28 43/83/43 44/86/44
f 200/24/200 114/87/114 100/88/100 55/24/55
f 30/54/30 29/49/29 44/86/44 45/89/45
f 189/18/189 142/90/142 96/91/96 66/19/66
f 31/58/31 30/54/30 45/89/45 46/72/46
f 188/51/188 112/92/112 111/93/111 67/52/67
f 186/12/186 187/59/187 51/60/51 68/13/68
f 44/86/44 43/83/43 58/94/58 59/95/59
f 185/42/185 128/96/128 98/97/98 69/42/69
f 45/89/45 44/86/44 59/95/59 60/98/60
f 173/40/173 174/17/174 40/20/40 70/79/70
f 46/72/46 45/89/45 60/98/60 61/99/61
f 171/56/171 172/5/172 39/8/39 81/57/81
f 47/73/47 46/72/46 61/99/61 62/100/62
f 159/74/159 170/23/170 38/25/38 82/75/82
f 48/76/48 47/73/47 62/100/62 63/101/63
f 41/78/41 264/102/264 56/103/56
f 157/63/157 158/50/158 37/53/37 83/64/83
f 49/80/49 48/76/48 63/101/63 64/104/64
f 42/81/42 41/78/41 56/103/56 57/105/57
f 50/82/50 49/80/49 64/104/64 65/91/65
f 43/83/43 42/81/42 57/105/57 58/94/58
f 155/69/155 156/11/156 36/14/36 84/69/84
f 63/101/63 62/100/62 77/106/77 78/107/78
f 56/103/56 264/108/264 71/109/71
f 144/47/144 126/110/126 99/110/99 85/48/85
f 64/104/64 63/101/63 78/107/78 79/111/79
f 57/105/57 56/103/56 71/109/71 72/112/72
f 65/91/65 64/104/64 79/111/79 80/43/80
f 58/94/58 57/105/57 72/112/72 73/113/73
f 142/90/142 143/41/143 25/43/25 96/91/96
f 59/95/59 58/94/58 73/113/73 74/114/74
f 140/84/140 141/55/141 24/55/24 97/85/97
f 60/98/60 59/95/59 74/114/74 75/115/75
f 128/96/128 129/62/129 23/62/23 98/97/98
f 61/99/61 60/98/60 75/115/75 76/116/76
f 126/110/126 127/68/127 22/70/22 99/110/99
f 62/100/62 61/99/61 76/116/76 77/106/77
f 74/114/74 73/113/73 88/117/88 89/118/89
f 114/87/114 125/119/125 21/119/21 100/88/100
f 75/115/75 74/114/74 89/118/89 90/120/90
f 112/92/112 113/31/113 10/34/10 111/93/111
f 76/116/76 75/115/75 90/120/90 91/121/91
f 253/5/253 263/122/263 203/6/203 172/5/172
f 77/106/77 76/116/76 91/121/91 92/123/92
f 409/124/409 424/125/424 186/12/186 156/11/156
f 78/107/78 77/106/77 92/123/92 93/126/93
f 71/109/71 264/127/264 86/128/86
f 35/17/35 50/82/50 189/18/189 174/17/174
f 79/111/79 78/107/78 93/126/93 94/129/94
f 72/112/72 71/109/71 86/128/86 87/130/87
f 80/43/80 79/111/79 94/129/94 95/42/95
f 73/113/73 72/112/72 87/130/87 88/117/88
f 289/131/289 304/24/304 200/24/200 170/23/170
f 93/126/93 92/123/92 107/132/107 108/133/108
f 86/128/86 264/134/264 101/135/101
f 199/136/199 213/137/213 201/32/201 113/31/113
f 94/129/94 93/126/93 108/133/108 109/138/109
f 87/130/87 86/128/86 101/135/101 102/139/102
f 95/42/95 94/129/94 109/138/109 110/140/110
f 88/117/88 87/130/87 102/139/102 103/141/103
f 80/43/80 95/42/95 185/42/185 143/41/143
f 89/118/89 88/117/88 103/141/103 104/142/104
f 334/46/334 349/143/349 144/47/144 125/46/125
f 90/120/90 89/118/89 104/142/104 105/144/105
f 154/50/154 169/52/169 188/51/188 158/50/158
f 91/121/91 90/120/90 105/144/105 106/145/106
f 233/55/233 243/146/243 171/56/171 141/55/141
f 92/123/92 91/121/91 106/145/106 107/132/107
f 439/147/439 445/39/445 202/39/202 187/59/187
f 124/62/124 139/148/139 157/63/157 129/62/129
f 105/144/105 104/142/104 118/149/118 119/150/119
f 379/151/379 394/69/394 155/69/155 127/68/127
f 106/145/106 105/144/105 119/150/119 120/152/120
f 263/122/263 274/75/274 159/74/159 203/6/203
f 107/132/107 106/145/106 120/152/120 121/153/121
f 445/39/445 20/40/20 173/40/173 202/39/202
f 108/133/108 107/132/107 121/153/121 122/154/122
f 101/135/101 264/155/264 115/156/115
f 213/137/213 223/157/223 140/84/140 201/32/201
f 109/138/109 108/133/108 122/154/122 123/158/123
f 102/139/102 101/135/101 115/156/115 116/159/116
f 110/140/110 109/138/109 123/158/123 124/62/124
f 103/141/103 102/139/102 116/159/116 117/160/117
f 304/24/304 319/87/319 114/87/114 200/24/200
f 104/142/104 103/141/103 117/160/117 118/149/118
f 50/82/50 65/91/65 142/90/142 189/18/189
f 123/158/123 122/154/122 137/161/137 138/162/138
f 116/159/116 115/156/115 130/163/130 131/164/131
f 124/62/124 123/158/123 138/162/138 139/148/139
f 117/160/117 116/159/116 131/164/131 132/165/132
f 169/52/169 184/166/184 112/92/112 188/51/188
f 118/149/118 117/160/117 132/165/132 133/167/133
f 424/125/424 439/147/439 187/59/187 186/12/186
f 119/150/119 118/149/118 133/167/133 134/168/134
f 95/42/95 110/140/110 128/96/128 185/42/185
f 120/152/120 119/150/119 134/168/134 135/169/135
f 20/40/20 35/17/35 174/17/174 173/40/173
f 121/153/121 120/152/120 135/169/135 136/170/136
f 243/146/243 253/5/253 172/5/172 171/56/171
f 122/154/122 121/153/121 136/170/136 137/161/137
f 115/156/115 264/171/264 130/163/130
f 274/75/274 289/131/289 170/23/170 159/74/159
f 135/169/135 134/168/134 149/172/149 150/173/150
f 139/148/139 154/50/154 158/50/158 157/63/157
f 136/170/136 135/169/135 150/173/150 151/174/151
f 394/69/394 409/124/409 156/11/156 155/69/155
f 137/161/137 136/170/136 151/174/151 152/175/152
f 130/163/130 264/176/264 145/177/145
f 349/143/349 364/110/364 126/110/126 144/47/144
f 138/162/138 137/161/137 152/175/152 153/178/153
f 131/164/131 130/163/130 145/177/145 146/179/146
f 139/148/139 138/162/138 153/178/153 154/50/154
f 132/165/132 131/164/131 146/179/146 147/180/147
f 65/91/65 80/43/80 143/41/143 142/90/142
f 133/167/133 132/165/132 147/180/147 148/181/148
f 223/157/223 233/55/233 141/55/141 140/84/140
f 134/168/134 133/167/133 148/181/148 149/172/149
f 146/179/146 145/177/145 160/182/160 161/183/161
f 154/50/154 153/178/153 168/184/168 169/52/169
f 147/180/147 146/179/146 161/183/161 162/185/162
f 110/140/110 124/62/124 129/62/129 128/96/128
f 148/181/148 147/180/147 162/185/162 163/186/163
f 364/110/364 379/151/379 127/68/127 126/110/126
f 149/172/149 148/181/148 163/186/163 164/187/164
f 319/87/319 334/119/334 125/119/125 114/87/114
f 150/173/150 149/172/149 164/187/164 165/188/165
f 184/166/184 199/136/199 113/31/113 112/92/112
f 151/174/151 150/173/150 165/188/165 166/189/166
f 152/175/152 151/174/151 166/189/166 167/190/167
f 145/177/145 264/191/264 160/182/160
f 153/178/153 152/175/152 167/190/167 168/184/168
f 165/188/165 164/187/164 179/192/179 180/193/180
f 166/189/166 165/188/165 180/193/180 181/194/181
f 167/190/167 166/189/166 181/194/181 182/195/182
f 160/182/160 264/196/264 175/197/175
f 168/184/168 167/190/167 182/195/182 183/198/183
f 161/183/161 160/182/160 175/197/175 176/199/176
f 169/52/169 168/184/168 183/198/183 184/166/184
f 162/185/162 161/183/161 176/199/176 177/200/177
f 163/186/163 162/185/162 177/200/177 178/201/178
f 164/187/164 163/186/163 178/201/178 179/192/179
f 184/166/184 183/198/183 198/202/198 199/136/199
f 177/200/177 176/199/176 191/203/191 192/204/192
f 178/201/178 177/200/177 192/204/192 193/205/193
f 179/192/179 178/201/178 193/205/193 194/206/194
f 180/193/180 179/192/179 194/206/194 195/207/195
f 181/194/181 180/193/180 195/207/195 196/208/196
f 182/195/182 181/194/181 196/208/196 197/209/197
f 175/197/175 264/210/264 190/211/190
f 183/198/183 182/195/182 197/209/197 198/202/198
f 176/199/176 175/197/175 190/211/190 191/203/191
f 196/208/196 195/207/195 209/212/209 210/213/210
f 197/209/197 196/208/196 210/213/210 211/214/211
f 190/211/190 264/215/264 204/216/204
f 198/202/198 197/209/197 211/214/211 212/217/212
f 191/203/191 190/211/190 204/216/204 205/218/205
f 199/136/199 198/202/198 212/217/212 213/137/213
f 192/204/192 191/203/191 205/218/205 206/219/206
f 193/205/193 192/204/192 206/219/206 207/220/207
f 194/206/194 193/205/193 207/220/207 208/221/208
f 195/207/195 194/206/194 208/221/208 209/212/209
f 206/219/206 205/218/205 215/222/215 216/223/216
f 207/220/207 206/219/206 216/223/216 217/224/217
f 208/221/208 207/220/207 217/224/217 218/225/218
f 209/212/209 208/221/208 218/225/218 219/226/219
f 210/213/210 209/212/209 219/226/219 220/227/220
f 211/214/211 210/213/210 220/227/220 221/228/221
f 204/216/204 264/229/264 214/230/214
f 212/217/212 211/214/211 221/228/221 222/231/222
f 205/218/205 204/216/204 214/230/214 215/222/215
f 213/137/213 212/217/212 222/231/222 223/157/223
f 220/227/220 219/226/219 229/232/229 230/233/230
f 221/228/221 220/227/220 230/233/230 231/234/231
f 214/230/214 264/235/264 224/236/224
f 222/231/222 221/228/221 231/234/231 232/237/232
f 215/222/215 214/230/214 224/236/224 225/238/225
f 223/157/223 222/231/222 232/237/232 233/55/233
f 216/223/216 215/222/215 225/238/225 226/239/226
f 217/224/217 216/223/216 226/239/226 227/240/227
f 218/225/218 217/224/217 227/240/227 228/241/228
f 219/226/219 218/225/218 228/241/228 229/232/229
f 494/125/494 486/147/486 551/147/519 558/125/526
f 227/240/227 226/239/226 236/242/236 237/243/237
f 504/31/504 500/137/500 563/137/531 566/31/534
f 228/241/228 227/240/227 237/243/237 238/244/238
f 487/39/487 508/40/508 576/40/544 572/39/540
f 229/232/229 228/241/228 238/244/238 239/245/239
f 506/43/506 501/42/501 564/42/532 567/43/535
f 230/233/230 229/232/229 239/245/239 240/246/240
f 491/46/491 488/48/488 552/48/520 555/46/523
f 231/234/231 230/233/230 240/246/240 241/247/241
f 224/236/224 264/248/264 234/249/234
f 503/250/503 502/52/502 565/52/533 574/250/542
f 232/237/232 231/234/231 241/247/241 242/251/242
f 225/238/225 224/236/224 234/249/234 235/252/235
f 233/55/233 232/237/232 242/251/242 243/146/243
f 226/239/226 225/238/225 235/252/235 236/242/236
f 492/253/492 489/146/489 553/146/521 556/253/524
f 241/247/241 240/246/240 250/254/250 251/255/251
f 234/249/234 264/256/264 244/257/244
f 505/258/505 504/31/504 566/31/534 575/258/543
f 242/251/242 241/247/241 251/255/251 252/259/252
f 235/252/235 234/249/234 244/257/244 245/260/245
f 243/146/243 242/251/242 252/259/252 253/5/253
f 236/242/236 235/252/235 245/260/245 246/261/246
f 493/262/493 490/148/490 554/148/522 557/262/525
f 237/243/237 236/242/236 246/261/246 247/263/247
f 509/91/509 506/43/506 567/43/535 569/91/537
f 238/244/238 237/243/237 247/263/247 248/264/248
f 496/87/496 491/119/491 555/119/523 559/87/527
f 239/245/239 238/244/238 248/264/248 249/265/249
f 485/5/485 513/7/513 578/7/546 550/5/518
f 240/246/240 239/245/239 249/265/249 250/254/250
f 512/266/512 507/267/507 568/267/536 571/266/539
f 248/264/248 247/263/247 257/268/257 258/269/258
f 497/270/497 492/253/492 556/253/524 560/270/528
f 249/265/249 248/264/248 258/269/258 259/271/259
f 482/69/482 495/272/495 573/272/541 547/69/515
f 250/254/250 249/265/249 259/271/259 260/273/260
f 508/40/508 511/274/511 577/274/545 576/40/544
f 251/255/251 250/254/250 260/273/260 261/275/261
f 244/257/244 264/276/264 254/277/254
f 498/140/498 493/262/493 557/262/525 561/140/529
f 252/259/252 251/255/251 261/275/261 262/278/262
f 245/260/245 244/257/244 254/277/254 255/279/255
f 253/5/253 252/259/252 262/278/262 263/122/263
f 246/261/246 245/260/245 255/279/255 256/280/256
f 483/281/483 482/69/482 547/69/515 548/281/516
f 247/263/247 246/261/246 256/280/256 257/268/257
f 254/277/254 264/282/264 265/283/265
f 510/82/510 509/91/509 569/91/537 570/82/538
f 262/278/262 261/275/261 272/284/272 273/285/273
f 255/279/255 254/277/254 265/283/265 266/286/266
f 263/122/263 262/278/262 273/285/273 274/75/274
f 256/280/256 255/279/255 266/286/266 267/287/267
f 495/272/495 494/125/494 558/125/526 573/272/541
f 257/268/257 256/280/256 267/287/267 268/288/268
f 490/148/490 503/250/503 574/250/542 554/148/522
f 258/269/258 257/268/257 268/288/268 269/289/269
f 511/274/511 510/82/510 570/82/538 577/274/545
f 259/271/259 258/269/258 269/289/269 270/290/270
f 502/52/502 505/258/505 575/258/543 565/52/533
f 260/273/260 259/271/259 270/290/270 271/291/271
f 486/147/486 487/39/487 572/39/540 551/147/519
f 261/275/261 260/273/260 271/291/271 272/284/272
f 269/289/269 268/288/268 283/292/283 284/293/284
f 513/7/513 512/266/512 571/266/539 578/7/546
f 270/290/270 269/289/269 284/293/284 285/294/285
f 499/24/499 496/87/496 559/87/527 562/24/530
f 271/291/271 270/290/270 285/294/285 286/295/286
f 484/296/484 483/281/483 548/281/516 549/296/517
f 272/284/272 271/291/271 286/295/286 287/297/287
f 265/283/265 264/298/264 280/299/280
f 500/137/500 497/270/497 560/270/528 563/137/531
f 273/285/273 272/284/272 287/297/287 288/300/288
f 266/286/266 265/283/265 280/299/280 281/301/281
f 274/75/274 273/285/273 288/300/288 289/131/289
f 267/287/267 266/286/266 281/301/281 282/302/282
f 488/48/488 484/296/484 549/296/517 552/48/520
f 268/288/268 267/287/267 282/302/282 283/292/283
f 501/42/501 498/140/498 561/140/529 564/42/532
f 288/300/288 287/297/287 302/303/302 303/304/303
f 281/301/281 280/299/280 295/305/295 296/306/296
f 289/131/289 288/300/288 303/304/303 304/24/304
f 282/302/282 281/301/281 296/306/296 297/307/297
f 489/146/489 485/5/485 550/5/518 553/146/521
f 283/292/283 282/302/282 297/307/297 298/308/298
f 507/267/507 499/24/499 562/24/530 568/267/536
f 284/293/284 283/292/283 298/308/298 299/309/299
f 474/310/474 450/311/450 337/87/337 336/24/336
f 285/294/285 284/293/284 299/309/299 300/312/300
f 472/313/472 451/314/451 277/82/277 276/17/276
f 286/295/286 285/294/285 300/312/300 301/315/301
f 476/316/476 452/146/452 321/146/321 320/55/320
f 287/297/287 286/295/286 301/315/301 302/303/302
f 280/299/280 264/317/264 295/305/295
f 478/318/478 453/125/453 354/125/354 353/124/353
f 480/148/480 454/319/454 294/50/294 293/148/293
f 300/312/300 299/309/299 314/320/314 315/321/315
f 450/311/450 455/119/455 338/119/338 337/87/337
f 301/315/301 300/312/300 315/321/315 316/322/316
f 451/314/451 456/91/456 278/91/278 277/82/277
f 302/303/302 301/315/301 316/322/316 317/323/317
f 295/305/295 264/324/264 310/325/310
f 452/146/452 457/5/457 322/5/322 321/146/321
f 303/304/303 302/303/302 317/323/317 318/326/318
f 296/306/296 295/305/295 310/325/310 311/327/311
f 304/24/304 303/304/303 318/326/318 319/87/319
f 297/307/297 296/306/296 311/327/311 312/328/312
f 453/125/453 459/329/459 365/147/365 354/125/354
f 298/308/298 297/307/297 312/328/312 313/330/313
f 454/319/454 458/52/458 305/52/305 294/50/294
f 299/309/299 298/308/298 313/330/313 314/320/314
f 311/327/311 310/325/310 325/331/325 326/332/326
f 319/87/319 318/326/318 333/333/333 334/119/334
f 312/328/312 311/327/311 326/332/326 327/334/327
f 455/335/455 460/143/460 339/143/339 338/46/338
f 313/330/313 312/328/312 327/334/327 328/336/328
f 456/91/456 461/337/461 279/43/279 278/91/278
f 314/320/314 313/330/313 328/336/328 329/338/329
f 457/5/457 462/122/462 323/122/323 322/5/322
f 315/321/315 314/320/314 329/338/329 330/339/330
f 458/52/458 464/166/464 306/166/306 305/52/305
f 316/322/316 315/321/315 330/339/330 331/340/331
f 459/329/459 463/341/463 366/39/366 365/147/365
f 317/323/317 316/322/316 331/340/331 332/342/332
f 310/325/310 264/343/264 325/331/325
f 460/143/460 465/296/465 350/110/350 339/143/339
f 318/326/318 317/323/317 332/342/332 333/333/333
f 330/344/330 329/345/329 344/346/344 345/347/345
f 461/337/461 466/42/466 290/42/290 279/43/279
f 331/348/331 330/344/330 345/347/345 346/349/346
f 462/122/462 468/350/468 324/75/324 323/122/323
f 332/351/332 331/348/331 346/349/346 347/352/347
f 325/353/325 264/354/264 340/355/340
f 463/341/463 473/40/473 275/40/275 366/39/366
f 333/356/333 332/351/332 347/352/347 348/357/348
f 326/358/326 325/353/325 340/355/340 341/359/341
f 334/46/334 333/356/333 348/357/348 349/143/349
f 327/360/327 326/358/326 341/359/341 342/361/342
f 464/166/464 467/31/467 307/136/307 306/166/306
f 328/362/328 327/360/327 342/361/342 343/363/343
f 465/296/465 470/151/470 351/151/351 350/110/350
f 329/345/329 328/362/328 343/363/343 344/346/344
f 466/42/466 471/140/471 291/140/291 290/42/290
f 349/143/349 348/357/348 363/364/363 364/110/364
f 342/361/342 341/359/341 356/365/356 357/366/357
f 467/31/467 469/32/469 308/137/308 307/136/307
f 343/363/343 342/361/342 357/366/357 358/367/358
f 468/350/468 475/131/475 335/131/335 324/75/324
f 344/346/344 343/363/343 358/367/358 359/368/359
f 469/32/469 477/84/477 309/157/309 308/137/308
f 345/347/345 344/346/344 359/368/359 360/369/360
f 470/151/470 479/69/479 352/69/352 351/151/351
f 346/349/346 345/347/345 360/369/360 361/370/361
f 471/140/471 481/371/481 292/62/292 291/140/291
f 347/352/347 346/349/346 361/370/361 362/372/362
f 340/355/340 264/373/264 355/374/355
f 473/40/473 472/313/472 276/17/276 275/40/275
f 348/357/348 347/352/347 362/372/362 363/364/363
f 341/359/341 340/355/340 355/374/355 356/365/356
f 475/131/475 474/310/474 336/24/336 335/131/335
f 361/370/361 360/369/360 375/375/375 376/376/376
f 477/84/477 476/316/476 320/55/320 309/157/309
f 362/372/362 361/370/361 376/376/376 377/377/377
f 355/374/355 264/378/264 370/379/370
f 479/69/479 478/318/478 353/124/353 352/69/352
f 363/364/363 362/372/362 377/377/377 378/380/378
f 356/365/356 355/374/355 370/379/370 371/381/371
f 364/110/364 363/364/363 378/380/378 379/151/379
f 357/366/357 356/365/356 371/381/371 372/382/372
f 481/371/481 480/148/480 293/148/293 292/62/292
f 358/367/358 357/366/357 372/382/372 373/383/373
f 39/8/39 52/7/52 410/122/410 411/5/411
f 359/368/359 358/367/358 373/383/373 374/384/374
f 36/14/36 68/13/68 369/125/369 380/124/380
f 360/369/360 359/368/359 374/384/374 375/375/375
f 40/20/40 66/19/66 447/82/447 448/17/448
f 373/383/373 372/382/372 387/385/387 388/386/388
f 38/25/38 55/24/55 397/24/397 398/131/398
f 374/384/374 373/383/373 388/386/388 389/387/389
f 10/34/10 54/33/54 425/137/425 426/136/426
f 375/375/375 374/384/374 389/387/389 390/388/390
f 25/43/25 69/42/69 443/42/443 444/43/444
f 376/376/376 375/375/375 390/388/390 391/389/391
f 21/46/21 85/48/85 384/143/384 395/46/395
f 377/377/377 376/376/376 391/389/391 392/390/392
f 370/379/370 264/391/264 385/392/385
f 37/53/37 67/52/67 428/52/428 429/50/429
f 378/380/378 377/377/377 392/390/392 393/393/393
f 371/381/371 370/379/370 385/392/385 386/394/386
f 379/151/379 378/380/378 393/393/393 394/69/394
f 372/382/372 371/381/371 386/394/386 387/385/387
f 24/55/24 81/57/81 412/146/412 413/55/413
f 392/390/392 391/389/391 406/395/406 407/396/407
f 385/392/385 264/397/264 400/398/400
f 51/60/51 53/39/53 367/39/367 368/147/368
f 393/393/393 392/390/392 407/396/407 408/399/408
f 386/394/386 385/392/385 400/398/400 401/400/401
f 394/69/394 393/393/393 408/399/408 409/124/409
f 387/385/387 386/394/386 401/400/401 402/401/402
f 23/62/23 83/64/83 440/148/440 441/62/441
f 388/386/388 387/385/387 402/401/402 403/402/403
f 22/70/22 84/69/84 381/69/381 382/151/382
f 389/387/389 388/386/388 403/402/403 404/403/404
f 52/7/52 82/75/82 399/75/399 410/122/410
f 390/388/390 389/387/389 404/403/404 405/404/405
f 53/39/53 70/79/70 449/40/449 367/39/367
f 391/389/391 390/388/390 405/404/405 406/395/406
f 403/402/403 402/401/402 417/405/417 418/406/418
f 54/33/54 97/85/97 414/157/414 425/137/425
f 404/403/404 403/402/403 418/406/418 419/407/419
f 55/24/55 100/88/100 396/87/396 397/24/397
f 405/404/405 404/403/404 419/407/419 420/408/420
f 66/19/66 96/91/96 446/91/446 447/82/447
f 406/395/406 405/404/405 420/408/420 421/409/421
f 67/52/67 111/93/111 427/166/427 428/52/428
f 407/396/407 406/395/406 421/409/421 422/410/422
f 400/398/400 264/411/264 415/412/415
f 68/13/68 51/60/51 368/147/368 369/125/369
f 408/399/408 407/396/407 422/410/422 423/413/423
f 401/400/401 400/398/400 415/412/415 416/414/416
f 409/124/409 408/399/408 423/413/423 424/125/424
f 402/401/402 401/400/401 416/414/416 417/405/417
f 69/42/69 98/97/98 442/140/442 443/42/443
f 422/410/422 421/409/421 436/415/436 437/416/437
f 415/412/415 264/417/264 430/418/430
f 70/79/70 40/20/40 448/17/448 449/40/449
f 423/413/423 422/410/422 437/416/437 438/419/438
f 416/414/416 415/412/415 430/418/430 431/420/431
f 424/125/424 423/413/423 438/419/438 439/147/439
f 417/405/417 416/414/416 431/420/431 432/421/432
f 81/57/81 39/8/39 411/5/411 412/146/412
f 418/406/418 417/405/417 432/421/432 433/422/433
f 82/75/82 38/25/38 398/131/398 399/75/399
f 419/407/419 418/406/418 433/422/433 434/423/434
f 83/64/83 37/53/37 429/50/429 440/148/440
f 420/408/420 419/407/419 434/423/434 435/424/435
f 84/69/84 36/14/36 380/124/380 381/69/381
f 421/409/421 420/408/420 435/424/435 436/415/436
f 85/48/85 99/110/99 383/110/383 384/143/384
f 96/91/96 25/43/25 444/43/444 446/91/446
f 434/423/434 433/422/433 4/1/4 5/9/5
f 97/85/97 24/55/24 413/55/413 414/157/414
f 435/424/435 434/423/434 5/9/5 6/15/6
f 98/97/98 23/62/23 441/62/441 442/140/442
f 436/415/436 435/424/435 6/15/6 7/21/7
f 99/110/99 22/70/22 382/151/382 383/110/383
f 437/416/437 436/415/436 7/21/7 8/26/8
f 430/418/430 264/425/264 1/28/1
f 100/88/100 21/119/21 395/119/395 396/87/396
f 438/419/438 437/416/437 8/26/8 9/35/9
f 431/420/431 430/418/430 1/28/1 2/37/2
f 439/147/439 438/419/438 9/35/9 445/39/445
f 432/421/432 431/420/431 2/37/2 3/2/3
f 111/93/111 10/34/10 426/136/426 427/166/427
f 433/422/433 432/421/432 3/2/3 4/1/4
f 441/62/441 440/148/440 480/148/480 481/371/481
f 381/69/381 380/124/380 478/318/478 479/69/479
f 414/157/414 413/55/413 476/316/476 477/84/477
f 398/131/398 397/24/397 474/310/474 475/131/475
f 449/40/449 448/17/448 472/313/472 473/40/473
f 442/140/442 441/62/441 481/371/481 471/140/471
f 382/151/382 381/69/381 479/69/479 470/151/470
f 425/137/425 414/157/414 477/84/477 469/32/469
f 399/75/399 398/131/398 475/131/475 468/350/468
f 426/136/426 425/137/425 469/32/469 467/31/467
f 443/42/443 442/140/442 471/140/471 466/42/466
f 383/110/383 382/151/382 470/151/470 465/296/465
f 427/166/427 426/136/426 467/31/467 464/166/464
f 367/39/367 449/40/449 473/40/473 463/341/463
f 410/122/410 399/75/399 468/350/468 462/122/462
f 444/43/444 443/42/443 466/42/466 461/337/461
f 384/143/384 383/110/383 465/296/465 460/143/460
f 368/147/368 367/39/367 463/341/463 459/329/459
f 428/52/428 427/166/427 464/166/464 458/52/458
f 411/5/411 410/122/410 462/122/462 457/5/457
f 446/91/446 444/43/444 461/337/461 456/91/456
f 395/46/395 384/143/384 460/143/460 455/335/455
f 429/50/429 428/52/428 458/52/458 454/319/454
f 369/125/369 368/147/368 459/329/459 453/125/453
f 412/146/412 411/5/411 457/5/457 452/146/452
f 447/82/447 446/91/446 456/91/456 451/314/451
f 396/87/396 395/119/395 455/119/455 450/311/450
f 440/148/440 429/50/429 454/319/454 480/148/480
f 380/124/380 369/125/369 453/125/453 478/318/478
f 413/55/413 412/146/412 452/146/452 476/316/476
f 448/17/448 447/82/447 451/314/451 472/313/472
f 397/24/397 396/87/396 450/311/450 474/310/474
f 323/122/323 324/75/324 512/266/512 513/7/513
f 276/17/276 277/82/277 510/82/510 511/274/511
f 277/82/277 278/91/278 509/91/509 510/82/510
f 275/40/275 276/17/276 511/274/511 508/40/508
f 324/75/324 335/131/335 507/267/507 512/266/512
f 278/91/278 279/43/279 506/43/506 509/91/509
f 306/166/306 307/136/307 504/31/504 505/258/505
f 294/50/294 305/52/305 502/52/502 503/250/503
f 279/43/279 290/42/290 501/42/501 506/43/506
f 307/136/307 308/137/308 500/137/500 504/31/504
f 335/131/335 336/24/336 499/24/499 507/267/507
f 290/42/290 291/140/291 498/140/498 501/42/501
f 308/137/308 309/157/309 497/270/497 500/137/500
f 336/24/336 337/87/337 496/87/496 499/24/499
f 305/52/305 306/166/306 505/258/505 502/52/502
f 353/124/353 354/125/354 494/125/494 495/272/495
f 291/140/291 292/62/292 493/262/493 498/140/498
f 309/157/309 320/55/320 492/253/492 497/270/497
f 337/87/337 338/119/338 491/119/491 496/87/496
f 292/62/292 293/148/293 490/148/490 493/262/493
f 320/55/320 321/146/321 489/146/489 492/253/492
f 338/46/338 339/143/339 488/48/488 491/46/491
f 366/39/366 275/40/275 508/40/508 487/39/487
f 354/125/354 365/147/365 486/147/486 494/125/494
f 321/146/321 322/5/322 485/5/485 489/146/489
f 339/143/339 350/110/350 484/296/484 488/48/488
f 350/110/350 351/151/351 483/281/483 484/296/484
f 365/147/365 366/39/366 487/39/487 486/147/486
f 293/148/293 294/50/294 503/250/503 490/148/490
f 351/151/351 352/69/352 482/69/482 483/281/483
f 352/69/352 353/124/353 495/272/495 482/69/482
f 322/5/322 323/122/323 513/7/513 485/5/485
f 545/166/514 544/136/514 546/166/514
f 543/151/514 542/69/514 546/151/514
f 541/124/514 540/125/514 546/124/514
f 539/110/514 543/151/514 546/110/514
f 538/52/514 545/166/514 546/52/514
f 537/143/514 539/110/514 546/143/514
f 536/146/514 535/5/514 546/146/514
f 542/69/514 541/124/514 546/69/514
f 534/46/514 537/143/514 546/46/514
f 533/55/514 536/146/514 546/55/514
f 532/50/514 538/52/514 546/50/514
f 531/39/514 514/40/514 546/39/514
f 530/87/514 534/119/514 546/87/514
f 529/157/514 533/55/514 546/157/514
f 528/140/514 527/62/514 546/140/514
f 526/137/514 529/157/514 546/137/514
f 525/42/514 528/140/514 546/42/514
f 535/5/514 524/122/514 546/5/514
f 523/148/514 532/50/514 546/148/514
f 544/136/514 526/137/514 546/136/514
f 522/43/514 525/42/514 546/43/514
f 521/24/514 530/87/514 546/24/514
f 520/91/514 522/43/514 546/91/514
f 527/62/514 523/148/514 546/62/514
f 519/131/514 521/24/514 546/131/514
f 518/82/514 520/91/514 546/82/514
f 517/17/514 518/82/514 546/17/514
f 516/147/514 531/39/514 546/147/514
f 515/75/514 519/131/514 546/75/514
f 514/40/514 517/17/514 546/40/514
f 540/125/514 516/147/514 546/125/514
f 524/122/514 515/75/514 546/122/514
f 549/296/517 548/281/516 580/281/548 581/296/549
f 563/137/531 560/270/528 592/270/560 595/137/563
f 552/48/520 549/296/517 581/296/549 584/48/552
f 564/42/532 561/140/529 593/140/561 596/42/564
f 553/146/521 550/5/518 582/5/550 585/146/553
f 568/267/536 562/24/530 594/24/562 600/267/568
f 558/125/526 551/147/519 583/147/551 590/125/558
f 566/31/534 563/137/531 595/137/563 598/31/566
f 572/39/540 576/40/544 608/40/576 604/39/572
f 567/43/535 564/42/532 596/42/564 599/43/567
f 555/46/523 552/48/520 584/48/552 587/46/555
f 574/250/542 565/52/533 597/52/565 606/250/574
f 556/253/524 553/146/521 585/146/553 588/253/556
f 575/258/543 566/31/534 598/31/566 607/258/575
f 557/262/525 554/148/522 586/148/554 589/262/557
f 569/91/537 567/43/535 599/43/567 601/91/569
f 559/87/527 555/119/523 587/119/555 591/87/559
f 550/5/518 578/7/546 610/7/578 582/5/550
f 571/266/539 568/267/536 600/267/568 603/266/571
f 560/270/528 556/253/524 588/253/556 592/270/560
f 547/69/515 573/272/541 605/272/573 579/69/547
f 576/40/544 577/274/545 609/274/577 608/40/576
f 561/140/529 557/262/525 589/262/557 593/140/561
f 548/281/516 547/69/515 579/69/547 580/281/548
f 570/82/538 569/91/537 601/91/569 602/82/570
f 573/272/541 558/125/526 590/125/558 605/272/573
f 554/148/522 574/250/542 606/250/574 586/148/554
f 577/274/545 570/82/538 602/82/570 609/274/577
f 565/52/533 575/258/543 607/258/575 597/52/565
f 551/147/519 572/39/540 604/39/572 583/147/551
f 578/7/546 571/266/539 603/266/571 610/7/578
f 562/24/530 559/87/527 591/87/559 594/24/562
f 601/91/569 599/43/567 631/43/599 633/91/601
f 591/87/559 587/119/555 619/119/587 623/87/591
f 582/5/550 610/7/578 642/7/610 614/5/582
f 603/266/571 600/267/568 632/267/600 635/266/603
f 592/270/560 588/253/556 620/253/588 624/270/592
f 579/69/547 605/272/573 637/272/605 611/69/579
f 608/40/576 609/274/577 641/274/609 640/40/608
f 593/140/561 589/262/557 621/262/589 625/140/593
f 580/281/548 579/69/547 611/69/579 612/281/580
f 602/82/570 601/91/569 633/91/601 634/82/602
f 605/272/573 590/125/558 622/125/590 637/272/605
f 586/148/554 606/250/574 638/250/606 618/148/586
f 609/274/577 602/82/570 634/82/602 641/274/609
f 597/52/565 607/258/575 639/258/607 629/52/597
f 583/147/551 604/39/572 636/39/604 615/147/583
f 610/7/578 603/266/571 635/266/603 642/7/610
f 594/24/562 591/87/559 623/87/591 626/24/594
f 581/296/549 580/281/548 612/281/580 613/296/581
f 595/137/563 592/270/560 624/270/592 627/137/595
f 584/48/552 581/296/549 613/296/581 616/48/584
f 596/42/564 593/140/561 625/140/593 628/42/596
f 585/146/553 582/5/550 614/5/582 617/146/585
f 600/267/568 594/24/562 626/24/594 632/267/600
f 590/125/558 583/147/551 615/147/583 622/125/590
f 598/31/566 595/137/563 627/137/595 630/31/598
f 604/39/572 608/40/576 640/40/608 636/39/604
f 599/43/567 596/42/564 628/42/596 631/43/599
f 587/46/555 584/48/552 616/48/584 619/46/587
f 606/250/574 597/52/565 629/52/597 638/250/606
f 588/253/556 585/146/553 617/146/585 620/253/588
f 607/258/575 598/31/566 630/31/598 639/258/607
f 589/262/557 586/148/554 618/148/586 621/262/589
f 614/5/582 642/7/610 524/122/514 535/5/514
f 611/69/579 637/272/605 541/124/514 542/69/514
f 612/281/580 611/69/579 542/69/514 543/151/514
f 618/148/586 638/250/606 532/50/514 523/148/514
f 615/147/583 636/39/604 531/39/514 516/147/514
f 613/296/581 612/281/580 543/151/514 539/110/514
f 616/48/584 613/296/581 539/110/514 537/143/514
f 617/146/585 614/5/582 535/5/514 536/146/514
f 622/125/590 615/147/583 516/147/514 540/125/514
f 636/39/604 640/40/608 514/40/514 531/39/514
f 619/46/587 616/48/584 537/143/514 534/46/514
f 620/253/588 617/146/585 536/146/514 533/55/514
f 621/262/589 618/148/586 523/148/514 527/62/514
f 623/87/591 619/119/587 534/119/514 530/87/514
f 624/270/592 620/253/588 533/55/514 529/157/514
f 625/140/593 621/262/589 527/62/514 528/140/514
f 637/272/605 622/125/590 540/125/514 541/124/514
f 629/52/597 639/258/607 545/166/514 538/52/514
f 626/24/594 623/87/591 530/87/514 521/24/514
f 627/137/595 624/270/592 529/157/514 526/137/514
f 628/42/596 625/140/593 528/140/514 525/42/514
f 632/267/600 626/24/594 521/24/514 519/131/514
f 630/31/598 627/137/595 526/137/514 544/136/514
f 631/43/599 628/42/596 525/42/514 522/43/514
f 638/250/606 629/52/597 538/52/514 532/50/514
f 639/258/607 630/31/598 544/136/514 545/166/514
f 633/91/601 631/43/599 522/43/514 520/91/514
f 635/266/603 632/267/600 519/131/514 515/75/514
f 640/40/608 641/274/609 517/17/514 514/40/514
f 634/82/602 633/91/601 520/91/514 518/82/514
f 641/274/609 634/82/602 518/82/514 517/17/514
f 642/7/610 635/266/603 515/75/514 524/122/514
