# Blender 5.1.2
# www.blender.org
o Object_4.001
v -0.119707 -0.232090 38.940590
v -0.034577 -0.123632 39.047028
v -0.017823 -0.260759 38.940941
v 0.110957 -0.229546 7.094861
v 0.136255 -0.462811 7.684371
v 0.402507 -0.313492 7.685692
v -0.255411 0.201670 8.265807
v 0.035380 0.364749 8.267250
v -0.063946 0.140621 38.549965
v -0.010619 -0.195336 7.094443
v -0.157599 -0.380125 7.683362
v 0.074491 -0.208988 38.941399
v 0.103159 -0.107104 38.941696
v 0.230733 -0.091400 38.550705
v -0.171479 -0.139775 38.940559
v -0.196677 -0.331100 38.548584
v 0.131446 0.085641 38.550636
v 0.051386 -0.014789 38.941658
v -0.050496 0.013879 38.941315
v -0.142810 -0.037891 38.940849
v -0.240985 0.041335 38.549088
v -0.182633 -0.410060 8.264984
v -0.001284 -0.386080 38.549255
v -0.224235 0.179984 7.684115
v -0.306919 -0.113871 7.683256
v -0.072397 -0.085177 7.094399
v 0.138303 -0.500368 8.266087
v 0.429093 -0.337287 8.267530
v 0.175754 -0.286793 38.550133
v -0.295965 -0.154059 38.548515
v -0.038188 0.036399 7.094755
v 0.071968 0.098177 7.095301
v 0.042017 0.329303 7.685436
v 0.221115 -0.167768 7.095407
v 0.485191 -0.019637 7.686552
v 0.193544 0.063967 7.095718
v 0.519396 -0.016350 8.268468
v 0.356315 0.274444 8.268353
v 0.335871 0.246618 7.686445
v -0.345714 -0.119268 8.264869
v 0.255323 -0.046190 7.095762
vn -0.5207 -0.6596 0.5420
vn -0.0039 -0.0018 1.0000
vn 0.0969 -0.8334 0.5441
vn 0.1113 -0.9224 -0.3698
vn 0.1163 -0.9703 -0.2121
vn 0.7689 -0.6043 -0.2088
vn -0.7853 0.6184 -0.0305
vn -0.1180 0.9926 -0.0272
vn -0.1173 0.9810 0.1546
vn -0.5736 -0.7297 -0.3721
vn -0.6039 -0.7677 -0.2145
vn 0.6565 -0.5196 0.5469
vn 0.8303 0.0980 0.5487
vn 0.9806 0.1165 0.1574
vn -0.8346 -0.1000 0.5418
vn -0.6119 -0.7767 0.1495
vn 0.6107 0.7761 0.1571
vn 0.5164 0.6576 0.5485
vn -0.1012 0.8314 0.5463
vn -0.6608 0.5176 0.5436
vn -0.7770 0.6110 0.1514
vn -0.6182 -0.7853 -0.0324
vn 0.1161 -0.9815 0.1520
vn -0.7672 0.6051 -0.2127
vn -0.9699 -0.1151 -0.2148
vn -0.9216 -0.1091 -0.3724
vn 0.1182 -0.9925 -0.0298
vn 0.7855 -0.6183 -0.0265
vn 0.7758 -0.6116 0.1553
vn -0.9819 -0.1170 0.1492
vn -0.7289 0.5757 -0.3704
vn -0.1084 0.9238 -0.3673
vn -0.1147 0.9711 -0.2095
vn 0.7318 -0.5744 -0.3667
vn 0.9715 0.1159 -0.2067
vn 0.5765 0.7311 -0.3649
vn 0.9927 0.1181 -0.0244
vn 0.6185 0.7854 -0.0246
vn 0.6055 0.7684 -0.2070
vn -0.9925 -0.1180 -0.0326
vn 0.9245 0.1105 -0.3647
vt 0.000453 0.000439
vt 0.000455 0.000002
vt 0.000451 0.000454
vt 0.000002 0.998940
vt 0.000150 0.998322
vt 0.000154 0.998399
vt 0.000256 0.997964
vt 0.000260 0.997975
vt 0.000462 0.001074
vt 0.000091 0.998678
vt 0.000188 0.998267
vt 0.000455 0.000471
vt 0.000458 0.000459
vt 0.000448 0.001078
vt 0.000453 0.000458
vt 0.000453 0.001037
vt 0.000455 0.001075
vt 0.000459 0.000447
vt 0.000456 0.000431
vt 0.000452 0.000445
vt 0.000465 0.001055
vt 0.000224 0.997977
vt 0.000448 0.001045
vt 0.000298 0.998269
vt 0.000243 0.998255
vt 0.000241 0.998578
vt 0.000211 0.997982
vt 0.000213 0.997991
vt 0.000445 0.001054
vt 0.000461 0.001038
vt 0.000387 0.998691
vt 0.000465 0.998966
vt 0.000337 0.998326
vt 0.000028 0.999374
vt 0.000225 0.998452
vt 0.000436 0.999335
vt 0.000230 0.997990
vt 0.000249 0.997990
vt 0.000288 0.998410
vt 0.000241 0.997967
vt 0.000235 0.999998
s 1
f 1/1/1 3/3/3 2/2/2
f 4/4/4 6/6/6 5/5/5
f 7/7/7 9/9/9 8/8/8
f 10/10/10 5/5/5 11/11/11
f 12/12/12 14/14/14 13/13/13
f 15/15/15 16/16/16 1/1/1
f 9/9/9 18/18/18 17/17/17
f 17/17/17 8/8/8 9/9/9
f 19/19/19 2/2/2 18/18/18
f 20/20/20 2/2/2 19/19/19
f 1/1/1 2/2/2 15/15/15
f 12/12/12 2/2/2 3/3/3
f 18/18/18 2/2/2 13/13/13
f 15/15/15 2/2/2 20/20/20
f 13/13/13 2/2/2 12/12/12
f 21/21/21 15/15/15 20/20/20
f 22/22/22 23/23/23 16/16/16
f 24/24/24 26/26/26 25/25/25
f 3/3/3 16/16/16 23/23/23
f 5/5/5 28/28/28 27/27/27
f 25/25/25 7/7/7 24/24/24
f 23/23/23 12/12/12 3/3/3
f 28/28/28 14/14/14 29/29/29
f 30/30/30 22/22/22 16/16/16
f 31/31/31 33/33/33 32/32/32
f 34/34/34 35/35/35 6/6/6
f 17/17/17 13/13/13 14/14/14
f 9/9/9 20/20/20 19/19/19
f 33/33/33 36/36/36 32/32/32
f 26/26/26 11/11/11 25/25/25
f 37/37/37 39/39/39 38/38/38
f 33/33/33 7/7/7 8/8/8
f 6/6/6 37/37/37 28/28/28
f 11/11/11 27/27/27 22/22/22
f 25/25/25 22/22/22 40/40/40
f 39/39/39 8/8/8 38/38/38
f 36/36/36 35/35/35 41/41/41
f 40/40/40 21/21/21 7/7/7
f 29/29/29 27/27/27 28/28/28
f 14/14/14 38/38/38 17/17/17
f 34/34/34 6/6/6 4/4/4
f 21/21/21 9/9/9 7/7/7
f 4/4/4 5/5/5 10/10/10
f 29/29/29 14/14/14 12/12/12
f 30/30/30 16/16/16 15/15/15
f 19/19/19 18/18/18 9/9/9
f 38/38/38 8/8/8 17/17/17
f 30/30/30 15/15/15 21/21/21
f 27/27/27 23/23/23 22/22/22
f 31/31/31 26/26/26 24/24/24
f 1/1/1 16/16/16 3/3/3
f 6/6/6 28/28/28 5/5/5
f 40/40/40 7/7/7 25/25/25
f 29/29/29 12/12/12 23/23/23
f 37/37/37 14/14/14 28/28/28
f 40/40/40 22/22/22 30/30/30
f 24/24/24 33/33/33 31/31/31
f 41/41/41 35/35/35 34/34/34
f 18/18/18 13/13/13 17/17/17
f 21/21/21 20/20/20 9/9/9
f 39/39/39 36/36/36 33/33/33
f 10/10/10 11/11/11 26/26/26
f 35/35/35 39/39/39 37/37/37
f 24/24/24 7/7/7 33/33/33
f 35/35/35 37/37/37 6/6/6
f 5/5/5 27/27/27 11/11/11
f 11/11/11 22/22/22 25/25/25
f 33/33/33 8/8/8 39/39/39
f 39/39/39 35/35/35 36/36/36
f 30/30/30 21/21/21 40/40/40
f 23/23/23 27/27/27 29/29/29
f 37/37/37 38/38/38 14/14/14
