# Blender 5.1.2
# www.blender.org
o Grid
v -0.629765 0.000000 1.000000
v -0.503812 0.000000 1.000000
v -0.377859 0.000000 1.000000
v -0.251906 0.000000 1.000000
v -0.125953 0.000000 1.000000
v 0.000000 0.000000 1.000000
v 0.125953 0.000000 1.000000
v 0.251906 0.000000 1.000000
v 0.377859 0.000000 1.000000
v 0.503812 0.000000 1.000000
v 0.629765 0.000000 1.000000
v -0.629765 0.000000 0.800000
v -0.503812 0.000000 0.800000
v -0.377859 0.000000 0.800000
v -0.251906 0.000000 0.800000
v -0.125953 0.000000 0.800000
v 0.000000 0.000000 0.800000
v 0.125953 0.000000 0.800000
v 0.251906 0.000000 0.800000
v 0.377859 0.000000 0.800000
v 0.503812 0.000000 0.800000
v 0.629765 0.000000 0.800000
v -0.629765 0.000000 0.600000
v -0.503812 0.000000 0.600000
v -0.377859 0.000000 0.600000
v -0.251906 0.000000 0.600000
v -0.125953 0.000000 0.600000
v 0.000000 0.000000 0.600000
v 0.125953 0.000000 0.600000
v 0.251906 0.000000 0.600000
v 0.377859 0.000000 0.600000
v 0.503812 0.000000 0.600000
v 0.629765 0.000000 0.600000
v -0.629765 0.000000 0.400000
v -0.503812 0.000000 0.400000
v -0.377859 0.000000 0.400000
v -0.251906 0.000000 0.400000
v -0.125953 0.000000 0.400000
v 0.000000 0.000000 0.400000
v 0.125953 0.000000 0.400000
v 0.251906 0.000000 0.400000
v 0.377859 0.000000 0.400000
v 0.503812 0.000000 0.400000
v 0.629765 0.000000 0.400000
v -0.629765 0.000000 0.200000
v -0.503812 0.000000 0.200000
v -0.377859 0.000000 0.200000
v -0.251906 0.000000 0.200000
v -0.125953 0.000000 0.200000
v 0.000000 0.000000 0.200000
v 0.125953 0.000000 0.200000
v 0.251906 0.000000 0.200000
v 0.377859 0.000000 0.200000
v 0.503812 0.000000 0.200000
v 0.629765 0.000000 0.200000
v -0.629765 0.000000 0.000000
v -0.503812 0.000000 0.000000
v -0.377859 0.000000 0.000000
v -0.251906 0.000000 0.000000
v -0.125953 0.000000 0.000000
v 0.000000 0.000000 0.000000
v 0.125953 0.000000 0.000000
v 0.251906 0.000000 0.000000
v 0.377859 0.000000 0.000000
v 0.503812 0.000000 0.000000
v 0.629765 0.000000 0.000000
v -0.629765 0.000000 -0.200000
v -0.503812 0.000000 -0.200000
v -0.377859 0.000000 -0.200000
v -0.251906 0.000000 -0.200000
v -0.125953 0.000000 -0.200000
v 0.000000 0.000000 -0.200000
v 0.125953 0.000000 -0.200000
v 0.251906 0.000000 -0.200000
v 0.377859 0.000000 -0.200000
v 0.503812 0.000000 -0.200000
v 0.629765 0.000000 -0.200000
v -0.629765 0.000000 -0.400000
v -0.503812 0.000000 -0.400000
v -0.377859 0.000000 -0.400000
v -0.251906 0.000000 -0.400000
v -0.125953 0.000000 -0.400000
v 0.000000 0.000000 -0.400000
v 0.125953 0.000000 -0.400000
v 0.251906 0.000000 -0.400000
v 0.377859 0.000000 -0.400000
v 0.503812 0.000000 -0.400000
v 0.629765 0.000000 -0.400000
v -0.629765 0.000000 -0.600000
v -0.503812 0.000000 -0.600000
v -0.377859 0.000000 -0.600000
v -0.251906 0.000000 -0.600000
v -0.125953 0.000000 -0.600000
v 0.000000 0.000000 -0.600000
v 0.125953 0.000000 -0.600000
v 0.251906 0.000000 -0.600000
v 0.377859 0.000000 -0.600000
v 0.503812 0.000000 -0.600000
v 0.629765 0.000000 -0.600000
v -0.629765 0.000000 -0.800000
v -0.503812 0.000000 -0.800000
v -0.377859 0.000000 -0.800000
v -0.251906 0.000000 -0.800000
v -0.125953 0.000000 -0.800000
v 0.000000 0.000000 -0.800000
v 0.125953 0.000000 -0.800000
v 0.251906 0.000000 -0.800000
v 0.377859 0.000000 -0.800000
v 0.503812 0.000000 -0.800000
v 0.629765 0.000000 -0.800000
v -0.629765 0.000000 -1.000000
v -0.503812 0.000000 -1.000000
v -0.377859 0.000000 -1.000000
v -0.251906 0.000000 -1.000000
v -0.125953 0.000000 -1.000000
v 0.000000 0.000000 -1.000000
v 0.125953 0.000000 -1.000000
v 0.251906 0.000000 -1.000000
v 0.377859 0.000000 -1.000000
v 0.503812 0.000000 -1.000000
v 0.629765 0.000000 -1.000000
v -0.629765 -0.010000 1.000000
v -0.503812 -0.010000 1.000000
v -0.377859 -0.010000 1.000000
v -0.251906 -0.010000 1.000000
v -0.125953 -0.010000 1.000000
v 0.000000 -0.010000 1.000000
v 0.125953 -0.010000 1.000000
v 0.251906 -0.010000 1.000000
v 0.377859 -0.010000 1.000000
v 0.503812 -0.010000 1.000000
v 0.629765 -0.010000 1.000000
v -0.629765 -0.010000 0.800000
v -0.503812 -0.010000 0.800000
v -0.377859 -0.010000 0.800000
v -0.251906 -0.010000 0.800000
v -0.125953 -0.010000 0.800000
v 0.000000 -0.010000 0.800000
v 0.125953 -0.010000 0.800000
v 0.251906 -0.010000 0.800000
v 0.377859 -0.010000 0.800000
v 0.503812 -0.010000 0.800000
v 0.629765 -0.010000 0.800000
v -0.629765 -0.010000 0.600000
v -0.503812 -0.010000 0.600000
v -0.377859 -0.010000 0.600000
v -0.251906 -0.010000 0.600000
v -0.125953 -0.010000 0.600000
v 0.000000 -0.010000 0.600000
v 0.125953 -0.010000 0.600000
v 0.251906 -0.010000 0.600000
v 0.377859 -0.010000 0.600000
v 0.503812 -0.010000 0.600000
v 0.629765 -0.010000 0.600000
v -0.629765 -0.010000 0.400000
v -0.503812 -0.010000 0.400000
v -0.377859 -0.010000 0.400000
v -0.251906 -0.010000 0.400000
v -0.125953 -0.010000 0.400000
v 0.000000 -0.010000 0.400000
v 0.125953 -0.010000 0.400000
v 0.251906 -0.010000 0.400000
v 0.377859 -0.010000 0.400000
v 0.503812 -0.010000 0.400000
v 0.629765 -0.010000 0.400000
v -0.629765 -0.010000 0.200000
v -0.503812 -0.010000 0.200000
v -0.377859 -0.010000 0.200000
v -0.251906 -0.010000 0.200000
v -0.125953 -0.010000 0.200000
v 0.000000 -0.010000 0.200000
v 0.125953 -0.010000 0.200000
v 0.251906 -0.010000 0.200000
v 0.377859 -0.010000 0.200000
v 0.503812 -0.010000 0.200000
v 0.629765 -0.010000 0.200000
v -0.629765 -0.010000 0.000000
v -0.503812 -0.010000 0.000000
v -0.377859 -0.010000 0.000000
v -0.251906 -0.010000 0.000000
v -0.125953 -0.010000 0.000000
v 0.000000 -0.010000 0.000000
v 0.125953 -0.010000 0.000000
v 0.251906 -0.010000 0.000000
v 0.377859 -0.010000 0.000000
v 0.503812 -0.010000 0.000000
v 0.629765 -0.010000 0.000000
v -0.629765 -0.010000 -0.200000
v -0.503812 -0.010000 -0.200000
v -0.377859 -0.010000 -0.200000
v -0.251906 -0.010000 -0.200000
v -0.125953 -0.010000 -0.200000
v 0.000000 -0.010000 -0.200000
v 0.125953 -0.010000 -0.200000
v 0.251906 -0.010000 -0.200000
v 0.377859 -0.010000 -0.200000
v 0.503812 -0.010000 -0.200000
v 0.629765 -0.010000 -0.200000
v -0.629765 -0.010000 -0.400000
v -0.503812 -0.010000 -0.400000
v -0.377859 -0.010000 -0.400000
v -0.251906 -0.010000 -0.400000
v -0.125953 -0.010000 -0.400000
v 0.000000 -0.010000 -0.400000
v 0.125953 -0.010000 -0.400000
v 0.251906 -0.010000 -0.400000
v 0.377859 -0.010000 -0.400000
v 0.503812 -0.010000 -0.400000
v 0.629765 -0.010000 -0.400000
v -0.629765 -0.010000 -0.600000
v -0.503812 -0.010000 -0.600000
v -0.377859 -0.010000 -0.600000
v -0.251906 -0.010000 -0.600000
v -0.125953 -0.010000 -0.600000
v 0.000000 -0.010000 -0.600000
v 0.125953 -0.010000 -0.600000
v 0.251906 -0.010000 -0.600000
v 0.377859 -0.010000 -0.600000
v 0.503812 -0.010000 -0.600000
v 0.629765 -0.010000 -0.600000
v -0.629765 -0.010000 -0.800000
v -0.503812 -0.010000 -0.800000
v -0.377859 -0.010000 -0.800000
v -0.251906 -0.010000 -0.800000
v -0.125953 -0.010000 -0.800000
v 0.000000 -0.010000 -0.800000
v 0.125953 -0.010000 -0.800000
v 0.251906 -0.010000 -0.800000
v 0.377859 -0.010000 -0.800000
v 0.503812 -0.010000 -0.800000
v 0.629765 -0.010000 -0.800000
v -0.629765 -0.010000 -1.000000
v -0.503812 -0.010000 -1.000000
v -0.377859 -0.010000 -1.000000
v -0.251906 -0.010000 -1.000000
v -0.125953 -0.010000 -1.000000
v 0.000000 -0.010000 -1.000000
v 0.125953 -0.010000 -1.000000
v 0.251906 -0.010000 -1.000000
v 0.377859 -0.010000 -1.000000
v 0.503812 -0.010000 -1.000000
v 0.629765 -0.010000 -1.000000
vn -0.0000 1.0000 -0.0000
vn -0.0000 -1.0000 -0.0000
vn -1.0000 -0.0000 -0.0000
vn -0.0000 -0.0000 1.0000
vn 1.0000 -0.0000 -0.0000
vn -0.0000 -0.0000 -1.0000
vt 0.999905 0.907291
vt 0.899924 0.907291
vt 0.899924 0.816571
vt 0.999905 0.816571
vt 0.799943 0.907291
vt 0.799943 0.816571
vt 0.699962 0.907291
vt 0.699962 0.816571
vt 0.599981 0.907291
vt 0.599981 0.816571
vt 0.500000 0.907291
vt 0.500000 0.816571
vt 0.400019 0.907291
vt 0.400019 0.816571
vt 0.300038 0.907291
vt 0.300038 0.816571
vt 0.200057 0.907291
vt 0.200057 0.816571
vt 0.100076 0.907291
vt 0.100076 0.816571
vt 0.000095 0.907291
vt 0.000095 0.816571
vt 0.899924 0.725852
vt 0.999905 0.725852
vt 0.799943 0.725852
vt 0.699962 0.725852
vt 0.599981 0.725852
vt 0.500000 0.725852
vt 0.400019 0.725852
vt 0.300038 0.725852
vt 0.200057 0.725852
vt 0.100076 0.725852
vt 0.000095 0.725852
vt 0.899924 0.635132
vt 0.999905 0.635132
vt 0.799943 0.635132
vt 0.699962 0.635132
vt 0.599981 0.635132
vt 0.500000 0.635132
vt 0.400019 0.635132
vt 0.300038 0.635132
vt 0.200057 0.635132
vt 0.100076 0.635132
vt 0.000095 0.635132
vt 0.899924 0.544412
vt 0.999905 0.544412
vt 0.799943 0.544412
vt 0.699962 0.544412
vt 0.599981 0.544412
vt 0.500000 0.544412
vt 0.400019 0.544412
vt 0.300038 0.544412
vt 0.200057 0.544412
vt 0.100076 0.544412
vt 0.000095 0.544412
vt 0.899924 0.453693
vt 0.999905 0.453693
vt 0.799943 0.453693
vt 0.699962 0.453693
vt 0.599981 0.453693
vt 0.500000 0.453693
vt 0.400019 0.453693
vt 0.300038 0.453693
vt 0.200057 0.453693
vt 0.100076 0.453693
vt 0.000095 0.453693
vt 0.899924 0.362973
vt 0.999905 0.362973
vt 0.799943 0.362973
vt 0.699962 0.362973
vt 0.599981 0.362973
vt 0.500000 0.362973
vt 0.400019 0.362973
vt 0.300038 0.362973
vt 0.200057 0.362973
vt 0.100076 0.362973
vt 0.000095 0.362973
vt 0.899924 0.272254
vt 0.999905 0.272254
vt 0.799943 0.272254
vt 0.699962 0.272254
vt 0.599981 0.272254
vt 0.500000 0.272254
vt 0.400019 0.272254
vt 0.300038 0.272254
vt 0.200057 0.272254
vt 0.100076 0.272254
vt 0.000095 0.272254
vt 0.899924 0.181534
vt 0.999905 0.181534
vt 0.799943 0.181534
vt 0.699962 0.181534
vt 0.599981 0.181534
vt 0.500000 0.181534
vt 0.400019 0.181534
vt 0.300038 0.181534
vt 0.200057 0.181534
vt 0.100076 0.181534
vt 0.000095 0.181534
vt 0.899924 0.090815
vt 0.999905 0.090815
vt 0.799943 0.090815
vt 0.699962 0.090815
vt 0.599981 0.090815
vt 0.500000 0.090815
vt 0.400019 0.090815
vt 0.300038 0.090815
vt 0.200057 0.090815
vt 0.100076 0.090815
vt 0.000095 0.090815
vt 0.899924 0.000095
vt 0.999905 0.000095
vt 0.799943 0.000095
vt 0.699962 0.000095
vt 0.599981 0.000095
vt 0.500000 0.000095
vt 0.400019 0.000095
vt 0.300038 0.000095
vt 0.200057 0.000095
vt 0.100076 0.000095
vt 0.000095 0.000095
s 0
f 1/1/1 2/2/1 13/3/1 12/4/1
f 2/2/1 3/5/1 14/6/1 13/3/1
f 3/5/1 4/7/1 15/8/1 14/6/1
f 4/7/1 5/9/1 16/10/1 15/8/1
f 5/9/1 6/11/1 17/12/1 16/10/1
f 6/11/1 7/13/1 18/14/1 17/12/1
f 7/13/1 8/15/1 19/16/1 18/14/1
f 8/15/1 9/17/1 20/18/1 19/16/1
f 9/17/1 10/19/1 21/20/1 20/18/1
f 10/19/1 11/21/1 22/22/1 21/20/1
f 12/4/1 13/3/1 24/23/1 23/24/1
f 13/3/1 14/6/1 25/25/1 24/23/1
f 14/6/1 15/8/1 26/26/1 25/25/1
f 15/8/1 16/10/1 27/27/1 26/26/1
f 16/10/1 17/12/1 28/28/1 27/27/1
f 17/12/1 18/14/1 29/29/1 28/28/1
f 18/14/1 19/16/1 30/30/1 29/29/1
f 19/16/1 20/18/1 31/31/1 30/30/1
f 20/18/1 21/20/1 32/32/1 31/31/1
f 21/20/1 22/22/1 33/33/1 32/32/1
f 23/24/1 24/23/1 35/34/1 34/35/1
f 24/23/1 25/25/1 36/36/1 35/34/1
f 25/25/1 26/26/1 37/37/1 36/36/1
f 26/26/1 27/27/1 38/38/1 37/37/1
f 27/27/1 28/28/1 39/39/1 38/38/1
f 28/28/1 29/29/1 40/40/1 39/39/1
f 29/29/1 30/30/1 41/41/1 40/40/1
f 30/30/1 31/31/1 42/42/1 41/41/1
f 31/31/1 32/32/1 43/43/1 42/42/1
f 32/32/1 33/33/1 44/44/1 43/43/1
f 34/35/1 35/34/1 46/45/1 45/46/1
f 35/34/1 36/36/1 47/47/1 46/45/1
f 36/36/1 37/37/1 48/48/1 47/47/1
f 37/37/1 38/38/1 49/49/1 48/48/1
f 38/38/1 39/39/1 50/50/1 49/49/1
f 39/39/1 40/40/1 51/51/1 50/50/1
f 40/40/1 41/41/1 52/52/1 51/51/1
f 41/41/1 42/42/1 53/53/1 52/52/1
f 42/42/1 43/43/1 54/54/1 53/53/1
f 43/43/1 44/44/1 55/55/1 54/54/1
f 45/46/1 46/45/1 57/56/1 56/57/1
f 46/45/1 47/47/1 58/58/1 57/56/1
f 47/47/1 48/48/1 59/59/1 58/58/1
f 48/48/1 49/49/1 60/60/1 59/59/1
f 49/49/1 50/50/1 61/61/1 60/60/1
f 50/50/1 51/51/1 62/62/1 61/61/1
f 51/51/1 52/52/1 63/63/1 62/62/1
f 52/52/1 53/53/1 64/64/1 63/63/1
f 53/53/1 54/54/1 65/65/1 64/64/1
f 54/54/1 55/55/1 66/66/1 65/65/1
f 56/57/1 57/56/1 68/67/1 67/68/1
f 57/56/1 58/58/1 69/69/1 68/67/1
f 58/58/1 59/59/1 70/70/1 69/69/1
f 59/59/1 60/60/1 71/71/1 70/70/1
f 60/60/1 61/61/1 72/72/1 71/71/1
f 61/61/1 62/62/1 73/73/1 72/72/1
f 62/62/1 63/63/1 74/74/1 73/73/1
f 63/63/1 64/64/1 75/75/1 74/74/1
f 64/64/1 65/65/1 76/76/1 75/75/1
f 65/65/1 66/66/1 77/77/1 76/76/1
f 67/68/1 68/67/1 79/78/1 78/79/1
f 68/67/1 69/69/1 80/80/1 79/78/1
f 69/69/1 70/70/1 81/81/1 80/80/1
f 70/70/1 71/71/1 82/82/1 81/81/1
f 71/71/1 72/72/1 83/83/1 82/82/1
f 72/72/1 73/73/1 84/84/1 83/83/1
f 73/73/1 74/74/1 85/85/1 84/84/1
f 74/74/1 75/75/1 86/86/1 85/85/1
f 75/75/1 76/76/1 87/87/1 86/86/1
f 76/76/1 77/77/1 88/88/1 87/87/1
f 78/79/1 79/78/1 90/89/1 89/90/1
f 79/78/1 80/80/1 91/91/1 90/89/1
f 80/80/1 81/81/1 92/92/1 91/91/1
f 81/81/1 82/82/1 93/93/1 92/92/1
f 82/82/1 83/83/1 94/94/1 93/93/1
f 83/83/1 84/84/1 95/95/1 94/94/1
f 84/84/1 85/85/1 96/96/1 95/95/1
f 85/85/1 86/86/1 97/97/1 96/96/1
f 86/86/1 87/87/1 98/98/1 97/97/1
f 87/87/1 88/88/1 99/99/1 98/98/1
f 89/90/1 90/89/1 101/100/1 100/101/1
f 90/89/1 91/91/1 102/102/1 101/100/1
f 91/91/1 92/92/1 103/103/1 102/102/1
f 92/92/1 93/93/1 104/104/1 103/103/1
f 93/93/1 94/94/1 105/105/1 104/104/1
f 94/94/1 95/95/1 106/106/1 105/105/1
f 95/95/1 96/96/1 107/107/1 106/106/1
f 96/96/1 97/97/1 108/108/1 107/107/1
f 97/97/1 98/98/1 109/109/1 108/108/1
f 98/98/1 99/99/1 110/110/1 109/109/1
f 100/101/1 101/100/1 112/111/1 111/112/1
f 101/100/1 102/102/1 113/113/1 112/111/1
f 102/102/1 103/103/1 114/114/1 113/113/1
f 103/103/1 104/104/1 115/115/1 114/114/1
f 104/104/1 105/105/1 116/116/1 115/115/1
f 105/105/1 106/106/1 117/117/1 116/116/1
f 106/106/1 107/107/1 118/118/1 117/117/1
f 107/107/1 108/108/1 119/119/1 118/118/1
f 108/108/1 109/109/1 120/120/1 119/119/1
f 109/109/1 110/110/1 121/121/1 120/120/1
f 122/1/2 133/4/2 134/3/2 123/2/2
f 123/2/2 134/3/2 135/6/2 124/5/2
f 124/5/2 135/6/2 136/8/2 125/7/2
f 125/7/2 136/8/2 137/10/2 126/9/2
f 126/9/2 137/10/2 138/12/2 127/11/2
f 127/11/2 138/12/2 139/14/2 128/13/2
f 128/13/2 139/14/2 140/16/2 129/15/2
f 129/15/2 140/16/2 141/18/2 130/17/2
f 130/17/2 141/18/2 142/20/2 131/19/2
f 131/19/2 142/20/2 143/22/2 132/21/2
f 133/4/2 144/24/2 145/23/2 134/3/2
f 134/3/2 145/23/2 146/25/2 135/6/2
f 135/6/2 146/25/2 147/26/2 136/8/2
f 136/8/2 147/26/2 148/27/2 137/10/2
f 137/10/2 148/27/2 149/28/2 138/12/2
f 138/12/2 149/28/2 150/29/2 139/14/2
f 139/14/2 150/29/2 151/30/2 140/16/2
f 140/16/2 151/30/2 152/31/2 141/18/2
f 141/18/2 152/31/2 153/32/2 142/20/2
f 142/20/2 153/32/2 154/33/2 143/22/2
f 144/24/2 155/35/2 156/34/2 145/23/2
f 145/23/2 156/34/2 157/36/2 146/25/2
f 146/25/2 157/36/2 158/37/2 147/26/2
f 147/26/2 158/37/2 159/38/2 148/27/2
f 148/27/2 159/38/2 160/39/2 149/28/2
f 149/28/2 160/39/2 161/40/2 150/29/2
f 150/29/2 161/40/2 162/41/2 151/30/2
f 151/30/2 162/41/2 163/42/2 152/31/2
f 152/31/2 163/42/2 164/43/2 153/32/2
f 153/32/2 164/43/2 165/44/2 154/33/2
f 155/35/2 166/46/2 167/45/2 156/34/2
f 156/34/2 167/45/2 168/47/2 157/36/2
f 157/36/2 168/47/2 169/48/2 158/37/2
f 158/37/2 169/48/2 170/49/2 159/38/2
f 159/38/2 170/49/2 171/50/2 160/39/2
f 160/39/2 171/50/2 172/51/2 161/40/2
f 161/40/2 172/51/2 173/52/2 162/41/2
f 162/41/2 173/52/2 174/53/2 163/42/2
f 163/42/2 174/53/2 175/54/2 164/43/2
f 164/43/2 175/54/2 176/55/2 165/44/2
f 166/46/2 177/57/2 178/56/2 167/45/2
f 167/45/2 178/56/2 179/58/2 168/47/2
f 168/47/2 179/58/2 180/59/2 169/48/2
f 169/48/2 180/59/2 181/60/2 170/49/2
f 170/49/2 181/60/2 182/61/2 171/50/2
f 171/50/2 182/61/2 183/62/2 172/51/2
f 172/51/2 183/62/2 184/63/2 173/52/2
f 173/52/2 184/63/2 185/64/2 174/53/2
f 174/53/2 185/64/2 186/65/2 175/54/2
f 175/54/2 186/65/2 187/66/2 176/55/2
f 177/57/2 188/68/2 189/67/2 178/56/2
f 178/56/2 189/67/2 190/69/2 179/58/2
f 179/58/2 190/69/2 191/70/2 180/59/2
f 180/59/2 191/70/2 192/71/2 181/60/2
f 181/60/2 192/71/2 193/72/2 182/61/2
f 182/61/2 193/72/2 194/73/2 183/62/2
f 183/62/2 194/73/2 195/74/2 184/63/2
f 184/63/2 195/74/2 196/75/2 185/64/2
f 185/64/2 196/75/2 197/76/2 186/65/2
f 186/65/2 197/76/2 198/77/2 187/66/2
f 188/68/2 199/79/2 200/78/2 189/67/2
f 189/67/2 200/78/2 201/80/2 190/69/2
f 190/69/2 201/80/2 202/81/2 191/70/2
f 191/70/2 202/81/2 203/82/2 192/71/2
f 192/71/2 203/82/2 204/83/2 193/72/2
f 193/72/2 204/83/2 205/84/2 194/73/2
f 194/73/2 205/84/2 206/85/2 195/74/2
f 195/74/2 206/85/2 207/86/2 196/75/2
f 196/75/2 207/86/2 208/87/2 197/76/2
f 197/76/2 208/87/2 209/88/2 198/77/2
f 199/79/2 210/90/2 211/89/2 200/78/2
f 200/78/2 211/89/2 212/91/2 201/80/2
f 201/80/2 212/91/2 213/92/2 202/81/2
f 202/81/2 213/92/2 214/93/2 203/82/2
f 203/82/2 214/93/2 215/94/2 204/83/2
f 204/83/2 215/94/2 216/95/2 205/84/2
f 205/84/2 216/95/2 217/96/2 206/85/2
f 206/85/2 217/96/2 218/97/2 207/86/2
f 207/86/2 218/97/2 219/98/2 208/87/2
f 208/87/2 219/98/2 220/99/2 209/88/2
f 210/90/2 221/101/2 222/100/2 211/89/2
f 211/89/2 222/100/2 223/102/2 212/91/2
f 212/91/2 223/102/2 224/103/2 213/92/2
f 213/92/2 224/103/2 225/104/2 214/93/2
f 214/93/2 225/104/2 226/105/2 215/94/2
f 215/94/2 226/105/2 227/106/2 216/95/2
f 216/95/2 227/106/2 228/107/2 217/96/2
f 217/96/2 228/107/2 229/108/2 218/97/2
f 218/97/2 229/108/2 230/109/2 219/98/2
f 219/98/2 230/109/2 231/110/2 220/99/2
f 221/101/2 232/112/2 233/111/2 222/100/2
f 222/100/2 233/111/2 234/113/2 223/102/2
f 223/102/2 234/113/2 235/114/2 224/103/2
f 224/103/2 235/114/2 236/115/2 225/104/2
f 225/104/2 236/115/2 237/116/2 226/105/2
f 226/105/2 237/116/2 238/117/2 227/106/2
f 227/106/2 238/117/2 239/118/2 228/107/2
f 228/107/2 239/118/2 240/119/2 229/108/2
f 229/108/2 240/119/2 241/120/2 230/109/2
f 230/109/2 241/120/2 242/121/2 231/110/2
f 1/1/3 12/4/3 133/4/3 122/1/3
f 2/2/4 1/1/4 122/1/4 123/2/4
f 3/5/4 2/2/4 123/2/4 124/5/4
f 4/7/4 3/5/4 124/5/4 125/7/4
f 5/9/4 4/7/4 125/7/4 126/9/4
f 6/11/4 5/9/4 126/9/4 127/11/4
f 7/13/4 6/11/4 127/11/4 128/13/4
f 8/15/4 7/13/4 128/13/4 129/15/4
f 9/17/4 8/15/4 129/15/4 130/17/4
f 10/19/4 9/17/4 130/17/4 131/19/4
f 11/21/4 10/19/4 131/19/4 132/21/4
f 22/22/5 11/21/5 132/21/5 143/22/5
f 12/4/3 23/24/3 144/24/3 133/4/3
f 33/33/5 22/22/5 143/22/5 154/33/5
f 23/24/3 34/35/3 155/35/3 144/24/3
f 44/44/5 33/33/5 154/33/5 165/44/5
f 34/35/3 45/46/3 166/46/3 155/35/3
f 55/55/5 44/44/5 165/44/5 176/55/5
f 45/46/3 56/57/3 177/57/3 166/46/3
f 66/66/5 55/55/5 176/55/5 187/66/5
f 56/57/3 67/68/3 188/68/3 177/57/3
f 77/77/5 66/66/5 187/66/5 198/77/5
f 67/68/3 78/79/3 199/79/3 188/68/3
f 88/88/5 77/77/5 198/77/5 209/88/5
f 78/79/3 89/90/3 210/90/3 199/79/3
f 99/99/5 88/88/5 209/88/5 220/99/5
f 89/90/3 100/101/3 221/101/3 210/90/3
f 110/110/5 99/99/5 220/99/5 231/110/5
f 100/101/3 111/112/3 232/112/3 221/101/3
f 111/112/6 112/111/6 233/111/6 232/112/6
f 112/111/6 113/113/6 234/113/6 233/111/6
f 113/113/6 114/114/6 235/114/6 234/113/6
f 114/114/6 115/115/6 236/115/6 235/114/6
f 115/115/6 116/116/6 237/116/6 236/115/6
f 116/116/6 117/117/6 238/117/6 237/116/6
f 117/117/6 118/118/6 239/118/6 238/117/6
f 118/118/6 119/119/6 240/119/6 239/118/6
f 119/119/6 120/120/6 241/120/6 240/119/6
f 121/121/5 110/110/5 231/110/5 242/121/5
f 120/120/6 121/121/6 242/121/6 241/120/6
