# Blender 5.1.2
# www.blender.org
o Node0
v 5.323355 0.184877 6.083834
v 6.083834 0.095845 6.083834
v 6.083834 0.280245 5.323355
v 5.323355 0.450380 5.323355
v 6.083834 0.480661 4.562876
v 5.323355 0.785147 4.562876
v 4.562876 0.527348 5.323355
v 4.562876 0.800916 4.562876
v 4.562876 0.190771 6.083834
v 6.083834 0.705055 3.802397
v 5.323355 0.912239 3.802397
v 6.083834 0.698402 3.041917
v 5.323355 1.075292 3.041917
v 4.562876 1.015405 3.802397
v 4.562876 1.030339 3.041917
v 3.802396 0.716006 4.562876
v 3.802396 0.912341 3.802397
v 3.802396 0.882876 3.041917
v 3.041917 0.833185 3.802397
v 3.043162 0.818006 3.042868
v 3.041917 0.686125 4.562876
v 3.802396 0.189377 6.083834
v 3.802396 0.460582 5.323355
v 3.041917 0.461279 5.323355
v 3.041917 0.257101 6.083834
v 6.083834 0.618182 2.281438
v 5.323355 1.098009 2.281438
v 6.083834 0.672390 1.520959
v 5.323355 1.030460 1.520959
v 4.562876 1.207547 2.281438
v 4.562876 1.150014 1.520959
v 6.083834 0.486471 0.760479
v 5.323355 0.954590 0.760479
v 6.083834 0.349577 0.000000
v 5.323355 0.774421 0.000000
v 4.562876 1.078868 0.760479
v 4.562876 0.975864 0.000000
v 3.802396 0.913139 1.520959
v 3.802396 0.914016 0.760479
v 3.802396 0.883608 0.000000
v 3.041917 0.681068 0.760479
v 3.041917 0.792651 0.000000
v 3.041917 0.677800 1.520959
v 3.802396 0.980790 2.281438
v 3.052770 0.756447 2.283173
v 2.304437 0.577923 3.066442
v 2.318795 0.474254 2.289959
v 2.292947 0.593090 1.514526
v 1.520471 0.454215 2.279447
v 1.517806 0.690559 1.510402
v 1.528954 0.544505 3.059381
v 2.281439 0.773923 0.760476
v 2.281437 0.679894 0.000007
v 1.520959 0.691928 0.760479
v 1.520959 0.675860 0.000000
v 0.760477 0.715822 1.520956
v 0.760479 0.710843 0.760479
v 0.760479 0.656547 0.000000
v 0.000000 0.655902 0.760479
v 0.000532 0.587986 0.000284
v 0.000000 0.717561 1.520959
v 0.747377 0.423593 3.044172
v 0.753853 0.552535 2.278643
v -0.004239 0.697404 2.275078
v -0.017237 0.540819 3.035037
v 2.281438 0.304987 6.083834
v 2.281438 0.544295 5.323355
v 2.281438 0.798726 4.562876
v 1.520959 0.710397 5.323355
v 1.520959 0.893037 4.562876
v 1.520959 0.491663 6.083834
v 2.283145 0.771105 3.811906
v 1.523337 0.759388 3.819129
v 0.760479 0.913117 4.562876
v 0.758291 0.692489 3.824220
v -0.000607 0.639670 3.802871
v 0.000000 0.887552 4.562876
v 0.760479 0.476895 6.083834
v 0.760479 0.988992 5.323355
v 0.000000 1.010624 5.323355
v 0.000000 0.733667 6.083834
v 6.083834 0.268818 -0.760479
v 5.323355 0.703549 -0.760479
v 6.083834 0.290402 -1.520959
v 5.323355 0.544740 -1.520959
v 4.562876 0.759211 -0.760479
v 4.562876 0.659409 -1.520959
v 6.083834 0.376577 -2.281438
v 5.323355 0.608226 -2.281438
v 6.083834 0.432983 -3.041917
v 5.323355 0.575381 -3.041917
v 4.562876 0.651402 -2.281438
v 4.562876 0.439120 -3.041917
v 3.802396 0.701953 -1.520959
v 3.802521 0.577025 -2.281338
v 3.802422 0.354979 -3.041892
v 3.044685 0.474059 -2.278118
v 3.042366 0.320235 -3.042156
v 3.041917 0.571583 -1.520959
v 3.802396 0.689615 -0.760479
v 3.041917 0.714325 -0.760479
v 6.083834 0.373841 -3.802398
v 5.323352 0.302327 -3.802402
v 6.083834 0.177346 -4.562876
v 5.324107 0.243359 -4.557268
v 4.564103 0.321344 -3.798955
v 4.565729 0.235472 -4.564724
v 6.084116 0.155223 -5.327531
v 5.324792 0.160776 -5.330274
v 6.083583 0.135343 -6.088727
v 5.324713 0.124645 -6.091266
v 4.566876 0.188113 -5.327926
v 4.564628 0.132531 -6.088013
v 3.803871 0.282376 -4.563416
v 3.807505 0.288460 -5.324278
v 3.804657 0.220493 -6.083825
v 3.037359 0.455972 -5.324862
v 3.042947 0.297077 -6.084095
v 3.030853 0.324740 -4.575173
v 3.802519 0.290074 -3.801623
v 3.038388 0.273717 -3.805211
v 2.282146 0.299593 -3.041140
v 2.277432 0.197902 -3.811314
v 2.274728 0.279618 -4.567000
v 1.515664 0.183818 -3.814930
v 1.515144 0.481354 -4.573391
v 1.519723 0.225387 -3.044526
v 2.274063 0.552020 -5.322355
v 2.281350 0.330690 -6.083987
v 1.518711 0.599742 -5.323671
v 1.520959 0.469521 -6.083834
v 0.757491 0.491287 -4.572694
v 0.760464 0.586940 -5.323386
v 0.760479 0.398013 -6.083834
v 0.000000 0.459011 -5.323355
v 0.000000 0.482662 -6.083834
v 0.000813 0.467114 -4.570406
v 0.760735 0.184520 -3.043236
v 0.757483 0.290424 -3.808349
v -0.001538 0.368007 -3.809747
v 0.000852 0.192150 -3.042363
v 2.281517 0.647965 -0.760051
v 2.290364 0.567020 -1.510559
v 1.520989 0.679163 -0.760423
v 1.526577 0.482991 -1.511743
v 2.283365 0.412926 -2.278804
v 1.520959 0.349673 -2.281438
v 0.760807 0.344621 -1.520266
v 0.762621 0.273006 -2.280682
v 0.011798 0.119333 -2.273478
v 0.018166 0.236814 -1.507151
v 0.760739 0.547074 -0.760178
v 0.000821 0.429628 -0.759969
v -0.760313 0.482012 0.000204
v -0.750222 0.282564 -0.748803
v -0.732491 0.044912 -1.494912
v -1.505375 0.144863 -0.734738
v -1.508810 0.005567 -1.504188
v -1.513449 0.392900 0.013072
v -0.742462 0.016721 -2.267747
v -0.761064 0.256329 -3.042928
v -1.521143 0.156359 -2.282978
v -1.522300 0.355533 -3.044224
v -2.280917 0.029677 -1.518922
v -2.282382 0.263865 -2.283167
v -2.281444 0.368328 -3.041934
v -3.041917 0.311569 -2.281438
v -3.041917 0.345893 -3.041917
v -3.045138 0.168924 -1.525470
v -2.262034 0.270065 0.027290
v -2.276026 0.114223 -0.746467
v -3.038787 0.100348 -0.755230
v -3.020473 0.114826 0.031557
v -0.760803 0.384314 -3.803034
v -0.760514 0.424539 -4.562935
v -1.520987 0.431841 -3.802452
v -1.520958 0.446272 -4.562876
v -0.760479 0.413408 -5.323355
v -0.760479 0.426060 -6.083834
v -1.520958 0.460242 -5.323355
v -1.520958 0.405664 -6.083834
v -2.281438 0.368248 -4.562876
v -2.281438 0.418406 -5.323355
v -2.281438 0.393399 -6.083834
v -3.041917 0.498673 -5.323355
v -3.041917 0.422539 -6.083834
v -3.041917 0.492966 -4.562876
v -2.281439 0.342804 -3.802399
v -3.041917 0.350859 -3.802396
v -3.802396 0.326892 -3.041917
v -3.802396 0.372487 -3.802396
v -3.802396 0.576250 -4.562876
v -4.562876 0.336636 -3.802396
v -4.562876 0.607917 -4.562876
v -4.562876 0.320497 -3.041917
v -3.802396 0.648997 -5.323355
v -3.802396 0.505197 -6.083834
v -4.562876 0.731415 -5.323355
v -4.562876 0.619134 -6.083834
v -5.323355 0.569550 -4.562876
v -5.323355 0.817477 -5.323355
v -5.323355 0.697490 -6.083834
v -6.083834 0.675343 -5.323355
v -6.083834 0.590185 -6.083834
v -6.083834 0.449874 -4.562876
v -5.323355 0.279752 -3.041917
v -5.323355 0.315639 -3.802396
v -6.083834 0.171020 -3.802396
v -6.083834 0.189386 -3.041917
v -3.793488 0.059012 0.017852
v -3.800780 0.109533 -0.759970
v -3.803671 0.306369 -1.522755
v -4.565717 0.235364 -0.764909
v -4.563028 0.355889 -1.521145
v -4.568610 0.080664 0.004159
v -3.802396 0.296927 -2.281438
v -4.562876 0.222448 -2.281438
v -5.323425 0.291033 -1.521064
v -5.323355 0.316163 -2.281438
v -6.083834 0.257622 -2.281438
v -6.083834 0.209206 -1.520959
v -5.327821 0.148077 -0.008874
v -5.324710 0.281109 -0.762717
v -6.084811 0.165519 -0.761895
v -6.086812 0.084664 -0.004174
v -0.760479 0.780772 6.083834
v -0.760479 1.000433 5.323355
v -0.760479 0.992405 4.562876
v -1.520958 0.982408 5.323355
v -1.520955 0.927402 4.562930
v -1.520958 0.769439 6.083834
v -0.771031 0.675836 3.819230
v -0.771286 0.582606 3.043612
v -1.520486 0.716248 3.817007
v -1.522012 0.666924 3.043650
v -2.277845 0.863255 4.567759
v -2.274472 0.657228 3.811444
v -2.281436 0.643573 3.041936
v -3.038626 0.630337 3.811013
v -3.041917 0.622980 3.041917
v -3.041412 0.714968 4.563913
v -2.281438 0.748138 6.083834
v -2.281438 0.938788 5.323355
v -3.039798 0.864834 5.324332
v -3.041917 0.484783 6.083834
v -0.762031 0.766974 2.279118
v -0.760479 0.717859 1.520959
v -1.520958 0.764044 2.281438
v -1.520958 0.660546 1.520959
v -0.760479 0.733683 0.760479
v -1.519220 0.659831 0.763926
v -2.281438 0.606996 1.520959
v -2.271025 0.477775 0.772144
v -3.010420 0.318118 0.803939
v -3.040730 0.599018 1.522610
v -2.281438 0.509938 2.281438
v -3.041917 0.697505 2.281438
v -3.802407 0.607218 3.041896
v -3.794181 0.697133 2.295258
v -3.784093 0.424219 1.553839
v -4.557559 0.488047 2.297257
v -4.553664 0.293906 1.544582
v -4.559993 0.636617 3.037215
v -3.796657 0.158714 0.770093
v -4.559662 0.155037 0.772672
v -5.323024 0.261883 1.528100
v -5.328727 0.192133 0.759186
v -6.088256 0.154820 0.754574
v -6.085295 0.255782 1.524584
v -5.303036 0.480230 3.084749
v -5.315594 0.362193 2.300410
v -6.082951 0.309800 2.283560
v -6.066797 0.415707 3.067715
v -3.802396 0.620759 6.083834
v -3.801316 0.775083 5.323383
v -3.802396 0.696513 4.562876
v -4.561245 0.700960 5.321855
v -4.562876 0.682436 4.562876
v -4.562901 0.446144 6.083860
v -3.802396 0.709983 3.802397
v -4.563128 0.564686 3.799035
v -5.323381 0.494859 4.562894
v -5.318277 0.589517 3.805617
v -6.080624 0.539929 3.804353
v -6.083834 0.483633 4.562876
v -5.323054 0.316158 6.083501
v -5.323360 0.473835 5.323360
v -6.083834 0.302456 5.323355
v -6.083834 0.156554 6.083834
vn 0.0588 0.9425 0.3290
vn 0.1130 0.9656 0.2341
vn 0.2120 0.9474 0.2397
vn 0.1494 0.9197 0.3630
vn 0.3598 0.8986 0.2510
vn 0.1975 0.9380 0.2848
vn 0.0062 0.9281 0.3723
vn -0.0432 0.9513 0.3052
vn 0.0027 0.9144 0.4047
vn 0.2604 0.9558 0.1368
vn 0.1965 0.9631 0.1837
vn 0.4435 0.8948 -0.0511
vn 0.2117 0.9701 0.1185
vn 0.0001 0.9888 0.1492
vn -0.1245 0.9844 0.1243
vn -0.0721 0.9561 0.2840
vn -0.1183 0.9871 0.1083
vn -0.1382 0.9894 0.0445
vn -0.0917 0.9921 0.0860
vn -0.2000 0.9785 -0.0509
vn 0.0528 0.9700 0.2372
vn 0.0410 0.9411 0.3356
vn -0.0410 0.9442 0.3269
vn 0.0529 0.9611 0.2711
vn 0.0732 0.9632 0.2586
vn 0.5335 0.8456 -0.0144
vn 0.3612 0.9321 -0.0275
vn 0.4247 0.9020 -0.0781
vn 0.2984 0.9502 -0.0896
vn -0.0766 0.9940 0.0782
vn -0.0766 0.9935 -0.0841
vn 0.5158 0.8380 -0.1778
vn 0.3585 0.9206 -0.1550
vn 0.4839 0.8663 -0.1240
vn 0.3764 0.9141 -0.1509
vn -0.0264 0.9932 -0.1138
vn 0.0701 0.9762 -0.2051
vn -0.2962 0.9542 -0.0419
vn -0.2530 0.9673 -0.0188
vn -0.1183 0.9823 -0.1449
vn -0.0915 0.9930 0.0750
vn -0.1327 0.9909 0.0217
vn -0.2070 0.9772 -0.0469
vn -0.2862 0.9580 0.0191
vn -0.3223 0.9427 -0.0866
vn -0.1765 0.9653 -0.1924
vn -0.1935 0.9810 0.0110
vn 0.0069 0.9814 0.1921
vn 0.0491 0.9944 0.0934
vn 0.0795 0.9848 0.1542
vn -0.0940 0.9766 -0.1934
vn 0.0071 0.9983 0.0572
vn -0.0763 0.9937 -0.0823
vn -0.0414 0.9991 -0.0098
vn -0.0153 0.9998 -0.0084
vn 0.0184 0.9944 0.1038
vn -0.0236 0.9990 -0.0390
vn -0.0574 0.9926 -0.1069
vn 0.0150 0.9963 -0.0849
vn -0.1128 0.9828 -0.1463
vn 0.0014 0.9996 -0.0274
vn -0.0010 0.9959 -0.0902
vn 0.1542 0.9701 0.1874
vn 0.1391 0.9834 0.1164
vn 0.1041 0.9939 0.0373
vn 0.1455 0.9437 0.2970
vn 0.1539 0.9398 0.3051
vn 0.1333 0.9801 0.1472
vn 0.2720 0.9304 0.2455
vn 0.0750 0.9967 0.0326
vn 0.1080 0.9554 0.2748
vn -0.0496 0.9880 -0.1465
vn -0.0520 0.9728 -0.2258
vn -0.0035 0.9810 -0.1940
vn -0.0713 0.9495 -0.3054
vn -0.0099 0.9752 -0.2212
vn 0.0506 0.9703 -0.2367
vn 0.1309 0.8223 0.5537
vn 0.1864 0.9444 0.2709
vn 0.0075 0.9949 0.1006
vn 0.1845 0.9235 0.3363
vn 0.4960 0.8677 -0.0338
vn 0.3037 0.9421 -0.1423
vn 0.3165 0.9462 0.0670
vn 0.2353 0.9700 -0.0608
vn -0.0089 0.9790 -0.2037
vn 0.1025 0.9922 -0.0703
vn 0.2902 0.9528 0.0893
vn 0.1778 0.9839 0.0198
vn 0.1840 0.9829 -0.0018
vn 0.0040 0.9804 -0.1972
vn -0.0203 0.9895 -0.1433
vn -0.1402 0.9675 -0.2106
vn -0.0575 0.9956 -0.0737
vn -0.1136 0.9686 -0.2210
vn -0.0766 0.9798 -0.1849
vn -0.1062 0.9810 -0.1621
vn -0.0362 0.9909 -0.1298
vn -0.0889 0.9838 -0.1559
vn -0.0293 0.9925 -0.1185
vn -0.0272 0.9892 -0.1438
vn -0.0923 0.9820 -0.1651
vn -0.0342 0.9763 -0.2139
vn 0.0847 0.9863 -0.1414
vn 0.0382 0.9950 -0.0921
vn -0.0081 0.9911 -0.1326
vn 0.0259 0.9959 -0.0867
vn 0.0074 0.9996 -0.0275
vn 0.0216 0.9968 -0.0771
vn -0.0140 0.9996 -0.0261
vn -0.0019 0.9989 -0.0474
vn 0.0834 0.9942 -0.0673
vn 0.0624 0.9954 -0.0730
vn 0.0581 0.9983 -0.0009
vn 0.1723 0.9842 -0.0400
vn 0.1069 0.9903 -0.0890
vn 0.1693 0.9854 -0.0167
vn 0.0707 0.9765 -0.2038
vn -0.0020 0.9929 0.1191
vn -0.0310 0.9984 -0.0477
vn -0.0603 0.9982 0.0034
vn -0.0613 0.9885 -0.1385
vn -0.0588 0.9982 -0.0128
vn 0.1003 0.9688 0.2268
vn 0.0603 0.9845 0.1646
vn 0.1323 0.9555 0.2637
vn -0.0749 0.9914 -0.1070
vn 0.0942 0.9950 0.0339
vn 0.1082 0.9549 -0.2765
vn 0.0231 0.9997 -0.0078
vn 0.0436 0.9847 -0.1686
vn -0.0088 0.9813 0.1920
vn -0.0921 0.9938 -0.0615
vn 0.0084 0.9705 -0.2411
vn -0.1133 0.9935 0.0103
vn 0.0184 0.9993 0.0311
vn -0.0435 0.9973 0.0599
vn -0.0219 0.9997 0.0115
vn 0.1189 0.9736 0.1950
vn 0.0614 0.9823 0.1768
vn 0.0466 0.9861 0.1592
vn -0.0230 0.9969 -0.0746
vn -0.0586 0.9865 -0.1527
vn -0.0656 0.9898 -0.1265
vn -0.1394 0.9678 -0.2097
vn -0.0798 0.9820 -0.1712
vn -0.0902 0.9822 -0.1647
vn -0.1591 0.9716 -0.1753
vn -0.1506 0.9832 -0.1034
vn -0.1680 0.9854 -0.0268
vn -0.1961 0.9603 -0.1983
vn -0.1588 0.9672 -0.1985
vn -0.1696 0.9594 -0.2255
vn -0.1249 0.9504 -0.2849
vn -0.1828 0.9427 -0.2791
vn -0.1479 0.9741 -0.1712
vn -0.1066 0.9633 -0.2463
vn -0.0100 0.9999 0.0075
vn -0.1380 0.9363 -0.3230
vn 0.0231 0.9906 0.1349
vn 0.1035 0.9676 0.2304
vn 0.1525 0.9640 0.2177
vn 0.0724 0.9814 0.1779
vn 0.1039 0.9899 0.0960
vn 0.0993 0.9713 0.2159
vn -0.0063 0.9986 0.0519
vn 0.0217 0.9930 0.1159
vn -0.0272 0.9993 0.0258
vn 0.1768 0.9750 0.1346
vn -0.1793 0.9569 -0.2285
vn -0.0266 0.9878 -0.1533
vn -0.0034 0.9994 0.0348
vn -0.1344 0.9817 -0.1347
vn 0.0422 0.9930 0.1099
vn -0.0136 0.9997 0.0191
vn -0.0272 0.9979 0.0596
vn -0.0370 0.9991 0.0186
vn 0.0008 1.0000 0.0010
vn -0.0506 0.9986 0.0166
vn 0.0033 0.9996 -0.0267
vn -0.0214 0.9972 -0.0716
vn 0.0306 0.9983 0.0496
vn 0.0253 0.9995 0.0165
vn 0.0111 0.9994 -0.0329
vn 0.1497 0.9877 -0.0457
vn 0.0729 0.9924 -0.0993
vn 0.1349 0.9862 0.0958
vn -0.0532 0.9986 -0.0000
vn 0.0194 0.9952 0.0962
vn -0.0167 0.9986 0.0496
vn -0.0092 0.9868 0.1618
vn 0.0741 0.9812 0.1784
vn -0.0367 0.9819 0.1856
vn -0.0043 0.9679 0.2512
vn -0.0309 0.9967 0.0748
vn 0.1511 0.9874 -0.0461
vn 0.1260 0.9748 -0.1843
vn 0.1101 0.9939 0.0073
vn 0.1241 0.9816 -0.1450
vn -0.0982 0.9451 0.3118
vn -0.0367 0.9958 0.0838
vn -0.0188 0.9876 -0.1558
vn -0.1830 0.9790 0.0903
vn -0.1389 0.9842 -0.1102
vn -0.1477 0.9388 0.3113
vn -0.0859 0.9963 -0.0003
vn -0.1064 0.9768 0.1861
vn -0.1842 0.9688 0.1659
vn -0.1178 0.9914 -0.0564
vn -0.0215 0.9993 -0.0321
vn 0.0860 0.9838 0.1574
vn 0.1217 0.9851 0.1212
vn 0.1098 0.9781 0.1769
vn -0.0101 0.9999 -0.0085
vn 0.0570 0.9970 0.0519
vn -0.0585 0.9982 0.0134
vn 0.0127 0.9996 -0.0233
vn -0.0960 0.9951 0.0229
vn 0.0231 0.9997 -0.0074
vn -0.0767 0.9970 -0.0130
vn -0.1068 0.9925 0.0601
vn 0.0024 0.9983 0.0584
vn -0.0456 0.9945 0.0939
vn -0.1498 0.9854 0.0806
vn -0.0832 0.9965 0.0069
vn 0.0226 0.9605 0.2774
vn -0.0184 0.9903 0.1378
vn 0.0256 0.9771 -0.2110
vn -0.0403 0.9938 0.1032
vn -0.0841 0.9813 -0.1734
vn -0.0207 0.9627 0.2696
vn 0.0462 0.9644 -0.2605
vn 0.0837 0.9947 0.0594
vn -0.0113 0.9856 -0.1690
vn 0.0403 0.9987 0.0311
vn -0.1362 0.9738 -0.1820
vn -0.0554 0.9883 -0.1422
vn -0.0287 0.9950 -0.0956
vn 0.0348 0.9976 -0.0603
vn -0.0239 0.9988 0.0439
vn -0.1070 0.9825 -0.1523
vn -0.1786 0.9544 0.2393
vn -0.0769 0.9942 0.0753
vn -0.1059 0.9832 0.1488
vn -0.0747 0.8919 0.4461
vn 0.0441 0.9951 0.0887
vn -0.0374 0.9991 -0.0220
vn -0.1668 0.9860 -0.0042
vn -0.0725 0.9950 -0.0684
vn 0.0022 0.9882 -0.1532
vn -0.1658 0.9708 -0.1732
vn -0.0404 0.9989 -0.0216
vn -0.2236 0.9502 -0.2172
vn -0.1946 0.9322 -0.3053
vn -0.1223 0.9607 -0.2493
vn -0.0437 0.9988 -0.0240
vn 0.1226 0.9923 -0.0155
vn 0.0090 0.9999 -0.0085
vn -0.1371 0.9829 -0.1226
vn -0.1914 0.9256 -0.3264
vn -0.2104 0.9526 -0.2196
vn -0.0990 0.9722 -0.2122
vn -0.0857 0.9950 -0.0511
vn -0.0973 0.9684 -0.2296
vn 0.0226 0.9903 -0.1373
vn -0.0233 0.9937 -0.1094
vn 0.0008 0.9973 -0.0739
vn -0.0481 0.9926 -0.1111
vn -0.0075 0.9949 -0.1008
vn -0.1464 0.9781 -0.1480
vn -0.1138 0.9841 -0.1366
vn -0.0655 0.9926 -0.1021
vn -0.0799 0.9856 -0.1490
vn -0.0249 0.9797 0.1988
vn -0.1070 0.9930 0.0495
vn -0.0213 0.9989 -0.0428
vn -0.1919 0.9698 0.1506
vn -0.1309 0.9875 -0.0882
vn -0.1867 0.9318 0.3112
vn -0.0425 0.9974 -0.0585
vn -0.0792 0.9964 -0.0301
vn -0.1292 0.9888 0.0749
vn -0.0164 0.9998 -0.0101
vn -0.0648 0.9968 -0.0460
vn -0.0146 0.9879 0.1544
vn -0.1833 0.9625 0.1998
vn -0.2515 0.9612 0.1130
vn -0.2152 0.9548 0.2053
vn -0.2017 0.9619 0.1846
vt 0.990222 0.936678
vt 0.990589 0.998042
vt 0.927888 0.996698
vt 0.925684 0.934422
vt 0.865100 0.995364
vt 0.860172 0.930915
vt 0.925688 0.873246
vt 0.861387 0.871231
vt 0.992265 0.875678
vt 0.801513 0.992708
vt 0.799648 0.930040
vt 0.740869 0.994294
vt 0.738834 0.927636
vt 0.799400 0.869690
vt 0.739741 0.868252
vt 0.864894 0.810213
vt 0.801857 0.809066
vt 0.741440 0.807047
vt 0.803903 0.747283
vt 0.742480 0.746313
vt 0.867057 0.748565
vt 0.994437 0.814463
vt 0.929476 0.812093
vt 0.931428 0.750735
vt 0.994865 0.753021
vt 0.679717 0.998085
vt 0.680079 0.927023
vt 0.618380 0.994714
vt 0.620274 0.927818
vt 0.679554 0.868301
vt 0.621094 0.867449
vt 0.555519 0.998723
vt 0.560121 0.927559
vt 0.492867 0.999900
vt 0.497768 0.929520
vt 0.561167 0.866901
vt 0.500391 0.866436
vt 0.620713 0.805143
vt 0.560479 0.805323
vt 0.499441 0.805150
vt 0.560477 0.742043
vt 0.498698 0.743120
vt 0.620925 0.742089
vt 0.680798 0.807047
vt 0.681706 0.745351
vt 0.743474 0.684458
vt 0.682059 0.683665
vt 0.620432 0.682114
vt 0.681821 0.621354
vt 0.618383 0.620115
vt 0.743861 0.622898
vt 0.558829 0.681202
vt 0.497749 0.681034
vt 0.558629 0.620288
vt 0.497813 0.620154
vt 0.619557 0.559841
vt 0.558939 0.559515
vt 0.497885 0.559125
vt 0.559231 0.498626
vt 0.498025 0.497828
vt 0.620009 0.499293
vt 0.741471 0.561022
vt 0.680919 0.560465
vt 0.679966 0.499660
vt 0.741422 0.500411
vt 0.996177 0.691826
vt 0.931964 0.688875
vt 0.866814 0.685802
vt 0.931188 0.625797
vt 0.867697 0.623554
vt 0.994779 0.629052
vt 0.805411 0.685229
vt 0.806827 0.623652
vt 0.867186 0.562476
vt 0.806062 0.562430
vt 0.803067 0.502038
vt 0.866796 0.502102
vt 0.998543 0.568634
vt 0.926963 0.561993
vt 0.927584 0.502655
vt 0.992003 0.504323
vt 0.431201 0.998856
vt 0.435923 0.928160
vt 0.370000 0.993971
vt 0.372646 0.928981
vt 0.436705 0.866225
vt 0.374195 0.866026
vt 0.308957 0.989773
vt 0.310922 0.926210
vt 0.247949 0.986517
vt 0.250237 0.924808
vt 0.312331 0.864860
vt 0.248625 0.863019
vt 0.374767 0.804093
vt 0.312440 0.803134
vt 0.248553 0.801303
vt 0.312177 0.741296
vt 0.249156 0.739928
vt 0.373961 0.741764
vt 0.436181 0.804422
vt 0.436605 0.742860
vt 0.186611 0.984783
vt 0.185708 0.923363
vt 0.123533 0.984218
vt 0.124819 0.922932
vt 0.186832 0.862242
vt 0.124591 0.861804
vt 0.062169 0.983607
vt 0.062305 0.922650
vt 0.001132 0.983259
vt 0.001173 0.922417
vt 0.062858 0.861608
vt 0.001566 0.861486
vt 0.125309 0.800043
vt 0.063699 0.799693
vt 0.002109 0.800110
vt 0.063749 0.736163
vt 0.001391 0.738461
vt 0.125024 0.737391
vt 0.186980 0.800591
vt 0.187426 0.738748
vt 0.249940 0.678640
vt 0.187679 0.677346
vt 0.127218 0.676689
vt 0.187619 0.616527
vt 0.122966 0.614609
vt 0.249503 0.616900
vt 0.063491 0.674682
vt 0.000100 0.677031
vt 0.062967 0.614705
vt 0.001530 0.614927
vt 0.123269 0.554431
vt 0.063073 0.554817
vt 0.000845 0.553702
vt 0.062596 0.493198
vt 0.001423 0.492620
vt 0.123514 0.493460
vt 0.249506 0.555316
vt 0.186856 0.555028
vt 0.185578 0.493280
vt 0.249378 0.493629
vt 0.436527 0.681006
vt 0.375473 0.681040
vt 0.437110 0.619967
vt 0.374912 0.618991
vt 0.312163 0.679529
vt 0.311915 0.617720
vt 0.373215 0.556441
vt 0.311727 0.556152
vt 0.311762 0.494445
vt 0.373945 0.496222
vt 0.436273 0.558310
vt 0.435701 0.496712
vt 0.497023 0.436287
vt 0.435238 0.435639
vt 0.373304 0.434793
vt 0.434817 0.374445
vt 0.372676 0.373363
vt 0.497669 0.375786
vt 0.312513 0.433894
vt 0.248075 0.431832
vt 0.309571 0.371400
vt 0.246772 0.370359
vt 0.372262 0.312115
vt 0.308595 0.309930
vt 0.247113 0.309421
vt 0.309187 0.248774
vt 0.247727 0.248115
vt 0.371208 0.249998
vt 0.497736 0.315053
vt 0.434308 0.312786
vt 0.433540 0.251319
vt 0.496646 0.252975
vt 0.185912 0.431819
vt 0.124371 0.431848
vt 0.185647 0.370423
vt 0.124397 0.370410
vt 0.063023 0.431689
vt 0.001871 0.431402
vt 0.063104 0.370341
vt 0.001858 0.370320
vt 0.124613 0.308713
vt 0.062973 0.308886
vt 0.001631 0.309328
vt 0.062542 0.247040
vt 0.000885 0.248187
vt 0.123854 0.246601
vt 0.185895 0.308863
vt 0.186241 0.247532
vt 0.248434 0.186646
vt 0.186770 0.185929
vt 0.123303 0.185137
vt 0.187849 0.124366
vt 0.123065 0.124171
vt 0.249238 0.125189
vt 0.062194 0.184761
vt 0.000112 0.186595
vt 0.061768 0.123708
vt 0.000100 0.124787
vt 0.123789 0.063540
vt 0.060974 0.063770
vt 0.000573 0.063107
vt 0.061551 0.003033
vt 0.000667 0.001993
vt 0.125617 0.001530
vt 0.250304 0.063769
vt 0.188597 0.062733
vt 0.190918 0.000100
vt 0.251802 0.002257
vt 0.495682 0.191279
vt 0.433677 0.190239
vt 0.370801 0.188093
vt 0.432632 0.128469
vt 0.371695 0.127603
vt 0.495151 0.129564
vt 0.309931 0.187376
vt 0.310569 0.126278
vt 0.372434 0.066652
vt 0.311410 0.065273
vt 0.312859 0.004200
vt 0.373953 0.005305
vt 0.494743 0.068257
vt 0.433181 0.067790
vt 0.434862 0.006245
vt 0.496166 0.006813
vt 0.991780 0.443108
vt 0.928440 0.442600
vt 0.868685 0.441699
vt 0.928910 0.381864
vt 0.867985 0.381423
vt 0.992289 0.381887
vt 0.804997 0.440677
vt 0.742952 0.440480
vt 0.805808 0.380579
vt 0.743254 0.380218
vt 0.868276 0.320677
vt 0.805354 0.319582
vt 0.743161 0.318925
vt 0.805547 0.258048
vt 0.743505 0.257322
vt 0.866475 0.258203
vt 0.992577 0.320588
vt 0.929324 0.320723
vt 0.929194 0.259057
vt 0.997703 0.256018
vt 0.680937 0.439505
vt 0.620622 0.438753
vt 0.682290 0.379820
vt 0.621249 0.377791
vt 0.560452 0.438054
vt 0.560913 0.377884
vt 0.621308 0.316275
vt 0.559889 0.316119
vt 0.560367 0.255364
vt 0.621914 0.255508
vt 0.682005 0.317148
vt 0.682354 0.255956
vt 0.743996 0.196014
vt 0.684065 0.196650
vt 0.621646 0.194685
vt 0.682080 0.133751
vt 0.619756 0.132340
vt 0.742854 0.135029
vt 0.555940 0.191643
vt 0.556895 0.130856
vt 0.619012 0.070407
vt 0.556872 0.068988
vt 0.557239 0.007896
vt 0.619559 0.009142
vt 0.745572 0.073860
vt 0.681679 0.071957
vt 0.680656 0.010092
vt 0.744220 0.012184
vt 0.990494 0.194485
vt 0.928221 0.197025
vt 0.866482 0.196873
vt 0.927006 0.136030
vt 0.866493 0.135655
vt 0.990945 0.132043
vt 0.805419 0.196515
vt 0.804419 0.134286
vt 0.866164 0.072548
vt 0.804374 0.073419
vt 0.804286 0.011837
vt 0.865441 0.011132
vt 0.990107 0.069884
vt 0.927643 0.072423
vt 0.928093 0.009800
vt 0.990213 0.007522
s 1
f 1/1/1 2/2/2 3/3/3
f 3/3/3 4/4/4 1/1/1
f 4/4/4 3/3/3 5/5/5
f 5/5/5 6/6/6 4/4/4
f 7/7/7 4/4/4 6/6/6
f 6/6/6 8/8/8 7/7/7
f 9/9/9 1/1/1 4/4/4
f 4/4/4 7/7/7 9/9/9
f 6/6/6 5/5/5 10/10/10
f 10/10/10 11/11/11 6/6/6
f 11/11/11 10/10/10 12/12/12
f 12/12/12 13/13/13 11/11/11
f 14/14/14 11/11/11 13/13/13
f 13/13/13 15/15/15 14/14/14
f 8/8/8 6/6/6 11/11/11
f 11/11/11 14/14/14 8/8/8
f 16/16/16 8/8/8 14/14/14
f 14/14/14 17/17/17 16/16/16
f 17/17/17 14/14/14 15/15/15
f 15/15/15 18/18/18 17/17/17
f 19/19/19 17/17/17 18/18/18
f 18/18/18 20/20/20 19/19/19
f 21/21/21 16/16/16 17/17/17
f 17/17/17 19/19/19 21/21/21
f 22/22/22 9/9/9 7/7/7
f 7/7/7 23/23/23 22/22/22
f 23/23/23 7/7/7 8/8/8
f 8/8/8 16/16/16 23/23/23
f 24/24/24 23/23/23 16/16/16
f 16/16/16 21/21/21 24/24/24
f 25/25/25 22/22/22 23/23/23
f 23/23/23 24/24/24 25/25/25
f 13/13/13 12/12/12 26/26/26
f 26/26/26 27/27/27 13/13/13
f 27/27/27 26/26/26 28/28/28
f 28/28/28 29/29/29 27/27/27
f 30/30/30 27/27/27 29/29/29
f 29/29/29 31/31/31 30/30/30
f 15/15/15 13/13/13 27/27/27
f 27/27/27 30/30/30 15/15/15
f 29/29/29 28/28/28 32/32/32
f 32/32/32 33/33/33 29/29/29
f 33/33/33 32/32/32 34/34/34
f 34/34/34 35/35/35 33/33/33
f 36/36/36 33/33/33 35/35/35
f 35/35/35 37/37/37 36/36/36
f 31/31/31 29/29/29 33/33/33
f 33/33/33 36/36/36 31/31/31
f 38/38/38 31/31/31 36/36/36
f 36/36/36 39/39/39 38/38/38
f 39/39/39 36/36/36 37/37/37
f 37/37/37 40/40/40 39/39/39
f 41/41/41 39/39/39 40/40/40
f 40/40/40 42/42/42 41/41/41
f 43/43/43 38/38/38 39/39/39
f 39/39/39 41/41/41 43/43/43
f 18/18/18 15/15/15 30/30/30
f 30/30/30 44/44/44 18/18/18
f 44/44/44 30/30/30 31/31/31
f 31/31/31 38/38/38 44/44/44
f 45/45/45 44/44/44 38/38/38
f 38/38/38 43/43/43 45/45/45
f 20/20/20 18/18/18 44/44/44
f 44/44/44 45/45/45 20/20/20
f 46/46/46 20/20/20 45/45/45
f 45/45/45 47/47/47 46/46/46
f 47/47/47 45/45/45 43/43/43
f 43/43/43 48/48/48 47/47/47
f 49/49/49 47/47/47 48/48/48
f 48/48/48 50/50/50 49/49/49
f 51/51/51 46/46/46 47/47/47
f 47/47/47 49/49/49 51/51/51
f 48/48/48 43/43/43 41/41/41
f 41/41/41 52/52/52 48/48/48
f 52/52/52 41/41/41 42/42/42
f 42/42/42 53/53/53 52/52/52
f 54/54/54 52/52/52 53/53/53
f 53/53/53 55/55/55 54/54/54
f 50/50/50 48/48/48 52/52/52
f 52/52/52 54/54/54 50/50/50
f 56/56/56 50/50/50 54/54/54
f 54/54/54 57/57/57 56/56/56
f 57/57/57 54/54/54 55/55/55
f 55/55/55 58/58/58 57/57/57
f 59/59/59 57/57/57 58/58/58
f 58/58/58 60/60/60 59/59/59
f 61/61/61 56/56/56 57/57/57
f 57/57/57 59/59/59 61/61/61
f 62/62/62 51/51/51 49/49/49
f 49/49/49 63/63/63 62/62/62
f 63/63/63 49/49/49 50/50/50
f 50/50/50 56/56/56 63/63/63
f 64/64/64 63/63/63 56/56/56
f 56/56/56 61/61/61 64/64/64
f 65/65/65 62/62/62 63/63/63
f 63/63/63 64/64/64 65/65/65
f 66/66/66 25/25/25 24/24/24
f 24/24/24 67/67/67 66/66/66
f 67/67/67 24/24/24 21/21/21
f 21/21/21 68/68/68 67/67/67
f 69/69/69 67/67/67 68/68/68
f 68/68/68 70/70/70 69/69/69
f 71/71/71 66/66/66 67/67/67
f 67/67/67 69/69/69 71/71/71
f 68/68/68 21/21/21 19/19/19
f 19/19/19 72/72/72 68/68/68
f 72/72/72 19/19/19 20/20/20
f 20/20/20 46/46/46 72/72/72
f 73/73/73 72/72/72 46/46/46
f 46/46/46 51/51/51 73/73/73
f 70/70/70 68/68/68 72/72/72
f 72/72/72 73/73/73 70/70/70
f 74/74/74 70/70/70 73/73/73
f 73/73/73 75/75/75 74/74/74
f 75/75/75 73/73/73 51/51/51
f 51/51/51 62/62/62 75/75/75
f 76/76/76 75/75/75 62/62/62
f 62/62/62 65/65/65 76/76/76
f 77/77/77 74/74/74 75/75/75
f 75/75/75 76/76/76 77/77/77
f 78/78/78 71/71/71 69/69/69
f 69/69/69 79/79/79 78/78/78
f 79/79/79 69/69/69 70/70/70
f 70/70/70 74/74/74 79/79/79
f 80/80/80 79/79/79 74/74/74
f 74/74/74 77/77/77 80/80/80
f 81/81/81 78/78/78 79/79/79
f 79/79/79 80/80/80 81/81/81
f 35/35/35 34/34/34 82/82/82
f 82/82/82 83/83/83 35/35/35
f 83/83/83 82/82/82 84/84/84
f 84/84/84 85/85/85 83/83/83
f 86/86/86 83/83/83 85/85/85
f 85/85/85 87/87/87 86/86/86
f 37/37/37 35/35/35 83/83/83
f 83/83/83 86/86/86 37/37/37
f 85/85/85 84/84/84 88/88/88
f 88/88/88 89/89/89 85/85/85
f 89/89/89 88/88/88 90/90/90
f 90/90/90 91/91/91 89/89/89
f 92/92/92 89/89/89 91/91/91
f 91/91/91 93/93/93 92/92/92
f 87/87/87 85/85/85 89/89/89
f 89/89/89 92/92/92 87/87/87
f 94/94/94 87/87/87 92/92/92
f 92/92/92 95/95/95 94/94/94
f 95/95/95 92/92/92 93/93/93
f 93/93/93 96/96/96 95/95/95
f 97/97/97 95/95/95 96/96/96
f 96/96/96 98/98/98 97/97/97
f 99/99/99 94/94/94 95/95/95
f 95/95/95 97/97/97 99/99/99
f 40/40/40 37/37/37 86/86/86
f 86/86/86 100/100/100 40/40/40
f 100/100/100 86/86/86 87/87/87
f 87/87/87 94/94/94 100/100/100
f 101/101/101 100/100/100 94/94/94
f 94/94/94 99/99/99 101/101/101
f 42/42/42 40/40/40 100/100/100
f 100/100/100 101/101/101 42/42/42
f 91/91/91 90/90/90 102/102/102
f 102/102/102 103/103/103 91/91/91
f 103/103/103 102/102/102 104/104/104
f 104/104/104 105/105/105 103/103/103
f 106/106/106 103/103/103 105/105/105
f 105/105/105 107/107/107 106/106/106
f 93/93/93 91/91/91 103/103/103
f 103/103/103 106/106/106 93/93/93
f 105/105/105 104/104/104 108/108/108
f 108/108/108 109/109/109 105/105/105
f 109/109/109 108/108/108 110/110/110
f 110/110/110 111/111/111 109/109/109
f 112/112/112 109/109/109 111/111/111
f 111/111/111 113/113/113 112/112/112
f 107/107/107 105/105/105 109/109/109
f 109/109/109 112/112/112 107/107/107
f 114/114/114 107/107/107 112/112/112
f 112/112/112 115/115/115 114/114/114
f 115/115/115 112/112/112 113/113/113
f 113/113/113 116/116/116 115/115/115
f 117/117/117 115/115/115 116/116/116
f 116/116/116 118/118/118 117/117/117
f 119/119/119 114/114/114 115/115/115
f 115/115/115 117/117/117 119/119/119
f 96/96/96 93/93/93 106/106/106
f 106/106/106 120/120/120 96/96/96
f 120/120/120 106/106/106 107/107/107
f 107/107/107 114/114/114 120/120/120
f 121/121/121 120/120/120 114/114/114
f 114/114/114 119/119/119 121/121/121
f 98/98/98 96/96/96 120/120/120
f 120/120/120 121/121/121 98/98/98
f 122/122/122 98/98/98 121/121/121
f 121/121/121 123/123/123 122/122/122
f 123/123/123 121/121/121 119/119/119
f 119/119/119 124/124/124 123/123/123
f 125/125/125 123/123/123 124/124/124
f 124/124/124 126/126/126 125/125/125
f 127/127/127 122/122/122 123/123/123
f 123/123/123 125/125/125 127/127/127
f 124/124/124 119/119/119 117/117/117
f 117/117/117 128/128/128 124/124/124
f 128/128/128 117/117/117 118/118/118
f 118/118/118 129/129/129 128/128/128
f 130/130/130 128/128/128 129/129/129
f 129/129/129 131/131/131 130/130/130
f 126/126/126 124/124/124 128/128/128
f 128/128/128 130/130/130 126/126/126
f 132/132/132 126/126/126 130/130/130
f 130/130/130 133/133/133 132/132/132
f 133/133/133 130/130/130 131/131/131
f 131/131/131 134/134/134 133/133/133
f 135/135/135 133/133/133 134/134/134
f 134/134/134 136/136/136 135/135/135
f 137/137/137 132/132/132 133/133/133
f 133/133/133 135/135/135 137/137/137
f 138/138/138 127/127/127 125/125/125
f 125/125/125 139/139/139 138/138/138
f 139/139/139 125/125/125 126/126/126
f 126/126/126 132/132/132 139/139/139
f 140/140/140 139/139/139 132/132/132
f 132/132/132 137/137/137 140/140/140
f 141/141/141 138/138/138 139/139/139
f 139/139/139 140/140/140 141/141/141
f 53/53/53 42/42/42 101/101/101
f 101/101/101 142/142/142 53/53/53
f 142/142/142 101/101/101 99/99/99
f 99/99/99 143/143/143 142/142/142
f 144/144/144 142/142/142 143/143/143
f 143/143/143 145/145/145 144/144/144
f 55/55/55 53/53/53 142/142/142
f 142/142/142 144/144/144 55/55/55
f 143/143/143 99/99/99 97/97/97
f 97/97/97 146/146/146 143/143/143
f 146/146/146 97/97/97 98/98/98
f 98/98/98 122/122/122 146/146/146
f 147/147/147 146/146/146 122/122/122
f 122/122/122 127/127/127 147/147/147
f 145/145/145 143/143/143 146/146/146
f 146/146/146 147/147/147 145/145/145
f 148/148/148 145/145/145 147/147/147
f 147/147/147 149/149/149 148/148/148
f 149/149/149 147/147/147 127/127/127
f 127/127/127 138/138/138 149/149/149
f 150/150/150 149/149/149 138/138/138
f 138/138/138 141/141/141 150/150/150
f 151/151/151 148/148/148 149/149/149
f 149/149/149 150/150/150 151/151/151
f 58/58/58 55/55/55 144/144/144
f 144/144/144 152/152/152 58/58/58
f 152/152/152 144/144/144 145/145/145
f 145/145/145 148/148/148 152/152/152
f 153/153/153 152/152/152 148/148/148
f 148/148/148 151/151/151 153/153/153
f 60/60/60 58/58/58 152/152/152
f 152/152/152 153/153/153 60/60/60
f 154/154/154 60/60/60 153/153/153
f 153/153/153 155/155/155 154/154/154
f 155/155/155 153/153/153 151/151/151
f 151/151/151 156/156/156 155/155/155
f 157/157/157 155/155/155 156/156/156
f 156/156/156 158/158/158 157/157/157
f 159/159/159 154/154/154 155/155/155
f 155/155/155 157/157/157 159/159/159
f 156/156/156 151/151/151 150/150/150
f 150/150/150 160/160/160 156/156/156
f 160/160/160 150/150/150 141/141/141
f 141/141/141 161/161/161 160/160/160
f 162/162/162 160/160/160 161/161/161
f 161/161/161 163/163/163 162/162/162
f 158/158/158 156/156/156 160/160/160
f 160/160/160 162/162/162 158/158/158
f 164/164/164 158/158/158 162/162/162
f 162/162/162 165/165/165 164/164/164
f 165/165/165 162/162/162 163/163/163
f 163/163/163 166/166/166 165/165/165
f 167/167/167 165/165/165 166/166/166
f 166/166/166 168/168/168 167/167/167
f 169/169/169 164/164/164 165/165/165
f 165/165/165 167/167/167 169/169/169
f 170/170/170 159/159/159 157/157/157
f 157/157/157 171/171/171 170/170/170
f 171/171/171 157/157/157 158/158/158
f 158/158/158 164/164/164 171/171/171
f 172/172/172 171/171/171 164/164/164
f 164/164/164 169/169/169 172/172/172
f 173/173/173 170/170/170 171/171/171
f 171/171/171 172/172/172 173/173/173
f 161/161/161 141/141/141 140/140/140
f 140/140/140 174/174/174 161/161/161
f 174/174/174 140/140/140 137/137/137
f 137/137/137 175/175/175 174/174/174
f 176/176/176 174/174/174 175/175/175
f 175/175/175 177/177/177 176/176/176
f 163/163/163 161/161/161 174/174/174
f 174/174/174 176/176/176 163/163/163
f 175/175/175 137/137/137 135/135/135
f 135/135/135 178/178/178 175/175/175
f 178/178/178 135/135/135 136/136/136
f 136/136/136 179/179/179 178/178/178
f 180/180/180 178/178/178 179/179/179
f 179/179/179 181/181/181 180/180/180
f 177/177/177 175/175/175 178/178/178
f 178/178/178 180/180/180 177/177/177
f 182/182/182 177/177/177 180/180/180
f 180/180/180 183/183/183 182/182/182
f 183/183/183 180/180/180 181/181/181
f 181/181/181 184/184/184 183/183/183
f 185/185/185 183/183/183 184/184/184
f 184/184/184 186/186/186 185/185/185
f 187/187/187 182/182/182 183/183/183
f 183/183/183 185/185/185 187/187/187
f 166/166/166 163/163/163 176/176/176
f 176/176/176 188/188/188 166/166/166
f 188/188/188 176/176/176 177/177/177
f 177/177/177 182/182/182 188/188/188
f 189/189/189 188/188/188 182/182/182
f 182/182/182 187/187/187 189/189/189
f 168/168/168 166/166/166 188/188/188
f 188/188/188 189/189/189 168/168/168
f 190/190/190 168/168/168 189/189/189
f 189/189/189 191/191/191 190/190/190
f 191/191/191 189/189/189 187/187/187
f 187/187/187 192/192/192 191/191/191
f 193/193/193 191/191/191 192/192/192
f 192/192/192 194/194/194 193/193/193
f 195/195/195 190/190/190 191/191/191
f 191/191/191 193/193/193 195/195/195
f 192/192/192 187/187/187 185/185/185
f 185/185/185 196/196/196 192/192/192
f 196/196/196 185/185/185 186/186/186
f 186/186/186 197/197/197 196/196/196
f 198/198/198 196/196/196 197/197/197
f 197/197/197 199/199/199 198/198/198
f 194/194/194 192/192/192 196/196/196
f 196/196/196 198/198/198 194/194/194
f 200/200/200 194/194/194 198/198/198
f 198/198/198 201/201/201 200/200/200
f 201/201/201 198/198/198 199/199/199
f 199/199/199 202/202/202 201/201/201
f 203/203/203 201/201/201 202/202/202
f 202/202/202 204/204/204 203/203/203
f 205/205/205 200/200/200 201/201/201
f 201/201/201 203/203/203 205/205/205
f 206/206/206 195/195/195 193/193/193
f 193/193/193 207/207/207 206/206/206
f 207/207/207 193/193/193 194/194/194
f 194/194/194 200/200/200 207/207/207
f 208/208/208 207/207/207 200/200/200
f 200/200/200 205/205/205 208/208/208
f 209/209/209 206/206/206 207/207/207
f 207/207/207 208/208/208 209/209/209
f 210/210/210 173/173/173 172/172/172
f 172/172/172 211/211/211 210/210/210
f 211/211/211 172/172/172 169/169/169
f 169/169/169 212/212/212 211/211/211
f 213/213/213 211/211/211 212/212/212
f 212/212/212 214/214/214 213/213/213
f 215/215/215 210/210/210 211/211/211
f 211/211/211 213/213/213 215/215/215
f 212/212/212 169/169/169 167/167/167
f 167/167/167 216/216/216 212/212/212
f 216/216/216 167/167/167 168/168/168
f 168/168/168 190/190/190 216/216/216
f 217/217/217 216/216/216 190/190/190
f 190/190/190 195/195/195 217/217/217
f 214/214/214 212/212/212 216/216/216
f 216/216/216 217/217/217 214/214/214
f 218/218/218 214/214/214 217/217/217
f 217/217/217 219/219/219 218/218/218
f 219/219/219 217/217/217 195/195/195
f 195/195/195 206/206/206 219/219/219
f 220/220/220 219/219/219 206/206/206
f 206/206/206 209/209/209 220/220/220
f 221/221/221 218/218/218 219/219/219
f 219/219/219 220/220/220 221/221/221
f 222/222/222 215/215/215 213/213/213
f 213/213/213 223/223/223 222/222/222
f 223/223/223 213/213/213 214/214/214
f 214/214/214 218/218/218 223/223/223
f 224/224/224 223/223/223 218/218/218
f 218/218/218 221/221/221 224/224/224
f 225/225/225 222/222/222 223/223/223
f 223/223/223 224/224/224 225/225/225
f 226/226/226 81/81/81 80/80/80
f 80/80/80 227/227/227 226/226/226
f 227/227/227 80/80/80 77/77/77
f 77/77/77 228/228/228 227/227/227
f 229/229/229 227/227/227 228/228/228
f 228/228/228 230/230/230 229/229/229
f 231/231/231 226/226/226 227/227/227
f 227/227/227 229/229/229 231/231/231
f 228/228/228 77/77/77 76/76/76
f 76/76/76 232/232/232 228/228/228
f 232/232/232 76/76/76 65/65/65
f 65/65/65 233/233/233 232/232/232
f 234/234/234 232/232/232 233/233/233
f 233/233/233 235/235/235 234/234/234
f 230/230/230 228/228/228 232/232/232
f 232/232/232 234/234/234 230/230/230
f 236/236/236 230/230/230 234/234/234
f 234/234/234 237/237/237 236/236/236
f 237/237/237 234/234/234 235/235/235
f 235/235/235 238/238/238 237/237/237
f 239/239/239 237/237/237 238/238/238
f 238/238/238 240/240/240 239/239/239
f 241/241/241 236/236/236 237/237/237
f 237/237/237 239/239/239 241/241/241
f 242/242/242 231/231/231 229/229/229
f 229/229/229 243/243/243 242/242/242
f 243/243/243 229/229/229 230/230/230
f 230/230/230 236/236/236 243/243/243
f 244/244/244 243/243/243 236/236/236
f 236/236/236 241/241/241 244/244/244
f 245/245/245 242/242/242 243/243/243
f 243/243/243 244/244/244 245/245/245
f 233/233/233 65/65/65 64/64/64
f 64/64/64 246/246/246 233/233/233
f 246/246/246 64/64/64 61/61/61
f 61/61/61 247/247/247 246/246/246
f 248/248/248 246/246/246 247/247/247
f 247/247/247 249/249/249 248/248/248
f 235/235/235 233/233/233 246/246/246
f 246/246/246 248/248/248 235/235/235
f 247/247/247 61/61/61 59/59/59
f 59/59/59 250/250/250 247/247/247
f 250/250/250 59/59/59 60/60/60
f 60/60/60 154/154/154 250/250/250
f 251/251/251 250/250/250 154/154/154
f 154/154/154 159/159/159 251/251/251
f 249/249/249 247/247/247 250/250/250
f 250/250/250 251/251/251 249/249/249
f 252/252/252 249/249/249 251/251/251
f 251/251/251 253/253/253 252/252/252
f 253/253/253 251/251/251 159/159/159
f 159/159/159 170/170/170 253/253/253
f 254/254/254 253/253/253 170/170/170
f 170/170/170 173/173/173 254/254/254
f 255/255/255 252/252/252 253/253/253
f 253/253/253 254/254/254 255/255/255
f 238/238/238 235/235/235 248/248/248
f 248/248/248 256/256/256 238/238/238
f 256/256/256 248/248/248 249/249/249
f 249/249/249 252/252/252 256/256/256
f 257/257/257 256/256/256 252/252/252
f 252/252/252 255/255/255 257/257/257
f 240/240/240 238/238/238 256/256/256
f 256/256/256 257/257/257 240/240/240
f 258/258/258 240/240/240 257/257/257
f 257/257/257 259/259/259 258/258/258
f 259/259/259 257/257/257 255/255/255
f 255/255/255 260/260/260 259/259/259
f 261/261/261 259/259/259 260/260/260
f 260/260/260 262/262/262 261/261/261
f 263/263/263 258/258/258 259/259/259
f 259/259/259 261/261/261 263/263/263
f 260/260/260 255/255/255 254/254/254
f 254/254/254 264/264/264 260/260/260
f 264/264/264 254/254/254 173/173/173
f 173/173/173 210/210/210 264/264/264
f 265/265/265 264/264/264 210/210/210
f 210/210/210 215/215/215 265/265/265
f 262/262/262 260/260/260 264/264/264
f 264/264/264 265/265/265 262/262/262
f 266/266/266 262/262/262 265/265/265
f 265/265/265 267/267/267 266/266/266
f 267/267/267 265/265/265 215/215/215
f 215/215/215 222/222/222 267/267/267
f 268/268/268 267/267/267 222/222/222
f 222/222/222 225/225/225 268/268/268
f 269/269/269 266/266/266 267/267/267
f 267/267/267 268/268/268 269/269/269
f 270/270/270 263/263/263 261/261/261
f 261/261/261 271/271/271 270/270/270
f 271/271/271 261/261/261 262/262/262
f 262/262/262 266/266/266 271/271/271
f 272/272/272 271/271/271 266/266/266
f 266/266/266 269/269/269 272/272/272
f 273/273/273 270/270/270 271/271/271
f 271/271/271 272/272/272 273/273/273
f 274/274/274 245/245/245 244/244/244
f 244/244/244 275/275/275 274/274/274
f 275/275/275 244/244/244 241/241/241
f 241/241/241 276/276/276 275/275/275
f 277/277/277 275/275/275 276/276/276
f 276/276/276 278/278/278 277/277/277
f 279/279/279 274/274/274 275/275/275
f 275/275/275 277/277/277 279/279/279
f 276/276/276 241/241/241 239/239/239
f 239/239/239 280/280/280 276/276/276
f 280/280/280 239/239/239 240/240/240
f 240/240/240 258/258/258 280/280/280
f 281/281/281 280/280/280 258/258/258
f 258/258/258 263/263/263 281/281/281
f 278/278/278 276/276/276 280/280/280
f 280/280/280 281/281/281 278/278/278
f 282/282/282 278/278/278 281/281/281
f 281/281/281 283/283/283 282/282/282
f 283/283/283 281/281/281 263/263/263
f 263/263/263 270/270/270 283/283/283
f 284/284/284 283/283/283 270/270/270
f 270/270/270 273/273/273 284/284/284
f 285/285/285 282/282/282 283/283/283
f 283/283/283 284/284/284 285/285/285
f 286/286/286 279/279/279 277/277/277
f 277/277/277 287/287/287 286/286/286
f 287/287/287 277/277/277 278/278/278
f 278/278/278 282/282/282 287/287/287
f 288/288/288 287/287/287 282/282/282
f 282/282/282 285/285/285 288/288/288
f 289/289/289 286/286/286 287/287/287
f 287/287/287 288/288/288 289/289/289
