# Blender 5.1.2
# www.blender.org
o palmtree_blinn1_0.062
v 0.141598 0.001162 -0.067476
v 0.085070 0.269095 -0.109017
v 0.091719 0.001162 -0.118169
v 0.132447 0.269095 -0.060827
v 0.149079 0.001162 0.004840
v 0.130287 0.001162 0.070166
v 0.146598 0.269095 0.000803
v 0.082036 0.606135 0.014288
v 0.068139 0.603467 -0.047342
v 0.128809 0.269095 0.067867
v 0.080961 0.001162 0.117363
v 0.079900 0.269095 0.117028
v 0.064566 0.602781 0.081352
v 0.016534 0.593559 0.130513
v -0.057942 0.959314 0.082501
v -0.042990 0.962185 0.025105
v -0.109148 1.248746 0.032807
v -0.120493 1.246568 -0.017505
v -0.054884 0.959902 -0.027641
v -0.094704 0.952257 -0.068884
v -0.158477 1.239276 -0.056846
v -0.210705 1.229248 -0.071261
v -0.181626 1.571515 -0.031657
v -0.230169 1.574527 -0.044840
v -0.278713 1.577539 -0.031657
v -0.205582 1.863882 -0.035052
v -0.251879 1.871705 -0.022326
v -0.285550 1.877395 0.012408
v -0.204136 2.115783 -0.012402
v -0.238941 2.121665 0.023502
v -0.251160 2.123730 0.072428
v -0.251311 2.217407 0.004656
v -0.268280 2.220275 0.072604
v -0.265813 2.279689 0.072647
v -0.247695 2.276627 0.000101
v -0.194431 2.330323 0.072462
v -0.183792 2.328526 0.029863
v -0.163841 2.401102 0.072509
v -0.154996 2.399607 0.037093
v -0.153488 2.323404 -0.001399
v -0.129802 2.395349 0.011103
v -0.095159 2.389495 0.001580
v -0.111818 2.316363 -0.012853
v -0.125124 2.255913 -0.072644
v -0.054160 2.243920 -0.053137
v -0.070148 2.309320 -0.001399
v -0.002552 2.235199 0.000101
v -0.039844 2.304199 0.029863
v -0.060516 2.383640 0.011103
v -0.035321 2.379382 0.037093
v -0.030792 2.302669 0.069843
v -0.027796 2.378110 0.070331
v -0.042171 2.304592 0.113348
v -0.037256 2.379709 0.106501
v -0.063265 2.384104 0.133014
v -0.073455 2.309879 0.145240
v -0.059792 2.244871 0.196586
v -0.132669 2.257188 0.216590
v -0.116249 2.317111 0.156986
v -0.191610 2.267148 0.196956
v -0.150859 2.322960 0.145457
v -0.098842 2.390117 0.142780
v -0.127617 2.394980 0.133195
v -0.182410 2.328292 0.114840
v -0.153847 2.399412 0.107741
v -0.194431 2.330323 0.072462
v -0.163841 2.401102 0.072509
v -0.265813 2.279689 0.072647
v -0.245342 2.276229 0.144815
v -0.268280 2.220275 0.072604
v -0.251160 2.123730 0.072428
v -0.249107 2.217034 0.140198
v -0.237354 2.121397 0.121098
v -0.198781 2.208529 0.189035
v -0.201117 2.115273 0.156262
v -0.143575 2.199200 0.207424
v -0.075317 2.187664 0.188688
v -0.161367 2.108556 0.169503
v -0.112219 2.100249 0.156013
v -0.248959 1.871212 0.140840
v -0.210504 1.864713 0.153649
v -0.275651 1.577349 0.137356
v -0.235331 1.574847 0.150624
v -0.162958 1.856678 0.140599
v -0.185478 1.571754 0.137106
v -0.128199 1.850804 0.105165
v -0.076289 2.094177 0.119385
v -0.063220 2.091969 0.069419
v -0.025417 2.179232 0.137820
v -0.007267 2.176164 0.068427
v -0.021705 2.178604 0.004656
v 0.012863 2.232593 0.068187
v -0.006516 2.235869 0.142275
v -0.073616 2.093726 0.023502
v -0.070042 2.186774 -0.045208
v -0.108421 2.099608 -0.012402
v -0.136508 2.198006 -0.063478
v -0.202973 2.209238 -0.045208
v -0.196087 2.267905 -0.053137
v -0.156278 2.107695 -0.025557
v -0.159284 1.856057 -0.022326
v -0.146323 1.569325 0.004321
v -0.125614 1.850367 0.012408
v -0.135778 1.568670 0.050333
v -0.115557 1.848667 0.056828
v -0.149034 1.569493 0.100402
v -0.162622 1.238480 0.127689
v -0.123410 1.246008 0.087556
v -0.099049 0.951422 0.124575
v -0.049168 0.580945 0.148620
v -0.155280 0.940626 0.140072
v -0.102307 0.570743 0.130848
v -0.200759 0.931895 0.124862
v -0.216258 1.228182 0.142471
v -0.259639 1.219854 0.127963
v -0.299185 1.212261 0.089433
v -0.242218 0.923935 0.084468
v -0.169204 0.557899 0.018326
v -0.258013 0.920903 0.028560
v -0.150749 0.561442 0.083651
v -0.090438 0.269095 0.070166
v -0.109231 0.269095 0.004840
v -0.115880 0.001162 -0.004311
v -0.099589 0.001162 0.063517
v -0.041112 0.269095 0.117363
v -0.051870 0.001162 0.113868
v 0.012998 0.269095 0.135135
v 0.014269 0.001162 0.133474
v -0.314252 1.209368 0.036103
v -0.312407 1.579629 0.102119
v -0.326410 1.580499 0.053348
v -0.284014 1.877136 0.106822
v -0.297370 1.879393 0.059738
v -0.297370 1.879393 0.059738
v -0.314016 1.579729 0.004321
v -0.326410 1.580499 0.053348
v -0.314252 1.209368 0.036103
v -0.300917 1.211929 -0.017505
v -0.204213 0.931232 -0.068884
v -0.244033 0.923587 -0.027641
v -0.262934 1.219221 -0.056846
v -0.149459 0.941744 -0.083996
v 0.021611 0.594534 -0.095532
v -0.042366 0.582251 -0.113189
v -0.106343 0.569968 -0.095532
v 0.019924 0.269095 -0.126674
v 0.023420 0.001162 -0.137433
v -0.045221 0.269095 -0.109017
v -0.045221 0.001162 -0.120329
v -0.092598 0.269095 -0.060827
v -0.152870 0.561035 -0.047342
v -0.169204 0.557899 0.018326
v -0.258013 0.920903 0.028560
v -0.109231 0.269095 0.004840
v -0.115880 0.001162 -0.004311
v -0.096094 0.001162 -0.071585
vn 0.8894 0.0337 -0.4559
vn 0.5137 0.0929 -0.8529
vn 0.8773 0.1156 -0.4658
vn 0.5076 0.0428 -0.8606
vn 0.9982 0.0165 0.0580
vn 0.9933 0.1101 0.0363
vn 0.8611 0.0089 0.5084
vn 0.8417 0.2480 -0.4795
vn 0.9653 0.2596 0.0285
vn 0.8675 0.0861 0.4900
vn 0.4912 0.0029 0.8711
vn 0.5127 0.0386 0.8577
vn 0.8437 0.2150 0.4919
vn 0.4966 0.1188 0.8598
vn 0.8316 0.2412 0.5002
vn 0.9573 0.2877 0.0292
vn 0.9880 0.1521 0.0263
vn 0.8541 0.1560 -0.4961
vn 0.8298 0.2696 -0.4887
vn 0.4706 0.1855 -0.8626
vn 0.4810 0.1210 -0.8683
vn 0.4937 0.0509 -0.8681
vn -0.0225 0.0586 -0.9980
vn -0.0178 0.0568 -0.9982
vn -0.0061 0.0366 -0.9993
vn -0.5198 0.0523 -0.8527
vn -0.5031 0.1001 -0.8584
vn -0.8628 0.1367 -0.4867
vn -0.8732 0.0564 -0.4841
vn -0.5127 -0.0060 -0.8585
vn -0.9976 0.0651 0.0222
vn -0.8731 -0.1069 -0.4756
vn -0.9967 -0.0798 0.0156
vn -0.8688 0.4950 0.0145
vn -0.7505 0.4733 -0.4612
vn -0.7173 0.6967 0.0139
vn -0.6144 0.6781 -0.4032
vn -0.7772 0.6290 0.0149
vn -0.6678 0.6071 -0.4308
vn -0.3214 0.6195 -0.7162
vn -0.3519 0.5451 -0.7610
vn 0.0896 0.5346 -0.8403
vn 0.0857 0.4592 -0.8842
vn 0.0527 0.3142 -0.9479
vn 0.5243 0.2188 -0.8230
vn 0.5112 0.4455 -0.7350
vn 0.8706 0.1467 -0.4696
vn 0.8253 0.3775 -0.4199
vn 0.5254 0.3730 -0.7647
vn 0.8470 0.3076 -0.4335
vn 0.9400 0.3400 0.0263
vn 0.9579 0.2857 0.0265
vn 0.8253 0.3634 0.4322
vn 0.8428 0.3057 0.4430
vn 0.5114 0.4340 0.7417
vn 0.5233 0.3747 0.7653
vn 0.5199 0.2126 0.8274
vn 0.0525 0.3096 0.9494
vn 0.0930 0.5342 0.8402
vn -0.4376 0.4104 0.8000
vn -0.3496 0.6138 0.7078
vn 0.0901 0.4627 0.8819
vn -0.3719 0.5591 0.7410
vn -0.6050 0.6710 0.4286
vn -0.6524 0.6057 0.4556
vn -0.7173 0.6967 0.0141
vn -0.7772 0.6290 0.0150
vn -0.8687 0.4950 0.0147
vn -0.7379 0.4673 0.4869
vn -0.9967 -0.0798 0.0159
vn -0.9976 0.0651 0.0224
vn -0.8579 -0.1071 0.5025
vn -0.8548 0.0185 0.5187
vn -0.5476 -0.1708 0.8192
vn -0.5409 -0.0574 0.8391
vn -0.0426 -0.2787 0.9594
vn 0.4257 -0.3686 0.8264
vn -0.0244 -0.1730 0.9846
vn -0.5383 0.0450 0.8415
vn 0.4554 -0.2641 0.8502
vn -0.0148 -0.0338 0.9993
vn -0.5416 -0.0091 0.8406
vn -0.0145 -0.0182 0.9997
vn 0.4850 -0.0987 0.8689
vn 0.4899 -0.0174 0.8716
vn 0.8544 -0.1366 0.5013
vn 0.8079 -0.3232 0.4927
vn 0.9417 -0.3349 0.0337
vn 0.7656 -0.4351 0.4738
vn 0.8869 -0.4613 0.0257
vn 0.7670 -0.4427 -0.4644
vn 0.9929 0.1165 0.0243
vn 0.8671 0.1392 0.4782
vn 0.4271 -0.3747 -0.8229
vn 0.8267 -0.2980 -0.4773
vn 0.4757 -0.2120 -0.8537
vn -0.0448 -0.2786 -0.9593
vn -0.5225 -0.1802 -0.8334
vn -0.4140 0.4074 -0.8140
vn -0.0164 -0.1048 -0.9944
vn 0.4952 -0.0370 -0.8680
vn 0.8697 0.0349 -0.4923
vn 0.8629 -0.1011 -0.4952
vn 0.9994 0.0126 0.0314
vn 0.9901 -0.1378 0.0268
vn 0.8625 -0.0058 0.5060
vn 0.4890 0.0523 0.8707
vn 0.8571 0.1150 0.5022
vn 0.4779 0.1383 0.8675
vn -0.0078 0.0078 0.9999
vn 0.0133 -0.0048 0.9999
vn -0.5118 -0.1330 0.8487
vn -0.5227 -0.1234 0.8435
vn -0.0129 -0.0170 0.9998
vn -0.5373 -0.0789 0.8397
vn -0.8543 -0.1074 0.5085
vn -0.8348 -0.1958 0.5145
vn -0.9748 -0.2223 0.0176
vn -0.9756 -0.2188 0.0174
vn -0.8294 -0.2031 0.5205
vn -0.8506 -0.0961 0.5170
vn -0.9954 -0.0961 0.0055
vn -0.9996 0.0255 -0.0105
vn -0.8707 0.0177 0.4914
vn -0.5118 -0.0713 0.8562
vn -0.5328 0.0052 0.8462
vn 0.0185 -0.0196 0.9996
vn -0.0117 -0.0027 0.9999
vn -0.9941 -0.1074 0.0141
vn -0.8592 0.0048 0.5116
vn -0.9996 0.0229 0.0191
vn -0.8534 0.1007 0.5114
vn -0.9905 0.1370 0.0145
vn -0.9905 0.1370 0.0143
vn -0.8769 0.0399 -0.4790
vn -0.9996 0.0229 0.0189
vn -0.8718 -0.0732 -0.4843
vn -0.9941 -0.1074 0.0139
vn -0.5070 -0.0717 -0.8589
vn -0.5177 -0.0127 -0.8555
vn -0.8567 -0.1737 -0.4857
vn -0.0199 0.0601 -0.9980
vn 0.0008 0.0627 -0.9980
vn 0.4902 0.1769 -0.8535
vn 0.0207 0.0452 -0.9988
vn -0.4944 -0.0659 -0.8667
vn 0.0102 0.0409 -0.9991
vn -0.4837 -0.0124 -0.8751
vn -0.4903 0.0373 -0.8708
vn -0.8593 -0.0649 -0.5074
vn -0.8533 -0.1715 -0.4924
vn -0.9748 -0.2223 0.0174
vn -0.9756 -0.2188 0.0172
vn -0.9954 -0.0961 0.0053
vn -0.8601 0.0321 -0.5092
vn -0.9996 0.0255 -0.0107
vt 0.174134 0.999979
vt 0.196732 0.905852
vt 0.173388 0.907663
vt 0.200137 0.999034
vt 0.147488 0.999765
vt 0.151542 0.907542
vt 0.122639 0.998433
vt 0.172774 0.791903
vt 0.151366 0.791390
vt 0.127564 0.906068
vt 0.097937 0.996370
vt 0.103597 0.903251
vt 0.127954 0.790325
vt 0.104592 0.788925
vt 0.129769 0.658367
vt 0.151184 0.659187
vt 0.151059 0.551985
vt 0.169432 0.552802
vt 0.170744 0.659452
vt 0.191598 0.659112
vt 0.188969 0.553844
vt 0.185290 0.434242
vt 0.208484 0.554662
vt 0.203215 0.433002
vt 0.202370 0.330590
vt 0.221103 0.431313
vt 0.219828 0.329250
vt 0.237132 0.327822
vt 0.241849 0.240219
vt 0.223254 0.241573
vt 0.259952 0.239723
vt 0.245524 0.204331
vt 0.268453 0.202209
vt 0.266697 0.177028
vt 0.242918 0.183371
vt 0.245902 0.147120
vt 0.231268 0.152698
vt 0.231588 0.121976
vt 0.219441 0.127099
vt 0.215190 0.156632
vt 0.206065 0.130669
vt 0.198663 0.159062
vt 0.191946 0.133015
vt 0.202886 0.188258
vt 0.184412 0.189037
vt 0.181960 0.160520
vt 0.166345 0.188942
vt 0.165128 0.161460
vt 0.177451 0.134500
vt 0.162827 0.135378
vt 0.149237 0.162080
vt 0.149191 0.135616
vt 0.131929 0.161121
vt 0.134246 0.135114
vt 0.114636 0.160115
vt 0.119199 0.134155
vt 0.112116 0.188202
vt 0.092925 0.187496
vt 0.097308 0.158672
vt 0.076534 0.185841
vt 0.083242 0.156490
vt 0.104269 0.132678
vt 0.092361 0.130615
vt 0.066857 0.152786
vt 0.078793 0.127110
vt 0.051830 0.146838
vt 0.066579 0.121978
vt 0.031371 0.177983
vt 0.055283 0.183099
vt 0.030179 0.203151
vt 0.040141 0.240766
vt 0.053209 0.204276
vt 0.058035 0.240110
vt 0.074606 0.206239
vt 0.076480 0.240559
vt 0.091392 0.207399
vt 0.111163 0.208477
vt 0.092075 0.241048
vt 0.080164 0.327858
vt 0.111107 0.242056
vt 0.095020 0.328619
vt 0.079885 0.429671
vt 0.094846 0.430701
vt 0.113286 0.329878
vt 0.113089 0.432181
vt 0.131685 0.331011
vt 0.130186 0.243043
vt 0.149301 0.243880
vt 0.130418 0.209088
vt 0.149468 0.209359
vt 0.166758 0.209316
vt 0.149613 0.188575
vt 0.130968 0.188671
vt 0.185441 0.209407
vt 0.166816 0.244407
vt 0.185611 0.243857
vt 0.204530 0.208617
vt 0.224389 0.206905
vt 0.222161 0.186494
vt 0.204455 0.242914
vt 0.184735 0.331589
vt 0.167197 0.434749
vt 0.166910 0.332032
vt 0.150179 0.434472
vt 0.150139 0.331803
vt 0.131569 0.433536
vt 0.110684 0.551677
vt 0.130849 0.551534
vt 0.108485 0.657162
vt 0.087347 0.655819
vt 0.081185 0.787434
vt 0.061801 0.786370
vt 0.070057 0.654765
vt 0.090515 0.552279
vt 0.074021 0.552901
vt 0.054362 0.553439
vt 0.049337 0.653710
vt 0.014539 0.784790
vt 0.028788 0.652887
vt 0.038302 0.785370
vt 0.035769 0.893944
vt 0.011855 0.892308
vt 0.000000 0.986967
vt 0.024484 0.989281
vt 0.059781 0.896757
vt 0.048842 0.991609
vt 0.079662 0.899609
vt 0.073239 0.994034
vt 0.034807 0.553439
vt 0.061969 0.428751
vt 0.044078 0.428213
vt 0.062553 0.327316
vt 0.045257 0.327230
vt 0.254349 0.326566
vt 0.238900 0.429441
vt 0.256658 0.427657
vt 0.247226 0.554265
vt 0.266620 0.552769
vt 0.232678 0.656435
vt 0.227850 0.554880
vt 0.253044 0.654511
vt 0.212217 0.658048
vt 0.218544 0.790419
vt 0.195645 0.791534
vt 0.219989 0.902688
vt 0.241555 0.788640
vt 0.225819 0.996941
vt 0.243285 0.898790
vt 0.251066 0.994035
vt 0.266779 0.894947
vt 0.264795 0.786441
vt 0.288384 0.784172
vt 0.273379 0.652521
vt 0.290490 0.891893
vt 0.275873 0.990691
vt 0.300333 0.987196
s 1
f 1/1/1 2/2/2 4/3/3
f 1/1/1 3/4/4 2/2/2
f 5/5/5 1/1/1 4/3/3
f 5/5/5 4/3/3 7/6/6
f 6/7/7 5/5/5 7/6/6
f 7/6/6 9/8/8 8/9/9
f 10/10/10 7/6/6 8/9/9
f 7/6/6 4/3/3 9/8/8
f 6/7/7 7/6/6 10/10/10
f 11/11/11 10/10/10 12/12/12
f 11/11/11 6/7/7 10/10/10
f 12/12/12 10/10/10 13/13/13
f 10/10/10 8/9/9 13/13/13
f 14/14/14 13/13/13 15/15/15
f 12/12/12 13/13/13 14/14/14
f 13/13/13 8/9/9 16/16/16
f 13/13/13 16/16/16 15/15/15
f 15/15/15 16/16/16 17/17/17
f 16/16/16 18/18/18 17/17/17
f 16/16/16 19/19/19 18/18/18
f 8/9/9 19/19/19 16/16/16
f 8/9/9 9/8/8 19/19/19
f 9/8/8 20/20/20 19/19/19
f 19/19/19 20/20/20 21/21/21
f 19/19/19 21/21/21 18/18/18
f 18/18/18 21/21/21 23/22/22
f 21/21/21 22/23/23 24/24/24
f 20/20/20 22/23/23 21/21/21
f 21/21/21 24/24/24 23/22/22
f 23/22/22 24/24/24 26/25/25
f 24/24/24 25/26/26 27/27/27
f 22/23/23 25/26/26 24/24/24
f 24/24/24 27/27/27 26/25/25
f 27/27/27 28/28/28 30/29/29
f 25/26/26 28/28/28 27/27/27
f 27/27/27 30/29/29 29/30/30
f 26/25/25 27/27/27 29/30/30
f 28/28/28 31/31/31 30/29/29
f 29/30/30 30/29/29 32/32/32
f 30/29/29 31/31/31 33/33/33
f 30/29/29 33/33/33 32/32/32
f 32/32/32 33/33/33 34/34/34
f 32/32/32 34/34/34 35/35/35
f 35/35/35 34/34/34 36/36/36
f 35/35/35 36/36/36 37/37/37
f 37/37/37 36/36/36 38/38/38
f 37/37/37 38/38/38 39/39/39
f 40/40/40 39/39/39 41/41/41
f 40/40/40 37/37/37 39/39/39
f 43/42/42 41/41/41 42/43/43
f 43/42/42 40/40/40 41/41/41
f 44/44/44 40/40/40 43/42/42
f 45/45/45 44/44/44 43/42/42
f 46/46/46 43/42/42 42/43/43
f 45/45/45 43/42/42 46/46/46
f 47/47/47 46/46/46 48/48/48
f 47/47/47 45/45/45 46/46/46
f 48/48/48 46/46/46 49/49/49
f 46/46/46 42/43/43 49/49/49
f 48/48/48 49/49/49 50/50/50
f 51/51/51 50/50/50 52/52/52
f 51/51/51 48/48/48 50/50/50
f 53/53/53 52/52/52 54/54/54
f 53/53/53 51/51/51 52/52/52
f 56/55/55 54/54/54 55/56/56
f 56/55/55 53/53/53 54/54/54
f 57/57/57 53/53/53 56/55/55
f 58/58/58 57/57/57 56/55/55
f 59/59/59 56/55/55 55/56/56
f 58/58/58 56/55/55 59/59/59
f 60/60/60 59/59/59 61/61/61
f 60/60/60 58/58/58 59/59/59
f 61/61/61 59/59/59 62/62/62
f 59/59/59 55/56/56 62/62/62
f 61/61/61 62/62/62 63/63/63
f 64/64/64 63/63/63 65/65/65
f 64/64/64 61/61/61 63/63/63
f 66/66/66 64/64/64 65/65/65
f 66/66/66 65/65/65 67/67/67
f 68/68/68 64/64/64 66/66/66
f 68/68/68 69/69/69 64/64/64
f 70/70/70 69/69/69 68/68/68
f 71/71/71 72/72/72 70/70/70
f 70/70/70 72/72/72 69/69/69
f 73/73/73 74/74/74 72/72/72
f 71/71/71 73/73/73 72/72/72
f 72/72/72 74/74/74 60/60/60
f 72/72/72 60/60/60 69/69/69
f 73/73/73 75/75/75 74/74/74
f 75/75/75 76/76/76 74/74/74
f 74/74/74 76/76/76 58/58/58
f 74/74/74 58/58/58 60/60/60
f 76/76/76 77/77/77 57/57/57
f 78/78/78 77/77/77 76/76/76
f 76/76/76 57/57/57 58/58/58
f 75/75/75 78/78/78 76/76/76
f 80/79/79 78/78/78 75/75/75
f 78/78/78 79/80/80 77/77/77
f 81/81/81 79/80/80 78/78/78
f 80/79/79 81/81/81 78/78/78
f 82/82/82 81/81/81 80/79/79
f 82/82/82 83/83/83 81/81/81
f 83/83/83 84/84/84 81/81/81
f 81/81/81 84/84/84 79/80/80
f 83/83/83 85/85/85 84/84/84
f 85/85/85 86/86/86 84/84/84
f 84/84/84 86/86/86 87/87/87
f 84/84/84 87/87/87 79/80/80
f 86/86/86 88/88/88 87/87/87
f 79/80/80 87/87/87 89/89/89
f 87/87/87 88/88/88 90/90/90
f 87/87/87 90/90/90 89/89/89
f 90/90/90 91/91/91 47/47/47
f 88/88/88 91/91/91 90/90/90
f 89/89/89 90/90/90 92/92/92
f 90/90/90 47/47/47 92/92/92
f 89/89/89 92/92/92 93/93/93
f 93/93/93 92/92/92 51/51/51
f 92/92/92 48/48/48 51/51/51
f 92/92/92 47/47/47 48/48/48
f 77/77/77 93/93/93 57/57/57
f 57/57/57 93/93/93 53/53/53
f 77/77/77 89/89/89 93/93/93
f 93/93/93 51/51/51 53/53/53
f 91/91/91 45/45/45 47/47/47
f 91/91/91 95/94/94 45/45/45
f 88/88/88 94/95/95 91/91/91
f 94/95/95 95/94/94 91/91/91
f 96/96/96 97/97/97 95/94/94
f 94/95/95 96/96/96 95/94/94
f 95/94/94 97/97/97 44/44/44
f 95/94/94 44/44/44 45/45/45
f 97/97/97 98/98/98 99/99/99
f 100/100/100 98/98/98 97/97/97
f 97/97/97 99/99/99 44/44/44
f 96/96/96 100/100/100 97/97/97
f 101/101/101 100/100/100 96/96/96
f 100/100/100 29/30/30 98/98/98
f 26/25/25 29/30/30 100/100/100
f 101/101/101 26/25/25 100/100/100
f 23/22/22 26/25/25 101/101/101
f 102/102/102 23/22/22 101/101/101
f 102/102/102 101/101/101 103/103/103
f 103/103/103 101/101/101 96/96/96
f 104/104/104 102/102/102 103/103/103
f 104/104/104 103/103/103 105/105/105
f 105/105/105 103/103/103 94/95/95
f 103/103/103 96/96/96 94/95/95
f 86/86/86 105/105/105 88/88/88
f 106/106/106 105/105/105 86/86/86
f 105/105/105 94/95/95 88/88/88
f 106/106/106 104/104/104 105/105/105
f 85/85/85 106/106/106 86/86/86
f 107/107/107 106/106/106 85/85/85
f 108/108/108 104/104/104 106/106/106
f 107/107/107 108/108/108 106/106/106
f 109/109/109 108/108/108 107/107/107
f 109/109/109 15/15/15 108/108/108
f 15/15/15 17/17/17 108/108/108
f 108/108/108 17/17/17 104/104/104
f 14/14/14 15/15/15 109/109/109
f 111/110/110 109/109/109 107/107/107
f 110/111/111 109/109/109 111/110/110
f 110/111/111 14/14/14 109/109/109
f 112/112/112 111/110/110 113/113/113
f 112/112/112 110/111/111 111/110/110
f 113/113/113 111/110/110 114/114/114
f 111/110/110 107/107/107 114/114/114
f 115/115/115 114/114/114 83/83/83
f 113/113/113 114/114/114 115/115/115
f 114/114/114 107/107/107 85/85/85
f 114/114/114 85/85/85 83/83/83
f 116/116/116 115/115/115 82/82/82
f 117/117/117 115/115/115 116/116/116
f 115/115/115 83/83/83 82/82/82
f 117/117/117 113/113/113 115/115/115
f 118/118/118 117/117/117 119/119/119
f 118/118/118 120/120/120 117/117/117
f 119/119/119 117/117/117 116/116/116
f 120/120/120 113/113/113 117/117/117
f 121/121/121 112/112/112 120/120/120
f 122/122/122 121/121/121 120/120/120
f 122/122/122 120/120/120 118/118/118
f 120/120/120 112/112/112 113/113/113
f 123/123/123 121/121/121 122/122/122
f 123/123/123 124/124/124 121/121/121
f 124/124/124 125/125/125 121/121/121
f 124/124/124 126/126/126 125/125/125
f 126/126/126 127/127/127 125/125/125
f 126/126/126 128/128/128 127/127/127
f 128/128/128 12/12/12 127/127/127
f 128/128/128 11/11/11 12/12/12
f 125/125/125 127/127/127 110/111/111
f 127/127/127 12/12/12 14/14/14
f 127/127/127 14/14/14 110/111/111
f 125/125/125 110/111/111 112/112/112
f 121/121/121 125/125/125 112/112/112
f 119/119/119 116/116/116 129/129/129
f 129/129/129 116/116/116 130/130/130
f 129/129/129 130/130/130 131/131/131
f 131/131/131 130/130/130 132/132/132
f 131/131/131 132/132/132 133/133/133
f 133/133/133 132/132/132 73/73/73
f 133/133/133 73/73/73 71/71/71
f 132/132/132 80/79/79 75/75/75
f 130/130/130 80/79/79 132/132/132
f 132/132/132 75/75/75 73/73/73
f 116/116/116 82/82/82 130/130/130
f 130/130/130 82/82/82 80/79/79
f 17/17/17 102/102/102 104/104/104
f 18/18/18 23/22/22 102/102/102
f 17/17/17 18/18/18 102/102/102
f 44/44/44 99/99/99 40/40/40
f 99/99/99 37/37/37 40/40/40
f 99/99/99 35/35/35 37/37/37
f 98/98/98 35/35/35 99/99/99
f 98/98/98 32/32/32 35/35/35
f 29/30/30 32/32/32 98/98/98
f 79/80/80 89/89/89 77/77/77
f 69/69/69 61/61/61 64/64/64
f 69/69/69 60/60/60 61/61/61
f 28/28/28 134/134/134 31/31/31
f 135/135/135 134/134/134 28/28/28
f 135/135/135 136/136/136 134/134/134
f 138/137/137 137/138/138 136/136/136
f 138/137/137 136/136/136 135/135/135
f 139/139/139 138/137/137 141/140/140
f 139/139/139 140/141/141 138/137/137
f 140/141/141 137/138/138 138/137/137
f 141/140/140 138/137/137 135/135/135
f 142/142/142 141/140/140 22/23/23
f 142/142/142 139/139/139 141/140/140
f 22/23/23 141/140/140 25/26/26
f 141/140/140 135/135/135 25/26/26
f 144/143/143 139/139/139 142/142/142
f 20/20/20 142/142/142 22/23/23
f 143/144/144 142/142/142 20/20/20
f 143/144/144 144/143/143 142/142/142
f 2/2/2 144/143/143 143/144/144
f 2/2/2 146/145/145 144/143/143
f 144/143/143 145/146/146 139/139/139
f 146/145/145 145/146/146 144/143/143
f 3/4/4 146/145/145 2/2/2
f 3/4/4 147/147/147 146/145/145
f 147/147/147 148/148/148 146/145/145
f 146/145/145 148/148/148 145/146/146
f 147/147/147 149/149/149 148/148/148
f 149/149/149 150/150/150 148/148/148
f 148/148/148 150/150/150 151/151/151
f 148/148/148 151/151/151 145/146/146
f 150/150/150 152/152/152 151/151/151
f 145/146/146 151/151/151 140/141/141
f 151/151/151 152/152/152 153/153/153
f 151/151/151 153/153/153 140/141/141
f 140/141/141 153/153/153 137/138/138
f 150/150/150 154/154/154 152/152/152
f 156/155/155 154/154/154 150/150/150
f 156/155/155 155/156/156 154/154/154
f 149/149/149 156/155/155 150/150/150
f 145/146/146 140/141/141 139/139/139
f 4/3/3 2/2/2 143/144/144
f 9/8/8 143/144/144 20/20/20
f 4/3/3 143/144/144 9/8/8
f 25/26/26 135/135/135 28/28/28
