# Blender 5.1.2
# www.blender.org
o Object_7.002
v -0.205647 -0.031155 -1.041434
v -0.206436 -0.027452 -1.038334
v -0.204968 -0.024326 -1.045558
v -0.206233 -0.022588 -1.037845
v -0.204968 -0.024326 -1.045558
v -0.205117 -0.018420 -1.040154
v -0.204968 -0.024326 -1.045558
v -0.203514 -0.016541 -1.044377
v -0.204968 -0.024326 -1.045558
v -0.202035 -0.017669 -1.048904
v -0.204968 -0.024326 -1.045558
v -0.201246 -0.021372 -1.052003
v -0.204968 -0.024326 -1.045558
v -0.201448 -0.026236 -1.052492
v -0.204968 -0.024326 -1.045558
v -0.202564 -0.030404 -1.050183
v -0.204968 -0.024326 -1.045558
v -0.204168 -0.032283 -1.045960
v -0.204968 -0.024326 -1.045558
v -0.205647 -0.031155 -1.041434
v -0.204968 -0.024326 -1.045558
v 0.206598 -0.032405 -1.048253
v 0.205749 -0.028167 -1.050546
v 0.209018 -0.026487 -1.043432
v 0.205711 -0.023305 -1.049994
v 0.209018 -0.026487 -1.043432
v 0.206498 -0.019677 -1.046807
v 0.209018 -0.026487 -1.043432
v 0.207810 -0.018668 -1.042202
v 0.209018 -0.026487 -1.043432
v 0.209146 -0.020664 -1.037938
v 0.209018 -0.026487 -1.043432
v 0.209995 -0.024902 -1.035645
v 0.209018 -0.026487 -1.043432
v 0.210033 -0.029764 -1.036197
v 0.209018 -0.026487 -1.043432
v 0.209245 -0.033392 -1.039384
v 0.209018 -0.026487 -1.043432
v 0.207933 -0.034401 -1.043989
v 0.209018 -0.026487 -1.043432
v 0.206598 -0.032405 -1.048253
v 0.209018 -0.026487 -1.043432
v -0.180370 -0.047381 -1.023638
v -0.182798 -0.035984 -1.014099
v -0.190328 -0.035922 -1.015478
v -0.187775 -0.047906 -1.025508
v -0.182176 -0.021012 -1.012594
v -0.189674 -0.020180 -1.013895
v -0.178741 -0.008186 -1.019699
v -0.186062 -0.006694 -1.021365
v -0.173805 -0.002403 -1.032698
v -0.180873 -0.000613 -1.035034
v -0.169255 -0.005873 -1.046628
v -0.176087 -0.004262 -1.049680
v -0.166826 -0.017270 -1.056167
v -0.173534 -0.016246 -1.059711
v -0.167449 -0.032242 -1.057672
v -0.174189 -0.031987 -1.061293
v -0.170883 -0.045068 -1.050568
v -0.177800 -0.045474 -1.053823
v -0.175819 -0.050851 -1.037568
v -0.182990 -0.051554 -1.040154
v -0.180370 -0.047381 -1.023638
v -0.187775 -0.047906 -1.025508
v -0.197036 -0.034897 -1.019021
v -0.194608 -0.046295 -1.028560
v -0.196414 -0.019926 -1.017516
v -0.192979 -0.007099 -1.024621
v -0.188043 -0.001317 -1.037620
v -0.183492 -0.004787 -1.051550
v -0.181064 -0.016184 -1.061089
v -0.181687 -0.031155 -1.062594
v -0.185121 -0.043982 -1.055490
v -0.190057 -0.049765 -1.042490
v -0.194608 -0.046295 -1.028560
v -0.202265 -0.033010 -1.024383
v -0.200200 -0.042705 -1.032497
v -0.201736 -0.020274 -1.023103
v -0.198814 -0.009363 -1.029146
v -0.194616 -0.004444 -1.040204
v -0.190745 -0.007396 -1.052053
v -0.188679 -0.017091 -1.060168
v -0.189208 -0.029827 -1.061448
v -0.192130 -0.040738 -1.055405
v -0.196328 -0.045657 -1.044347
v -0.200200 -0.042705 -1.032497
v -0.205504 -0.030444 -1.031038
v -0.204003 -0.037488 -1.036933
v -0.205120 -0.021192 -1.030108
v -0.202997 -0.013264 -1.034498
v -0.199947 -0.009690 -1.042532
v -0.197134 -0.011835 -1.051141
v -0.195633 -0.018879 -1.057037
v -0.196018 -0.028132 -1.057967
v -0.198141 -0.036059 -1.053576
v -0.201191 -0.039633 -1.045542
v -0.204003 -0.037488 -1.036933
v 0.174429 -0.045819 -1.050290
v 0.171817 -0.032775 -1.057348
v 0.178721 -0.032735 -1.060657
v 0.181467 -0.046450 -1.053235
v 0.171700 -0.017812 -1.055648
v 0.178598 -0.017003 -1.058869
v 0.174124 -0.006646 -1.045839
v 0.181146 -0.005261 -1.048555
v 0.178162 -0.003541 -1.031667
v 0.185392 -0.001996 -1.033654
v 0.182272 -0.009683 -1.018546
v 0.189713 -0.008455 -1.019857
v 0.184884 -0.022727 -1.011487
v 0.192460 -0.022170 -1.012435
v 0.185001 -0.037689 -1.013187
v 0.192583 -0.037903 -1.014223
v 0.182577 -0.048856 -1.022997
v 0.190035 -0.049644 -1.024537
v 0.178539 -0.051961 -1.037168
v 0.185789 -0.052909 -1.039438
v 0.174429 -0.045819 -1.050290
v 0.181467 -0.046450 -1.053235
v 0.186297 -0.032178 -1.061605
v 0.188909 -0.045222 -1.054546
v 0.186180 -0.017216 -1.059905
v 0.188603 -0.006049 -1.050095
v 0.192641 -0.002944 -1.035923
v 0.196751 -0.009086 -1.022802
v 0.199363 -0.022130 -1.015743
v 0.199480 -0.037093 -1.017443
v 0.197057 -0.048260 -1.027253
v 0.193019 -0.051365 -1.041425
v 0.188909 -0.045222 -1.054546
v 0.193803 -0.031159 -1.060100
v 0.196026 -0.042255 -1.054095
v 0.193704 -0.018431 -1.058654
v 0.195765 -0.008932 -1.050309
v 0.199200 -0.006291 -1.038254
v 0.202697 -0.011516 -1.027092
v 0.204919 -0.022611 -1.021088
v 0.205018 -0.035340 -1.022534
v 0.202957 -0.044838 -1.030878
v 0.199522 -0.047480 -1.042934
v 0.196026 -0.042255 -1.054095
v 0.200506 -0.029777 -1.056289
v 0.202121 -0.037838 -1.051926
v 0.200434 -0.020529 -1.055238
v 0.201932 -0.013628 -1.049176
v 0.204427 -0.011709 -1.040417
v 0.206968 -0.015505 -1.032308
v 0.208582 -0.023567 -1.027945
v 0.208654 -0.032814 -1.028996
v 0.207156 -0.039715 -1.035059
v 0.204661 -0.041635 -1.043817
v 0.202121 -0.037838 -1.051926
vn -0.9658 -0.2075 -0.1557
vn -0.9980 -0.0561 -0.0290
vn -0.9427 0.0719 -0.3258
vn -0.9897 0.1426 -0.0091
vn -0.9442 0.3129 -0.1034
vn -0.9427 0.0720 -0.3258
vn -0.8786 0.3897 -0.2760
vn -0.9427 0.0720 -0.3259
vn -0.8182 0.3436 -0.4610
vn -0.9427 0.0721 -0.3259
vn -0.7859 0.1923 -0.5877
vn -0.9426 0.0720 -0.3259
vn -0.7942 -0.0065 -0.6076
vn -0.9426 0.0719 -0.3260
vn -0.8398 -0.1768 -0.5133
vn -0.9053 -0.2536 -0.3408
vn -0.9427 0.0719 -0.3259
vn -0.9657 -0.2076 -0.1558
vn -0.9427 0.0718 -0.3259
vn 0.8550 -0.2025 -0.4774
vn 0.8203 -0.0293 -0.5711
vn 0.9586 0.0395 -0.2819
vn 0.8188 0.1694 -0.5486
vn 0.8510 0.3176 -0.4183
vn 0.9586 0.0396 -0.2819
vn 0.9046 0.3589 -0.2301
vn 0.9587 0.0396 -0.2818
vn 0.9591 0.2773 -0.0559
vn 0.9938 0.1041 0.0378
vn 0.9587 0.0395 -0.2816
vn 0.9954 -0.0947 0.0153
vn 0.9587 0.0395 -0.2817
vn 0.9632 -0.2429 -0.1150
vn 0.9587 0.0394 -0.2817
vn 0.9096 -0.2841 -0.3031
vn 0.9587 0.0393 -0.2818
vn 0.8550 -0.2026 -0.4774
vn 0.9587 0.0394 -0.2818
vn -0.0706 -0.8520 0.5188
vn -0.1689 -0.3906 0.9049
vn -0.3277 -0.3840 0.8632
vn -0.2281 -0.8517 0.4718
vn -0.1437 0.2155 0.9659
vn -0.3022 0.2304 0.9250
vn -0.0046 0.7348 0.6782
vn -0.1612 0.7568 0.6334
vn 0.1952 0.9689 0.1520
vn 0.0413 0.9941 0.0999
vn 0.3794 0.8285 -0.4120
vn 0.2281 0.8517 -0.4717
vn 0.4777 0.3670 -0.7982
vn 0.3277 0.3840 -0.8632
vn 0.4525 -0.2391 -0.8591
vn 0.3022 -0.2304 -0.9250
vn 0.3134 -0.7584 -0.5715
vn 0.1612 -0.7568 -0.6334
vn 0.1136 -0.9925 -0.0452
vn -0.0413 -0.9941 -0.0999
vn -0.0705 -0.8521 0.5186
vn -0.2281 -0.8518 0.4716
vn -0.6058 -0.3423 0.7182
vn -0.5112 -0.7866 0.3464
vn -0.5816 0.2414 0.7769
vn -0.4476 0.7414 0.4999
vn -0.2552 0.9669 -0.0069
vn -0.0778 0.8316 -0.5499
vn 0.0168 0.3873 -0.9218
vn -0.0075 -0.1964 -0.9805
vn -0.1413 -0.6965 -0.7035
vn -0.3337 -0.9219 -0.1967
vn -0.5111 -0.7867 0.3462
vn -0.8211 -0.2675 0.5043
vn -0.7406 -0.6449 0.1886
vn -0.8005 0.2285 0.5542
vn -0.6866 0.6533 0.3189
vn -0.5231 0.8449 -0.1117
vn -0.3724 0.7299 -0.5731
vn -0.2920 0.3524 -0.8891
vn -0.3126 -0.1435 -0.9390
vn -0.4264 -0.5684 -0.7037
vn -0.5899 -0.7599 -0.2731
vn -0.7406 -0.6450 0.1883
vn -0.9543 -0.1687 0.2467
vn -0.8955 -0.4448 0.0157
vn -0.9393 0.1941 0.2831
vn -0.8560 0.5049 0.1110
vn -0.7364 0.6450 -0.2040
vn -0.6261 0.5609 -0.5416
vn -0.5673 0.2848 -0.7727
vn -0.5824 -0.0780 -0.8092
vn -0.6656 -0.3888 -0.6370
vn -0.7852 -0.5289 -0.3220
vn -0.8954 -0.4449 0.0154
vn -0.3158 -0.7379 -0.5965
vn -0.4216 -0.2098 -0.8822
vn -0.2681 -0.2062 -0.9411
vn -0.1610 -0.7414 -0.6515
vn -0.4263 0.3959 -0.8134
vn -0.2729 0.4079 -0.8713
vn -0.3282 0.8480 -0.4162
vn -0.1735 0.8661 -0.4687
vn -0.1647 0.9737 0.1576
vn -0.0078 0.9936 0.1129
vn 0.0017 0.7250 0.6887
vn 0.1609 0.7415 0.6514
vn 0.1075 0.1969 0.9745
vn 0.2681 0.2062 0.9411
vn 0.1122 -0.4088 0.9057
vn 0.2729 -0.4079 0.8713
vn 0.0140 -0.8609 0.5085
vn 0.1734 -0.8661 0.4687
vn -0.1494 -0.9866 -0.0652
vn 0.0077 -0.9936 -0.1129
vn -0.3158 -0.7380 -0.5964
vn -0.1609 -0.7416 -0.6513
vn 0.0448 -0.1835 -0.9820
vn 0.1466 -0.6920 -0.7069
vn 0.0402 0.3998 -0.9157
vn 0.1347 0.8351 -0.5333
vn 0.2922 0.9562 0.0192
vn 0.4523 0.7167 0.5307
vn 0.5542 0.2082 0.8059
vn 0.5587 -0.3751 0.7397
vn 0.4643 -0.8105 0.3572
vn 0.3068 -0.9315 -0.1953
vn 0.1466 -0.6922 -0.7067
vn 0.3496 -0.1431 -0.9259
vn 0.4360 -0.5751 -0.6923
vn 0.3457 0.3525 -0.8696
vn 0.4260 0.7224 -0.5447
vn 0.5597 0.8253 -0.0753
vn 0.6959 0.6218 0.3594
vn 0.7824 0.1897 0.5932
vn 0.7863 -0.3059 0.5369
vn 0.7060 -0.6757 0.2120
vn 0.5722 -0.7786 -0.2575
vn 0.4361 -0.5752 -0.6921
vn 0.6154 -0.0899 -0.7831
vn 0.6787 -0.4059 -0.6121
vn 0.6126 0.2727 -0.7419
vn 0.6713 0.5433 -0.5042
vn 0.7691 0.6185 -0.1608
vn 0.8687 0.4697 0.1571
vn 0.9320 0.1536 0.3282
vn 0.9349 -0.2090 0.2870
vn 0.8762 -0.4795 0.0493
vn 0.7783 -0.5548 -0.2941
vn 0.6788 -0.4061 -0.6119
vt 0.276010 0.889302
vt 0.276010 0.813459
vt 0.214035 0.851381
vt 0.276010 0.737616
vt 0.214035 0.775537
vt 0.276010 0.661773
vt 0.214035 0.699695
vt 0.276010 0.585930
vt 0.214035 0.623852
vt 0.276010 0.510087
vt 0.214035 0.548009
vt 0.276010 0.434244
vt 0.214035 0.472166
vt 0.276010 0.358401
vt 0.214035 0.396323
vt 0.276010 0.282558
vt 0.214035 0.320480
vt 0.276010 0.206715
vt 0.214035 0.244637
vt 0.276010 0.130872
vt 0.214035 0.168794
vt 0.585886 0.889302
vt 0.585886 0.813459
vt 0.523911 0.813459
vt 0.523911 0.889302
vt 0.585886 0.737616
vt 0.523911 0.737616
vt 0.585886 0.661773
vt 0.523910 0.661773
vt 0.585886 0.585930
vt 0.523910 0.585930
vt 0.585886 0.510087
vt 0.523911 0.510087
vt 0.585886 0.434244
vt 0.523911 0.434244
vt 0.585886 0.358401
vt 0.523911 0.358401
vt 0.585886 0.282558
vt 0.523911 0.282558
vt 0.585886 0.206715
vt 0.523911 0.206715
vt 0.585886 0.130872
vt 0.523911 0.130872
vt 0.461935 0.813459
vt 0.461935 0.889302
vt 0.461935 0.737616
vt 0.461936 0.661773
vt 0.461935 0.585930
vt 0.461935 0.510087
vt 0.461935 0.434244
vt 0.461935 0.358401
vt 0.461936 0.282558
vt 0.461935 0.206715
vt 0.461936 0.130872
vt 0.399960 0.813459
vt 0.399960 0.889302
vt 0.399960 0.737616
vt 0.399960 0.661773
vt 0.399960 0.585930
vt 0.399960 0.510087
vt 0.399960 0.434244
vt 0.399960 0.358401
vt 0.399960 0.282558
vt 0.399960 0.206715
vt 0.399960 0.130872
vt 0.337985 0.813459
vt 0.337985 0.889302
vt 0.337985 0.737616
vt 0.337985 0.661773
vt 0.337985 0.585930
vt 0.337985 0.510087
vt 0.337985 0.434244
vt 0.337985 0.358401
vt 0.337985 0.282558
vt 0.337985 0.206715
vt 0.337985 0.130872
vt 0.523911 0.661773
s 1
f 1/1/1 2/2/2 3/3/3
f 2/2/2 4/4/4 5/5/3
f 4/4/4 6/6/5 7/7/6
f 6/6/5 8/8/7 9/9/8
f 8/8/7 10/10/9 11/11/10
f 10/10/9 12/12/11 13/13/12
f 12/12/11 14/14/13 15/15/14
f 14/14/13 16/16/15 17/17/14
f 16/16/15 18/18/16 19/19/17
f 18/18/16 20/20/18 21/21/19
f 22/1/20 23/2/21 24/3/22
f 23/2/21 25/4/23 26/5/22
f 25/4/23 27/6/24 28/7/25
f 27/6/24 29/8/26 30/9/27
f 29/8/26 31/10/28 32/11/27
f 31/10/28 33/12/29 34/13/30
f 33/12/29 35/14/31 36/15/32
f 35/14/31 37/16/33 38/17/34
f 37/16/33 39/18/35 40/19/36
f 39/18/35 41/20/37 42/21/38
f 43/22/39 44/23/40 45/24/41
f 43/22/39 45/24/41 46/25/42
f 44/23/40 47/26/43 48/27/44
f 44/23/40 48/27/44 45/24/41
f 47/26/43 49/28/45 50/29/46
f 47/26/43 50/29/46 48/27/44
f 49/28/45 51/30/47 52/31/48
f 49/28/45 52/31/48 50/29/46
f 51/30/47 53/32/49 54/33/50
f 51/30/47 54/33/50 52/31/48
f 53/32/49 55/34/51 56/35/52
f 53/32/49 56/35/52 54/33/50
f 55/34/51 57/36/53 58/37/54
f 55/34/51 58/37/54 56/35/52
f 57/36/53 59/38/55 60/39/56
f 57/36/53 60/39/56 58/37/54
f 59/38/55 61/40/57 62/41/58
f 59/38/55 62/41/58 60/39/56
f 61/40/57 63/42/59 64/43/60
f 61/40/57 64/43/60 62/41/58
f 46/25/42 45/24/41 65/44/61
f 46/25/42 65/44/61 66/45/62
f 45/24/41 48/27/44 67/46/63
f 45/24/41 67/46/63 65/44/61
f 48/27/44 50/29/46 68/47/64
f 48/27/44 68/47/64 67/46/63
f 50/29/46 52/31/48 69/48/65
f 50/29/46 69/48/65 68/47/64
f 52/31/48 54/33/50 70/49/66
f 52/31/48 70/49/66 69/48/65
f 54/33/50 56/35/52 71/50/67
f 54/33/50 71/50/67 70/49/66
f 56/35/52 58/37/54 72/51/68
f 56/35/52 72/51/68 71/50/67
f 58/37/54 60/39/56 73/52/69
f 58/37/54 73/52/69 72/51/68
f 60/39/56 62/41/58 74/53/70
f 60/39/56 74/53/70 73/52/69
f 62/41/58 64/43/60 75/54/71
f 62/41/58 75/54/71 74/53/70
f 66/45/62 65/44/61 76/55/72
f 66/45/62 76/55/72 77/56/73
f 65/44/61 67/46/63 78/57/74
f 65/44/61 78/57/74 76/55/72
f 67/46/63 68/47/64 79/58/75
f 67/46/63 79/58/75 78/57/74
f 68/47/64 69/48/65 80/59/76
f 68/47/64 80/59/76 79/58/75
f 69/48/65 70/49/66 81/60/77
f 69/48/65 81/60/77 80/59/76
f 70/49/66 71/50/67 82/61/78
f 70/49/66 82/61/78 81/60/77
f 71/50/67 72/51/68 83/62/79
f 71/50/67 83/62/79 82/61/78
f 72/51/68 73/52/69 84/63/80
f 72/51/68 84/63/80 83/62/79
f 73/52/69 74/53/70 85/64/81
f 73/52/69 85/64/81 84/63/80
f 74/53/70 75/54/71 86/65/82
f 74/53/70 86/65/82 85/64/81
f 77/56/73 76/55/72 87/66/83
f 77/56/73 87/66/83 88/67/84
f 76/55/72 78/57/74 89/68/85
f 76/55/72 89/68/85 87/66/83
f 78/57/74 79/58/75 90/69/86
f 78/57/74 90/69/86 89/68/85
f 79/58/75 80/59/76 91/70/87
f 79/58/75 91/70/87 90/69/86
f 80/59/76 81/60/77 92/71/88
f 80/59/76 92/71/88 91/70/87
f 81/60/77 82/61/78 93/72/89
f 81/60/77 93/72/89 92/71/88
f 82/61/78 83/62/79 94/73/90
f 82/61/78 94/73/90 93/72/89
f 83/62/79 84/63/80 95/74/91
f 83/62/79 95/74/91 94/73/90
f 84/63/80 85/64/81 96/75/92
f 84/63/80 96/75/92 95/74/91
f 85/64/81 86/65/82 97/76/93
f 85/64/81 97/76/93 96/75/92
f 88/67/84 87/66/83 2/2/2
f 88/67/84 2/2/2 1/1/1
f 87/66/83 89/68/85 4/4/4
f 87/66/83 4/4/4 2/2/2
f 89/68/85 90/69/86 6/6/5
f 89/68/85 6/6/5 4/4/4
f 90/69/86 91/70/87 8/8/7
f 90/69/86 8/8/7 6/6/5
f 91/70/87 92/71/88 10/10/9
f 91/70/87 10/10/9 8/8/7
f 92/71/88 93/72/89 12/12/11
f 92/71/88 12/12/11 10/10/9
f 93/72/89 94/73/90 14/14/13
f 93/72/89 14/14/13 12/12/11
f 94/73/90 95/74/91 16/16/15
f 94/73/90 16/16/15 14/14/13
f 95/74/91 96/75/92 18/18/16
f 95/74/91 18/18/16 16/16/15
f 96/75/92 97/76/93 20/20/18
f 96/75/92 20/20/18 18/18/16
f 98/22/94 99/23/95 100/24/96
f 98/22/94 100/24/96 101/25/97
f 99/23/95 102/26/98 103/27/99
f 99/23/95 103/27/99 100/24/96
f 102/26/98 104/28/100 105/77/101
f 102/26/98 105/77/101 103/27/99
f 104/28/100 106/30/102 107/31/103
f 104/28/100 107/31/103 105/77/101
f 106/30/102 108/32/104 109/33/105
f 106/30/102 109/33/105 107/31/103
f 108/32/104 110/34/106 111/35/107
f 108/32/104 111/35/107 109/33/105
f 110/34/106 112/36/108 113/37/109
f 110/34/106 113/37/109 111/35/107
f 112/36/108 114/38/110 115/39/111
f 112/36/108 115/39/111 113/37/109
f 114/38/110 116/40/112 117/41/113
f 114/38/110 117/41/113 115/39/111
f 116/40/112 118/42/114 119/43/115
f 116/40/112 119/43/115 117/41/113
f 101/25/97 100/24/96 120/44/116
f 101/25/97 120/44/116 121/45/117
f 100/24/96 103/27/99 122/46/118
f 100/24/96 122/46/118 120/44/116
f 103/27/99 105/77/101 123/47/119
f 103/27/99 123/47/119 122/46/118
f 105/77/101 107/31/103 124/48/120
f 105/77/101 124/48/120 123/47/119
f 107/31/103 109/33/105 125/49/121
f 107/31/103 125/49/121 124/48/120
f 109/33/105 111/35/107 126/50/122
f 109/33/105 126/50/122 125/49/121
f 111/35/107 113/37/109 127/51/123
f 111/35/107 127/51/123 126/50/122
f 113/37/109 115/39/111 128/52/124
f 113/37/109 128/52/124 127/51/123
f 115/39/111 117/41/113 129/53/125
f 115/39/111 129/53/125 128/52/124
f 117/41/113 119/43/115 130/54/126
f 117/41/113 130/54/126 129/53/125
f 121/45/117 120/44/116 131/55/127
f 121/45/117 131/55/127 132/56/128
f 120/44/116 122/46/118 133/57/129
f 120/44/116 133/57/129 131/55/127
f 122/46/118 123/47/119 134/58/130
f 122/46/118 134/58/130 133/57/129
f 123/47/119 124/48/120 135/59/131
f 123/47/119 135/59/131 134/58/130
f 124/48/120 125/49/121 136/60/132
f 124/48/120 136/60/132 135/59/131
f 125/49/121 126/50/122 137/61/133
f 125/49/121 137/61/133 136/60/132
f 126/50/122 127/51/123 138/62/134
f 126/50/122 138/62/134 137/61/133
f 127/51/123 128/52/124 139/63/135
f 127/51/123 139/63/135 138/62/134
f 128/52/124 129/53/125 140/64/136
f 128/52/124 140/64/136 139/63/135
f 129/53/125 130/54/126 141/65/137
f 129/53/125 141/65/137 140/64/136
f 132/56/128 131/55/127 142/66/138
f 132/56/128 142/66/138 143/67/139
f 131/55/127 133/57/129 144/68/140
f 131/55/127 144/68/140 142/66/138
f 133/57/129 134/58/130 145/69/141
f 133/57/129 145/69/141 144/68/140
f 134/58/130 135/59/131 146/70/142
f 134/58/130 146/70/142 145/69/141
f 135/59/131 136/60/132 147/71/143
f 135/59/131 147/71/143 146/70/142
f 136/60/132 137/61/133 148/72/144
f 136/60/132 148/72/144 147/71/143
f 137/61/133 138/62/134 149/73/145
f 137/61/133 149/73/145 148/72/144
f 138/62/134 139/63/135 150/74/146
f 138/62/134 150/74/146 149/73/145
f 139/63/135 140/64/136 151/75/147
f 139/63/135 151/75/147 150/74/146
f 140/64/136 141/65/137 152/76/148
f 140/64/136 152/76/148 151/75/147
f 143/67/139 142/66/138 23/2/21
f 143/67/139 23/2/21 22/1/20
f 142/66/138 144/68/140 25/4/23
f 142/66/138 25/4/23 23/2/21
f 144/68/140 145/69/141 27/6/24
f 144/68/140 27/6/24 25/4/23
f 145/69/141 146/70/142 29/8/26
f 145/69/141 29/8/26 27/6/24
f 146/70/142 147/71/143 31/10/28
f 146/70/142 31/10/28 29/8/26
f 147/71/143 148/72/144 33/12/29
f 147/71/143 33/12/29 31/10/28
f 148/72/144 149/73/145 35/14/31
f 148/72/144 35/14/31 33/12/29
f 149/73/145 150/74/146 37/16/33
f 149/73/145 37/16/33 35/14/31
f 150/74/146 151/75/147 39/18/35
f 150/74/146 39/18/35 37/16/33
f 151/75/147 152/76/148 41/20/37
f 151/75/147 41/20/37 39/18/35
