# Blender 5.1.2
# www.blender.org
o Raft_Raft_0.013
v -0.059834 2.964646 0.073399
v -0.021549 2.964646 0.095900
v -0.046166 -0.061092 0.095900
v -0.085415 2.964646 0.039723
v -0.084451 -0.061092 0.073399
v -0.061869 3.270180 0.073399
v -0.023584 3.270181 0.095900
v -0.046166 4.322521 0.095900
v -0.001005 4.322521 0.103801
v 0.021577 3.270182 0.103801
v 0.023612 2.964646 0.103801
v 0.066738 3.270181 0.095900
v 0.044156 4.322521 0.095900
v 0.082441 4.322521 0.073399
v 0.042756 4.326513 0.092092
v 0.079739 4.326513 0.070356
v 0.104320 4.326513 0.037998
v 0.108022 4.322521 0.039723
v 0.112912 4.326513 -0.000000
v 0.117005 4.322521 -0.000000
v 0.108022 4.322521 -0.039723
v 0.104320 4.326513 -0.037998
v 0.082441 4.322521 -0.073399
v 0.079739 4.326513 -0.070356
v 0.042756 4.326513 -0.092092
v 0.044156 4.322521 -0.095900
v 0.066738 3.270181 -0.095900
v -0.001005 4.322521 -0.103802
v 0.021577 3.270182 -0.103801
v -0.021549 2.964646 -0.095900
v 0.023612 2.964646 -0.103801
v -0.023584 3.270181 -0.095900
v -0.046166 4.322521 -0.095900
v -0.059834 2.964646 -0.073399
v -0.061869 3.270180 -0.073399
v -0.084451 4.322521 -0.073399
v -0.085415 2.964646 -0.039723
v -0.087450 3.270179 -0.039723
v -0.110032 4.322521 -0.039723
v -0.094398 2.964646 -0.000000
v -0.096433 3.270178 -0.000000
v -0.119015 4.322521 -0.000000
v -0.114922 4.326513 -0.000000
v -0.106330 4.326513 -0.037998
v -0.081749 4.326513 -0.070356
v -0.044766 4.326513 -0.092092
v -0.001005 4.326513 -0.099749
v -0.110032 -0.061092 -0.039723
v -0.119015 -0.061092 0.000000
v -0.114922 -0.065085 0.000000
v -0.106330 -0.065085 -0.037998
v -0.081749 -0.065085 -0.070356
v -0.084451 -0.061092 -0.073398
v -0.046166 -0.061092 -0.095900
v -0.001005 -0.061092 -0.103801
v -0.044766 -0.065085 -0.092092
v -0.001005 -0.065085 -0.099748
v 0.042756 -0.065085 -0.092092
v 0.079739 -0.065085 -0.070356
v 0.044156 -0.061092 -0.095900
v 0.082441 -0.061092 -0.073398
v 0.068773 2.964646 -0.095900
v 0.107058 2.964646 -0.073399
v 0.105023 3.270180 -0.073399
v 0.130605 3.270179 -0.039723
v 0.132640 2.964646 -0.039723
v 0.139587 3.270178 -0.000000
v 0.132639 2.964646 0.039723
v 0.130604 3.270179 0.039723
v 0.141623 2.964646 -0.000000
v 0.117005 -0.061092 0.000000
v 0.108022 -0.061092 0.039723
v 0.112912 -0.065085 0.000000
v 0.108022 -0.061092 -0.039723
v 0.104320 -0.065085 -0.037998
v 0.104320 -0.065085 0.037998
v 0.079739 -0.065085 0.070356
v 0.082441 -0.061092 0.073399
v 0.044156 -0.061092 0.095900
v 0.068773 2.964646 0.095900
v 0.107058 2.964646 0.073399
v 0.105023 3.270180 0.073399
v -0.001005 -0.061092 0.103802
v 0.042756 -0.065085 0.092092
v -0.001005 -0.065085 0.099749
v -0.044766 -0.065085 0.092092
v -0.081749 -0.065085 0.070356
v -0.106329 -0.065085 0.037998
v -0.114922 -0.065085 0.000000
v -0.110032 -0.061092 0.039723
v -0.094398 2.964646 -0.000000
v -0.119015 -0.061092 0.000000
v -0.096433 3.270178 -0.000000
v -0.087450 3.270179 0.039723
v -0.110032 4.322521 0.039723
v -0.084451 4.322521 0.073399
v -0.106329 4.326513 0.037998
v -0.081749 4.326513 0.070356
v -0.044766 4.326513 0.092092
v -0.001005 4.326513 0.099748
v -0.114922 4.326513 -0.000000
v -0.119015 4.322521 -0.000000
vn -0.6605 0.0045 0.7509
vn -0.3423 0.0024 0.9396
vn -0.3422 -0.0063 0.9396
vn -0.3427 0.0014 0.9395
vn -0.6604 0.0039 0.7509
vn -0.9047 0.0061 0.4260
vn -0.6604 -0.0120 0.7508
vn -0.3423 -0.0034 0.9396
vn -0.0000 0.0039 1.0000
vn -0.0003 -0.0000 1.0000
vn 0.0001 -0.0000 1.0000
vn 0.3423 0.0062 0.9396
vn 0.3422 0.0112 0.9395
vn 0.6603 0.0180 0.7507
vn 0.0062 1.0000 0.0071
vn 0.0034 1.0000 0.0093
vn 0.0081 1.0000 0.0039
vn 0.9045 0.0232 0.4259
vn 0.0087 1.0000 -0.0000
vn 0.9997 0.0252 -0.0000
vn 0.9045 0.0232 -0.4259
vn 0.0081 1.0000 -0.0039
vn 0.6604 0.0180 -0.7507
vn 0.0063 1.0000 -0.0070
vn 0.3423 0.0113 -0.9395
vn 0.0033 1.0000 -0.0093
vn 0.3423 0.0062 -0.9396
vn -0.0003 -0.0000 -1.0000
vn -0.0000 0.0039 -1.0000
vn -0.3423 -0.0062 -0.9396
vn -0.3423 0.0023 -0.9396
vn -0.0002 -0.0000 -1.0000
vn -0.3424 -0.0034 -0.9396
vn -0.6604 -0.0120 -0.7508
vn -0.6605 0.0044 -0.7508
vn -0.6604 -0.0102 -0.7508
vn -0.9046 -0.0164 -0.4259
vn -0.9047 0.0062 -0.4260
vn -0.9046 -0.0155 -0.4260
vn -0.9998 -0.0181 -0.0001
vn -1.0000 0.0067 -0.0001
vn -0.9998 -0.0175 -0.0000
vn -0.0087 1.0000 0.0001
vn -0.0081 1.0000 -0.0038
vn -0.0062 1.0000 -0.0071
vn -0.0034 1.0000 -0.0092
vn 0.0001 1.0000 -0.0100
vn -0.9047 0.0059 -0.4261
vn -1.0000 0.0067 -0.0000
vn -0.0088 -1.0000 -0.0000
vn -0.0080 -1.0000 -0.0040
vn -0.6604 0.0039 -0.7509
vn -0.0063 -1.0000 -0.0070
vn -0.3424 0.0014 -0.9396
vn -0.0034 -1.0000 -0.0092
vn -0.0000 -0.0014 -1.0000
vn -0.0000 -1.0000 -0.0100
vn 0.0034 -1.0000 -0.0093
vn 0.3423 -0.0043 -0.9396
vn 0.0061 -1.0000 -0.0072
vn 0.6604 -0.0068 -0.7509
vn 0.3423 -0.0023 -0.9396
vn 0.6605 -0.0044 -0.7508
vn 0.6604 0.0120 -0.7508
vn 0.9046 0.0164 -0.4260
vn 0.9998 0.0180 -0.0000
vn 0.9047 -0.0061 -0.4260
vn 0.9046 0.0164 0.4260
vn 0.9047 -0.0062 0.4260
vn 1.0000 -0.0068 -0.0000
vn 1.0000 -0.0095 -0.0000
vn 0.9047 -0.0087 0.4260
vn 0.0087 -1.0000 -0.0000
vn 0.9047 -0.0088 -0.4261
vn 0.0082 -1.0000 -0.0037
vn 0.0081 -1.0000 0.0039
vn 0.6605 -0.0068 0.7508
vn 0.0062 -1.0000 0.0071
vn 0.3423 -0.0023 0.9396
vn 0.3424 -0.0042 0.9396
vn 0.6605 -0.0044 0.7508
vn 0.6604 0.0120 0.7508
vn 0.0034 -1.0000 0.0093
vn -0.0001 -0.0014 1.0000
vn -0.0002 -1.0000 0.0100
vn -0.0034 -1.0000 0.0093
vn -0.0061 -1.0000 0.0072
vn -0.0081 -1.0000 0.0038
vn -0.9047 0.0059 0.4261
vn -0.0087 -1.0000 -0.0000
vn -1.0000 0.0068 0.0001
vn -1.0000 0.0067 0.0001
vn -0.9046 -0.0164 0.4259
vn -0.9998 -0.0181 0.0001
vn -0.9046 -0.0155 0.4259
vn -0.6604 -0.0102 0.7508
vn -0.0080 1.0000 0.0040
vn -0.0061 1.0000 0.0071
vn -0.0034 1.0000 0.0092
vn -0.0000 1.0000 0.0100
vn -0.0088 1.0000 0.0001
vn -0.9998 -0.0175 0.0001
vt 0.635373 0.521882
vt 0.642263 0.521883
vt 0.642278 0.474454
vt 0.642226 0.991061
vt 0.635343 0.991108
vt 0.628804 0.521882
vt 0.635387 0.474374
vt 0.642229 0.311273
vt 0.649334 0.311421
vt 0.649384 0.474547
vt 0.649370 0.521884
vt 0.656481 0.474641
vt 0.656439 0.311570
vt 0.663321 0.311699
vt 0.663335 0.310808
vt 0.656456 0.310680
vt 0.669882 0.310893
vt 0.669875 0.311786
vt 0.676185 0.310925
vt 0.676185 0.311818
vt 0.682496 0.311789
vt 0.682489 0.310896
vt 0.689049 0.311705
vt 0.689036 0.310813
vt 0.695930 0.311579
vt 0.695914 0.310689
vt 0.695854 0.474644
vt 0.702951 0.474551
vt 0.703035 0.311431
vt 0.710056 0.474458
vt 0.710068 0.521884
vt 0.702961 0.521885
vt 0.710140 0.311285
vt 0.716947 0.474380
vt 0.716958 0.521883
vt 0.717022 0.311162
vt 0.723515 0.474327
vt 0.723526 0.521883
vt 0.723573 0.311080
vt 0.729843 0.474309
vt 0.729855 0.521882
vt 0.729887 0.311033
vt 0.729736 0.310140
vt 0.723560 0.310197
vt 0.717008 0.310272
vt 0.710122 0.310395
vt 0.703017 0.310542
vt 0.723573 0.991131
vt 0.729887 0.991161
vt 0.729739 0.992054
vt 0.723565 0.992014
vt 0.717021 0.991100
vt 0.717016 0.991991
vt 0.710139 0.991054
vt 0.710132 0.991944
vt 0.703032 0.990999
vt 0.703025 0.991888
vt 0.695920 0.991832
vt 0.695926 0.990942
vt 0.689039 0.991785
vt 0.689043 0.990894
vt 0.695863 0.521885
vt 0.688992 0.521885
vt 0.688988 0.474722
vt 0.682456 0.474775
vt 0.676168 0.474793
vt 0.682457 0.521885
vt 0.669880 0.474774
vt 0.669874 0.521885
vt 0.676166 0.521885
vt 0.676180 0.990849
vt 0.669871 0.990863
vt 0.676180 0.991743
vt 0.682490 0.990861
vt 0.682488 0.991754
vt 0.669874 0.991755
vt 0.663319 0.990898
vt 0.663324 0.991789
vt 0.656469 0.521884
vt 0.656436 0.990948
vt 0.663339 0.521885
vt 0.663347 0.474720
vt 0.656442 0.991838
vt 0.649331 0.991005
vt 0.649338 0.991894
vt 0.642233 0.991951
vt 0.635349 0.991998
vt 0.628800 0.992022
vt 0.628792 0.991139
vt 0.622626 0.992062
vt 0.622477 0.991169
vt 0.622475 0.521881
vt 0.628819 0.474321
vt 0.622490 0.474302
vt 0.628795 0.311066
vt 0.635347 0.311149
vt 0.628808 0.310183
vt 0.635361 0.310258
vt 0.642247 0.310384
vt 0.649352 0.310532
vt 0.622632 0.310124
vt 0.622481 0.311017
s 1
f 1/1/1 2/2/2 7/3/3
f 1/1/1 3/4/4 2/2/2
f 1/1/1 5/5/5 3/4/4
f 4/6/6 1/1/1 6/7/7
f 4/6/6 5/5/5 1/1/1
f 1/1/1 7/3/3 6/7/7
f 6/7/7 7/3/3 8/8/8
f 7/3/3 9/9/9 8/8/8
f 2/2/2 10/10/10 7/3/3
f 7/3/3 10/10/10 9/9/9
f 2/2/2 11/11/11 10/10/10
f 11/11/11 12/12/12 10/10/10
f 10/10/10 13/13/13 9/9/9
f 10/10/10 12/12/12 13/13/13
f 12/12/12 14/14/14 13/13/13
f 13/13/13 14/14/14 16/15/15
f 9/9/9 13/13/13 15/16/16
f 13/13/13 16/15/15 15/16/16
f 14/14/14 17/17/17 16/15/15
f 14/14/14 18/18/18 17/17/17
f 18/18/18 19/19/19 17/17/17
f 18/18/18 20/20/20 19/19/19
f 21/21/21 19/19/19 20/20/20
f 21/21/21 22/22/22 19/19/19
f 23/23/23 22/22/22 21/21/21
f 23/23/23 24/24/24 22/22/22
f 26/25/25 25/26/26 24/24/24
f 26/25/25 24/24/24 23/23/23
f 23/23/23 27/27/27 26/25/25
f 26/25/25 27/27/27 29/28/28
f 28/29/29 25/26/26 26/25/25
f 26/25/25 29/28/28 28/29/29
f 28/29/29 29/28/28 32/30/30
f 30/31/31 32/30/30 29/28/28
f 30/31/31 29/28/28 31/32/32
f 31/32/32 29/28/28 27/27/27
f 28/29/29 32/30/30 33/33/33
f 33/33/33 32/30/30 35/34/34
f 34/35/35 35/34/34 32/30/30
f 34/35/35 32/30/30 30/31/31
f 33/33/33 35/34/34 36/36/36
f 36/36/36 35/34/34 38/37/37
f 37/38/38 38/37/37 35/34/34
f 37/38/38 35/34/34 34/35/35
f 36/36/36 38/37/37 39/39/39
f 39/39/39 38/37/37 41/40/40
f 40/41/41 41/40/40 38/37/37
f 40/41/41 38/37/37 37/38/38
f 39/39/39 41/40/40 42/42/42
f 39/39/39 42/42/42 43/43/43
f 39/39/39 43/43/43 44/44/44
f 36/36/36 44/44/44 45/45/45
f 36/36/36 39/39/39 44/44/44
f 33/33/33 45/45/45 46/46/46
f 33/33/33 36/36/36 45/45/45
f 28/29/29 33/33/33 46/46/46
f 28/29/29 46/46/46 47/47/47
f 28/29/29 47/47/47 25/26/26
f 48/48/48 49/49/49 40/41/41
f 48/48/48 40/41/41 37/38/38
f 48/48/48 50/50/50 49/49/49
f 48/48/48 51/51/51 50/50/50
f 53/52/52 52/53/53 51/51/51
f 53/52/52 51/51/51 48/48/48
f 54/54/54 53/52/52 34/35/35
f 54/54/54 52/53/53 53/52/52
f 53/52/52 48/48/48 37/38/38
f 53/52/52 37/38/38 34/35/35
f 54/54/54 56/55/55 52/53/53
f 55/56/56 54/54/54 30/31/31
f 54/54/54 34/35/35 30/31/31
f 55/56/56 56/55/55 54/54/54
f 55/56/56 57/57/57 56/55/55
f 55/56/56 58/58/58 57/57/57
f 60/59/59 59/60/60 58/58/58
f 55/56/56 60/59/59 58/58/58
f 61/61/61 60/59/59 62/62/62
f 60/59/59 61/61/61 59/60/60
f 60/59/59 31/32/32 62/62/62
f 60/59/59 55/56/56 31/32/32
f 61/61/61 62/62/62 63/63/63
f 31/32/32 27/27/27 62/62/62
f 62/62/62 64/64/64 63/63/63
f 62/62/62 27/27/27 64/64/64
f 63/63/63 64/64/64 65/65/65
f 21/21/21 65/65/65 64/64/64
f 21/21/21 64/64/64 23/23/23
f 23/23/23 64/64/64 27/27/27
f 20/20/20 67/66/66 65/65/65
f 20/20/20 65/65/65 21/21/21
f 63/63/63 65/65/65 66/67/67
f 66/67/67 65/65/65 67/66/66
f 69/68/68 67/66/66 20/20/20
f 68/69/69 70/70/70 67/66/66
f 68/69/69 67/66/66 69/68/68
f 66/67/67 67/66/66 70/70/70
f 68/69/69 71/71/71 70/70/70
f 71/71/71 66/67/67 70/70/70
f 68/69/69 72/72/72 71/71/71
f 72/72/72 73/73/73 71/71/71
f 74/74/74 71/71/71 73/73/73
f 71/71/71 74/74/74 66/67/67
f 74/74/74 73/73/73 75/75/75
f 61/61/61 74/74/74 75/75/75
f 74/74/74 63/63/63 66/67/67
f 74/74/74 61/61/61 63/63/63
f 61/61/61 75/75/75 59/60/60
f 72/72/72 76/76/76 73/73/73
f 78/77/77 77/78/78 76/76/76
f 78/77/77 76/76/76 72/72/72
f 80/79/79 79/80/80 78/77/77
f 79/80/80 77/78/78 78/77/77
f 81/81/81 78/77/77 72/72/72
f 80/79/79 78/77/77 81/81/81
f 81/81/81 68/69/69 69/68/68
f 81/81/81 72/72/72 68/69/69
f 80/79/79 81/81/81 82/82/82
f 81/81/81 69/68/68 82/82/82
f 12/12/12 82/82/82 14/14/14
f 80/79/79 82/82/82 12/12/12
f 82/82/82 18/18/18 14/14/14
f 82/82/82 69/68/68 18/18/18
f 11/11/11 80/79/79 12/12/12
f 11/11/11 79/80/80 80/79/79
f 79/80/80 84/83/83 77/78/78
f 11/11/11 83/84/84 79/80/80
f 83/84/84 84/83/83 79/80/80
f 83/84/84 85/85/85 84/83/83
f 83/84/84 86/86/86 85/85/85
f 3/4/4 87/87/87 86/86/86
f 83/84/84 3/4/4 86/86/86
f 5/5/5 88/88/88 87/87/87
f 3/4/4 5/5/5 87/87/87
f 90/89/89 89/90/90 88/88/88
f 5/5/5 90/89/89 88/88/88
f 90/89/89 92/91/91 89/90/90
f 91/92/92 92/91/91 90/89/89
f 91/92/92 90/89/89 4/6/6
f 4/6/6 90/89/89 5/5/5
f 91/92/92 94/93/93 93/94/94
f 91/92/92 4/6/6 94/93/93
f 93/94/94 94/93/93 95/95/95
f 94/93/93 96/96/96 95/95/95
f 94/93/93 6/7/7 96/96/96
f 4/6/6 6/7/7 94/93/93
f 96/96/96 97/97/97 95/95/95
f 6/7/7 8/8/8 96/96/96
f 8/8/8 98/98/98 96/96/96
f 96/96/96 98/98/98 97/97/97
f 8/8/8 99/99/99 98/98/98
f 9/9/9 99/99/99 8/8/8
f 9/9/9 100/100/100 99/99/99
f 9/9/9 15/16/16 100/100/100
f 95/95/95 97/97/97 101/101/101
f 95/95/95 101/101/101 102/102/102
f 93/94/94 95/95/95 102/102/102
f 2/2/2 3/4/4 83/84/84
f 2/2/2 83/84/84 11/11/11
f 69/68/68 20/20/20 18/18/18
f 55/56/56 30/31/31 31/32/32
o Raft_Raft_0.014
v 0.080744 2.459614 0.070356
v 0.105325 2.459614 0.037998
v 0.105325 2.459614 -0.037998
v 0.043761 2.459614 -0.092092
v 0.043761 2.459614 0.092092
v 0.080744 2.459614 -0.070356
v 0.000000 2.459614 -0.099748
v 0.000000 2.459614 0.099748
v -0.043761 2.459614 -0.092092
v -0.043761 2.459614 0.092092
v -0.080744 2.459614 -0.070356
v -0.080744 2.459614 0.070356
v -0.105324 2.459614 0.037998
v -0.105325 2.459614 -0.037998
v -0.113917 2.459614 0.000000
v 0.113917 2.459614 -0.000000
vn 0.0062 -1.0000 0.0072
vn 0.0082 -1.0000 -0.0038
vn 0.0082 -1.0000 0.0039
vn 0.0062 -1.0000 -0.0072
vn 0.0034 -1.0000 -0.0093
vn 0.0034 -1.0000 0.0093
vn -0.0000 -0.9999 -0.0101
vn -0.0002 -0.9999 0.0101
vn -0.0035 -1.0000 -0.0093
vn -0.0034 -1.0000 0.0093
vn -0.0063 -1.0000 -0.0071
vn -0.0062 -1.0000 0.0072
vn -0.0082 -1.0000 0.0039
vn -0.0081 -1.0000 -0.0041
vn -0.0088 -1.0000 -0.0000
vn 0.0088 -1.0000 -0.0000
vt 0.219131 0.289279
vt 0.201932 0.290137
vt 0.213534 0.292167
vt 0.197648 0.285520
vt 0.195318 0.279294
vt 0.223437 0.284213
vt 0.195318 0.272408
vt 0.225775 0.277737
vt 0.197656 0.265932
vt 0.225775 0.270851
vt 0.201962 0.260866
vt 0.223445 0.264625
vt 0.219161 0.260008
vt 0.207559 0.257978
vt 0.213589 0.257681
vt 0.207504 0.292464
s 1
f 103/103/103 105/104/104 104/105/105
f 108/106/106 105/104/104 103/103/103
f 106/107/107 108/106/106 103/103/103
f 103/103/103 107/108/108 106/107/107
f 109/109/109 106/107/107 107/108/108
f 107/108/108 110/110/110 109/109/109
f 111/111/111 109/109/109 110/110/110
f 110/110/110 112/112/112 111/111/111
f 113/113/113 111/111/111 112/112/112
f 112/112/112 114/114/114 113/113/113
f 114/114/114 115/115/115 113/113/113
f 113/113/113 115/115/115 116/116/116
f 115/115/115 117/117/117 116/116/116
f 105/104/104 118/118/118 104/105/105
o Raft_Raft_0.015
v -0.105325 2.459614 0.037998
v -0.105325 2.459614 -0.037998
v -0.080744 2.459614 0.070356
v -0.113917 2.459614 0.000000
v -0.080744 2.459614 -0.070356
v -0.043761 2.459614 0.092092
v -0.000000 2.459614 -0.099748
v -0.000000 2.459614 0.099748
v -0.043761 2.459614 -0.092092
v 0.043761 2.459614 -0.092092
v 0.043761 2.459614 0.092092
v 0.080743 2.459614 0.070356
v 0.080743 2.459614 -0.070356
v 0.105324 2.459614 0.037998
v 0.105324 2.459614 -0.037998
v 0.113917 2.459614 -0.000000
vn -0.0082 1.0000 -0.0039
vn -0.0088 1.0000 -0.0000
vn -0.0081 1.0000 0.0040
vn -0.0062 1.0000 0.0072
vn -0.0063 1.0000 -0.0071
vn -0.0035 1.0000 0.0093
vn 0.0001 0.9999 -0.0101
vn -0.0034 1.0000 -0.0093
vn -0.0000 0.9999 0.0101
vn 0.0033 1.0000 -0.0094
vn 0.0034 1.0000 0.0093
vn 0.0062 1.0000 0.0071
vn 0.0064 1.0000 -0.0071
vn 0.0082 1.0000 0.0039
vn 0.0082 1.0000 -0.0039
vn 0.0088 1.0000 -0.0000
vt 0.257494 0.260008
vt 0.251922 0.257681
vt 0.245891 0.257978
vt 0.240295 0.260866
vt 0.261777 0.264625
vt 0.235988 0.265932
vt 0.264108 0.277737
vt 0.264108 0.270851
vt 0.233651 0.272408
vt 0.261770 0.284213
vt 0.233651 0.279294
vt 0.235981 0.285520
vt 0.257464 0.289279
vt 0.240265 0.290137
vt 0.251867 0.292167
vt 0.245836 0.292464
s 1
f 120/119/119 122/120/120 119/121/121
f 119/121/121 121/122/122 120/119/119
f 123/123/123 120/119/119 121/122/122
f 124/124/124 123/123/123 121/122/122
f 125/125/125 127/126/126 124/124/124
f 124/124/124 126/127/127 125/125/125
f 127/126/126 123/123/123 124/124/124
f 128/128/128 125/125/125 126/127/127
f 126/127/127 129/129/129 128/128/128
f 129/129/129 130/130/130 128/128/128
f 128/128/128 130/130/130 131/131/131
f 130/130/130 132/132/132 131/131/131
f 133/133/133 131/131/131 132/132/132
f 132/132/132 134/134/134 133/133/133
