# Blender 5.1.2
# www.blender.org
o Object_7.436
v -0.036727 -0.257128 -0.051871
v 0.043124 -0.301913 0.057118
v -0.043124 -0.301913 0.057118
v -0.104590 -0.217983 -0.051871
v -0.024540 -0.171807 -0.138863
v 0.036728 -0.257128 -0.051871
v 0.122807 -0.255950 0.057118
v 0.104590 -0.217983 -0.051871
v 0.069885 -0.145651 -0.138863
v 0.024541 -0.171807 -0.138863
v 0.024541 -0.051146 -0.185942
v 0.008618 -0.060331 -0.185942
v -0.008617 -0.060331 -0.185942
v 0.000000 -0.000000 -0.192001
v 0.036728 -0.034175 -0.185942
v -0.024540 -0.051146 -0.185942
v 0.008618 0.060331 -0.185942
v 0.024541 0.051146 -0.185942
v -0.008617 0.060331 -0.185942
v -0.043322 -0.012001 -0.185942
v -0.043322 0.012000 -0.185942
v -0.036727 -0.034175 -0.185942
v 0.043323 0.012000 -0.185942
v 0.036728 0.034175 -0.185942
v -0.024540 0.051146 -0.185942
v -0.036727 0.034175 -0.185942
v 0.043323 -0.012001 -0.185942
v 0.123373 -0.034175 -0.138863
v 0.104590 -0.097321 -0.138863
v 0.156530 -0.145651 -0.051871
v 0.184640 -0.051146 -0.051871
v 0.183794 -0.171020 0.057118
v 0.217312 -0.060196 0.059515
v 0.184228 -0.171424 0.059515
v 0.123097 -0.256554 0.059515
v 0.216800 -0.060054 0.057118
v 0.184640 0.051146 -0.051871
v 0.216800 0.060054 0.057118
v 0.217312 0.060196 0.059515
v 0.186066 0.173134 0.061790
v 0.184228 0.171424 0.059515
v 0.219479 0.060796 0.061790
v 0.183794 0.171020 0.057118
v 0.156530 0.145651 -0.051871
v 0.122807 0.255949 0.057118
v 0.104590 0.217982 -0.051871
v 0.123097 0.256554 0.059515
v 0.043226 0.302626 0.059515
v 0.043124 0.301913 0.057118
v 0.036728 0.257128 -0.051871
v -0.036727 0.257128 -0.051871
v -0.024540 0.171807 -0.138863
v 0.024541 0.171807 -0.138863
v -0.043124 0.301913 0.057118
v -0.122806 0.255949 0.057118
v -0.043225 0.302626 0.059515
v -0.123097 0.256554 0.059515
v -0.104590 0.217982 -0.051871
v -0.104590 0.097321 -0.138863
v -0.069884 0.145651 -0.138863
v -0.156530 0.145651 -0.051871
v -0.123372 0.034175 -0.138863
v -0.216799 0.060054 0.057118
v -0.183793 0.171020 0.057118
v -0.184639 0.051146 -0.051871
v -0.216799 -0.060054 0.057118
v -0.184639 -0.051146 -0.051871
v -0.156530 -0.145651 -0.051871
v -0.123372 -0.034175 -0.138863
v -0.183793 -0.171020 0.057118
v -0.217311 -0.060196 0.059515
v -0.122807 -0.255950 0.057118
v -0.184227 -0.171424 0.059515
v -0.124324 -0.259113 0.061790
v -0.123097 -0.256554 0.059515
v -0.186065 -0.173134 0.061790
v -0.130727 -0.272458 0.061790
v -0.195648 -0.182051 0.061790
v -0.219478 -0.060797 0.061790
v -0.230782 -0.063928 0.061790
v -0.219478 0.060796 0.061790
v -0.217311 0.060196 0.059515
v -0.184227 0.171424 0.059515
v -0.186065 0.173134 0.061790
v -0.124324 0.259113 0.061790
v -0.043657 0.305645 0.061790
v -0.130727 0.272458 0.061790
v -0.195648 0.182050 0.061790
v -0.131680 0.274443 0.064166
v -0.230782 0.063928 0.061790
v -0.197073 0.183377 0.064166
v -0.232464 0.064393 0.064166
v -0.232464 0.064393 0.084314
v -0.232464 -0.064394 0.084314
v -0.232464 -0.064394 0.064166
v -0.197073 -0.183377 0.064166
v -0.197073 -0.183377 0.084314
v -0.131680 -0.274443 0.084314
v -0.131680 -0.274443 0.064166
v -0.046240 -0.323728 0.084314
v -0.046240 -0.323728 0.064166
v -0.045905 -0.321386 0.061790
v -0.043657 -0.305645 0.061790
v 0.043657 -0.305645 0.061790
v 0.045906 -0.321386 0.061790
v 0.046240 -0.323728 0.064166
v 0.131681 -0.274443 0.064166
v 0.046240 -0.323728 0.084314
v 0.131681 -0.274443 0.084314
v 0.197074 -0.183377 0.084314
v 0.197074 -0.183377 0.064166
v 0.232464 -0.064394 0.084314
v 0.232464 -0.064394 0.064166
v 0.232464 0.064393 0.064166
v 0.232464 0.064393 0.084314
v 0.197074 0.183377 0.064166
v 0.197074 0.183377 0.084314
v 0.131681 0.274443 0.084314
v 0.046240 0.323727 0.084314
v 0.131681 0.274443 0.064166
v 0.130728 0.272458 0.061790
v 0.195648 0.182050 0.061790
v 0.046240 0.323727 0.064166
v 0.045906 0.321386 0.061790
v -0.046239 0.323728 0.084314
v -0.046239 0.323728 0.064166
v -0.045905 0.321386 0.061790
v -0.131680 0.274443 0.084314
v -0.197073 0.183377 0.084314
v 0.043657 0.305645 0.061790
v 0.124325 0.259113 0.061790
v 0.230783 0.063928 0.061790
v 0.230783 -0.063928 0.061790
v 0.219479 -0.060797 0.061790
v 0.186066 -0.173134 0.061790
v 0.195648 -0.182051 0.061790
v 0.124325 -0.259113 0.061790
v 0.130728 -0.272458 0.061790
v 0.043226 -0.302626 0.059515
v -0.043226 -0.302626 0.059515
v -0.104590 -0.097321 -0.138863
v -0.069884 -0.145651 -0.138863
v 0.069885 0.145651 -0.138863
v 0.104590 0.097321 -0.138863
v 0.123373 0.034175 -0.138863
v -0.032359 -0.240837 -0.041123
v 0.038243 -0.283685 0.063745
v -0.038243 -0.283685 0.063744
v -0.093006 -0.205164 -0.041797
v -0.021440 -0.160563 -0.122616
v 0.032360 -0.240837 -0.041123
v 0.110017 -0.241808 0.063155
v 0.093006 -0.205164 -0.041797
v 0.061504 -0.136597 -0.123122
v 0.021441 -0.160563 -0.122616
v 0.020471 -0.046915 -0.166823
v 0.007131 -0.055138 -0.166685
v -0.007130 -0.055138 -0.166685
v 0.000000 -0.000000 -0.172001
v 0.030908 -0.031475 -0.166999
v -0.020470 -0.046915 -0.166823
v 0.007131 0.055138 -0.166685
v 0.020471 0.046915 -0.166823
v -0.007130 0.055138 -0.166685
v -0.036644 -0.011079 -0.167112
v -0.036644 0.011078 -0.167112
v -0.030907 -0.031475 -0.166999
v 0.036645 0.011078 -0.167112
v 0.030908 0.031475 -0.166999
v -0.020470 0.046915 -0.166823
v -0.030907 0.031475 -0.166999
v 0.036645 -0.011079 -0.167112
v 0.109946 -0.032243 -0.124167
v 0.092785 -0.091621 -0.123758
v 0.140631 -0.137821 -0.042603
v 0.166861 -0.048543 -0.043089
v 0.166508 -0.162531 0.062515
v 0.200015 -0.057725 0.069248
v 0.168738 -0.163969 0.069737
v 0.111813 -0.244332 0.070619
v 0.197648 -0.057261 0.062159
v 0.166861 0.048543 -0.043089
v 0.197648 0.057261 0.062159
v 0.200015 0.057724 0.069247
v 0.180133 0.170072 0.080642
v 0.168738 0.163969 0.069737
v 0.212443 0.059719 0.080480
v 0.166508 0.162531 0.062515
v 0.140631 0.137821 -0.042603
v 0.110018 0.241808 0.063157
v 0.093006 0.205163 -0.041797
v 0.111814 0.244333 0.070621
v 0.038989 0.287142 0.071444
v 0.038243 0.283685 0.063745
v 0.032359 0.240837 -0.041123
v -0.032359 0.240837 -0.041123
v -0.021440 0.160563 -0.122616
v 0.021441 0.160563 -0.122616
v -0.038242 0.283685 0.063744
v -0.110017 0.241809 0.063160
v -0.038989 0.287142 0.071444
v -0.111814 0.244334 0.070622
v -0.093006 0.205163 -0.041797
v -0.092785 0.091621 -0.123758
v -0.061503 0.136597 -0.123122
v -0.140631 0.137821 -0.042603
v -0.109945 0.032243 -0.124167
v -0.197647 0.057261 0.062159
v -0.166507 0.162531 0.062515
v -0.166860 0.048544 -0.043089
v -0.197647 -0.057261 0.062159
v -0.166860 -0.048543 -0.043089
v -0.140631 -0.137821 -0.042603
v -0.109945 -0.032243 -0.124167
v -0.166507 -0.162531 0.062515
v -0.200015 -0.057725 0.069248
v -0.110017 -0.241808 0.063155
v -0.168737 -0.163969 0.069737
v -0.120445 -0.254595 0.080883
v -0.111812 -0.244331 0.070617
v -0.180132 -0.170072 0.080642
v -0.124407 -0.265883 0.079590
v -0.187027 -0.178052 0.079388
v -0.212442 -0.059719 0.080480
v -0.221164 -0.062601 0.079275
v -0.212441 0.059719 0.080480
v -0.200014 0.057724 0.069247
v -0.168737 0.163969 0.069737
v -0.180132 0.170072 0.080642
v -0.120445 0.254596 0.080883
v -0.042342 0.300460 0.081061
v -0.124407 0.265883 0.079590
v -0.187028 0.178051 0.079389
v -0.119199 0.260390 0.071002
v -0.221164 0.062600 0.079275
v -0.180108 0.174898 0.070515
v -0.213603 0.061595 0.070202
v -0.212673 0.061512 0.084314
v -0.212673 -0.061513 0.084314
v -0.213603 -0.061596 0.070202
v -0.180108 -0.174898 0.070514
v -0.179116 -0.174571 0.084314
v -0.118259 -0.259615 0.084314
v -0.119199 -0.260390 0.071002
v -0.041067 -0.304408 0.084314
v -0.041497 -0.305681 0.071365
v -0.043500 -0.312969 0.079772
v -0.042342 -0.300460 0.081061
v 0.042342 -0.300460 0.081061
v 0.043500 -0.312968 0.079772
v 0.041498 -0.305681 0.071364
v 0.119200 -0.260390 0.071002
v 0.041067 -0.304408 0.084314
v 0.118260 -0.259615 0.084314
v 0.179117 -0.174571 0.084314
v 0.180110 -0.174898 0.070516
v 0.212673 -0.061513 0.084314
v 0.213602 -0.061595 0.070200
v 0.213602 0.061595 0.070200
v 0.212673 0.061512 0.084314
v 0.180110 0.174898 0.070517
v 0.179117 0.174571 0.084314
v 0.118260 0.259615 0.084314
v 0.041067 0.304407 0.084314
v 0.119200 0.260390 0.071002
v 0.124408 0.265883 0.079590
v 0.187030 0.178052 0.079390
v 0.041497 0.305679 0.071363
v 0.043500 0.312966 0.079771
v -0.041066 0.304408 0.084314
v -0.041497 0.305681 0.071364
v -0.043499 0.312968 0.079772
v -0.118259 0.259615 0.084314
v -0.179116 0.174571 0.084314
v 0.042342 0.300460 0.081061
v 0.120447 0.254596 0.080883
v 0.221163 0.062600 0.079274
v 0.221163 -0.062600 0.079274
v 0.212443 -0.059719 0.080480
v 0.180133 -0.170072 0.080642
v 0.187030 -0.178052 0.079389
v 0.120447 -0.254596 0.080883
v 0.124408 -0.265883 0.079590
v 0.038990 -0.287142 0.071444
v -0.038989 -0.287142 0.071444
v -0.092785 -0.091621 -0.123758
v -0.061503 -0.136597 -0.123122
v 0.061504 0.136597 -0.123122
v 0.092785 0.091621 -0.123758
v 0.109946 0.032243 -0.124167
vn 0.2519 -0.9092 -0.3316
vn -0.2247 -0.8113 -0.5397
vn 0.2247 -0.8113 -0.5397
vn -0.2518 -0.9092 -0.3316
vn -0.5907 -0.6348 -0.4981
vn -0.1545 -0.5577 -0.8155
vn 0.6497 -0.6983 -0.3004
vn 0.1545 -0.5577 -0.8155
vn 0.5907 -0.6348 -0.4981
vn 0.4228 -0.4545 -0.7840
vn 0.1993 -0.2142 -0.9562
vn 0.0706 -0.2548 -0.9644
vn -0.0000 -0.0000 -1.0000
vn -0.0706 -0.2548 -0.9644
vn 0.3448 -0.0493 -0.9374
vn 0.2947 -0.1414 -0.9451
vn -0.1993 -0.2142 -0.9562
vn -0.2947 -0.1414 -0.9451
vn -0.0706 0.2548 -0.9644
vn 0.0706 0.2548 -0.9644
vn 0.1993 0.2142 -0.9562
vn 0.2947 0.1414 -0.9451
vn -0.1993 0.2141 -0.9563
vn -0.3448 -0.0493 -0.9374
vn -0.3448 0.0493 -0.9374
vn -0.2947 0.1414 -0.9451
vn 0.3448 0.0493 -0.9374
vn 0.6863 -0.0980 -0.7207
vn 0.6014 -0.2886 -0.7450
vn 0.8038 -0.3857 -0.4529
vn 0.8685 -0.4167 -0.2683
vn 0.8949 -0.1278 -0.4275
vn 0.8720 -0.1245 -0.4734
vn 0.9583 -0.1369 -0.2510
vn 0.7808 -0.3746 -0.5001
vn 0.5704 -0.6130 -0.5467
vn 0.8949 0.1278 -0.4275
vn 0.9583 0.1369 -0.2509
vn 0.8720 0.1246 -0.4734
vn 0.8685 0.4167 -0.2683
vn 0.3128 0.1501 -0.9379
vn 0.3656 0.0522 -0.9293
vn 0.7808 0.3746 -0.5000
vn 0.6497 0.6983 -0.3004
vn 0.8038 0.3857 -0.4529
vn 0.2247 0.8113 -0.5397
vn 0.5907 0.6348 -0.4981
vn 0.5704 0.6130 -0.5467
vn 0.2158 0.7789 -0.5889
vn 0.2519 0.9092 -0.3316
vn -0.2519 0.9092 -0.3316
vn -0.2247 0.8113 -0.5397
vn -0.1545 0.5577 -0.8155
vn 0.1545 0.5579 -0.8154
vn -0.5704 0.6130 -0.5467
vn -0.6497 0.6983 -0.3004
vn -0.5907 0.6348 -0.4981
vn -0.2158 0.7789 -0.5889
vn -0.6014 0.2886 -0.7450
vn -0.8038 0.3857 -0.4529
vn -0.4229 0.4545 -0.7839
vn -0.6863 0.0980 -0.7207
vn -0.8949 0.1278 -0.4275
vn -0.9583 0.1369 -0.2509
vn -0.8685 0.4167 -0.2683
vn -0.9583 -0.1369 -0.2510
vn -0.8949 -0.1278 -0.4275
vn -0.8685 -0.4167 -0.2683
vn -0.8038 -0.3857 -0.4529
vn -0.6863 -0.0980 -0.7207
vn -0.7808 -0.3746 -0.5001
vn -0.8720 -0.1245 -0.4734
vn -0.6497 -0.6983 -0.3004
vn -0.5704 -0.6130 -0.5467
vn -0.2118 -0.2276 -0.9504
vn -0.3128 -0.1501 -0.9379
vn -0.3175 -0.3412 -0.8847
vn -0.4614 -0.2214 -0.8591
vn -0.3656 -0.0522 -0.9293
vn -0.5336 -0.0762 -0.8423
vn -0.3656 0.0522 -0.9293
vn -0.8720 0.1246 -0.4734
vn -0.7808 0.3746 -0.5000
vn -0.3128 0.1501 -0.9379
vn -0.2118 0.2277 -0.9504
vn -0.0751 0.2711 -0.9596
vn -0.3175 0.3413 -0.8847
vn -0.4615 0.2214 -0.8591
vn -0.5336 0.0762 -0.8423
vn -0.6433 0.6914 -0.3289
vn -0.8616 0.4134 -0.2944
vn -0.9516 0.1359 -0.2756
vn -0.7288 0.1091 0.6760
vn -0.7294 -0.1031 0.6763
vn -0.9516 -0.1359 -0.2756
vn -0.8616 -0.4134 -0.2944
vn -0.6690 -0.3167 0.6724
vn -0.5132 -0.5435 0.6642
vn -0.6433 -0.6913 -0.3289
vn -0.2049 -0.7278 0.6545
vn -0.2488 -0.8982 -0.3623
vn -0.1140 -0.4114 -0.9043
vn -0.0751 -0.2711 -0.9596
vn 0.0751 -0.2711 -0.9596
vn 0.1140 -0.4114 -0.9043
vn 0.2488 -0.8982 -0.3623
vn 0.6433 -0.6913 -0.3289
vn 0.4908 -0.5661 0.6623
vn 0.1857 -0.7328 0.6546
vn 0.6602 -0.3348 0.6724
vn 0.8616 -0.4134 -0.2944
vn 0.7285 -0.1091 0.6763
vn 0.9516 -0.1359 -0.2756
vn 0.9516 0.1359 -0.2756
vn 0.7294 0.1031 0.6763
vn 0.8616 0.4134 -0.2944
vn 0.6690 0.3167 0.6724
vn 0.5132 0.5435 0.6642
vn 0.6433 0.6914 -0.3289
vn 0.2049 0.7278 0.6545
vn 0.2488 0.8982 -0.3623
vn 0.3176 0.3413 -0.8847
vn 0.4615 0.2214 -0.8591
vn -0.2488 0.8982 -0.3623
vn 0.1140 0.4114 -0.9043
vn -0.1860 0.7328 0.6545
vn -0.1140 0.4115 -0.9043
vn -0.4910 0.5658 0.6624
vn -0.6600 0.3351 0.6724
vn 0.0751 0.2711 -0.9596
vn 0.2118 0.2276 -0.9504
vn 0.5336 0.0762 -0.8423
vn 0.3656 -0.0522 -0.9293
vn 0.5336 -0.0762 -0.8423
vn 0.3128 -0.1501 -0.9379
vn 0.4614 -0.2214 -0.8591
vn 0.2118 -0.2276 -0.9504
vn 0.3175 -0.3412 -0.8847
vn 0.2158 -0.7789 -0.5889
vn -0.2157 -0.7789 -0.5889
vn -0.6015 -0.2886 -0.7450
vn -0.4229 -0.4545 -0.7840
vn 0.4229 0.4545 -0.7840
vn 0.6015 0.2886 -0.7449
vn 0.6863 0.0980 -0.7207
vn -0.2425 0.8830 0.4018
vn -0.2175 0.8179 0.5327
vn 0.2151 0.8174 0.5344
vn 0.2380 0.8827 0.4053
vn 0.5817 0.6467 0.4935
vn 0.1582 0.5631 0.8111
vn -0.6178 0.6917 0.3739
vn -0.1518 0.5617 0.8133
vn -0.5864 0.6417 0.4943
vn -0.4217 0.4476 0.7885
vn -0.1977 0.2091 0.9577
vn -0.0801 0.2577 0.9629
vn -0.0000 -0.0000 1.0000
vn 0.0690 0.2549 0.9645
vn -0.3264 0.0556 0.9436
vn -0.2874 0.1269 0.9494
vn 0.2022 0.2118 0.9562
vn 0.2840 0.1390 0.9487
vn 0.0784 -0.2598 0.9625
vn -0.0785 -0.2597 0.9625
vn -0.2022 -0.2118 0.9562
vn -0.2840 -0.1390 0.9487
vn 0.2036 -0.2122 0.9558
vn 0.3265 0.0551 0.9436
vn 0.3294 -0.0356 0.9435
vn 0.2874 -0.1269 0.9494
vn -0.3265 -0.0551 0.9436
vn -0.6612 0.0872 0.7451
vn -0.5980 0.2756 0.7526
vn -0.7886 0.3950 0.4712
vn -0.8497 0.4103 0.3311
vn -0.8863 0.1397 0.4415
vn -0.8146 0.1345 0.5643
vn -0.9430 0.1371 0.3033
vn -0.7344 0.3453 0.5844
vn -0.5283 0.5838 0.6165
vn -0.8912 -0.1387 0.4318
vn -0.9430 -0.1368 0.3033
vn -0.8191 -0.1038 0.5641
vn -0.8453 -0.4243 0.3247
vn -0.2294 -0.1222 0.9656
vn -0.2452 -0.0528 0.9680
vn -0.7203 -0.3671 0.5886
vn -0.6236 -0.6966 0.3549
vn -0.8014 -0.3803 0.4616
vn -0.2165 -0.8130 0.5405
vn -0.5870 -0.6420 0.4932
vn -0.5323 -0.5715 0.6245
vn -0.1956 -0.7287 0.6563
vn -0.2357 -0.8831 0.4057
vn 0.2431 -0.8830 0.4016
vn 0.2178 -0.8180 0.5323
vn 0.1544 -0.5647 0.8107
vn -0.1512 -0.5614 0.8136
vn 0.5126 -0.5831 0.6303
vn 0.6271 -0.6940 0.3536
vn 0.5899 -0.6346 0.4994
vn 0.2044 -0.7215 0.6616
vn 0.7886 -0.3954 0.4709
vn 0.5909 -0.2722 0.7595
vn 0.4161 -0.4529 0.7885
vn 0.6816 -0.0889 0.7263
vn 0.8863 -0.1396 0.4416
vn 0.9414 -0.1396 0.3070
vn 0.8507 -0.4176 0.3192
vn 0.9427 0.1387 0.3033
vn 0.8870 0.1403 0.4399
vn 0.8522 0.4122 0.3221
vn 0.7891 0.3975 0.4684
vn 0.6658 0.0822 0.7416
vn 0.8256 0.1226 0.5508
vn 0.7332 0.3450 0.5860
vn 0.6230 0.6972 0.3547
vn 0.5309 0.5734 0.6240
vn 0.1481 0.1813 0.9722
vn 0.1948 0.1135 0.9743
vn -0.6233 -0.7124 0.3226
vn -0.8701 -0.3753 0.3194
vn 0.2689 0.0484 0.9620
vn -0.9433 -0.0671 0.3250
vn 0.2709 -0.0427 0.9617
vn 0.8264 -0.1205 0.5500
vn 0.7343 -0.3596 0.5758
vn 0.2320 -0.1018 0.9674
vn 0.1577 -0.1615 0.9742
vn 0.0644 -0.1872 0.9802
vn -0.6468 0.6942 0.3158
vn -0.8337 0.4042 0.3763
vn -0.9079 0.1194 0.4018
vn 0.1201 -0.1133 -0.9863
vn 0.2039 -0.1217 -0.9714
vn 0.2323 -0.0620 -0.9707
vn 0.6905 -0.1001 0.7164
vn 0.6885 0.1027 0.7179
vn 0.2343 0.0619 -0.9702
vn 0.1698 0.1032 -0.9801
vn 0.6284 0.3083 0.7142
vn 0.4519 0.5189 0.7256
vn 0.1428 0.1618 -0.9764
vn 0.1679 0.6560 0.7358
vn 0.0548 0.1637 -0.9850
vn -0.2310 -0.9177 0.3232
vn 0.0282 0.1880 0.9818
vn -0.0391 0.2028 0.9784
vn 0.2347 -0.9145 0.3296
vn -0.0517 0.1646 -0.9850
vn -0.1070 0.1406 -0.9843
vn -0.4681 0.5162 0.7173
vn -0.1766 0.6594 0.7308
vn -0.6279 0.2969 0.7194
vn -0.2009 0.0597 -0.9778
vn -0.6893 0.0971 0.7180
vn -0.2317 -0.0005 -0.9728
vn -0.1999 -0.0395 -0.9790
vn -0.6905 -0.1001 0.7163
vn -0.1697 -0.1032 -0.9801
vn -0.6284 -0.3083 0.7142
vn -0.4519 -0.5189 0.7256
vn -0.1300 -0.1096 -0.9854
vn -0.1678 -0.6561 0.7358
vn -0.0337 -0.1605 -0.9865
vn 0.6250 0.7128 0.3183
vn 0.8313 0.4082 0.3772
vn 0.0321 -0.1589 -0.9868
vn 0.2585 0.9145 0.3111
vn 0.1836 -0.6522 0.7355
vn -0.2302 0.9192 0.3196
vn 0.4682 -0.5151 0.7180
vn 0.6284 -0.3083 0.7142
vn -0.0620 -0.1952 0.9788
vn -0.1559 -0.1762 0.9719
vn 0.9433 0.0673 0.3250
vn -0.2460 0.0546 0.9677
vn 0.9178 -0.2054 0.3399
vn -0.2255 0.1251 0.9662
vn 0.8224 -0.4579 0.3375
vn -0.1446 0.1824 0.9725
vn 0.6461 -0.6948 0.3161
vn -0.1853 0.7249 0.6635
vn 0.1909 0.7293 0.6570
vn 0.5831 0.2940 0.7573
vn 0.4170 0.4543 0.7872
vn -0.4225 -0.4502 0.7866
vn -0.5978 -0.2755 0.7528
vn -0.6682 -0.1122 0.7355
vt 0.404639 0.702757
vt 0.440738 0.687052
vt 0.420732 0.678324
vt 0.435200 0.714972
vt 0.462804 0.686525
vt 0.444833 0.663055
vt 0.380992 0.679603
vt 0.433249 0.658239
vt 0.404891 0.663481
vt 0.424332 0.649417
vt 0.442089 0.637340
vt 0.445015 0.640301
vt 0.450985 0.631467
vt 0.448851 0.641916
vt 0.440549 0.629328
vt 0.440521 0.633485
vt 0.453018 0.641940
vt 0.456878 0.640360
vt 0.456923 0.622668
vt 0.453112 0.621046
vt 0.448964 0.621014
vt 0.445115 0.622579
vt 0.459874 0.625589
vt 0.459833 0.637411
vt 0.461422 0.633570
vt 0.461433 0.629432
vt 0.442160 0.625500
vt 0.419506 0.625299
vt 0.419481 0.637828
vt 0.395724 0.643357
vt 0.367996 0.649255
vt 0.395826 0.621291
vt 0.366623 0.616183
vt 0.367306 0.616306
vt 0.367305 0.649404
vt 0.380420 0.679999
vt 0.404188 0.601367
vt 0.379250 0.585447
vt 0.378672 0.585077
vt 0.402453 0.561367
vt 0.401444 0.559919
vt 0.377784 0.584513
vt 0.402049 0.560789
vt 0.433288 0.548105
vt 0.418913 0.585420
vt 0.461147 0.576511
vt 0.439117 0.576196
vt 0.433138 0.547403
vt 0.466749 0.546929
vt 0.466622 0.547604
vt 0.497380 0.560166
vt 0.481789 0.584173
vt 0.468810 0.604822
vt 0.457206 0.600009
vt 0.521767 0.583055
vt 0.521186 0.583447
vt 0.497246 0.599950
vt 0.497771 0.559570
vt 0.482268 0.625144
vt 0.505212 0.620043
vt 0.477606 0.613688
vt 0.482201 0.637436
vt 0.505790 0.641704
vt 0.534409 0.647546
vt 0.534235 0.614149
vt 0.521938 0.678346
vt 0.497888 0.662083
vt 0.498646 0.701937
vt 0.482832 0.677787
vt 0.477835 0.649024
vt 0.499039 0.702512
vt 0.522523 0.678727
vt 0.468080 0.714795
vt 0.468223 0.715475
vt 0.468434 0.716507
vt 0.499629 0.703379
vt 0.469334 0.720877
vt 0.502153 0.707079
vt 0.523402 0.679302
vt 0.527161 0.681754
vt 0.536132 0.647870
vt 0.535097 0.647675
vt 0.534909 0.614009
vt 0.535933 0.613799
vt 0.522645 0.582455
vt 0.498346 0.558689
vt 0.526361 0.579904
vt 0.540344 0.612877
vt 0.540551 0.648713
vt 0.527184 0.579342
vt 0.541297 0.612680
vt 0.541517 0.648896
vt 0.547461 0.650125
vt 0.532877 0.685499
vt 0.527981 0.682290
vt 0.502703 0.707888
vt 0.506218 0.713063
vt 0.470657 0.727758
vt 0.469532 0.721844
vt 0.432783 0.727734
vt 0.433860 0.722036
vt 0.434039 0.721094
vt 0.434881 0.716664
vt 0.403694 0.704214
vt 0.401298 0.707893
vt 0.400768 0.708708
vt 0.375080 0.683676
vt 0.370069 0.687023
vt 0.397381 0.713919
vt 0.355116 0.651969
vt 0.360988 0.650779
vt 0.354518 0.614069
vt 0.360241 0.615072
vt 0.373157 0.581586
vt 0.367989 0.578403
vt 0.398287 0.555388
vt 0.394672 0.550181
vt 0.430559 0.534914
vt 0.431754 0.540913
vt 0.469146 0.534619
vt 0.467947 0.540569
vt 0.431962 0.541880
vt 0.398853 0.556200
vt 0.501339 0.554107
vt 0.467766 0.541535
vt 0.504719 0.549090
vt 0.500803 0.554929
vt 0.532035 0.576017
vt 0.547461 0.611396
vt 0.466941 0.545894
vt 0.432914 0.546369
vt 0.373986 0.582112
vt 0.365595 0.616004
vt 0.361200 0.615239
vt 0.366287 0.649626
vt 0.361938 0.650573
vt 0.379559 0.680592
vt 0.375883 0.683122
vt 0.404262 0.703340
vt 0.435074 0.715652
vt 0.469183 0.658218
vt 0.457457 0.663059
vt 0.444659 0.599991
vt 0.433063 0.604843
vt 0.424273 0.613760
s 1
f 2/1/1 1/2/2 6/3/3
f 2/1/1 3/4/4 1/2/2
f 3/4/4 4/5/5 1/2/2
f 4/5/5 5/6/6 1/2/2
f 6/3/3 1/2/2 5/6/6
f 7/7/7 2/1/1 6/3/3
f 6/3/3 5/6/6 10/8/8
f 7/7/7 6/3/3 8/9/9
f 6/3/3 9/10/10 8/9/9
f 6/3/3 10/8/8 9/10/10
f 10/8/8 11/11/11 9/10/10
f 10/8/8 12/12/12 11/11/11
f 12/12/12 10/8/8 5/6/6
f 11/11/11 12/12/12 14/13/13
f 12/12/12 5/6/6 13/14/14
f 14/13/13 12/12/12 13/14/14
f 27/15/15 15/16/16 14/13/13
f 15/16/16 11/11/11 14/13/13
f 13/14/14 16/17/17 14/13/13
f 16/17/17 22/18/18 14/13/13
f 19/19/19 17/20/20 14/13/13
f 17/20/20 18/21/21 14/13/13
f 18/21/21 24/22/22 14/13/13
f 25/23/23 19/19/19 14/13/13
f 22/18/18 20/24/24 14/13/13
f 20/24/24 21/25/25 14/13/13
f 21/25/25 26/26/26 14/13/13
f 24/22/22 23/27/27 14/13/13
f 23/27/27 27/15/15 14/13/13
f 26/26/26 25/23/23 14/13/13
f 28/28/28 27/15/15 23/27/27
f 29/29/29 27/15/15 28/28/28
f 29/29/29 15/16/16 27/15/15
f 8/9/9 9/10/10 29/29/29
f 8/9/9 29/29/29 30/30/30
f 30/30/30 29/29/29 28/28/28
f 9/10/10 15/16/16 29/29/29
f 32/31/31 8/9/9 30/30/30
f 30/30/30 28/28/28 31/32/32
f 31/32/32 32/31/31 30/30/30
f 33/33/33 32/31/31 36/34/34
f 33/33/33 34/35/35 32/31/31
f 32/31/31 34/35/35 35/36/36
f 32/31/31 7/7/7 8/9/9
f 32/31/31 35/36/36 7/7/7
f 31/32/32 36/34/34 32/31/31
f 37/37/37 36/34/34 31/32/32
f 37/37/37 38/38/38 36/34/34
f 39/39/39 36/34/34 38/38/38
f 39/39/39 33/33/33 36/34/34
f 43/40/40 39/39/39 38/38/38
f 40/41/41 42/42/42 39/39/39
f 40/41/41 39/39/39 41/43/43
f 43/40/40 41/43/43 39/39/39
f 42/42/42 33/33/33 39/39/39
f 45/44/44 43/40/40 44/45/45
f 43/40/40 37/37/37 44/45/45
f 43/40/40 38/38/38 37/37/37
f 45/44/44 41/43/43 43/40/40
f 50/46/46 45/44/44 46/47/47
f 45/44/44 44/45/45 46/47/47
f 45/44/44 47/48/48 41/43/43
f 48/49/49 47/48/48 45/44/44
f 48/49/49 45/44/44 49/50/50
f 50/46/46 49/50/50 45/44/44
f 54/51/51 50/46/46 51/52/52
f 50/46/46 52/53/53 51/52/52
f 50/46/46 53/54/54 52/53/53
f 46/47/47 53/54/54 50/46/46
f 54/51/51 49/50/50 50/46/46
f 54/51/51 48/49/49 49/50/50
f 57/55/55 54/51/51 55/56/56
f 58/57/57 55/56/56 54/51/51
f 57/55/55 56/58/58 54/51/51
f 54/51/51 56/58/58 48/49/49
f 58/57/57 54/51/51 51/52/52
f 58/57/57 59/59/59 61/60/60
f 58/57/57 60/61/61 59/59/59
f 51/52/52 60/61/61 58/57/57
f 61/60/60 55/56/56 58/57/57
f 61/60/60 59/59/59 62/62/62
f 61/60/60 62/62/62 65/63/63
f 63/64/64 64/65/65 61/60/60
f 63/64/64 61/60/60 65/63/63
f 61/60/60 64/65/65 55/56/56
f 66/66/66 63/64/64 65/63/63
f 66/66/66 65/63/63 67/67/67
f 67/67/67 65/63/63 62/62/62
f 70/68/68 67/67/67 68/69/69
f 68/69/69 67/67/67 69/70/70
f 67/67/67 62/62/62 69/70/70
f 70/68/68 66/66/66 67/67/67
f 70/68/68 73/71/71 71/72/72
f 70/68/68 71/72/72 66/66/66
f 72/73/73 70/68/68 68/69/69
f 72/73/73 73/71/71 70/68/68
f 72/73/73 75/74/74 73/71/71
f 74/75/75 76/76/76 73/71/71
f 74/75/75 73/71/71 75/74/74
f 76/76/76 71/72/72 73/71/71
f 76/76/76 74/75/75 77/77/77
f 76/76/76 77/77/77 78/78/78
f 79/79/79 76/76/76 78/78/78
f 76/76/76 79/79/79 71/72/72
f 79/79/79 78/78/78 80/80/80
f 81/81/81 79/79/79 80/80/80
f 79/79/79 82/82/82 71/72/72
f 79/79/79 81/81/81 82/82/82
f 81/81/81 83/83/83 82/82/82
f 66/66/66 71/72/72 82/82/82
f 66/66/66 82/82/82 63/64/64
f 63/64/64 82/82/82 83/83/83
f 81/81/81 84/84/84 83/83/83
f 85/85/85 57/55/55 83/83/83
f 83/83/83 57/55/55 55/56/56
f 63/64/64 83/83/83 64/65/65
f 83/83/83 55/56/56 64/65/65
f 85/85/85 83/83/83 84/84/84
f 85/85/85 56/58/58 57/55/55
f 85/85/85 86/86/86 56/58/58
f 86/86/86 85/85/85 87/87/87
f 85/85/85 88/88/88 87/87/87
f 85/85/85 84/84/84 88/88/88
f 84/84/84 90/89/89 88/88/88
f 89/90/90 87/87/87 88/88/88
f 89/90/90 88/88/88 91/91/91
f 92/92/92 88/88/88 90/89/89
f 92/92/92 91/91/91 88/88/88
f 91/91/91 92/92/92 93/93/93
f 92/92/92 94/94/94 93/93/93
f 92/92/92 95/95/95 94/94/94
f 95/95/95 92/92/92 90/89/89
f 96/96/96 94/94/94 95/95/95
f 96/96/96 95/95/95 80/80/80
f 95/95/95 90/89/89 80/80/80
f 96/96/96 97/97/97 94/94/94
f 96/96/96 98/98/98 97/97/97
f 96/96/96 99/99/99 98/98/98
f 99/99/99 96/96/96 78/78/78
f 96/96/96 80/80/80 78/78/78
f 99/99/99 100/100/100 98/98/98
f 99/99/99 101/101/101 100/100/100
f 102/102/102 101/101/101 99/99/99
f 99/99/99 78/78/78 77/77/77
f 102/102/102 99/99/99 77/77/77
f 74/75/75 103/103/103 102/102/102
f 74/75/75 102/102/102 77/77/77
f 104/104/104 102/102/102 103/103/103
f 104/104/104 105/105/105 102/102/102
f 106/106/106 102/102/102 105/105/105
f 106/106/106 101/101/101 102/102/102
f 107/107/107 106/106/106 105/105/105
f 106/106/106 107/107/107 109/108/108
f 106/106/106 108/109/109 100/100/100
f 106/106/106 100/100/100 101/101/101
f 106/106/106 109/108/108 108/109/109
f 107/107/107 110/110/110 109/108/108
f 107/107/107 111/111/111 110/110/110
f 111/111/111 112/112/112 110/110/110
f 111/111/111 113/113/113 112/112/112
f 114/114/114 112/112/112 113/113/113
f 114/114/114 115/115/115 112/112/112
f 116/116/116 115/115/115 114/114/114
f 116/116/116 117/117/117 115/115/115
f 116/116/116 118/118/118 117/117/117
f 120/119/119 119/120/120 118/118/118
f 116/116/116 120/119/119 118/118/118
f 123/121/121 120/119/119 121/122/122
f 120/119/119 122/123/123 121/122/122
f 120/119/119 116/116/116 122/123/123
f 120/119/119 123/121/121 119/120/120
f 126/124/124 123/121/121 124/125/125
f 123/121/121 121/122/122 124/125/125
f 123/121/121 125/126/126 119/120/120
f 123/121/121 126/124/124 125/126/126
f 89/90/90 126/124/124 127/127/127
f 126/124/124 124/125/125 127/127/127
f 126/124/124 89/90/90 128/128/128
f 126/124/124 128/128/128 125/126/126
f 91/91/91 128/128/128 89/90/90
f 91/91/91 129/129/129 128/128/128
f 91/91/91 93/93/93 129/129/129
f 130/130/130 127/127/127 124/125/125
f 130/130/130 86/86/86 127/127/127
f 89/90/90 127/127/127 87/87/87
f 86/86/86 87/87/87 127/127/127
f 130/130/130 124/125/125 121/122/122
f 130/130/130 121/122/122 131/131/131
f 130/130/130 131/131/131 47/48/48
f 130/130/130 47/48/48 48/49/49
f 86/86/86 130/130/130 48/49/49
f 40/41/41 131/131/131 121/122/122
f 131/131/131 40/41/41 41/43/43
f 131/131/131 41/43/43 47/48/48
f 42/42/42 122/123/123 132/132/132
f 116/116/116 132/132/132 122/123/123
f 42/42/42 40/41/41 122/123/123
f 40/41/41 121/122/122 122/123/123
f 134/133/133 132/132/132 133/134/134
f 114/114/114 133/134/134 132/132/132
f 134/133/133 42/42/42 132/132/132
f 116/116/116 114/114/114 132/132/132
f 135/135/135 134/133/133 133/134/134
f 134/133/133 135/135/135 34/35/35
f 42/42/42 134/133/133 33/33/33
f 134/133/133 34/35/35 33/33/33
f 135/135/135 133/134/134 136/136/136
f 137/137/137 135/135/135 136/136/136
f 135/135/135 35/36/36 34/35/35
f 135/135/135 137/137/137 35/36/36
f 104/104/104 137/137/137 138/138/138
f 137/137/137 104/104/104 139/139/139
f 137/137/137 136/136/136 138/138/138
f 137/137/137 139/139/139 35/36/36
f 2/1/1 139/139/139 140/140/140
f 7/7/7 139/139/139 2/1/1
f 7/7/7 35/36/36 139/139/139
f 104/104/104 140/140/140 139/139/139
f 3/4/4 140/140/140 75/74/74
f 140/140/140 74/75/75 75/74/74
f 140/140/140 103/103/103 74/75/75
f 104/104/104 103/103/103 140/140/140
f 2/1/1 140/140/140 3/4/4
f 111/111/111 138/138/138 136/136/136
f 111/111/111 107/107/107 138/138/138
f 107/107/107 105/105/105 138/138/138
f 104/104/104 138/138/138 105/105/105
f 113/113/113 111/111/111 136/136/136
f 113/113/113 136/136/136 133/134/134
f 114/114/114 113/113/113 133/134/134
f 81/81/81 80/80/80 90/89/89
f 84/84/84 81/81/81 90/89/89
f 86/86/86 48/49/49 56/58/58
f 3/4/4 75/74/74 72/73/73
f 72/73/73 68/69/69 4/5/5
f 3/4/4 72/73/73 4/5/5
f 69/70/70 20/24/24 22/18/18
f 62/62/62 20/24/24 69/70/70
f 68/69/69 69/70/70 141/141/141
f 69/70/70 22/18/18 141/141/141
f 68/69/69 141/141/141 142/142/142
f 141/141/141 22/18/18 16/17/17
f 141/141/141 16/17/17 142/142/142
f 68/69/69 142/142/142 4/5/5
f 4/5/5 142/142/142 5/6/6
f 142/142/142 16/17/17 13/14/14
f 142/142/142 13/14/14 5/6/6
f 62/62/62 21/25/25 20/24/24
f 59/59/59 21/25/25 62/62/62
f 60/61/61 25/23/23 26/26/26
f 60/61/61 26/26/26 59/59/59
f 60/61/61 19/19/19 25/23/23
f 51/52/52 52/53/53 60/61/61
f 60/61/61 52/53/53 19/19/19
f 59/59/59 26/26/26 21/25/25
f 46/47/47 143/143/143 53/54/54
f 143/143/143 17/20/20 53/54/54
f 53/54/54 19/19/19 52/53/53
f 53/54/54 17/20/20 19/19/19
f 44/45/45 143/143/143 46/47/47
f 44/45/45 144/144/144 143/143/143
f 144/144/144 18/21/21 143/143/143
f 143/143/143 18/21/21 17/20/20
f 145/145/145 24/22/22 144/144/144
f 144/144/144 24/22/22 18/21/21
f 37/37/37 144/144/144 44/45/45
f 37/37/37 145/145/145 144/144/144
f 145/145/145 23/27/27 24/22/22
f 28/28/28 23/27/27 145/145/145
f 31/32/32 145/145/145 37/37/37
f 31/32/32 28/28/28 145/145/145
f 9/10/10 11/11/11 15/16/16
f 147/1/146 151/3/147 146/2/148
f 147/1/146 146/2/148 148/4/149
f 148/4/149 146/2/148 149/5/150
f 149/5/150 146/2/148 150/6/151
f 151/3/147 150/6/151 146/2/148
f 152/7/152 151/3/147 147/1/146
f 151/3/147 155/8/153 150/6/151
f 152/7/152 153/9/154 151/3/147
f 151/3/147 153/9/154 154/10/155
f 151/3/147 154/10/155 155/8/153
f 155/8/153 154/10/155 156/11/156
f 155/8/153 156/11/156 157/12/157
f 157/12/157 150/6/151 155/8/153
f 156/11/156 159/13/158 157/12/157
f 157/12/157 158/14/159 150/6/151
f 159/13/158 158/14/159 157/12/157
f 172/15/160 159/13/158 160/16/161
f 160/16/161 159/13/158 156/11/156
f 158/14/159 159/13/158 161/17/162
f 161/17/162 159/13/158 167/18/163
f 164/19/164 159/13/158 162/20/165
f 162/20/165 159/13/158 163/21/166
f 163/21/166 159/13/158 169/22/167
f 170/23/168 159/13/158 164/19/164
f 167/18/163 159/13/158 165/24/169
f 165/24/169 159/13/158 166/25/170
f 166/25/170 159/13/158 171/26/171
f 169/22/167 159/13/158 168/27/172
f 168/27/172 159/13/158 172/15/160
f 171/26/171 159/13/158 170/23/168
f 173/28/173 168/27/172 172/15/160
f 174/29/174 173/28/173 172/15/160
f 174/29/174 172/15/160 160/16/161
f 153/9/154 174/29/174 154/10/155
f 153/9/154 175/30/175 174/29/174
f 175/30/175 173/28/173 174/29/174
f 154/10/155 174/29/174 160/16/161
f 177/31/176 175/30/175 153/9/154
f 175/30/175 176/32/177 173/28/173
f 176/32/177 175/30/175 177/31/176
f 178/33/178 181/34/179 177/31/176
f 178/33/178 177/31/176 179/35/180
f 177/31/176 180/36/181 179/35/180
f 177/31/176 153/9/154 152/7/152
f 177/31/176 152/7/152 180/36/181
f 176/32/177 177/31/176 181/34/179
f 182/37/182 176/32/177 181/34/179
f 182/37/182 181/34/179 183/38/183
f 184/39/184 183/38/183 181/34/179
f 184/39/184 181/34/179 178/33/178
f 188/40/185 183/38/183 184/39/184
f 185/41/186 184/39/184 187/42/187
f 185/41/186 186/43/188 184/39/184
f 188/40/185 184/39/184 186/43/188
f 187/42/187 184/39/184 178/33/178
f 190/44/189 189/45/190 188/40/185
f 188/40/185 189/45/190 182/37/182
f 188/40/185 182/37/182 183/38/183
f 190/44/189 188/40/185 186/43/188
f 195/46/191 191/47/192 190/44/189
f 190/44/189 191/47/192 189/45/190
f 190/44/189 186/43/188 192/48/193
f 193/49/194 190/44/189 192/48/193
f 193/49/194 194/50/195 190/44/189
f 195/46/191 190/44/189 194/50/195
f 199/51/196 196/52/197 195/46/191
f 195/46/191 196/52/197 197/53/198
f 195/46/191 197/53/198 198/54/199
f 191/47/192 195/46/191 198/54/199
f 199/51/196 195/46/191 194/50/195
f 199/51/196 194/50/195 193/49/194
f 202/55/200 200/56/201 199/51/196
f 203/57/202 199/51/196 200/56/201
f 202/55/200 199/51/196 201/58/203
f 199/51/196 193/49/194 201/58/203
f 203/57/202 196/52/197 199/51/196
f 203/57/202 206/60/204 204/59/205
f 203/57/202 204/59/205 205/61/206
f 196/52/197 203/57/202 205/61/206
f 206/60/204 203/57/202 200/56/201
f 206/60/204 207/62/207 204/59/205
f 206/60/204 210/63/208 207/62/207
f 208/64/209 206/60/204 209/65/210
f 208/64/209 210/63/208 206/60/204
f 206/60/204 200/56/201 209/65/210
f 211/66/211 210/63/208 208/64/209
f 211/66/211 212/67/212 210/63/208
f 212/67/212 207/62/207 210/63/208
f 215/68/213 213/69/214 212/67/212
f 213/69/214 214/70/215 212/67/212
f 212/67/212 214/70/215 207/62/207
f 215/68/213 212/67/212 211/66/211
f 215/68/213 216/72/216 218/71/217
f 215/68/213 211/66/211 216/72/216
f 217/73/218 213/69/214 215/68/213
f 217/73/218 215/68/213 218/71/217
f 217/73/218 218/71/217 220/74/219
f 219/75/220 218/71/217 221/76/221
f 219/75/220 220/74/219 218/71/217
f 221/76/221 218/71/217 216/72/216
f 221/76/221 222/77/222 219/75/220
f 221/76/221 223/78/223 222/77/222
f 224/79/224 223/78/223 221/76/221
f 221/76/221 216/72/216 224/79/224
f 224/79/224 225/80/225 223/78/223
f 226/81/226 225/80/225 224/79/224
f 224/79/224 216/72/216 227/82/227
f 224/79/224 227/82/227 226/81/226
f 226/81/226 227/82/227 228/83/228
f 211/66/211 227/82/227 216/72/216
f 211/66/211 208/64/209 227/82/227
f 208/64/209 228/83/228 227/82/227
f 226/81/226 228/83/228 229/84/229
f 230/85/230 228/83/228 202/55/200
f 228/83/228 200/56/201 202/55/200
f 208/64/209 209/65/210 228/83/228
f 228/83/228 209/65/210 200/56/201
f 230/85/230 229/84/229 228/83/228
f 230/85/230 202/55/200 201/58/203
f 230/85/230 201/58/203 231/86/231
f 231/86/231 232/87/232 230/85/230
f 230/85/230 232/87/232 233/88/233
f 230/85/230 233/88/233 229/84/229
f 229/84/229 233/88/233 235/89/234
f 234/90/235 233/88/233 232/87/232
f 234/90/235 236/91/236 233/88/233
f 237/92/237 235/89/234 233/88/233
f 237/92/237 233/88/233 236/91/236
f 236/91/236 238/93/238 237/92/237
f 237/92/237 238/93/238 239/94/239
f 237/92/237 239/94/239 240/95/240
f 240/95/240 235/89/234 237/92/237
f 241/96/241 240/95/240 239/94/239
f 241/96/241 225/80/225 240/95/240
f 240/95/240 225/80/225 235/89/234
f 241/96/241 239/94/239 242/97/242
f 241/96/241 242/97/242 243/98/243
f 241/96/241 243/98/243 244/99/244
f 244/99/244 223/78/223 241/96/241
f 241/96/241 223/78/223 225/80/225
f 244/99/244 243/98/243 245/100/245
f 244/99/244 245/100/245 246/101/246
f 247/102/247 244/99/244 246/101/246
f 244/99/244 222/77/222 223/78/223
f 247/102/247 222/77/222 244/99/244
f 219/75/220 247/102/247 248/103/248
f 219/75/220 222/77/222 247/102/247
f 249/104/249 248/103/248 247/102/247
f 249/104/249 247/102/247 250/105/250
f 251/106/251 250/105/250 247/102/247
f 251/106/251 247/102/247 246/101/246
f 252/107/252 250/105/250 251/106/251
f 251/106/251 254/108/253 252/107/252
f 251/106/251 245/100/245 253/109/254
f 251/106/251 246/101/246 245/100/245
f 251/106/251 253/109/254 254/108/253
f 252/107/252 254/108/253 255/110/255
f 252/107/252 255/110/255 256/111/256
f 256/111/256 255/110/255 257/112/257
f 256/111/256 257/112/257 258/113/258
f 259/114/259 258/113/258 257/112/257
f 259/114/259 257/112/257 260/115/260
f 261/116/261 259/114/259 260/115/260
f 261/116/261 260/115/260 262/117/262
f 261/116/261 262/117/262 263/118/263
f 265/119/264 263/118/263 264/120/265
f 261/116/261 263/118/263 265/119/264
f 268/121/266 266/122/267 265/119/264
f 265/119/264 266/122/267 267/123/268
f 265/119/264 267/123/268 261/116/261
f 265/119/264 264/120/265 268/121/266
f 271/124/269 269/125/270 268/121/266
f 268/121/266 269/125/270 266/122/267
f 268/121/266 264/120/265 270/126/271
f 268/121/266 270/126/271 271/124/269
f 234/90/235 272/127/272 271/124/269
f 271/124/269 272/127/272 269/125/270
f 271/124/269 273/128/273 234/90/235
f 271/124/269 270/126/271 273/128/273
f 236/91/236 234/90/235 273/128/273
f 236/91/236 273/128/273 274/129/274
f 236/91/236 274/129/274 238/93/238
f 275/130/275 269/125/270 272/127/272
f 275/130/275 272/127/272 231/86/231
f 234/90/235 232/87/232 272/127/272
f 231/86/231 272/127/272 232/87/232
f 275/130/275 266/122/267 269/125/270
f 275/130/275 276/131/276 266/122/267
f 275/130/275 192/48/193 276/131/276
f 275/130/275 193/49/194 192/48/193
f 231/86/231 193/49/194 275/130/275
f 185/41/186 266/122/267 276/131/276
f 276/131/276 186/43/188 185/41/186
f 276/131/276 192/48/193 186/43/188
f 187/42/187 277/132/277 267/123/268
f 261/116/261 267/123/268 277/132/277
f 187/42/187 267/123/268 185/41/186
f 185/41/186 267/123/268 266/122/267
f 279/133/278 278/134/279 277/132/277
f 259/114/259 277/132/277 278/134/279
f 279/133/278 277/132/277 187/42/187
f 261/116/261 277/132/277 259/114/259
f 280/135/280 278/134/279 279/133/278
f 279/133/278 179/35/180 280/135/280
f 187/42/187 178/33/178 279/133/278
f 279/133/278 178/33/178 179/35/180
f 280/135/280 281/136/281 278/134/279
f 282/137/282 281/136/281 280/135/280
f 280/135/280 179/35/180 180/36/181
f 280/135/280 180/36/181 282/137/282
f 249/104/249 283/138/283 282/137/282
f 282/137/282 284/139/284 249/104/249
f 282/137/282 283/138/283 281/136/281
f 282/137/282 180/36/181 284/139/284
f 147/1/146 285/140/285 284/139/284
f 152/7/152 147/1/146 284/139/284
f 152/7/152 284/139/284 180/36/181
f 249/104/249 284/139/284 285/140/285
f 148/4/149 220/74/219 285/140/285
f 285/140/285 220/74/219 219/75/220
f 285/140/285 219/75/220 248/103/248
f 249/104/249 285/140/285 248/103/248
f 147/1/146 148/4/149 285/140/285
f 256/111/256 281/136/281 283/138/283
f 256/111/256 283/138/283 252/107/252
f 252/107/252 283/138/283 250/105/250
f 249/104/249 250/105/250 283/138/283
f 258/113/258 281/136/281 256/111/256
f 258/113/258 278/134/279 281/136/281
f 259/114/259 278/134/279 258/113/258
f 226/81/226 235/89/234 225/80/225
f 229/84/229 235/89/234 226/81/226
f 231/86/231 201/58/203 193/49/194
f 148/4/149 217/73/218 220/74/219
f 217/73/218 149/5/150 213/69/214
f 148/4/149 149/5/150 217/73/218
f 214/70/215 167/18/163 165/24/169
f 207/62/207 214/70/215 165/24/169
f 213/69/214 286/141/286 214/70/215
f 214/70/215 286/141/286 167/18/163
f 213/69/214 287/142/287 286/141/286
f 286/141/286 161/17/162 167/18/163
f 286/141/286 287/142/287 161/17/162
f 213/69/214 149/5/150 287/142/287
f 149/5/150 150/6/151 287/142/287
f 287/142/287 158/14/159 161/17/162
f 287/142/287 150/6/151 158/14/159
f 207/62/207 165/24/169 166/25/170
f 204/59/205 207/62/207 166/25/170
f 205/61/206 171/26/171 170/23/168
f 205/61/206 204/59/205 171/26/171
f 205/61/206 170/23/168 164/19/164
f 196/52/197 205/61/206 197/53/198
f 205/61/206 164/19/164 197/53/198
f 204/59/205 166/25/170 171/26/171
f 191/47/192 198/54/199 288/143/288
f 288/143/288 198/54/199 162/20/165
f 198/54/199 197/53/198 164/19/164
f 198/54/199 164/19/164 162/20/165
f 189/45/190 191/47/192 288/143/288
f 189/45/190 288/143/288 289/144/289
f 289/144/289 288/143/288 163/21/166
f 288/143/288 162/20/165 163/21/166
f 290/145/290 289/144/289 169/22/167
f 289/144/289 163/21/166 169/22/167
f 182/37/182 189/45/190 289/144/289
f 182/37/182 289/144/289 290/145/290
f 290/145/290 169/22/167 168/27/172
f 173/28/173 290/145/290 168/27/172
f 176/32/177 182/37/182 290/145/290
f 176/32/177 290/145/290 173/28/173
f 154/10/155 160/16/161 156/11/156
f 93/93/93 94/94/94 239/94/239 238/93/238
f 94/94/94 97/97/97 242/97/242 239/94/239
f 97/97/97 98/98/98 243/98/243 242/97/242
f 98/98/98 100/100/100 245/100/245 243/98/243
f 100/100/100 108/109/109 253/109/254 245/100/245
f 108/109/109 109/108/108 254/108/253 253/109/254
f 109/108/108 110/110/110 255/110/255 254/108/253
f 110/110/110 112/112/112 257/112/257 255/110/255
f 112/112/112 115/115/115 260/115/260 257/112/257
f 115/115/115 117/117/117 262/117/262 260/115/260
f 117/117/117 118/118/118 263/118/263 262/117/262
f 118/118/118 119/120/120 264/120/265 263/118/263
f 119/120/120 125/126/126 270/126/271 264/120/265
f 125/126/126 128/128/128 273/128/273 270/126/271
f 128/128/128 129/129/129 274/129/274 273/128/273
f 129/129/129 93/93/93 238/93/238 274/129/274
