# Blender 5.1.2
# www.blender.org
o Object_7.002
v -0.065580 -0.069459 0.005893
v -0.050154 -0.090952 0.006635
v -0.035962 -0.099537 0.012631
v -0.026502 -0.092712 0.023344
v -0.066678 -0.036293 -0.010820
v -0.044707 -0.028306 -0.022768
v -0.021387 -0.077515 0.031760
v -0.071620 -0.049641 -0.000066
v -0.055785 -0.029103 -0.019290
v -0.022274 -0.048885 0.034944
v -0.020728 -0.062103 0.035189
v -0.035187 -0.030764 -0.022555
v -0.038580 -0.037034 -0.008100
v -0.026774 -0.053489 0.020262
v -0.038856 -0.036290 -0.007762
v -0.027328 -0.053072 0.020601
v -0.035408 -0.030335 -0.022433
v -0.035408 -0.030335 -0.022433
v -0.021072 -0.061981 0.035341
v -0.021072 -0.061981 0.035341
v -0.022643 -0.048492 0.035066
v -0.022643 -0.048492 0.035066
v -0.055769 -0.028677 -0.019092
v -0.055769 -0.028677 -0.019092
v -0.071612 -0.049441 0.000207
v -0.071612 -0.049441 0.000207
v -0.021694 -0.077536 0.031958
v -0.021694 -0.077536 0.031958
v -0.044773 -0.027857 -0.022617
v -0.044773 -0.027857 -0.022617
v -0.066638 -0.035934 -0.010572
v -0.066638 -0.035934 -0.010572
v -0.026760 -0.092765 0.023592
v -0.026760 -0.092765 0.023592
v -0.036106 -0.099548 0.012905
v -0.036106 -0.099548 0.012905
v -0.050211 -0.090888 0.006938
v -0.050211 -0.090888 0.006938
v -0.065625 -0.069380 0.006196
v -0.065625 -0.069380 0.006196
v -0.026104 -0.043605 0.020442
v -0.037107 -0.078193 0.014990
v -0.056546 -0.050276 -0.001729
v -0.030578 -0.064917 0.019006
v -0.032313 -0.034710 -0.007697
v -0.047171 -0.040894 -0.005976
v -0.063220 -0.062637 0.003573
v -0.045645 -0.087544 0.009817
v -0.025506 -0.044318 0.020162
v -0.036726 -0.078311 0.014443
v -0.056462 -0.050808 -0.002276
v -0.030095 -0.065144 0.018569
v -0.031863 -0.035460 -0.007975
v -0.047011 -0.041567 -0.006412
v -0.063155 -0.062939 0.002978
v -0.045428 -0.087636 0.009222
v -0.042364 -0.097484 0.008460
v -0.070233 -0.058515 0.004387
v -0.070233 -0.058515 0.004387
v -0.058432 -0.080955 0.006251
v -0.033122 -0.044639 0.006414
v -0.032700 -0.045230 0.006057
v -0.042447 -0.097448 0.008741
v -0.042447 -0.097448 0.008741
v -0.070208 -0.058628 0.004105
v -0.058484 -0.080882 0.006566
v -0.058484 -0.080882 0.006566
v -0.029227 -0.039133 0.006372
v -0.054683 -0.075390 0.006702
v -0.046858 -0.064216 0.006633
v -0.038906 -0.052862 0.006510
v -0.028723 -0.039836 0.006075
v -0.054537 -0.075594 0.006076
v -0.046617 -0.064554 0.006057
v -0.038567 -0.053336 0.006052
v -0.050522 0.092477 0.005893
v -0.065955 0.070994 0.006635
v -0.072120 0.051231 0.012631
v -0.067219 0.038057 0.023344
v -0.026706 0.094006 -0.010820
v -0.020970 0.063409 -0.022768
v -0.056307 0.030934 0.031760
v -0.036291 0.100889 -0.000066
v -0.021542 0.078837 -0.019290
v -0.035747 0.032169 0.034944
v -0.045240 0.030017 0.035189
v -0.022735 0.050152 -0.022555
v -0.027237 0.054876 -0.008100
v -0.039054 0.038436 0.020262
v -0.026703 0.055261 -0.007762
v -0.038755 0.039207 0.020601
v -0.022428 0.050460 -0.022433
v -0.022428 0.050460 -0.022433
v -0.045152 0.030495 0.035342
v -0.045152 0.030495 0.035342
v -0.035465 0.032683 0.035066
v -0.035465 0.032683 0.035066
v -0.021236 0.078814 -0.019092
v -0.021236 0.078814 -0.019092
v -0.036147 0.100877 0.000207
v -0.036147 0.100877 0.000207
v -0.056321 0.031361 0.031958
v -0.056321 0.031361 0.031958
v -0.020648 0.063501 -0.022617
v -0.020648 0.063501 -0.022617
v -0.026448 0.093951 -0.010572
v -0.026448 0.093951 -0.010572
v -0.067258 0.038416 0.023592
v -0.067258 0.038416 0.023592
v -0.072128 0.051432 0.012905
v -0.072128 0.051432 0.012905
v -0.065910 0.071074 0.006938
v -0.065910 0.071074 0.006938
v -0.050465 0.092539 0.006196
v -0.050465 0.092539 0.006196
v -0.031956 0.037503 0.020442
v -0.056793 0.052826 0.014990
v -0.036747 0.079896 -0.001729
v -0.047260 0.043733 0.019006
v -0.025569 0.046150 -0.007697
v -0.030009 0.066841 -0.005976
v -0.045623 0.089190 0.003573
v -0.063508 0.064716 0.009817
v -0.032468 0.036670 0.020162
v -0.056878 0.052295 0.014443
v -0.037128 0.079780 -0.002276
v -0.047423 0.043061 0.018569
v -0.026107 0.045523 -0.007975
v -0.030493 0.066617 -0.006412
v -0.045840 0.089100 0.002978
v -0.063574 0.064413 0.009222
v -0.070646 0.060146 0.008460
v -0.042663 0.098956 0.004387
v -0.042663 0.098956 0.004387
v -0.058777 0.082522 0.006251
v -0.032698 0.047276 0.006415
v -0.033123 0.046688 0.006057
v -0.070620 0.060261 0.008741
v -0.070620 0.060261 0.008741
v -0.042744 0.098921 0.004105
v -0.058725 0.082595 0.006566
v -0.058725 0.082595 0.006566
v -0.028745 0.041851 0.006372
v -0.054781 0.077301 0.006702
v -0.046757 0.066405 0.006633
v -0.038603 0.055330 0.006510
v -0.029249 0.041150 0.006075
v -0.054927 0.077099 0.006076
v -0.046999 0.066069 0.006057
v -0.038944 0.054859 0.006052
v 0.065621 0.071388 0.005893
v 0.050195 0.092881 0.006634
v 0.036004 0.101466 0.012631
v 0.026543 0.094640 0.023344
v 0.066719 0.038222 -0.010820
v 0.044748 0.030235 -0.022768
v 0.021428 0.079444 0.031760
v 0.071662 0.051570 -0.000066
v 0.055827 0.031032 -0.019290
v 0.022315 0.050813 0.034944
v 0.020770 0.064032 0.035189
v 0.035229 0.032693 -0.022555
v 0.038621 0.038962 -0.008100
v 0.026816 0.055418 0.020262
v 0.038897 0.038218 -0.007762
v 0.027369 0.055001 0.020601
v 0.035450 0.032264 -0.022434
v 0.035450 0.032264 -0.022434
v 0.021113 0.063910 0.035341
v 0.021113 0.063910 0.035341
v 0.022684 0.050420 0.035066
v 0.022684 0.050420 0.035066
v 0.055811 0.030605 -0.019092
v 0.055811 0.030605 -0.019092
v 0.071653 0.051370 0.000207
v 0.071653 0.051370 0.000207
v 0.021735 0.079464 0.031958
v 0.021735 0.079464 0.031958
v 0.044815 0.029785 -0.022617
v 0.044815 0.029785 -0.022617
v 0.066680 0.037863 -0.010572
v 0.066680 0.037863 -0.010572
v 0.026801 0.094694 0.023592
v 0.026801 0.094694 0.023592
v 0.036148 0.101476 0.012905
v 0.036148 0.101476 0.012905
v 0.050253 0.092817 0.006938
v 0.050253 0.092817 0.006938
v 0.065666 0.071308 0.006196
v 0.065666 0.071308 0.006196
v 0.026146 0.045533 0.020442
v 0.037148 0.080121 0.014990
v 0.056588 0.052205 -0.001729
v 0.030619 0.066846 0.019006
v 0.032355 0.036639 -0.007697
v 0.047212 0.042822 -0.005976
v 0.063261 0.064565 0.003573
v 0.045687 0.089472 0.009817
v 0.025547 0.046247 0.020162
v 0.036767 0.080240 0.014443
v 0.056504 0.052736 -0.002276
v 0.030136 0.067072 0.018569
v 0.031904 0.037389 -0.007975
v 0.047052 0.043496 -0.006413
v 0.063197 0.064868 0.002978
v 0.045470 0.089565 0.009222
v 0.042405 0.099413 0.008460
v 0.070274 0.060443 0.004387
v 0.070274 0.060443 0.004387
v 0.058473 0.082884 0.006251
v 0.033163 0.046567 0.006414
v 0.032741 0.047159 0.006057
v 0.042488 0.099376 0.008741
v 0.042488 0.099376 0.008741
v 0.070249 0.060557 0.004105
v 0.058525 0.082811 0.006566
v 0.058525 0.082811 0.006566
v 0.029268 0.041061 0.006372
v 0.054724 0.077319 0.006702
v 0.046899 0.066145 0.006633
v 0.038947 0.054791 0.006510
v 0.028764 0.041764 0.006075
v 0.054579 0.077523 0.006076
v 0.046658 0.066483 0.006057
v 0.038608 0.055265 0.006052
v 0.050529 -0.090414 0.005893
v 0.065962 -0.068931 0.006634
v 0.072128 -0.049168 0.012631
v 0.067226 -0.035994 0.023344
v 0.026713 -0.091943 -0.010820
v 0.020977 -0.061346 -0.022768
v 0.056314 -0.028871 0.031760
v 0.036298 -0.098826 -0.000066
v 0.021550 -0.076774 -0.019290
v 0.035755 -0.030106 0.034944
v 0.045247 -0.027954 0.035189
v 0.022743 -0.048089 -0.022555
v 0.027245 -0.052813 -0.008100
v 0.039061 -0.036373 0.020262
v 0.026710 -0.053198 -0.007762
v 0.038762 -0.037144 0.020601
v 0.022435 -0.048397 -0.022434
v 0.022435 -0.048397 -0.022434
v 0.045159 -0.028432 0.035341
v 0.045159 -0.028432 0.035341
v 0.035472 -0.030620 0.035066
v 0.035472 -0.030620 0.035066
v 0.021244 -0.076751 -0.019092
v 0.021244 -0.076751 -0.019092
v 0.036154 -0.098814 0.000207
v 0.036154 -0.098814 0.000207
v 0.056329 -0.029298 0.031958
v 0.056329 -0.029298 0.031958
v 0.020655 -0.061438 -0.022617
v 0.020655 -0.061438 -0.022617
v 0.026455 -0.091888 -0.010572
v 0.026455 -0.091888 -0.010572
v 0.067265 -0.036353 0.023592
v 0.067265 -0.036353 0.023592
v 0.072135 -0.049369 0.012904
v 0.072135 -0.049369 0.012904
v 0.065917 -0.069011 0.006938
v 0.065917 -0.069011 0.006938
v 0.050472 -0.090476 0.006196
v 0.050472 -0.090476 0.006196
v 0.031963 -0.035440 0.020442
v 0.056800 -0.050763 0.014989
v 0.036754 -0.077833 -0.001729
v 0.047268 -0.041670 0.019005
v 0.025576 -0.044087 -0.007697
v 0.030016 -0.064778 -0.005977
v 0.045630 -0.087127 0.003573
v 0.063515 -0.062653 0.009817
v 0.032476 -0.034607 0.020162
v 0.056886 -0.050232 0.014443
v 0.037136 -0.077717 -0.002276
v 0.047430 -0.040998 0.018569
v 0.026115 -0.043460 -0.007976
v 0.030500 -0.064554 -0.006413
v 0.045847 -0.087037 0.002978
v 0.063581 -0.062350 0.009222
v 0.070653 -0.058084 0.008460
v 0.042670 -0.096893 0.004386
v 0.042670 -0.096893 0.004386
v 0.058784 -0.080459 0.006251
v 0.032706 -0.045213 0.006414
v 0.033130 -0.044625 0.006057
v 0.070627 -0.058199 0.008741
v 0.070627 -0.058199 0.008741
v 0.042752 -0.096858 0.004105
v 0.058732 -0.080532 0.006566
v 0.058732 -0.080532 0.006566
v 0.028752 -0.039788 0.006372
v 0.054788 -0.075238 0.006701
v 0.046764 -0.064342 0.006632
v 0.038611 -0.053267 0.006510
v 0.029257 -0.039087 0.006075
v 0.054934 -0.075036 0.006076
v 0.047007 -0.064006 0.006057
v 0.038951 -0.052796 0.006052
v -0.039263 -0.021526 -0.027743
v -0.038987 -0.021368 -0.027983
v -0.039559 -0.021697 0.041657
v -0.039559 -0.021697 0.041657
v -0.039835 -0.021855 0.041418
v -0.042476 0.001105 -0.027743
v -0.042178 0.001105 -0.027983
v -0.042797 0.001106 0.041657
v -0.042797 0.001106 0.041657
v -0.043095 0.001106 0.041418
v -0.039226 0.023727 -0.027743
v -0.038950 0.023567 -0.027983
v -0.039522 0.023898 0.041657
v -0.039522 0.023898 0.041657
v -0.039797 0.024058 0.041418
v -0.030007 0.042894 -0.027743
v -0.029796 0.042600 -0.027983
v -0.030233 0.043210 0.041657
v -0.030233 0.043210 0.041657
v -0.030444 0.043504 0.041418
v -0.016222 0.055689 -0.027743
v -0.016108 0.055305 -0.027983
v -0.016344 0.056101 0.041657
v -0.016344 0.056101 0.041657
v -0.016458 0.056486 0.041418
v 0.000030 0.060164 -0.027743
v 0.000029 0.059748 -0.027983
v 0.000030 0.060610 0.041657
v 0.000030 0.060610 0.041657
v 0.000030 0.061026 0.041418
v 0.016274 0.055638 -0.027743
v 0.016159 0.055254 -0.027983
v 0.016397 0.056049 0.041657
v 0.016397 0.056049 0.041657
v 0.016511 0.056433 0.041418
v 0.030038 0.042799 -0.027743
v 0.029826 0.042505 -0.027983
v 0.030264 0.043114 0.041657
v 0.030264 0.043114 0.041657
v 0.030476 0.043408 0.041418
v 0.039226 0.023602 -0.027743
v 0.038950 0.023444 -0.027983
v 0.039521 0.023773 0.041657
v 0.039521 0.023773 0.041657
v 0.039797 0.023931 0.041418
v 0.042439 0.000971 -0.027743
v 0.042140 0.000971 -0.027983
v 0.042759 0.000970 0.041657
v 0.042759 0.000970 0.041657
v 0.043058 0.000970 0.041418
v 0.039188 -0.021651 -0.027743
v 0.038913 -0.021491 -0.027983
v 0.039484 -0.021822 0.041657
v 0.039484 -0.021822 0.041657
v 0.039760 -0.021982 0.041418
v 0.029969 -0.040818 -0.027744
v 0.029758 -0.040524 -0.027983
v 0.030195 -0.041134 0.041657
v 0.030195 -0.041134 0.041657
v 0.030406 -0.041428 0.041418
v 0.016184 -0.053613 -0.027744
v 0.016070 -0.053229 -0.027983
v 0.016307 -0.054025 0.041657
v 0.016307 -0.054025 0.041657
v 0.016420 -0.054410 0.041418
v -0.000067 -0.058088 -0.027743
v -0.000067 -0.058088 -0.027743
v -0.000067 -0.057672 -0.027983
v -0.000067 -0.057672 -0.027983
v -0.000067 -0.058534 0.041657
v -0.000067 -0.058534 0.041657
v -0.000067 -0.058534 0.041657
v -0.000068 -0.058950 0.041418
v -0.000068 -0.058950 0.041418
v -0.016311 -0.053562 -0.027743
v -0.016197 -0.053178 -0.027983
v -0.016434 -0.053973 0.041657
v -0.016434 -0.053973 0.041657
v -0.016549 -0.054357 0.041418
v -0.030075 -0.040723 -0.027743
v -0.029864 -0.040429 -0.027983
v -0.030302 -0.041038 0.041657
v -0.030302 -0.041038 0.041657
v -0.030513 -0.041332 0.041418
v -0.039835 -0.021855 -0.027504
v -0.039559 -0.021696 -0.027743
v -0.043095 0.001106 -0.027504
v -0.042797 0.001106 -0.027743
v -0.039797 0.024058 -0.027504
v -0.039522 0.023898 -0.027743
v -0.030444 0.043504 -0.027504
v -0.030233 0.043210 -0.027743
v -0.016458 0.056486 -0.027504
v -0.016344 0.056101 -0.027743
v 0.000030 0.061026 -0.027504
v 0.000030 0.060610 -0.027743
v 0.016511 0.056433 -0.027504
v 0.016397 0.056049 -0.027743
v 0.030476 0.043408 -0.027504
v 0.030264 0.043114 -0.027743
v 0.039797 0.023931 -0.027504
v 0.039521 0.023773 -0.027743
v 0.043058 0.000970 -0.027504
v 0.042759 0.000970 -0.027743
v 0.039760 -0.021982 -0.027504
v 0.039484 -0.021822 -0.027743
v 0.030406 -0.041428 -0.027504
v 0.030195 -0.041134 -0.027744
v 0.016421 -0.054410 -0.027504
v 0.016307 -0.054025 -0.027744
v -0.000068 -0.058950 -0.027504
v -0.000068 -0.058950 -0.027504
v -0.000067 -0.058534 -0.027743
v -0.000067 -0.058534 -0.027743
v -0.016549 -0.054357 -0.027504
v -0.016434 -0.053973 -0.027743
v -0.030513 -0.041332 -0.027504
v -0.030302 -0.041038 -0.027743
v -0.038987 -0.021368 -0.041858
v -0.038711 -0.021209 -0.042098
v -0.038711 -0.021209 -0.042098
v -0.042178 0.001105 -0.041858
v -0.041879 0.001104 -0.042098
v -0.041879 0.001104 -0.042098
v -0.038950 0.023567 -0.041858
v -0.038674 0.023408 -0.042098
v -0.038674 0.023408 -0.042098
v -0.029796 0.042600 -0.041858
v -0.029585 0.042306 -0.042098
v -0.029585 0.042306 -0.042098
v -0.016108 0.055305 -0.041858
v -0.015994 0.054921 -0.042098
v -0.015994 0.054921 -0.042098
v 0.000029 0.059748 -0.041858
v 0.000029 0.059333 -0.042098
v 0.000029 0.059333 -0.042098
v 0.016159 0.055254 -0.041858
v 0.016045 0.054870 -0.042098
v 0.016045 0.054870 -0.042098
v 0.029826 0.042505 -0.041858
v 0.029615 0.042212 -0.042098
v 0.029615 0.042212 -0.042098
v 0.038950 0.023444 -0.041858
v 0.038673 0.023285 -0.042098
v 0.038673 0.023285 -0.042098
v 0.042140 0.000971 -0.041858
v 0.041842 0.000972 -0.042098
v 0.041842 0.000972 -0.042098
v 0.038913 -0.021491 -0.041858
v 0.038637 -0.021332 -0.042098
v 0.038637 -0.021332 -0.042098
v 0.029758 -0.040524 -0.041858
v 0.029547 -0.040229 -0.042098
v 0.029547 -0.040229 -0.042098
v 0.016070 -0.053229 -0.041858
v 0.015956 -0.052845 -0.042098
v 0.015956 -0.052845 -0.042098
v -0.000067 -0.057672 -0.041858
v -0.000067 -0.057672 -0.041858
v -0.000066 -0.057257 -0.042098
v -0.000066 -0.057257 -0.042098
v -0.000066 -0.057257 -0.042098
v -0.016197 -0.053178 -0.041858
v -0.016082 -0.052794 -0.042098
v -0.016082 -0.052794 -0.042098
v -0.029864 -0.040429 -0.041858
v -0.029652 -0.040136 -0.042098
v -0.029652 -0.040136 -0.042098
vn 0.9132 0.0642 0.4025
vn -0.3762 -0.0530 0.9250
vn 0.9597 -0.0445 0.2774
vn -0.3049 -0.8104 0.5003
vn -0.0809 -0.6560 0.7504
vn -0.6332 0.0096 0.7739
vn 0.7049 -0.5158 -0.4869
vn 0.9157 -0.1903 -0.3541
vn 0.8843 -0.1431 -0.4444
vn -0.7133 0.5072 0.4837
vn -0.3150 0.8407 0.4405
vn -0.2336 0.8001 0.5525
vn -0.8998 -0.1678 -0.4028
vn -0.8552 -0.3788 -0.3539
vn -0.7406 0.0305 0.6713
vn 0.6366 -0.0155 -0.7710
vn 0.5457 -0.6385 -0.5427
vn 0.4338 0.0719 -0.8981
vn -0.3805 0.2308 0.8955
vn -0.7573 0.1354 0.6389
vn -0.1569 -0.3016 0.9404
vn 0.9663 -0.2356 0.1040
vn 0.3799 -0.2738 -0.8836
vn 0.7616 -0.1393 -0.6329
vn -0.5468 0.4339 0.7160
vn -0.2136 0.6704 0.7105
vn -0.8817 0.1383 0.4510
vn -0.8086 -0.0123 0.5882
vn -0.9153 0.1843 0.3582
vn -0.0809 0.5107 0.8560
vn -0.0631 0.9294 -0.3636
vn -0.1567 -0.3016 0.9405
vn -0.3760 -0.0530 0.9251
vn -0.7305 -0.4787 -0.4870
vn -0.6612 -0.4413 0.6067
vn -0.7120 -0.2351 0.6617
vn -0.4147 -0.1051 -0.9039
vn -0.6685 0.7238 0.1709
vn -0.4239 0.8964 -0.1298
vn 0.2156 -0.6321 -0.7443
vn 0.0102 -0.5032 -0.8641
vn -0.7120 -0.2352 0.6616
vn 0.1062 0.3231 0.9404
vn -0.7743 -0.0466 -0.6312
vn -0.4465 -0.0938 0.8898
vn -0.1249 0.0780 0.9891
vn 0.1447 0.8547 -0.4985
vn -0.1382 -0.3327 -0.9328
vn -0.6613 -0.4415 0.6065
vn 0.8939 -0.4243 -0.1444
vn -0.0810 -0.6559 0.7505
vn -0.6086 -0.6889 0.3937
vn -0.0630 0.9295 -0.3635
vn -0.0880 -0.2666 -0.9598
vn -0.3049 -0.8103 0.5005
vn 0.0473 -0.6161 -0.7862
vn -0.7965 0.3536 0.4905
vn -0.7963 0.3537 0.4907
vn -0.6686 0.7237 0.1708
vn -0.6851 -0.5331 0.4965
vn 0.1045 -0.0928 -0.9902
vn 0.5906 -0.4263 -0.6852
vn 0.1447 0.8548 -0.4984
vn -0.0394 -0.6952 -0.7178
vn 0.2299 -0.7950 -0.5614
vn 0.3111 -0.8377 -0.4489
vn -0.6256 -0.4816 -0.6138
vn -0.3658 -0.5672 -0.7379
vn -0.6851 -0.5330 0.4966
vn -0.4239 0.8963 -0.1299
vn -0.6086 -0.6888 0.3938
vn -0.8086 -0.0124 0.5883
vn 0.7558 -0.5561 -0.3458
vn -0.7662 0.5446 0.3412
vn 0.1154 -0.8466 0.5195
vn -0.0763 0.2793 0.9571
vn -0.0832 -0.9244 0.3723
vn -0.9001 0.1748 0.3991
vn -0.7717 0.0488 0.6341
vn 0.0148 0.5065 0.8621
vn -0.7150 -0.5039 -0.4847
vn -0.3344 -0.8298 -0.4468
vn -0.2490 -0.7935 -0.5553
vn 0.7080 0.5134 0.4849
vn 0.9210 0.1780 0.3466
vn 0.8879 0.1337 0.4402
vn -0.2935 0.8112 -0.5057
vn -0.5970 0.6951 -0.4004
vn 0.0497 0.6202 0.7829
vn -0.0240 -0.5099 -0.8599
vn -0.7989 -0.3521 -0.4876
vn 0.1047 -0.3259 -0.9396
vn 0.3247 0.2760 0.9046
vn 0.2193 0.6324 0.7430
vn -0.4054 0.1088 0.9076
vn -0.4237 -0.8958 0.1342
vn -0.3812 -0.2727 -0.8833
vn -0.2260 -0.6369 -0.7371
vn 0.5949 0.3865 0.7048
vn 0.7891 0.1296 0.6005
vn 0.2406 0.7906 0.5631
vn -0.0208 0.7024 0.7115
vn 0.3243 0.8306 0.4527
vn 0.6382 0.0521 0.7681
vn 0.9622 0.0337 -0.2703
vn -0.4055 0.1087 0.9076
vn -0.0763 0.2792 0.9572
vn -0.6815 0.5363 -0.4979
vn -0.6237 0.4817 0.6156
vn -0.3647 0.5693 0.7368
vn -0.1521 0.3093 -0.9387
vn 0.8925 0.4250 0.1513
vn 0.9666 0.2358 -0.1007
vn -0.7568 -0.1331 -0.6399
vn -0.6298 -0.0066 -0.7767
vn -0.3649 0.5694 0.7367
vn 0.4305 -0.0729 0.8996
vn -0.0769 0.6591 -0.7481
vn -0.1369 0.3358 0.9319
vn 0.1088 0.0898 0.9900
vn 0.9194 -0.0803 -0.3850
vn -0.4428 0.0949 -0.8916
vn -0.6239 0.4818 0.6154
vn -0.6681 -0.7259 -0.1633
vn -0.7717 0.0489 0.6342
vn -0.8525 0.3883 0.3498
vn 0.9622 0.0337 -0.2702
vn -0.3604 0.0613 -0.9308
vn -0.9000 0.1747 0.3993
vn -0.7369 -0.0292 -0.6754
vn 0.5470 0.6355 0.5449
vn 0.5471 0.6353 0.5450
vn 0.8924 0.4251 0.1512
vn -0.7281 0.4826 0.4868
vn -0.1290 -0.0750 -0.9888
vn -0.5932 -0.4237 -0.6846
vn 0.9195 -0.0803 -0.3849
vn -0.8030 0.0234 -0.5955
vn -0.8841 -0.1319 -0.4483
vn -0.9187 -0.1759 -0.3535
vn -0.6613 0.4430 -0.6053
vn -0.7098 0.2364 -0.6635
vn -0.7280 0.4826 0.4869
vn -0.8525 0.3884 0.3499
vn -0.0208 0.7022 0.7116
vn -0.7691 -0.5390 -0.3435
vn 0.7606 0.5518 0.3422
vn -0.9132 -0.0642 0.4025
vn 0.3762 0.0530 0.9250
vn -0.9597 0.0445 0.2774
vn 0.3050 0.8104 0.5002
vn 0.0807 0.6560 0.7504
vn 0.6332 -0.0095 0.7739
vn -0.7049 0.5158 -0.4869
vn -0.9157 0.1903 -0.3541
vn -0.8843 0.1431 -0.4444
vn 0.7133 -0.5072 0.4837
vn 0.3150 -0.8407 0.4405
vn 0.2336 -0.8001 0.5525
vn 0.8998 0.1678 -0.4028
vn 0.8552 0.3787 -0.3538
vn 0.7406 -0.0305 0.6713
vn -0.6366 0.0155 -0.7710
vn -0.5458 0.6385 -0.5426
vn -0.4338 -0.0719 -0.8981
vn 0.3805 -0.2308 0.8955
vn 0.7573 -0.1354 0.6389
vn 0.1568 0.3016 0.9405
vn -0.9663 0.2356 0.1040
vn -0.3799 0.2738 -0.8836
vn -0.7616 0.1393 -0.6329
vn 0.5468 -0.4339 0.7160
vn 0.2136 -0.6704 0.7105
vn 0.8817 -0.1383 0.4510
vn 0.8086 0.0123 0.5882
vn 0.9153 -0.1843 0.3582
vn 0.0809 -0.5107 0.8560
vn 0.0631 -0.9294 -0.3636
vn 0.1566 0.3016 0.9405
vn 0.3760 0.0530 0.9251
vn 0.7306 0.4786 -0.4871
vn 0.6612 0.4412 0.6067
vn 0.7120 0.2351 0.6616
vn 0.4147 0.1051 -0.9039
vn 0.6685 -0.7238 0.1710
vn 0.4239 -0.8964 -0.1299
vn -0.2156 0.6321 -0.7443
vn -0.0102 0.5032 -0.8641
vn 0.7121 0.2352 0.6615
vn -0.1062 -0.3231 0.9404
vn 0.7743 0.0466 -0.6311
vn 0.4465 0.0938 0.8898
vn 0.1249 -0.0780 0.9891
vn -0.1447 -0.8547 -0.4985
vn 0.1382 0.3327 -0.9328
vn 0.6613 0.4414 0.6065
vn -0.8939 0.4243 -0.1444
vn 0.0809 0.6559 0.7505
vn 0.6086 0.6889 0.3936
vn 0.0630 -0.9295 -0.3635
vn 0.0880 0.2669 -0.9597
vn 0.3049 0.8103 0.5005
vn -0.0474 0.6161 -0.7862
vn 0.7965 -0.3536 0.4905
vn 0.7963 -0.3537 0.4907
vn 0.6686 -0.7238 0.1709
vn 0.6851 0.5331 0.4964
vn -0.1045 0.0928 -0.9902
vn -0.5906 0.4263 -0.6852
vn -0.1447 -0.8548 -0.4984
vn 0.0394 0.6952 -0.7178
vn -0.2299 0.7950 -0.5614
vn -0.3111 0.8377 -0.4489
vn 0.6255 0.4817 -0.6138
vn 0.3658 0.5672 -0.7379
vn 0.6851 0.5330 0.4965
vn 0.4239 -0.8963 -0.1300
vn 0.6087 0.6888 0.3937
vn 0.8085 0.0124 0.5883
vn -0.7558 0.5561 -0.3458
vn 0.7662 -0.5446 0.3412
vn -0.1154 0.8466 0.5195
vn 0.0763 -0.2794 0.9571
vn 0.0832 0.9245 0.3720
vn 0.9001 -0.1748 0.3990
vn 0.7717 -0.0488 0.6341
vn -0.0148 -0.5066 0.8621
vn 0.7150 0.5039 -0.4847
vn 0.3344 0.8298 -0.4468
vn 0.2490 0.7935 -0.5553
vn -0.7080 -0.5134 0.4849
vn -0.9210 -0.1780 0.3466
vn -0.8879 -0.1337 0.4402
vn 0.2934 -0.8113 -0.5057
vn 0.5970 -0.6951 -0.4005
vn -0.0497 -0.6203 0.7828
vn 0.0240 0.5099 -0.8599
vn 0.7989 0.3521 -0.4876
vn -0.1047 0.3259 -0.9396
vn -0.3247 -0.2760 0.9046
vn -0.2193 -0.6324 0.7430
vn 0.4054 -0.1088 0.9076
vn 0.4237 0.8958 0.1342
vn 0.3812 0.2727 -0.8833
vn 0.2260 0.6369 -0.7371
vn -0.5949 -0.3865 0.7048
vn -0.7891 -0.1296 0.6005
vn -0.2406 -0.7906 0.5631
vn 0.0208 -0.7024 0.7115
vn -0.3243 -0.8306 0.4527
vn -0.6382 -0.0521 0.7681
vn -0.9622 -0.0337 -0.2702
vn 0.4055 -0.1087 0.9076
vn 0.0763 -0.2793 0.9572
vn 0.6815 -0.5363 -0.4979
vn 0.6236 -0.4818 0.6156
vn 0.3648 -0.5693 0.7368
vn 0.1521 -0.3093 -0.9387
vn -0.8924 -0.4250 0.1514
vn -0.9666 -0.2358 -0.1006
vn 0.7568 0.1331 -0.6399
vn 0.6298 0.0066 -0.7767
vn -0.0497 -0.6202 0.7828
vn 0.3650 -0.5693 0.7367
vn -0.4305 0.0729 0.8996
vn 0.0769 -0.6591 -0.7481
vn 0.1369 -0.3358 0.9319
vn -0.1088 -0.0898 0.9900
vn -0.9194 0.0802 -0.3850
vn 0.4428 -0.0949 -0.8916
vn 0.6238 -0.4818 0.6154
vn 0.6681 0.7259 -0.1633
vn 0.7717 -0.0489 0.6341
vn 0.8525 -0.3883 0.3499
vn -0.9622 -0.0336 -0.2701
vn 0.3604 -0.0613 -0.9308
vn 0.9001 -0.1748 0.3991
vn 0.7369 0.0293 -0.6754
vn -0.5471 -0.6354 0.5449
vn -0.5472 -0.6352 0.5450
vn -0.8924 -0.4251 0.1513
vn 0.7281 -0.4826 0.4868
vn 0.1290 0.0750 -0.9888
vn 0.5932 0.4237 -0.6846
vn -0.9195 0.0802 -0.3849
vn 0.8031 -0.0234 -0.5954
vn 0.8841 0.1319 -0.4483
vn 0.9187 0.1759 -0.3535
vn 0.6614 -0.4429 -0.6053
vn 0.7100 -0.2361 -0.6634
vn 0.7280 -0.4826 0.4869
vn -0.9666 -0.2358 -0.1007
vn 0.8525 -0.3883 0.3500
vn 0.0208 -0.7023 0.7116
vn 0.7691 0.5390 -0.3435
vn -0.7606 -0.5518 0.3422
vn -0.8693 -0.2578 -0.4217
vn -0.9125 0.0007 -0.4090
vn -0.9323 0.0008 -0.3617
vn -0.8894 -0.2637 -0.3733
vn -0.3096 0.0003 -0.9509
vn -0.2870 -0.0851 -0.9541
vn -0.3587 -0.1063 -0.9274
vn -0.3861 0.0003 -0.9225
vn -0.2868 0.0856 -0.9542
vn -0.3584 0.1069 -0.9274
vn -0.2212 0.1592 -0.9621
vn -0.2777 0.1999 -0.9396
vn -0.1205 0.2097 -0.9703
vn -0.1521 0.2645 -0.9523
vn 0.0004 0.2277 -0.9737
vn 0.0005 0.2878 -0.9577
vn 0.1529 0.2644 -0.9522
vn 0.1212 0.2095 -0.9703
vn 0.0014 0.8797 -0.4754
vn 0.0014 0.8798 0.4753
vn 0.4468 0.7722 0.4518
vn 0.4468 0.7722 -0.4518
vn 0.2218 0.1587 -0.9621
vn 0.2783 0.1993 -0.9396
vn 0.2871 0.0851 -0.9541
vn 0.3587 0.1064 -0.9274
vn 0.3095 -0.0003 -0.9509
vn 0.3860 -0.0003 -0.9225
vn 0.2868 -0.0856 -0.9542
vn 0.3584 -0.1070 -0.9274
vn 0.2212 -0.1591 -0.9622
vn 0.2777 -0.1998 -0.9397
vn 0.1205 -0.2097 -0.9703
vn 0.1521 -0.2646 -0.9523
vn -0.0004 -0.2878 -0.9577
vn -0.0003 -0.2276 -0.9737
vn -0.1212 -0.2094 -0.9703
vn -0.0004 -0.2276 -0.9737
vn -0.0005 -0.2878 -0.9577
vn -0.1529 -0.2643 -0.9522
vn -0.2217 -0.1588 -0.9621
vn -0.2783 -0.1994 -0.9396
vn 0.4323 0.7470 -0.5050
vn 0.7228 0.5178 -0.4577
vn 0.7425 0.5319 -0.4070
vn -0.8688 0.2593 -0.4218
vn -0.8889 0.2652 -0.3735
vn -0.7215 0.5193 -0.4579
vn -0.7413 0.5335 -0.4072
vn -0.4301 0.7482 -0.5052
vn -0.4446 0.7733 -0.4520
vn 0.0014 0.8483 -0.5296
vn 0.0014 0.8798 -0.4754
vn 0.8694 0.2578 -0.4216
vn 0.8894 0.2637 -0.3734
vn 0.9125 -0.0008 -0.4091
vn 0.9323 -0.0008 -0.3617
vn 0.8688 -0.2593 -0.4218
vn 0.8889 -0.2653 -0.3735
vn 0.7215 -0.5193 -0.4580
vn 0.7413 -0.5335 -0.4073
vn 0.4301 -0.7481 -0.5052
vn 0.4446 -0.7734 -0.4520
vn -0.0012 -0.8483 -0.5296
vn -0.0012 -0.8798 -0.4754
vn -0.0015 -0.8482 -0.5296
vn -0.4323 -0.7470 -0.5050
vn -0.4469 -0.7721 -0.4518
vn -0.0016 -0.8798 -0.4754
vn -0.7228 -0.5178 -0.4577
vn -0.7426 -0.5320 -0.4070
vn -0.8894 -0.2637 0.3733
vn -0.7425 -0.5320 -0.4070
vn -0.7425 -0.5321 0.4069
vn 0.4447 -0.7733 0.4520
vn -0.0012 -0.8798 0.4753
vn 0.4446 -0.7733 -0.4520
vn 0.7426 0.5320 0.4070
vn 0.7425 0.5320 -0.4070
vn -0.0016 -0.8798 0.4753
vn -0.4469 -0.7721 0.4518
vn -0.4468 -0.7722 -0.4518
vn -0.9323 0.0008 0.3617
vn 0.8894 0.2637 0.3733
vn -0.8889 0.2653 0.3734
vn 0.9323 -0.0008 0.3617
vn -0.7413 0.5335 0.4072
vn 0.8889 -0.2653 0.3734
vn -0.4447 0.7733 0.4520
vn 0.7413 -0.5336 0.4072
vn -0.3862 0.0003 -0.9224
vn -0.3589 -0.1064 -0.9273
vn -0.3863 0.0003 0.9224
vn -0.3586 0.1070 0.9273
vn -0.2779 0.2000 0.9396
vn -0.1522 0.2647 0.9522
vn 0.0005 0.2880 0.9576
vn 0.1530 0.2644 0.9522
vn 0.2785 0.1995 0.9395
vn 0.3589 0.1064 0.9273
vn 0.3863 -0.0003 0.9224
vn 0.3586 -0.1070 0.9273
vn 0.2779 -0.2000 0.9395
vn 0.1522 -0.2647 0.9523
vn -0.0004 -0.2880 0.9576
vn -0.0005 -0.2880 0.9576
vn -0.1530 -0.2644 0.9522
vn -0.2785 -0.1996 0.9395
vn -0.3589 -0.1064 0.9273
vn -0.3586 0.1070 -0.9274
vn -0.2779 0.2000 -0.9396
vn -0.1521 0.2646 -0.9523
vn 0.0005 0.2879 -0.9577
vn 0.1530 0.2643 -0.9522
vn 0.2784 0.1994 -0.9395
vn 0.3589 0.1064 -0.9273
vn 0.3862 -0.0003 -0.9224
vn 0.3586 -0.1070 -0.9274
vn 0.2778 -0.2000 -0.9396
vn -0.0004 -0.2879 -0.9577
vn -0.1530 -0.2644 -0.9522
vn -0.0006 -0.2879 -0.9577
vn -0.2785 -0.1996 -0.9395
vn 0.3582 -0.1069 -0.9275
vn 0.3585 0.1063 -0.9274
vn 0.3858 -0.0003 -0.9226
vn 0.2782 0.1993 -0.9396
vn 0.2776 -0.1998 -0.9397
vn 0.1528 0.2641 -0.9523
vn 0.1520 -0.2644 -0.9524
vn 0.0004 0.2876 -0.9577
vn -0.0005 -0.2876 -0.9577
vn -0.1520 0.2644 -0.9524
vn -0.1528 -0.2642 -0.9523
vn -0.2776 0.1998 -0.9397
vn -0.2782 -0.1993 -0.9396
vn -0.3583 0.1069 -0.9275
vn -0.3586 -0.1063 -0.9274
vn -0.3859 0.0003 -0.9225
vn 0.3586 0.1063 0.9274
vn 0.3583 -0.1069 0.9275
vn 0.3860 -0.0004 0.9225
vn 0.2782 0.1993 0.9396
vn 0.2777 -0.1999 0.9397
vn 0.1529 0.2642 0.9523
vn 0.1520 -0.2645 0.9523
vn 0.0005 0.2877 0.9577
vn -0.0005 -0.2877 0.9577
vn -0.1520 0.2645 0.9523
vn -0.1529 -0.2642 0.9523
vn -0.2777 0.1998 0.9397
vn -0.2783 -0.1994 0.9396
vn -0.3583 0.1069 0.9275
vn -0.3586 -0.1063 0.9274
vn -0.3860 0.0003 0.9225
vt 0.618185 0.746930
vt 0.615634 0.745758
vt 0.615572 0.745842
vt 0.650979 0.742907
vt 0.654407 0.744712
vt 0.654573 0.739796
vt 0.615799 0.754337
vt 0.617821 0.750658
vt 0.615787 0.749919
vt 0.661087 0.734692
vt 0.663027 0.731331
vt 0.661173 0.730504
vt 0.605080 0.761958
vt 0.603952 0.760103
vt 0.603888 0.760133
vt 0.609363 0.749374
vt 0.606294 0.746602
vt 0.605972 0.749982
vt 0.654660 0.734879
vt 0.658348 0.739636
vt 0.612670 0.744979
vt 0.612667 0.745077
vt 0.609194 0.754175
vt 0.612958 0.749429
vt 0.658393 0.734758
vt 0.658399 0.729902
vt 0.661145 0.738902
vt 0.663798 0.741364
vt 0.663054 0.737994
vt 0.654617 0.729984
vt 0.661517 0.726379
vt 0.658409 0.744465
vt 0.661492 0.743105
vt 0.603556 0.757212
vt 0.603660 0.753713
vt 0.603484 0.757233
vt 0.612331 0.764211
vt 0.608322 0.764004
vt 0.612351 0.764312
vt 0.612711 0.759326
vt 0.608830 0.759127
vt 0.649878 0.728986
vt 0.649469 0.731710
vt 0.651068 0.730995
vt 0.608330 0.763908
vt 0.651075 0.738945
vt 0.651056 0.734963
vt 0.663798 0.728010
vt 0.605224 0.757991
vt 0.649362 0.735003
vt 0.609225 0.745083
vt 0.609185 0.745004
vt 0.649913 0.741042
vt 0.615681 0.763337
vt 0.615667 0.763228
vt 0.606248 0.746554
vt 0.605166 0.747999
vt 0.650955 0.727087
vt 0.605031 0.762015
vt 0.654397 0.725122
vt 0.649498 0.738310
vt 0.605508 0.753883
vt 0.612992 0.754307
vt 0.618283 0.761842
vt 0.618315 0.761721
vt 0.615704 0.758819
vt 0.617802 0.757992
vt 0.603734 0.753700
vt 0.604326 0.750398
vt 0.604257 0.750397
vt 0.658413 0.725168
vt 0.605111 0.747977
vt 0.618315 0.746877
vt 0.617688 0.754329
vt 0.662843 0.734661
vt 0.633184 0.747182
vt 0.630633 0.746011
vt 0.630571 0.746094
vt 0.620981 0.742814
vt 0.624408 0.744619
vt 0.624574 0.739703
vt 0.630798 0.754590
vt 0.632820 0.750911
vt 0.630787 0.750171
vt 0.631089 0.734599
vt 0.633029 0.731238
vt 0.631175 0.730411
vt 0.620080 0.762211
vt 0.618951 0.760355
vt 0.618887 0.760386
vt 0.624362 0.749627
vt 0.621293 0.746855
vt 0.620971 0.750234
vt 0.624662 0.734785
vt 0.628350 0.739543
vt 0.627669 0.745232
vt 0.627666 0.745329
vt 0.624193 0.754428
vt 0.627958 0.749682
vt 0.628395 0.734666
vt 0.628401 0.729809
vt 0.631147 0.738809
vt 0.633800 0.741271
vt 0.633056 0.737901
vt 0.624619 0.729891
vt 0.631519 0.726286
vt 0.628411 0.744372
vt 0.631494 0.743012
vt 0.618555 0.757465
vt 0.618659 0.753966
vt 0.618483 0.757485
vt 0.627330 0.764463
vt 0.623322 0.764257
vt 0.627351 0.764564
vt 0.627710 0.759579
vt 0.623829 0.759380
vt 0.619879 0.728893
vt 0.619471 0.731617
vt 0.621070 0.730902
vt 0.623330 0.764161
vt 0.621077 0.738852
vt 0.621057 0.734870
vt 0.633800 0.727917
vt 0.620223 0.758244
vt 0.619364 0.734910
vt 0.624224 0.745335
vt 0.624184 0.745257
vt 0.619915 0.740949
vt 0.630680 0.763590
vt 0.630667 0.763480
vt 0.621247 0.746807
vt 0.620165 0.748252
vt 0.620957 0.726994
vt 0.620030 0.762268
vt 0.624399 0.725029
vt 0.619500 0.738217
vt 0.620507 0.754135
vt 0.627991 0.754560
vt 0.633282 0.762094
vt 0.633314 0.761973
vt 0.630703 0.759071
vt 0.632801 0.758244
vt 0.618733 0.753953
vt 0.619325 0.750650
vt 0.619256 0.750649
vt 0.628415 0.725075
vt 0.620110 0.748230
vt 0.633314 0.747129
vt 0.632687 0.754582
vt 0.632845 0.734568
vt 0.648916 0.726762
vt 0.646365 0.725591
vt 0.646303 0.725674
vt 0.635307 0.762525
vt 0.638736 0.764331
vt 0.638901 0.759415
vt 0.646530 0.734170
vt 0.648552 0.730491
vt 0.646518 0.729752
vt 0.645416 0.754311
vt 0.647356 0.750950
vt 0.645502 0.750122
vt 0.635811 0.741791
vt 0.634682 0.739935
vt 0.634619 0.739966
vt 0.640094 0.729207
vt 0.637025 0.726434
vt 0.636703 0.729814
vt 0.638989 0.754497
vt 0.642677 0.759255
vt 0.643401 0.724812
vt 0.643398 0.724910
vt 0.639925 0.734008
vt 0.643689 0.729262
vt 0.642722 0.754377
vt 0.642727 0.749520
vt 0.645474 0.758521
vt 0.648127 0.760983
vt 0.647383 0.757613
vt 0.638946 0.749602
vt 0.645845 0.745998
vt 0.642737 0.764084
vt 0.645821 0.762724
vt 0.634286 0.737045
vt 0.634390 0.733545
vt 0.634215 0.737065
vt 0.643062 0.744044
vt 0.639053 0.743836
vt 0.643082 0.744145
vt 0.643442 0.739159
vt 0.639561 0.738960
vt 0.634206 0.748605
vt 0.633798 0.751329
vt 0.635397 0.750614
vt 0.639061 0.743741
vt 0.635404 0.758563
vt 0.635384 0.754582
vt 0.648127 0.747629
vt 0.635954 0.737824
vt 0.633691 0.754622
vt 0.639956 0.724916
vt 0.639916 0.724837
vt 0.634241 0.760661
vt 0.646412 0.743170
vt 0.646398 0.743061
vt 0.636979 0.726387
vt 0.635897 0.727832
vt 0.635284 0.746705
vt 0.635762 0.741848
vt 0.638726 0.744741
vt 0.633827 0.757928
vt 0.636239 0.733716
vt 0.643722 0.734140
vt 0.649014 0.741675
vt 0.649045 0.741554
vt 0.646434 0.738652
vt 0.648533 0.737825
vt 0.634465 0.733532
vt 0.635056 0.730231
vt 0.634988 0.730229
vt 0.642742 0.744787
vt 0.635842 0.727810
vt 0.649045 0.726710
vt 0.648419 0.734162
vt 0.647172 0.754280
vt 0.618707 0.726949
vt 0.616157 0.725778
vt 0.616095 0.725861
vt 0.650195 0.762884
vt 0.653623 0.764689
vt 0.653789 0.759773
vt 0.616322 0.734357
vt 0.618343 0.730678
vt 0.616310 0.729939
vt 0.660304 0.754669
vt 0.662243 0.751308
vt 0.660389 0.750481
vt 0.605603 0.741978
vt 0.604474 0.740123
vt 0.604410 0.740154
vt 0.609886 0.729394
vt 0.606816 0.726622
vt 0.606494 0.730001
vt 0.653876 0.754856
vt 0.657564 0.759613
vt 0.613192 0.724999
vt 0.613189 0.725097
vt 0.609716 0.734195
vt 0.613481 0.729449
vt 0.657609 0.754736
vt 0.657615 0.749879
vt 0.660361 0.758879
vt 0.663014 0.761341
vt 0.662270 0.757971
vt 0.653833 0.749961
vt 0.660733 0.746356
vt 0.657625 0.764442
vt 0.660708 0.763082
vt 0.604078 0.737232
vt 0.604182 0.733733
vt 0.604006 0.737253
vt 0.612853 0.744231
vt 0.608845 0.744024
vt 0.612874 0.744332
vt 0.613234 0.739346
vt 0.609352 0.739147
vt 0.649094 0.748963
vt 0.648685 0.751687
vt 0.650284 0.750972
vt 0.608853 0.743928
vt 0.650291 0.758922
vt 0.650272 0.754940
vt 0.663014 0.747987
vt 0.605746 0.738011
vt 0.648578 0.754980
vt 0.609747 0.725103
vt 0.609707 0.725024
vt 0.649129 0.761019
vt 0.616203 0.743357
vt 0.616190 0.743248
vt 0.606770 0.726574
vt 0.605689 0.728019
vt 0.650171 0.747064
vt 0.605554 0.742036
vt 0.653614 0.745099
vt 0.648714 0.758287
vt 0.606030 0.733903
vt 0.613514 0.734327
vt 0.618805 0.741862
vt 0.618837 0.741741
vt 0.616226 0.738839
vt 0.618324 0.738012
vt 0.604256 0.733720
vt 0.604848 0.730418
vt 0.604780 0.730417
vt 0.657629 0.745145
vt 0.605633 0.727997
vt 0.618837 0.726897
vt 0.618210 0.734349
vt 0.662059 0.754638
vt 0.600474 0.787117
vt 0.604717 0.787117
vt 0.604717 0.784778
vt 0.600474 0.784778
vt 0.604717 0.787193
vt 0.600474 0.787193
vt 0.600474 0.787264
vt 0.604717 0.787264
vt 0.609051 0.787193
vt 0.609051 0.787264
vt 0.613521 0.787193
vt 0.613521 0.787264
vt 0.618098 0.787193
vt 0.618098 0.787264
vt 0.622708 0.787193
vt 0.622708 0.787264
vt 0.627364 0.787264
vt 0.627364 0.787193
vt 0.622708 0.787344
vt 0.622708 0.800826
vt 0.627364 0.800826
vt 0.627364 0.787344
vt 0.632021 0.787193
vt 0.632021 0.787264
vt 0.636715 0.787193
vt 0.636715 0.787264
vt 0.641427 0.787193
vt 0.641427 0.787264
vt 0.646078 0.787193
vt 0.646078 0.787264
vt 0.650684 0.787193
vt 0.650684 0.787264
vt 0.655244 0.787193
vt 0.655244 0.787264
vt 0.659899 0.787264
vt 0.659899 0.787193
vt 0.592201 0.787193
vt 0.588110 0.787193
vt 0.588110 0.787264
vt 0.592201 0.787264
vt 0.596329 0.787193
vt 0.596329 0.787264
vt 0.627364 0.787117
vt 0.632021 0.787117
vt 0.632021 0.784778
vt 0.627364 0.784778
vt 0.609051 0.787117
vt 0.609051 0.784778
vt 0.613521 0.787117
vt 0.613521 0.784778
vt 0.618098 0.787117
vt 0.618098 0.784778
vt 0.622708 0.787117
vt 0.622708 0.784778
vt 0.636715 0.787117
vt 0.636715 0.784778
vt 0.641427 0.787117
vt 0.641427 0.784778
vt 0.646078 0.787117
vt 0.646078 0.784778
vt 0.650684 0.787117
vt 0.650684 0.784778
vt 0.655244 0.787117
vt 0.655244 0.784778
vt 0.659899 0.787117
vt 0.659899 0.784778
vt 0.588110 0.787117
vt 0.592201 0.787117
vt 0.592201 0.784778
vt 0.588110 0.784778
vt 0.596329 0.787117
vt 0.596329 0.784778
vt 0.600474 0.800826
vt 0.600474 0.787344
vt 0.596329 0.787344
vt 0.596329 0.800826
vt 0.655244 0.800826
vt 0.659899 0.800826
vt 0.659899 0.787344
vt 0.655244 0.787344
vt 0.632021 0.800826
vt 0.632021 0.787344
vt 0.588110 0.800826
vt 0.592201 0.800826
vt 0.592201 0.787344
vt 0.588110 0.787344
vt 0.604717 0.800826
vt 0.604717 0.787344
vt 0.636715 0.800826
vt 0.636715 0.787344
vt 0.609051 0.800826
vt 0.609051 0.787344
vt 0.641427 0.800826
vt 0.641427 0.787344
vt 0.613521 0.800826
vt 0.613521 0.787344
vt 0.646078 0.800826
vt 0.646078 0.787344
vt 0.618098 0.800826
vt 0.618098 0.787344
vt 0.650684 0.800826
vt 0.650684 0.787344
vt 0.604717 0.784704
vt 0.600474 0.784704
vt 0.604717 0.800933
vt 0.609051 0.800933
vt 0.613521 0.800933
vt 0.618098 0.800933
vt 0.622708 0.800933
vt 0.627364 0.800933
vt 0.632021 0.800933
vt 0.636715 0.800933
vt 0.641427 0.800933
vt 0.646078 0.800933
vt 0.650684 0.800933
vt 0.655244 0.800933
vt 0.659899 0.800933
vt 0.588110 0.800933
vt 0.592201 0.800933
vt 0.596329 0.800933
vt 0.600474 0.800933
vt 0.609051 0.784704
vt 0.613521 0.784704
vt 0.618098 0.784704
vt 0.622708 0.784704
vt 0.627364 0.784704
vt 0.632021 0.784704
vt 0.636715 0.784704
vt 0.641427 0.784704
vt 0.646078 0.784704
vt 0.650684 0.784704
vt 0.655244 0.784704
vt 0.659899 0.784704
vt 0.592201 0.784704
vt 0.588110 0.784704
vt 0.596329 0.784704
vt 0.579794 0.748263
vt 0.574837 0.755681
vt 0.578054 0.752465
vt 0.570635 0.757421
vt 0.579794 0.743714
vt 0.566087 0.757421
vt 0.578054 0.739512
vt 0.561885 0.755681
vt 0.574837 0.736296
vt 0.558669 0.752465
vt 0.570635 0.734555
vt 0.556928 0.748263
vt 0.566087 0.734555
vt 0.556928 0.743714
vt 0.561885 0.736296
vt 0.558669 0.739512
vt 0.602970 0.750357
vt 0.601191 0.759299
vt 0.602970 0.755005
vt 0.601191 0.746063
vt 0.597904 0.762586
vt 0.597904 0.742776
vt 0.593610 0.764365
vt 0.593610 0.740998
vt 0.588962 0.764365
vt 0.588962 0.740998
vt 0.584668 0.762586
vt 0.584668 0.742776
vt 0.581381 0.759299
vt 0.581381 0.746063
vt 0.579602 0.755005
vt 0.579602 0.750357
s 1
f 10/1/1 19/2/2 11/3/3
f 36/4/4 34/5/5 42/6/6
f 62/7/7 49/8/8 14/9/9
f 61/10/10 45/11/11 15/12/12
f 8/13/13 65/14/14 58/15/15
f 50/16/16 3/17/17 56/18/18
f 70/19/19 42/6/6 44/20/20
f 27/21/21 7/22/22 11/3/3
f 74/23/23 52/24/24 50/16/16
f 71/25/25 15/12/12 46/26/26
f 16/27/27 22/28/28 41/29/29
f 43/30/30 70/19/19 71/25/25
f 46/26/26 15/12/12 30/31/31
f 44/20/20 28/32/32 20/33/33
f 1/34/34 66/35/35 39/36/36
f 9/37/37 31/38/38 23/39/39
f 11/3/3 7/22/22 52/24/24
f 14/9/9 10/1/1 11/3/3
f 9/37/37 54/40/40 51/41/41
f 54/40/40 74/23/23 51/41/41
f 59/42/15 40/43/42 47/44/43
f 9/37/37 51/41/41 5/45/44
f 48/46/45 70/19/19 69/47/46
f 11/3/3 52/24/24 14/9/9
f 15/12/12 18/48/47 30/31/31
f 55/49/48 1/34/34 65/14/14
f 40/43/42 67/50/49 69/47/46
f 3/17/17 4/51/50 33/52/51
f 39/36/36 58/15/15 65/14/14
f 7/22/22 50/16/16 52/24/24
f 64/53/52 36/4/4 48/46/45
f 29/54/53 6/55/54 9/37/37
f 41/29/29 61/10/10 16/27/27
f 8/13/13 51/41/41 55/49/48
f 71/25/25 61/10/10 15/12/12
f 27/21/21 4/51/50 7/22/22
f 35/56/55 57/57/56 3/17/17
f 59/42/15 47/44/43 26/58/57
f 25/59/58 5/45/44 8/13/13
f 55/49/48 65/14/14 8/13/13
f 26/58/57 43/30/30 32/60/59
f 38/61/60 69/47/46 67/50/49
f 6/55/54 54/40/40 9/37/37
f 73/62/61 1/34/34 55/49/48
f 36/4/4 42/6/6 48/46/45
f 27/21/21 11/3/3 19/2/2
f 28/32/32 42/6/6 34/5/5
f 28/32/32 44/20/20 42/6/6
f 74/23/23 75/63/62 52/24/24
f 6/55/54 17/64/63 12/65/64
f 16/27/27 71/25/25 44/20/20
f 26/58/57 47/44/43 43/30/30
f 12/65/64 13/66/65 6/55/54
f 38/61/60 48/46/45 69/47/46
f 25/59/58 31/38/38 5/45/44
f 43/30/30 71/25/25 46/26/26
f 53/67/66 62/7/7 13/66/65
f 7/22/22 4/51/50 50/16/16
f 8/13/13 58/15/15 25/59/58
f 3/17/17 33/52/51 35/56/55
f 73/62/61 60/68/67 1/34/34
f 2/69/68 60/68/67 73/62/61
f 37/70/69 66/35/35 60/68/67
f 13/66/65 75/63/62 54/40/40
f 24/71/70 32/60/59 43/30/30
f 75/63/62 62/7/7 14/9/9
f 63/72/71 37/70/69 2/69/68
f 75/63/62 14/9/9 52/24/24
f 54/40/40 75/63/62 74/23/23
f 56/18/18 74/23/23 50/16/16
f 24/71/70 43/30/30 46/26/26
f 27/21/21 33/52/51 4/51/50
f 55/49/48 51/41/41 74/23/23
f 70/19/19 43/30/30 47/44/43
f 48/46/45 42/6/6 70/19/19
f 2/69/68 73/62/61 56/18/18
f 35/56/55 63/72/71 57/57/56
f 13/66/65 62/7/7 75/63/62
f 1/34/34 60/68/67 66/35/35
f 56/18/18 73/62/61 74/23/23
f 46/26/26 30/31/31 24/71/70
f 57/57/56 2/69/68 56/18/18
f 70/19/19 47/44/43 69/47/46
f 64/53/52 48/46/45 38/61/60
f 70/19/19 44/20/20 71/25/25
f 57/57/56 56/18/18 3/17/17
f 40/43/42 69/47/46 47/44/43
f 29/54/53 9/37/37 23/39/39
f 55/49/48 74/23/23 73/62/61
f 16/27/27 61/10/10 71/25/25
f 6/55/54 13/66/65 54/40/40
f 44/20/20 20/33/33 16/27/27
f 63/72/71 2/69/68 57/57/56
f 37/70/69 60/68/67 2/69/68
f 39/36/36 65/14/14 1/34/34
f 9/37/37 5/45/44 31/38/38
f 50/16/16 4/51/50 3/17/17
f 8/13/13 5/45/44 51/41/41
f 10/1/1 21/73/72 19/2/2
f 62/7/7 72/74/73 49/8/8
f 61/10/10 68/75/74 45/11/11
f 16/27/27 20/33/33 22/28/28
f 14/9/9 49/8/8 10/1/1
f 15/12/12 45/11/11 18/48/47
f 41/29/29 68/75/74 61/10/10
f 6/55/54 29/54/53 17/64/63
f 12/65/64 53/67/66 13/66/65
f 53/67/66 72/74/73 62/7/7
f 85/76/75 94/77/76 86/78/77
f 110/79/78 109/80/79 117/81/80
f 137/82/81 124/83/82 89/84/83
f 136/85/84 120/86/85 90/87/86
f 83/88/87 140/89/88 133/90/89
f 125/91/90 78/92/91 131/93/92
f 145/94/93 117/81/80 119/95/94
f 102/96/95 82/97/96 86/78/77
f 149/98/97 127/99/98 125/91/90
f 146/100/99 90/87/86 121/101/100
f 91/102/101 97/103/102 116/104/103
f 118/105/104 145/94/93 146/100/99
f 121/101/100 90/87/86 105/106/105
f 119/95/94 103/107/106 95/108/107
f 76/109/108 141/110/109 114/111/110
f 84/112/111 106/113/112 98/114/113
f 86/78/77 82/97/96 127/99/98
f 89/84/83 85/76/75 86/78/77
f 84/112/111 129/115/114 126/116/115
f 129/115/114 149/98/97 126/116/115
f 134/117/89 115/118/116 122/119/117
f 84/112/111 126/116/115 80/120/118
f 123/121/119 145/94/93 144/122/120
f 86/78/77 127/99/98 89/84/83
f 90/87/86 93/123/121 105/106/105
f 130/124/122 76/109/108 140/89/88
f 115/118/116 142/125/123 144/122/120
f 78/92/91 79/126/124 108/127/125
f 114/111/110 133/90/89 140/89/88
f 82/97/96 125/91/90 127/99/98
f 138/128/126 110/79/78 123/121/119
f 104/129/127 81/130/128 84/112/111
f 116/104/103 136/85/84 91/102/101
f 83/88/87 126/116/115 130/124/122
f 146/100/99 136/85/84 90/87/86
f 102/96/95 79/126/124 82/97/96
f 111/131/129 132/132/130 78/92/91
f 134/117/89 122/119/117 101/133/131
f 100/134/132 80/120/118 83/88/87
f 130/124/122 140/89/88 83/88/87
f 101/133/131 118/105/104 107/135/133
f 113/136/134 144/122/120 142/125/123
f 81/130/128 129/115/114 84/112/111
f 148/137/135 76/109/108 130/124/122
f 110/79/78 117/81/80 123/121/119
f 102/96/95 86/78/77 94/77/76
f 103/107/106 117/81/80 109/80/79
f 103/107/106 119/95/94 117/81/80
f 149/98/97 150/138/136 127/99/98
f 81/130/128 92/139/137 87/140/138
f 91/102/101 146/100/99 119/95/94
f 101/133/131 122/119/117 118/105/104
f 87/140/138 88/141/139 81/130/128
f 113/136/134 123/121/119 144/122/120
f 100/134/132 106/113/112 80/120/118
f 118/105/104 146/100/99 121/101/100
f 128/142/140 137/82/81 88/141/139
f 82/97/96 79/126/124 125/91/90
f 83/88/87 133/90/89 100/134/132
f 78/92/91 108/127/125 111/131/129
f 148/137/135 135/143/141 76/109/108
f 77/144/142 135/143/141 148/137/135
f 112/145/143 141/110/109 135/143/141
f 88/141/139 150/138/136 129/115/114
f 99/146/113 107/135/133 118/105/104
f 150/138/136 137/82/81 89/84/83
f 139/147/144 112/145/143 77/144/142
f 150/138/136 89/84/83 127/99/98
f 129/115/114 150/138/136 149/98/97
f 131/93/92 149/98/97 125/91/90
f 99/146/113 118/105/104 121/101/100
f 102/96/95 108/127/125 79/126/124
f 130/124/122 126/116/115 149/98/97
f 145/94/93 118/105/104 122/119/117
f 123/121/119 117/81/80 145/94/93
f 77/144/142 148/137/135 131/93/92
f 111/131/129 139/147/144 132/132/130
f 88/141/139 137/82/81 150/138/136
f 76/109/108 135/143/141 141/110/109
f 131/93/92 148/137/135 149/98/97
f 121/101/100 105/106/105 99/146/113
f 132/132/130 77/144/142 131/93/92
f 145/94/93 122/119/117 144/122/120
f 138/128/126 123/121/119 113/136/134
f 145/94/93 119/95/94 146/100/99
f 132/132/130 131/93/92 78/92/91
f 115/118/116 144/122/120 122/119/117
f 104/129/127 84/112/111 98/114/113
f 130/124/122 149/98/97 148/137/135
f 91/102/101 136/85/84 146/100/99
f 81/130/128 88/141/139 129/115/114
f 119/95/94 95/108/107 91/102/101
f 139/147/144 77/144/142 132/132/130
f 112/145/143 135/143/141 77/144/142
f 114/111/110 140/89/88 76/109/108
f 84/112/111 80/120/118 106/113/112
f 125/91/90 79/126/124 78/92/91
f 83/88/87 80/120/118 126/116/115
f 85/76/75 96/148/145 94/77/76
f 137/82/81 147/149/146 124/83/82
f 136/85/84 143/150/147 120/86/85
f 91/102/101 95/108/107 97/103/102
f 89/84/83 124/83/82 85/76/75
f 90/87/86 120/86/85 93/123/121
f 116/104/103 143/150/147 136/85/84
f 81/130/128 104/129/127 92/139/137
f 87/140/138 128/142/140 88/141/139
f 128/142/140 147/149/146 137/82/81
f 160/151/148 170/152/149 161/153/150
f 185/154/151 183/155/152 192/156/153
f 212/157/154 199/158/155 164/159/156
f 211/160/157 195/161/158 165/162/159
f 158/163/160 215/164/161 209/165/162
f 200/166/163 153/167/164 206/168/165
f 220/169/166 192/156/153 194/170/167
f 178/171/168 157/172/169 161/153/150
f 224/173/170 202/174/171 200/166/163
f 221/175/172 165/162/159 196/176/173
f 166/177/174 171/178/175 191/179/176
f 193/180/177 220/169/166 221/175/172
f 196/176/173 165/162/159 179/181/178
f 194/170/167 177/182/179 169/183/180
f 151/184/181 217/185/182 190/186/183
f 159/187/184 182/188/185 174/189/186
f 161/153/150 157/172/169 202/174/171
f 164/159/156 160/151/148 161/153/150
f 159/187/184 204/190/187 201/191/188
f 204/190/187 224/173/170 201/191/188
f 208/192/162 189/193/189 197/194/190
f 159/187/184 201/191/188 155/195/191
f 198/196/192 220/169/166 219/197/193
f 161/153/150 202/174/171 164/159/156
f 165/162/159 167/198/194 179/181/178
f 205/199/195 151/184/181 215/164/161
f 189/193/189 216/200/196 219/197/193
f 153/167/164 154/201/197 184/202/198
f 190/186/183 209/165/162 215/164/161
f 157/172/169 200/166/163 202/174/171
f 213/203/199 185/154/151 198/196/192
f 180/204/200 156/205/201 159/187/184
f 191/179/176 211/160/157 166/177/174
f 158/163/160 201/191/188 205/199/195
f 221/175/172 211/160/157 165/162/159
f 178/171/168 154/201/197 157/172/169
f 186/206/202 207/207/203 153/167/164
f 208/192/162 197/194/190 175/208/204
f 176/209/205 155/195/191 158/163/160
f 205/199/195 215/164/161 158/163/160
f 175/208/204 193/180/177 181/210/206
f 187/211/207 219/197/193 216/200/196
f 156/205/201 204/190/187 159/187/184
f 223/212/208 151/184/181 205/199/195
f 185/154/151 192/156/153 198/196/192
f 178/171/168 161/153/150 170/152/149
f 177/182/179 192/156/153 183/155/152
f 177/182/179 194/170/167 192/156/153
f 224/173/170 225/213/209 202/174/171
f 156/205/201 168/214/210 162/215/211
f 166/177/174 221/175/172 194/170/167
f 175/208/204 197/194/190 193/180/177
f 162/215/211 163/216/212 156/205/201
f 187/211/207 198/196/192 219/197/193
f 176/209/205 182/188/185 155/195/191
f 193/180/177 221/175/172 196/176/173
f 203/217/213 212/157/154 163/216/212
f 157/172/169 154/201/197 200/166/163
f 158/163/160 209/165/162 176/209/205
f 153/167/164 184/202/198 186/206/202
f 223/212/208 210/218/214 151/184/181
f 152/219/215 210/218/214 223/212/208
f 188/220/216 217/185/182 210/218/214
f 163/216/212 225/213/209 204/190/187
f 173/221/217 181/210/206 193/180/177
f 225/213/209 212/157/154 164/159/156
f 214/222/218 188/220/216 152/219/215
f 225/213/209 164/159/156 202/174/171
f 204/190/187 225/213/209 224/173/170
f 206/168/165 224/173/170 200/166/163
f 173/221/217 193/180/177 196/176/173
f 178/171/168 184/202/198 154/201/197
f 205/199/195 201/191/188 224/173/170
f 220/169/166 193/180/177 197/194/190
f 198/196/192 192/156/153 220/169/166
f 152/219/215 223/212/208 206/168/165
f 186/206/202 214/222/218 207/207/203
f 163/216/212 212/157/154 225/213/209
f 151/184/181 210/218/214 217/185/182
f 206/168/165 223/212/208 224/173/170
f 196/176/173 179/181/178 173/221/217
f 207/207/203 152/219/215 206/168/165
f 220/169/166 197/194/190 219/197/193
f 213/203/199 198/196/192 187/211/207
f 220/169/166 194/170/167 221/175/172
f 207/207/203 206/168/165 153/167/164
f 189/193/189 219/197/193 197/194/190
f 180/204/200 159/187/184 174/189/186
f 205/199/195 224/173/170 223/212/208
f 166/177/174 211/160/157 221/175/172
f 156/205/201 163/216/212 204/190/187
f 194/170/167 169/183/180 166/177/174
f 214/222/218 152/219/215 207/207/203
f 188/220/216 210/218/214 152/219/215
f 190/186/183 215/164/161 151/184/181
f 159/187/184 155/195/191 182/188/185
f 200/166/163 154/201/197 153/167/164
f 158/163/160 155/195/191 201/191/188
f 160/151/148 172/223/219 170/152/149
f 212/157/154 222/224/220 199/158/155
f 211/160/157 218/225/221 195/161/158
f 166/177/174 169/183/180 171/178/175
f 164/159/156 199/158/155 160/151/148
f 165/162/159 195/161/158 167/198/194
f 191/179/176 218/225/221 211/160/157
f 156/205/201 180/204/200 168/214/210
f 162/215/211 203/217/213 163/216/212
f 203/217/213 222/224/220 212/157/154
f 235/226/222 244/227/223 236/228/224
f 261/229/225 259/230/226 267/231/227
f 287/232/228 274/233/229 239/234/230
f 286/235/231 270/236/232 240/237/233
f 233/238/234 290/239/235 283/240/236
f 275/241/237 228/242/238 281/243/239
f 295/244/240 267/231/227 269/245/241
f 252/246/242 232/247/243 236/228/224
f 299/248/244 277/249/245 275/241/237
f 296/250/246 240/237/233 271/251/247
f 241/252/248 247/253/249 266/254/250
f 268/255/251 295/244/240 296/250/246
f 271/251/247 240/237/233 255/256/252
f 269/245/241 253/257/253 245/258/254
f 226/259/255 291/260/256 264/261/257
f 234/262/258 256/263/259 248/264/260
f 236/228/224 232/247/243 277/249/245
f 239/234/230 235/226/222 236/228/224
f 234/262/258 279/265/261 276/266/262
f 279/265/261 299/248/244 276/266/262
f 284/267/263 265/268/264 272/269/265
f 234/262/258 276/266/262 230/270/266
f 273/271/267 295/244/240 294/272/268
f 236/228/224 277/249/245 239/234/230
f 240/237/233 243/273/269 255/256/252
f 280/274/270 226/259/255 290/239/235
f 265/268/264 292/275/271 294/272/268
f 228/242/238 229/276/272 258/277/273
f 264/261/257 283/240/236 290/239/235
f 232/247/243 275/241/237 277/249/245
f 289/278/274 261/229/225 273/271/267
f 254/279/275 231/280/276 234/262/258
f 266/254/250 286/235/231 241/252/248
f 233/238/234 276/266/262 280/274/270
f 296/250/246 286/235/231 240/237/233
f 252/246/242 229/276/272 232/247/243
f 260/281/277 282/282/278 228/242/238
f 284/267/263 272/269/265 251/283/279
f 250/284/280 230/270/266 233/238/234
f 280/274/270 290/239/235 233/238/234
f 251/283/279 268/255/251 257/285/281
f 263/286/282 294/272/268 292/275/271
f 231/280/276 279/265/261 234/262/258
f 298/287/283 226/259/255 280/274/270
f 261/229/225 267/231/227 273/271/267
f 252/246/242 236/228/224 244/227/223
f 253/257/253 267/231/227 259/230/226
f 253/257/253 269/245/241 267/231/227
f 299/248/244 300/288/284 277/249/245
f 231/280/276 242/289/285 237/290/286
f 241/252/248 296/250/246 269/245/241
f 251/283/279 272/269/265 268/255/251
f 237/290/286 238/291/287 231/280/276
f 263/286/282 273/271/267 294/272/268
f 250/284/280 256/263/259 230/270/266
f 268/255/251 296/250/246 271/251/247
f 278/292/288 287/232/228 238/291/287
f 232/247/243 229/276/272 275/241/237
f 233/238/234 283/240/236 250/284/280
f 228/242/238 258/277/273 260/281/277
f 298/287/283 285/293/289 226/259/255
f 227/294/290 285/293/289 298/287/283
f 262/295/291 291/260/256 285/293/289
f 238/291/287 300/288/284 279/265/261
f 249/296/292 257/285/281 268/255/251
f 300/288/284 287/232/228 239/234/230
f 288/297/293 262/295/291 227/294/290
f 300/288/284 239/234/230 277/249/245
f 279/265/261 300/288/284 299/248/244
f 281/243/239 299/248/244 275/241/237
f 249/296/292 268/255/251 271/251/247
f 252/246/242 258/277/273 229/276/272
f 280/274/270 276/266/262 299/248/244
f 295/244/240 268/255/251 272/269/265
f 273/271/267 267/231/227 295/244/240
f 227/294/290 298/287/283 281/243/239
f 260/281/277 288/297/293 282/282/278
f 238/291/287 287/232/228 300/288/284
f 226/259/255 285/293/289 291/260/256
f 281/243/239 298/287/283 299/248/244
f 271/251/247 255/256/252 249/296/292
f 282/282/278 227/294/290 281/243/239
f 295/244/240 272/269/265 294/272/268
f 289/278/274 273/271/267 263/286/282
f 295/244/240 269/245/241 296/250/246
f 282/282/278 281/243/239 228/242/238
f 265/268/264 294/272/268 272/269/265
f 254/279/275 234/262/258 248/264/260
f 280/274/270 299/248/244 298/287/283
f 241/252/248 286/235/231 296/250/246
f 231/280/276 238/291/287 279/265/261
f 269/245/241 245/258/254 241/252/248
f 288/297/293 227/294/290 282/282/278
f 262/295/291 285/293/289 227/294/290
f 264/261/257 290/239/235 226/259/255
f 234/262/258 230/270/266 256/263/259
f 275/241/237 229/276/272 228/242/238
f 233/238/234 230/270/266 276/266/262
f 235/226/222 246/298/294 244/227/223
f 287/232/228 297/299/295 274/233/229
f 286/235/231 293/300/296 270/236/232
f 241/252/248 245/258/254 247/253/249
f 239/234/230 274/233/229 235/226/222
f 240/237/233 270/236/232 243/273/269
f 266/254/250 293/300/296 286/235/231
f 231/280/276 254/279/275 242/289/285
f 237/290/286 278/292/288 238/291/287
f 278/292/288 297/299/295 287/232/228
f 302/301/297 307/302/298 422/303/299
f 302/301/297 422/303/299 419/304/300
f 306/305/301 301/306/302 386/307/303
f 306/305/301 386/307/303 388/308/304
f 311/309/305 306/305/301 388/308/304
f 311/309/305 388/308/304 390/310/306
f 316/311/307 311/309/305 390/310/306
f 316/311/307 390/310/306 392/312/308
f 321/313/309 316/311/307 392/312/308
f 321/313/309 392/312/308 394/314/310
f 326/315/311 321/313/309 394/314/310
f 326/315/311 394/314/310 396/316/312
f 326/315/311 396/316/312 398/317/313
f 326/315/311 398/317/313 331/318/314
f 395/319/315 330/320/316 335/321/317
f 395/319/315 335/321/317 397/322/318
f 336/323/319 331/318/314 398/317/313
f 336/323/319 398/317/313 400/324/320
f 341/325/321 336/323/319 400/324/320
f 341/325/321 400/324/320 402/326/322
f 346/327/323 341/325/321 402/326/322
f 346/327/323 402/326/322 404/328/324
f 351/329/325 346/327/323 404/328/324
f 351/329/325 404/328/324 406/330/326
f 356/331/327 351/329/325 406/330/326
f 356/331/327 406/330/326 408/332/328
f 361/333/329 356/331/327 408/332/328
f 361/333/329 408/332/328 410/334/330
f 361/333/329 410/334/330 414/335/331
f 361/333/329 414/335/331 367/336/332
f 375/337/333 366/338/334 413/339/335
f 375/337/333 413/339/335 416/340/336
f 380/341/337 375/337/333 416/340/336
f 380/341/337 416/340/336 418/342/338
f 332/343/339 337/344/340 440/345/341
f 332/343/339 440/345/341 437/346/318
f 301/306/302 380/341/337 418/342/338
f 301/306/302 418/342/338 386/307/303
f 307/302/298 312/347/342 425/348/343
f 307/302/298 425/348/343 422/303/299
f 312/347/342 317/349/344 428/350/345
f 312/347/342 428/350/345 425/348/343
f 317/349/344 322/351/346 431/352/347
f 317/349/344 431/352/347 428/350/345
f 322/351/346 327/353/348 434/354/349
f 322/351/346 434/354/349 431/352/347
f 327/353/348 332/343/339 437/346/318
f 327/353/348 437/346/318 434/354/349
f 337/344/340 342/355/350 443/356/351
f 337/344/340 443/356/351 440/345/341
f 342/355/350 347/357/352 446/358/353
f 342/355/350 446/358/353 443/356/351
f 347/357/352 352/359/354 449/360/355
f 347/357/352 449/360/355 446/358/353
f 352/359/354 357/361/356 452/362/357
f 352/359/354 452/362/357 449/360/355
f 357/361/356 362/363/358 455/364/359
f 357/361/356 455/364/359 452/362/357
f 362/363/358 369/365/360 459/366/361
f 362/363/358 459/366/361 455/364/359
f 368/367/362 376/368/363 463/369/364
f 368/367/362 463/369/364 458/370/365
f 376/368/363 381/371/366 466/372/367
f 376/368/363 466/372/367 463/369/364
f 305/373/368 385/374/300 417/375/369
f 305/373/368 417/375/369 384/376/370
f 365/377/371 374/378/372 412/379/361
f 365/377/371 412/379/361 409/380/373
f 335/321/317 340/381/374 399/382/375
f 335/321/317 399/382/375 397/322/318
f 373/383/376 379/384/377 415/385/378
f 373/383/376 415/385/378 411/386/365
f 305/373/368 310/387/379 387/388/299
f 305/373/368 387/388/299 385/374/300
f 340/381/374 345/389/380 401/390/351
f 340/381/374 401/390/351 399/382/375
f 379/384/377 384/376/370 417/375/369
f 379/384/377 417/375/369 415/385/378
f 310/387/379 315/391/381 389/392/343
f 310/387/379 389/392/343 387/388/299
f 345/389/380 350/393/382 403/394/353
f 345/389/380 403/394/353 401/390/351
f 315/391/381 320/395/383 391/396/345
f 315/391/381 391/396/345 389/392/343
f 350/393/382 355/397/384 405/398/355
f 350/393/382 405/398/355 403/394/353
f 320/395/383 325/399/385 393/400/347
f 320/395/383 393/400/347 391/396/345
f 355/397/384 360/401/386 407/402/357
f 355/397/384 407/402/357 405/398/355
f 325/399/385 330/320/316 395/319/315
f 325/399/385 395/319/315 393/400/347
f 360/401/386 365/377/371 409/380/373
f 360/401/386 409/380/373 407/402/357
f 306/305/301 307/302/298 302/301/297
f 306/305/301 302/301/297 301/306/302
f 422/303/299 424/403/387 421/404/388
f 422/303/299 421/404/388 419/304/300
f 389/392/343 390/310/306 388/308/304
f 389/392/343 388/308/304 387/388/299
f 310/387/379 309/405/389 314/406/390
f 310/387/379 314/406/390 315/391/381
f 391/396/345 392/312/308 390/310/306
f 391/396/345 390/310/306 389/392/343
f 315/391/381 314/406/390 319/407/391
f 315/391/381 319/407/391 320/395/383
f 393/400/347 394/314/310 392/312/308
f 393/400/347 392/312/308 391/396/345
f 320/395/383 319/407/391 324/408/392
f 320/395/383 324/408/392 325/399/385
f 395/319/315 396/316/312 394/314/310
f 395/319/315 394/314/310 393/400/347
f 325/399/385 324/408/392 329/409/393
f 325/399/385 329/409/393 330/320/316
f 397/322/318 398/317/313 396/316/312
f 397/322/318 396/316/312 395/319/315
f 330/320/316 329/409/393 334/410/394
f 330/320/316 334/410/394 335/321/317
f 399/382/375 400/324/320 398/317/313
f 399/382/375 398/317/313 397/322/318
f 335/321/317 334/410/394 339/411/395
f 335/321/317 339/411/395 340/381/374
f 401/390/351 402/326/322 400/324/320
f 401/390/351 400/324/320 399/382/375
f 340/381/374 339/411/395 344/412/396
f 340/381/374 344/412/396 345/389/380
f 403/394/353 404/328/324 402/326/322
f 403/394/353 402/326/322 401/390/351
f 345/389/380 344/412/396 349/413/397
f 345/389/380 349/413/397 350/393/382
f 405/398/355 406/330/326 404/328/324
f 405/398/355 404/328/324 403/394/353
f 350/393/382 349/413/397 354/414/398
f 350/393/382 354/414/398 355/397/384
f 407/402/357 408/332/328 406/330/326
f 407/402/357 406/330/326 405/398/355
f 355/397/384 354/414/398 359/415/399
f 355/397/384 359/415/399 360/401/386
f 409/380/373 410/334/330 408/332/328
f 409/380/373 408/332/328 407/402/357
f 360/401/386 359/415/399 364/416/400
f 360/401/386 364/416/400 365/377/371
f 412/379/361 414/335/331 410/334/330
f 412/379/361 410/334/330 409/380/373
f 365/377/371 364/416/400 372/417/401
f 365/377/371 372/417/401 374/378/372
f 415/385/378 416/340/336 413/339/335
f 415/385/378 413/339/335 411/386/365
f 373/383/376 370/418/402 378/419/403
f 373/383/376 378/419/403 379/384/377
f 417/375/369 418/342/338 416/340/336
f 417/375/369 416/340/336 415/385/378
f 379/384/377 378/419/403 383/420/404
f 379/384/377 383/420/404 384/376/370
f 417/375/369 385/374/300 386/307/303
f 417/375/369 386/307/303 418/342/338
f 384/376/370 383/420/404 304/421/405
f 384/376/370 304/421/405 305/373/368
f 311/309/305 312/347/342 307/302/298
f 311/309/305 307/302/298 306/305/301
f 316/311/307 317/349/344 312/347/342
f 316/311/307 312/347/342 311/309/305
f 321/313/309 322/351/346 317/349/344
f 321/313/309 317/349/344 316/311/307
f 326/315/311 327/353/348 322/351/346
f 326/315/311 322/351/346 321/313/309
f 331/318/314 332/343/339 327/353/348
f 331/318/314 327/353/348 326/315/311
f 336/323/319 337/344/340 332/343/339
f 336/323/319 332/343/339 331/318/314
f 341/325/321 342/355/350 337/344/340
f 341/325/321 337/344/340 336/323/319
f 346/327/323 347/357/352 342/355/350
f 346/327/323 342/355/350 341/325/321
f 351/329/325 352/359/354 347/357/352
f 351/329/325 347/357/352 346/327/323
f 356/331/327 357/361/356 352/359/354
f 356/331/327 352/359/354 351/329/325
f 361/333/329 362/363/358 357/361/356
f 361/333/329 357/361/356 356/331/327
f 367/336/332 369/365/360 362/363/358
f 367/336/332 362/363/358 361/333/329
f 375/337/333 376/368/363 368/367/362
f 375/337/333 368/367/362 366/338/334
f 380/341/337 381/371/366 376/368/363
f 380/341/337 376/368/363 375/337/333
f 301/306/302 302/301/297 381/371/366
f 301/306/302 381/371/366 380/341/337
f 425/348/343 427/422/406 424/403/387
f 425/348/343 424/403/387 422/303/299
f 428/350/345 430/423/407 427/422/406
f 428/350/345 427/422/406 425/348/343
f 431/352/347 433/424/408 430/423/407
f 431/352/347 430/423/407 428/350/345
f 434/354/349 436/425/409 433/424/408
f 434/354/349 433/424/408 431/352/347
f 437/346/318 439/426/410 436/425/409
f 437/346/318 436/425/409 434/354/349
f 440/345/341 442/427/411 439/426/410
f 440/345/341 439/426/410 437/346/318
f 443/356/351 445/428/412 442/427/411
f 443/356/351 442/427/411 440/345/341
f 446/358/353 448/429/413 445/428/412
f 446/358/353 445/428/412 443/356/351
f 449/360/355 451/430/414 448/429/413
f 449/360/355 448/429/413 446/358/353
f 452/362/357 454/431/415 451/430/414
f 452/362/357 451/430/414 449/360/355
f 455/364/359 457/432/330 454/431/415
f 455/364/359 454/431/415 452/362/357
f 459/366/361 462/433/416 457/432/330
f 459/366/361 457/432/330 455/364/359
f 463/369/364 465/434/417 461/435/418
f 463/369/364 461/435/418 458/370/365
f 466/372/367 468/436/419 465/434/417
f 466/372/367 465/434/417 463/369/364
f 419/304/300 421/404/388 468/436/419
f 419/304/300 468/436/419 466/372/367
f 302/301/297 419/304/300 466/372/367
f 302/301/297 466/372/367 381/371/366
f 305/373/368 304/421/405 309/405/389
f 305/373/368 309/405/389 310/387/379
f 387/388/299 388/308/304 386/307/303
f 387/388/299 386/307/303 385/374/300
f 450/437/420 444/438/421 447/439/422
f 444/438/421 450/437/420 441/440/423
f 441/440/423 450/437/420 453/441/424
f 441/440/423 453/441/424 438/442/425
f 438/442/425 453/441/424 456/443/426
f 438/442/425 456/443/426 435/444/427
f 435/444/427 456/443/426 460/445/428
f 435/444/427 460/445/428 432/446/429
f 432/446/429 460/445/428 464/447/430
f 432/446/429 464/447/430 429/448/431
f 429/448/431 464/447/430 467/449/432
f 429/448/431 467/449/432 426/450/433
f 426/450/433 467/449/432 420/451/434
f 426/450/433 420/451/434 423/452/435
f 343/453/436 353/454/437 348/455/438
f 353/454/437 343/453/436 338/456/439
f 353/454/437 338/456/439 358/457/440
f 358/457/440 338/456/439 333/458/441
f 358/457/440 333/458/441 363/459/442
f 363/459/442 333/458/441 328/460/443
f 363/459/442 328/460/443 371/461/444
f 371/461/444 328/460/443 323/462/445
f 371/461/444 323/462/445 377/463/446
f 377/463/446 323/462/445 318/464/447
f 377/463/446 318/464/447 382/465/448
f 382/465/448 318/464/447 313/466/449
f 382/465/448 313/466/449 303/467/450
f 303/467/450 313/466/449 308/468/451
