# Blender 5.1.2
# www.blender.org
o Object_7.464
v 0.071302 -0.084078 -0.069675
v -0.071301 -0.084078 -0.069675
v 0.079104 -0.093532 -0.067009
v -0.069851 -0.082371 -0.069624
v 0.069853 -0.082371 -0.069624
v 0.079876 -0.079751 -0.070896
v 0.078448 -0.078049 -0.070848
v 0.082008 -0.067599 -0.073797
v 0.018804 -0.009872 -0.044804
v 0.018807 0.002775 -0.048344
v 0.018807 0.012067 -0.050965
v 0.018115 -0.009045 -0.044670
v 0.018117 0.003316 -0.048149
v 0.082008 0.058756 -0.109435
v 0.083431 0.060189 -0.110365
v 0.018804 0.024977 -0.054633
v 0.078511 0.069447 -0.112449
v 0.079938 0.070870 -0.113378
v 0.008556 0.025007 -0.054622
v 0.070065 0.073871 -0.113693
v -0.070065 0.073871 -0.113693
v 0.071513 0.075297 -0.114627
v -0.071514 0.075297 -0.114627
v -0.079342 0.084756 -0.117295
v -0.079937 0.070870 -0.113378
v -0.078510 0.069447 -0.112449
v -0.082009 0.058756 -0.109435
v -0.018806 0.012067 -0.050965
v -0.018804 0.024977 -0.054633
v -0.008556 0.025007 -0.054622
v -0.008076 0.024352 -0.054084
v -0.018115 0.024343 -0.054087
v -0.018117 0.011708 -0.050516
v -0.018806 0.002775 -0.048344
v -0.018117 0.003316 -0.048149
v -0.018804 -0.009872 -0.044804
v -0.018115 -0.009045 -0.044670
v -0.007872 -0.009051 -0.044663
v -0.008352 -0.009891 -0.044780
v 0.008352 -0.009891 -0.044780
v -0.078449 -0.078049 -0.070848
v -0.083429 -0.069311 -0.073840
v -0.082009 -0.067599 -0.073797
v -0.079875 -0.079751 -0.070896
v -0.091017 -0.078890 -0.071139
v -0.087530 -0.089245 -0.068218
v -0.079104 -0.093532 -0.067009
v -0.091017 0.069726 -0.113056
v -0.083430 0.060189 -0.110365
v -0.087600 0.080355 -0.116053
v 0.007872 -0.009051 -0.044663
v 0.008076 0.024352 -0.054084
v 0.018115 0.024343 -0.054087
v 0.018117 0.011708 -0.050516
v 0.079342 0.084756 -0.117295
v 0.087601 0.080355 -0.116053
v 0.091017 0.069726 -0.113056
v 0.083431 -0.069311 -0.073840
v 0.091017 -0.078890 -0.071139
v 0.087530 -0.089245 -0.068218
v -0.091017 0.069726 -0.113056
v -0.088315 0.080920 -0.117423
v -0.091725 0.070304 -0.114429
v -0.087600 0.080355 -0.116053
v -0.091017 -0.078890 -0.071139
v -0.091725 -0.080112 -0.072004
v -0.087530 -0.089245 -0.068218
v -0.088244 -0.090447 -0.069089
v -0.091725 -0.081195 -0.075681
v -0.088255 -0.091500 -0.072774
v -0.092699 -0.083002 -0.076899
v -0.089238 -0.093274 -0.074002
v -0.095421 -0.086738 -0.075845
v -0.091960 -0.096943 -0.072967
v -0.096397 -0.087629 -0.073867
v -0.092936 -0.097811 -0.070995
v -0.096397 -0.080453 -0.048127
v -0.092923 -0.090581 -0.045271
v -0.095463 -0.079623 -0.045719
v -0.092075 -0.089436 -0.042932
v -0.065163 -0.066262 -0.018860
v -0.064519 -0.059968 -0.015075
v -0.066433 -0.062039 -0.020001
v -0.063340 -0.063782 -0.013999
v -0.063340 -0.047485 0.043782
v -0.064519 -0.043885 0.041948
v -0.064519 -0.035141 0.053039
v -0.064519 0.058132 -0.048385
v -0.064519 0.064037 -0.027450
v -0.066395 0.058759 -0.054033
v -0.064519 -0.021115 0.054699
v -0.063340 0.061946 -0.049460
v -0.063340 0.068064 -0.027767
v -0.064519 0.025376 0.041587
v -0.064519 0.059004 0.015075
v -0.063340 0.027210 0.045187
v -0.063340 0.062746 0.017171
v -0.063340 -0.020798 0.058727
v -0.063340 -0.037237 0.056782
v -0.065073 0.062947 -0.055194
v -0.092232 0.092939 -0.094420
v -0.096397 0.082771 -0.094164
v -0.095481 0.082611 -0.091496
v -0.093042 0.093391 -0.097160
v -0.093037 0.086144 -0.122879
v -0.096397 0.075539 -0.119888
v -0.095421 0.073782 -0.121120
v -0.092061 0.084394 -0.124113
v -0.092701 0.070138 -0.120092
v -0.091725 0.069277 -0.118122
v -0.089312 0.080733 -0.123081
v -0.088331 0.079883 -0.121113
v 0.079843 -0.094728 -0.067882
v 0.079880 -0.095769 -0.071571
v -0.079841 -0.094728 -0.067882
v 0.088244 -0.090447 -0.069089
v 0.087530 -0.089245 -0.068218
v 0.079104 -0.093532 -0.067009
v -0.079104 -0.093532 -0.067009
v -0.088244 -0.090447 -0.069089
v -0.087530 -0.089245 -0.068218
v -0.088255 -0.091500 -0.072774
v -0.089238 -0.093274 -0.074002
v -0.079879 -0.095769 -0.071571
v 0.080882 -0.097538 -0.072799
v -0.080882 -0.097538 -0.072799
v -0.091960 -0.096943 -0.072967
v -0.083596 -0.101162 -0.071777
v 0.083597 -0.101162 -0.071777
v 0.089238 -0.093274 -0.074002
v 0.084581 -0.102029 -0.069805
v 0.091959 -0.096944 -0.072967
v 0.092936 -0.097811 -0.070995
v 0.084540 -0.094775 -0.044088
v 0.092924 -0.090581 -0.045271
v 0.083929 -0.093488 -0.041769
v 0.092076 -0.089437 -0.042932
v 0.062021 -0.068044 -0.018410
v 0.065163 -0.066262 -0.018860
v 0.060495 -0.065362 -0.013553
v 0.063341 -0.063782 -0.013999
v 0.060495 -0.048976 0.044542
v 0.063341 -0.047485 0.043782
v 0.060495 -0.038105 0.058332
v 0.063341 -0.037237 0.056782
v 0.060495 -0.020667 0.060395
v 0.063341 -0.020798 0.058727
v 0.060495 0.027970 0.046678
v 0.063341 0.027210 0.045187
v 0.060495 0.064297 0.018039
v 0.063341 0.062746 0.017171
v 0.060495 0.069733 -0.027898
v 0.063341 0.068064 -0.027767
v 0.060495 0.063525 -0.049906
v 0.063341 0.061946 -0.049460
v 0.061924 0.064684 -0.055679
v 0.065073 0.062947 -0.055194
v 0.092233 0.092939 -0.094420
v 0.084943 0.097791 -0.098401
v 0.084367 0.097217 -0.095631
v 0.093041 0.093392 -0.097160
v 0.084929 0.090537 -0.124118
v 0.093037 0.086144 -0.122879
v 0.083938 0.088788 -0.125353
v 0.092062 0.084394 -0.124113
v 0.081146 0.085124 -0.124319
v 0.089314 0.080733 -0.123081
v 0.080136 0.084277 -0.122352
v 0.088331 0.079883 -0.121113
v 0.088315 0.080920 -0.117423
v 0.080083 0.085318 -0.118663
v 0.079342 0.084756 -0.117295
v -0.080135 0.084277 -0.122352
v -0.080083 0.085318 -0.118663
v -0.079342 0.084756 -0.117295
v -0.087600 0.080355 -0.116053
v -0.088315 0.080920 -0.117423
v -0.088331 0.079883 -0.121113
v -0.089312 0.080733 -0.123081
v -0.081147 0.085124 -0.124319
v -0.083939 0.088788 -0.125353
v -0.084928 0.090537 -0.124118
v -0.092061 0.084394 -0.124113
v -0.093037 0.086144 -0.122879
v -0.084942 0.097791 -0.098401
v -0.093042 0.093391 -0.097160
v -0.092232 0.092939 -0.094420
v -0.084365 0.097217 -0.095631
v -0.061924 0.064684 -0.055679
v -0.060495 0.063525 -0.049906
v -0.065073 0.062947 -0.055194
v -0.063340 0.061946 -0.049460
v -0.060495 0.069733 -0.027898
v -0.063340 0.068064 -0.027767
v -0.060495 0.064297 0.018039
v -0.063340 0.062746 0.017171
v -0.060495 0.027970 0.046678
v -0.063340 0.027210 0.045187
v -0.060495 -0.020667 0.060395
v -0.063340 -0.020798 0.058727
v -0.060495 -0.038105 0.058332
v -0.063340 -0.037237 0.056782
v -0.060495 -0.048976 0.044542
v -0.063340 -0.047485 0.043782
v -0.060495 -0.065362 -0.013553
v -0.063340 -0.063782 -0.013999
v -0.065163 -0.066262 -0.018860
v -0.062021 -0.068044 -0.018410
v -0.083928 -0.093488 -0.041769
v -0.084540 -0.094775 -0.044088
v -0.092075 -0.089436 -0.042932
v -0.092923 -0.090581 -0.045271
v -0.092936 -0.097811 -0.070995
v -0.084581 -0.102029 -0.069805
v 0.087601 0.080355 -0.116053
v 0.088256 -0.091500 -0.072774
v 0.091017 -0.078890 -0.071139
v 0.088244 -0.090447 -0.069089
v 0.091726 -0.080112 -0.072004
v 0.087530 -0.089245 -0.068218
v 0.091017 0.069726 -0.113056
v 0.091726 0.070304 -0.114429
v 0.087601 0.080355 -0.116053
v 0.088315 0.080920 -0.117423
v 0.091726 0.069276 -0.118122
v 0.088331 0.079883 -0.121113
v 0.089314 0.080733 -0.123081
v 0.092701 0.070138 -0.120092
v 0.095420 0.073782 -0.121120
v 0.091726 -0.081195 -0.075681
v 0.092700 -0.083002 -0.076899
v 0.091959 -0.096944 -0.072967
v 0.089238 -0.093274 -0.074002
v 0.095423 -0.086738 -0.075846
v 0.092936 -0.097811 -0.070995
v 0.096397 -0.087629 -0.073867
v 0.096397 0.075539 -0.119888
v 0.096397 0.082771 -0.094164
v 0.093037 0.086144 -0.122879
v 0.092062 0.084394 -0.124113
v 0.093041 0.093392 -0.097160
v 0.092233 0.092939 -0.094420
v 0.095482 0.082611 -0.091496
v 0.066397 0.058759 -0.054033
v 0.066433 -0.062039 -0.020001
v 0.095464 -0.079623 -0.045719
v 0.096397 -0.080453 -0.048128
v 0.065163 -0.066262 -0.018860
v 0.092076 -0.089437 -0.042932
v 0.092924 -0.090581 -0.045271
v 0.063341 -0.063782 -0.013999
v 0.063341 -0.047485 0.043782
v 0.064519 -0.059968 -0.015075
v 0.064519 0.058132 -0.048385
v 0.064519 -0.043885 0.041948
v 0.063341 -0.037237 0.056782
v 0.064519 -0.035141 0.053039
v 0.064519 -0.021115 0.054699
v 0.063341 -0.020798 0.058727
v 0.063341 0.027210 0.045187
v 0.063341 0.062746 0.017171
v 0.064519 0.025376 0.041587
v 0.064519 0.059004 0.015075
v 0.064519 0.064037 -0.027450
v 0.063341 0.068064 -0.027767
v 0.063341 0.061946 -0.049460
v 0.065073 0.062947 -0.055194
v 0.088256 -0.091500 -0.072774
v 0.018117 0.003316 -0.048149
v 0.018115 -0.009045 -0.044670
v 0.018117 0.011708 -0.050516
v 0.018115 0.024343 -0.054087
v 0.008076 0.024352 -0.054084
v -0.008076 0.024352 -0.054084
v 0.007872 -0.009051 -0.044663
v -0.007872 -0.009051 -0.044663
v -0.018115 -0.009045 -0.044670
v -0.018117 0.003316 -0.048149
v -0.018115 0.024343 -0.054087
v -0.018117 0.011708 -0.050516
vn 0.0585 0.1214 -0.9909
vn -0.0366 -0.1701 -0.9847
vn 0.0367 -0.1700 -0.9848
vn -0.0739 0.1866 -0.9797
vn -0.0718 -0.2197 -0.9729
vn -0.0584 0.1214 -0.9909
vn -0.2541 -0.0713 -0.9645
vn -0.3150 0.0185 -0.9489
vn -0.4146 -0.2092 -0.8856
vn -0.5006 -0.2222 -0.8367
vn -0.4162 -0.2830 -0.8641
vn -0.2318 -0.2638 -0.9363
vn -0.5008 -0.2472 -0.8295
vn -0.1727 -0.1044 -0.9794
vn -0.1245 -0.2920 -0.9483
vn -0.2565 -0.4409 -0.8601
vn -0.3173 -0.5092 -0.8000
vn -0.0726 -0.3204 -0.9445
vn -0.0604 -0.6196 -0.7826
vn -0.0150 -0.7015 -0.7125
vn 0.0604 -0.6197 -0.7825
vn 0.0374 -0.3684 -0.9289
vn -0.0375 -0.3684 -0.9289
vn 0.0773 -0.6715 -0.7370
vn 0.0726 -0.3204 -0.9445
vn 0.2567 -0.4409 -0.8601
vn 0.3172 -0.5093 -0.8000
vn 0.4162 -0.2830 -0.8641
vn 0.5008 -0.2472 -0.8295
vn 0.0003 -0.4645 -0.8856
vn 0.0151 -0.7015 -0.7125
vn 0.1724 -0.4227 -0.8897
vn 0.2317 -0.2643 -0.9362
vn 0.5006 -0.2222 -0.8367
vn 0.2317 -0.2639 -0.9363
vn 0.3150 0.0185 -0.9489
vn 0.1727 -0.1043 -0.9794
vn 0.0003 -0.0666 -0.9978
vn 0.0145 0.2265 -0.9739
vn -0.0145 0.2265 -0.9739
vn 0.2540 -0.0714 -0.9646
vn 0.1231 -0.2461 -0.9614
vn 0.4145 -0.2092 -0.8857
vn 0.0718 -0.2197 -0.9729
vn 0.5539 -0.1681 -0.8154
vn 0.3788 0.0506 -0.9241
vn 0.0739 0.1866 -0.9797
vn 0.1245 -0.2920 -0.9483
vn 0.5538 -0.2806 -0.7840
vn 0.3870 -0.5198 -0.7616
vn -0.0002 -0.0666 -0.9978
vn -0.0003 -0.4645 -0.8856
vn -0.1725 -0.4227 -0.8897
vn -0.2317 -0.2643 -0.9362
vn -0.0772 -0.6715 -0.7370
vn -0.3868 -0.5199 -0.7616
vn -0.5539 -0.2805 -0.7839
vn -0.1230 -0.2460 -0.9614
vn -0.5539 -0.1681 -0.8154
vn -0.3789 0.0505 -0.9241
vn 0.5539 -0.2806 -0.7839
vn 0.7622 -0.6267 -0.1621
vn 0.3870 -0.5199 -0.7615
vn 0.9481 -0.2229 -0.2269
vn 0.5541 -0.1681 -0.8153
vn 0.9467 0.0771 -0.3128
vn 0.3790 0.0506 -0.9240
vn 0.7530 0.4598 -0.4707
vn 0.9490 0.0426 -0.3123
vn 0.7269 0.4281 -0.5370
vn 0.4300 -0.1638 -0.8878
vn 0.2519 -0.0742 -0.9649
vn -0.5621 -0.2810 -0.7779
vn -0.3815 -0.5236 -0.7618
vn -0.9474 -0.2311 -0.2216
vn -0.7501 -0.6421 -0.1582
vn -0.9743 -0.1001 0.2018
vn -0.7910 -0.5203 0.3219
vn -0.8459 0.0097 0.5333
vn -0.6700 -0.3690 0.6442
vn -0.6416 -0.3324 0.6912
vn -0.8282 0.0318 0.5595
vn -0.9742 -0.0841 0.2095
vn -0.7837 -0.5168 0.3447
vn -0.9878 -0.1389 0.0708
vn -0.7979 -0.5371 0.2737
vn -0.9734 0.1741 0.1488
vn -0.9865 -0.0799 0.1426
vn -0.9865 0.1426 0.0799
vn -0.9878 0.1554 -0.0122
vn -0.7979 0.6010 -0.0473
vn -0.8081 0.2635 0.5268
vn -0.7846 0.6121 0.0982
vn -0.9878 0.0122 0.1555
vn -0.9878 0.0708 0.1390
vn -0.7979 0.2737 0.5370
vn -0.7927 0.5318 0.2979
vn -0.7980 0.0473 0.6008
vn -0.7927 -0.2979 0.5318
vn -0.5756 0.5907 0.5654
vn -0.6249 0.6093 0.4882
vn -0.8258 0.2633 0.4987
vn -0.9717 0.1933 0.1354
vn -0.7872 0.6139 0.0588
vn -0.7648 0.4490 -0.4619
vn -0.9496 0.0722 -0.3051
vn -0.5620 -0.1699 -0.8095
vn 0.4370 -0.3207 -0.8403
vn -0.3944 0.0420 -0.9180
vn 0.9506 -0.1936 -0.2428
vn 0.2575 -0.4384 -0.8611
vn 0.7387 -0.6323 -0.2335
vn -0.7529 0.4600 -0.4707
vn -0.1986 0.7690 -0.6076
vn -0.2548 0.7686 -0.5868
vn 0.2549 0.7685 -0.5869
vn -0.0739 0.1867 -0.9796
vn -0.3789 0.0507 -0.9240
vn 0.0739 0.1867 -0.9796
vn 0.7528 0.4601 -0.4707
vn 0.3789 0.0507 -0.9240
vn 0.7267 0.4284 -0.5371
vn 0.1987 0.7690 -0.6076
vn 0.2516 -0.0740 -0.9650
vn -0.1087 0.0689 -0.9917
vn 0.1088 0.0688 -0.9917
vn 0.0748 -0.6628 -0.7450
vn -0.3811 -0.5238 -0.7618
vn -0.0748 -0.6628 -0.7450
vn -0.2517 -0.0740 -0.9650
vn 0.3811 -0.5238 -0.7618
vn 0.2516 -0.9624 -0.1021
vn 0.7499 -0.6424 -0.1582
vn 0.2594 -0.8816 0.3943
vn 0.7909 -0.5205 0.3219
vn 0.2290 -0.7038 0.6725
vn 0.6698 -0.3692 0.6442
vn 0.2076 -0.7096 0.6733
vn 0.6415 -0.3327 0.6913
vn 0.2378 -0.8862 0.3975
vn 0.7835 -0.5171 0.3447
vn 0.2653 -0.8591 0.4377
vn 0.7978 -0.5373 0.2737
vn 0.2727 -0.4701 0.8394
vn 0.7925 -0.2979 0.5321
vn 0.2653 0.0757 0.9612
vn 0.7977 0.0473 0.6011
vn 0.2653 0.4377 0.8591
vn 0.7978 0.2737 0.5373
vn 0.2727 0.8394 0.4701
vn 0.7926 0.5321 0.2979
vn 0.2653 0.9612 -0.0757
vn 0.7977 0.6011 -0.0473
vn 0.2386 0.9711 -0.0041
vn 0.7844 0.6124 0.0982
vn 0.1816 0.8539 0.4877
vn 0.5754 0.5910 0.5654
vn 0.6246 0.6095 0.4882
vn 0.2657 0.9639 -0.0160
vn 0.7870 0.6142 0.0588
vn 0.1914 0.8700 0.4544
vn 0.2672 0.7641 -0.5872
vn 0.7646 0.4492 -0.4621
vn 0.0805 0.1802 -0.9803
vn 0.3941 0.0423 -0.9181
vn -0.1135 -0.5748 -0.8104
vn -0.2572 -0.4386 -0.8611
vn -0.2079 -0.9714 -0.1151
vn -0.7384 -0.6326 -0.2335
vn -0.7621 -0.6268 -0.1621
vn -0.2651 -0.9591 -0.0994
vn 0.0773 -0.6717 -0.7368
vn -0.0774 -0.6716 -0.7368
vn 0.2078 -0.9714 -0.1150
vn 0.2650 -0.9591 -0.0992
vn 0.3870 -0.5200 -0.7615
vn 0.7621 -0.6268 -0.1621
vn 0.7384 -0.6326 -0.2335
vn 0.2573 -0.4386 -0.8611
vn 0.1133 -0.5750 -0.8103
vn -0.0803 0.1797 -0.9804
vn -0.3941 0.0423 -0.9181
vn -0.2670 0.7642 -0.5872
vn -0.7646 0.4493 -0.4621
vn -0.2655 0.9640 -0.0160
vn -0.7870 0.6142 0.0588
vn -0.1913 0.8700 0.4544
vn -0.6245 0.6096 0.4883
vn -0.1814 0.8541 0.4874
vn -0.5754 0.5910 0.5654
vn -0.2384 0.9712 -0.0039
vn -0.7844 0.6124 0.0981
vn -0.2653 0.9612 -0.0757
vn -0.7977 0.6011 -0.0473
vn -0.2727 0.8394 0.4701
vn -0.7926 0.5320 0.2979
vn -0.2653 0.4377 0.8591
vn -0.7977 0.2738 0.5372
vn -0.2653 0.0757 0.9612
vn -0.7977 0.0473 0.6012
vn -0.2727 -0.4701 0.8394
vn -0.7926 -0.2979 0.5321
vn -0.2653 -0.8591 0.4377
vn -0.7977 -0.5373 0.2738
vn -0.2377 -0.8862 0.3976
vn -0.7835 -0.5170 0.3447
vn -0.6414 -0.3327 0.6914
vn -0.2076 -0.7096 0.6733
vn -0.2291 -0.7037 0.6725
vn -0.2594 -0.8818 0.3939
vn -0.6698 -0.3693 0.6442
vn -0.7909 -0.5205 0.3219
vn -0.2513 -0.9625 -0.1024
vn -0.7498 -0.6424 -0.1582
vn -0.3869 -0.5200 -0.7615
vn -0.7266 0.4284 -0.5371
vn -0.5541 -0.1681 -0.8153
vn -0.7530 0.4598 -0.4706
vn -0.3790 0.0506 -0.9240
vn -0.9467 0.0770 -0.3128
vn -0.5540 -0.2805 -0.7839
vn -0.3870 -0.5199 -0.7615
vn -0.9481 -0.2229 -0.2268
vn -0.7624 -0.6265 -0.1621
vn -0.9505 -0.1938 -0.2429
vn -0.7387 -0.6323 -0.2335
vn -0.2575 -0.4384 -0.8611
vn -0.4369 -0.3208 -0.8404
vn 0.5620 -0.1700 -0.8095
vn -0.4300 -0.1637 -0.8879
vn -0.9490 0.0426 -0.3123
vn -0.2519 -0.0742 -0.9649
vn 0.3814 -0.5236 -0.7618
vn 0.5620 -0.2811 -0.7779
vn 0.7501 -0.6421 -0.1582
vn 0.9496 0.0723 -0.3051
vn 0.9473 -0.2310 -0.2218
vn 0.7648 0.4490 -0.4619
vn 0.9717 0.1935 0.1355
vn 0.3944 0.0420 -0.9180
vn 0.7872 0.6139 0.0588
vn 0.6248 0.6092 0.4883
vn 0.8258 0.2635 0.4986
vn 0.8081 0.2636 0.5267
vn 0.8282 0.0318 0.5595
vn 0.8459 0.0095 0.5333
vn 0.9743 -0.1001 0.2017
vn 0.6700 -0.3690 0.6441
vn 0.6416 -0.3324 0.6912
vn 0.7910 -0.5203 0.3219
vn 0.7837 -0.5167 0.3447
vn 0.7979 -0.5371 0.2737
vn 0.9742 -0.0842 0.2093
vn 0.9878 -0.1390 0.0708
vn 0.9734 0.1742 0.1486
vn 0.7927 -0.2978 0.5318
vn 0.9865 -0.0799 0.1427
vn 0.7979 0.0473 0.6009
vn 0.9878 0.0122 0.1554
vn 0.7979 0.2737 0.5370
vn 0.9878 0.0708 0.1389
vn 0.7927 0.5319 0.2978
vn 0.9866 0.1426 0.0799
vn 0.9878 0.1554 -0.0122
vn 0.7980 0.6008 -0.0473
vn 0.7846 0.6121 0.0982
vn 0.5756 0.5907 0.5654
vn -0.7269 0.4281 -0.5370
vn -0.1723 -0.1045 -0.9795
vn -0.2315 -0.2643 -0.9362
vn -0.2315 -0.2639 -0.9364
vn -0.1722 -0.4225 -0.8898
vn -0.0003 -0.4641 -0.8858
vn -0.0002 -0.0670 -0.9978
vn 0.0003 -0.4641 -0.8858
vn 0.0002 -0.0670 -0.9978
vn 0.1725 -0.1046 -0.9795
vn 0.1722 -0.4226 -0.8898
vn 0.2316 -0.2638 -0.9364
vn 0.2313 -0.2643 -0.9363
vt 0.920981 0.516511
vt 0.863898 0.517219
vt 0.921730 0.517220
vt 0.860345 0.520307
vt 0.859876 0.515794
vt 0.864653 0.516511
vt 0.860510 0.515240
vt 0.885725 0.496332
vt 0.858939 0.511840
vt 0.885621 0.492671
vt 0.859329 0.471082
vt 0.885907 0.492538
vt 0.885680 0.489982
vt 0.886001 0.496108
vt 0.858661 0.470552
vt 0.860895 0.467632
vt 0.885797 0.486360
vt 0.860268 0.467079
vt 0.864945 0.466343
vt 0.889623 0.486233
vt 0.921152 0.466239
vt 0.921903 0.465532
vt 0.864200 0.465639
vt 0.925451 0.462452
vt 0.925849 0.466993
vt 0.925217 0.467546
vt 0.900021 0.486150
vt 0.926763 0.471016
vt 0.900151 0.489810
vt 0.895911 0.486283
vt 0.896094 0.486048
vt 0.899752 0.486372
vt 0.899874 0.489948
vt 0.900223 0.492499
vt 0.899937 0.492369
vt 0.900126 0.496142
vt 0.899853 0.495923
vt 0.895976 0.496047
vt 0.896167 0.496276
vt 0.889765 0.496444
vt 0.925122 0.515261
vt 0.927392 0.512404
vt 0.926717 0.511872
vt 0.925752 0.515817
vt 0.930694 0.515615
vt 0.929051 0.519018
vt 0.925271 0.520307
vt 0.927438 0.470490
vt 0.930756 0.467309
vt 0.929161 0.463804
vt 0.889951 0.496207
vt 0.889811 0.486457
vt 0.886063 0.486575
vt 0.885957 0.490118
vt 0.860666 0.462577
vt 0.856991 0.463901
vt 0.855390 0.467363
vt 0.858260 0.512366
vt 0.854924 0.515555
vt 0.856548 0.518988
vt 0.806424 0.516272
vt 0.802328 0.516515
vt 0.802583 0.517052
vt 0.806115 0.515685
vt 0.847695 0.516322
vt 0.848024 0.515715
vt 0.851533 0.517188
vt 0.851801 0.516641
vt 0.848221 0.514604
vt 0.852034 0.515482
vt 0.848694 0.513866
vt 0.852419 0.514778
vt 0.849736 0.512711
vt 0.853367 0.513260
vt 0.850136 0.511955
vt 0.853714 0.512485
vt 0.850432 0.504538
vt 0.853714 0.504191
vt 0.850435 0.503728
vt 0.853628 0.503338
vt 0.850843 0.489211
vt 0.849506 0.489396
vt 0.849373 0.487646
vt 0.850629 0.487530
vt 0.848747 0.470155
vt 0.849994 0.469876
vt 0.812837 0.486751
vt 0.847160 0.466420
vt 0.818289 0.469399
vt 0.813337 0.480501
vt 0.812133 0.480192
vt 0.812221 0.488478
vt 0.811618 0.486571
vt 0.843430 0.464908
vt 0.829609 0.464993
vt 0.829374 0.463762
vt 0.817383 0.468449
vt 0.843671 0.463674
vt 0.848088 0.465475
vt 0.810891 0.488185
vt 0.800798 0.503120
vt 0.804310 0.503559
vt 0.804091 0.504395
vt 0.800480 0.504027
vt 0.800503 0.512433
vt 0.804106 0.511948
vt 0.804486 0.512685
vt 0.805489 0.513805
vt 0.800833 0.513182
vt 0.805937 0.514526
vt 0.801749 0.514674
vt 0.802118 0.515364
vt 0.928423 0.461116
vt 0.923702 0.458908
vt 0.923515 0.460127
vt 0.861739 0.460121
vt 0.923064 0.460865
vt 0.928070 0.461747
vt 0.862203 0.460878
vt 0.856781 0.461108
vt 0.857134 0.461747
vt 0.856583 0.459687
vt 0.861535 0.458843
vt 0.856142 0.458847
vt 0.924296 0.457932
vt 0.860939 0.457871
vt 0.925492 0.456627
vt 0.855052 0.457036
vt 0.859741 0.456586
vt 0.929064 0.458875
vt 0.930160 0.457073
vt 0.925998 0.455656
vt 0.930546 0.456174
vt 0.926157 0.447137
vt 0.930594 0.446805
vt 0.925871 0.446099
vt 0.930173 0.445844
vt 0.917420 0.435628
vt 0.918796 0.435364
vt 0.916770 0.434014
vt 0.917992 0.433859
vt 0.915269 0.416740
vt 0.916483 0.416648
vt 0.914969 0.411860
vt 0.916215 0.411842
vt 0.915125 0.407073
vt 0.916312 0.407094
vt 0.915110 0.393236
vt 0.916318 0.393223
vt 0.914840 0.380383
vt 0.916064 0.380410
vt 0.915681 0.367782
vt 0.916842 0.367883
vt 0.916371 0.361516
vt 0.917555 0.361717
vt 0.916923 0.359836
vt 0.918254 0.360121
vt 0.928169 0.344550
vt 0.924515 0.343114
vt 0.928494 0.343569
vt 0.924296 0.344135
vt 0.924314 0.334939
vt 0.928738 0.334391
vt 0.923820 0.334002
vt 0.928349 0.333497
vt 0.922632 0.332770
vt 0.927247 0.331702
vt 0.922024 0.331825
vt 0.926800 0.330888
vt 0.926565 0.329505
vt 0.921795 0.330591
vt 0.862904 0.330490
vt 0.921330 0.329857
vt 0.862287 0.332383
vt 0.862473 0.331207
vt 0.858127 0.329616
vt 0.857786 0.330229
vt 0.857579 0.331586
vt 0.857153 0.332397
vt 0.861722 0.333320
vt 0.860569 0.334595
vt 0.856080 0.334190
vt 0.860091 0.335543
vt 0.855711 0.335082
vt 0.860075 0.343613
vt 0.856161 0.344155
vt 0.860305 0.344615
vt 0.856505 0.345115
vt 0.868082 0.359682
vt 0.866762 0.359988
vt 0.868657 0.361364
vt 0.867457 0.361574
vt 0.869380 0.367860
vt 0.868185 0.367958
vt 0.870130 0.380759
vt 0.868896 0.380779
vt 0.869843 0.393488
vt 0.868641 0.393484
vt 0.870029 0.407302
vt 0.868837 0.407335
vt 0.870203 0.412134
vt 0.868965 0.412115
vt 0.869900 0.416913
vt 0.868718 0.416822
vt 0.868391 0.433625
vt 0.867192 0.433468
vt 0.866375 0.434958
vt 0.867746 0.435219
vt 0.859325 0.445944
vt 0.859034 0.446984
vt 0.854990 0.445710
vt 0.854571 0.446679
vt 0.859243 0.455621
vt 0.854665 0.456133
vt 0.926207 0.328884
vt 0.928625 0.459713
vt 0.937834 0.517014
vt 0.933728 0.517333
vt 0.933995 0.517880
vt 0.937504 0.516407
vt 0.979104 0.516965
vt 0.982945 0.517744
vt 0.979413 0.516378
vt 0.983200 0.517208
vt 0.979591 0.515218
vt 0.983410 0.516056
vt 0.983779 0.515367
vt 0.980039 0.514497
vt 0.981042 0.513377
vt 0.936834 0.514558
vt 0.937307 0.515296
vt 0.933109 0.515470
vt 0.932161 0.513952
vt 0.935793 0.513403
vt 0.931815 0.513177
vt 0.981422 0.512641
vt 0.935393 0.512648
vt 0.985026 0.513125
vt 0.981438 0.505087
vt 0.984695 0.513875
vt 0.985049 0.504719
vt 0.984730 0.503812
vt 0.981219 0.504252
vt 0.973307 0.489170
vt 0.936022 0.490088
vt 0.935094 0.504420
vt 0.935097 0.505230
vt 0.931900 0.504031
vt 0.934686 0.489904
vt 0.931815 0.504884
vt 0.934899 0.488223
vt 0.935534 0.470569
vt 0.936156 0.488339
vt 0.936781 0.470847
vt 0.972691 0.487444
vt 0.937440 0.466167
vt 0.938368 0.467113
vt 0.941857 0.464367
vt 0.942098 0.465601
vt 0.956154 0.464454
vt 0.955920 0.465685
vt 0.968145 0.469141
vt 0.967239 0.470091
vt 0.972191 0.481194
vt 0.973396 0.480884
vt 0.973910 0.487264
vt 0.974638 0.488877
vt 0.933494 0.516174
vt 0.819089 0.458318
vt 0.819088 0.452107
vt 0.819088 0.454619
vt 0.819089 0.448325
vt 0.823116 0.448323
vt 0.823198 0.458320
vt 0.829594 0.448323
vt 0.829512 0.458320
vt 0.833622 0.458318
vt 0.833622 0.448325
vt 0.833622 0.454619
vt 0.833622 0.452107
s 1
f 4/1/1 1/2/2 2/3/3
f 2/3/3 1/2/2 3/4/4
f 3/4/4 1/2/2 6/5/5
f 4/1/1 5/6/6 1/2/2
f 7/7/7 1/2/2 5/6/6
f 7/7/7 6/5/5 1/2/2
f 9/8/8 7/7/7 5/6/6
f 8/9/9 6/5/5 7/7/7
f 10/10/10 8/9/9 7/7/7
f 10/10/10 7/7/7 9/8/8
f 14/11/11 8/9/9 10/10/10
f 13/12/12 11/13/13 10/10/10
f 14/11/11 10/10/10 11/13/13
f 12/14/14 10/10/10 9/8/8
f 12/14/14 13/12/12 10/10/10
f 8/9/9 14/11/11 15/15/15
f 17/16/16 15/15/15 14/11/11
f 16/17/17 14/11/11 11/13/13
f 16/17/17 17/16/16 14/11/11
f 17/16/16 18/18/18 15/15/15
f 20/19/19 18/18/18 17/16/16
f 19/20/20 17/16/16 16/17/17
f 19/20/20 20/19/19 17/16/16
f 20/19/19 21/21/21 23/22/22
f 21/21/21 20/19/19 19/20/20
f 20/19/19 22/23/23 18/18/18
f 20/19/19 23/22/22 22/23/23
f 22/23/23 23/22/22 24/24/24
f 24/24/24 23/22/22 25/25/25
f 26/26/26 25/25/25 23/22/22
f 26/26/26 23/22/22 21/21/21
f 29/27/27 26/26/26 21/21/21
f 27/28/28 25/25/25 26/26/26
f 28/29/29 27/28/28 26/26/26
f 28/29/29 26/26/26 29/27/27
f 31/30/30 29/27/27 30/31/31
f 29/27/27 21/21/21 30/31/31
f 31/30/30 32/32/32 29/27/27
f 32/32/32 28/29/29 29/27/27
f 32/32/32 33/33/33 28/29/29
f 33/33/33 34/34/34 28/29/29
f 33/33/33 35/35/35 34/34/34
f 35/35/35 36/36/36 34/34/34
f 35/35/35 37/37/37 36/36/36
f 37/37/37 38/38/38 39/39/39
f 37/37/37 39/39/39 36/36/36
f 5/6/6 39/39/39 40/40/40
f 5/6/6 4/1/1 39/39/39
f 41/41/41 39/39/39 4/1/1
f 38/38/38 40/40/40 39/39/39
f 41/41/41 36/36/36 39/39/39
f 41/41/41 42/42/42 43/43/43
f 41/41/41 44/44/44 42/42/42
f 43/43/43 36/36/36 41/41/41
f 4/1/1 44/44/44 41/41/41
f 44/44/44 45/45/45 42/42/42
f 4/1/1 2/3/3 44/44/44
f 2/3/3 46/46/46 44/44/44
f 44/44/44 46/46/46 45/45/45
f 2/3/3 47/47/47 46/46/46
f 2/3/3 3/4/4 47/47/47
f 49/48/48 42/42/42 45/45/45
f 49/48/48 45/45/45 48/49/49
f 27/28/28 42/42/42 49/48/48
f 27/28/28 49/48/48 25/25/25
f 50/50/50 49/48/48 48/49/49
f 50/50/50 25/25/25 49/48/48
f 24/24/24 25/25/25 50/50/50
f 27/28/28 43/43/43 42/42/42
f 43/43/43 34/34/34 36/36/36
f 43/43/43 28/29/29 34/34/34
f 43/43/43 27/28/28 28/29/29
f 9/8/8 5/6/6 40/40/40
f 51/51/51 9/8/8 40/40/40
f 38/38/38 51/51/51 40/40/40
f 51/51/51 12/14/14 9/8/8
f 52/52/52 31/30/30 30/31/31
f 52/52/52 30/31/31 19/20/20
f 53/53/53 52/52/52 19/20/20
f 54/54/54 53/53/53 16/17/17
f 53/53/53 19/20/20 16/17/17
f 54/54/54 16/17/17 11/13/13
f 13/12/12 54/54/54 11/13/13
f 21/21/21 19/20/20 30/31/31
f 22/23/23 24/24/24 55/55/55
f 22/23/23 55/55/55 56/56/56
f 22/23/23 56/56/56 18/18/18
f 18/18/18 56/56/56 57/57/57
f 18/18/18 57/57/57 15/15/15
f 58/58/58 57/57/57 59/59/59
f 58/58/58 15/15/15 57/57/57
f 60/60/60 58/58/58 59/59/59
f 3/4/4 6/5/5 60/60/60
f 60/60/60 6/5/5 58/58/58
f 8/9/9 15/15/15 58/58/58
f 8/9/9 58/58/58 6/5/5
f 61/61/61 62/62/62 64/63/63
f 61/61/61 63/64/64 62/62/62
f 65/65/65 63/64/64 61/61/61
f 65/65/65 66/66/66 63/64/64
f 67/67/67 66/66/66 65/65/65
f 67/67/67 68/68/68 66/66/66
f 68/68/68 69/69/69 66/66/66
f 68/68/68 70/70/70 69/69/69
f 70/70/70 71/71/71 69/69/69
f 70/70/70 72/72/72 71/71/71
f 72/72/72 73/73/73 71/71/71
f 72/72/72 74/74/74 73/73/73
f 74/74/74 75/75/75 73/73/73
f 74/74/74 76/76/76 75/75/75
f 76/76/76 77/77/77 75/75/75
f 76/76/76 78/78/78 77/77/77
f 78/78/78 79/79/79 77/77/77
f 78/78/78 80/80/80 79/79/79
f 79/79/79 80/80/80 81/81/81
f 79/79/79 81/81/81 83/82/82
f 82/83/83 81/81/81 84/84/84
f 82/83/83 83/82/82 81/81/81
f 86/85/85 84/84/84 85/86/86
f 86/85/85 82/83/83 84/84/84
f 86/85/85 88/87/87 82/83/83
f 87/88/88 86/85/85 85/86/86
f 88/87/87 86/85/85 87/88/88
f 88/87/87 95/89/89 89/90/90
f 88/87/87 89/90/90 93/91/91
f 82/83/83 88/87/87 90/92/92
f 92/93/93 90/92/92 88/87/87
f 88/87/87 91/94/94 94/95/95
f 88/87/87 87/88/88 91/94/94
f 88/87/87 93/91/91 92/93/93
f 88/87/87 94/95/95 95/89/89
f 95/89/89 96/96/96 97/97/97
f 95/89/89 94/95/95 96/96/96
f 89/90/90 95/89/89 97/97/97
f 89/90/90 97/97/97 93/91/91
f 94/95/95 98/98/98 96/96/96
f 94/95/95 91/94/94 98/98/98
f 91/94/94 99/99/99 98/98/98
f 87/88/88 85/86/86 99/99/99
f 91/94/94 87/88/88 99/99/99
f 92/93/93 100/100/100 90/92/92
f 90/92/92 100/100/100 101/101/101
f 90/92/92 101/101/101 103/102/102
f 101/101/101 102/103/103 103/102/102
f 101/101/101 104/104/104 102/103/103
f 104/104/104 105/105/105 106/106/106
f 104/104/104 106/106/106 102/103/103
f 107/107/107 75/75/75 106/106/106
f 107/107/107 106/106/106 105/105/105
f 77/77/77 106/106/106 75/75/75
f 77/77/77 102/103/103 106/106/106
f 107/107/107 73/73/73 75/75/75
f 109/108/108 73/73/73 107/107/107
f 107/107/107 105/105/105 108/109/109
f 108/109/109 109/108/108 107/107/107
f 110/110/110 71/71/71 109/108/108
f 109/108/108 71/71/71 73/73/73
f 110/110/110 109/108/108 111/111/111
f 108/109/109 111/111/111 109/108/108
f 110/110/110 111/111/111 112/112/112
f 63/64/64 112/112/112 62/62/62
f 63/64/64 110/110/110 112/112/112
f 69/69/69 110/110/110 63/64/64
f 110/110/110 69/69/69 71/71/71
f 77/77/77 79/79/79 103/102/102
f 83/82/82 103/102/102 79/79/79
f 77/77/77 103/102/102 102/103/103
f 83/82/82 90/92/92 103/102/102
f 82/83/83 90/92/92 83/82/82
f 69/69/69 63/64/64 66/66/66
f 116/113/113 114/114/114 113/115/115
f 114/114/114 115/116/116 113/115/115
f 118/117/117 113/115/115 115/116/116
f 117/118/118 116/113/113 113/115/115
f 117/118/118 113/115/115 118/117/117
f 118/117/117 115/116/116 119/119/119
f 119/119/119 120/120/120 121/121/121
f 119/119/119 115/116/116 120/120/120
f 115/116/116 122/122/122 120/120/120
f 124/123/123 123/124/124 122/122/122
f 115/116/116 124/123/123 122/122/122
f 124/123/123 125/125/125 126/126/126
f 124/123/123 114/114/114 125/125/125
f 114/114/114 124/123/123 115/116/116
f 124/123/123 126/126/126 123/124/124
f 126/126/126 125/125/125 129/127/127
f 126/126/126 127/128/128 123/124/124
f 126/126/126 128/129/129 127/128/128
f 126/126/126 129/127/127 128/129/129
f 129/127/127 130/130/130 132/131/131
f 129/127/127 125/125/125 130/130/130
f 132/131/131 131/132/132 129/127/127
f 128/129/129 129/127/127 131/132/132
f 132/131/131 133/133/133 131/132/132
f 134/134/134 133/133/133 135/135/135
f 134/134/134 131/132/132 133/133/133
f 136/136/136 135/135/135 137/137/137
f 136/136/136 134/134/134 135/135/135
f 137/137/137 138/138/138 136/136/136
f 137/137/137 139/139/139 138/138/138
f 140/140/140 139/139/139 141/141/141
f 140/140/140 138/138/138 139/139/139
f 142/142/142 141/141/141 143/143/143
f 142/142/142 140/140/140 141/141/141
f 143/143/143 144/144/144 142/142/142
f 143/143/143 145/145/145 144/144/144
f 145/145/145 146/146/146 144/144/144
f 145/145/145 147/147/147 146/146/146
f 147/147/147 148/148/148 146/146/146
f 147/147/147 149/149/149 148/148/148
f 149/149/149 150/150/150 148/148/148
f 149/149/149 151/151/151 150/150/150
f 151/151/151 152/152/152 150/150/150
f 151/151/151 153/153/153 152/152/152
f 154/154/154 152/152/152 153/153/153
f 154/154/154 153/153/153 155/155/155
f 155/155/155 156/156/156 154/154/154
f 155/155/155 157/157/157 156/156/156
f 156/156/156 157/157/157 158/158/158
f 159/159/159 158/158/158 161/160/160
f 159/159/159 160/161/161 158/158/158
f 156/156/156 158/158/158 160/161/161
f 162/162/162 159/159/159 161/160/160
f 162/162/162 161/160/160 163/163/163
f 164/164/164 163/163/163 165/165/165
f 164/164/164 162/162/162 163/163/163
f 166/166/166 164/164/164 165/165/165
f 166/166/166 165/165/165 167/167/167
f 168/168/168 167/167/167 169/169/169
f 168/168/168 166/166/166 167/167/167
f 169/169/169 170/170/170 171/171/171
f 169/169/169 171/171/171 168/168/168
f 175/172/172 171/171/171 172/173/173
f 172/173/173 171/171/171 170/170/170
f 173/174/174 171/171/171 174/175/175
f 173/174/174 168/168/168 171/171/171
f 175/172/172 174/175/175 171/171/171
f 176/176/176 174/175/175 175/172/172
f 176/176/176 177/177/177 174/175/175
f 177/177/177 173/174/174 174/175/175
f 177/177/177 178/178/178 173/174/174
f 178/178/178 179/179/179 180/180/180
f 178/178/178 180/180/180 173/174/174
f 181/181/181 180/180/180 179/179/179
f 166/166/166 180/180/180 181/181/181
f 173/174/174 180/180/180 166/166/166
f 181/181/181 179/179/179 183/182/182
f 164/164/164 181/181/181 182/183/183
f 183/182/182 182/183/183 181/181/181
f 166/166/166 181/181/181 164/164/164
f 183/182/182 184/184/184 182/183/183
f 185/185/185 184/184/184 186/186/186
f 185/185/185 182/183/183 184/184/184
f 188/187/187 186/186/186 187/188/188
f 188/187/187 185/185/185 186/186/186
f 188/187/187 156/156/156 160/161/161
f 188/187/187 189/189/189 156/156/156
f 187/188/188 189/189/189 188/187/187
f 188/187/187 159/159/159 185/185/185
f 188/187/187 160/161/161 159/159/159
f 187/188/188 191/190/190 189/189/189
f 190/191/191 156/156/156 189/189/189
f 190/191/191 189/189/189 191/190/190
f 190/191/191 191/190/190 192/192/192
f 192/192/192 193/193/193 190/191/191
f 192/192/192 194/194/194 193/193/193
f 194/194/194 195/195/195 193/193/193
f 194/194/194 196/196/196 195/195/195
f 196/196/196 197/197/197 195/195/195
f 196/196/196 198/198/198 197/197/197
f 198/198/198 199/199/199 197/197/197
f 198/198/198 200/200/200 199/199/199
f 200/200/200 201/201/201 199/199/199
f 200/200/200 202/202/202 201/201/201
f 202/202/202 203/203/203 201/201/201
f 202/202/202 204/204/204 203/203/203
f 204/204/204 205/205/205 203/203/203
f 204/204/204 206/206/206 205/205/205
f 206/206/206 207/207/207 208/208/208
f 206/206/206 208/208/208 205/205/205
f 207/207/207 209/209/209 208/208/208
f 140/140/140 205/205/205 208/208/208
f 140/140/140 208/208/208 138/138/138
f 138/138/138 208/208/208 209/209/209
f 136/136/136 209/209/209 210/210/210
f 138/138/138 209/209/209 136/136/136
f 210/210/210 209/209/209 211/211/211
f 207/207/207 211/211/211 209/209/209
f 210/210/210 211/211/211 212/212/212
f 214/213/213 212/212/212 213/214/214
f 214/213/213 210/210/210 212/212/212
f 128/129/129 131/132/132 214/213/213
f 134/134/134 214/213/213 131/132/132
f 128/129/129 214/213/213 213/214/214
f 134/134/134 210/210/210 214/213/213
f 128/129/129 213/214/214 127/128/128
f 136/136/136 210/210/210 134/134/134
f 205/205/205 142/142/142 203/203/203
f 205/205/205 140/140/140 142/142/142
f 203/203/203 142/142/142 144/144/144
f 203/203/203 144/144/144 201/201/201
f 201/201/201 146/146/146 199/199/199
f 201/201/201 144/144/144 146/146/146
f 146/146/146 197/197/197 199/199/199
f 150/150/150 195/195/195 197/197/197
f 146/146/146 148/148/148 197/197/197
f 150/150/150 197/197/197 148/148/148
f 152/152/152 195/195/195 150/150/150
f 152/152/152 193/193/193 195/195/195
f 154/154/154 193/193/193 152/152/152
f 154/154/154 190/191/191 193/193/193
f 190/191/191 154/154/154 156/156/156
f 185/185/185 162/162/162 182/183/183
f 185/185/185 159/159/159 162/162/162
f 164/164/164 182/183/183 162/162/162
f 173/174/174 166/166/166 168/168/168
f 172/173/173 170/170/170 215/215/215
f 216/216/216 130/130/130 125/125/125
f 216/216/216 125/125/125 114/114/114
f 116/113/113 216/216/216 114/114/114
f 217/217/217 218/218/218 220/219/219
f 217/217/217 219/220/220 218/218/218
f 221/221/221 219/220/220 217/217/217
f 223/222/222 222/223/223 221/221/221
f 221/221/221 222/223/223 219/220/220
f 223/222/222 224/224/224 222/223/223
f 225/225/225 222/223/223 224/224/224
f 225/225/225 224/224/224 226/226/226
f 226/226/226 227/227/227 228/228/228
f 226/226/226 228/228/228 225/225/225
f 227/227/227 229/229/229 228/228/228
f 231/230/230 228/228/228 229/229/229
f 230/231/231 225/225/225 228/228/228
f 230/231/231 228/228/228 231/230/230
f 230/231/231 231/230/230 233/232/232
f 232/233/233 231/230/230 234/234/234
f 232/233/233 233/232/232 231/230/230
f 231/230/230 229/229/229 234/234/234
f 234/234/234 235/235/235 232/233/233
f 234/234/234 229/229/229 237/236/236
f 234/234/234 236/237/237 235/235/235
f 234/234/234 237/236/236 236/237/237
f 239/238/238 238/239/239 237/236/236
f 236/237/237 237/236/236 238/239/239
f 240/240/240 239/238/238 237/236/236
f 240/240/240 237/236/236 229/229/229
f 227/227/227 240/240/240 229/229/229
f 239/238/238 241/241/241 238/239/239
f 241/241/241 242/242/242 243/243/243
f 241/241/241 243/243/243 238/239/239
f 242/242/242 244/244/244 243/243/243
f 243/243/243 244/244/244 245/245/245
f 238/239/239 243/243/243 246/246/246
f 243/243/243 245/245/245 246/246/246
f 238/239/239 246/246/246 247/247/247
f 249/248/248 247/247/247 246/246/246
f 246/246/246 248/249/249 249/248/248
f 246/246/246 245/245/245 248/249/249
f 249/248/248 250/250/250 247/247/247
f 250/250/250 235/235/235 236/237/237
f 250/250/250 236/237/237 247/247/247
f 251/251/251 248/249/249 245/245/245
f 252/252/252 251/251/251 253/253/253
f 251/251/251 245/245/245 253/253/253
f 252/252/252 253/253/253 255/254/254
f 254/255/255 253/253/253 245/245/245
f 254/255/255 255/254/254 253/253/253
f 255/254/254 256/256/256 252/252/252
f 255/254/254 257/257/257 256/256/256
f 255/254/254 254/255/255 257/257/257
f 257/257/257 259/258/258 256/256/256
f 257/257/257 254/255/255 258/259/259
f 257/257/257 258/259/259 259/258/258
f 258/259/259 260/260/260 259/258/258
f 262/261/261 261/262/262 260/260/260
f 258/259/259 262/261/261 260/260/260
f 262/261/261 263/263/263 261/262/262
f 262/261/261 254/255/255 263/263/263
f 258/259/259 254/255/255 262/261/261
f 263/263/263 254/255/255 264/264/264
f 263/263/263 264/264/264 265/265/265
f 263/263/263 265/265/265 261/262/262
f 266/266/266 265/265/265 264/264/264
f 254/255/255 267/267/267 266/266/266
f 266/266/266 264/264/264 254/255/255
f 242/242/242 267/267/267 244/244/244
f 254/255/255 244/244/244 267/267/267
f 254/255/255 245/245/245 244/244/244
f 236/237/237 238/239/239 247/247/247
f 230/231/231 233/232/232 268/268/268
f 219/220/220 268/268/268 218/218/218
f 219/220/220 230/231/231 268/268/268
f 225/225/225 230/231/231 219/220/220
f 225/225/225 219/220/220 222/223/223
f 270/269/269 271/270/270 269/271/271
f 271/270/270 270/269/269 272/272/272
f 272/272/272 270/269/269 273/273/273
f 273/273/273 270/269/269 275/274/274
f 273/273/273 275/274/274 274/275/275
f 274/275/275 275/274/274 276/276/276
f 274/275/275 276/276/276 277/277/277
f 274/275/275 277/277/277 279/278/278
f 279/278/278 277/277/277 278/279/279
f 279/278/278 278/279/279 280/280/280
